<?xml version="1.0" standalone="no"?>
<!DOCTYPE svg PUBLIC "-//W3C//DTD SVG 1.1//EN" "http://www.w3.org/Graphics/SVG/1.1/DTD/svg11.dtd" >
<svg xmlns="http://www.w3.org/2000/svg" xmlns:xlink="http://www.w3.org/1999/xlink" version="1.1">
<metadata>
Created by FontForge 20170731 at Mon Aug 28 16:06:49 2023
 By Aleksey,,,
(c) 1989, 1992, 1994, 1996, 1998, 1999, 2000, 2001 Adobe Systems Incorporated. All rights reserved.
</metadata>
<defs>
<font id="AGaramondPro-Italic" horiz-adv-x="737" >
  <font-face 
    font-family="Adobe Garamond Pro"
    font-weight="400"
    font-style="italic"
    font-stretch="normal"
    units-per-em="2048"
    panose-1="2 2 5 2 5 5 6 9 4 3"
    ascent="1485"
    descent="-563"
    x-height="836"
    cap-height="1358"
    bbox="-373 -692 3415.53 1878"
    underline-thickness="102"
    underline-position="-307"
    slope="-18.5"
    unicode-range="U+0020-FB04"
  />
<missing-glyph horiz-adv-x="1024" 
d="M0 0v1434h1024v-1434h-1024zM512 809l348 522h-696zM573 717l349 -522v1044zM164 102h696l-348 523zM102 1239v-1044l349 522z" />
    <glyph glyph-name="T_h" unicode="Th" horiz-adv-x="2037" 
d="M627 1352h850q61 0 82.5 4.5t27.5 17.5l21 43q77 44 139 47l8 -12l-147 -418l-211 -612l4 -4q66 94 132 166.5t104.5 104.5t86.5 67q112 80 195 80q63 0 93 -39t30 -99q0 -98 -48 -232t-112 -247q-44 -79 -133 -168q-80 -80 -150 -80q-31 0 -49 12.5t-22 24t-4 23.5
q0 26 17 45.5t38 19.5q14 0 29 -12q36 -27 53 -27q22 0 40 23t42 80q49 118 98 284.5t49 243.5q0 62 -43 62q-40 0 -110 -56q-68 -52 -125.5 -112t-134.5 -160q-97 -130 -248 -426q-13 -25 -37 -25q-11 0 -21.5 2t-23 7.5t-15.5 16t1 28.5l364 1099q10 29 14.5 44.5
t8.5 35.5t2.5 29t-7 21t-17.5 16.5t-30.5 9.5t-44 6.5t-61.5 1.5h-223q-27 0 -38.5 -1t-23 -14t-16 -24.5t-17.5 -50.5l-299 -903q-20 -62 -30 -98.5t-13.5 -66.5t5.5 -45t26 -23.5t49 -10.5l76 -6q13 -10 11 -27.5t-19 -23.5q-153 6 -262 6q-106 0 -250 -6
q-12 7 -12.5 24.5t10.5 26.5l72 6q48 4 74 22t50 66t60 156l301 903q7 20 10.5 33.5t6 24t-0.5 16t-5.5 9.5t-12.5 5t-17.5 1.5t-25.5 0.5h-164q-76 0 -124.5 -8.5t-88 -34.5t-64 -54t-67.5 -87q-15 -6 -29.5 0t-17.5 20q89 143 147 275q6 7 19.5 7t19.5 -7q-5 -28 25 -37.5
t123 -9.5z" />
    <glyph glyph-name="Tcaron_h" unicode="&#x164;h" horiz-adv-x="2037" 
d="M627 1352h850q61 0 84.5 5t29.5 17l21 43q70 44 135 47l8 -12l-147 -418l-211 -612l4 -4q66 94 132 166.5t104.5 104.5t86.5 67q112 80 195 80q63 0 93 -39t30 -99q0 -98 -48 -232t-112 -247q-44 -79 -133 -168q-80 -80 -150 -80q-31 0 -49 12.5t-22 24t-4 23.5
q0 26 17 45.5t38 19.5q14 0 29 -12q36 -27 53 -27q22 0 40 23t42 80q49 118 98 284.5t49 243.5q0 62 -43 62q-40 0 -110 -56q-68 -52 -125.5 -112t-134.5 -160q-97 -130 -248 -426q-13 -25 -37 -25q-11 0 -21.5 2t-23 7.5t-15.5 16t1 28.5l364 1099q10 29 14.5 44.5
t8.5 35.5t2.5 29t-7 21t-17.5 16.5t-30.5 9.5t-44 6.5t-61.5 1.5h-223q-27 0 -38.5 -1t-23 -14t-16 -24.5t-17.5 -50.5l-299 -903q-20 -62 -30 -98.5t-13.5 -66.5t5.5 -45t26 -23.5t49 -10.5l76 -6q13 -10 11 -27.5t-19 -23.5q-153 6 -262 6q-106 0 -250 -6
q-12 7 -12.5 24.5t10.5 26.5l72 6q48 4 74 22t50 66t60 156l301 903q7 20 10.5 33.5t6 24t-0.5 16t-5.5 9.5t-12.5 5t-17.5 1.5t-25.5 0.5h-164q-76 0 -124.5 -8.5t-88 -34.5t-64 -54t-67.5 -87q-15 -6 -29.5 0t-17.5 20q89 143 147 275q6 7 19.5 7t19.5 -7q-5 -28 25 -37.5
t123 -9.5zM1341 1686l-282 -222q-29 -18 -47 -18q-20 0 -35 18l-180 222q-1 11 9.5 22t22.5 14l175 -129q19 -14 34 -14q13 0 33 10l252 133q10 0 15 -12t3 -24z" />
    <glyph glyph-name="Tcaron_h.swash" unicode="&#xe054;h" horiz-adv-x="2283" 
d="M285 958q9 161 131 277q158 149 471 149q48 0 102.5 -3t92 -6.5t101 -9.5t97.5 -9q286 -27 410 -27q134 0 147 49q28 103 96 103q31 0 47.5 -20t16.5 -48q0 -54 -47 -96l-308 -895l5 -4q66 94 132 166.5t104.5 104.5t86.5 67q112 80 195 80q63 0 93 -39t30 -99
q0 -98 -48 -232t-112 -247q-44 -79 -133 -168q-80 -80 -150 -80q-31 0 -49.5 12.5t-22.5 24t-4 23.5q0 26 17.5 45.5t38.5 19.5q13 0 28 -12q36 -27 54 -27q22 0 40 23t42 80q49 118 98 284.5t49 243.5q0 62 -43 62q-41 0 -111 -56q-68 -52 -125.5 -112t-134.5 -160
q-94 -125 -247 -426q-13 -25 -37 -25q-16 0 -30.5 3t-25.5 16.5t-4 34.5l420 1243q-79 -15 -184 -15q-85 0 -169 4.5t-89 4.5q-24 0 -31.5 -5.5t-15.5 -27.5l-332 -971q-15 -46 -23 -71.5t-12.5 -51t-2 -37.5t12.5 -23t26.5 -15t43.5 -7l90 -8q12 -10 9.5 -27.5t-19.5 -23.5
q-187 6 -291 6q-93 0 -256 -6q-12 8 -11.5 25t11.5 26l86 12q43 6 62.5 11.5t41.5 26.5t37 56.5t39 104.5l336 975q9 28 4 35.5t-33 9.5q-250 12 -266 12q-142 0 -244.5 -30t-154.5 -76q-50 -41 -77 -95t-30 -108q-3 -60 28 -91.5t81 -31.5q16 0 39 5t26 5q13 0 28 -20
t15 -41q-3 -35 -31.5 -59.5t-68.5 -24.5q-56 0 -101.5 39t-67 92.5t-19.5 105.5zM1599 1686l-282 -222q-29 -18 -47 -18q-20 0 -35 18l-180 222q-1 11 9.5 22t22.5 14l175 -129q19 -14 34 -14q13 0 33 10l252 133q10 0 15 -12t3 -24z" />
    <glyph glyph-name="uni021A_h.swash" unicode="&#xe055;h" horiz-adv-x="2283" 
d="M285 958q9 161 131 277q158 149 471 149q48 0 102.5 -3t92 -6.5t101 -9.5t97.5 -9q286 -27 410 -27q134 0 147 49q28 103 96 103q31 0 47.5 -20t16.5 -48q0 -54 -47 -96l-308 -895l5 -4q66 94 132 166.5t104.5 104.5t86.5 67q112 80 195 80q63 0 93 -39t30 -99
q0 -98 -48 -232t-112 -247q-44 -79 -133 -168q-80 -80 -150 -80q-31 0 -49.5 12.5t-22.5 24t-4 23.5q0 26 17.5 45.5t38.5 19.5q13 0 28 -12q36 -27 54 -27q22 0 40 23t42 80q49 118 98 284.5t49 243.5q0 62 -43 62q-41 0 -111 -56q-68 -52 -125.5 -112t-134.5 -160
q-94 -125 -247 -426q-13 -25 -37 -25q-16 0 -30.5 3t-25.5 16.5t-4 34.5l420 1243q-79 -15 -184 -15q-85 0 -169 4.5t-89 4.5q-24 0 -31.5 -5.5t-15.5 -27.5l-332 -971q-15 -46 -23 -71.5t-12.5 -51t-2 -37.5t12.5 -23t26.5 -15t43.5 -7l90 -8q12 -10 9.5 -27.5t-19.5 -23.5
q-187 6 -291 6q-93 0 -256 -6q-12 8 -11.5 25t11.5 26l86 12q43 6 62.5 11.5t41.5 26.5t37 56.5t39 104.5l336 975q9 28 4 35.5t-33 9.5q-250 12 -266 12q-142 0 -244.5 -30t-154.5 -76q-50 -41 -77 -95t-30 -108q-3 -60 28 -91.5t81 -31.5q16 0 39 5t26 5q13 0 28 -20
t15 -41q-3 -35 -31.5 -59.5t-68.5 -24.5q-56 0 -101.5 39t-67 92.5t-19.5 105.5zM776 -98q58 0 91.5 -42t33.5 -96q0 -98 -81 -164.5t-183 -86.5q-8 6 -11 19t1 24q157 77 157 170q0 25 -15.5 43t-41.5 22q-25 7 -25 45q0 29 21.5 47.5t52.5 18.5z" />
    <glyph glyph-name="T_h.swash" unicode="&#xe04d;h" horiz-adv-x="2283" 
d="M285 958q9 161 131 277q158 149 471 149q48 0 102.5 -3t92 -6.5t101 -9.5t97.5 -9q286 -27 410 -27q134 0 147 49q28 103 96 103q31 0 47.5 -20t16.5 -48q0 -54 -47 -96l-308 -895l5 -4q66 94 132 166.5t104.5 104.5t86.5 67q112 80 195 80q63 0 93 -39t30 -99
q0 -98 -48 -232t-112 -247q-44 -79 -133 -168q-80 -80 -150 -80q-31 0 -49.5 12.5t-22.5 24t-4 23.5q0 26 17.5 45.5t38.5 19.5q13 0 28 -12q36 -27 54 -27q22 0 40 23t42 80q49 118 98 284.5t49 243.5q0 62 -43 62q-41 0 -111 -56q-68 -52 -125.5 -112t-134.5 -160
q-94 -125 -247 -426q-13 -25 -37 -25q-16 0 -30.5 3t-25.5 16.5t-4 34.5l420 1243q-79 -15 -184 -15q-85 0 -169 4.5t-89 4.5q-24 0 -31.5 -5.5t-15.5 -27.5l-332 -971q-15 -46 -23 -71.5t-12.5 -51t-2 -37.5t12.5 -23t26.5 -15t43.5 -7l90 -8q12 -10 9.5 -27.5t-19.5 -23.5
q-187 6 -291 6q-93 0 -256 -6q-12 8 -11.5 25t11.5 26l86 12q43 6 62.5 11.5t41.5 26.5t37 56.5t39 104.5l336 975q9 28 4 35.5t-33 9.5q-250 12 -266 12q-142 0 -244.5 -30t-154.5 -76q-50 -41 -77 -95t-30 -108q-3 -60 28 -91.5t81 -31.5q16 0 39 5t26 5q13 0 28 -20
t15 -41q-3 -35 -31.5 -59.5t-68.5 -24.5q-56 0 -101.5 39t-67 92.5t-19.5 105.5z" />
    <glyph glyph-name="f_f_j" unicode="ffj" horiz-adv-x="1527" 
d="M821 731h-350q-7 -20 -24 -81.5t-23 -80.5q-22 -77 -87.5 -314.5t-105.5 -365.5q-39 -130 -82.5 -216.5t-78.5 -118.5q-20 -20 -45 -39.5t-79.5 -42.5t-109.5 -23q-63 0 -98 35.5t-35 69.5q0 12 2 22t4.5 16t8 12.5t8 9t8.5 7.5t8 6q14 12 25 12t18 -7t16 -23
q21 -34 56 -55t67 -21q76 0 129 170q55 180 140 526t131 502h-168q-15 13 -12.5 38t22.5 38h180q87 300 205 440q139 168 326 168q81 0 133.5 -34.5t46.5 -98.5l4 -4q164 186 366 186q99 0 161.5 -44.5t62.5 -116.5q0 -42 -31.5 -65.5t-65.5 -23.5q-59 0 -59 52
q0 137 -104 137q-103 0 -197 -117q-44 -56 -85 -146.5t-62 -153t-58 -179.5h195q78 0 172 14.5t100 14.5q29 0 30 -32.5t-13 -76.5q-14 -57 -87 -297q-127 -423 -186 -573q-148 -359 -369 -359q-67 0 -102 35.5t-35 75.5q0 28 19 54t47 26q14 0 24 -21q24 -40 56.5 -64
t60.5 -24q29 0 53.5 23t49.5 80q81 193 221 661q15 51 39 129.5t38.5 126t18.5 68.5q5 39 -7 51t-65 12h-280q-19 -66 -98 -345t-126 -431q-84 -273 -163 -352q-20 -20 -45 -39.5t-79.5 -42.5t-109.5 -23q-63 0 -98 35.5t-35 69.5q0 12 2 22t4.5 16t8 12.5t8 9t8.5 7.5t8 6
q14 12 25 12t18 -7t16 -23q21 -34 56 -55t67 -21q79 0 131 187q47 165 130.5 495.5t123.5 466.5zM489 807h353q71 236 157 389q-6 70 -50 114t-99 44q-119 0 -205 -148q-79 -137 -156 -399z" />
    <glyph glyph-name="f_j" unicode="fj" horiz-adv-x="1030" 
d="M324 731h-170q-15 15 -10.5 39.5t24.5 36.5h176q103 347 240 491q157 166 340 166q99 0 161 -44.5t62 -116.5q0 -42 -31 -65.5t-65 -23.5q-60 0 -60 52q0 137 -104 137q-105 0 -193 -117q-44 -60 -84.5 -150.5t-60.5 -150.5t-57 -178h194q62 0 172 14q88 15 100 15
q29 0 29.5 -32.5t-12.5 -76.5q-9 -46 -86 -297q-129 -432 -187 -573q-148 -359 -368 -359q-67 0 -102 35.5t-35 75.5q0 29 18.5 54.5t46.5 25.5q14 0 25 -21q24 -41 56 -64.5t60 -23.5q29 0 53.5 23t49.5 80q74 170 221 661q15 51 39 129.5t38.5 126t18.5 68.5
q8 38 -4.5 50.5t-66.5 12.5h-281q-7 -20 -24 -81.5t-23 -80.5q-22 -77 -87.5 -314.5t-105.5 -365.5q-39 -130 -82.5 -216.5t-78.5 -118.5q-20 -20 -45 -39.5t-79.5 -42.5t-109.5 -23q-63 0 -98 35.5t-35 69.5q0 45 39 73q14 12 25 12t18 -7t16 -23q21 -34 56 -55t67 -21
q76 0 129 170q55 180 140 526t131 502z" />
    <glyph glyph-name="f_f" unicode="ff" horiz-adv-x="1032" 
d="M821 731h-350q-7 -20 -24 -81.5t-23 -80.5q-22 -77 -87.5 -314.5t-105.5 -365.5q-39 -130 -82.5 -216.5t-78.5 -118.5q-20 -20 -45 -39.5t-79.5 -42.5t-109.5 -23q-63 0 -98 35.5t-35 69.5q0 12 2 22t4.5 16t8 12.5t8 9t8.5 7.5t8 6q14 12 25 12t18 -7t16 -23
q21 -34 56 -55t67 -21q76 0 129 170q55 180 140 526t131 502h-168q-15 13 -12.5 38t22.5 38h180q87 300 205 440q139 168 326 168q81 0 133.5 -34.5t46.5 -98.5l4 -4q157 186 352 186q67 0 117.5 -37.5t50.5 -95.5q0 -43 -21.5 -75t-50.5 -48q-20 -10 -31.5 -2t-11.5 29
q0 83 -39 121.5t-88 38.5q-80 0 -159 -109q-96 -132 -193 -479h254q12 -17 7 -41.5t-27 -34.5h-252q-19 -66 -98 -345t-126 -431q-84 -273 -163 -352q-20 -20 -45 -39.5t-79.5 -42.5t-109.5 -23q-63 0 -98 35.5t-35 69.5q0 12 2 22t4.5 16t8 12.5t8 9t8.5 7.5t8 6
q14 12 25 12t18 -7t16 -23q21 -34 56 -55t67 -21q79 0 131 187q47 165 130.5 495.5t123.5 466.5zM489 807h353q71 236 157 389q-6 70 -50 114t-99 44q-119 0 -205 -148q-79 -137 -156 -399z" />
    <glyph glyph-name="f_f_i" unicode="ffi" horiz-adv-x="1527" 
d="M821 731h-350q-7 -20 -24 -81.5t-23 -80.5q-22 -77 -87.5 -314.5t-105.5 -365.5q-39 -130 -82.5 -216.5t-78.5 -118.5q-20 -20 -45 -39.5t-79.5 -42.5t-109.5 -23q-63 0 -98 35.5t-35 69.5q0 12 2 22t4.5 16t8 12.5t8 9t8.5 7.5t8 6q14 12 25 12t18 -7t16 -23
q21 -34 56 -55t67 -21q76 0 129 170q55 180 140 526t131 502h-168q-15 13 -12.5 38t22.5 38h180q87 300 205 440q139 168 326 168q81 0 133.5 -34.5t46.5 -98.5l4 -4q164 186 366 186q99 0 161.5 -44.5t62.5 -116.5q0 -42 -31.5 -65.5t-65.5 -23.5q-59 0 -59 52
q0 137 -104 137q-103 0 -197 -117q-44 -56 -85 -146.5t-62 -153t-58 -179.5h195q78 0 172 14.5t100 14.5q21 0 28.5 -15.5t4 -39.5t-15.5 -54l-234 -584q-7 -15 -6 -30t12 -15q27 0 94.5 47t118.5 105q31 -3 31 -35q-12 -23 -53.5 -63t-96 -81t-119.5 -70.5t-114 -29.5
q-17 0 -33 19q-18 21 -6 55l242 623q15 37 4.5 50t-64.5 13h-280q-19 -66 -98 -345t-126 -431q-84 -273 -163 -352q-20 -20 -45 -39.5t-79.5 -42.5t-109.5 -23q-63 0 -98 35.5t-35 69.5q0 12 2 22t4.5 16t8 12.5t8 9t8.5 7.5t8 6q14 12 25 12t18 -7t16 -23q21 -34 56 -55
t67 -21q79 0 131 187q47 165 130.5 495.5t123.5 466.5zM489 807h353q71 236 157 389q-6 70 -50 114t-99 44q-119 0 -205 -148q-79 -137 -156 -399z" />
    <glyph glyph-name="f_f_l" unicode="ffl" horiz-adv-x="1499" 
d="M324 731h-168q-15 13 -12.5 38t22.5 38h180q87 300 205 440q139 168 326 168q81 0 133.5 -34.5t46.5 -98.5l4 -4q157 186 338 186q98 0 166 -65q76 50 121 65l14 -12q-32 -82 -125 -352l-328 -967q-8 -24 -10 -38.5t3 -21.5t17 -7q53 0 236 206q33 3 33 -28
q-23 -43 -55 -86.5t-77 -87.5t-103.5 -71.5t-119.5 -27.5q-77 0 -77 62q0 40 45 174l178 524h-348q-19 -66 -98 -345t-126 -431q-84 -273 -163 -352q-20 -20 -45 -39.5t-79.5 -42.5t-109.5 -23q-63 0 -98 35.5t-35 69.5q0 12 2 22t4.5 16t8 12.5t8 9t8.5 7.5t8 6
q14 12 25 12t18 -7t16 -23q21 -34 56 -55t67 -21q79 0 131 187q47 165 130.5 495.5t123.5 466.5h-350q-7 -20 -24 -81.5t-23 -80.5q-22 -77 -87.5 -314.5t-105.5 -365.5q-39 -130 -82.5 -216.5t-78.5 -118.5q-20 -20 -45 -39.5t-79.5 -42.5t-109.5 -23q-63 0 -98 35.5
t-35 69.5q0 12 2 22t4.5 16t8 12.5t8 9t8.5 7.5t8 6q14 12 25 12t18 -7t16 -23q21 -34 56 -55t67 -21q76 0 129 170q55 180 140 526t131 502zM489 807h353q71 236 157 389q-6 70 -50 114t-99 44q-119 0 -205 -148q-79 -137 -156 -399zM989 807h352l146 424
q25 71 -10.5 121.5t-102.5 50.5q-46 0 -94.5 -28.5t-87.5 -76.5q-99 -126 -203 -491z" />
    <glyph glyph-name="uni021A_h" unicode="&#x21a;h" horiz-adv-x="2037" 
d="M627 1352h850q61 0 82.5 4.5t27.5 17.5l21 43q77 44 139 47l8 -12l-147 -418l-211 -612l4 -4q66 94 132 166.5t104.5 104.5t86.5 67q112 80 195 80q63 0 93 -39t30 -99q0 -98 -48 -232t-112 -247q-44 -79 -133 -168q-80 -80 -150 -80q-31 0 -49 12.5t-22 24t-4 23.5
q0 26 17 45.5t38 19.5q14 0 29 -12q36 -27 53 -27q22 0 40 23t42 80q49 118 98 284.5t49 243.5q0 62 -43 62q-40 0 -110 -56q-68 -52 -125.5 -112t-134.5 -160q-97 -130 -248 -426q-13 -25 -37 -25q-11 0 -21.5 2t-23 7.5t-15.5 16t1 28.5l364 1099q10 29 14.5 44.5
t8.5 35.5t2.5 29t-7 21t-17.5 16.5t-30.5 9.5t-44 6.5t-61.5 1.5h-223q-27 0 -38.5 -1t-23 -14t-16 -24.5t-17.5 -50.5l-299 -903q-20 -62 -30 -98.5t-13.5 -66.5t5.5 -45t26 -23.5t49 -10.5l76 -6q13 -10 11 -27.5t-19 -23.5q-153 6 -262 6q-106 0 -250 -6
q-12 7 -12.5 24.5t10.5 26.5l72 6q48 4 74 22t50 66t60 156l301 903q7 20 10.5 33.5t6 24t-0.5 16t-5.5 9.5t-12.5 5t-17.5 1.5t-25.5 0.5h-164q-76 0 -124.5 -8.5t-88 -34.5t-64 -54t-67.5 -87q-15 -6 -29.5 0t-17.5 20q89 143 147 275q6 7 19.5 7t19.5 -7q-5 -28 25 -37.5
t123 -9.5zM537 -98q58 0 91.5 -42t33.5 -96q0 -98 -81.5 -164.5t-183.5 -86.5q-8 6 -11 19t1 24q158 78 158 170q0 25 -16 43t-42 22q-24 7 -24 45q0 29 21.5 47.5t52.5 18.5z" />
    <glyph glyph-name="f_i" unicode="fi" horiz-adv-x="1030" 
d="M324 731h-170q-15 15 -10.5 39.5t24.5 36.5h176q103 347 240 491q157 166 340 166q99 0 161 -44.5t62 -116.5q0 -42 -31 -65.5t-65 -23.5q-60 0 -60 52q0 137 -104 137q-105 0 -193 -117q-44 -60 -84.5 -150.5t-60.5 -150.5t-57 -178h194q62 0 172 14q88 15 100 15
q21 0 28.5 -15.5t4 -39.5t-15.5 -54l-234 -584q-7 -15 -5.5 -30t12.5 -15q27 0 94.5 47t118.5 105q30 -3 30 -35q-12 -23 -53.5 -63t-96 -81t-119.5 -70.5t-114 -29.5q-17 0 -33 19q-18 21 -6 55l242 623q16 37 5 50t-64 13h-281q-7 -20 -24 -81.5t-23 -80.5
q-22 -77 -87.5 -314.5t-105.5 -365.5q-39 -130 -82.5 -216.5t-78.5 -118.5q-20 -20 -45 -39.5t-79.5 -42.5t-109.5 -23q-63 0 -98 35.5t-35 69.5q0 45 39 73q14 12 25 12t18 -7t16 -23q21 -34 56 -55t67 -21q76 0 129 170q55 180 140 526t131 502z" />
    <glyph glyph-name="f_l" unicode="fl" horiz-adv-x="1001" 
d="M170 807h174q49 169 103.5 288t132.5 208q144 161 321 161q98 0 166 -65q76 50 121 65l14 -12q-32 -82 -125 -352l-327 -967q-8 -24 -10 -38.5t3 -21.5t17 -7q52 0 235 206q33 3 33 -28q-23 -43 -55 -86.5t-76.5 -87.5t-103 -71.5t-119.5 -27.5q-78 0 -78 62q0 40 45 174
l178 524h-348q-7 -20 -24 -81.5t-23 -80.5q-22 -77 -87.5 -314.5t-105.5 -365.5q-39 -130 -82.5 -216.5t-78.5 -118.5q-20 -20 -45 -39.5t-79.5 -42.5t-109.5 -23q-63 0 -98 35.5t-35 69.5q0 45 39 73q14 12 25 12t18 -7t16 -23q21 -34 56 -55t67 -21q76 0 129 170
q55 180 140 526t131 502h-168q-15 13 -10.5 38t24.5 38zM492 807h352l145 424q25 71 -10 121.5t-102 50.5q-102 0 -181 -107q-102 -140 -204 -489z" />
    <glyph glyph-name=".notdef" horiz-adv-x="1024" 
d="M0 0v1434h1024v-1434h-1024zM512 809l348 522h-696zM573 717l349 -522v1044zM164 102h696l-348 523zM102 1239v-1044l349 522z" />
    <glyph glyph-name=".null" horiz-adv-x="0" 
 />
    <glyph glyph-name="nonmarkingreturn" horiz-adv-x="682" 
 />
    <glyph glyph-name="space" unicode=" " horiz-adv-x="512" 
 />
    <glyph glyph-name="exclam" unicode="!" horiz-adv-x="421" 
d="M514 1323q57 0 75.5 -17t8.5 -49q-4 -11 -11 -29.5t-24 -60t-33 -82.5l-254 -665q-6 -12 -25 -12t-28 12l142 661q30 141 41 179q12 40 33 51.5t75 11.5zM174 195q42 0 66 -27.5t24 -65.5q0 -59 -35 -95t-82 -36q-42 0 -66 26t-24 71q0 54 35.5 90.5t81.5 36.5z" />
    <glyph glyph-name="quotedbl" unicode="&#x22;" horiz-adv-x="778" 
d="M565 1405q26 0 40.5 -4t21.5 -12t5 -25t-8 -36t-20 -52l-135 -330q-5 -12 -23 -12t-24 12l37 330q9 88 25 108.5t81 20.5zM889 1405q26 0 40.5 -4t21.5 -12t5 -25t-8 -36t-20 -52l-135 -330q-5 -12 -23.5 -12t-24.5 12l37 330q9 88 25 108.5t82 20.5z" />
    <glyph glyph-name="numbersign" unicode="#" horiz-adv-x="1024" 
d="M825 827h-231l-139 -331h233zM1124 827h-204l-140 -331h201l-43 -99h-195l-163 -397h-88l159 397h-233l-164 -397h-86l160 397h-224l43 99h218l135 331h-224l48 99h217l145 356h96l-147 -356h231l144 356h98l-147 -356h204z" />
    <glyph glyph-name="dollar" unicode="$" horiz-adv-x="1024" 
d="M616 791l134 456q-106 -5 -184.5 -73t-78.5 -173q0 -127 129 -210zM637 592l-154 -531q136 3 219.5 76.5t83.5 190.5q0 97 -37.5 157t-111.5 107zM893 1468l-47 -161q129 -12 248 -70q7 -83 -33 -221q-4 -8 -22.5 -9.5t-24.5 3.5q3 31 -4.5 65t-26.5 70t-60 63.5
t-98 36.5l-143 -495q59 -37 98 -67t78 -72.5t58.5 -95.5t19.5 -116q0 -127 -67.5 -219.5t-173 -136t-232.5 -43.5l-57 -193q-12 -12 -40.5 -12t-37.5 12l57 197q-107 11 -182.5 45.5t-112.5 69.5q-14 34 -11.5 107t21.5 155q6 7 21.5 7.5t25.5 -5.5q0 -42 14 -87.5
t42.5 -92.5t81.5 -83.5t121 -49.5l165 565q-221 125 -221 305q0 164 120 263.5t298 105.5l47 159q13 10 39 10t39 -10z" />
    <glyph glyph-name="percent" unicode="%" horiz-adv-x="1767" 
d="M694 1311q112 0 172 -75t60 -202q0 -121 -56 -241t-151 -198.5t-199 -78.5q-121 0 -183.5 73t-62.5 199t53.5 245.5t152 198.5t214.5 79zM410 731q0 -153 104 -153q64 0 119.5 62.5t88 151t51 173t18.5 139.5q0 66 -27 105.5t-74 39.5q-62 0 -118 -61.5t-89.5 -148
t-53 -170t-19.5 -138.5zM1483 770q112 0 171.5 -74.5t59.5 -201.5q0 -121 -55.5 -241.5t-150.5 -199t-199 -78.5q-121 0 -183.5 73.5t-62.5 199.5t53.5 245.5t152 198t214.5 78.5zM1198 190q0 -75 27.5 -114t77.5 -39q52 0 98.5 41.5t78 104.5t54.5 136.5t34 137t11 106.5
q0 67 -26.5 106.5t-73.5 39.5q-62 0 -118 -61.5t-90 -148t-53.5 -170.5t-19.5 -139zM381 -29q600 713 1141 1368q21 0 40 -14t19 -37q-567 -672 -1145 -1370q-27 0 -41 14.5t-14 38.5z" />
    <glyph glyph-name="ampersand" unicode="&#x26;" horiz-adv-x="1576" 
d="M614 -29q-117 0 -206.5 34t-141.5 92.5t-78 130t-26 153.5q0 98 43 212.5t153 227.5q47 49 96.5 83t90.5 49.5t69.5 21.5t49.5 6q22 0 40 -4.5t29 -9.5t23 -16.5t15.5 -16t12.5 -18.5t9 -15q68 56 156.5 146t131.5 147q26 33 50 84.5t24 87.5t-25 61q-13 13 -17.5 21.5
t-4.5 24.5q0 39 25 61t57 22q40 0 67 -26t27 -82q0 -83 -60 -184t-198 -236q-119 -117 -333.5 -284t-393.5 -289v-17q0 -93 34 -164t89 -110t116 -57.5t124 -18.5q134 0 272.5 88t224.5 246q58 107 82 197t29 217q-39 34 -107 34q-50 0 -99.5 -40.5t-49.5 -90.5q0 -6 16 -67
q14 -54 14 -58q0 -10 -4 -21.5t-20.5 -23.5t-42.5 -12q-35 0 -61.5 21.5t-26.5 60.5q0 46 34.5 108.5t104.5 120.5q54 45 112 64.5t91 19.5q28 0 54.5 -7t42.5 -12.5t45.5 -28t38 -29t46 -41t45.5 -41.5q6 -6 17.5 -16.5t15 -13.5t11 -9t10.5 -7.5t9.5 -4t12.5 -3t14 -0.5
q15 0 28 19t13 45q0 27 -8 51q-8 28 -8 31q0 19 19 35t46 16q38 0 57 -34.5t19 -80.5q0 -57 -39 -96q-11 -13 -53 -20q-28 -3 -78 -19.5t-76 -32.5q-30 -18 -49 13q-10 16 -54.5 63.5t-86.5 81.5q0 -96 -8 -174q-4 -42 -20.5 -102t-66.5 -159.5t-122 -180.5
q-100 -113 -235.5 -168.5t-256.5 -55.5zM303 532q224 154 334 250q2 18 2 49q0 29 -19 46.5t-49 17.5q-26 0 -70.5 -28.5t-86.5 -82.5q-89 -119 -111 -252z" />
    <glyph glyph-name="quotesingle" unicode="'" horiz-adv-x="425" 
d="M555 1405q26 0 40.5 -4t21.5 -12t5 -25t-8 -36t-20 -52l-135 -330q-5 -12 -23 -12t-24 12l37 330q9 88 25 108.5t81 20.5z" />
    <glyph glyph-name="parenleft" unicode="(" horiz-adv-x="655" 
d="M295 287q0 -380 131 -598q0 -12 -9.5 -18.5t-23.5 -4.5q-114 118 -161.5 273.5t-47.5 365.5q0 249 105.5 475.5t296.5 417.5q141 141 332 242q11 0 18.5 -9t7.5 -20q-96 -66 -189.5 -153.5t-160.5 -180.5q-299 -418 -299 -790z" />
    <glyph glyph-name="parenright" unicode=")" horiz-adv-x="655" 
d="M512 819q0 380 -131 598q0 12 9.5 18.5t23.5 4.5q114 -118 161.5 -273.5t47.5 -365.5q0 -249 -105.5 -475.5t-296.5 -417.5q-141 -141 -332 -242q-11 0 -18.5 9t-7.5 20q96 66 189.5 153.5t160.5 180.5q299 418 299 790z" />
    <glyph glyph-name="asterisk" unicode="*" horiz-adv-x="819" 
d="M741 1372l-41 -264l279 68q13 -4 17.5 -20t-3.5 -28l-266 -106l191 -211q2 -14 -8.5 -27t-24.5 -12l-217 189l-80 -256q-10 -5 -26 -2t-23 14l39 264l-279 -74q-12 4 -16 20.5t4 28.5l262 107l-193 213q-2 14 9.5 25t25.5 10l219 -183l82 254q10 5 25 2t24 -12z" />
    <glyph glyph-name="plus" unicode="+" horiz-adv-x="1146" 
d="M696 0h-121v371h-333v100h333v336h121v-336h334v-100h-334v-371z" />
    <glyph glyph-name="comma" unicode="," horiz-adv-x="512" 
d="M182 240q68 0 107 -49.5t39 -112.5q0 -69 -51 -132.5t-118.5 -102.5t-140.5 -60q-10 4 -14.5 17.5t0.5 23.5q189 86 189 213q0 30 -18 51.5t-50 28.5q-13 3 -22 15.5t-9 29.5q0 33 26 55.5t62 22.5z" />
    <glyph glyph-name="hyphen" unicode="-" horiz-adv-x="655" 
d="M137 471l498 45q15 -20 9.5 -59t-26.5 -58l-497 -45q-15 20 -9.5 59t25.5 58z" />
    <glyph glyph-name="period" unicode="." horiz-adv-x="512" 
d="M211 195q42 0 66 -27.5t24 -65.5q0 -59 -35 -95t-82 -36q-42 0 -66 26t-24 71q0 54 35.5 90.5t81.5 36.5z" />
    <glyph glyph-name="slash" unicode="/" horiz-adv-x="512" 
d="M731 1384l-627 -1417h-118l626 1417h119z" />
    <glyph glyph-name="zero" unicode="0" horiz-adv-x="1024" 
d="M801 1311q293 0 293 -393q0 -178 -77.5 -387t-197.5 -355q-168 -205 -362 -205q-74 0 -130 25.5t-88.5 65t-52.5 94t-27 105t-7 106.5q0 189 74.5 390t195.5 343q177 211 379 211zM795 1249q-66 0 -135 -60t-128 -161q-93 -161 -158 -386t-65 -392q0 -217 156 -217
q50 0 97.5 32t81.5 75t69 109.5t53.5 110.5t40.5 103q129 351 129 557q0 229 -141 229z" />
    <glyph glyph-name="one" unicode="1" horiz-adv-x="1024" 
d="M829 1053l-241 -805q-15 -51 -20.5 -82.5t-4.5 -53.5t14.5 -34t32 -17.5t52.5 -9.5l53 -6q9 -7 8.5 -26t-10.5 -25q-156 6 -264 6q-112 0 -250 -6q-12 8 -12 27t12 24l51 6q94 12 127 49t69 162l205 690q35 120 28.5 155.5t-65.5 41.5l-94 10q-9 8 -7 22t11 19
q228 39 365 111q19 3 26 -11q-51 -132 -86 -247z" />
    <glyph glyph-name="two" unicode="2" horiz-adv-x="1024" 
d="M733 518l-174 -135q-274 -212 -274 -242q0 -18 69 -18h240q52 0 76.5 0.5t55 5t44 10.5t34 21.5t36 34t39.5 51.5q27 10 43 -13q-21 -63 -56.5 -136t-60.5 -103q-123 6 -301 6h-295q-160 0 -215 -6q-12 6 -12 22q0 7 2 11q203 136 419 317q13 11 57 47.5t65 54t64 55.5
t67 61.5t61.5 62t59 67.5t47.5 68t40 72t23.5 71t9.5 74q0 113 -60.5 175t-156.5 62q-168 0 -307 -188q-16 -8 -30 1t-13 30q68 117 180.5 185.5t232.5 68.5q157 0 244.5 -82.5t87.5 -222.5q0 -71 -28.5 -140t-82 -132t-106 -111.5t-125.5 -104.5z" />
    <glyph glyph-name="three" unicode="3" horiz-adv-x="1024" 
d="M750 1311q126 0 194 -59t68 -158q0 -41 -20 -79.5t-49 -67t-71.5 -56t-77 -45t-77.5 -35.5q-23 -11 -16.5 -23.5t32.5 -17.5q97 -19 164.5 -92.5t67.5 -188.5q0 -135 -90 -262t-211 -202q-225 -140 -469 -140q-92 0 -148.5 33t-56.5 88q0 36 24 60t62 24q12 0 23 -4
t17.5 -7t17 -14.5t13 -14.5t13.5 -19t12 -17q37 -55 117 -55q52 0 126 22.5t140 65.5q110 72 169.5 182t59.5 238q0 102 -59.5 164.5t-167.5 62.5q-122 0 -242 -104q-25 3 -34 30t8 50q252 100 366 168q189 112 189 237q0 79 -45 116.5t-111 37.5q-149 0 -305 -180
q-18 -2 -28 7t-9 27q64 99 169 163.5t235 64.5z" />
    <glyph glyph-name="four" unicode="4" horiz-adv-x="1024" 
d="M963 391h-109q-39 0 -52.5 -8.5t-23.5 -40.5l-39 -125q-31 -93 -25 -126t64 -40l51 -6q9 -7 6.5 -27t-12.5 -24q-123 6 -221 6q-116 0 -242 -6q-12 5 -11 25t13 26l82 6q72 6 98 37t54 129l35 119q11 40 4.5 47.5t-47.5 7.5h-494q-13 0 -16.5 7t-3.5 24q0 13 11 27t42 45
l6 6l930 919q27 27 51 27h39q27 0 27 -16q0 -6 -17 -23l-921 -899q-30 -30 2 -36q14 -3 47 -3h321q37 0 50.5 9t23.5 44l113 381q9 30 28 41q67 35 113 35q10 0 14.5 -3.5t4 -14t-2.5 -18.5t-8 -28l-117 -393q-10 -29 -4.5 -41t31.5 -12h129q9 -19 1 -44t-25 -34z" />
    <glyph glyph-name="five" unicode="5" horiz-adv-x="1024" 
d="M492 1090l-58 -129q-11 -28 -7.5 -35.5t24.5 -10.5l55 -8q68 -10 122 -24t115 -44t102 -71.5t68 -109t27 -154.5q0 -175 -122 -320t-294 -219q-212 -92 -479 -104q-21 6 -23.5 31t13.5 38q169 1 311.5 44.5t236.5 115.5t146.5 166t52.5 197q0 82 -26.5 143.5t-69 98
t-105.5 59.5t-126.5 31.5t-141.5 9.5q-11 0 -16.5 4t-5.5 12.5t3.5 19t10.5 27.5l168 356q12 26 31 38t59 18l514 69q15 -3 23 -18q-14 -34 -38.5 -68t-49.5 -53l-422 -57q-50 -6 -68 -15.5t-30 -37.5z" />
    <glyph glyph-name="six" unicode="6" horiz-adv-x="1024" 
d="M645 688q-61 0 -106 -18q-18 26 -7 37q33 27 87.5 45t91.5 18q135 0 216 -84.5t81 -255.5q0 -83 -38 -165.5t-102 -147.5t-156.5 -105.5t-193.5 -40.5q-185 0 -282 106.5t-97 293.5q0 210 124 425t302 347q319 237 721 276q12 -3 12.5 -21t-8.5 -24q-87 -22 -123.5 -32.5
t-119 -38.5t-154 -66.5t-141.5 -89.5q-203 -149 -322 -377.5t-119 -439.5q0 -139 54.5 -218t169.5 -79q69 0 127 40.5t94 104t55.5 136.5t19.5 143q0 107 -49.5 169t-136.5 62z" />
    <glyph glyph-name="seven" unicode="7" horiz-adv-x="1024" 
d="M967 924l-781 -1055q-26 -4 -45.5 10t-17.5 33l868 1167q24 32 26 50t-11.5 24t-44.5 6h-392q-61 0 -91.5 -2t-57 -15t-39 -26.5t-43.5 -50.5q-8 -7 -24 -2t-21 16q63 93 106 209q62 -4 88 -4q33 -2 127 -2h347q249 0 276 6q18 -6 14 -24q-108 -101 -284 -340z" />
    <glyph glyph-name="eight" unicode="8" horiz-adv-x="1024" 
d="M496 -29q-166 0 -274.5 83t-108.5 227q0 56 18.5 105t43.5 82t71 69t78.5 55t91 51.5t84.5 48.5q-71 47 -114.5 115t-43.5 137q0 152 115.5 259.5t275.5 107.5q150 0 239 -85.5t89 -215.5q0 -46 -19.5 -87t-45.5 -70t-74.5 -61.5t-83 -51t-95.5 -48.5q89 -63 146 -146
t57 -179q0 -90 -38 -166t-101 -125.5t-144 -77t-167 -27.5zM504 33q54 0 103 18.5t89 53.5t64 92.5t24 130.5q0 57 -18.5 106t-53.5 88t-71.5 67.5t-85.5 57.5q-140 -81 -213.5 -164t-73.5 -196q0 -125 69 -189.5t167 -64.5zM915 1032q0 96 -51 156.5t-141 60.5
q-97 0 -167.5 -70t-70.5 -182q0 -44 14.5 -81t45 -69.5t62 -57t81.5 -56.5q49 30 85 57.5t70.5 64.5t53 81.5t18.5 95.5z" />
    <glyph glyph-name="nine" unicode="9" horiz-adv-x="1024" 
d="M750 1311q93 0 163 -29.5t111.5 -83t61.5 -122t20 -152.5q0 -108 -47 -241.5t-129 -256.5q-156 -230 -389.5 -368.5t-515.5 -180.5q-12 4 -15.5 22t4.5 25q442 113 676 412q114 144 182 327.5t68 329.5q0 111 -47.5 183.5t-147.5 72.5q-85 0 -157 -56.5t-112 -146.5
t-40 -188q0 -64 15 -114t56.5 -85.5t106.5 -35.5q42 0 78 8q9 -4 11.5 -17t-3.5 -22q-30 -21 -78 -35t-85 -14q-122 0 -198.5 82.5t-76.5 212.5q0 81 37.5 165.5t101 152.5t156 111.5t193.5 43.5z" />
    <glyph glyph-name="colon" unicode=":" horiz-adv-x="512" 
d="M391 807q42 0 66 -27t24 -65q0 -59 -34.5 -95t-81.5 -36q-43 0 -67 26t-24 70q0 54 35.5 90.5t81.5 36.5zM211 195q42 0 66 -27.5t24 -65.5q0 -59 -35 -95t-82 -36q-42 0 -66 26t-24 71q0 54 35.5 90.5t81.5 36.5z" />
    <glyph glyph-name="semicolon" unicode=";" horiz-adv-x="512" 
d="M182 240q68 0 107 -49.5t39 -112.5q0 -69 -51 -132.5t-118.5 -102.5t-140.5 -60q-10 4 -14.5 17.5t0.5 23.5q189 86 189 213q0 30 -18 51.5t-50 28.5q-13 3 -22 15.5t-9 29.5q0 33 26 55.5t62 22.5zM391 807q42 0 66 -27t24 -65q0 -59 -34.5 -95t-81.5 -36q-43 0 -67 26
t-24 70q0 54 35.5 90.5t81.5 36.5z" />
    <glyph glyph-name="less" unicode="&#x3c;" horiz-adv-x="1146" 
d="M242 465l796 379v-119l-649 -303v-4l649 -305v-117l-796 377v92z" />
    <glyph glyph-name="equal" unicode="=" horiz-adv-x="1146" 
d="M1030 625v-101h-788v101h788zM1030 317v-100h-788v100h788z" />
    <glyph glyph-name="greater" unicode="&#x3e;" horiz-adv-x="1146" 
d="M242 844l796 -379v-92l-796 -377v117l649 305v4l-649 303v119z" />
    <glyph glyph-name="question" unicode="?" horiz-adv-x="614" 
d="M383 799l127 71q84 47 125 89.5t41 97.5q0 65 -43.5 105t-100.5 40q-48 0 -92 -22q-7 -4 -17 -10t-16.5 -9.5t-11.5 -3.5q-15 0 -27 15.5t-12 41.5q0 43 42.5 76t105.5 33q90 0 164.5 -89.5t74.5 -201.5q0 -98 -53.5 -169.5t-157.5 -129.5l-137 -76q-50 -28 -72 -58.5
t-22 -74.5q0 -46 18 -98q-4 -9 -14.5 -12t-17.5 2q-36 46 -57.5 103.5t-6.5 113.5q24 91 160 166zM252 195q42 0 66 -27.5t24 -65.5q0 -59 -35 -95t-82 -36q-42 0 -66 26t-24 71q0 54 35.5 90.5t81.5 36.5z" />
    <glyph glyph-name="at" unicode="@" horiz-adv-x="1576" 
d="M1059 666q-31 0 -59 -14t-70 -48q-84 -67 -149.5 -196t-65.5 -215q0 -27 24 -27q8 0 25.5 7t55.5 33t83 66q69 61 145.5 170t98.5 164q-8 25 -32 42.5t-56 17.5zM1194 692l51 105q23 9 53 0t45 -25q-30 -68 -123.5 -288.5t-115.5 -278.5q-14 -35 -3 -51t50 -15
q110 4 199.5 53.5t144.5 144.5t55 220q0 141 -71 249.5t-191.5 165t-271.5 56.5q-148 0 -272 -58.5t-205.5 -157t-126.5 -227t-45 -270.5q0 -77 18 -151.5t62.5 -150.5t111.5 -133t175 -92.5t243 -35.5q68 0 135 13.5t100.5 25.5t81.5 33q11 -5 16 -16t1 -23
q-85 -54 -191.5 -79t-204.5 -25q-103 0 -201.5 24t-187.5 75t-155.5 123.5t-106 178t-39.5 231.5q0 175 67 324.5t179 249t258.5 155.5t304.5 56q142 0 258.5 -44.5t191 -119.5t114.5 -170t40 -199q0 -99 -36.5 -188t-103 -157t-168 -108t-222.5 -40q-147 0 -147 45
q0 21 16 63l51 129l-4 2q-93 -96 -208.5 -167.5t-178.5 -71.5q-40 0 -62 27t-22 65q0 40 38 129t118 186q209 258 409 258q22 0 45.5 -12.5t30.5 -32.5z" />
    <glyph glyph-name="A" unicode="A" horiz-adv-x="1220" 
d="M1130 51l54 -6q9 -9 6 -27t-14 -24q-94 6 -232 6q-144 0 -235 -6q-15 6 -15.5 25.5t13.5 25.5l63 6q31 3 52 12.5t28 20.5q15 25 22 127l19 274q3 36 -4 45t-39 9h-295q-46 0 -62 -9.5t-45 -54.5l-159 -233q-92 -144 -92 -154q0 -24 47 -31l88 -12q11 -9 9 -27t-13 -24
q-95 6 -209 6q-117 0 -228 -6q-7 9 -5.5 25.5t10.5 25.5l55 6q82 8 147 86q72 91 338 461l361 508q110 154 123 211q31 4 67 21t59 32l23 14q8 0 16.5 -5t8.5 -11q0 -14 -3 -50t-8.5 -106t-9.5 -145l-41 -774q-4 -68 -5.5 -97t2 -63t7 -43t19 -20.5t30 -13t47.5 -5.5z
M600 621h258q26 0 33 6.5t8 34.5l33 448q4 53 -4 53q-11 0 -78 -100l-285 -412q-12 -19 -5.5 -24.5t40.5 -5.5z" />
    <glyph glyph-name="B" unicode="B" horiz-adv-x="1189" 
d="M274 295l248 805q25 80 25.5 118t-18.5 50.5t-68 13.5l-68 2q-10 8 -9 24.5t9 24.5q185 25 344 25q215 0 332 -49q174 -75 174 -258q0 -73 -33.5 -134t-84.5 -97.5t-103 -57t-98 -23.5q-15 -1 -18.5 -5t2.5 -9t16 -8q91 -30 152 -112t61 -189q0 -158 -111 -266
q-156 -156 -491 -156q-59 0 -146 3t-127 3q-122 0 -211 -6q-12 7 -12.5 24.5t10.5 26.5l41 6q53 8 79 25t49.5 64t55.5 155zM530 629l-120 -393q-30 -99 9.5 -139t153.5 -40q68 0 134 22t124 65.5t94 120t36 175.5q0 123 -89.5 190.5t-214.5 67.5q-75 0 -93.5 -9.5
t-33.5 -59.5zM717 1229l-127 -410q-13 -37 -0.5 -48t76.5 -11q48 0 99.5 9t108 33t100.5 60t72.5 95t28.5 133q0 92 -67.5 148t-190.5 56q-60 0 -72.5 -7.5t-27.5 -57.5z" />
    <glyph glyph-name="C" unicode="C" horiz-adv-x="1323" 
d="M1190 1384q170 0 336 -65q-63 -153 -92 -275q-6 -12 -28.5 -10.5t-27.5 13.5q30 139 -20 206.5t-203 67.5q-290 0 -524 -229q-91 -91 -166.5 -259.5t-75.5 -353.5q0 -219 101 -333.5t296 -114.5q102 0 187.5 39.5t143 99t110.5 147.5q15 6 30 2.5t19 -16.5
q-41 -124 -133 -289q-28 0 -162 -22q-147 -25 -199 -25q-85 0 -162.5 15.5t-154 55t-132 100t-90 158.5t-34.5 222q0 172 80.5 335t212.5 282q130 118 309.5 183.5t378.5 65.5z" />
    <glyph glyph-name="D" unicode="D" horiz-adv-x="1513" 
d="M272 295l256 829q27 96 20 122t-54 32l-82 10q-9 6 -9.5 23.5t9.5 25.5q163 21 381 21q123 0 226.5 -17.5t178 -47.5t133 -73t95.5 -91.5t61 -105.5t33.5 -111t9.5 -113q0 -195 -87 -357t-237 -264q-269 -184 -684 -184q-23 0 -105.5 3t-150.5 3q-117 0 -225 -6
q-12 7 -12.5 24.5t10.5 26.5l53 6q50 5 76 23t48.5 65.5t55.5 155.5zM711 1214l-305 -981q-28 -92 12.5 -129.5t173.5 -37.5q122 0 228 28.5t181.5 75t136.5 109.5t99.5 129.5t64 137t36 129t10.5 109.5q0 38 -1.5 69t-8 73.5t-17.5 76.5t-31 73.5t-47.5 69.5t-69 59
t-92.5 47.5t-121 30t-153 11.5q-46 0 -63.5 -15t-32.5 -65z" />
    <glyph glyph-name="E" unicode="E" horiz-adv-x="1159" 
d="M270 295l238 762q13 43 19.5 65.5t13.5 50t8 40t-0.5 28.5t-7.5 22t-17 14t-25 12t-36 9l-41 9q-10 12 -7 28.5t19 22.5q183 -6 228 -6h387q227 0 288 6q-31 -79 -84 -273q-6 -12 -26 -11t-25 13q6 53 6.5 89t-17.5 59t-61 35q-70 18 -217 18h-120q-40 0 -53 -11.5
t-27 -57.5l-131 -420q-15 -43 -10.5 -51.5t46.5 -8.5h103q147 0 197.5 17.5t85.5 83.5l32 61q6 11 27 9.5t24 -13.5q-36 -90 -69 -199q-29 -92 -53 -198q-9 -12 -27.5 -11t-24.5 13v57q0 27 -4 45t-16.5 30.5t-25 19t-41.5 10t-53 4t-71 0.5h-102q-43 0 -55 -8.5t-25 -51.5
l-84 -276q-16 -52 -23.5 -79.5t-14 -59.5t-5.5 -52t8 -35q11 -23 57.5 -33t170.5 -10q77 0 120.5 3t91.5 14t81 34.5t68.5 62t74.5 99.5q12 8 26.5 4.5t20.5 -16.5q-16 -54 -60.5 -143.5t-80.5 -126.5q-145 6 -469 6h-242q-109 0 -244 -6q-12 7 -12.5 24.5t10.5 26.5l72 6
q52 4 78.5 22.5t48.5 64.5t57 157z" />
    <glyph glyph-name="F" unicode="F" horiz-adv-x="1091" 
d="M272 295l240 762q18 56 26 84t13 58t2.5 42t-13.5 25.5t-28 19t-47 12.5l-37 9q-10 12 -7 28.5t19 22.5q102 -6 222 -6h380q230 0 289 6q-31 -79 -84 -273q-6 -12 -26 -11t-25 13q6 53 6.5 89t-17.5 59t-61 35q-70 18 -217 18h-112q-41 0 -51.5 -10t-26.5 -59l-142 -449
q-11 -32 -5 -41.5t38 -9.5h142q146 0 195.5 17.5t84.5 82.5l35 64q7 9 28.5 7.5t24.5 -11.5q-37 -98 -69 -195q-42 -127 -54 -205q-9 -10 -25.5 -9.5t-27.5 9.5l2 78q2 52 -42 71t-169 19h-151q-33 0 -43.5 -9t-22.5 -48l-90 -295q-16 -54 -24.5 -84t-14 -61t-3 -45.5
t11.5 -28t25.5 -18.5t43.5 -7l80 -6q9 -11 6 -28t-14 -23q-179 6 -279 6q-111 0 -231 -6q-12 7 -12.5 24.5t10.5 26.5l63 6q52 5 78.5 23.5t48.5 64.5t57 156z" />
    <glyph glyph-name="G" unicode="G" horiz-adv-x="1439" 
d="M1061 184l53 168q13 43 19.5 66t9 47t-1.5 35t-17 22t-32.5 16t-51.5 9l-79 10q-11 9 -9.5 27t13.5 24q135 -6 245 -6q160 0 234 6q11 -6 11 -25t-13 -26l-35 -10q-33 -10 -47.5 -16.5t-31 -29t-27 -52.5t-31.5 -97l-64 -202q-13 -44 17 -62q4 -16 -9 -29
q-112 -39 -232 -65.5t-198 -26.5q-271 0 -424 141t-153 392q0 162 73 330t222 298q293 256 712 256q198 0 351 -65q-62 -130 -97 -272q-6 -12 -26 -11t-25 13q28 142 -25.5 207t-201.5 65q-170 0 -297.5 -57t-239.5 -162q-112 -104 -189 -288.5t-77 -356.5q0 -117 34 -203
t93 -133t128 -68.5t151 -21.5q79 0 125.5 10t84 44t58.5 99z" />
    <glyph glyph-name="H" unicode="H" horiz-adv-x="1558" 
d="M641 743h541q39 0 55 0.5t28.5 6.5t15.5 12.5t9 25.5l84 269q18 58 25.5 84.5t13.5 58.5t3 44t-13 25.5t-27.5 18.5t-46.5 10l-51 9q-8 10 -5 27.5t17 23.5q126 -6 240 -6q102 0 237 6q11 -6 12 -24t-12 -27l-49 -9q-31 -5 -49.5 -9.5t-37 -16.5t-28 -24.5t-23.5 -42.5
t-24 -60.5t-28 -87.5l-238 -762q-17 -54 -25.5 -84t-13.5 -60.5t-2.5 -45t11.5 -27.5t25.5 -18.5t43.5 -8.5l55 -6q9 -15 6 -30t-14 -21q-144 6 -250 6q-111 0 -237 -6q-12 7 -12.5 24t10.5 27l65 6q51 4 77.5 22t50 65.5t57.5 156.5l98 311q12 40 2 48t-76 8h-557
q-47 0 -57 -7.5t-21 -42.5l-100 -317q-17 -53 -25.5 -84t-13.5 -61t-2.5 -45t11.5 -28t25.5 -18t43.5 -8l63 -6q9 -12 6 -28.5t-14 -22.5q-150 6 -258 6q-120 0 -219 -6q-12 7 -12.5 24t10.5 27l47 6q32 4 51 10.5t36.5 19.5t32 42t29 67t35.5 105l240 762q18 56 26 84.5
t13.5 59t2.5 43.5t-13.5 26t-28 18t-47.5 10l-49 9q-10 13 -7 29t19 22q123 -6 238 -6q108 0 237 6q11 -6 12 -22.5t-12 -28.5l-47 -9q-24 -4 -39 -7t-31 -11t-24.5 -13t-20 -21.5t-17.5 -28t-17 -41t-18.5 -51.5t-22.5 -68l-84 -264q-12 -35 -3.5 -42.5t62.5 -7.5z" />
    <glyph glyph-name="I" unicode="I" horiz-adv-x="698" 
d="M272 295l240 762q18 56 26 84.5t13.5 59t2.5 43.5t-13.5 26t-28 18t-47.5 10l-49 9q-10 12 -7 28.5t19 22.5q123 -6 238 -6q98 0 245 6q11 -6 12 -24.5t-12 -26.5l-55 -9q-32 -5 -51 -9t-37.5 -17t-27.5 -24t-23 -43.5t-23 -59.5t-28 -88l-240 -762q-17 -53 -25.5 -84
t-13.5 -61t-2.5 -45t11.5 -28t25.5 -18t43.5 -8l63 -6q9 -11 6 -28t-14 -23q-150 6 -258 6q-112 0 -235 -6q-12 7 -12.5 24.5t10.5 26.5l63 6q52 5 78.5 23.5t48.5 64.5t57 156z" />
    <glyph glyph-name="J" unicode="J" horiz-adv-x="696" 
d="M285 256l247 801q17 56 25 84.5t13.5 59.5t2.5 44t-13.5 26t-28 18.5t-46.5 10.5l-51 9q-10 12 -7 27.5t19 21.5q126 -6 240 -6q106 0 229 6q11 -6 12 -23.5t-12 -25.5l-55 -9q-27 -4 -43.5 -8t-32.5 -17t-25 -25t-22.5 -44t-23 -61t-27.5 -88l-291 -936
q-57 -184 -129 -305q-135 -228 -375 -228q-53 0 -91 14.5t-38 45.5q0 27 25 57.5t55 30.5q7 0 14.5 -1.5t12.5 -3t13 -5t11 -5.5t13 -7.5t12 -6.5q53 -31 98 -31q38 0 70 47.5t64 131.5q48 124 135 401z" />
    <glyph glyph-name="K" unicode="K" horiz-adv-x="1275" 
d="M272 295l240 762q21 66 29.5 98.5t13 63.5t-4.5 43.5t-25 21t-48 14.5l-47 9q-10 12 -7 28.5t19 22.5q99 -6 222 -6q105 0 243 6q12 -6 11 -25t-17 -26l-41 -9q-34 -7 -52 -11.5t-37.5 -17.5t-28.5 -24t-23.5 -42t-24 -58.5t-28.5 -87.5l-86 -271q-12 -34 -5.5 -45.5
t41.5 -11.5q46 0 89 21q73 42 215 178l204 194q133 127 133 152q0 13 -49 24l-39 9q-11 9 -7.5 28t16.5 23q102 -6 225 -6q44 0 221 6q13 -8 12.5 -26.5t-14.5 -24.5l-43 -9q-81 -13 -137 -36q-119 -52 -363 -275l-262 -239q-27 -24 -29.5 -33.5t13.5 -44.5l225 -451
q44 -90 80 -124.5t106 -43.5l54 -6q10 -9 8 -27.5t-14 -23.5q-99 6 -218 6q-114 0 -231 -6q-7 12 -6 28.5t12 22.5l53 6q21 2 32.5 7t17 11.5t2 21t-10 28.5t-20.5 43l-215 422q-29 57 -47 74.5t-35 17.5q-28 0 -43.5 -14t-24.5 -44l-100 -323q-17 -53 -25.5 -84t-13.5 -61
t-2.5 -45t11.5 -28t25.5 -18t43.5 -8l57 -6q9 -11 6 -28t-14 -23q-141 6 -254 6q-110 0 -233 -6q-12 7 -12.5 24.5t10.5 26.5l63 6q52 5 78.5 23.5t48.5 64.5t57 156z" />
    <glyph glyph-name="L" unicode="L" horiz-adv-x="1118" 
d="M664 1057l-226 -725q-44 -140 -44 -180q-1 -55 50 -73q44 -16 160 -16q58 0 93 1t76.5 5.5t67.5 13.5t56.5 24t54 38t49 55t52.5 76q15 5 28.5 1.5t16.5 -13.5q-17 -52 -60 -140t-71 -130q-197 6 -473 6h-238q-118 0 -217 -6q-12 7 -12.5 24.5t10.5 26.5l49 6
q32 4 51 10.5t36.5 19.5t32 42t29 67t35.5 105l240 762q18 56 26 84.5t13.5 59t2.5 43.5t-13.5 26t-28 18t-47.5 10l-49 9q-10 12 -7 28.5t19 22.5q28 -1 73.5 -2.5t84 -2.5t75.5 -1q50 0 135.5 2.5t123.5 3.5q11 -6 12 -24.5t-12 -26.5l-64 -9q-31 -4 -50 -8t-37.5 -16.5
t-28 -24t-23.5 -43.5t-23 -60.5t-28 -88.5z" />
    <glyph glyph-name="M" unicode="M" horiz-adv-x="1789" 
d="M393 694l107 277q86 220 86 274q0 21 -14 31.5t-44 15.5l-96 15q-9 9 -6 27t16 24q144 -6 226 -6q72 0 137 6q-14 -46 -15 -113t5 -122t20 -165l33 -264q22 -170 45 -375h4q36 43 75 93t87.5 113.5t73.5 95.5l325 419q173 223 199 318q53 -6 127 -6q112 0 207 6
q11 -9 10 -25t-10 -26l-47 -9q-96 -16 -123 -47q-21 -24 -40 -76.5t-55 -177.5l-178 -635q-55 -196 -59 -256q-1 -25 19 -38.5t63 -16.5l69 -6q10 -11 7 -28t-15 -23q-114 6 -262 6q-134 0 -248 -6q-10 9 -10 27t10 24l54 6q82 9 112 39q38 38 105 260l163 537
q60 188 78 258l-6 2q-7 -9 -66 -88t-124 -162l-312 -403l-121.5 -159t-102 -141.5t-103.5 -160.5q-9 -6 -21 -3t-18 11q2 85 -33 418l-70 688h-4q-23 -51 -94 -244l-153 -414q-123 -331 -123 -383q0 -19 12.5 -30t48.5 -17l88 -14q6 -9 4 -26t-10 -25q-86 6 -236 6
q-120 0 -219 -6q-9 9 -8.5 28t10.5 23l56 6q81 7 116 55q41 51 248 588z" />
    <glyph glyph-name="N" unicode="N" horiz-adv-x="1513" 
d="M317 477l162 524q8 24 21 66t19.5 62.5t14 46.5t10.5 42t3 27q0 21 -12.5 30.5t-40.5 14.5l-82 17q-12 10 -8.5 28.5t18.5 22.5q63 -6 209 -6h127v-29q0 -48 100 -297l207 -510q86 -207 100 -231q18 0 35 57l162 514q98 313 98 379q0 30 -9 41.5t-42 17.5l-80 13
q-9 14 -4.5 29.5t16.5 21.5q108 -6 232 -6q105 0 194 6q8 -6 9.5 -24t-7.5 -27l-47 -9q-84 -14 -106 -36t-71.5 -143.5t-96.5 -268.5l-148 -459q-50 -155 -124 -409q-18 -18 -58 -13q-59 180 -186 488l-162 393q-20 49 -50 126.5t-51 129.5t-36 82q-10 0 -66 -180l-159 -533
q-33 -108 -86 -340q-11 -46 13 -61.5t87 -22.5l47 -6q9 -9 7 -26t-13 -25q-91 6 -234 6q-120 0 -215 -6q-10 7 -12.5 23.5t8.5 27.5l51 6q63 5 101 35q26 20 60 106.5t95 284.5z" />
    <glyph glyph-name="O" unicode="O" horiz-adv-x="1495" 
d="M1036 1384q103 0 192 -35t158 -102.5t106 -176.5t30 -247q-8 -173 -82.5 -346t-194.5 -287q-234 -223 -536 -223q-126 0 -225.5 46.5t-159 123.5t-89 170.5t-26.5 194.5q5 196 87.5 379t240.5 317q220 186 499 186zM1028 1321q-162 0 -307 -123q-58 -49 -114 -125
t-106 -174t-83 -222.5t-37 -252.5q-2 -77 14 -143.5t53 -124.5t107.5 -91.5t167.5 -33.5q188 0 342 164q131 141 205 339.5t80 378.5q7 193 -79.5 300.5t-242.5 107.5z" />
    <glyph glyph-name="P" unicode="P" horiz-adv-x="1130" 
d="M485 1276l-98 8q-10 9 -7.5 24.5t13.5 24.5q157 25 344 25q283 0 406 -101q112 -96 112 -253q0 -98 -47.5 -178t-126.5 -136q-73 -51 -178 -77.5t-201 -26.5q-12 4 -13.5 18.5t7.5 24.5q49 6 99 22t102.5 49t93 77t66.5 111.5t26 147.5q0 129 -74.5 193.5t-201.5 64.5
q-48 0 -61 -11t-29 -60l-289 -928q-20 -64 -29 -98.5t-13 -66t5 -45.5t26.5 -23t49.5 -11l74 -6q9 -11 5.5 -28t-14.5 -23q-147 6 -268 6q-112 0 -235 -6q-12 7 -12.5 24.5t10.5 26.5l63 6q52 5 78.5 23.5t48.5 64.5t57 156l265 848q24 73 13 101t-67 32z" />
    <glyph glyph-name="Q" unicode="Q" horiz-adv-x="1495" 
d="M1036 1384q103 0 192 -35t158 -102.5t106 -176.5t30 -247q-8 -173 -82.5 -346t-194.5 -287q-159 -152 -336 -194q-21 -12 -2 -31q253 -253 439 -319q73 -27 176 -27q69 0 116 21q9 -4 11.5 -14t-0.5 -17q-40 -29 -105 -43.5t-125 -14.5q-191 0 -373.5 107.5t-308.5 265.5
q-19 24 -40 35t-54 12q-48 3 -102 19.5t-115.5 57t-109.5 98t-78.5 150.5t-28.5 206q5 196 87.5 379t240.5 317q220 186 499 186zM1028 1321q-162 0 -307 -123q-58 -49 -114 -125t-106 -174t-83 -222.5t-37 -252.5q-2 -77 14 -143.5t53 -124.5t107.5 -91.5t167.5 -33.5
q188 0 342 164q131 141 205 339.5t80 378.5q7 193 -79.5 300.5t-242.5 107.5z" />
    <glyph glyph-name="R" unicode="R" horiz-adv-x="1175" 
d="M270 295l240 766q31 100 37.5 144t-5.5 58.5t-50 18.5l-78 8q-8 12 -5.5 28.5t15.5 22.5q142 17 348 17q270 0 387 -107q94 -82 94 -233q0 -74 -32.5 -139.5t-85 -110t-113 -73.5t-121.5 -40q-21 -3 -25.5 -13t1.5 -36q46 -189 102 -354q17 -50 26.5 -74.5t26.5 -54.5
t35 -43.5t46.5 -25t68.5 -15.5q9 -9 7 -20.5t-7 -18.5q-50 -6 -129 -6q-80 0 -123 24.5t-68 96.5q-79 236 -121 397q-19 70 -35.5 86t-66.5 16q-56 0 -79.5 -4.5t-34.5 -16.5t-21 -44l-80 -254q-17 -54 -25 -84t-13.5 -60t-3 -44.5t12 -27.5t26.5 -18.5t44 -9.5l49 -6
q9 -11 6 -28t-14 -23q-129 6 -246 6q-122 0 -217 -6q-12 7 -12.5 24.5t10.5 26.5l45 6q40 6 61 14t42.5 35.5t38 69.5t42.5 125zM715 1229l-144 -469l-10.5 -36t-2 -23.5t4.5 -15.5t17.5 -7.5t28.5 -3.5h44q80 0 156.5 26.5t137 73.5t98.5 117.5t40 152.5q3 120 -66.5 185
t-201.5 65q-40 0 -59 -6t-26.5 -17.5t-16.5 -41.5z" />
    <glyph glyph-name="S" unicode="S" horiz-adv-x="964" 
d="M432 -33q-115 0 -211 36.5t-147 107.5q-4 55 6.5 123t30.5 114q9 8 22.5 7t20.5 -11q11 -144 84 -228.5t219 -84.5q52 0 102.5 17t95.5 50t73 90.5t28 130.5q0 44 -11.5 84t-28.5 69.5t-46.5 62t-54.5 54t-64 52.5q-213 173 -213 356q0 169 123 278t325 109
q90 0 172.5 -26t124.5 -55q-10 -18 -21.5 -50.5t-19 -58.5t-19 -70.5t-15.5 -58.5q-11 -9 -29 -8t-27 10q24 114 -20 184t-172 70q-133 0 -205 -75t-72 -187q0 -48 19 -94t54.5 -85.5t61.5 -63t64 -52.5q106 -81 163.5 -168.5t57.5 -204.5q0 -185 -130 -304.5t-341 -119.5z
" />
    <glyph glyph-name="T" unicode="T" horiz-adv-x="1298" 
d="M627 1352h757q80 0 112.5 8.5t62.5 38.5q7 3 19 0t15 -10q-29 -50 -67.5 -148.5t-48.5 -142.5q-6 -10 -22.5 -10t-24.5 10q2 35 2.5 55t-1 42.5t-6 34t-14.5 24t-24 17.5t-36.5 10t-49.5 6t-66 1h-125q-49 0 -61 -12t-33 -78l-283 -903q-20 -64 -29 -98.5t-13 -66
t4.5 -45.5t26 -23t48.5 -11l76 -6q13 -10 11 -27.5t-19 -23.5q-166 6 -271 6q-106 0 -250 -6q-12 7 -12.5 24.5t10.5 26.5l80 6q48 3 74.5 20.5t51.5 67t59 156.5l282 903q12 36 16 52.5t-2.5 26t-17 10.5t-39.5 1h-135q-76 0 -124.5 -8.5t-88 -34.5t-64 -54t-67.5 -87
q-15 -6 -29.5 0t-17.5 20q89 143 147 275q6 7 19.5 7t19.5 -7q-5 -28 25 -37.5t123 -9.5z" />
    <glyph glyph-name="U" unicode="U" horiz-adv-x="1503" 
d="M326 545l159 512q17 56 25 84.5t13.5 59.5t2.5 44t-13.5 26t-28 18.5t-46.5 10.5l-51 9q-9 9 -7 26t15 23q129 -6 240 -6q102 0 252 6q11 -6 11 -24t-13 -25l-58 -9q-23 -3 -39 -6t-31 -11t-24 -13t-20.5 -22t-17 -28.5t-17 -42t-18 -52t-21.5 -68.5l-147 -473
q-167 -543 266 -543q83 0 154.5 29t123.5 76t96.5 115.5t74.5 136.5t57 151l94 289q63 194 82 317q7 45 8.5 74.5t-18 46.5t-68.5 24l-57 9q-9 10 -6.5 26.5t14.5 22.5q150 -6 219 -6q101 0 221 6q12 -8 12 -25t-12 -24l-47 -9q-40 -7 -63.5 -16t-41.5 -28.5t-29 -41
t-28 -65.5q-21 -55 -100 -311l-94 -301q-97 -303 -240 -428q-77 -68 -181.5 -105t-205.5 -37q-280 0 -382.5 148t-14.5 430z" />
    <glyph glyph-name="V" unicode="V" horiz-adv-x="1273" 
d="M510 195l-84 878q-13 134 -29.5 176t-68.5 51l-52 9q-11 12 -7.5 27.5t18.5 21.5q94 -6 198 -6q125 0 224 6q13 -6 13.5 -24t-11.5 -25l-58 -9q-66 -9 -80.5 -33t-5.5 -116l72 -770q9 -115 20 -123q16 7 93 121l233 348q251 374 303 459q35 57 33 80.5t-39 29.5l-76 13
q-9 9 -7.5 27t13.5 22q120 -6 230 -6q102 0 182 6q11 -6 11 -22t-7 -27l-59 -9q-69 -8 -121 -69q-39 -43 -143.5 -182.5t-204.5 -286.5l-174 -254q-64 -93 -199.5 -300t-151.5 -235q-9 -6 -24 -6t-27 6q-2 80 -14 222z" />
    <glyph glyph-name="W" unicode="W" horiz-adv-x="1798" 
d="M520 350l-117 807q-12 81 -20 98q-16 33 -71 44q-2 1 -5 1l-43 9q-11 9 -9 26t15 23q99 -6 199 -6q106 0 211 6q11 -5 11.5 -24t-9.5 -25l-76 -9q-40 -5 -53 -30t-4 -86l110 -774q15 -107 20.5 -137.5t12.5 -34.5q13 8 88 111q8 11 13 18t13.5 18.5t16.5 22.5l138 188
q24 34 31 55t1 60l-69 467q-9 65 -27.5 89t-67.5 33l-47 9q-10 9 -7.5 27t16.5 22q82 -6 200 -6q131 0 201 6q9 -5 9.5 -23t-9.5 -26l-68 -9q-40 -5 -53 -25.5t-4 -82.5l51 -387l37 55l70 103q154 225 188 290q10 18 -4 31t-39 16l-51 9q-11 7 -8 26t16 23q92 -6 182 -6
q107 0 172 6q10 -6 9.5 -23.5t-9.5 -25.5l-39 -9q-64 -13 -92.5 -35.5t-97.5 -109.5q-118 -149 -278 -387q-3 -4 -12 -15.5t-10.5 -14.5t-6 -11.5t-4.5 -14.5v-15.5t2 -22.5l39 -264q24 -161 35 -172q9 4 26.5 28.5t75.5 112.5q420 644 485 756q6 10 14 23.5t13 22t11 19
t10 17t8 14t6.5 12.5t4.5 10.5t3.5 9.5t1.5 7q3 12 -8.5 17.5t-44.5 12.5l-41 9q-9 9 -7.5 26t13.5 23q102 -6 186 -6q108 0 172 6q9 -5 9.5 -24t-9.5 -25l-47 -9q-24 -4 -49 -19t-43 -30.5t-41.5 -44.5t-35 -45.5t-33 -49.5t-27.5 -42l-318 -467q-127 -188 -409 -629
q-9 -6 -25 -6q-15 0 -24 6q-15 178 -68 506l-12 76l-275 -391q-85 -124 -123 -191q-9 -6 -24 -6t-27 6q-9 136 -45 377z" />
    <glyph glyph-name="X" unicode="X" horiz-adv-x="1179" 
d="M-86 45l47 6q81 10 141 52.5t174 166.5q17 20 130.5 140t205.5 221q31 35 17 69q-25 64 -87.5 235t-90.5 245q-25 63 -46.5 86t-72.5 32l-45 9q-10 9 -6 27.5t16 23.5q138 -6 219 -6q130 0 209 6q10 -8 9.5 -25.5t-9.5 -25.5l-55 -9q-64 -9 -76.5 -28t6.5 -70
q122 -343 150 -416q130 132 378 424q41 46 40.5 65t-46.5 25l-59 9q-9 10 -7 27t15 24q92 -6 205 -6q92 0 186 6q12 -6 11 -24.5t-13 -26.5l-49 -9q-58 -10 -119 -63q-56 -48 -123 -113.5t-101 -100t-133 -140t-120 -127.5q-27 -27 -30.5 -39t8.5 -45q39 -103 110.5 -281.5
t93.5 -234.5q20 -51 44.5 -75.5t58.5 -27.5l76 -6q9 -6 8 -25.5t-13 -25.5q-120 6 -221 6q-124 0 -229 -6q-12 6 -13.5 25.5t9.5 25.5l45 6q31 4 47 8.5t27 15t10 28.5t-12 47q-108 299 -164 440q-191 -207 -416 -481q-34 -43 14 -50l82 -14q9 -7 7.5 -27.5t-13.5 -23.5
q-108 6 -227 6q-120 0 -197 -6q-12 6 -13.5 25t7.5 26z" />
    <glyph glyph-name="Y" unicode="Y" horiz-adv-x="1155" 
d="M612 1186l105 -481q8 -38 19 -39t42 36l252 304q197 240 197 258q0 24 -60 34l-51 9q-11 9 -9.5 26.5t13.5 24.5q120 -6 213 -6q83 0 185 6q10 -6 10 -24t-10 -27l-43 -9q-83 -17 -115 -47q-33 -30 -94.5 -94t-106.5 -117l-233 -274q-110 -128 -142 -179.5t-69 -168.5
l-39 -123q-18 -56 -27.5 -89t-14.5 -63t-2.5 -44.5t13 -26t26.5 -15.5t44 -6l73 -6q10 -8 7.5 -27t-13.5 -24q-172 6 -274 6q-106 0 -244 -6q-12 7 -12.5 25.5t10.5 25.5l74 6q26 2 42.5 6t33 15.5t27 25t24.5 44.5t25.5 63t31.5 90l41 121q28 81 31 123t-17 139l-102 444
q-23 101 -43.5 134t-73.5 42l-51 9q-9 11 -6 28t12 23q114 -6 217 -6q121 0 220 6q9 -8 9.5 -25t-9.5 -26l-60 -9q-58 -8 -73.5 -30t-2.5 -82z" />
    <glyph glyph-name="Z" unicode="Z" horiz-adv-x="1230" 
d="M246 297l899 936q43 43 -13 52q-18 3 -45 3h-313q-118 0 -180.5 -15t-110.5 -56t-112 -134q-15 -8 -29.5 -0.5t-17.5 25.5q70 117 122 295q4 5 12 5t13 -5q7 -36 39.5 -43.5t157.5 -7.5h546q166 0 220 6q20 -3 16 -25q-13 -8 -35.5 -28t-54.5 -51t-62.5 -61t-73 -74
t-72 -74.5t-75 -77.5t-65.5 -68l-469 -487q-277 -298 -277 -314q0 -10 11.5 -17t54.5 -12.5t119 -5.5h180q148 0 237.5 9t143.5 37q40 22 86.5 72t81.5 110q9 6 23.5 0t17.5 -17q-17 -63 -62.5 -152.5t-79.5 -127.5q-109 6 -403 6h-479q-147 0 -226 -6q-7 3 -10 14.5t2 18.5
q73 55 283 270z" />
    <glyph glyph-name="bracketleft" unicode="[" horiz-adv-x="655" 
d="M82 -307l510 1712h133q201 0 223 -6q6 -8 4 -21.5t-10 -19.5l-190 -23q-47 -6 -58 -20q-43 -49 -123 -320l-266 -893q-84 -284 -72 -319q5 -15 48 -21l176 -22q3 -9 -1 -22t-10 -19q-26 -6 -231 -6h-133z" />
    <glyph glyph-name="backslash" unicode="\" horiz-adv-x="696" 
d="M240 1384l391 -1417h-117l-391 1417h117z" />
    <glyph glyph-name="bracketright" unicode="]" horiz-adv-x="655" 
d="M748 1405l-510 -1712h-134q-201 0 -223 6q-6 8 -4 21.5t10 19.5l191 22q45 6 57 21q43 50 123 319l266 893q84 285 72 320q-5 14 -47 20l-176 23q-3 9 0.5 22t9.5 19q26 6 231 6h134z" />
    <glyph glyph-name="asciicircum" unicode="^" horiz-adv-x="1146" 
d="M1061 500h-127l-283 637l-282 -637h-129l362 782h98z" />
    <glyph glyph-name="underscore" unicode="_" horiz-adv-x="1024" 
d="M1024 -154v-102h-1024v102h1024z" />
    <glyph glyph-name="grave" unicode="`" 
d="M479 1266l94 -291q0 -11 -13 -18t-23 -5l-166 228q-29 43 -29 57q0 25 35 47q39 27 63 27q25 0 39 -45z" />
    <glyph glyph-name="a" unicode="a" horiz-adv-x="909" 
d="M766 752l57 131q27 11 59.5 0.5t41.5 -31.5q-35 -86 -133.5 -339.5t-141.5 -375.5q-16 -47 15 -47q53 0 210 137q11 0 20 -7.5t9 -18.5q-70 -93 -167 -161.5t-177 -68.5q-31 0 -45 19t-14 37q0 20 20 79l68 185l-6 2q-106 -132 -241.5 -227t-209.5 -95q-41 0 -65.5 34.5
t-24.5 80.5q0 48 45 160.5t135 236.5q139 191 271 265q105 59 184 59q25 0 49 -12q8 -4 21 -17t20 -26zM612 729q-35 0 -65 -17.5t-80 -62.5q-97 -87 -176.5 -253.5t-79.5 -276.5q0 -18 8.5 -28.5t22.5 -10.5q19 0 69.5 31t128.5 102q108 100 177.5 219t97.5 223
q-11 32 -38 53t-65 21z" />
    <glyph glyph-name="b" unicode="b" horiz-adv-x="954" 
d="M612 1180l-266 -701h4q115 175 219.5 266t214.5 91q87 0 132 -51.5t45 -133.5q0 -105 -70 -232t-195 -249q-112 -108 -216 -153.5t-175 -45.5q-82 0 -123 49.5t-41 139.5q0 118 105 403l237 631q33 89 37.5 121t-16.5 49l-47 33q-7 15 6 28q38 14 110.5 27t135.5 12
l8 -12zM754 766q-43 0 -117 -55t-166 -160q-91 -104 -141.5 -218.5t-50.5 -191.5q0 -55 20.5 -80.5t50.5 -25.5q28 0 82.5 35t114.5 102q101 113 189.5 274.5t88.5 245.5q0 38 -20 56t-51 18z" />
    <glyph glyph-name="c" unicode="c" horiz-adv-x="692" 
d="M618 836q73 0 112.5 -35t39.5 -86q0 -37 -22 -61t-42.5 -30t-35.5 -6q-35 0 -41 37q0 4 -2 22t-3 23.5t-4 20t-8 20t-12 13.5t-18 11t-25 3q-36 0 -81.5 -34.5t-90.5 -102.5q-54 -80 -93.5 -195.5t-43.5 -228.5q-5 -133 88 -133q86 0 221 125q15 1 23.5 -9.5t3.5 -25.5
q-64 -83 -155 -138t-183 -55q-66 0 -110 53t-44 164q0 113 67.5 265t192.5 264q131 119 266 119z" />
    <glyph glyph-name="d" unicode="d" horiz-adv-x="970" 
d="M801 772l147 422q32 89 36 120.5t-17 49.5l-47 33q-7 15 6 28q38 14 110 27t131 12l9 -12q-17 -52 -34 -100t-45.5 -126t-49.5 -136q-203 -558 -318 -949q-14 -47 12 -47q25 0 102 63t124 122q27 0 30 -27q-44 -89 -158 -185t-190 -96q-31 0 -48 19.5t-17 46.5
q0 40 26 117l72 202l-8 2q-38 -50 -62 -81t-62.5 -77t-67 -74t-68 -61t-74.5 -51t-76.5 -30.5t-83.5 -12.5q-58 0 -90.5 42t-32.5 106q0 114 78 271.5t195 262.5q101 91 195.5 137t170.5 46q27 0 58 -17t47 -47zM692 774q-60 0 -155 -88q-64 -60 -156 -183t-137 -216
q-64 -133 -64 -195q0 -18 12.5 -30.5t26.5 -12.5q33 0 108.5 43t168.5 139q111 113 166.5 207.5t82.5 188.5q18 65 2 106t-55 41z" />
    <glyph glyph-name="e" unicode="e" horiz-adv-x="708" 
d="M641 836q57 0 93 -39.5t36 -83.5q0 -57 -35.5 -107t-104 -91.5t-155.5 -75.5t-203 -66q-28 -70 -28 -183q0 -52 28 -84t70 -32q51 0 94.5 26t120.5 93q13 0 21.5 -10.5t5.5 -24.5q-152 -187 -328 -187q-58 0 -97 34t-54 80.5t-15 100.5q0 72 28 161.5t100.5 199.5
t176.5 190q128 99 246 99zM600 772q-65 0 -156 -98q-91 -97 -151 -240q98 30 156.5 63t117.5 89q41 39 60.5 79t19.5 60q0 19 -11 33t-36 14z" />
    <glyph glyph-name="f" unicode="f" horiz-adv-x="534" 
d="M725 731h-254q-1 -3 -53 -190q-91 -343 -182 -652q-36 -125 -80 -208t-82 -121q-119 -111 -246 -111q-74 0 -112 34t-38 66q0 29 14.5 54.5t33.5 38.5q24 18 47 -9q37 -38 79 -61t76 -23q18 0 31.5 5t31 21t34.5 52.5t34 93.5q46 157 130.5 498t134.5 512h-170
q-15 13 -10.5 38t24.5 38h176q47 163 96.5 276t132.5 211q143 170 328 170q61 0 109.5 -38t48.5 -97q0 -38 -31 -77.5t-57 -39.5q-24 0 -29 33q-4 78 -37.5 114t-77.5 36q-34 0 -73 -29.5t-74 -81.5q-44 -65 -80 -146.5t-56.5 -145.5t-54.5 -185h256q12 -16 7 -38t-27 -38z
" />
    <glyph glyph-name="g" unicode="g" horiz-adv-x="782" 
d="M588 836q10 0 65 -19q9 -3 20.5 -8t18 -7.5t10.5 -2.5q52 0 99 12q62 16 92 16q43 0 43 -51q0 -32 -13.5 -47.5t-31.5 -15.5q-23 0 -68 10q-36 12 -75 12q-8 0 -14 -4t-5 -8q14 -56 14 -78q0 -119 -74 -229t-186 -180q-45 -27 -145 -54q-18 -10 -31.5 -29.5t-13.5 -41.5
q0 -53 67 -97q8 -6 201 -123q85 -50 119.5 -97.5t34.5 -100.5q0 -95 -133 -169.5t-367 -74.5q-80 0 -151 19.5t-122 65t-51 110.5q0 44 26.5 86.5t64.5 72.5t89 57.5t91 43t80 28.5q-66 44 -66 95q0 40 92 157q-21 5 -41 14.5t-47 29.5t-44 56.5t-17 84.5q0 87 45 182
t121 162q143 123 303 123zM309 -483q38 0 82.5 8.5t88 24t72 43.5t28.5 63q0 65 -88 125q-146 96 -191 102q-36 4 -89 -18.5t-101 -57.5q-78 -58 -78 -133q0 -69 83 -113t193 -44zM563 776q-61 0 -137 -84q-67 -76 -125.5 -190t-58.5 -187q0 -31 18 -51t43 -20q68 0 135 80
q80 94 133.5 210.5t53.5 172.5q0 31 -18.5 50t-43.5 19z" />
    <glyph glyph-name="h" unicode="h" horiz-adv-x="972" 
d="M682 1464l8 -12l-147 -418l-211 -612l4 -4q66 94 132 166.5t104.5 104.5t86.5 67q112 80 195 80q63 0 93 -39t30 -99q0 -98 -48 -232t-112 -247q-44 -79 -133 -168q-80 -80 -149 -80q-31 0 -49.5 12.5t-22.5 24t-4 23.5q0 26 17 45.5t38 19.5q14 0 29 -12q36 -27 53 -27
q22 0 40 23t42 80q49 118 98 284.5t49 243.5q0 62 -43 62q-40 0 -110 -56q-68 -52 -125.5 -112t-134.5 -160q-97 -130 -248 -426q-12 -25 -37 -25q-11 0 -21.5 2t-23 7.5t-15.5 16t1 28.5l389 1151q1 2 2 6q20 59 27 81.5t11 47t-0.5 33.5t-17.5 18l-43 29q-6 16 6 26
q27 11 108 27.5t132 19.5z" />
    <glyph glyph-name="i" unicode="i" horiz-adv-x="569" 
d="M106 45l261 621q17 39 -5 39q-8 0 -26.5 -9t-57 -35t-85.5 -65q-13 1 -21.5 12t-5.5 23q79 90 180 147.5t158 57.5q12 0 33 -21q18 -18 -13 -90l-243 -582q-7 -15 -6 -30t12 -15q27 0 94.5 47t118.5 105q30 -3 30 -35q-12 -23 -53.5 -63t-96 -81t-119.5 -70.5t-114 -29.5
q-16 0 -32 19q-22 25 -9 55zM541 1257q34 0 51.5 -21t17.5 -56q0 -49 -31 -88t-75 -39q-37 0 -54.5 22.5t-17.5 52.5q0 26 10 54t36 51.5t63 23.5z" />
    <glyph glyph-name="j" unicode="j" horiz-adv-x="530" 
d="M-150 -551q-67 0 -102 35.5t-35 75.5q0 28 19 54t47 26q13 0 24 -21q24 -40 56.5 -64t60.5 -24q30 0 54 22.5t49 79.5q18 42 39 100t37.5 106t41 124.5t36.5 114.5t37 119t30 98q22 73 53.5 174.5t45 148.5t15.5 64q1 12 -4 19.5t-12 7.5q-56 0 -203 -158q-12 1 -21.5 12
t-11.5 23q41 70 155 160t202 90q20 0 35.5 -18.5t15.5 -41.5q0 -8 -2 -20.5t-6.5 -31t-8.5 -36.5t-12 -45t-13.5 -47t-15.5 -53t-16 -52.5t-17.5 -56t-16.5 -53.5q-9 -27 -38 -122.5t-49.5 -161.5t-49.5 -151t-50 -139q-147 -358 -369 -358zM522 1257q34 0 52 -21t18 -56
q0 -49 -31.5 -88t-75.5 -39q-37 0 -54 22.5t-17 52.5q0 26 9.5 54t35.5 51.5t63 23.5z" />
    <glyph glyph-name="k" unicode="k" horiz-adv-x="917" 
d="M82 25l375 1130q35 107 37.5 140.5t-23.5 45.5l-37 19q-21 14 -4 31q94 45 250 73l12 -10q-22 -79 -100 -301l-211 -606h4q91 123 209 211q108 78 221 78q80 0 114 -35.5t34 -77.5q0 -73 -84 -150q-80 -73 -158 -118.5t-170 -61.5q-16 -9 -6 -39q27 -101 76 -192
q38 -68 65 -68q45 0 123 96q27 0 27 -24q-25 -54 -57.5 -95t-61.5 -61t-51 -29.5t-37 -9.5q-27 0 -47.5 19t-46.5 63q-19 34 -50.5 106t-44.5 113q-24 79 -75 68q-31 -7 -44 -21.5t-32 -60.5l-107 -260q-12 -27 -35 -27q-16 0 -31.5 3t-28 16.5t-5.5 34.5zM805 694
q0 21 -16.5 37.5t-49.5 16.5q-73 0 -198 -105q-57 -47 -113 -113t-76 -110q-7 -15 -2.5 -24.5t23.5 -6.5q41 4 123 37t178 96q61 41 96 89t35 83z" />
    <glyph glyph-name="l" unicode="l" horiz-adv-x="503" 
d="M575 1100l-323 -967q-8 -24 -10 -38.5t2.5 -21.5t15.5 -7q53 0 236 206q32 3 32 -28q-23 -43 -54.5 -86.5t-76.5 -87.5t-103 -71.5t-118 -27.5q-80 0 -80 62q0 40 45 174l326 969q23 68 27 106.5t-3.5 51t-25.5 20.5l-37 16q-8 6 -8 17t8 16q40 15 118 35.5t140 25.5
l10 -12q-38 -104 -121 -352z" />
    <glyph glyph-name="m" unicode="m" horiz-adv-x="1492" 
d="M862 836q42 0 66.5 -18t31 -45.5t2 -65t-14.5 -70t-25 -68.5l-78 -188l6 -4q148 235 267 347t220 112q57 0 86 -29.5t29 -81.5q0 -57 -33 -143q-16 -45 -62 -154t-86.5 -202t-41.5 -97q-16 -39 4 -39q27 0 88 43.5t104 95.5q33 5 33 -28q-57 -97 -161.5 -163.5
t-190.5 -66.5q-14 0 -31.5 17t-17.5 35q0 19 49 135q86 199 166 403q43 114 43 150q0 15 -1.5 24t-9 17t-22.5 8q-74 0 -268 -246q-72 -90 -142.5 -206t-179.5 -312q-16 -25 -37 -25q-16 0 -30.5 3t-25.5 16.5t-3 34.5l203 536q1 3 7.5 18t12.5 31.5t13 38t10.5 40.5
t3.5 35.5t-8 26t-23 9.5q-41 0 -118.5 -68.5t-166.5 -177.5q-47 -59 -99 -143t-81 -137t-104 -195q-15 -28 -23 -43q-14 -25 -37 -25q-16 0 -30.5 3t-25.5 16.5t-3 34.5q17 46 122.5 335.5t110.5 309.5q16 57 -14 57q-47 0 -95.5 -34t-84.5 -79q-14 0 -22.5 9t-6.5 22
q42 81 124.5 136t191.5 55q35 0 49 -24t0 -60l-142 -371l7 -4q121 199 253 329t242 130z" />
    <glyph glyph-name="n" unicode="n" horiz-adv-x="1026" 
d="M502 752l-140 -359l7 -4q78 119 160 215t175 164t166 68q115 0 115 -111q0 -46 -33 -143q-16 -45 -62 -154t-86.5 -202t-41.5 -97q-16 -39 4 -39q27 0 88 43.5t104 95.5q33 5 33 -28q-57 -97 -161.5 -163.5t-190.5 -66.5q-14 0 -31.5 17t-17.5 35q0 19 49 135
q16 36 77.5 190.5t88.5 212.5q43 99 43 150q0 15 -1.5 24t-9 17t-22.5 8q-37 0 -118 -69.5t-165 -174.5q-48 -59 -100 -142t-82.5 -138t-104.5 -192q-17 -32 -26 -48q-14 -25 -37 -25q-16 0 -30.5 3t-25.5 16.5t-3 34.5l237 645q17 47 -6 47q-67 0 -186 -103
q-12 0 -19.5 9.5t-5.5 21.5q60 82 145.5 136.5t160.5 54.5q37 0 52 -24.5t1 -59.5z" />
    <glyph glyph-name="o" unicode="o" horiz-adv-x="831" 
d="M602 836q106 0 160.5 -71t48.5 -187q-5 -100 -59 -229t-158 -236q-138 -142 -293 -142q-101 0 -157.5 72t-47.5 201q7 104 66 234t157 224q139 134 283 134zM588 774q-78 0 -150 -98q-83 -112 -141.5 -266.5t-63.5 -245.5q-3 -56 19 -93.5t65 -37.5q83 0 162 106
q65 88 126.5 251.5t64.5 248.5q4 135 -82 135z" />
    <glyph glyph-name="p" unicode="p" horiz-adv-x="917" 
d="M578 928l-43 -125q5 0 30 2t47 2q32 0 65.5 -5.5t73 -21t69.5 -40.5t50.5 -68t20.5 -99q0 -258 -270 -485q-58 -49 -132.5 -78t-109 -34t-51.5 -5t-64 13q-24 -6 -33 -37l-84 -242q-29 -83 -35 -118t5 -49t47 -19l84 -13q8 -10 6.5 -24.5t-14.5 -20.5q-36 0 -447 -12
q-11 9 -11 22.5t11 22.5l45 8q17 3 31.5 7.5t25.5 8t21 11t16.5 11t14 15t11 15.5t9.5 18.5t8 19t8.5 23t8.5 23.5l381 1069q-85 -23 -207 -84q-12 2 -18.5 14t-2.5 25q101 72 254 113l62 165q20 17 65.5 6t51.5 -34zM518 741l-213 -598q-12 -34 2 -55q10 -17 31.5 -32
t44.5 -15q13 0 35.5 7.5t55 23.5t70 51.5t68.5 83.5q121 188 121 385q0 73 -46 113t-116 40q-25 0 -53 -4z" />
    <glyph glyph-name="q" unicode="q" horiz-adv-x="952" 
d="M866 461l-245 -787q-26 -82 -22 -113t44 -34l68 -6q8 -9 5.5 -24t-14.5 -21q-55 -3 -198.5 -22.5t-243.5 -37.5q-12 6 -14.5 22t6.5 25l94 29q61 19 83 49t48 111l236 731h-4q-34 -49 -70 -95.5t-92 -107t-109 -104t-117.5 -74.5t-121.5 -31q-62 0 -93.5 45.5
t-31.5 108.5q0 156 102 326q61 103 143.5 187.5t169.5 131.5q124 66 234 66q40 0 71 -33t40 -80q73 119 110 166q15 3 30.5 -4t16.5 -21q-9 -27 -23 -72t-43.5 -140.5t-58.5 -190.5zM680 774q-69 0 -160 -82q-103 -95 -201 -278.5t-98 -292.5q0 -26 12 -42t33 -16
q53 0 172 99q70 60 142.5 141t115.5 154q58 103 58 200q0 38 -20.5 77.5t-53.5 39.5z" />
    <glyph glyph-name="r" unicode="r" horiz-adv-x="698" 
d="M387 836q36 0 53 -21.5t15.5 -56.5t-7 -62t-14.5 -55l-88 -258h10q46 87 110.5 191t104.5 155q82 107 150 107q33 0 53 -20t24.5 -40t4.5 -41q0 -25 -12.5 -62t-30.5 -61q-13 -16 -26.5 -21t-24.5 3t-15 29q-15 79 -43 79q-25 0 -71 -61q-58 -75 -125.5 -194.5
t-109 -205.5t-114.5 -245q-13 -25 -34 -25q-15 0 -31.5 3.5t-29.5 16.5t-7 34q3 9 50.5 146t92 273.5t68.5 225.5q11 43 -16 43q-65 0 -146 -107q-15 -3 -24.5 6t-8.5 27q117 197 242 197z" />
    <glyph glyph-name="s" unicode="s" horiz-adv-x="536" 
d="M461 836q53 0 88 -37.5t35 -79.5q0 -45 -37 -64q-22 -6 -39 17q-24 24 -35 34t-35.5 20.5t-54.5 10.5q-40 0 -62 -27t-22 -55q0 -35 14 -75t56 -111q32 -53 45 -79.5t23.5 -65.5t8.5 -82q-4 -108 -106 -197q-83 -74 -207 -74q-55 0 -90 35t-35 74q0 33 31 67
q12 11 27.5 11t27.5 -11q25 -29 65.5 -55t76.5 -26q38 0 68 34t30 82q0 58 -76 180q-72 117 -72 191q0 60 28.5 109t94.5 106q40 34 83 51t69 17z" />
    <glyph glyph-name="t" unicode="t" horiz-adv-x="581" 
d="M696 727h-223l-190 -557q-16 -51 14 -51q23 0 102.5 62.5t130.5 121.5q35 0 29 -37q-82 -121 -203 -208t-190 -87q-21 0 -38 18t-17 38q0 31 28 116l199 584h-160q-3 16 3 33.5t20 23.5l164 29l114 203q15 9 40.5 6t37.5 -18l-59 -201h223q11 -15 3 -40.5t-28 -35.5z" />
    <glyph glyph-name="u" unicode="u" horiz-adv-x="1015" 
d="M535 774l-230 -598q-26 -70 14 -70q47 0 220 170q53 52 100.5 112.5t88.5 126.5t66.5 111t60.5 112.5t44 84.5q32 6 63 -6t37 -31q-5 -14 -48.5 -126t-98 -256t-92.5 -252q-19 -52 8 -52t92 53.5t109 106.5q15 3 25.5 -4t11.5 -25q-43 -79 -162 -169.5t-197 -90.5
q-25 0 -42.5 24t-8.5 48l139 375l-4 2q-80 -101 -173 -199.5t-190 -174t-149 -75.5q-60 0 -74 53.5t15 120.5l188 498q21 59 0 59q-27 0 -88.5 -47.5t-105.5 -93.5q-15 -3 -26 7t-9 24q44 68 165.5 156t188.5 88q24 0 47 -19t15 -43z" />
    <glyph glyph-name="v" unicode="v" horiz-adv-x="872" 
d="M219 291l141 366q22 60 -14 60q-28 0 -83.5 -43.5t-106.5 -100.5q-13 0 -23 11.5t-8 23.5q61 85 151.5 156.5t172.5 71.5q38 0 61 -41t2 -95l-176 -456q-21 -61 -21 -97q0 -30 15 -51.5t45 -21.5q38 0 98 38.5t125 112.5q84 95 130 204t46 187q0 86 -18 146q3 32 24.5 53
t50.5 21q44 0 62 -38.5t18 -88.5q0 -115 -100 -297.5t-229 -290.5q-103 -85 -185.5 -117.5t-134.5 -32.5q-39 0 -66.5 38t-27.5 85q0 65 51 197z" />
    <glyph glyph-name="w" unicode="w" horiz-adv-x="1345" 
d="M199 231l153 410q7 19 10.5 32t4 23.5t-4.5 15.5t-16 5q-30 0 -85.5 -43.5t-102.5 -100.5q-13 0 -23 11.5t-8 23.5q58 85 148 156.5t176 71.5q38 0 60 -41t1 -95l-162 -428q-39 -100 -39 -145q0 -49 45 -49q42 0 108.5 57.5t118.5 123t95 130.5q52 79 86.5 174t46.5 154
q10 49 38.5 79.5t57.5 30.5q32 0 47 -19t15 -38q0 -9 -1 -18t-5 -20t-7 -19.5t-10.5 -25l-12.5 -27.5t-16.5 -34.5t-19.5 -39.5q-54 -111 -82.5 -221.5t-28.5 -196.5q0 -90 76 -90q48 0 120.5 54.5t133.5 141.5q127 183 127 342q0 86 -18 146q3 32 24.5 53t50.5 21
q44 0 62 -38.5t18 -88.5q0 -94 -55.5 -224t-167.5 -264q-101 -123 -210.5 -186.5t-180.5 -63.5q-35 0 -75 36.5t-40 80.5q0 58 35 174q8 25 -2 24q-10 -4 -27 -26q-82 -112 -193 -200.5t-196 -88.5q-41 0 -72.5 36t-31.5 75q0 49 35 149z" />
    <glyph glyph-name="x" unicode="x" horiz-adv-x="860" 
d="M401 375l-86 221q-32 77 -42 88q-7 8 -15 8q-10 0 -20 -6.5t-20 -19t-17.5 -23.5t-18.5 -29t-16 -26q-15 -8 -26.5 0t-10.5 28q27 83 86 151.5t98 68.5q27 0 47.5 -24.5t42.5 -82.5l89 -240q7 8 19.5 23.5t44 54t75.5 90.5q80 95 132 137t99 42q39 0 60.5 -29t21.5 -68
q0 -50 -27.5 -84t-54.5 -34q-19 0 -28 34q-14 52 -43 52q-28 0 -83 -56t-194 -225l76 -195q25 -62 41 -89t33 -27q10 0 21.5 9t26 31t23 36t25.5 45q11 12 27.5 7t15.5 -20q-23 -105 -72.5 -178.5t-105.5 -73.5q-38 0 -64.5 35t-56.5 109l-78 194q-19 -19 -74 -85.5
t-76 -90.5q-136 -162 -221 -162q-35 0 -54 22t-19 52q0 31 16 66t43 57q25 22 45 22q6 0 12 -8.5t8 -17.5q13 -58 37 -58q21 0 82 64q26 28 176 205z" />
    <glyph glyph-name="y" unicode="y" horiz-adv-x="749" 
d="M322 836q114 0 124 -349q4 -252 -30 -450h8q96 142 172 352q29 80 51.5 204t24.5 175q4 63 49 63q28 0 57 -18q19 -13 19 -41q2 -60 -58 -241.5t-180 -383.5q-6 -10 -32 -54.5t-33 -56t-30 -50t-33.5 -54t-33 -50t-39 -55.5t-39.5 -52t-47 -60t-51 -59
q-181 -207 -319 -207q-48 0 -77.5 27t-29.5 67q0 38 24 63t58 25q33 0 55 -32q22 -37 58 -37q44 0 112 57q44 37 99 125.5t82 181.5q21 76 32 204t9 263q-1 82 -8 143t-18 96t-24 51.5t-28 16.5q-19 0 -40.5 -23.5t-36.5 -50t-42 -81.5q-31 -8 -39 26q35 110 99 187.5
t135 77.5z" />
    <glyph glyph-name="z" unicode="z" horiz-adv-x="831" 
d="M4 29q0 22 24.5 51.5t94.5 93.5q191 173 498 463q16 18 10.5 27t-35.5 18q-124 41 -234 41q-27 0 -45.5 -8.5t-27 -21.5t-12 -23.5t-3.5 -20.5q0 -45 33 -78q0 -20 -18.5 -38.5t-52.5 -18.5q-36 0 -56 23t-20 53q0 62 92 147q92 82 213 82q57 0 131 -20q8 -3 34.5 -11
t40.5 -12t35.5 -8t38.5 -4q13 0 25 2.5t21 5t18.5 8.5t15 10t13.5 12.5t10.5 11.5t9.5 12t8 10q23 3 39 -9.5t13 -31.5q-17 -16 -152 -136t-268.5 -244t-247.5 -241l2 -6q18 1 36 -0.5t32.5 -4t34 -8.5t31 -9.5t32.5 -12.5t29.5 -12.5t31.5 -14.5t29 -14q88 -39 129 -39
q35 0 64.5 27t29.5 67q0 32 -20 99q-10 26 0 39.5t20 17.5t21 4q40 0 64 -33t24 -71q0 -41 -29.5 -90.5t-77.5 -87.5q-92 -72 -164 -72q-13 0 -29.5 3t-28.5 6t-31.5 10t-27 10t-28.5 12t-23 10q-21 9 -55.5 25t-55 25t-45 16.5t-42.5 7.5q-50 0 -76.5 -25.5t-42.5 -81.5
q-32 -3 -51.5 7.5t-24 23t-4.5 27.5z" />
    <glyph glyph-name="braceleft" unicode="{" horiz-adv-x="655" 
d="M635 975q-24 -145 -43 -211q-50 -172 -215 -211l-2 -8q104 -25 104 -142q0 -23 -13 -65.5t-26 -74.5t-34.5 -82t-24.5 -58q-2 -5 -19 -43.5t-25.5 -60t-22 -56.5t-19.5 -62.5t-6 -47.5q0 -62 32 -95.5t93 -46.5q4 -26 -11 -35q-48 0 -85 6.5t-71 23t-52.5 50t-18.5 82.5
q0 20 4.5 45t9 44t16.5 53t18 49.5t23.5 59t22.5 56.5t22.5 55.5t23 57t17.5 47.5t16.5 50.5t8.5 41.5t4 43q0 44 -36 62.5t-103 23.5q-11 30 10 45q53 3 93.5 16t62.5 27.5t39 39t22 38.5t13 39q22 71 49 211q27 144 49 225q73 254 361 254q4 -23 -13 -37
q-193 -33 -231 -200q-26 -112 -43 -209z" />
    <glyph glyph-name="bar" unicode="|" horiz-adv-x="532" 
d="M408 1536v-2048h-121v2048h121z" />
    <glyph glyph-name="braceright" unicode="}" horiz-adv-x="655" 
d="M207 123q24 145 43 211q50 172 215 211l2 8q-105 25 -105 141q0 23 13 65t26.5 75t34.5 82.5t25 58.5q2 5 19 43.5t25.5 60t22 56.5t19.5 62.5t6 47.5q0 62 -31.5 95t-93.5 46q-4 26 10 35q48 0 85 -6.5t71.5 -22.5t53 -49.5t18.5 -82.5q0 -20 -4.5 -45t-9.5 -44.5
t-16.5 -52.5t-18.5 -50.5t-23.5 -58.5t-22.5 -57q-5 -13 -22.5 -55.5t-23 -57t-17.5 -47.5t-16.5 -50.5t-8.5 -41.5t-4 -43q0 -44 36 -62.5t103 -23.5q11 -30 -10 -45q-45 -3 -80 -11t-58.5 -23t-39 -27.5t-26 -33.5t-15 -32t-10.5 -32q-22 -71 -49 -211q-27 -147 -49 -226
q-19 -67 -54 -117t-72.5 -76t-83.5 -41t-80.5 -18t-70.5 -2q-4 24 12 37q194 33 232 201q26 112 43 209z" />
    <glyph glyph-name="asciitilde" unicode="~" horiz-adv-x="1146" 
d="M446 471h254q76 0 109.5 26t73.5 107q20 9 40.5 1t26.5 -30q-49 -126 -94 -167q-42 -37 -115 -37h-254q-76 0 -108.5 -26.5t-73.5 -108.5q-20 -9 -40.5 -1.5t-26.5 29.5q44 113 92 164q43 43 116 43z" />
    <glyph glyph-name="uni00A0" unicode="&#xa0;" horiz-adv-x="512" 
 />
    <glyph glyph-name="exclamdown" unicode="&#xa1;" horiz-adv-x="421" 
d="M-31 -545q-57 0 -75.5 17t-8.5 49q4 11 11 29.5t24 60t33 82.5l254 665q6 12 25 12t28 -12l-141 -661q-29 -138 -41 -178t-33.5 -52t-75.5 -12zM336 807q42 0 66 -27t24 -65q0 -59 -35 -95t-82 -36q-42 0 -66 25.5t-24 70.5q0 54 35.5 90.5t81.5 36.5z" />
    <glyph glyph-name="cent" unicode="&#xa2;" horiz-adv-x="1024" 
d="M563 315l205 699q-153 -9 -259 -133.5t-106 -280.5q0 -231 160 -285zM846 1008l-209 -711q59 -20 154 16t145 88q11 0 19.5 -10t5.5 -22q-46 -63 -140.5 -107.5t-208.5 -44.5l-61 -209q-14 -16 -41.5 -15t-38.5 15l64 215q-144 22 -216.5 116.5t-72.5 223.5
q0 107 45 201.5t119.5 160t172.5 106t203 46.5l52 176q15 7 40.5 7t39.5 -7l-52 -174q131 -8 203 -53q23 -25 10 -78q-7 -23 -24 -46t-31 -23q-10 0 -14 6q-67 99 -164 123z" />
    <glyph glyph-name="sterling" unicode="&#xa3;" horiz-adv-x="1024" 
d="M195 682h165q21 0 26 3t5 15q7 44 25 121q48 221 179.5 355.5t303.5 134.5q99 0 150 -51q16 -19 16 -37q1 -32 -26.5 -64.5t-45.5 -32.5q-8 0 -26 15q-88 84 -168 84q-139 0 -203 -287q-9 -43 -20.5 -119.5t-16.5 -105.5q-3 -20 4 -25.5t31 -5.5h301q11 -9 5 -34t-21 -32
h-299q-28 0 -37 -4.5t-13 -23.5q-31 -147 -105 -246t-185 -178v-4q79 10 163 -2q42 -6 168 -64q108 -53 185 -53q93 0 104 147q3 43 14.5 59.5t34.5 16.5q36 0 56.5 -30.5t11.5 -71.5q-18 -77 -128 -150t-224 -73q-97 0 -226 79q-123 76 -192 76q-70 0 -88 -67
q-4 -20 -36 -38t-52 -18t-26 9t-3 28q9 47 129 133q169 119 242 447q5 17 0.5 22.5t-27.5 5.5h-168q-10 9 -4 33t21 33z" />
    <glyph glyph-name="currency" unicode="&#xa4;" horiz-adv-x="1024" 
d="M606 985q-122 0 -212.5 -101.5t-90.5 -242.5q0 -145 91 -244.5t212 -99.5t212 100t91 244q0 141 -91.5 242.5t-211.5 101.5zM606 1079q136 0 244 -82l80 105q35 -11 63 -39t31 -59l-86 -93q88 -115 88 -270t-88 -270l86 -92q-3 -31 -31 -59.5t-63 -39.5l-80 105
q-108 -82 -244 -82q-133 0 -244 82l-77 -105q-35 11 -64 39.5t-33 59.5l88 92q-90 114 -90 270t90 270l-88 93q4 31 33 59t64 39l77 -105q111 82 244 82z" />
    <glyph glyph-name="yen" unicode="&#xa5;" horiz-adv-x="1024" 
d="M920 428h-320l-57 -197q-33 -104 -22.5 -139t87.5 -45l60 -8q8 -10 6 -23t-12 -22q-126 6 -242 6q-134 0 -242 -6q-9 9 -8.5 23.5t12.5 21.5l54 8q85 12 114.5 44t61.5 147l53 190h-313q-7 12 -1.5 34.5t19.5 31.5h311l49 165h-311q-7 11 -2 34.5t19 31.5h282l-110 336
q-32 97 -52.5 128t-66.5 44l-43 12q-8 10 -6 24.5t14 18.5q105 -6 211 -6q125 0 199 6q12 -7 12.5 -21.5t-10.5 -21.5l-88 -18q-44 -9 -51 -29.5t10 -75.5l75 -262q24 -91 41 -108q15 11 86 90l205 237q89 103 75 133q-6 12 -28 17l-61 16q-8 10 -6 23t14 20q117 -6 201 -6
q69 0 161 6q27 -20 7 -43l-58 -14q-31 -8 -62 -26t-66.5 -52t-51.5 -50t-55 -59l-295 -319h303q9 -13 4.5 -35.5t-20.5 -30.5h-330l-53 -165h315q8 -13 3 -35t-21 -31z" />
    <glyph glyph-name="brokenbar" unicode="&#xa6;" horiz-adv-x="532" 
d="M408 1382v-716h-121v716h121zM408 358v-716h-121v716h121z" />
    <glyph glyph-name="section" unicode="&#xa7;" horiz-adv-x="942" 
d="M895 1427q58 0 101.5 -39t43.5 -94q0 -80 -55 -80q-13 0 -29 31q-47 86 -131 86t-135 -48.5t-51 -125.5q0 -129 94 -360q9 -23 28.5 -70.5t26.5 -65.5t21 -54.5t19.5 -53t14 -44.5t11.5 -46.5t5.5 -41t2.5 -44.5q0 -114 -61.5 -207t-186.5 -207q-254 -235 -421 -235
q-74 0 -126.5 45t-52.5 114q0 30 25.5 36.5t48.5 -13.5q99 -78 193 -78q78 0 131 44.5t53 127.5q0 65 -22.5 150t-84.5 233q-108 252 -108 373q0 134 106 283.5t260 256.5q105 73 175 100t104 27zM569 10l4 -4q58 52 108 139t50 183q0 17 -3.5 47.5t-23.5 107t-53 158.5
q-115 285 -121 340q-7 104 15 182l-2 4q-59 -53 -114.5 -142.5t-55.5 -174.5q0 -87 20.5 -167t73.5 -204q106 -253 108 -327q3 -70 -6 -142z" />
    <glyph glyph-name="dieresis" unicode="&#xa8;" 
d="M457 1051q-35 0 -55.5 21t-20.5 56q0 48 29 79.5t69 31.5q35 0 55.5 -23.5t20.5 -54.5q0 -51 -29 -80.5t-69 -29.5zM774 1051q-35 0 -55.5 21t-20.5 56q0 48 30 79.5t69 31.5q35 0 55 -23.5t20 -54.5q0 -51 -29 -80.5t-69 -29.5z" />
    <glyph glyph-name="copyright" unicode="&#xa9;" horiz-adv-x="1689" 
d="M729 684q0 -161 84 -259.5t221 -98.5q167 0 252 194q9 8 22 6t19 -12q-3 -42 -20 -104t-35 -93q-153 -47 -250 -47q-109 0 -197 34.5t-141 92t-81 128t-28 147.5q0 182 131.5 296.5t327.5 114.5q50 0 104 -7.5t94.5 -15.5t49.5 -9q4 -27 8 -56.5t8.5 -68.5t8.5 -66
q-6 -10 -21 -12t-22 6q-55 174 -242 174q-140 0 -216.5 -97.5t-76.5 -246.5zM965 -33q-202 0 -367 95.5t-257.5 257.5t-92.5 356q0 145 54.5 275.5t149 225.5t228.5 151t285 56t285 -56t228 -151t148.5 -225.5t54.5 -275.5t-54.5 -275.5t-148.5 -226t-228 -151.5t-285 -56z
M365 678q0 -175 78.5 -319.5t216.5 -228t305 -83.5t305 83.5t216.5 228t78.5 319.5q0 174 -78.5 317.5t-216.5 226.5t-305 83t-305 -83t-216.5 -226.5t-78.5 -317.5z" />
    <glyph glyph-name="ordfeminine" unicode="&#xaa;" horiz-adv-x="745" 
d="M713 1047l45 94q20 7 49.5 -1t38.5 -22q-25 -53 -102.5 -236t-110.5 -272q-11 -35 12 -35q48 0 160 99q24 0 24 -25q-48 -62 -126.5 -109.5t-149.5 -47.5q-23 0 -34 13t-11 25q0 14 16 58l45 117l-2 -3l-4 5q-78 -87 -179 -151t-161 -64q-39 0 -60.5 24t-21.5 57
q0 34 35.5 114.5t104.5 168.5q106 134 208 188q81 41 154 41q49 0 70 -38zM596 1030q-29 0 -53 -12t-60 -43q-75 -62 -135.5 -180t-60.5 -195q0 -12 6.5 -19.5t15.5 -7.5q38 0 146 95q67 58 131.5 152t83.5 159q-19 51 -74 51z" />
    <glyph glyph-name="guillemotleft" unicode="&#xab;" horiz-adv-x="819" 
d="M299 397l82 -297q-4 -11 -16.5 -17t-22.5 -3q-103 185 -180 309q-12 20 -10 32t22 32l311 307q10 1 18.5 -7t10.5 -20l-205 -287q-17 -23 -10 -49zM586 397l82 -297q-4 -11 -16.5 -17t-22.5 -3q-103 184 -180 309q-12 20 -10 32t22 32l311 307q10 1 18.5 -7t10.5 -20
l-205 -287q-17 -23 -10 -49z" />
    <glyph glyph-name="logicalnot" unicode="&#xac;" horiz-adv-x="1146" 
d="M950 102v422h-768v101h889v-523h-121z" />
    <glyph glyph-name="uni00AD" unicode="&#xad;" horiz-adv-x="655" 
d="M137 471l498 45q15 -20 9.5 -59t-26.5 -58l-497 -45q-15 20 -9.5 59t25.5 58z" />
    <glyph glyph-name="registered" unicode="&#xae;" horiz-adv-x="634" 
d="M573 1384q110 0 188.5 -76.5t78.5 -183.5t-78.5 -183.5t-188.5 -76.5t-188 76.5t-78 183.5t78 183.5t188 76.5zM573 1339q-84 0 -143 -62.5t-59 -152.5q0 -89 59.5 -152t142.5 -63t143 63t60 152q0 90 -59.5 152.5t-143.5 62.5zM487 1067v117q0 38 -22 41h-8q-9 18 2 22
q86 4 114 4q103 0 103 -69q0 -20 -11.5 -35.5t-25.5 -22.5q-6 -3 0 -14q32 -68 51 -82q14 -10 19 -12q3 0 3 -7t-3 -8q-10 -2 -29 -2q-51 0 -76 43l-29 52q-6 12 -18 12t-12 -10v-29q0 -19 1 -25t7 -11t20 -7l7 -2q3 -2 3 -11t-3 -10q-9 0 -29 1.5t-33 1.5q-12 0 -31.5 -1.5
t-27.5 -1.5q-4 1 -4.5 10.5t2.5 10.5l8 2q16 4 19 10.5t3 32.5zM545 1206v-61q0 -11 3.5 -13t20.5 -2q22 0 31.5 12.5t9.5 28.5q0 24 -10.5 38t-28.5 14q-17 0 -21.5 -3.5t-4.5 -13.5z" />
    <glyph glyph-name="macron" unicode="&#xaf;" 
d="M838 1053h-379q-15 19 -15 47t15 47h379q14 -19 14 -47t-14 -47z" />
    <glyph glyph-name="degree" unicode="&#xb0;" horiz-adv-x="819" 
d="M616 1311q115 0 195 -73.5t80 -190.5q0 -122 -79 -193.5t-196 -71.5t-195.5 71.5t-78.5 193.5q0 117 79.5 190.5t194.5 73.5zM616 1239q-69 0 -114 -53t-45 -139t45 -139.5t114 -53.5t114.5 53.5t45.5 139.5t-45.5 139t-114.5 53z" />
    <glyph glyph-name="plusminus" unicode="&#xb1;" horiz-adv-x="1146" 
d="M1030 100v-100h-788v100h788zM698 172h-120v338h-336v100h336v324h120v-324h332v-100h-332v-338z" />
    <glyph glyph-name="twosuperior" unicode="&#xb2;" 
d="M430 743h127q77 0 116 13.5t70 58.5q7 6 24 4.5t21 -10.5q-27 -43 -88 -168q-66 4 -208 4h-177q-103 0 -153 -4q-18 12 -6 31q103 61 256 184q6 5 40 31.5t46 37t44 37t46.5 42.5t39.5 42.5t37.5 47.5t27 47t20.5 52t6 52q0 56 -36.5 91.5t-96.5 35.5q-96 0 -193 -119
q-10 -4 -20.5 2.5t-12.5 18.5q43 79 119.5 127.5t163.5 48.5q99 0 161 -52.5t62 -140.5q0 -44 -17 -84t-53.5 -79.5t-72 -69t-92.5 -72.5l-103 -75q-58 -43 -89 -70t-38.5 -36.5t-7.5 -16.5q0 -11 37 -11z" />
    <glyph glyph-name="threesuperior" unicode="&#xb3;" 
d="M678 1450q79 0 129.5 -39.5t50.5 -101.5q0 -32 -19 -60.5t-51.5 -49.5t-63 -35.5t-65.5 -26.5q-16 -14 13 -21q65 -16 113.5 -62t48.5 -118q0 -85 -49.5 -157.5t-126 -118t-164 -70.5t-168.5 -25q-70 0 -109.5 21t-38.5 63q0 24 18.5 43t45.5 19q40 0 69 -56
q18 -37 62 -37q125 0 217 90.5t92 211.5q0 64 -39.5 102.5t-103.5 38.5q-71 0 -146 -60q-40 17 -16 64q3 1 58 20.5t94 36.5t89.5 44.5t78.5 61.5t28 70q0 41 -28.5 62.5t-69.5 21.5q-51 0 -106 -34.5t-93 -85.5q-13 -1 -22 6.5t-9 19.5q42 70 118 116t163 46z" />
    <glyph glyph-name="acute" unicode="&#xb4;" 
d="M883 1165l-258 -227q-11 0 -22 8.5t-11 18.5l192 292q27 44 50 41q27 0 57 -30t27 -54q0 -22 -35 -49z" />
    <glyph glyph-name="uni00B5" unicode="&#xb5;" horiz-adv-x="1015" 
d="M537 786l-238 -610q-12 -37 -5.5 -53.5t25.5 -16.5q48 0 218 170q52 52 99.5 111.5t90 128.5t66.5 110t62 114t44 83q32 6 63 -6t37 -31q-5 -14 -48.5 -126t-98 -256t-92.5 -252q-19 -52 8 -52t92 53.5t109 106.5q15 3 25.5 -4t11.5 -25q-43 -79 -162 -169.5t-197 -90.5
q-25 0 -42.5 24t-8.5 48l129 350l-4 2q-121 -147 -269 -285.5t-206 -138.5q-19 0 -33 11q-21 3 -37 -45l-31 -87q-28 -77 -28 -186q0 -86 -15 -131q-12 -35 -54 -59.5t-93 -24.5q-26 0 -34 17.5t3 46.5q34 93 139 373.5t179.5 482.5t165.5 454q3 13 34 13q37 0 68.5 -17
t26.5 -33z" />
    <glyph glyph-name="paragraph" unicode="&#xb6;" horiz-adv-x="1024" 
d="M942 911l-285 -958q-14 -46 -23 -75t-27 -75t-34.5 -75.5t-42.5 -64.5t-54 -55t-66.5 -34t-81.5 -14q-75 0 -122.5 36.5t-47.5 98.5q0 44 23.5 72t51.5 38q33 0 60 -19t26 -42q-32 -27 -32 -66q0 -27 16.5 -42t42.5 -15q23 0 43.5 10t48 38t56.5 90.5t57 154.5l90 297
q11 43 4 58.5t-33 17.5q-41 3 -86.5 17t-95 42t-88.5 65.5t-64.5 94.5t-25.5 123q0 104 48.5 196.5t133.5 151.5q187 129 496 129q202 0 250 -10q9 -6 7.5 -23.5t-11.5 -21.5l-86 -15q-33 -5 -48.5 -8t-33 -10t-23.5 -12t-15.5 -20.5t-14 -30t-13.5 -44.5z" />
    <glyph glyph-name="periodcentered" unicode="&#xb7;" horiz-adv-x="512" 
d="M311 535q42 0 66 -27.5t24 -65.5q0 -59 -34.5 -95t-81.5 -36q-42 0 -66 26t-24 71q0 54 35 90.5t81 36.5z" />
    <glyph glyph-name="cedilla" unicode="&#xb8;" 
d="M344 0h68l-74 -100q-22 -28 10 -54q76 -62 76 -133q0 -64 -66 -110.5t-143 -46.5q-50 0 -76 18t-26 47q0 17 14 33t37 16q21 0 49 -28q31 -31 43 -31q22 0 39.5 15t17.5 48q0 36 -30 70.5t-78 56.5v9z" />
    <glyph glyph-name="onesuperior" unicode="&#xb9;" 
d="M438 819l119 400q18 65 16 77q3 23 -43 29l-61 10q-7 10 -5 20t9 15q154 24 258 72q20 4 23 -12q-44 -128 -49 -146l-138 -467q-25 -78 -18.5 -102.5t59.5 -30.5l39 -4q8 -6 6 -20.5t-12 -18.5q-106 4 -195 4q-96 0 -170 -4q-6 4 -6 19.5t6 19.5l37 4q61 7 81 30t44 105z
" />
    <glyph glyph-name="ordmasculine" unicode="&#xba;" horiz-adv-x="671" 
d="M582 1106q90 0 134.5 -50.5t39.5 -133.5q-4 -70 -46 -162t-122 -168q-104 -100 -234 -100q-80 0 -130 51t-44 141q5 78 49.5 169t114.5 153q114 100 238 100zM297 629q-2 -35 17.5 -59.5t52.5 -24.5q71 0 129 80q61 81 98.5 178t40.5 158q2 44 -16.5 68t-53.5 24
q-61 0 -125 -80q-55 -68 -98 -176t-45 -168z" />
    <glyph glyph-name="guillemotright" unicode="&#xbb;" horiz-adv-x="819" 
d="M104 106l205 287q17 23 10 49l-81 297q4 12 16.5 18t21.5 3q94 -168 181 -309q12 -20 9.5 -32t-22.5 -32l-311 -307q-10 -1 -18.5 6.5t-10.5 19.5zM391 106l205 287q17 23 10 49l-82 297q4 12 17 18t22 3q103 -185 180 -309q12 -20 10 -32t-22 -32l-311 -307
q-10 -1 -18.5 6.5t-10.5 19.5z" />
    <glyph glyph-name="onequarter" unicode="&#xbc;" horiz-adv-x="1679" 
d="M1059 293h190q27 0 35 5.5t14 27.5l68 227q5 18 18 25q44 22 89 22q18 0 20 -10t-6 -29l-72 -239q-6 -19 -2.5 -24t23.5 -5h77q9 -7 5 -27.5t-19 -27.5h-69q-28 0 -35.5 -5t-12.5 -24l-20 -72q-17 -50 -12 -70.5t49 -27.5l49 -8q7 -6 4.5 -18t-10.5 -17q-140 4 -185 4
q-70 0 -172 -4q-8 4 -7.5 16.5t9.5 18.5l50 8q49 8 70.5 25.5t35.5 72.5l19 68q7 20 2.5 26.5t-31.5 6.5h-320q-8 0 -11.5 5.5t-0.5 14.5q5 18 33 43l606 559q25 25 45 25q41 0 41 -11q0 -4 -8 -12l-586 -538q-19 -20 -12 -25.5t39 -5.5zM389 680l119 399q19 65 16 78
q3 23 -43 29l-61 10q-7 10 -5 20t9 15q154 24 258 72q8 2 15 -2t8 -11q-5 -13 -14 -38t-18 -51t-18 -56l-137 -467q-25 -78 -18.5 -102.5t59.5 -30.5l39 -4q8 -6 6 -20.5t-12 -18.5q-106 4 -195 4q-96 0 -170 -4q-6 4 -6 19t6 20l37 4q61 7 81 30t44 105zM324 -29
q552 656 1140 1368q21 0 40.5 -14t19.5 -37q-567 -672 -1145 -1370q-27 0 -41 14.5t-14 38.5z" />
    <glyph glyph-name="onehalf" unicode="&#xbd;" horiz-adv-x="1679" 
d="M356 680l119 399q19 67 17 78q3 23 -43 29l-62 10q-7 10 -5 20t9 15q154 24 258 72q8 2 15 -2t8 -11q-46 -134 -49 -145l-138 -467q-25 -78 -18.5 -102.5t59.5 -30.5l39 -4q8 -6 6 -20.5t-12 -18.5q-106 4 -194 4q-96 0 -170 -4q-6 4 -6 19t6 20l36 4q61 7 81 30t44 105z
M283 -29q552 656 1140 1368q21 0 40.5 -14t19.5 -37q-567 -672 -1145 -1370q-27 0 -41 14.5t-14 38.5zM1192 98h127q77 0 116 13.5t70 58.5q7 6 24 4.5t21 -10.5q-27 -43 -88 -168q-66 4 -209 4h-176q-103 0 -153 -4q-18 12 -6 31q103 61 256 184q6 5 40 31.5t46 37t44 37
t46.5 42.5t39.5 42.5t37.5 47.5t27 47t20.5 52t6 52q0 56 -36.5 91.5t-96.5 35.5q-96 0 -193 -119q-10 -4 -20.5 2.5t-12.5 18.5q43 79 119.5 127.5t163.5 48.5q99 0 161 -52.5t62 -140.5q0 -44 -17 -84t-53.5 -79.5t-72 -69t-92.5 -72.5l-103 -76q-58 -44 -89 -70
t-38.5 -35.5t-7.5 -16.5q0 -11 37 -11z" />
    <glyph glyph-name="threequarters" unicode="&#xbe;" horiz-adv-x="1679" 
d="M393 -29q600 713 1141 1368q21 0 40 -14t19 -37q-502 -596 -1144 -1370q-27 0 -41.5 14.5t-14.5 38.5zM659 1311q79 0 130 -40t51 -102q0 -32 -19 -60.5t-51.5 -49.5t-63 -35.5t-65.5 -26.5q-17 -7 1 -16q5 -2 11 -4q65 -16 113.5 -62t48.5 -118q0 -85 -49.5 -157.5
t-126 -118t-164 -70.5t-168.5 -25q-69 0 -108 21t-39 63q0 24 18 42.5t45 18.5q42 0 70 -55q18 -37 61 -37q125 0 217.5 90t92.5 211q0 64 -40 103t-104 39q-70 0 -145 -60q-41 18 -17 64q3 1 58 20t94 36.5t90 45t79 61.5t28 70q0 41 -29 62.5t-70 21.5q-51 0 -105.5 -34.5
t-92.5 -86.5q-13 -1 -22 7t-9 20q42 70 117.5 116t162.5 46zM1108 293h190q28 0 36 5.5t14 27.5l67 227q4 18 19 25q44 22 88 22q18 0 20 -10t-6 -29l-72 -239q-6 -19 -2.5 -24t23.5 -5h78q9 -7 4.5 -27.5t-19.5 -27.5h-69q-28 0 -35 -4.5t-12 -24.5l-21 -72
q-17 -50 -12 -70.5t49 -27.5l49 -8q7 -6 4.5 -18t-10.5 -17q-140 4 -184 4q-70 0 -172 -4q-8 4 -7.5 16.5t9.5 18.5l49 8q49 8 70.5 25.5t35.5 72.5l19 68q7 20 2.5 26.5t-31.5 6.5h-319q-8 0 -12 5.5t-1 14.5q5 18 33 43l606 559q25 25 45 25q41 0 41 -11q0 -4 -8 -12
l-586 -538q-19 -20 -12 -25.5t39 -5.5z" />
    <glyph glyph-name="questiondown" unicode="&#xbf;" horiz-adv-x="614" 
d="M313 -20l-127 -72q-84 -47 -125 -89.5t-41 -97.5q0 -65 43.5 -105t100.5 -40q46 0 92 23q7 4 17 10t16.5 9t11.5 3q15 0 27 -15.5t12 -41.5q0 -43 -42 -76t-105 -33q-90 0 -165 89.5t-75 201.5q0 98 53.5 169.5t157.5 129.5l137 76q50 28 72 58.5t22 74.5q0 46 -18 98
q4 9 15 12t18 -2q36 -46 57 -103.5t6 -113.5q-24 -90 -160 -165zM471 807q42 0 66 -27t24 -65q0 -59 -35 -95t-82 -36q-42 0 -66 25.5t-24 70.5q0 54 35.5 90.5t81.5 36.5z" />
    <glyph glyph-name="Agrave" unicode="&#xc0;" horiz-adv-x="1220" 
d="M1130 51l54 -6q9 -9 6 -27t-14 -24q-94 6 -232 6q-144 0 -235 -6q-15 6 -15.5 25.5t13.5 25.5l63 6q31 3 52 12.5t28 20.5q15 25 22 127l19 274q3 36 -4 45t-39 9h-295q-46 0 -62 -9.5t-45 -54.5l-159 -233q-92 -144 -92 -154q0 -24 47 -31l88 -12q11 -9 9 -27t-13 -24
q-95 6 -209 6q-117 0 -228 -6q-7 9 -5.5 25.5t10.5 25.5l55 6q82 8 147 86q72 91 338 461l361 508q110 154 123 211q31 4 67 21t59 32l23 14q8 0 16.5 -5t8.5 -11q0 -14 -3 -50t-8.5 -106t-9.5 -145l-41 -774q-4 -68 -5.5 -97t2 -63t7 -43t19 -20.5t30 -13t47.5 -5.5z
M600 621h258q26 0 33 6.5t8 34.5l33 448q4 53 -4 53q-11 0 -78 -100l-285 -412q-12 -19 -5.5 -24.5t40.5 -5.5zM1106 1446l-295 125q-33 14 -43 31q-12 24 12 71q10 19 23.5 29t23.5 10q20 0 47 -24l250 -201q4 -11 -2 -24.5t-16 -16.5z" />
    <glyph glyph-name="Aacute" unicode="&#xc1;" horiz-adv-x="1220" 
d="M1130 51l54 -6q9 -9 6 -27t-14 -24q-94 6 -232 6q-144 0 -235 -6q-15 6 -15.5 25.5t13.5 25.5l63 6q31 3 52 12.5t28 20.5q15 25 22 127l19 274q3 36 -4 45t-39 9h-295q-46 0 -62 -9.5t-45 -54.5l-159 -233q-92 -144 -92 -154q0 -24 47 -31l88 -12q11 -9 9 -27t-13 -24
q-95 6 -209 6q-117 0 -228 -6q-7 9 -5.5 25.5t10.5 25.5l55 6q82 8 147 86q72 91 338 461l361 508q110 154 123 211q31 4 67 21t59 32l23 14q8 0 16.5 -5t8.5 -11q0 -14 -3 -50t-8.5 -106t-9.5 -145l-41 -774q-4 -68 -5.5 -97t2 -63t7 -43t19 -20.5t30 -13t47.5 -5.5z
M600 621h258q26 0 33 6.5t8 34.5l33 448q4 53 -4 53q-11 0 -78 -100l-285 -412q-12 -19 -5.5 -24.5t40.5 -5.5zM1262 1571l-295 -125q-10 3 -16.5 16.5t-2.5 24.5l250 201q27 24 47 24q10 0 23.5 -10t23.5 -29q25 -48 13 -71q-10 -17 -43 -31z" />
    <glyph glyph-name="Acircumflex" unicode="&#xc2;" horiz-adv-x="1220" 
d="M1130 51l54 -6q9 -9 6 -27t-14 -24q-94 6 -232 6q-144 0 -235 -6q-15 6 -15.5 25.5t13.5 25.5l63 6q31 3 52 12.5t28 20.5q15 25 22 127l19 274q3 36 -4 45t-39 9h-295q-46 0 -62 -9.5t-45 -54.5l-159 -233q-92 -144 -92 -154q0 -24 47 -31l88 -12q11 -9 9 -27t-13 -24
q-95 6 -209 6q-117 0 -228 -6q-7 9 -5.5 25.5t10.5 25.5l55 6q82 8 147 86q72 91 338 461l361 508q110 154 123 211q31 4 67 21t59 32l23 14q8 0 16.5 -5t8.5 -11q0 -14 -3 -50t-8.5 -106t-9.5 -145l-41 -774q-4 -68 -5.5 -97t2 -63t7 -43t19 -20.5t30 -13t47.5 -5.5z
M600 621h258q26 0 33 6.5t8 34.5l33 448q4 53 -4 53q-11 0 -78 -100l-285 -412q-12 -19 -5.5 -24.5t40.5 -5.5zM1149 1694l170 -224q-1 -12 -12.5 -23t-22.5 -11l-172 127q-16 16 -29 16t-34 -12l-263 -131q-10 0 -14.5 11.5t-1.5 22.5l301 224q23 18 45 18q25 0 33 -18z
" />
    <glyph glyph-name="Atilde" unicode="&#xc3;" horiz-adv-x="1220" 
d="M1130 51l54 -6q9 -9 6 -27t-14 -24q-94 6 -232 6q-144 0 -235 -6q-15 6 -15.5 25.5t13.5 25.5l63 6q31 3 52 12.5t28 20.5q15 25 22 127l19 274q3 36 -4 45t-39 9h-295q-46 0 -62 -9.5t-45 -54.5l-159 -233q-92 -144 -92 -154q0 -24 47 -31l88 -12q11 -9 9 -27t-13 -24
q-95 6 -209 6q-117 0 -228 -6q-7 9 -5.5 25.5t10.5 25.5l55 6q82 8 147 86q72 91 338 461l361 508q110 154 123 211q31 4 67 21t59 32l23 14q8 0 16.5 -5t8.5 -11q0 -14 -3 -50t-8.5 -106t-9.5 -145l-41 -774q-4 -68 -5.5 -97t2 -63t7 -43t19 -20.5t30 -13t47.5 -5.5z
M600 621h258q26 0 33 6.5t8 34.5l33 448q4 53 -4 53q-11 0 -78 -100l-285 -412q-12 -19 -5.5 -24.5t40.5 -5.5zM1001 1618h103q58 0 83.5 14t59.5 62q7 5 18 3t15 -11q-9 -36 -30.5 -77t-41.5 -61q-32 -30 -92 -30h-100q-60 0 -93.5 -22.5t-62.5 -76.5q-7 -5 -17 -3t-14 11
q6 30 27.5 81.5t42.5 70.5q21 23 43.5 31t58.5 8z" />
    <glyph glyph-name="Adieresis" unicode="&#xc4;" horiz-adv-x="1220" 
d="M1130 51l54 -6q9 -9 6 -27t-14 -24q-94 6 -232 6q-144 0 -235 -6q-15 6 -15.5 25.5t13.5 25.5l63 6q31 3 52 12.5t28 20.5q15 25 22 127l19 274q3 36 -4 45t-39 9h-295q-46 0 -62 -9.5t-45 -54.5l-159 -233q-92 -144 -92 -154q0 -24 47 -31l88 -12q11 -9 9 -27t-13 -24
q-95 6 -209 6q-117 0 -228 -6q-7 9 -5.5 25.5t10.5 25.5l55 6q82 8 147 86q72 91 338 461l361 508q110 154 123 211q31 4 67 21t59 32l23 14q8 0 16.5 -5t8.5 -11q0 -14 -3 -50t-8.5 -106t-9.5 -145l-41 -774q-4 -68 -5.5 -97t2 -63t7 -43t19 -20.5t30 -13t47.5 -5.5z
M600 621h258q26 0 33 6.5t8 34.5l33 448q4 53 -4 53q-11 0 -78 -100l-285 -412q-12 -19 -5.5 -24.5t40.5 -5.5zM864 1444q-35 0 -54 21t-19 55q0 46 29 77t67 31q34 0 55 -23.5t21 -54.5q0 -48 -30 -77t-69 -29zM1221 1444q-35 0 -54.5 21t-19.5 55q0 46 29 77t67 31
q34 0 55 -23.5t21 -54.5q0 -49 -29 -77.5t-69 -28.5z" />
    <glyph glyph-name="Aring" unicode="&#xc5;" horiz-adv-x="1220" 
d="M1130 51l54 -6q9 -9 6 -27t-14 -24q-94 6 -232 6q-144 0 -235 -6q-15 6 -15.5 25.5t13.5 25.5l63 6q31 3 52 12.5t28 20.5q15 25 22 127l19 274q3 36 -4 45t-39 9h-295q-46 0 -62 -9.5t-45 -54.5l-159 -233q-92 -144 -92 -154q0 -24 47 -31l88 -12q11 -9 9 -27t-13 -24
q-95 6 -209 6q-117 0 -228 -6q-7 9 -5.5 25.5t10.5 25.5l55 6q82 8 147 86q72 91 338 461l361 508q110 154 123 211q31 4 67 21t59 32l23 14q8 0 16.5 -5t8.5 -11q0 -14 -3 -50t-8.5 -106t-9.5 -145l-41 -774q-4 -68 -5.5 -97t2 -63t7 -43t19 -20.5t30 -13t47.5 -5.5z
M600 621h258q26 0 33 6.5t8 34.5l33 448q4 53 -4 53q-11 0 -78 -100l-285 -412q-12 -19 -5.5 -24.5t40.5 -5.5zM1040 1778q74 0 124 -50t50 -116q0 -68 -49.5 -117t-124.5 -49t-124.5 49t-49.5 117q0 66 50 116t124 50zM948 1612q0 -47 26.5 -78t65.5 -31q40 0 66.5 31
t26.5 78q0 46 -26.5 76t-66.5 30q-39 0 -65.5 -30.5t-26.5 -75.5z" />
    <glyph glyph-name="AE" unicode="&#xc6;" horiz-adv-x="1724" 
d="M1100 1352h514q228 0 289 6q-10 -25 -39 -120.5t-45 -152.5q-6 -12 -26.5 -11t-25.5 13q6 53 7 89t-17 59t-61 35q-70 18 -217 18h-121q-41 0 -53 -10t-27 -59l-129 -420q-14 -43 -9.5 -51.5t46.5 -8.5h102q147 0 197.5 17.5t85.5 83.5l33 61q6 11 27 9.5t24 -13.5
q-40 -100 -70 -199q-29 -92 -53 -198q-9 -12 -27 -11t-24 13v57q0 27 -4 45t-16.5 30.5t-25 19t-41.5 10t-53 4t-71 0.5h-103q-43 0 -55 -8.5t-25 -51.5l-86 -276q-15 -50 -23 -79.5t-14 -60.5t-5 -51t8 -35q11 -23 57 -33t170 -10q77 0 120.5 3t91.5 14t81 34.5t68.5 62
t74.5 99.5q12 8 26.5 4.5t20.5 -16.5q-16 -54 -60.5 -143.5t-80.5 -126.5q-218 6 -469 6h-242q-108 0 -243 -6q-12 7 -12.5 24.5t10.5 26.5l71 12q54 9 79 24t48.5 61t57.5 153l100 323q10 33 0 41.5t-55 8.5h-211q-36 0 -54 -11t-53 -53q-247 -300 -373 -463
q-19 -25 -26 -40.5t-1 -25t27 -12.5l89 -14q9 -11 7 -30t-12 -25q-102 6 -221 6q-90 0 -192 -6q-11 10 -11 28t11 27l45 6q56 8 101 40.5t124 123.5q500 574 815 967q34 42 43 61t1 27.5t-40 13.5l-116 19q-11 6 -8 25.5t18 25.5q126 -6 256 -6zM733 739h160q54 0 72 10.5
t30 51.5l125 409q19 64 15 78h-5q-7 -4 -17 -15.5t-23 -27.5t-19 -22q-186 -224 -364 -447q-22 -25 -18.5 -31t44.5 -6z" />
    <glyph glyph-name="Ccedilla" unicode="&#xc7;" horiz-adv-x="1323" 
d="M580 -170l106 143q-96 11 -177 44.5t-150.5 95t-109.5 165.5t-40 240q0 172 80.5 335t212.5 282q130 118 309.5 183.5t378.5 65.5q170 0 336 -65q-63 -153 -92 -275q-6 -12 -28.5 -10.5t-27.5 13.5q30 139 -20 206.5t-203 67.5q-290 0 -524 -229q-91 -91 -166.5 -259.5
t-75.5 -353.5q0 -219 101 -333.5t296 -114.5q102 0 187.5 39.5t143 99t110.5 147.5q15 6 30 2.5t19 -16.5q-41 -124 -133 -289q-28 0 -162 -22q-147 -25 -199 -25q-22 0 -30 2l-39 -49q-24 -32 2 -53q80 -66 80 -125q0 -69 -64 -117.5t-141 -48.5q-50 0 -76.5 18.5
t-26.5 47.5q0 17 14.5 33t37.5 16q20 0 49 -29q31 -31 43 -31q21 0 39 15.5t18 48.5q0 36 -30 70.5t-78 56.5v8z" />
    <glyph glyph-name="Egrave" unicode="&#xc8;" horiz-adv-x="1159" 
d="M993 1446l-295 125q-33 14 -43 31q-12 23 13 71q10 19 23.5 29t23.5 10q20 0 47 -24l250 -201q4 -11 -2.5 -24.5t-16.5 -16.5zM270 295l238 762q13 43 19.5 65.5t13.5 50t8 40t-0.5 28.5t-7.5 22t-17 14t-25 12t-36 9l-41 9q-10 12 -7 28.5t19 22.5q183 -6 228 -6h387
q227 0 288 6q-31 -79 -84 -273q-6 -12 -26 -11t-25 13q6 53 6.5 89t-17.5 59t-61 35q-70 18 -217 18h-120q-40 0 -53 -11.5t-27 -57.5l-131 -420q-15 -43 -10.5 -51.5t46.5 -8.5h103q147 0 197.5 17.5t85.5 83.5l32 61q6 11 27 9.5t24 -13.5q-36 -90 -69 -199
q-29 -92 -53 -198q-9 -12 -27.5 -11t-24.5 13v57q0 27 -4 45t-16.5 30.5t-25 19t-41.5 10t-53 4t-71 0.5h-102q-43 0 -55 -8.5t-25 -51.5l-84 -276q-16 -52 -23.5 -79.5t-14 -59.5t-5.5 -52t8 -35q11 -23 57.5 -33t170.5 -10q77 0 120.5 3t91.5 14t81 34.5t68.5 62
t74.5 99.5q12 8 26.5 4.5t20.5 -16.5q-16 -54 -60.5 -143.5t-80.5 -126.5q-145 6 -469 6h-242q-109 0 -244 -6q-12 7 -12.5 24.5t10.5 26.5l72 6q52 4 78.5 22.5t48.5 64.5t57 157z" />
    <glyph glyph-name="Eacute" unicode="&#xc9;" horiz-adv-x="1159" 
d="M1159 1571l-295 -125q-10 3 -16 16.5t-2 24.5l250 201q27 24 47 24q10 0 23.5 -10t23.5 -29q24 -47 12 -71q-10 -17 -43 -31zM270 295l238 762q13 43 19.5 65.5t13.5 50t8 40t-0.5 28.5t-7.5 22t-17 14t-25 12t-36 9l-41 9q-10 12 -7 28.5t19 22.5q183 -6 228 -6h387
q227 0 288 6q-31 -79 -84 -273q-6 -12 -26 -11t-25 13q6 53 6.5 89t-17.5 59t-61 35q-70 18 -217 18h-120q-40 0 -53 -11.5t-27 -57.5l-131 -420q-15 -43 -10.5 -51.5t46.5 -8.5h103q147 0 197.5 17.5t85.5 83.5l32 61q6 11 27 9.5t24 -13.5q-36 -90 -69 -199
q-29 -92 -53 -198q-9 -12 -27.5 -11t-24.5 13v57q0 27 -4 45t-16.5 30.5t-25 19t-41.5 10t-53 4t-71 0.5h-102q-43 0 -55 -8.5t-25 -51.5l-84 -276q-16 -52 -23.5 -79.5t-14 -59.5t-5.5 -52t8 -35q11 -23 57.5 -33t170.5 -10q77 0 120.5 3t91.5 14t81 34.5t68.5 62
t74.5 99.5q12 8 26.5 4.5t20.5 -16.5q-16 -54 -60.5 -143.5t-80.5 -126.5q-145 6 -469 6h-242q-109 0 -244 -6q-12 7 -12.5 24.5t10.5 26.5l72 6q52 4 78.5 22.5t48.5 64.5t57 157z" />
    <glyph glyph-name="Ecircumflex" unicode="&#xca;" horiz-adv-x="1159" 
d="M1051 1694l180 -224q0 -12 -11 -23t-22 -11l-178 127q-16 16 -31 16q-12 0 -33 -12l-256 -131q-10 0 -15.5 11.5t-2.5 22.5l291 224q24 18 43 18q25 0 35 -18zM270 295l238 762q13 43 19.5 65.5t13.5 50t8 40t-0.5 28.5t-7.5 22t-17 14t-25 12t-36 9l-41 9
q-10 12 -7 28.5t19 22.5q183 -6 228 -6h387q227 0 288 6q-31 -79 -84 -273q-6 -12 -26 -11t-25 13q6 53 6.5 89t-17.5 59t-61 35q-70 18 -217 18h-120q-40 0 -53 -11.5t-27 -57.5l-131 -420q-15 -43 -10.5 -51.5t46.5 -8.5h103q147 0 197.5 17.5t85.5 83.5l32 61
q6 11 27 9.5t24 -13.5q-36 -90 -69 -199q-29 -92 -53 -198q-9 -12 -27.5 -11t-24.5 13v57q0 27 -4 45t-16.5 30.5t-25 19t-41.5 10t-53 4t-71 0.5h-102q-43 0 -55 -8.5t-25 -51.5l-84 -276q-16 -52 -23.5 -79.5t-14 -59.5t-5.5 -52t8 -35q11 -23 57.5 -33t170.5 -10
q77 0 120.5 3t91.5 14t81 34.5t68.5 62t74.5 99.5q12 8 26.5 4.5t20.5 -16.5q-16 -54 -60.5 -143.5t-80.5 -126.5q-145 6 -469 6h-242q-109 0 -244 -6q-12 7 -12.5 24.5t10.5 26.5l72 6q52 4 78.5 22.5t48.5 64.5t57 157z" />
    <glyph glyph-name="Edieresis" unicode="&#xcb;" horiz-adv-x="1159" 
d="M793 1444q-35 0 -54.5 21t-19.5 55q0 46 29 77t67 31q34 0 55 -23.5t21 -54.5q0 -48 -29.5 -77t-68.5 -29zM1149 1444q-35 0 -54.5 21t-19.5 55q0 46 29 77t67 31q34 0 55 -23.5t21 -54.5q0 -49 -29 -77.5t-69 -28.5zM270 295l238 762q13 43 19.5 65.5t13.5 50t8 40
t-0.5 28.5t-7.5 22t-17 14t-25 12t-36 9l-41 9q-10 12 -7 28.5t19 22.5q183 -6 228 -6h387q227 0 288 6q-31 -79 -84 -273q-6 -12 -26 -11t-25 13q6 53 6.5 89t-17.5 59t-61 35q-70 18 -217 18h-120q-40 0 -53 -11.5t-27 -57.5l-131 -420q-15 -43 -10.5 -51.5t46.5 -8.5h103
q147 0 197.5 17.5t85.5 83.5l32 61q6 11 27 9.5t24 -13.5q-36 -90 -69 -199q-29 -92 -53 -198q-9 -12 -27.5 -11t-24.5 13v57q0 27 -4 45t-16.5 30.5t-25 19t-41.5 10t-53 4t-71 0.5h-102q-43 0 -55 -8.5t-25 -51.5l-84 -276q-16 -52 -23.5 -79.5t-14 -59.5t-5.5 -52t8 -35
q11 -23 57.5 -33t170.5 -10q77 0 120.5 3t91.5 14t81 34.5t68.5 62t74.5 99.5q12 8 26.5 4.5t20.5 -16.5q-16 -54 -60.5 -143.5t-80.5 -126.5q-145 6 -469 6h-242q-109 0 -244 -6q-12 7 -12.5 24.5t10.5 26.5l72 6q52 4 78.5 22.5t48.5 64.5t57 157z" />
    <glyph glyph-name="Igrave" unicode="&#xcc;" horiz-adv-x="698" 
d="M272 295l240 762q18 56 26 84.5t13.5 59t2.5 43.5t-13.5 26t-28 18t-47.5 10l-49 9q-10 12 -7 28.5t19 22.5q123 -6 238 -6q98 0 245 6q11 -6 12 -24.5t-12 -26.5l-55 -9q-32 -5 -51 -9t-37.5 -17t-27.5 -24t-23 -43.5t-23 -59.5t-28 -88l-240 -762q-17 -53 -25.5 -84
t-13.5 -61t-2.5 -45t11.5 -28t25.5 -18t43.5 -8l63 -6q9 -11 6 -28t-14 -23q-150 6 -258 6q-112 0 -235 -6q-12 7 -12.5 24.5t10.5 26.5l63 6q52 5 78.5 23.5t48.5 64.5t57 156zM764 1446l-295 125q-33 14 -43 31q-12 24 12 71q10 19 23.5 29t23.5 10q20 0 47 -24l250 -201
q4 -11 -2 -24.5t-16 -16.5z" />
    <glyph glyph-name="Iacute" unicode="&#xcd;" horiz-adv-x="698" 
d="M272 295l240 762q18 56 26 84.5t13.5 59t2.5 43.5t-13.5 26t-28 18t-47.5 10l-49 9q-10 12 -7 28.5t19 22.5q123 -6 238 -6q98 0 245 6q11 -6 12 -24.5t-12 -26.5l-55 -9q-32 -5 -51 -9t-37.5 -17t-27.5 -24t-23 -43.5t-23 -59.5t-28 -88l-240 -762q-17 -53 -25.5 -84
t-13.5 -61t-2.5 -45t11.5 -28t25.5 -18t43.5 -8l63 -6q9 -11 6 -28t-14 -23q-150 6 -258 6q-112 0 -235 -6q-12 7 -12.5 24.5t10.5 26.5l63 6q52 5 78.5 23.5t48.5 64.5t57 156zM930 1571l-295 -125q-10 3 -16.5 16.5t-2.5 24.5l250 201q27 24 47 24q10 0 24 -10t24 -29
q24 -47 12 -71q-10 -17 -43 -31z" />
    <glyph glyph-name="Icircumflex" unicode="&#xce;" horiz-adv-x="698" 
d="M272 295l240 762q18 56 26 84.5t13.5 59t2.5 43.5t-13.5 26t-28 18t-47.5 10l-49 9q-10 12 -7 28.5t19 22.5q123 -6 238 -6q98 0 245 6q11 -6 12 -24.5t-12 -26.5l-55 -9q-32 -5 -51 -9t-37.5 -17t-27.5 -24t-23 -43.5t-23 -59.5t-28 -88l-240 -762q-17 -53 -25.5 -84
t-13.5 -61t-2.5 -45t11.5 -28t25.5 -18t43.5 -8l63 -6q9 -11 6 -28t-14 -23q-150 6 -258 6q-112 0 -235 -6q-12 7 -12.5 24.5t10.5 26.5l63 6q52 5 78.5 23.5t48.5 64.5t57 156zM803 1694l180 -224q0 -12 -11 -23t-22 -11l-178 127q-16 16 -31 16q-11 0 -32 -12l-256 -131
q-10 0 -16 11.5t-3 22.5l291 224q24 18 43 18q25 0 35 -18z" />
    <glyph glyph-name="Idieresis" unicode="&#xcf;" horiz-adv-x="698" 
d="M272 295l240 762q18 56 26 84.5t13.5 59t2.5 43.5t-13.5 26t-28 18t-47.5 10l-49 9q-10 12 -7 28.5t19 22.5q123 -6 238 -6q98 0 245 6q11 -6 12 -24.5t-12 -26.5l-55 -9q-32 -5 -51 -9t-37.5 -17t-27.5 -24t-23 -43.5t-23 -59.5t-28 -88l-240 -762q-17 -53 -25.5 -84
t-13.5 -61t-2.5 -45t11.5 -28t25.5 -18t43.5 -8l63 -6q9 -11 6 -28t-14 -23q-150 6 -258 6q-112 0 -235 -6q-12 7 -12.5 24.5t10.5 26.5l63 6q52 5 78.5 23.5t48.5 64.5t57 156zM541 1444q-35 0 -54.5 21t-19.5 55q0 46 29 77t67 31q34 0 55 -23.5t21 -54.5q0 -48 -29.5 -77
t-68.5 -29zM897 1444q-35 0 -54.5 21t-19.5 55q0 46 29.5 77t67.5 31q34 0 54.5 -23.5t20.5 -54.5q0 -49 -29 -77.5t-69 -28.5z" />
    <glyph glyph-name="Eth" unicode="&#xd0;" horiz-adv-x="1525" 
d="M184 739h226l118 385q27 96 20 122t-54 32l-82 10q-9 6 -9.5 23.5t9.5 25.5q163 21 381 21q123 0 226.5 -17.5t178 -47.5t133 -73t95.5 -91.5t61 -105.5t33.5 -111t9.5 -113q0 -195 -87 -357t-237 -264q-269 -184 -684 -184q-23 0 -105.5 3t-150.5 3q-117 0 -225 -6
q-12 7 -12.5 24.5t10.5 26.5l53 6q50 5 76 23t48.5 65.5t55.5 155.5l115 373h-219q-5 18 -1 39.5t17 31.5zM844 668h-303l-135 -435q-28 -92 12.5 -129.5t173.5 -37.5q122 0 228 28.5t181.5 75t136.5 109.5t99.5 129.5t64 137t36 129t10.5 109.5q0 38 -1.5 69t-8 73.5
t-17.5 76.5t-31 73.5t-47.5 69.5t-69 59t-92.5 47.5t-121 30t-153 11.5q-46 0 -63.5 -15t-32.5 -65l-148 -475h299q8 -18 3.5 -39.5t-21.5 -31.5z" />
    <glyph glyph-name="Ntilde" unicode="&#xd1;" horiz-adv-x="1513" 
d="M1085 1618h103q58 0 83.5 14t59.5 62q7 5 18 3t15 -11q-9 -36 -30.5 -77t-41.5 -61q-32 -30 -92 -30h-100q-60 0 -93.5 -22.5t-62.5 -76.5q-7 -5 -17 -3t-14 11q6 30 27.5 81.5t42.5 70.5q21 23 43.5 31t58.5 8zM317 477l162 524q8 24 21 66t19.5 62.5t14 46.5t10.5 42
t3 27q0 21 -12.5 30.5t-40.5 14.5l-82 17q-12 10 -8.5 28.5t18.5 22.5q63 -6 209 -6h127v-29q0 -48 100 -297l207 -510q86 -207 100 -231q18 0 35 57l162 514q98 313 98 379q0 30 -9 41.5t-42 17.5l-80 13q-9 14 -4.5 29.5t16.5 21.5q108 -6 232 -6q105 0 194 6
q8 -6 9.5 -24t-7.5 -27l-47 -9q-84 -14 -106 -36t-71.5 -143.5t-96.5 -268.5l-148 -459q-50 -155 -124 -409q-18 -18 -58 -13q-59 180 -186 488l-162 393q-20 49 -50 126.5t-51 129.5t-36 82q-10 0 -66 -180l-159 -533q-33 -108 -86 -340q-11 -46 13 -61.5t87 -22.5l47 -6
q9 -9 7 -26t-13 -25q-91 6 -234 6q-120 0 -215 -6q-10 7 -12.5 23.5t8.5 27.5l51 6q63 5 101 35q26 20 60 106.5t95 284.5z" />
    <glyph glyph-name="Ograve" unicode="&#xd2;" horiz-adv-x="1495" 
d="M1036 1384q103 0 192 -35t158 -102.5t106 -176.5t30 -247q-8 -173 -82.5 -346t-194.5 -287q-234 -223 -536 -223q-126 0 -225.5 46.5t-159 123.5t-89 170.5t-26.5 194.5q5 196 87.5 379t240.5 317q220 186 499 186zM1028 1321q-162 0 -307 -123q-58 -49 -114 -125
t-106 -174t-83 -222.5t-37 -252.5q-2 -77 14 -143.5t53 -124.5t107.5 -91.5t167.5 -33.5q188 0 342 164q131 141 205 339.5t80 378.5q7 193 -79.5 300.5t-242.5 107.5zM1161 1446l-295 125q-33 14 -43 31q-12 23 13 71q10 19 23.5 29t23.5 10q20 0 47 -24l250 -201
q4 -11 -2.5 -24.5t-16.5 -16.5z" />
    <glyph glyph-name="Oacute" unicode="&#xd3;" horiz-adv-x="1495" 
d="M1036 1384q103 0 192 -35t158 -102.5t106 -176.5t30 -247q-8 -173 -82.5 -346t-194.5 -287q-234 -223 -536 -223q-126 0 -225.5 46.5t-159 123.5t-89 170.5t-26.5 194.5q5 196 87.5 379t240.5 317q220 186 499 186zM1028 1321q-162 0 -307 -123q-58 -49 -114 -125
t-106 -174t-83 -222.5t-37 -252.5q-2 -77 14 -143.5t53 -124.5t107.5 -91.5t167.5 -33.5q188 0 342 164q131 141 205 339.5t80 378.5q7 193 -79.5 300.5t-242.5 107.5zM1296 1571l-295 -125q-10 3 -16 16.5t-2 24.5l250 201q27 24 47 24q10 0 23.5 -10t23.5 -29
q24 -47 12 -71q-10 -17 -43 -31z" />
    <glyph glyph-name="Ocircumflex" unicode="&#xd4;" horiz-adv-x="1495" 
d="M1036 1384q103 0 192 -35t158 -102.5t106 -176.5t30 -247q-8 -173 -82.5 -346t-194.5 -287q-234 -223 -536 -223q-126 0 -225.5 46.5t-159 123.5t-89 170.5t-26.5 194.5q5 196 87.5 379t240.5 317q220 186 499 186zM1028 1321q-162 0 -307 -123q-58 -49 -114 -125
t-106 -174t-83 -222.5t-37 -252.5q-2 -77 14 -143.5t53 -124.5t107.5 -91.5t167.5 -33.5q188 0 342 164q131 141 205 339.5t80 378.5q7 193 -79.5 300.5t-242.5 107.5zM1122 1694l181 -224q0 -12 -11 -23t-22 -11l-178 127q-16 16 -31 16q-12 0 -33 -12l-256 -131
q-10 0 -15.5 11.5t-2.5 22.5l290 224q24 18 43 18q25 0 35 -18z" />
    <glyph glyph-name="Otilde" unicode="&#xd5;" horiz-adv-x="1495" 
d="M1036 1384q103 0 192 -35t158 -102.5t106 -176.5t30 -247q-8 -173 -82.5 -346t-194.5 -287q-234 -223 -536 -223q-126 0 -225.5 46.5t-159 123.5t-89 170.5t-26.5 194.5q5 196 87.5 379t240.5 317q220 186 499 186zM1028 1321q-162 0 -307 -123q-58 -49 -114 -125
t-106 -174t-83 -222.5t-37 -252.5q-2 -77 14 -143.5t53 -124.5t107.5 -91.5t167.5 -33.5q188 0 342 164q131 141 205 339.5t80 378.5q7 193 -79.5 300.5t-242.5 107.5zM1018 1618h102q58 0 84 14t60 62q7 5 17.5 3t14.5 -11q-9 -37 -30 -77.5t-41 -60.5q-32 -30 -92 -30
h-101q-60 0 -93 -22.5t-62 -76.5q-7 -5 -17 -3t-14 11q6 30 27 81.5t42 70.5q21 23 43.5 31t59.5 8z" />
    <glyph glyph-name="Odieresis" unicode="&#xd6;" horiz-adv-x="1495" 
d="M1036 1384q103 0 192 -35t158 -102.5t106 -176.5t30 -247q-8 -173 -82.5 -346t-194.5 -287q-234 -223 -536 -223q-126 0 -225.5 46.5t-159 123.5t-89 170.5t-26.5 194.5q5 196 87.5 379t240.5 317q220 186 499 186zM1028 1321q-162 0 -307 -123q-58 -49 -114 -125
t-106 -174t-83 -222.5t-37 -252.5q-2 -77 14 -143.5t53 -124.5t107.5 -91.5t167.5 -33.5q188 0 342 164q131 141 205 339.5t80 378.5q7 193 -79.5 300.5t-242.5 107.5zM877 1444q-35 0 -54.5 21t-19.5 55q0 46 29 77t67 31q34 0 55 -23.5t21 -54.5q0 -48 -29.5 -77
t-68.5 -29zM1233 1444q-35 0 -54.5 21t-19.5 55q0 46 29 77t67 31q34 0 55 -23.5t21 -54.5q0 -49 -29 -77.5t-69 -28.5z" />
    <glyph glyph-name="multiply" unicode="&#xd7;" horiz-adv-x="1146" 
d="M1016 715l-303 -307l303 -306l-76 -79l-305 307l-303 -307l-76 79l301 306l-301 301l76 79l303 -303l305 308z" />
    <glyph glyph-name="Oslash" unicode="&#xd8;" horiz-adv-x="1495" 
d="M1317 1135l-885 -959q79 -145 281 -145t354 162q133 145 204 342.5t79 406.5q3 116 -33 193zM401 254l879 948q-89 119 -252 119q-162 0 -307 -123q-58 -49 -114 -125t-106 -174.5t-83 -224t-37 -254.5q-3 -92 20 -166zM1542 1380l-139 -153q131 -147 119 -404
q-8 -171 -82 -344t-195 -289q-234 -223 -536 -223q-218 0 -349 131l-174 -188q-20 2 -35.5 18.5t-15.5 38.5l176 191q-109 147 -102 344q5 196 87.5 379t240.5 317q220 186 499 186q184 0 314 -106l139 156q18 0 34.5 -18t18.5 -36z" />
    <glyph glyph-name="Ugrave" unicode="&#xd9;" horiz-adv-x="1503" 
d="M326 545l159 512q17 56 25 84.5t13.5 59.5t2.5 44t-13.5 26t-28 18.5t-46.5 10.5l-51 9q-9 9 -7 26t15 23q129 -6 240 -6q102 0 252 6q11 -6 11 -24t-13 -25l-58 -9q-23 -3 -39 -6t-31 -11t-24 -13t-20.5 -22t-17 -28.5t-17 -42t-18 -52t-21.5 -68.5l-147 -473
q-167 -543 266 -543q83 0 154.5 29t123.5 76t96.5 115.5t74.5 136.5t57 151l94 289q63 194 82 317q7 45 8.5 74.5t-18 46.5t-68.5 24l-57 9q-9 10 -6.5 26.5t14.5 22.5q150 -6 219 -6q101 0 221 6q12 -8 12 -25t-12 -24l-47 -9q-40 -7 -63.5 -16t-41.5 -28.5t-29 -41
t-28 -65.5q-21 -55 -100 -311l-94 -301q-97 -303 -240 -428q-77 -68 -181.5 -105t-205.5 -37q-280 0 -382.5 148t-14.5 430zM1186 1446l-295 125q-33 14 -43 31q-12 24 12 71q10 19 23.5 29t23.5 10q20 0 47 -24l250 -201q4 -11 -2 -24.5t-16 -16.5z" />
    <glyph glyph-name="Uacute" unicode="&#xda;" horiz-adv-x="1503" 
d="M326 545l159 512q17 56 25 84.5t13.5 59.5t2.5 44t-13.5 26t-28 18.5t-46.5 10.5l-51 9q-9 9 -7 26t15 23q129 -6 240 -6q102 0 252 6q11 -6 11 -24t-13 -25l-58 -9q-23 -3 -39 -6t-31 -11t-24 -13t-20.5 -22t-17 -28.5t-17 -42t-18 -52t-21.5 -68.5l-147 -473
q-167 -543 266 -543q83 0 154.5 29t123.5 76t96.5 115.5t74.5 136.5t57 151l94 289q63 194 82 317q7 45 8.5 74.5t-18 46.5t-68.5 24l-57 9q-9 10 -6.5 26.5t14.5 22.5q150 -6 219 -6q101 0 221 6q12 -8 12 -25t-12 -24l-47 -9q-40 -7 -63.5 -16t-41.5 -28.5t-29 -41
t-28 -65.5q-21 -55 -100 -311l-94 -301q-97 -303 -240 -428q-77 -68 -181.5 -105t-205.5 -37q-280 0 -382.5 148t-14.5 430zM1290 1571l-295 -125q-10 3 -16 16.5t-2 24.5l250 201q27 24 47 24q10 0 23.5 -10t23.5 -29q24 -47 12 -71q-10 -17 -43 -31z" />
    <glyph glyph-name="Ucircumflex" unicode="&#xdb;" horiz-adv-x="1503" 
d="M326 545l159 512q17 56 25 84.5t13.5 59.5t2.5 44t-13.5 26t-28 18.5t-46.5 10.5l-51 9q-9 9 -7 26t15 23q129 -6 240 -6q102 0 252 6q11 -6 11 -24t-13 -25l-58 -9q-23 -3 -39 -6t-31 -11t-24 -13t-20.5 -22t-17 -28.5t-17 -42t-18 -52t-21.5 -68.5l-147 -473
q-167 -543 266 -543q83 0 154.5 29t123.5 76t96.5 115.5t74.5 136.5t57 151l94 289q63 194 82 317q7 45 8.5 74.5t-18 46.5t-68.5 24l-57 9q-9 10 -6.5 26.5t14.5 22.5q150 -6 219 -6q101 0 221 6q12 -8 12 -25t-12 -24l-47 -9q-40 -7 -63.5 -16t-41.5 -28.5t-29 -41
t-28 -65.5q-21 -55 -100 -311l-94 -301q-97 -303 -240 -428q-77 -68 -181.5 -105t-205.5 -37q-280 0 -382.5 148t-14.5 430zM1208 1694l181 -224q0 -12 -11 -23t-22 -11l-178 127q-16 16 -31 16q-12 0 -33 -12l-256 -131q-10 0 -15.5 11.5t-2.5 22.5l290 224q24 18 44 18
q24 0 34 -18z" />
    <glyph glyph-name="Udieresis" unicode="&#xdc;" horiz-adv-x="1503" 
d="M326 545l159 512q17 56 25 84.5t13.5 59.5t2.5 44t-13.5 26t-28 18.5t-46.5 10.5l-51 9q-9 9 -7 26t15 23q129 -6 240 -6q102 0 252 6q11 -6 11 -24t-13 -25l-58 -9q-23 -3 -39 -6t-31 -11t-24 -13t-20.5 -22t-17 -28.5t-17 -42t-18 -52t-21.5 -68.5l-147 -473
q-167 -543 266 -543q83 0 154.5 29t123.5 76t96.5 115.5t74.5 136.5t57 151l94 289q63 194 82 317q7 45 8.5 74.5t-18 46.5t-68.5 24l-57 9q-9 10 -6.5 26.5t14.5 22.5q150 -6 219 -6q101 0 221 6q12 -8 12 -25t-12 -24l-47 -9q-40 -7 -63.5 -16t-41.5 -28.5t-29 -41
t-28 -65.5q-21 -55 -100 -311l-94 -301q-97 -303 -240 -428q-77 -68 -181.5 -105t-205.5 -37q-280 0 -382.5 148t-14.5 430zM954 1444q-35 0 -54 21t-19 55q0 46 29 77t67 31q34 0 55 -23.5t21 -54.5q0 -48 -30 -77t-69 -29zM1311 1444q-35 0 -54.5 21t-19.5 55q0 46 29 77
t67 31q34 0 55 -23.5t21 -54.5q0 -49 -29 -77.5t-69 -28.5z" />
    <glyph glyph-name="Yacute" unicode="&#xdd;" horiz-adv-x="1155" 
d="M612 1186l105 -481q8 -38 19 -39t42 36l252 304q197 240 197 258q0 24 -60 34l-51 9q-11 9 -9.5 26.5t13.5 24.5q120 -6 213 -6q83 0 185 6q10 -6 10 -24t-10 -27l-43 -9q-83 -17 -115 -47q-33 -30 -94.5 -94t-106.5 -117l-233 -274q-110 -128 -142 -179.5t-69 -168.5
l-39 -123q-18 -56 -27.5 -89t-14.5 -63t-2.5 -44.5t13 -26t26.5 -15.5t44 -6l73 -6q10 -8 7.5 -27t-13.5 -24q-172 6 -274 6q-106 0 -244 -6q-12 7 -12.5 25.5t10.5 25.5l74 6q26 2 42.5 6t33 15.5t27 25t24.5 44.5t25.5 63t31.5 90l41 121q28 81 31 123t-17 139l-102 444
q-23 101 -43.5 134t-73.5 42l-51 9q-9 11 -6 28t12 23q114 -6 217 -6q121 0 220 6q9 -8 9.5 -25t-9.5 -26l-60 -9q-58 -8 -73.5 -30t-2.5 -82zM1157 1571l-295 -125q-10 3 -16 16.5t-2 24.5l250 201q27 24 47 24q10 0 23.5 -10t23.5 -29q24 -47 12 -71q-10 -17 -43 -31z" />
    <glyph glyph-name="Thorn" unicode="&#xde;" horiz-adv-x="1146" 
d="M270 295l240 762q18 56 26 84.5t13.5 59t2.5 43.5t-13.5 26t-28 18t-47.5 10l-49 9q-10 12 -7 28t19 23q123 -6 238 -6q125 0 245 6q11 -6 11 -25t-11 -26l-45 -9q-34 -6 -53.5 -11t-39.5 -17.5t-30 -24.5t-23.5 -41t-23 -58.5t-26.5 -84.5h73q240 0 351 -90
q100 -81 100 -219q0 -88 -38 -159.5t-98.5 -116t-136 -73.5t-149 -39t-139.5 -6q-12 4 -13.5 18t7.5 23q82 15 153 39q100 36 170 123t70 197q0 120 -69 179.5t-199 59.5q-71 0 -93.5 -12.5t-35.5 -52.5l-197 -637q-16 -53 -25 -84.5t-14 -61.5t-2.5 -45.5t11.5 -28.5
t25.5 -17.5t43.5 -6.5l92 -6q10 -11 7.5 -28t-13.5 -23q-197 6 -289 6q-114 0 -231 -6q-12 7 -12 24.5t12 26.5l59 6q39 4 60 12t42 36t37.5 70t42.5 126z" />
    <glyph glyph-name="germandbls" unicode="&#xdf;" horiz-adv-x="952" 
d="M1053 1464q88 0 154.5 -55t66.5 -131q0 -43 -25.5 -84t-73.5 -77.5t-90 -62.5t-102 -58t-82 -46q-145 -88 -145 -213q0 -72 63 -229q64 -159 64 -232q0 -70 -22 -118t-73 -95q-37 -37 -91 -64.5t-83 -27.5q-57 0 -93 38t-36 75q0 35 17 59q9 12 20.5 12.5t20.5 -8.5
q71 -71 129 -71q36 0 70 29t34 83q0 36 -67 187q-6 13 -9 20q-77 174 -77 269q0 57 18 103t62.5 94t100.5 91t152 107q56 37 95 81t53 74.5t14 49.5q0 61 -44.5 93t-117.5 32q-64 0 -127.5 -34t-117 -89.5t-102.5 -131.5t-86.5 -155.5t-67.5 -165.5q-60 -170 -111 -401
t-91 -423t-77 -284q-43 -106 -131 -181t-192 -75q-71 0 -106.5 37t-35.5 74q0 55 49 82q10 2 15.5 3.5t13.5 -6t12 -12t11 -14.5q20 -32 56 -56t71 -24q20 0 41.5 15.5t35.5 39.5q48 79 113 457q89 509 190 791q124 348 390 524q155 104 344 104z" />
    <glyph glyph-name="agrave" unicode="&#xe0;" horiz-adv-x="909" 
d="M766 752l57 131q27 11 59.5 0.5t41.5 -31.5q-35 -86 -133.5 -339.5t-141.5 -375.5q-16 -47 15 -47q53 0 210 137q11 0 20 -7.5t9 -18.5q-70 -93 -167 -161.5t-177 -68.5q-31 0 -45 19t-14 37q0 20 20 79l68 185l-6 2q-106 -132 -241.5 -227t-209.5 -95q-41 0 -65.5 34.5
t-24.5 80.5q0 48 45 160.5t135 236.5q139 191 271 265q105 59 184 59q25 0 49 -12q8 -4 21 -17t20 -26zM612 729q-35 0 -65 -17.5t-80 -62.5q-97 -87 -176.5 -253.5t-79.5 -276.5q0 -18 8.5 -28.5t22.5 -10.5q19 0 69.5 31t128.5 102q108 100 177.5 219t97.5 223
q-11 32 -38 53t-65 21zM616 1266l107 -318q0 -11 -13 -17.5t-24 -4.5l-178 254q-29 43 -29 57q0 25 35 47q39 27 64 27q24 0 38 -45z" />
    <glyph glyph-name="aacute" unicode="&#xe1;" horiz-adv-x="909" 
d="M766 752l57 131q27 11 59.5 0.5t41.5 -31.5q-35 -86 -133.5 -339.5t-141.5 -375.5q-16 -47 15 -47q53 0 210 137q11 0 20 -7.5t9 -18.5q-70 -93 -167 -161.5t-177 -68.5q-31 0 -45 19t-14 37q0 20 20 79l68 185l-6 2q-106 -132 -241.5 -227t-209.5 -95q-41 0 -65.5 34.5
t-24.5 80.5q0 48 45 160.5t135 236.5q139 191 271 265q105 59 184 59q25 0 49 -12q8 -4 21 -17t20 -26zM612 729q-35 0 -65 -17.5t-80 -62.5q-97 -87 -176.5 -253.5t-79.5 -276.5q0 -18 8.5 -28.5t22.5 -10.5q19 0 69.5 31t128.5 102q108 100 177.5 219t97.5 223
q-11 32 -38 53t-65 21zM969 1165l-258 -227q-11 0 -22 8.5t-11 18.5l192 292q27 44 50 41q27 0 57 -30t27 -54q0 -22 -35 -49z" />
    <glyph glyph-name="acircumflex" unicode="&#xe2;" horiz-adv-x="909" 
d="M766 752l57 131q27 11 59.5 0.5t41.5 -31.5q-35 -86 -133.5 -339.5t-141.5 -375.5q-16 -47 15 -47q53 0 210 137q11 0 20 -7.5t9 -18.5q-70 -93 -167 -161.5t-177 -68.5q-31 0 -45 19t-14 37q0 20 20 79l68 185l-6 2q-106 -132 -241.5 -227t-209.5 -95q-41 0 -65.5 34.5
t-24.5 80.5q0 48 45 160.5t135 236.5q139 191 271 265q105 59 184 59q25 0 49 -12q8 -4 21 -17t20 -26zM612 729q-35 0 -65 -17.5t-80 -62.5q-97 -87 -176.5 -253.5t-79.5 -276.5q0 -18 8.5 -28.5t22.5 -10.5q19 0 69.5 31t128.5 102q108 100 177.5 219t97.5 223
q-11 32 -38 53t-65 21zM797 1292l77 -331q-5 -11 -17.5 -17.5t-25.5 -3.5l-86 188q-12 27 -18 27q-11 0 -33 -22l-190 -197q-12 -2 -23.5 7t-11.5 22l250 335q25 31 43 31q11 0 21 -10.5t14 -28.5z" />
    <glyph glyph-name="atilde" unicode="&#xe3;" horiz-adv-x="909" 
d="M766 752l57 131q27 11 59.5 0.5t41.5 -31.5q-35 -86 -133.5 -339.5t-141.5 -375.5q-16 -47 15 -47q53 0 210 137q11 0 20 -7.5t9 -18.5q-70 -93 -167 -161.5t-177 -68.5q-31 0 -45 19t-14 37q0 20 20 79l68 185l-6 2q-106 -132 -241.5 -227t-209.5 -95q-41 0 -65.5 34.5
t-24.5 80.5q0 48 45 160.5t135 236.5q139 191 271 265q105 59 184 59q25 0 49 -12q8 -4 21 -17t20 -26zM612 729q-35 0 -65 -17.5t-80 -62.5q-97 -87 -176.5 -253.5t-79.5 -276.5q0 -18 8.5 -28.5t22.5 -10.5q19 0 69.5 31t128.5 102q108 100 177.5 219t97.5 223
q-11 32 -38 53t-65 21zM670 1163h102q59 0 84.5 12.5t58.5 59.5q7 5 18 3t15 -11q-9 -37 -30 -77t-41 -60q-33 -31 -93 -31h-100q-61 0 -94 -22t-62 -76q-7 -5 -16.5 -3t-13.5 11q6 30 27 81t42 70q38 43 103 43z" />
    <glyph glyph-name="adieresis" unicode="&#xe4;" horiz-adv-x="909" 
d="M766 752l57 131q27 11 59.5 0.5t41.5 -31.5q-35 -86 -133.5 -339.5t-141.5 -375.5q-16 -47 15 -47q53 0 210 137q11 0 20 -7.5t9 -18.5q-70 -93 -167 -161.5t-177 -68.5q-31 0 -45 19t-14 37q0 20 20 79l68 185l-6 2q-106 -132 -241.5 -227t-209.5 -95q-41 0 -65.5 34.5
t-24.5 80.5q0 48 45 160.5t135 236.5q139 191 271 265q105 59 184 59q25 0 49 -12q8 -4 21 -17t20 -26zM612 729q-35 0 -65 -17.5t-80 -62.5q-97 -87 -176.5 -253.5t-79.5 -276.5q0 -18 8.5 -28.5t22.5 -10.5q19 0 69.5 31t128.5 102q108 100 177.5 219t97.5 223
q-11 32 -38 53t-65 21zM543 1042q-35 0 -55.5 21.5t-20.5 56.5q0 48 29 79.5t69 31.5q35 0 55.5 -23.5t20.5 -54.5q0 -51 -29.5 -81t-68.5 -30zM860 1042q-35 0 -55.5 21.5t-20.5 56.5q0 48 30 79.5t69 31.5q35 0 55 -23.5t20 -54.5q0 -51 -29.5 -81t-68.5 -30z" />
    <glyph glyph-name="aring" unicode="&#xe5;" horiz-adv-x="909" 
d="M766 752l57 131q27 11 59.5 0.5t41.5 -31.5q-35 -86 -133.5 -339.5t-141.5 -375.5q-16 -47 15 -47q53 0 210 137q11 0 20 -7.5t9 -18.5q-70 -93 -167 -161.5t-177 -68.5q-31 0 -45 19t-14 37q0 20 20 79l68 185l-6 2q-106 -132 -241.5 -227t-209.5 -95q-41 0 -65.5 34.5
t-24.5 80.5q0 48 45 160.5t135 236.5q139 191 271 265q105 59 184 59q25 0 49 -12q8 -4 21 -17t20 -26zM612 729q-35 0 -65 -17.5t-80 -62.5q-97 -87 -176.5 -253.5t-79.5 -276.5q0 -18 8.5 -28.5t22.5 -10.5q19 0 69.5 31t128.5 102q108 100 177.5 219t97.5 223
q-11 32 -38 53t-65 21zM717 1307q75 0 124.5 -49.5t49.5 -116.5q0 -68 -49.5 -117t-124.5 -49t-124.5 49t-49.5 117q0 67 49.5 116.5t124.5 49.5zM625 1141q0 -47 26.5 -78t65.5 -31q40 0 66 31t26 78q0 46 -26 76t-66 30q-39 0 -65.5 -30.5t-26.5 -75.5z" />
    <glyph glyph-name="ae" unicode="&#xe6;" horiz-adv-x="978" 
d="M838 836q76 0 113.5 -40t37.5 -89q0 -48 -25 -96t-83.5 -106.5t-117.5 -107.5t-163 -129q0 -100 38 -145t89 -45q31 0 61 18.5t47 36.5t44 52q5 7 8 10q14 5 26 -2.5t15 -22.5q-34 -59 -76.5 -102t-82 -62t-68 -27t-48.5 -8q-42 0 -75 17t-53 46t-31.5 56t-18.5 57
q-84 -78 -175.5 -127t-145.5 -49q-43 0 -78 27t-35 82q0 76 57.5 183.5t124.5 182.5q131 145 348 279q8 5 44 28t52.5 32t48.5 24t61.5 21t60.5 6zM248 82q86 0 215 129q-5 113 14.5 213.5t75.5 216.5l-4 4q-138 -81 -242 -243.5t-104 -262.5q0 -27 12.5 -42t32.5 -15z
M791 774q-55 0 -101.5 -71.5t-70 -171.5t-23.5 -197q119 109 189.5 213t70.5 162q0 65 -65 65z" />
    <glyph glyph-name="ccedilla" unicode="&#xe7;" horiz-adv-x="692" 
d="M141 -190l119 163q-6 -2 -14 -2q-66 0 -110 53t-44 164q0 113 67.5 265t192.5 264q131 119 266 119q73 0 112.5 -35t39.5 -86q0 -37 -22 -61t-42.5 -30t-35.5 -6q-35 0 -41 37q0 4 -2 22t-3 23.5t-4 20t-8 20t-12 13.5t-18 11t-25 3q-36 0 -81.5 -34.5t-90.5 -102.5
q-54 -80 -93.5 -195.5t-43.5 -228.5q-5 -133 88 -133q86 0 221 125q15 1 23.5 -9.5t3.5 -25.5q-46 -60 -110 -107.5t-134 -68.5l-66 -88q-22 -28 11 -54q75 -62 75 -133q0 -64 -65.5 -110.5t-142.5 -46.5q-51 0 -77 18t-26 47q0 17 14 33t37 16q22 0 50 -28q31 -31 43 -31
q22 0 39.5 15t17.5 48q0 36 -30.5 70.5t-78.5 56.5v9z" />
    <glyph glyph-name="egrave" unicode="&#xe8;" horiz-adv-x="708" 
d="M641 836q57 0 93 -39.5t36 -83.5q0 -57 -35.5 -107t-104 -91.5t-155.5 -75.5t-203 -66q-28 -70 -28 -183q0 -52 28 -84t70 -32q51 0 94.5 26t120.5 93q13 0 21.5 -10.5t5.5 -24.5q-152 -187 -328 -187q-58 0 -97 34t-54 80.5t-15 100.5q0 72 28 161.5t100.5 199.5
t176.5 190q128 99 246 99zM600 772q-65 0 -156 -98q-91 -97 -151 -240q98 30 156.5 63t117.5 89q41 39 60.5 79t19.5 60q0 19 -11 33t-36 14zM555 1272l104 -322q0 -11 -13 -17.5t-23 -4.5l-177 258q-28 42 -28 57q0 25 35 47q39 27 63 27q25 0 39 -45z" />
    <glyph glyph-name="eacute" unicode="&#xe9;" horiz-adv-x="708" 
d="M641 836q57 0 93 -39.5t36 -83.5q0 -57 -35.5 -107t-104 -91.5t-155.5 -75.5t-203 -66q-28 -70 -28 -183q0 -52 28 -84t70 -32q51 0 94.5 26t120.5 93q13 0 21.5 -10.5t5.5 -24.5q-152 -187 -328 -187q-58 0 -97 34t-54 80.5t-15 100.5q0 72 28 161.5t100.5 199.5
t176.5 190q128 99 246 99zM600 772q-65 0 -156 -98q-91 -97 -151 -240q98 30 156.5 63t117.5 89q41 39 60.5 79t19.5 60q0 19 -11 33t-36 14zM825 1161l-258 -227q-11 0 -21.5 8.5t-10.5 18.5l192 292q26 44 49 41q28 0 58 -30t26 -54q0 -22 -35 -49z" />
    <glyph glyph-name="ecircumflex" unicode="&#xea;" horiz-adv-x="708" 
d="M641 836q57 0 93 -39.5t36 -83.5q0 -57 -35.5 -107t-104 -91.5t-155.5 -75.5t-203 -66q-28 -70 -28 -183q0 -52 28 -84t70 -32q51 0 94.5 26t120.5 93q13 0 21.5 -10.5t5.5 -24.5q-152 -187 -328 -187q-58 0 -97 34t-54 80.5t-15 100.5q0 72 28 161.5t100.5 199.5
t176.5 190q128 99 246 99zM600 772q-65 0 -156 -98q-91 -97 -151 -240q98 30 156.5 63t117.5 89q41 39 60.5 79t19.5 60q0 19 -11 33t-36 14zM721 1292l78 -331q-5 -11 -17.5 -17.5t-25.5 -3.5l-86 188q-12 27 -19 27q-11 0 -33 -22l-190 -197q-12 -2 -23.5 7t-11.5 22
l250 335q25 31 43 31q11 0 21 -10.5t14 -28.5z" />
    <glyph glyph-name="edieresis" unicode="&#xeb;" horiz-adv-x="708" 
d="M641 836q57 0 93 -39.5t36 -83.5q0 -57 -35.5 -107t-104 -91.5t-155.5 -75.5t-203 -66q-28 -70 -28 -183q0 -52 28 -84t70 -32q51 0 94.5 26t120.5 93q13 0 21.5 -10.5t5.5 -24.5q-152 -187 -328 -187q-58 0 -97 34t-54 80.5t-15 100.5q0 72 28 161.5t100.5 199.5
t176.5 190q128 99 246 99zM600 772q-65 0 -156 -98q-91 -97 -151 -240q98 30 156.5 63t117.5 89q41 39 60.5 79t19.5 60q0 19 -11 33t-36 14zM444 1040q-35 0 -55 21t-20 57q0 48 29 79.5t69 31.5q35 0 55.5 -23.5t20.5 -54.5q0 -51 -29.5 -81t-69.5 -30zM762 1040
q-35 0 -55.5 21.5t-20.5 56.5q0 48 30 79.5t68 31.5q35 0 55.5 -23.5t20.5 -54.5q0 -51 -29.5 -81t-68.5 -30z" />
    <glyph glyph-name="igrave" unicode="&#xec;" horiz-adv-x="569" 
d="M106 45l261 621q17 39 -5 39q-8 0 -26.5 -9t-57 -35t-85.5 -65q-13 1 -21.5 12t-5.5 23q79 90 180 147.5t158 57.5q12 0 33 -21q19 -15 -13 -90l-243 -582q-7 -15 -6 -30t12 -15q27 0 94.5 47t118.5 105q30 -3 30 -35q-12 -23 -53.5 -63t-96 -81t-119.5 -70.5t-114 -29.5
q-16 0 -32 19q-22 25 -9 55zM457 1266l94 -322q0 -11 -13 -17.5t-24 -4.5l-166 258q-29 43 -29 57q0 25 35 47q39 27 64 27t39 -45z" />
    <glyph glyph-name="iacute" unicode="&#xed;" horiz-adv-x="569" 
d="M106 45l261 621q17 39 -5 39q-8 0 -26.5 -9t-57 -35t-85.5 -65q-13 1 -21.5 12t-5.5 23q79 90 180 147.5t158 57.5q12 0 33 -21q19 -15 -13 -90l-243 -582q-7 -15 -6 -30t12 -15q27 0 94.5 47t118.5 105q30 -3 30 -35q-12 -23 -53.5 -63t-96 -81t-119.5 -70.5t-114 -29.5
q-16 0 -32 19q-22 25 -9 55zM735 1159l-258 -227q-11 0 -22 8t-11 18l193 293q26 44 49 41q27 0 57 -30t27 -54q0 -22 -35 -49z" />
    <glyph glyph-name="icircumflex" unicode="&#xee;" horiz-adv-x="569" 
d="M106 45l261 621q17 39 -5 39q-8 0 -26.5 -9t-57 -35t-85.5 -65q-13 1 -21.5 12t-5.5 23q79 90 180 147.5t158 57.5q12 0 33 -21q19 -15 -13 -90l-243 -582q-7 -15 -6 -30t12 -15q27 0 94.5 47t118.5 105q30 -3 30 -35q-12 -23 -53.5 -63t-96 -81t-119.5 -70.5t-114 -29.5
q-16 0 -32 19q-22 25 -9 55zM608 1286l78 -332q-5 -11 -17.5 -17t-25.5 -3l-86 188q-12 27 -18 27q-10 0 -33 -23l-191 -196q-13 -2 -23.5 6.5t-10.5 21.5l249 336q25 31 43 31q11 0 21 -10.5t14 -28.5z" />
    <glyph glyph-name="idieresis" unicode="&#xef;" horiz-adv-x="569" 
d="M106 45l261 621q17 39 -5 39q-8 0 -26.5 -9t-57 -35t-85.5 -65q-13 1 -21.5 12t-5.5 23q79 90 180 147.5t158 57.5q12 0 33 -21q19 -15 -13 -90l-243 -582q-7 -15 -6 -30t12 -15q27 0 94.5 47t118.5 105q30 -3 30 -35q-12 -23 -53.5 -63t-96 -81t-119.5 -70.5t-114 -29.5
q-16 0 -32 19q-22 25 -9 55zM383 1040q-35 0 -55.5 21.5t-20.5 56.5q0 48 29.5 79.5t69.5 31.5q35 0 55 -23.5t20 -54.5q0 -51 -29.5 -81t-68.5 -30zM700 1040q-35 0 -55 21t-20 57q0 48 30 79.5t68 31.5q35 0 55.5 -23.5t20.5 -54.5q0 -51 -29.5 -81t-69.5 -30z" />
    <glyph glyph-name="eth" unicode="&#xf0;" horiz-adv-x="827" 
d="M1010 1262l-252 -127q78 -192 73 -394q-5 -177 -66 -344.5t-173 -283.5q-138 -142 -291 -142q-101 0 -157.5 72t-47.5 201q6 102 66.5 232t156.5 226q137 134 273 134q46 0 94 -23q10 130 -41 268l-256 -129q-17 10 -22.5 30.5t2.5 35.5l254 129q-30 94 -91 175t-143 108
q-6 23 19 34q217 -55 319 -268l260 131q20 -7 26.5 -26.5t-3.5 -38.5zM600 774q-45 0 -82.5 -21t-79.5 -77q-83 -112 -141.5 -266.5t-63.5 -245.5q-3 -56 19 -93.5t65 -37.5q83 0 162 106q65 88 127.5 251.5t67.5 248.5q7 135 -74 135z" />
    <glyph glyph-name="ntilde" unicode="&#xf1;" horiz-adv-x="1026" 
d="M502 752l-140 -359l7 -4q78 119 160 215t175 164t166 68q115 0 115 -111q0 -46 -33 -143q-16 -45 -62 -154t-86.5 -202t-41.5 -97q-16 -39 4 -39q27 0 88 43.5t104 95.5q33 5 33 -28q-57 -97 -161.5 -163.5t-190.5 -66.5q-14 0 -31.5 17t-17.5 35q0 19 49 135
q16 36 77.5 190.5t88.5 212.5q43 99 43 150q0 15 -1.5 24t-9 17t-22.5 8q-37 0 -118 -69.5t-165 -174.5q-48 -59 -100 -142t-82.5 -138t-104.5 -192q-17 -32 -26 -48q-14 -25 -37 -25q-16 0 -30.5 3t-25.5 16.5t-3 34.5l237 645q17 47 -6 47q-67 0 -186 -103
q-12 0 -19.5 9.5t-5.5 21.5q60 82 145.5 136.5t160.5 54.5q37 0 52 -24.5t1 -59.5zM690 1174h103q59 0 84.5 12t58.5 59q7 5 18 3t15 -11q-9 -36 -30 -76t-42 -61q-33 -31 -92 -31h-100q-61 0 -94 -22t-62 -76q-7 -5 -17 -3t-14 11q6 29 27.5 80t42.5 71q39 44 102 44z" />
    <glyph glyph-name="ograve" unicode="&#xf2;" horiz-adv-x="831" 
d="M602 836q106 0 160.5 -71t48.5 -187q-5 -100 -59 -229t-158 -236q-138 -142 -293 -142q-101 0 -157.5 72t-47.5 201q7 104 66 234t157 224q139 134 283 134zM588 774q-78 0 -150 -98q-83 -112 -141.5 -266.5t-63.5 -245.5q-3 -56 19 -93.5t65 -37.5q83 0 162 106
q65 88 126.5 251.5t64.5 248.5q4 135 -82 135zM578 1266l100 -318q0 -11 -13 -17.5t-24 -4.5l-172 254q-29 43 -29 57q0 25 35 47q39 27 64 27t39 -45z" />
    <glyph glyph-name="oacute" unicode="&#xf3;" horiz-adv-x="831" 
d="M602 836q106 0 160.5 -71t48.5 -187q-5 -100 -59 -229t-158 -236q-138 -142 -293 -142q-101 0 -157.5 72t-47.5 201q7 104 66 234t157 224q139 134 283 134zM588 774q-78 0 -150 -98q-83 -112 -141.5 -266.5t-63.5 -245.5q-3 -56 19 -93.5t65 -37.5q83 0 162 106
q65 88 126.5 251.5t64.5 248.5q4 135 -82 135zM850 1153l-258 -227q-11 0 -22 8t-11 18l193 293q26 44 49 41q26 0 57 -31q30 -30 27 -53q0 -22 -35 -49z" />
    <glyph glyph-name="ocircumflex" unicode="&#xf4;" horiz-adv-x="831" 
d="M602 836q106 0 160.5 -71t48.5 -187q-5 -100 -59 -229t-158 -236q-138 -142 -293 -142q-101 0 -157.5 72t-47.5 201q7 104 66 234t157 224q139 134 283 134zM588 774q-78 0 -150 -98q-83 -112 -141.5 -266.5t-63.5 -245.5q-3 -56 19 -93.5t65 -37.5q83 0 162 106
q65 88 126.5 251.5t64.5 248.5q4 135 -82 135zM729 1292l78 -331q-5 -11 -17.5 -17.5t-25.5 -3.5l-80 199q-9 26 -18 26q-11 0 -33 -22l-197 -207q-12 -2 -23.5 7t-11.5 22l250 335q25 31 43 31q11 0 21 -10.5t14 -28.5z" />
    <glyph glyph-name="otilde" unicode="&#xf5;" horiz-adv-x="831" 
d="M602 836q106 0 160.5 -71t48.5 -187q-5 -100 -59 -229t-158 -236q-138 -142 -293 -142q-101 0 -157.5 72t-47.5 201q7 104 66 234t157 224q139 134 283 134zM588 774q-78 0 -150 -98q-83 -112 -141.5 -266.5t-63.5 -245.5q-3 -56 19 -93.5t65 -37.5q83 0 162 106
q65 88 126.5 251.5t64.5 248.5q4 135 -82 135zM616 1174h103q59 0 84.5 12t58.5 59q7 5 18 3t15 -11q-9 -36 -30 -76t-42 -61q-33 -31 -92 -31h-100q-61 0 -94 -22t-62 -76q-7 -5 -17 -3t-14 11q6 29 27.5 80t42.5 71q39 44 102 44z" />
    <glyph glyph-name="odieresis" unicode="&#xf6;" horiz-adv-x="831" 
d="M602 836q106 0 160.5 -71t48.5 -187q-5 -100 -59 -229t-158 -236q-138 -142 -293 -142q-101 0 -157.5 72t-47.5 201q7 104 66 234t157 224q139 134 283 134zM588 774q-78 0 -150 -98q-83 -112 -141.5 -266.5t-63.5 -245.5q-3 -56 19 -93.5t65 -37.5q83 0 162 106
q65 88 126.5 251.5t64.5 248.5q4 135 -82 135zM502 1042q-35 0 -55.5 21.5t-20.5 56.5q0 48 29 79.5t69 31.5q35 0 55.5 -23.5t20.5 -54.5q0 -51 -29.5 -81t-68.5 -30zM819 1042q-35 0 -55.5 21.5t-20.5 56.5q0 48 30 79.5t69 31.5q35 0 55.5 -23.5t20.5 -54.5
q0 -51 -29.5 -81t-69.5 -30z" />
    <glyph glyph-name="divide" unicode="&#xf7;" horiz-adv-x="1146" 
d="M631 262q36 0 63 -27t27 -63q0 -38 -27 -65t-63 -27q-38 0 -65 27t-27 65q0 37 27 63.5t65 26.5zM631 580q-38 0 -65 27t-27 65q0 37 27 63.5t65 26.5q36 0 63 -27t27 -63q0 -38 -27 -65t-63 -27zM1030 471v-100h-788v100h788z" />
    <glyph glyph-name="oslash" unicode="&#xf8;" horiz-adv-x="831" 
d="M231 111l412 645q-15 18 -55 18q-81 0 -160 -100q-88 -110 -148.5 -265.5t-60.5 -244.5q0 -29 8 -49zM672 692l-412 -637q25 -22 59 -22q93 0 175 106q68 89 130 253t62 247q0 23 -6 53h-8zM803 891l-66 -103q81 -64 74 -210q-3 -63 -23.5 -136t-70.5 -164.5t-121 -164.5
q-138 -142 -293 -142q-42 0 -88 17l-61 -97q-15 -6 -32 4t-20 27l64 98q-82 72 -70 224q6 103 66 232.5t157 225.5q139 134 285 134q48 0 82 -15l64 97q16 3 32.5 -5t20.5 -22z" />
    <glyph glyph-name="ugrave" unicode="&#xf9;" horiz-adv-x="1015" 
d="M535 774l-230 -598q-26 -70 14 -70q47 0 220 170q53 52 100.5 112.5t88.5 126.5t66.5 111t60.5 112.5t44 84.5q32 6 63 -6t37 -31q-5 -14 -48.5 -126t-98 -256t-92.5 -252q-19 -52 8 -52t92 53.5t109 106.5q15 3 25.5 -4t11.5 -25q-43 -79 -162 -169.5t-197 -90.5
q-25 0 -42.5 24t-8.5 48l139 375l-4 2q-80 -101 -173 -199.5t-190 -174t-149 -75.5q-60 0 -74 53.5t15 120.5l188 498q21 59 0 59q-27 0 -88.5 -47.5t-105.5 -93.5q-15 -3 -26 7t-9 24q44 68 165.5 156t188.5 88q24 0 47 -19t15 -43zM662 1266l104 -320q0 -11 -13 -17.5
t-24 -4.5l-176 256q-29 43 -29 57q0 25 35 47q39 27 64 27t39 -45z" />
    <glyph glyph-name="uacute" unicode="&#xfa;" horiz-adv-x="1015" 
d="M535 774l-230 -598q-26 -70 14 -70q47 0 220 170q53 52 100.5 112.5t88.5 126.5t66.5 111t60.5 112.5t44 84.5q32 6 63 -6t37 -31q-5 -14 -48.5 -126t-98 -256t-92.5 -252q-19 -52 8 -52t92 53.5t109 106.5q15 3 25.5 -4t11.5 -25q-43 -79 -162 -169.5t-197 -90.5
q-25 0 -42.5 24t-8.5 48l139 375l-4 2q-80 -101 -173 -199.5t-190 -174t-149 -75.5q-60 0 -74 53.5t15 120.5l188 498q21 59 0 59q-27 0 -88.5 -47.5t-105.5 -93.5q-15 -3 -26 7t-9 24q44 68 165.5 156t188.5 88q24 0 47 -19t15 -43zM950 1153l-258 -227q-11 0 -22 8t-11 18
l193 293q26 44 49 41q26 0 57 -31q30 -30 27 -53q0 -22 -35 -49z" />
    <glyph glyph-name="ucircumflex" unicode="&#xfb;" horiz-adv-x="1015" 
d="M535 774l-230 -598q-26 -70 14 -70q47 0 220 170q53 52 100.5 112.5t88.5 126.5t66.5 111t60.5 112.5t44 84.5q32 6 63 -6t37 -31q-5 -14 -48.5 -126t-98 -256t-92.5 -252q-19 -52 8 -52t92 53.5t109 106.5q15 3 25.5 -4t11.5 -25q-43 -79 -162 -169.5t-197 -90.5
q-25 0 -42.5 24t-8.5 48l139 375l-4 2q-80 -101 -173 -199.5t-190 -174t-149 -75.5q-60 0 -74 53.5t15 120.5l188 498q21 59 0 59q-27 0 -88.5 -47.5t-105.5 -93.5q-15 -3 -26 7t-9 24q44 68 165.5 156t188.5 88q24 0 47 -19t15 -43zM844 1298l78 -331q-5 -11 -17.5 -17.5
t-25.5 -3.5l-86 189q-11 26 -19 26q-11 0 -33 -22l-190 -197q-12 -2 -23.5 7t-11.5 22l250 336q24 30 43 30q11 0 21 -10.5t14 -28.5z" />
    <glyph glyph-name="udieresis" unicode="&#xfc;" horiz-adv-x="1015" 
d="M535 774l-230 -598q-26 -70 14 -70q47 0 220 170q53 52 100.5 112.5t88.5 126.5t66.5 111t60.5 112.5t44 84.5q32 6 63 -6t37 -31q-5 -14 -48.5 -126t-98 -256t-92.5 -252q-19 -52 8 -52t92 53.5t109 106.5q15 3 25.5 -4t11.5 -25q-43 -79 -162 -169.5t-197 -90.5
q-25 0 -42.5 24t-8.5 48l139 375l-4 2q-80 -101 -173 -199.5t-190 -174t-149 -75.5q-60 0 -74 53.5t15 120.5l188 498q21 59 0 59q-27 0 -88.5 -47.5t-105.5 -93.5q-15 -3 -26 7t-9 24q44 68 165.5 156t188.5 88q24 0 47 -19t15 -43zM575 1040q-35 0 -55 21t-20 57
q0 48 29 79.5t69 31.5q35 0 55.5 -23.5t20.5 -54.5q0 -51 -29.5 -81t-69.5 -30zM893 1040q-35 0 -55.5 21.5t-20.5 56.5q0 48 30 79.5t68 31.5q35 0 55.5 -23.5t20.5 -54.5q0 -51 -29.5 -81t-68.5 -30z" />
    <glyph glyph-name="yacute" unicode="&#xfd;" horiz-adv-x="749" 
d="M322 836q114 0 124 -349q4 -252 -30 -450h8q96 142 172 352q29 80 51.5 204t24.5 175q4 63 49 63q28 0 57 -18q19 -13 19 -41q2 -60 -58 -241.5t-180 -383.5q-6 -10 -32 -54.5t-33 -56t-30 -50t-33.5 -54t-33 -50t-39 -55.5t-39.5 -52t-47 -60t-51 -59
q-181 -207 -319 -207q-48 0 -77.5 27t-29.5 67q0 38 24 63t58 25q33 0 55 -32q22 -37 58 -37q44 0 112 57q44 37 99 125.5t82 181.5q21 76 32 204t9 263q-1 82 -8 143t-18 96t-24 51.5t-28 16.5q-19 0 -40.5 -23.5t-36.5 -50t-42 -81.5q-31 -8 -39 26q35 110 99 187.5
t135 77.5zM788 1153l-258 -227q-11 0 -21.5 8t-10.5 18l192 293q26 44 49 41q27 0 58 -31q29 -29 26 -53q0 -22 -35 -49z" />
    <glyph glyph-name="thorn" unicode="&#xfe;" horiz-adv-x="917" 
d="M-8 -346l381 1069q-85 -23 -207 -84q-12 2 -18.5 14t-2.5 25q99 70 254 115l101 280q19 52 27 85.5t6.5 52t-8 26.5t-19.5 14l-37 17q-7 6 -7 17t7 15q42 16 119 36.5t139 25.5l10 -12l-131 -353l-71 -194q5 0 30 2t47 2q32 0 65.5 -5.5t73 -21t69.5 -40.5t50.5 -68
t20.5 -99q0 -258 -270 -485q-58 -49 -132.5 -78t-109 -34t-51.5 -5t-64 13q-24 -6 -33 -37l-84 -242q-29 -83 -35 -118t5 -49t47 -19l84 -13q8 -10 6.5 -24.5t-14.5 -20.5q-36 0 -447 -12q-11 9 -11 22.5t11 22.5l45 8q17 3 31.5 7.5t25.5 8t21 11t16.5 11t14 15t11 15.5
t9.5 18.5t8 19t8.5 23t8.5 23.5zM518 741l-213 -598q-12 -34 2 -55q10 -17 31.5 -32t44.5 -15q13 0 35.5 7.5t55 23.5t70 51.5t68.5 83.5q121 188 121 385q0 73 -46 113t-116 40q-25 0 -53 -4z" />
    <glyph glyph-name="ydieresis" unicode="&#xff;" horiz-adv-x="749" 
d="M322 836q114 0 124 -349q4 -252 -30 -450h8q96 142 172 352q29 80 51.5 204t24.5 175q4 63 49 63q28 0 57 -18q19 -13 19 -41q2 -60 -58 -241.5t-180 -383.5q-6 -10 -32 -54.5t-33 -56t-30 -50t-33.5 -54t-33 -50t-39 -55.5t-39.5 -52t-47 -60t-51 -59
q-181 -207 -319 -207q-48 0 -77.5 27t-29.5 67q0 38 24 63t58 25q33 0 55 -32q22 -37 58 -37q44 0 112 57q44 37 99 125.5t82 181.5q21 76 32 204t9 263q-1 82 -8 143t-18 96t-24 51.5t-28 16.5q-19 0 -40.5 -23.5t-36.5 -50t-42 -81.5q-31 -8 -39 26q35 110 99 187.5
t135 77.5zM399 1040q-35 0 -55 21t-20 57q0 48 29 79.5t69 31.5q35 0 55.5 -23.5t20.5 -54.5q0 -51 -29.5 -81t-69.5 -30zM717 1040q-35 0 -55.5 21.5t-20.5 56.5q0 48 30 79.5t68 31.5q35 0 55.5 -23.5t20.5 -54.5q0 -51 -29.5 -81t-68.5 -30z" />
    <glyph glyph-name="Amacron" unicode="&#x100;" horiz-adv-x="1220" 
d="M1130 51l54 -6q9 -9 6 -27t-14 -24q-94 6 -232 6q-144 0 -235 -6q-15 6 -15.5 25.5t13.5 25.5l63 6q31 3 52 12.5t28 20.5q15 25 22 127l19 274q3 36 -4 45t-39 9h-295q-46 0 -62 -9.5t-45 -54.5l-159 -233q-92 -144 -92 -154q0 -24 47 -31l88 -12q11 -9 9 -27t-13 -24
q-95 6 -209 6q-117 0 -228 -6q-7 9 -5.5 25.5t10.5 25.5l55 6q82 8 147 86q72 91 338 461l361 508q110 154 123 211q31 4 67 21t59 32l23 14q8 0 16.5 -5t8.5 -11q0 -14 -3 -50t-8.5 -106t-9.5 -145l-41 -774q-4 -68 -5.5 -97t2 -63t7 -43t19 -20.5t30 -13t47.5 -5.5z
M600 621h258q26 0 33 6.5t8 34.5l33 448q4 53 -4 53q-11 0 -78 -100l-285 -412q-12 -19 -5.5 -24.5t40.5 -5.5zM1245 1479h-391q-14 19 -14 50t14 50h391q15 -19 15 -50t-15 -50z" />
    <glyph glyph-name="amacron" unicode="&#x101;" horiz-adv-x="909" 
d="M766 752l57 131q27 11 59.5 0.5t41.5 -31.5q-35 -86 -133.5 -339.5t-141.5 -375.5q-16 -47 15 -47q53 0 210 137q11 0 20 -7.5t9 -18.5q-70 -93 -167 -161.5t-177 -68.5q-31 0 -45 19t-14 37q0 20 20 79l68 185l-6 2q-106 -132 -241.5 -227t-209.5 -95q-41 0 -65.5 34.5
t-24.5 80.5q0 48 45 160.5t135 236.5q139 191 271 265q105 59 184 59q25 0 49 -12q8 -4 21 -17t20 -26zM612 729q-35 0 -65 -17.5t-80 -62.5q-97 -87 -176.5 -253.5t-79.5 -276.5q0 -18 8.5 -28.5t22.5 -10.5q19 0 69.5 31t128.5 102q108 100 177.5 219t97.5 223
q-11 32 -38 53t-65 21zM924 1038h-379q-15 19 -15 52.5t15 52.5h379q14 -19 14 -52.5t-14 -52.5z" />
    <glyph glyph-name="Abreve" unicode="&#x102;" horiz-adv-x="1220" 
d="M1130 51l54 -6q9 -9 6 -27t-14 -24q-94 6 -232 6q-144 0 -235 -6q-15 6 -15.5 25.5t13.5 25.5l63 6q31 3 52 12.5t28 20.5q15 25 22 127l19 274q3 36 -4 45t-39 9h-295q-46 0 -62 -9.5t-45 -54.5l-159 -233q-92 -144 -92 -154q0 -24 47 -31l88 -12q11 -9 9 -27t-13 -24
q-95 6 -209 6q-117 0 -228 -6q-7 9 -5.5 25.5t10.5 25.5l55 6q82 8 147 86q72 91 338 461l361 508q110 154 123 211q31 4 67 21t59 32l23 14q8 0 16.5 -5t8.5 -11q0 -14 -3 -50t-8.5 -106t-9.5 -145l-41 -774q-4 -68 -5.5 -97t2 -63t7 -43t19 -20.5t30 -13t47.5 -5.5z
M600 621h258q26 0 33 6.5t8 34.5l33 448q4 53 -4 53q-11 0 -78 -100l-285 -412q-12 -19 -5.5 -24.5t40.5 -5.5zM1024 1464q-103 0 -143.5 58.5t-10.5 175.5q8 6 22 6t19 -6q0 -133 136 -133q134 0 196 133q7 6 22 6t19 -6q-49 -234 -260 -234z" />
    <glyph glyph-name="abreve" unicode="&#x103;" horiz-adv-x="909" 
d="M766 752l57 131q27 11 59.5 0.5t41.5 -31.5q-35 -86 -133.5 -339.5t-141.5 -375.5q-16 -47 15 -47q53 0 210 137q11 0 20 -7.5t9 -18.5q-70 -93 -167 -161.5t-177 -68.5q-31 0 -45 19t-14 37q0 20 20 79l68 185l-6 2q-106 -132 -241.5 -227t-209.5 -95q-41 0 -65.5 34.5
t-24.5 80.5q0 48 45 160.5t135 236.5q139 191 271 265q105 59 184 59q25 0 49 -12q8 -4 21 -17t20 -26zM612 729q-35 0 -65 -17.5t-80 -62.5q-97 -87 -176.5 -253.5t-79.5 -276.5q0 -18 8.5 -28.5t22.5 -10.5q19 0 69.5 31t128.5 102q108 100 177.5 219t97.5 223
q-11 32 -38 53t-65 21zM684 993q-103 0 -146.5 59t-19.5 175q8 6 22 6t19 -6q6 -133 143 -133q133 0 189 133q7 6 21.5 6t19.5 -6q-37 -234 -248 -234z" />
    <glyph glyph-name="Aogonek" unicode="&#x104;" horiz-adv-x="1220" 
d="M600 621h258q26 0 33 6.5t8 34.5l33 448q4 53 -4 53q-11 0 -78 -100l-285 -412q-12 -19 -5.5 -24.5t40.5 -5.5zM848 539h-295q-46 0 -62 -9.5t-45 -54.5l-161 -233q-92 -144 -92 -154q0 -24 47 -31l90 -12q11 -9 9 -27t-13 -24q-95 6 -209 6q-117 0 -228 -6
q-7 9 -5.5 25.5t10.5 25.5l55 6q82 8 147 86q72 91 338 461l361 508q110 154 123 211q31 4 67 21t59 32l23 14q8 0 16.5 -5t8.5 -11q0 -14 -3 -50t-8.5 -106t-9.5 -145l-41 -774q-4 -68 -5.5 -97t2 -63t7 -43t19 -20.5t30 -13t47.5 -5.5l54 -6q9 -9 6 -27t-14 -24
q-94 6 -154 6q-65 -46 -119.5 -110t-54.5 -123q0 -42 27 -68.5t67 -26.5q66 0 113 23q18 -5 14 -41q-42 -45 -101 -66.5t-110 -21.5q-79 0 -121.5 41.5t-42.5 103.5q0 139 246 287q-181 0 -231 -4q-15 6 -15.5 25.5t13.5 25.5l63 6q31 3 52 12.5t28 20.5q15 25 22 127
l19 274q3 36 -4 45t-39 9z" />
    <glyph glyph-name="aogonek" unicode="&#x105;" horiz-adv-x="909" 
d="M612 729q-35 0 -65 -17.5t-80 -62.5q-97 -87 -176.5 -253.5t-79.5 -276.5q0 -18 8.5 -28.5t22.5 -10.5q19 0 69.5 31t128.5 102q108 100 177.5 219t97.5 223q-11 32 -38 53t-65 21zM676 807q25 0 49 -12q8 -4 21 -17t20 -26l57 131q27 11 59.5 0.5t41.5 -31.5
q-35 -86 -133.5 -339.5t-141.5 -375.5q-16 -47 15 -47q53 0 210 137q11 0 20 -7.5t9 -18.5q-64 -85 -164 -166q-90 -71 -151.5 -150t-61.5 -141q0 -35 22 -55.5t62 -20.5q62 0 105 29q17 -5 14 -31q-40 -46 -96.5 -70t-106.5 -24q-61 0 -97 37t-36 84q0 70 52.5 137
t183.5 166q-32 -16 -47 -21q-10 -4 -23 -4q-31 0 -45 19t-14 37q0 20 20 79l68 185l-6 2q-106 -132 -241.5 -227t-209.5 -95q-41 0 -65.5 34.5t-24.5 80.5q0 48 45 160.5t135 236.5q139 191 271 265q105 59 184 59z" />
    <glyph glyph-name="Cacute" unicode="&#x106;" horiz-adv-x="1323" 
d="M1190 1384q170 0 336 -65q-63 -153 -92 -275q-6 -12 -28.5 -10.5t-27.5 13.5q30 139 -20 206.5t-203 67.5q-290 0 -524 -229q-91 -91 -166.5 -259.5t-75.5 -353.5q0 -219 101 -333.5t296 -114.5q102 0 187.5 39.5t143 99t110.5 147.5q15 6 30 2.5t19 -16.5
q-41 -124 -133 -289q-28 0 -162 -22q-147 -25 -199 -25q-85 0 -162.5 15.5t-154 55t-132 100t-90 158.5t-34.5 222q0 172 80.5 335t212.5 282q130 118 309.5 183.5t378.5 65.5zM1303 1571l-295 -125q-10 3 -16.5 16.5t-2.5 24.5l250 201q27 24 47 24q10 0 23.5 -10t23.5 -29
q25 -48 13 -71q-10 -17 -43 -31z" />
    <glyph glyph-name="cacute" unicode="&#x107;" horiz-adv-x="692" 
d="M618 836q73 0 112.5 -35t39.5 -86q0 -37 -22 -61t-42.5 -30t-35.5 -6q-35 0 -41 37q0 4 -2 22t-3 23.5t-4 20t-8 20t-12 13.5t-18 11t-25 3q-36 0 -81.5 -34.5t-90.5 -102.5q-54 -80 -93.5 -195.5t-43.5 -228.5q-5 -133 88 -133q86 0 221 125q15 1 23.5 -9.5t3.5 -25.5
q-64 -83 -155 -138t-183 -55q-66 0 -110 53t-44 164q0 113 67.5 265t192.5 264q131 119 266 119zM854 1165l-258 -227q-11 0 -22 8.5t-11 18.5l193 292q26 44 49 41q27 0 57 -30t27 -54q0 -22 -35 -49z" />
    <glyph glyph-name="Ccaron" unicode="&#x10c;" horiz-adv-x="1323" 
d="M1190 1384q170 0 336 -65q-63 -153 -92 -275q-6 -12 -28.5 -10.5t-27.5 13.5q30 139 -20 206.5t-203 67.5q-290 0 -524 -229q-91 -91 -166.5 -259.5t-75.5 -353.5q0 -219 101 -333.5t296 -114.5q102 0 187.5 39.5t143 99t110.5 147.5q15 6 30 2.5t19 -16.5
q-41 -124 -133 -289q-28 0 -162 -22q-147 -25 -199 -25q-85 0 -162.5 15.5t-154 55t-132 100t-90 158.5t-34.5 222q0 172 80.5 335t212.5 282q130 118 309.5 183.5t378.5 65.5zM1452 1686l-283 -222q-29 -18 -47 -18q-20 0 -35 18l-180 222q-1 11 10 22t23 14l174 -129
q19 -14 35 -14q13 0 33 10l252 133q10 0 15 -12t3 -24z" />
    <glyph glyph-name="ccaron" unicode="&#x10d;" horiz-adv-x="692" 
d="M618 836q73 0 112.5 -35t39.5 -86q0 -37 -22 -61t-42.5 -30t-35.5 -6q-35 0 -41 37q0 4 -2 22t-3 23.5t-4 20t-8 20t-12 13.5t-18 11t-25 3q-36 0 -81.5 -34.5t-90.5 -102.5q-54 -80 -93.5 -195.5t-43.5 -228.5q-5 -133 88 -133q86 0 221 125q15 1 23.5 -9.5t3.5 -25.5
q-64 -83 -155 -138t-183 -55q-66 0 -110 53t-44 164q0 113 67.5 265t192.5 264q131 119 266 119zM553 967l-72 331q3 11 15.5 17.5t25.5 3.5l88 -178q15 -31 21 -31q11 0 33 25l186 188q11 3 23 -6.5t12 -22.5l-256 -336q-24 -30 -47 -30q-20 0 -29 39z" />
    <glyph glyph-name="Dcaron" unicode="&#x10e;" horiz-adv-x="1513" 
d="M272 295l256 829q27 96 20 122t-54 32l-82 10q-9 6 -9.5 23.5t9.5 25.5q163 21 381 21q123 0 226.5 -17.5t178 -47.5t133 -73t95.5 -91.5t61 -105.5t33.5 -111t9.5 -113q0 -195 -87 -357t-237 -264q-269 -184 -684 -184q-23 0 -105.5 3t-150.5 3q-117 0 -225 -6
q-12 7 -12.5 24.5t10.5 26.5l53 6q50 5 76 23t48.5 65.5t55.5 155.5zM711 1214l-305 -981q-28 -92 12.5 -129.5t173.5 -37.5q122 0 228 28.5t181.5 75t136.5 109.5t99.5 129.5t64 137t36 129t10.5 109.5q0 38 -1.5 69t-8 73.5t-17.5 76.5t-31 73.5t-47.5 69.5t-69 59
t-92.5 47.5t-121 30t-153 11.5q-46 0 -63.5 -15t-32.5 -65zM1313 1686l-283 -222q-29 -18 -47 -18q-20 0 -35 18l-180 222q-1 11 10 22t23 14l174 -129q19 -14 35 -14q12 0 32 10l252 133q10 0 15.5 -12t3.5 -24z" />
    <glyph glyph-name="dcaron" unicode="&#x10f;" horiz-adv-x="970" 
d="M801 772l147 422q32 89 36 120.5t-17 49.5l-47 33q-7 15 6 28q38 14 110 27t131 12l9 -12q-17 -52 -34 -100t-45.5 -126t-49.5 -136q-203 -558 -318 -949q-14 -47 12 -47q25 0 102 63t124 122q27 0 30 -27q-44 -89 -158 -185t-190 -96q-31 0 -48 19.5t-17 46.5
q0 40 26 117l72 202l-8 2q-38 -50 -62 -81t-62.5 -77t-67 -74t-68 -61t-74.5 -51t-76.5 -30.5t-83.5 -12.5q-58 0 -90.5 42t-32.5 106q0 114 78 271.5t195 262.5q101 91 195.5 137t170.5 46q27 0 58 -17t47 -47zM692 774q-60 0 -155 -88q-64 -60 -156 -183t-137 -216
q-64 -133 -64 -195q0 -18 12.5 -30.5t26.5 -12.5q33 0 108.5 43t168.5 139q111 113 166.5 207.5t82.5 188.5q18 65 2 106t-55 41zM1393 1464q45 0 16 -106q-30 -101 -101.5 -199t-140.5 -141q-20 -6 -30 6.5t2 26.5q101 117 123 196q6 25 -9 76q-10 30 -6 47q7 24 55.5 59
t90.5 35z" />
    <glyph glyph-name="Dcroat" unicode="&#x110;" horiz-adv-x="1525" 
d="M184 739h226l118 385q27 96 20 122t-54 32l-82 10q-9 6 -9.5 23.5t9.5 25.5q163 21 381 21q123 0 226.5 -17.5t178 -47.5t133 -73t95.5 -91.5t61 -105.5t33.5 -111t9.5 -113q0 -195 -87 -357t-237 -264q-269 -184 -684 -184q-23 0 -105.5 3t-150.5 3q-117 0 -225 -6
q-12 7 -12.5 24.5t10.5 26.5l53 6q50 5 76 23t48.5 65.5t55.5 155.5l115 373h-219q-5 18 -1 39.5t17 31.5zM844 668h-303l-135 -435q-28 -92 12.5 -129.5t173.5 -37.5q122 0 228 28.5t181.5 75t136.5 109.5t99.5 129.5t64 137t36 129t10.5 109.5q0 38 -1.5 69t-8 73.5
t-17.5 76.5t-31 73.5t-47.5 69.5t-69 59t-92.5 47.5t-121 30t-153 11.5q-46 0 -63.5 -15t-32.5 -65l-148 -475h299q8 -18 3.5 -39.5t-21.5 -31.5z" />
    <glyph glyph-name="dcroat" unicode="&#x111;" horiz-adv-x="970" 
d="M692 774q-60 0 -155 -88q-64 -60 -156 -183t-137 -216q-64 -133 -64 -195q0 -18 12.5 -30.5t26.5 -12.5q33 0 108.5 43t168.5 139q111 113 166.5 207.5t82.5 188.5q18 65 2 106t-55 41zM1229 1161l-41 -76h-141q-203 -553 -318 -944q-14 -47 12 -47q25 0 102 63t124 122
q27 0 30 -27q-44 -89 -158 -185t-190 -96q-31 0 -48 19.5t-17 46.5q0 40 26 117l72 202l-8 2q-38 -50 -62 -81t-62.5 -77t-67 -74t-68 -61t-74.5 -51t-76.5 -30.5t-83.5 -12.5q-58 0 -90.5 42t-32.5 106q0 114 78 271.5t195 262.5q101 91 195.5 137t170.5 46q27 0 58 -17
t47 -47l110 313h-256l41 76h242l8 23q34 95 38 129.5t-17 50.5l-47 33q-7 15 6 28q38 14 110 27t131 12l9 -12q-21 -65 -105 -291h158z" />
    <glyph glyph-name="Emacron" unicode="&#x112;" horiz-adv-x="1159" 
d="M1143 1479h-391q-14 19 -14 50t14 50h391q15 -19 15 -50t-15 -50zM270 295l238 762q13 43 19.5 65.5t13.5 50t8 40t-0.5 28.5t-7.5 22t-17 14t-25 12t-36 9l-41 9q-10 12 -7 28.5t19 22.5q183 -6 228 -6h387q227 0 288 6q-31 -79 -84 -273q-6 -12 -26 -11t-25 13
q6 53 6.5 89t-17.5 59t-61 35q-70 18 -217 18h-120q-40 0 -53 -11.5t-27 -57.5l-131 -420q-15 -43 -10.5 -51.5t46.5 -8.5h103q147 0 197.5 17.5t85.5 83.5l32 61q6 11 27 9.5t24 -13.5q-36 -90 -69 -199q-29 -92 -53 -198q-9 -12 -27.5 -11t-24.5 13v57q0 27 -4 45
t-16.5 30.5t-25 19t-41.5 10t-53 4t-71 0.5h-102q-43 0 -55 -8.5t-25 -51.5l-84 -276q-16 -52 -23.5 -79.5t-14 -59.5t-5.5 -52t8 -35q11 -23 57.5 -33t170.5 -10q77 0 120.5 3t91.5 14t81 34.5t68.5 62t74.5 99.5q12 8 26.5 4.5t20.5 -16.5q-16 -54 -60.5 -143.5
t-80.5 -126.5q-145 6 -469 6h-242q-109 0 -244 -6q-12 7 -12.5 24.5t10.5 26.5l72 6q52 4 78.5 22.5t48.5 64.5t57 157z" />
    <glyph glyph-name="emacron" unicode="&#x113;" horiz-adv-x="708" 
d="M641 836q57 0 93 -39.5t36 -83.5q0 -57 -35.5 -107t-104 -91.5t-155.5 -75.5t-203 -66q-28 -70 -28 -183q0 -52 28 -84t70 -32q51 0 94.5 26t120.5 93q13 0 21.5 -10.5t5.5 -24.5q-152 -187 -328 -187q-58 0 -97 34t-54 80.5t-15 100.5q0 72 28 161.5t100.5 199.5
t176.5 190q128 99 246 99zM600 772q-65 0 -156 -98q-91 -97 -151 -240q98 30 156.5 63t117.5 89q41 39 60.5 79t19.5 60q0 19 -11 33t-36 14zM823 1028h-379q-15 19 -15 52.5t15 52.5h379q13 -19 13 -52.5t-13 -52.5z" />
    <glyph glyph-name="Edotaccent" unicode="&#x116;" horiz-adv-x="1159" 
d="M944 1446q-35 0 -55.5 21.5t-20.5 56.5q0 46 30.5 77t68.5 31q35 0 54 -23t19 -55q0 -50 -28.5 -79t-67.5 -29zM270 295l238 762q13 43 19.5 65.5t13.5 50t8 40t-0.5 28.5t-7.5 22t-17 14t-25 12t-36 9l-41 9q-10 12 -7 28.5t19 22.5q183 -6 228 -6h387q227 0 288 6
q-31 -79 -84 -273q-6 -12 -26 -11t-25 13q6 53 6.5 89t-17.5 59t-61 35q-70 18 -217 18h-120q-40 0 -53 -11.5t-27 -57.5l-131 -420q-15 -43 -10.5 -51.5t46.5 -8.5h103q147 0 197.5 17.5t85.5 83.5l32 61q6 11 27 9.5t24 -13.5q-36 -90 -69 -199q-29 -92 -53 -198
q-9 -12 -27.5 -11t-24.5 13v57q0 27 -4 45t-16.5 30.5t-25 19t-41.5 10t-53 4t-71 0.5h-102q-43 0 -55 -8.5t-25 -51.5l-84 -276q-16 -52 -23.5 -79.5t-14 -59.5t-5.5 -52t8 -35q11 -23 57.5 -33t170.5 -10q77 0 120.5 3t91.5 14t81 34.5t68.5 62t74.5 99.5q12 8 26.5 4.5
t20.5 -16.5q-16 -54 -60.5 -143.5t-80.5 -126.5q-145 6 -469 6h-242q-109 0 -244 -6q-12 7 -12.5 24.5t10.5 26.5l72 6q52 4 78.5 22.5t48.5 64.5t57 157z" />
    <glyph glyph-name="edotaccent" unicode="&#x117;" horiz-adv-x="708" 
d="M641 836q57 0 93 -39.5t36 -83.5q0 -57 -35.5 -107t-104 -91.5t-155.5 -75.5t-203 -66q-28 -70 -28 -183q0 -52 28 -84t70 -32q51 0 94.5 26t120.5 93q13 0 21.5 -10.5t5.5 -24.5q-152 -187 -328 -187q-58 0 -97 34t-54 80.5t-15 100.5q0 72 28 161.5t100.5 199.5
t176.5 190q128 99 246 99zM600 772q-65 0 -156 -98q-91 -97 -151 -240q98 30 156.5 63t117.5 89q41 39 60.5 79t19.5 60q0 19 -11 33t-36 14zM608 1028q-37 0 -58.5 22.5t-21.5 59.5q0 49 32 82t73 33q36 0 57 -24.5t21 -57.5q0 -53 -31 -84t-72 -31z" />
    <glyph glyph-name="Eogonek" unicode="&#x118;" horiz-adv-x="1159" 
d="M502 0h-242q-109 0 -244 -6q-12 7 -12.5 24.5t10.5 26.5l72 6q52 4 78.5 22.5t48.5 64.5t57 157l238 762q13 43 19.5 65.5t13.5 50t8 40t-0.5 28.5t-7.5 22t-17 14t-25 12t-36 9l-41 9q-10 12 -7 28.5t19 22.5q183 -6 228 -6h387q227 0 288 6q-31 -79 -84 -273
q-6 -12 -26 -11t-25 13q6 53 6.5 89t-17.5 59t-61 35q-70 18 -217 18h-120q-40 0 -53 -11.5t-27 -57.5l-131 -420q-15 -43 -10.5 -51.5t46.5 -8.5h103q147 0 197.5 17.5t85.5 83.5l32 61q6 11 27 9.5t24 -13.5q-36 -90 -69 -199q-29 -92 -53 -198q-9 -12 -27.5 -11t-24.5 13
v57q0 27 -4 45t-16.5 30.5t-25 19t-41.5 10t-53 4t-71 0.5h-102q-43 0 -55 -8.5t-25 -51.5l-84 -276q-16 -52 -23.5 -79.5t-14 -59.5t-5.5 -52t8 -35q11 -23 57.5 -33t170.5 -10q77 0 120.5 3t91.5 14t81 34.5t68.5 62t74.5 99.5q12 8 26.5 4.5t20.5 -16.5
q-16 -54 -60.5 -143.5t-80.5 -126.5h-35q-68 -47 -120 -108.5t-52 -121.5q0 -38 23.5 -65t68.5 -27q82 0 117 23q17 -5 12 -41q-39 -45 -98 -66.5t-113 -21.5q-82 0 -123 42t-41 99q0 49 24 94.5t68.5 84t76.5 61t79 49.5q-180 4 -356 4z" />
    <glyph glyph-name="eogonek" unicode="&#x119;" horiz-adv-x="708" 
d="M600 772q-65 0 -156 -98q-91 -97 -151 -240q98 30 156.5 63t117.5 89q41 39 60.5 79t19.5 60q0 19 -11 33t-36 14zM90 186q0 72 28 161.5t100.5 199.5t176.5 190q128 99 246 99q57 0 93 -39.5t36 -83.5q0 -57 -35.5 -107t-104 -91.5t-155.5 -75.5t-203 -66
q-28 -70 -28 -183q0 -52 28 -84t70 -32q51 0 94.5 26t120.5 93q13 0 21.5 -10.5t5.5 -24.5q-49 -62 -121 -123q-225 -182 -225 -291q0 -35 22 -55.5t62 -20.5q60 0 104 29q17 -5 14 -31q-40 -47 -94 -70.5t-104 -23.5q-65 0 -100.5 36.5t-35.5 90.5q0 37 17 73.5t53.5 74.5
t69 66t86.5 69q-42 -11 -76 -11q-58 0 -97 34t-54 80.5t-15 100.5z" />
    <glyph glyph-name="Ecaron" unicode="&#x11a;" horiz-adv-x="1159" 
d="M1257 1686l-282 -222q-29 -18 -47 -18q-20 0 -35 18l-180 222q-1 11 9.5 22t22.5 14l175 -129q19 -14 34 -14q13 0 33 10l252 133q10 0 15 -12t3 -24zM270 295l238 762q13 43 19.5 65.5t13.5 50t8 40t-0.5 28.5t-7.5 22t-17 14t-25 12t-36 9l-41 9q-10 12 -7 28.5
t19 22.5q183 -6 228 -6h387q227 0 288 6q-31 -79 -84 -273q-6 -12 -26 -11t-25 13q6 53 6.5 89t-17.5 59t-61 35q-70 18 -217 18h-120q-40 0 -53 -11.5t-27 -57.5l-131 -420q-15 -43 -10.5 -51.5t46.5 -8.5h103q147 0 197.5 17.5t85.5 83.5l32 61q6 11 27 9.5t24 -13.5
q-36 -90 -69 -199q-29 -92 -53 -198q-9 -12 -27.5 -11t-24.5 13v57q0 27 -4 45t-16.5 30.5t-25 19t-41.5 10t-53 4t-71 0.5h-102q-43 0 -55 -8.5t-25 -51.5l-84 -276q-16 -52 -23.5 -79.5t-14 -59.5t-5.5 -52t8 -35q11 -23 57.5 -33t170.5 -10q77 0 120.5 3t91.5 14t81 34.5
t68.5 62t74.5 99.5q12 8 26.5 4.5t20.5 -16.5q-16 -54 -60.5 -143.5t-80.5 -126.5q-145 6 -469 6h-242q-109 0 -244 -6q-12 7 -12.5 24.5t10.5 26.5l72 6q52 4 78.5 22.5t48.5 64.5t57 157z" />
    <glyph glyph-name="ecaron" unicode="&#x11b;" horiz-adv-x="708" 
d="M641 836q57 0 93 -39.5t36 -83.5q0 -57 -35.5 -107t-104 -91.5t-155.5 -75.5t-203 -66q-28 -70 -28 -183q0 -52 28 -84t70 -32q51 0 94.5 26t120.5 93q13 0 21.5 -10.5t5.5 -24.5q-152 -187 -328 -187q-58 0 -97 34t-54 80.5t-15 100.5q0 72 28 161.5t100.5 199.5
t176.5 190q128 99 246 99zM600 772q-65 0 -156 -98q-91 -97 -151 -240q98 30 156.5 63t117.5 89q41 39 60.5 79t19.5 60q0 19 -11 33t-36 14zM553 975l-72 332q3 11 15.5 17t25.5 3l88 -178q15 -31 21 -31q11 0 33 25l186 188q11 3 23 -6t12 -22l-256 -336q-25 -31 -47 -31
q-20 0 -29 39z" />
    <glyph glyph-name="Gbreve" unicode="&#x11e;" horiz-adv-x="1439" 
d="M1061 184l53 168q13 43 19.5 66t9 47t-1.5 35t-17 22t-32.5 16t-51.5 9l-79 10q-11 9 -9.5 27t13.5 24q135 -6 245 -6q160 0 234 6q11 -6 11 -25t-13 -26l-35 -10q-33 -10 -47.5 -16.5t-31 -29t-27 -52.5t-31.5 -97l-64 -202q-13 -44 17 -62q4 -16 -9 -29
q-112 -39 -232 -65.5t-198 -26.5q-271 0 -424 141t-153 392q0 162 73 330t222 298q293 256 712 256q198 0 351 -65q-62 -130 -97 -272q-6 -12 -26 -11t-25 13q28 142 -25.5 207t-201.5 65q-170 0 -297.5 -57t-239.5 -162q-112 -104 -189 -288.5t-77 -356.5q0 -117 34 -203
t93 -133t128 -68.5t151 -21.5q79 0 125.5 10t84 44t58.5 99zM1141 1464q-103 0 -146.5 59t-19.5 175q7 6 21.5 6t19.5 -6q6 -133 143 -133q133 0 189 133q8 6 22 6t19 -6q-37 -234 -248 -234z" />
    <glyph glyph-name="gbreve" unicode="&#x11f;" horiz-adv-x="782" 
d="M588 836q10 0 65 -19q9 -3 20.5 -8t18 -7.5t10.5 -2.5q52 0 99 12q62 16 92 16q43 0 43 -51q0 -32 -13.5 -47.5t-31.5 -15.5q-23 0 -68 10q-36 12 -75 12q-8 0 -14 -4t-5 -8q14 -56 14 -78q0 -119 -74 -229t-186 -180q-45 -27 -145 -54q-18 -10 -31.5 -29.5t-13.5 -41.5
q0 -53 67 -97q8 -6 201 -123q85 -50 119.5 -97.5t34.5 -100.5q0 -95 -133 -169.5t-367 -74.5q-80 0 -151 19.5t-122 65t-51 110.5q0 44 26.5 86.5t64.5 72.5t89 57.5t91 43t80 28.5q-66 44 -66 95q0 40 92 157q-21 5 -41 14.5t-47 29.5t-44 56.5t-17 84.5q0 87 45 182
t121 162q143 123 303 123zM309 -483q38 0 82.5 8.5t88 24t72 43.5t28.5 63q0 65 -88 125q-146 96 -191 102q-36 4 -89 -18.5t-101 -57.5q-78 -58 -78 -133q0 -69 83 -113t193 -44zM563 776q-61 0 -137 -84q-67 -76 -125.5 -190t-58.5 -187q0 -31 18 -51t43 -20q68 0 135 80
q80 94 133.5 210.5t53.5 172.5q0 31 -18.5 50t-43.5 19zM584 1004q-108 0 -154 61.5t-20 183.5q8 6 23 6t20 -6q6 -135 149 -135q142 0 199 135q7 6 22.5 6t20.5 -6q-40 -245 -260 -245z" />
    <glyph glyph-name="uni0122" unicode="&#x122;" horiz-adv-x="1439" 
d="M1061 184l53 168q13 43 19.5 66t9 47t-1.5 35t-17 22t-32.5 16t-51.5 9l-79 10q-11 9 -9.5 27t13.5 24q135 -6 245 -6q160 0 234 6q11 -6 11 -25t-13 -26l-35 -10q-33 -10 -47.5 -16.5t-31 -29t-27 -52.5t-31.5 -97l-64 -202q-13 -44 17 -62q4 -16 -9 -29
q-112 -39 -232 -65.5t-198 -26.5q-271 0 -424 141t-153 392q0 162 73 330t222 298q293 256 712 256q198 0 351 -65q-62 -130 -97 -272q-6 -12 -26 -11t-25 13q28 142 -25.5 207t-201.5 65q-170 0 -297.5 -57t-239.5 -162q-112 -104 -189 -288.5t-77 -356.5q0 -117 34 -203
t93 -133t128 -68.5t151 -21.5q79 0 125.5 10t84 44t58.5 99zM647 -119q58 0 91.5 -41.5t33.5 -95.5q0 -51 -24.5 -96t-64 -75.5t-84.5 -51t-91 -29.5q-8 6 -11 19t1 24q157 77 157 170q0 25 -15.5 43.5t-41.5 22.5q-25 7 -25 45q0 29 21.5 47t52.5 18z" />
    <glyph glyph-name="uni0123" unicode="&#x123;" horiz-adv-x="782" 
d="M588 836q10 0 65 -19q9 -3 20.5 -8t18 -7.5t10.5 -2.5q52 0 99 12q62 16 92 16q43 0 43 -51q0 -32 -13.5 -47.5t-31.5 -15.5q-23 0 -68 10q-36 12 -75 12q-8 0 -14 -4t-5 -8q14 -56 14 -78q0 -119 -74 -229t-186 -180q-45 -27 -145 -54q-18 -10 -31.5 -29.5t-13.5 -41.5
q0 -53 67 -97q8 -6 201 -123q85 -50 119.5 -97.5t34.5 -100.5q0 -95 -133 -169.5t-367 -74.5q-80 0 -151 19.5t-122 65t-51 110.5q0 44 26.5 86.5t64.5 72.5t89 57.5t91 43t80 28.5q-66 44 -66 95q0 40 92 157q-21 5 -41 14.5t-47 29.5t-44 56.5t-17 84.5q0 87 45 182
t121 162q143 123 303 123zM309 -483q38 0 82.5 8.5t88 24t72 43.5t28.5 63q0 65 -88 125q-146 96 -191 102q-36 4 -89 -18.5t-101 -57.5q-78 -58 -78 -133q0 -69 83 -113t193 -44zM563 776q-61 0 -137 -84q-67 -76 -125.5 -190t-58.5 -187q0 -31 18 -51t43 -20q68 0 135 80
q80 94 133.5 210.5t53.5 172.5q0 31 -18.5 50t-43.5 19zM635 1034q-57 0 -89 38t-32 89q0 88 79 154.5t177 93.5q8 -3 11.5 -16t0.5 -21q-157 -85 -157 -170q0 -47 57 -69q25 -4 25 -35q0 -27 -21 -45.5t-51 -18.5z" />
    <glyph glyph-name="Imacron" unicode="&#x12a;" horiz-adv-x="698" 
d="M272 295l240 762q18 56 26 84.5t13.5 59t2.5 43.5t-13.5 26t-28 18t-47.5 10l-49 9q-10 12 -7 28.5t19 22.5q123 -6 238 -6q98 0 245 6q11 -6 12 -24.5t-12 -26.5l-55 -9q-32 -5 -51 -9t-37.5 -17t-27.5 -24t-23 -43.5t-23 -59.5t-28 -88l-240 -762q-17 -53 -25.5 -84
t-13.5 -61t-2.5 -45t11.5 -28t25.5 -18t43.5 -8l63 -6q9 -11 6 -28t-14 -23q-150 6 -258 6q-112 0 -235 -6q-12 7 -12.5 24.5t10.5 26.5l63 6q52 5 78.5 23.5t48.5 64.5t57 156zM915 1479h-391q-14 19 -14 50t14 50h391q15 -19 15 -50t-15 -50z" />
    <glyph glyph-name="imacron" unicode="&#x12b;" horiz-adv-x="569" 
d="M106 45l261 621q17 39 -5 39q-8 0 -26.5 -9t-57 -35t-85.5 -65q-13 1 -21.5 12t-5.5 23q79 90 180 147.5t158 57.5q12 0 33 -21q19 -15 -13 -90l-243 -582q-7 -15 -6 -30t12 -15q27 0 94.5 47t118.5 105q30 -3 30 -35q-12 -23 -53.5 -63t-96 -81t-119.5 -70.5t-114 -29.5
q-16 0 -32 19q-22 25 -9 55zM662 1026h-379q-15 19 -15 53.5t15 53.5h379q14 -19 14 -53.5t-14 -53.5z" />
    <glyph glyph-name="Iogonek" unicode="&#x12e;" horiz-adv-x="698" 
d="M272 295l240 762q18 56 26 84.5t13.5 59t2.5 43.5t-13.5 26t-28 18t-47.5 10l-49 9q-10 12 -7 28.5t19 22.5q123 -6 238 -6q98 0 245 6q11 -6 12 -24.5t-12 -26.5l-55 -9q-32 -5 -51 -9t-37.5 -17t-27.5 -24t-23 -43.5t-23 -59.5t-28 -88l-240 -762q-17 -53 -25.5 -84
t-13.5 -61t-2.5 -45t11.5 -28t25.5 -18t43.5 -8l63 -6q9 -11 6 -28t-14 -23q-125 6 -194 4q-70 -58 -106 -109.5t-36 -107.5q0 -51 28 -77t79 -26q81 0 125 23q16 -10 16 -39q-85 -90 -219 -90q-72 0 -123 41t-51 106t48.5 133t164.5 148q-111 0 -225 -6q-12 7 -12.5 24.5
t10.5 26.5l63 6q52 5 78.5 23.5t48.5 64.5t57 156z" />
    <glyph glyph-name="iogonek" unicode="&#x12f;" horiz-adv-x="569" 
d="M539 1255q33 0 50 -20t17 -53q0 -48 -29.5 -85.5t-72.5 -37.5q-35 0 -52.5 22t-17.5 52q0 41 27 81.5t78 40.5zM504 836q12 0 33 -21q18 -18 -13 -90l-243 -582q-7 -15 -6 -30t12 -15q27 0 94.5 47t118.5 105q30 -3 30 -35q-21 -44 -172 -168q-98 -79 -154.5 -161
t-56.5 -142q0 -35 22 -55.5t62 -20.5q61 0 105 29q17 -5 14 -33q-40 -46 -94 -69t-104 -23q-65 0 -102.5 35.5t-37.5 85.5q0 38 16 75t55 82.5t73.5 79t101.5 95.5q-114 -54 -125 -54q-13 0 -29 19q-15 17 2 55l261 621q17 39 -5 39q-8 0 -26.5 -9t-57 -35t-85.5 -65
q-13 1 -21.5 12t-5.5 23q79 90 180 147.5t158 57.5z" />
    <glyph glyph-name="Idotaccent" unicode="&#x130;" horiz-adv-x="698" 
d="M272 295l240 762q18 56 26 84.5t13.5 59t2.5 43.5t-13.5 26t-28 18t-47.5 10l-49 9q-10 12 -7 28.5t19 22.5q123 -6 238 -6q98 0 245 6q11 -6 12 -24.5t-12 -26.5l-55 -9q-32 -5 -51 -9t-37.5 -17t-27.5 -24t-23 -43.5t-23 -59.5t-28 -88l-240 -762q-17 -53 -25.5 -84
t-13.5 -61t-2.5 -45t11.5 -28t25.5 -18t43.5 -8l63 -6q9 -11 6 -28t-14 -23q-150 6 -258 6q-112 0 -235 -6q-12 7 -12.5 24.5t10.5 26.5l63 6q52 5 78.5 23.5t48.5 64.5t57 156zM715 1446q-35 0 -55.5 21.5t-20.5 56.5q0 46 30 77t68 31q35 0 54.5 -23t19.5 -55
q0 -50 -28.5 -79t-67.5 -29z" />
    <glyph glyph-name="dotlessi" unicode="&#x131;" horiz-adv-x="569" 
d="M106 45l261 621q17 39 -5 39q-8 0 -26.5 -9t-57 -35t-85.5 -65q-13 1 -21.5 12t-5.5 23q79 90 180 147.5t158 57.5q12 0 33 -21q19 -15 -13 -90l-243 -582q-7 -15 -6 -30t12 -15q27 0 94.5 47t118.5 105q30 -3 30 -35q-12 -23 -53.5 -63t-96 -81t-119.5 -70.5t-114 -29.5
q-16 0 -32 19q-22 25 -9 55z" />
    <glyph glyph-name="uni0136" unicode="&#x136;" horiz-adv-x="1275" 
d="M272 295l240 762q21 66 29.5 98.5t13 63.5t-4.5 43.5t-25 21t-48 14.5l-47 9q-10 12 -7 28.5t19 22.5q99 -6 222 -6q105 0 243 6q12 -6 11 -25t-17 -26l-41 -9q-34 -7 -52 -11.5t-37.5 -17.5t-28.5 -24t-23.5 -42t-24 -58.5t-28.5 -87.5l-86 -271q-12 -34 -5.5 -45.5
t41.5 -11.5q46 0 89 21q73 42 215 178l204 194q133 127 133 152q0 13 -49 24l-39 9q-11 9 -7.5 28t16.5 23q102 -6 225 -6q44 0 221 6q13 -8 12.5 -26.5t-14.5 -24.5l-43 -9q-81 -13 -137 -36q-119 -52 -363 -275l-262 -239q-27 -24 -29.5 -33.5t13.5 -44.5l225 -451
q44 -90 80 -124.5t106 -43.5l54 -6q10 -9 8 -27.5t-14 -23.5q-99 6 -218 6q-114 0 -231 -6q-7 12 -6 28.5t12 22.5l53 6q21 2 32.5 7t17 11.5t2 21t-10 28.5t-20.5 43l-215 422q-29 57 -47 74.5t-35 17.5q-28 0 -43.5 -14t-24.5 -44l-100 -323q-17 -53 -25.5 -84t-13.5 -61
t-2.5 -45t11.5 -28t25.5 -18t43.5 -8l57 -6q9 -11 6 -28t-14 -23q-141 6 -254 6q-110 0 -233 -6q-12 7 -12.5 24.5t10.5 26.5l63 6q52 5 78.5 23.5t48.5 64.5t57 156zM565 -119q58 0 91.5 -41.5t33.5 -95.5q0 -51 -24.5 -96t-64 -75.5t-84.5 -51t-91 -29.5q-8 6 -11 19t1 24
q157 77 157 170q0 25 -15.5 43.5t-41.5 22.5q-24 7 -24 45q0 29 21 47t52 18z" />
    <glyph glyph-name="uni0137" unicode="&#x137;" horiz-adv-x="917" 
d="M82 25l375 1130q35 107 37.5 140.5t-23.5 45.5l-37 19q-21 14 -4 31q94 45 250 73l12 -10q-22 -79 -100 -301l-211 -606h4q91 123 209 211q108 78 221 78q80 0 114 -35.5t34 -77.5q0 -73 -84 -150q-80 -73 -158 -118.5t-170 -61.5q-16 -9 -6 -39q27 -101 76 -192
q38 -68 65 -68q45 0 123 96q27 0 27 -24q-25 -54 -57.5 -95t-61.5 -61t-51 -29.5t-37 -9.5q-27 0 -47.5 19t-46.5 63q-19 34 -50.5 106t-44.5 113q-24 79 -75 68q-31 -7 -44 -21.5t-32 -60.5l-107 -260q-12 -27 -35 -27q-16 0 -31.5 3t-28 16.5t-5.5 34.5zM805 694
q0 21 -16.5 37.5t-49.5 16.5q-73 0 -198 -105q-57 -47 -113 -113t-76 -110q-7 -15 -2.5 -24.5t23.5 -6.5q41 4 123 37t178 96q61 41 96 89t35 83zM356 -119q58 0 91.5 -41.5t33.5 -95.5q0 -51 -24.5 -96t-64 -75.5t-84.5 -51t-91 -29.5q-8 6 -11 19t1 24q158 78 158 170
q0 25 -16 43.5t-42 22.5q-24 7 -24 45q0 29 21 47t52 18z" />
    <glyph glyph-name="Lacute" unicode="&#x139;" horiz-adv-x="1118" 
d="M664 1057l-226 -725q-44 -140 -44 -180q-1 -55 50 -73q44 -16 160 -16q58 0 93 1t76.5 5.5t67.5 13.5t56.5 24t54 38t49 55t52.5 76q15 5 28.5 1.5t16.5 -13.5q-17 -52 -60 -140t-71 -130q-197 6 -473 6h-238q-118 0 -217 -6q-12 7 -12.5 24.5t10.5 26.5l49 6
q32 4 51 10.5t36.5 19.5t32 42t29 67t35.5 105l240 762q18 56 26 84.5t13.5 59t2.5 43.5t-13.5 26t-28 18t-47.5 10l-49 9q-10 12 -7 28.5t19 22.5q28 -1 73.5 -2.5t84 -2.5t75.5 -1q50 0 135.5 2.5t123.5 3.5q11 -6 12 -24.5t-12 -26.5l-64 -9q-31 -4 -50 -8t-37.5 -16.5
t-28 -24t-23.5 -43.5t-23 -60.5t-28 -88.5zM997 1571l-295 -125q-10 3 -16 16.5t-2 24.5l250 201q27 24 47 24q10 0 23.5 -10t23.5 -29q24 -47 12 -71q-10 -17 -43 -31z" />
    <glyph glyph-name="lacute" unicode="&#x13a;" horiz-adv-x="503" 
d="M575 1100l-323 -967q-8 -24 -10 -38.5t2.5 -21.5t15.5 -7q53 0 236 206q32 3 32 -28q-23 -43 -54.5 -86.5t-76.5 -87.5t-103 -71.5t-118 -27.5q-80 0 -80 62q0 40 45 174l326 969q23 68 27 106.5t-3.5 51t-25.5 20.5l-37 16q-8 6 -8 17t8 16q40 15 118 35.5t140 25.5
l10 -12q-38 -104 -121 -352zM842 1622l-295 -125q-10 3 -16.5 16.5t-2.5 24.5l250 201q27 24 47 24q10 0 23.5 -10t23.5 -29q25 -48 13 -71q-10 -17 -43 -31z" />
    <glyph glyph-name="uni013B" unicode="&#x13b;" horiz-adv-x="1118" 
d="M664 1057l-226 -725q-44 -140 -44 -180q-1 -55 50 -73q44 -16 160 -16q58 0 93 1t76.5 5.5t67.5 13.5t56.5 24t54 38t49 55t52.5 76q15 5 28.5 1.5t16.5 -13.5q-17 -52 -60 -140t-71 -130q-197 6 -473 6h-238q-118 0 -217 -6q-12 7 -12.5 24.5t10.5 26.5l49 6
q32 4 51 10.5t36.5 19.5t32 42t29 67t35.5 105l240 762q18 56 26 84.5t13.5 59t2.5 43.5t-13.5 26t-28 18t-47.5 10l-49 9q-10 12 -7 28.5t19 22.5q28 -1 73.5 -2.5t84 -2.5t75.5 -1q50 0 135.5 2.5t123.5 3.5q11 -6 12 -24.5t-12 -26.5l-64 -9q-31 -4 -50 -8t-37.5 -16.5
t-28 -24t-23.5 -43.5t-23 -60.5t-28 -88.5zM516 -119q58 0 91.5 -41.5t33.5 -95.5q0 -51 -24.5 -96t-64 -75.5t-84.5 -51t-91 -29.5q-8 6 -11 19t1 24q157 77 157 170q0 25 -15.5 43.5t-41.5 22.5q-25 7 -25 45q0 29 21.5 47t52.5 18z" />
    <glyph glyph-name="uni013C" unicode="&#x13c;" horiz-adv-x="503" 
d="M575 1100l-323 -967q-8 -24 -10 -38.5t2.5 -21.5t15.5 -7q53 0 236 206q32 3 32 -28q-23 -43 -54.5 -86.5t-76.5 -87.5t-103 -71.5t-118 -27.5q-80 0 -80 62q0 40 45 174l326 969q23 68 27 106.5t-3.5 51t-25.5 20.5l-37 16q-8 6 -8 17t8 16q40 15 118 35.5t140 25.5
l10 -12q-38 -104 -121 -352zM135 -119q58 0 91.5 -41.5t33.5 -95.5q0 -51 -24.5 -96t-64 -75.5t-84.5 -51t-91 -29.5q-8 6 -11 19t1 24q157 77 157 170q0 25 -15.5 43.5t-41.5 22.5q-25 7 -25 45q0 29 21.5 47t52.5 18z" />
    <glyph glyph-name="Lcaron" unicode="&#x13d;" horiz-adv-x="1118" 
d="M664 1057l-226 -725q-44 -140 -44 -180q-1 -55 50 -73q44 -16 160 -16q58 0 93 1t76.5 5.5t67.5 13.5t56.5 24t54 38t49 55t52.5 76q15 5 28.5 1.5t16.5 -13.5q-17 -52 -60 -140t-71 -130q-197 6 -473 6h-238q-118 0 -217 -6q-12 7 -12.5 24.5t10.5 26.5l49 6
q32 4 51 10.5t36.5 19.5t32 42t29 67t35.5 105l240 762q18 56 26 84.5t13.5 59t2.5 43.5t-13.5 26t-28 18t-47.5 10l-49 9q-10 12 -7 28.5t19 22.5q28 -1 73.5 -2.5t84 -2.5t75.5 -1q50 0 135.5 2.5t123.5 3.5q11 -6 12 -24.5t-12 -26.5l-64 -9q-31 -4 -50 -8t-37.5 -16.5
t-28 -24t-23.5 -43.5t-23 -60.5t-28 -88.5zM1098 1401q55 0 85.5 -40.5t30.5 -94.5q0 -90 -79 -159t-170 -93q-17 26 -11 43q146 74 146 170q0 47 -49 67q-25 8 -25 43q0 27 21 45.5t51 18.5z" />
    <glyph glyph-name="lcaron" unicode="&#x13e;" horiz-adv-x="503" 
d="M575 1100l-323 -967q-8 -24 -10 -38.5t2.5 -21.5t15.5 -7q53 0 236 206q32 3 32 -28q-23 -43 -54.5 -86.5t-76.5 -87.5t-103 -71.5t-118 -27.5q-80 0 -80 62q0 40 45 174l326 969q23 68 27 106.5t-3.5 51t-25.5 20.5l-37 16q-8 6 -8 17t8 16q40 15 118 35.5t140 25.5
l10 -12q-38 -104 -121 -352zM913 1464q46 0 17 -106q-30 -101 -101.5 -199t-140.5 -141q-20 -6 -30.5 6.5t1.5 26.5q101 117 123 196q7 27 -8 76q-10 30 -6 47q7 24 55 59t90 35z" />
    <glyph glyph-name="Lslash" unicode="&#x141;" horiz-adv-x="1134" 
d="M920 784l-373 -157l-92 -295q-62 -169 -37.5 -219t203.5 -50q68 0 107 1.5t85 8.5t74.5 20.5t61.5 37.5t60.5 59t59.5 86q15 5 28.5 1.5t16.5 -13.5q-17 -52 -60 -140t-71 -130q-197 6 -473 6h-238q-118 0 -217 -6q-12 7 -12.5 24.5t10.5 26.5l49 6q52 6 78.5 24
t49.5 64.5t57 155.5l86 272l-191 -73q-14 5 -18 30.5t2 32.5l229 90l131 410q18 56 26 84.5t13.5 59t2.5 43.5t-13.5 26t-28 18t-47.5 10l-49 9q-10 12 -7 28.5t19 22.5q27 -1 73 -2.5t85 -2.5t76 -1q50 0 135 2.5t123 3.5q11 -6 12 -24.5t-12 -26.5l-64 -9q-31 -4 -50 -8
t-37.5 -16.5t-28.5 -24.5t-23.5 -43t-23 -61t-27.5 -88l-107 -346l332 135q13 -6 17.5 -26.5t-2.5 -35.5z" />
    <glyph glyph-name="lslash" unicode="&#x142;" horiz-adv-x="530" 
d="M698 866l-221 -106l-213 -627q-8 -24 -10 -38.5t2.5 -21.5t15.5 -7q53 0 236 206q33 3 33 -28q-23 -43 -55 -86.5t-76.5 -87.5t-103 -71.5t-118.5 -27.5q-79 0 -79 62q0 40 45 174l168 491l-127 -51q-17 0 -26.5 18.5t-4.5 39.5l186 83l131 388q23 68 27 106.5t-3.5 51
t-25.5 20.5l-37 16q-8 6 -8 17t8 16q40 15 118 35.5t140 25.5l11 -12q-12 -33 -24.5 -68.5t-40 -116.5t-56.5 -167l-86 -252l164 74q17 -3 26.5 -22t3.5 -34z" />
    <glyph glyph-name="Nacute" unicode="&#x143;" horiz-adv-x="1513" 
d="M1286 1571l-295 -125q-10 3 -16 16.5t-2 24.5l250 201q27 24 47 24q10 0 23.5 -10t23.5 -29q24 -47 12 -71q-10 -17 -43 -31zM317 477l162 524q8 24 21 66t19.5 62.5t14 46.5t10.5 42t3 27q0 21 -12.5 30.5t-40.5 14.5l-82 17q-12 10 -8.5 28.5t18.5 22.5q63 -6 209 -6
h127v-29q0 -48 100 -297l207 -510q86 -207 100 -231q18 0 35 57l162 514q98 313 98 379q0 30 -9 41.5t-42 17.5l-80 13q-9 14 -4.5 29.5t16.5 21.5q108 -6 232 -6q105 0 194 6q8 -6 9.5 -24t-7.5 -27l-47 -9q-84 -14 -106 -36t-71.5 -143.5t-96.5 -268.5l-148 -459
q-50 -155 -124 -409q-18 -18 -58 -13q-59 180 -186 488l-162 393q-20 49 -50 126.5t-51 129.5t-36 82q-10 0 -66 -180l-159 -533q-33 -108 -86 -340q-11 -46 13 -61.5t87 -22.5l47 -6q9 -9 7 -26t-13 -25q-91 6 -234 6q-120 0 -215 -6q-10 7 -12.5 23.5t8.5 27.5l51 6
q63 5 101 35q26 20 60 106.5t95 284.5z" />
    <glyph glyph-name="nacute" unicode="&#x144;" horiz-adv-x="1026" 
d="M502 752l-140 -359l7 -4q78 119 160 215t175 164t166 68q115 0 115 -111q0 -46 -33 -143q-16 -45 -62 -154t-86.5 -202t-41.5 -97q-16 -39 4 -39q27 0 88 43.5t104 95.5q33 5 33 -28q-57 -97 -161.5 -163.5t-190.5 -66.5q-14 0 -31.5 17t-17.5 35q0 19 49 135
q16 36 77.5 190.5t88.5 212.5q43 99 43 150q0 15 -1.5 24t-9 17t-22.5 8q-37 0 -118 -69.5t-165 -174.5q-48 -59 -100 -142t-82.5 -138t-104.5 -192q-17 -32 -26 -48q-14 -25 -37 -25q-16 0 -30.5 3t-25.5 16.5t-3 34.5l237 645q17 47 -6 47q-67 0 -186 -103
q-12 0 -19.5 9.5t-5.5 21.5q60 82 145.5 136.5t160.5 54.5q37 0 52 -24.5t1 -59.5zM944 1165l-258 -227q-11 0 -22 8.5t-11 18.5l193 292q26 44 49 41q27 0 57 -30t27 -54q0 -22 -35 -49z" />
    <glyph glyph-name="uni0145" unicode="&#x145;" horiz-adv-x="1513" 
d="M664 -119q58 0 91 -41.5t33 -95.5q0 -51 -24.5 -96t-64 -75.5t-84.5 -51t-91 -29.5q-8 6 -11 19t1 24q158 78 158 170q0 25 -16 43.5t-42 22.5q-24 7 -24 45q0 29 21.5 47t52.5 18zM317 477l162 524q8 24 21 66t19.5 62.5t14 46.5t10.5 42t3 27q0 21 -12.5 30.5
t-40.5 14.5l-82 17q-12 10 -8.5 28.5t18.5 22.5q63 -6 209 -6h127v-29q0 -48 100 -297l207 -510q86 -207 100 -231q18 0 35 57l162 514q98 313 98 379q0 30 -9 41.5t-42 17.5l-80 13q-9 14 -4.5 29.5t16.5 21.5q108 -6 232 -6q105 0 194 6q8 -6 9.5 -24t-7.5 -27l-47 -9
q-84 -14 -106 -36t-71.5 -143.5t-96.5 -268.5l-148 -459q-50 -155 -124 -409q-18 -18 -58 -13q-59 180 -186 488l-162 393q-20 49 -50 126.5t-51 129.5t-36 82q-10 0 -66 -180l-159 -533q-33 -108 -86 -340q-11 -46 13 -61.5t87 -22.5l47 -6q9 -9 7 -26t-13 -25
q-91 6 -234 6q-120 0 -215 -6q-10 7 -12.5 23.5t8.5 27.5l51 6q63 5 101 35q26 20 60 106.5t95 284.5z" />
    <glyph glyph-name="uni0146" unicode="&#x146;" horiz-adv-x="1026" 
d="M502 752l-140 -359l7 -4q78 119 160 215t175 164t166 68q115 0 115 -111q0 -46 -33 -143q-16 -45 -62 -154t-86.5 -202t-41.5 -97q-16 -39 4 -39q27 0 88 43.5t104 95.5q33 5 33 -28q-57 -97 -161.5 -163.5t-190.5 -66.5q-14 0 -31.5 17t-17.5 35q0 19 49 135
q16 36 77.5 190.5t88.5 212.5q43 99 43 150q0 15 -1.5 24t-9 17t-22.5 8q-37 0 -118 -69.5t-165 -174.5q-48 -59 -100 -142t-82.5 -138t-104.5 -192q-17 -32 -26 -48q-14 -25 -37 -25q-16 0 -30.5 3t-25.5 16.5t-3 34.5l237 645q17 47 -6 47q-67 0 -186 -103
q-12 0 -19.5 9.5t-5.5 21.5q60 82 145.5 136.5t160.5 54.5q37 0 52 -24.5t1 -59.5zM410 -119q58 0 91.5 -41.5t33.5 -95.5q0 -98 -81.5 -165t-183.5 -87q-8 6 -11 19t1 24q158 78 158 170q0 25 -16 43.5t-42 22.5q-24 7 -24 45q0 29 21.5 47t52.5 18z" />
    <glyph glyph-name="Ncaron" unicode="&#x147;" horiz-adv-x="1513" 
d="M1389 1686l-283 -222q-29 -18 -47 -18q-20 0 -35 18l-180 222q-1 11 10 22t23 14l174 -129q19 -14 34 -14q13 0 33 10l252 133q10 0 15.5 -12t3.5 -24zM317 477l162 524q8 24 21 66t19.5 62.5t14 46.5t10.5 42t3 27q0 21 -12.5 30.5t-40.5 14.5l-82 17q-12 10 -8.5 28.5
t18.5 22.5q63 -6 209 -6h127v-29q0 -48 100 -297l207 -510q86 -207 100 -231q18 0 35 57l162 514q98 313 98 379q0 30 -9 41.5t-42 17.5l-80 13q-9 14 -4.5 29.5t16.5 21.5q108 -6 232 -6q105 0 194 6q8 -6 9.5 -24t-7.5 -27l-47 -9q-84 -14 -106 -36t-71.5 -143.5
t-96.5 -268.5l-148 -459q-50 -155 -124 -409q-18 -18 -58 -13q-59 180 -186 488l-162 393q-20 49 -50 126.5t-51 129.5t-36 82q-10 0 -66 -180l-159 -533q-33 -108 -86 -340q-11 -46 13 -61.5t87 -22.5l47 -6q9 -9 7 -26t-13 -25q-91 6 -234 6q-120 0 -215 -6
q-10 7 -12.5 23.5t8.5 27.5l51 6q63 5 101 35q26 20 60 106.5t95 284.5z" />
    <glyph glyph-name="ncaron" unicode="&#x148;" horiz-adv-x="1026" 
d="M502 752l-140 -359l7 -4q78 119 160 215t175 164t166 68q115 0 115 -111q0 -46 -33 -143q-16 -45 -62 -154t-86.5 -202t-41.5 -97q-16 -39 4 -39q27 0 88 43.5t104 95.5q33 5 33 -28q-57 -97 -161.5 -163.5t-190.5 -66.5q-14 0 -31.5 17t-17.5 35q0 19 49 135
q16 36 77.5 190.5t88.5 212.5q43 99 43 150q0 15 -1.5 24t-9 17t-22.5 8q-37 0 -118 -69.5t-165 -174.5q-48 -59 -100 -142t-82.5 -138t-104.5 -192q-17 -32 -26 -48q-14 -25 -37 -25q-16 0 -30.5 3t-25.5 16.5t-3 34.5l237 645q17 47 -6 47q-67 0 -186 -103
q-12 0 -19.5 9.5t-5.5 21.5q60 82 145.5 136.5t160.5 54.5q37 0 52 -24.5t1 -59.5zM655 971l-71 332q3 11 15.5 17t25.5 3l88 -178q16 -30 20 -31q11 0 33 25l186 188q11 3 23 -6.5t12 -22.5l-256 -335q-25 -31 -47 -31q-20 0 -29 39z" />
    <glyph glyph-name="Omacron" unicode="&#x14c;" horiz-adv-x="1495" 
d="M1036 1384q103 0 192 -35t158 -102.5t106 -176.5t30 -247q-8 -173 -82.5 -346t-194.5 -287q-234 -223 -536 -223q-126 0 -225.5 46.5t-159 123.5t-89 170.5t-26.5 194.5q5 196 87.5 379t240.5 317q220 186 499 186zM1028 1321q-162 0 -307 -123q-58 -49 -114 -125
t-106 -174t-83 -222.5t-37 -252.5q-2 -77 14 -143.5t53 -124.5t107.5 -91.5t167.5 -33.5q188 0 342 164q131 141 205 339.5t80 378.5q7 193 -79.5 300.5t-242.5 107.5zM1300 1479h-391q-13 19 -13 50t13 50h391q15 -19 15 -50t-15 -50z" />
    <glyph glyph-name="omacron" unicode="&#x14d;" horiz-adv-x="831" 
d="M602 836q106 0 160.5 -71t48.5 -187q-5 -100 -59 -229t-158 -236q-138 -142 -293 -142q-101 0 -157.5 72t-47.5 201q7 104 66 234t157 224q139 134 283 134zM588 774q-78 0 -150 -98q-83 -112 -141.5 -266.5t-63.5 -245.5q-3 -56 19 -93.5t65 -37.5q83 0 162 106
q65 88 126.5 251.5t64.5 248.5q4 135 -82 135zM879 1032h-379q-15 19 -13 52.5t17 52.5h379q13 -19 11.5 -52.5t-15.5 -52.5z" />
    <glyph glyph-name="Ohungarumlaut" unicode="&#x150;" horiz-adv-x="1495" 
d="M1036 1384q103 0 192 -35t158 -102.5t106 -176.5t30 -247q-8 -173 -82.5 -346t-194.5 -287q-234 -223 -536 -223q-126 0 -225.5 46.5t-159 123.5t-89 170.5t-26.5 194.5q5 196 87.5 379t240.5 317q220 186 499 186zM1028 1321q-162 0 -307 -123q-58 -49 -114 -125
t-106 -174t-83 -222.5t-37 -252.5q-2 -77 14 -143.5t53 -124.5t107.5 -91.5t167.5 -33.5q188 0 342 164q131 141 205 339.5t80 378.5q7 193 -79.5 300.5t-242.5 107.5zM1298 1712q18 0 52 -24q22 -16 28 -34t-4 -28l-39 -39l-149 -141q-15 3 -25.5 12.5t-7.5 20.5l96 196
q10 21 20.5 29t28.5 8zM1032 1712q23 0 53 -26q35 -31 21 -56q-12 -18 -37 -43l-149 -141q-15 3 -25.5 12.5t-7.5 20.5l96 196q10 21 20.5 29t28.5 8z" />
    <glyph glyph-name="ohungarumlaut" unicode="&#x151;" horiz-adv-x="831" 
d="M602 836q106 0 160.5 -71t48.5 -187q-5 -100 -59 -229t-158 -236q-138 -142 -293 -142q-101 0 -157.5 72t-47.5 201q7 104 66 234t157 224q139 134 283 134zM588 774q-78 0 -150 -98q-83 -112 -141.5 -266.5t-63.5 -245.5q-3 -56 19 -93.5t65 -37.5q83 0 162 106
q65 88 126.5 251.5t64.5 248.5q4 135 -82 135zM668 1190l-187 -250q-25 0 -28 23l106 288q12 35 22 49.5t27 14.5q26 0 51 -19q35 -24 35 -47q0 -22 -26 -59zM934 1190l-186 -250q-11 0 -19.5 6.5t-9.5 16.5l106 288q12 35 22 49.5t27 14.5q27 0 52 -19q35 -24 35 -47
q0 -20 -27 -59z" />
    <glyph glyph-name="OE" unicode="&#x152;" horiz-adv-x="2004" 
d="M1591 1352h303q228 0 289 6q-31 -79 -84 -273q-6 -12 -26 -11t-25 13q6 53 6.5 89t-17.5 59t-61 35q-71 18 -217 18h-123q-38 0 -50.5 -11.5t-26.5 -57.5l-132 -420q-14 -43 -9.5 -51.5t46.5 -8.5h103q147 0 197 17.5t85 83.5l33 61q6 11 27 9.5t24 -13.5
q-36 -90 -69 -199q-33 -102 -54 -198q-9 -12 -27 -11t-24 13v57q0 27 -4 45t-16.5 30.5t-25 19t-41.5 10t-53 4t-71 0.5h-102q-43 0 -55 -8.5t-25 -51.5l-84 -276q-16 -52 -23.5 -79.5t-14 -59.5t-5.5 -52t8 -35q11 -23 57.5 -33t170.5 -10q77 0 120.5 3t91.5 14t81 34.5
t68.5 62t74.5 99.5q12 8 26.5 4.5t20.5 -16.5q-16 -54 -60.5 -143.5t-80.5 -126.5q-217 6 -469 6h-125q-41 0 -111 -4.5t-92 -5.5q-66 -4 -193 -4q-302 0 -464 157.5t-148 427.5q9 174 105.5 341.5t257.5 275.5q122 81 271 126.5t351 45.5q80 0 207 -4t184 -4zM1157 1298
q-147 0 -272 -46.5t-211 -122t-148.5 -173.5t-93.5 -200t-37 -203q-13 -241 114.5 -372.5t342.5 -131.5q35 0 57.5 2t53 11t51 26t41.5 49t35 78l296 940q20 63 15 85.5t-41 33.5q-89 24 -203 24z" />
    <glyph glyph-name="oe" unicode="&#x153;" horiz-adv-x="1183" 
d="M578 774q-76 0 -146 -98q-81 -112 -137 -267t-59 -245q-2 -57 19.5 -94t63.5 -37q82 0 158 106q64 88 121.5 250t60.5 250q4 135 -81 135zM1245 713q0 -57 -35.5 -107t-104.5 -91.5t-158 -75.5t-208 -66q-37 -76 -37 -176q0 -56 31.5 -89.5t83.5 -33.5q51 0 94.5 26
t120.5 93q13 0 21.5 -10.5t5.5 -24.5q-152 -187 -328 -187q-62 0 -100.5 40t-52.5 114q-143 -154 -279 -154q-92 0 -147.5 69t-55.5 183q0 115 58 249t157 230q137 134 279 134q77 0 124.5 -49.5t59.5 -135.5q72 77 166.5 131t179.5 54q55 0 90 -39.5t35 -83.5zM1077 772
q-57 0 -153 -98q-96 -99 -164 -242q104 31 163.5 64.5t118.5 89.5q41 39 60.5 79t19.5 60q0 18 -10.5 32.5t-34.5 14.5z" />
    <glyph glyph-name="Racute" unicode="&#x154;" horiz-adv-x="1175" 
d="M270 295l240 766q31 100 37.5 144t-5.5 58.5t-50 18.5l-78 8q-8 12 -5.5 28.5t15.5 22.5q142 17 348 17q270 0 387 -107q94 -82 94 -233q0 -74 -32.5 -139.5t-85 -110t-113 -73.5t-121.5 -40q-21 -3 -25.5 -13t1.5 -36q46 -189 102 -354q17 -50 26.5 -74.5t26.5 -54.5
t35 -43.5t46.5 -25t68.5 -15.5q9 -9 7 -20.5t-7 -18.5q-50 -6 -129 -6q-80 0 -123 24.5t-68 96.5q-79 236 -121 397q-19 70 -35.5 86t-66.5 16q-56 0 -79.5 -4.5t-34.5 -16.5t-21 -44l-80 -254q-17 -54 -25 -84t-13.5 -60t-3 -44.5t12 -27.5t26.5 -18.5t44 -9.5l49 -6
q9 -11 6 -28t-14 -23q-129 6 -246 6q-122 0 -217 -6q-12 7 -12.5 24.5t10.5 26.5l45 6q40 6 61 14t42.5 35.5t38 69.5t42.5 125zM715 1229l-144 -469l-10.5 -36t-2 -23.5t4.5 -15.5t17.5 -7.5t28.5 -3.5h44q80 0 156.5 26.5t137 73.5t98.5 117.5t40 152.5q3 120 -66.5 185
t-201.5 65q-40 0 -59 -6t-26.5 -17.5t-16.5 -41.5zM1147 1571l-295 -125q-10 3 -16 16.5t-2 24.5l249 201q27 24 47 24q10 0 24 -10t24 -29q24 -47 12 -71q-10 -17 -43 -31z" />
    <glyph glyph-name="racute" unicode="&#x155;" horiz-adv-x="698" 
d="M387 836q36 0 53 -21.5t15.5 -56.5t-7 -62t-14.5 -55l-88 -258h10q46 87 110.5 191t104.5 155q82 107 150 107q33 0 53 -20t24.5 -40t4.5 -41q0 -25 -12.5 -62t-30.5 -61q-13 -16 -26.5 -21t-24.5 3t-15 29q-15 79 -43 79q-25 0 -71 -61q-58 -75 -125.5 -194.5
t-109 -205.5t-114.5 -245q-13 -25 -34 -25q-15 0 -31.5 3.5t-29.5 16.5t-7 34q3 9 50.5 146t92 273.5t68.5 225.5q11 43 -16 43q-65 0 -146 -107q-15 -3 -24.5 6t-8.5 27q117 197 242 197zM836 1155l-258 -227q-11 0 -22 8t-11 18l192 293q26 44 49 41q27 0 58 -31
q29 -29 26 -53q0 -22 -34 -49z" />
    <glyph glyph-name="uni0156" unicode="&#x156;" horiz-adv-x="1175" 
d="M270 295l240 766q31 100 37.5 144t-5.5 58.5t-50 18.5l-78 8q-8 12 -5.5 28.5t15.5 22.5q142 17 348 17q270 0 387 -107q94 -82 94 -233q0 -74 -32.5 -139.5t-85 -110t-113 -73.5t-121.5 -40q-21 -3 -25.5 -13t1.5 -36q46 -189 102 -354q17 -50 26.5 -74.5t26.5 -54.5
t35 -43.5t46.5 -25t68.5 -15.5q9 -9 7 -20.5t-7 -18.5q-50 -6 -129 -6q-80 0 -123 24.5t-68 96.5q-79 236 -121 397q-19 70 -35.5 86t-66.5 16q-56 0 -79.5 -4.5t-34.5 -16.5t-21 -44l-80 -254q-17 -54 -25 -84t-13.5 -60t-3 -44.5t12 -27.5t26.5 -18.5t44 -9.5l49 -6
q9 -11 6 -28t-14 -23q-129 6 -246 6q-122 0 -217 -6q-12 7 -12.5 24.5t10.5 26.5l45 6q40 6 61 14t42.5 35.5t38 69.5t42.5 125zM715 1229l-144 -469l-10.5 -36t-2 -23.5t4.5 -15.5t17.5 -7.5t28.5 -3.5h44q80 0 156.5 26.5t137 73.5t98.5 117.5t40 152.5q3 120 -66.5 185
t-201.5 65q-40 0 -59 -6t-26.5 -17.5t-16.5 -41.5zM565 -119q58 0 91.5 -41.5t33.5 -95.5q0 -51 -24.5 -96t-64 -75.5t-84.5 -51t-91 -29.5q-8 6 -11 19t1 24q157 77 157 170q0 25 -15.5 43.5t-41.5 22.5q-24 7 -24 45q0 29 21 47t52 18z" />
    <glyph glyph-name="uni0157" unicode="&#x157;" horiz-adv-x="698" 
d="M387 836q36 0 53 -21.5t15.5 -56.5t-7 -62t-14.5 -55l-88 -258h10q46 87 110.5 191t104.5 155q82 107 150 107q33 0 53 -20t24.5 -40t4.5 -41q0 -25 -12.5 -62t-30.5 -61q-13 -16 -26.5 -21t-24.5 3t-15 29q-15 79 -43 79q-25 0 -71 -61q-58 -75 -125.5 -194.5
t-109 -205.5t-114.5 -245q-13 -25 -34 -25q-15 0 -31.5 3.5t-29.5 16.5t-7 34q3 9 50.5 146t92 273.5t68.5 225.5q11 43 -16 43q-65 0 -146 -107q-15 -3 -24.5 6t-8.5 27q117 197 242 197zM115 -119q58 0 91.5 -41.5t33.5 -95.5q0 -98 -81.5 -165t-183.5 -87q-8 6 -11 19
t1 24q158 78 158 170q0 25 -15.5 43.5t-41.5 22.5q-25 7 -25 45q0 29 21.5 47t52.5 18z" />
    <glyph glyph-name="Rcaron" unicode="&#x158;" horiz-adv-x="1175" 
d="M270 295l240 766q31 100 37.5 144t-5.5 58.5t-50 18.5l-78 8q-8 12 -5.5 28.5t15.5 22.5q142 17 348 17q270 0 387 -107q94 -82 94 -233q0 -74 -32.5 -139.5t-85 -110t-113 -73.5t-121.5 -40q-21 -3 -25.5 -13t1.5 -36q46 -189 102 -354q17 -50 26.5 -74.5t26.5 -54.5
t35 -43.5t46.5 -25t68.5 -15.5q9 -9 7 -20.5t-7 -18.5q-50 -6 -129 -6q-80 0 -123 24.5t-68 96.5q-79 236 -121 397q-19 70 -35.5 86t-66.5 16q-56 0 -79.5 -4.5t-34.5 -16.5t-21 -44l-80 -254q-17 -54 -25 -84t-13.5 -60t-3 -44.5t12 -27.5t26.5 -18.5t44 -9.5l49 -6
q9 -11 6 -28t-14 -23q-129 6 -246 6q-122 0 -217 -6q-12 7 -12.5 24.5t10.5 26.5l45 6q40 6 61 14t42.5 35.5t38 69.5t42.5 125zM715 1229l-144 -469l-10.5 -36t-2 -23.5t4.5 -15.5t17.5 -7.5t28.5 -3.5h44q80 0 156.5 26.5t137 73.5t98.5 117.5t40 152.5q3 120 -66.5 185
t-201.5 65q-40 0 -59 -6t-26.5 -17.5t-16.5 -41.5zM1204 1686l-282 -222q-29 -18 -48 -18t-34 18l-181 222q-1 11 10 22t23 14l174 -129q19 -14 35 -14q13 0 33 10l252 133q10 0 15 -12t3 -24z" />
    <glyph glyph-name="rcaron" unicode="&#x159;" horiz-adv-x="698" 
d="M387 836q36 0 53 -21.5t15.5 -56.5t-7 -62t-14.5 -55l-88 -258h10q46 87 110.5 191t104.5 155q82 107 150 107q33 0 53 -20t24.5 -40t4.5 -41q0 -25 -12.5 -62t-30.5 -61q-13 -16 -26.5 -21t-24.5 3t-15 29q-15 79 -43 79q-25 0 -71 -61q-58 -75 -125.5 -194.5
t-109 -205.5t-114.5 -245q-13 -25 -34 -25q-15 0 -31.5 3.5t-29.5 16.5t-7 34q3 9 50.5 146t92 273.5t68.5 225.5q11 43 -16 43q-65 0 -146 -107q-15 -3 -24.5 6t-8.5 27q117 197 242 197zM537 975l-72 332q3 11 15.5 17t25.5 3l88 -178q16 -30 20 -31q11 0 33 25l187 188
q11 3 22.5 -6t11.5 -22l-256 -336q-25 -31 -47 -31q-19 0 -28 39z" />
    <glyph glyph-name="Sacute" unicode="&#x15a;" horiz-adv-x="964" 
d="M432 -33q-115 0 -211 36.5t-147 107.5q-4 55 6.5 123t30.5 114q9 8 22.5 7t20.5 -11q11 -144 84 -228.5t219 -84.5q52 0 102.5 17t95.5 50t73 90.5t28 130.5q0 44 -11.5 84t-28.5 69.5t-46.5 62t-54.5 54t-64 52.5q-213 173 -213 356q0 169 123 278t325 109
q90 0 172.5 -26t124.5 -55q-10 -18 -21.5 -50.5t-19 -58.5t-19 -70.5t-15.5 -58.5q-11 -9 -29 -8t-27 10q24 114 -20 184t-172 70q-133 0 -205 -75t-72 -187q0 -48 19 -94t54.5 -85.5t61.5 -63t64 -52.5q106 -81 163.5 -168.5t57.5 -204.5q0 -185 -130 -304.5t-341 -119.5z
M1042 1571l-294 -125q-10 3 -16.5 16.5t-2.5 24.5l250 201q27 24 47 24q10 0 23.5 -10t23.5 -29q24 -47 12 -71q-10 -17 -43 -31z" />
    <glyph glyph-name="sacute" unicode="&#x15b;" horiz-adv-x="536" 
d="M461 836q53 0 88 -37.5t35 -79.5q0 -45 -37 -64q-22 -6 -39 17q-24 24 -35 34t-35.5 20.5t-54.5 10.5q-40 0 -62 -27t-22 -55q0 -35 14 -75t56 -111q32 -53 45 -79.5t23.5 -65.5t8.5 -82q-4 -108 -106 -197q-83 -74 -207 -74q-55 0 -90 35t-35 74q0 33 31 67
q12 11 27.5 11t27.5 -11q25 -29 65.5 -55t76.5 -26q38 0 68 34t30 82q0 58 -76 180q-72 117 -72 191q0 60 28.5 109t94.5 106q40 34 83 51t69 17zM705 1153l-259 -227q-11 0 -21.5 8t-10.5 18l192 293q26 44 49 41q27 0 58 -31q29 -29 26 -53q0 -22 -34 -49z" />
    <glyph glyph-name="uni015E" unicode="&#x15e;" horiz-adv-x="964" 
d="M319 -170l103 137q-112 2 -205.5 38.5t-142.5 105.5q-4 55 6.5 123t30.5 114q9 8 22.5 7t20.5 -11q11 -144 84 -228.5t219 -84.5q52 0 102.5 17t95.5 50t73 90.5t28 130.5q0 44 -11.5 84t-28.5 69.5t-46.5 62t-54.5 54t-64 52.5q-213 173 -213 356q0 169 123 278t325 109
q90 0 172.5 -26t124.5 -55q-10 -18 -21.5 -50.5t-19 -58.5t-19 -70.5t-15.5 -58.5q-11 -9 -29 -8t-27 10q24 114 -20 184t-172 70q-133 0 -205 -75t-72 -187q0 -48 19 -94t54.5 -85.5t61.5 -63t64 -52.5q106 -81 163.5 -168.5t57.5 -204.5q0 -171 -111.5 -287t-297.5 -131
l-41 -53q-24 -32 2 -53q80 -66 80 -125q0 -69 -64 -117.5t-141 -48.5q-50 0 -76.5 18.5t-26.5 47.5q0 17 14.5 33t37.5 16q20 0 49 -29q31 -31 43 -31q21 0 39 15.5t18 48.5q0 36 -30.5 70.5t-78.5 56.5v8z" />
    <glyph glyph-name="uni015F" unicode="&#x15f;" horiz-adv-x="536" 
d="M43 -190l121 163q-8 -2 -31 -2q-55 0 -90 35t-35 74q0 33 31 67q12 11 27.5 11t27.5 -11q25 -29 65.5 -55t76.5 -26q38 0 68 34t30 82q0 58 -76 180q-72 117 -72 191q0 60 28.5 109t94.5 106q40 34 83 51t69 17q53 0 88 -37.5t35 -79.5q0 -45 -37 -64q-22 -6 -39 17
q-24 24 -35 34t-35.5 20.5t-54.5 10.5q-40 0 -62 -27t-22 -55q0 -35 14 -75t56 -111q32 -53 45 -79.5t23.5 -65.5t8.5 -82q-4 -108 -106 -197q-41 -38 -96 -53l-68 -92q-22 -28 10 -54q76 -62 76 -133q0 -64 -66 -110.5t-143 -46.5q-50 0 -76 18t-26 47q0 17 14 33t37 16
q21 0 49 -28q31 -31 43 -31q22 0 40 15t18 48q0 36 -30.5 70.5t-78.5 56.5v9z" />
    <glyph glyph-name="Scaron" unicode="&#x160;" horiz-adv-x="964" 
d="M432 -33q-115 0 -211 36.5t-147 107.5q-4 55 6.5 123t30.5 114q9 8 22.5 7t20.5 -11q11 -144 84 -228.5t219 -84.5q52 0 102.5 17t95.5 50t73 90.5t28 130.5q0 44 -11.5 84t-28.5 69.5t-46.5 62t-54.5 54t-64 52.5q-213 173 -213 356q0 169 123 278t325 109
q90 0 172.5 -26t124.5 -55q-10 -18 -21.5 -50.5t-19 -58.5t-19 -70.5t-15.5 -58.5q-11 -9 -29 -8t-27 10q24 114 -20 184t-172 70q-133 0 -205 -75t-72 -187q0 -48 19 -94t54.5 -85.5t61.5 -63t64 -52.5q106 -81 163.5 -168.5t57.5 -204.5q0 -185 -130 -304.5t-341 -119.5z
M1104 1686l-283 -222q-29 -18 -47 -18q-20 0 -35 18l-180 222q-1 11 10 22t23 14l174 -129q19 -14 35 -14q13 0 33 10l251 133q10 0 15.5 -12t3.5 -24z" />
    <glyph glyph-name="scaron" unicode="&#x161;" horiz-adv-x="536" 
d="M461 836q53 0 88 -37.5t35 -79.5q0 -45 -37 -64q-22 -6 -39 17q-24 24 -35 34t-35.5 20.5t-54.5 10.5q-40 0 -62 -27t-22 -55q0 -35 14 -75t56 -111q32 -53 45 -79.5t23.5 -65.5t8.5 -82q-4 -108 -106 -197q-83 -74 -207 -74q-55 0 -90 35t-35 74q0 33 31 67
q12 11 27.5 11t27.5 -11q25 -29 65.5 -55t76.5 -26q38 0 68 34t30 82q0 58 -76 180q-72 117 -72 191q0 60 28.5 109t94.5 106q40 34 83 51t69 17zM401 967l-71 331q3 11 15.5 17.5t25.5 3.5l88 -178q16 -30 20 -31q11 0 33 25l186 188q11 3 23 -6.5t12 -22.5l-256 -336
q-24 -30 -47 -30q-20 0 -29 39z" />
    <glyph glyph-name="uni0162" unicode="&#x162;" horiz-adv-x="1298" 
d="M422 -170l127 170q-100 0 -232 -6q-12 7 -12.5 24.5t10.5 26.5l80 6q48 3 74.5 20.5t51.5 67t59 156.5l282 903q12 36 16 52.5t-2.5 26t-17 10.5t-39.5 1h-135q-76 0 -124.5 -8.5t-88 -34.5t-64 -54t-67.5 -87q-15 -6 -29.5 0t-17.5 20q89 143 147 275q6 7 19.5 7
t19.5 -7q-5 -28 25 -37.5t123 -9.5h757q80 0 112.5 8.5t62.5 38.5q7 3 19 0t15 -10q-29 -50 -67.5 -148.5t-48.5 -142.5q-6 -10 -22.5 -10t-24.5 10q2 35 2.5 55t-1 42.5t-6 34t-14.5 24t-24 17.5t-36.5 10t-49.5 6t-66 1h-125q-49 0 -61 -12t-33 -78l-283 -903
q-20 -64 -29 -98.5t-13 -66t4.5 -45.5t26 -23t48.5 -11l76 -6q13 -10 11 -27.5t-19 -23.5q-135 6 -222 6l-61 -80q-24 -32 2 -53q80 -66 80 -125q0 -69 -64 -117.5t-141 -48.5q-50 0 -76 18.5t-26 47.5q0 17 14 33t37 16q20 0 49 -29q31 -31 43 -31q21 0 39 15.5t18 48.5
q0 36 -30 70.5t-78 56.5v8z" />
    <glyph glyph-name="uni0163" unicode="&#x163;" horiz-adv-x="581" 
d="M696 727h-223l-190 -557q-16 -51 14 -51q23 0 102.5 62.5t130.5 121.5q35 0 29 -37q-61 -90 -147 -162.5t-162 -107.5l-70 -96q-22 -28 10 -54q76 -62 76 -133q0 -64 -66 -110.5t-143 -46.5q-50 0 -76 18t-26 47q0 17 14 33t37 16q21 0 49 -28q31 -31 43 -31q22 0 40 15
t18 48q0 36 -30.5 70.5t-78.5 56.5v9l119 161q-21 0 -38 18t-17 38q0 31 28 116l199 584h-160q-3 16 3 33.5t20 23.5l164 29l114 203q15 9 40.5 6t37.5 -18l-59 -201h223q11 -15 3 -40.5t-28 -35.5z" />
    <glyph glyph-name="Tcaron" unicode="&#x164;" horiz-adv-x="1298" 
d="M627 1352h757q80 0 112.5 8.5t62.5 38.5q7 3 19 0t15 -10q-29 -50 -67.5 -148.5t-48.5 -142.5q-6 -10 -22.5 -10t-24.5 10q2 35 2.5 55t-1 42.5t-6 34t-14.5 24t-24 17.5t-36.5 10t-49.5 6t-66 1h-125q-49 0 -61 -12t-33 -78l-283 -903q-20 -64 -29 -98.5t-13 -66
t4.5 -45.5t26 -23t48.5 -11l76 -6q13 -10 11 -27.5t-19 -23.5q-166 6 -271 6q-106 0 -250 -6q-12 7 -12.5 24.5t10.5 26.5l80 6q48 3 74.5 20.5t51.5 67t59 156.5l282 903q12 36 16 52.5t-2.5 26t-17 10.5t-39.5 1h-135q-76 0 -124.5 -8.5t-88 -34.5t-64 -54t-67.5 -87
q-15 -6 -29.5 0t-17.5 20q89 143 147 275q6 7 19.5 7t19.5 -7q-5 -28 25 -37.5t123 -9.5zM1327 1686l-283 -222q-29 -18 -47 -18q-19 0 -34 18l-181 222q-1 11 10 22t23 14l174 -129q19 -14 35 -14q13 0 33 10l252 133q10 0 15 -12t3 -24z" />
    <glyph glyph-name="tcaron" unicode="&#x165;" horiz-adv-x="581" 
d="M885 1464q45 0 16 -106q-29 -99 -96.5 -185t-138.5 -131q-20 -6 -30.5 6.5t1.5 26.5q4 4 20.5 23t23.5 27.5t21.5 27t22.5 31.5t16.5 30t12.5 33q6 25 -9 76q-10 30 -6 47q7 24 55.5 59t90.5 35zM696 727h-223l-190 -557q-16 -51 14 -51q23 0 102.5 62.5t130.5 121.5
q35 0 29 -37q-82 -121 -203 -208t-190 -87q-21 0 -38 18t-17 38q0 31 28 116l199 584h-160q-3 16 3 33.5t20 23.5l164 29l114 203q15 9 40.5 6t37.5 -18l-59 -201h223q11 -15 3 -40.5t-28 -35.5z" />
    <glyph glyph-name="Umacron" unicode="&#x16a;" horiz-adv-x="1503" 
d="M326 545l159 512q17 56 25 84.5t13.5 59.5t2.5 44t-13.5 26t-28 18.5t-46.5 10.5l-51 9q-9 9 -7 26t15 23q129 -6 240 -6q102 0 252 6q11 -6 11 -24t-13 -25l-58 -9q-23 -3 -39 -6t-31 -11t-24 -13t-20.5 -22t-17 -28.5t-17 -42t-18 -52t-21.5 -68.5l-147 -473
q-167 -543 266 -543q83 0 154.5 29t123.5 76t96.5 115.5t74.5 136.5t57 151l94 289q63 194 82 317q7 45 8.5 74.5t-18 46.5t-68.5 24l-57 9q-9 10 -6.5 26.5t14.5 22.5q150 -6 219 -6q101 0 221 6q12 -8 12 -25t-12 -24l-47 -9q-40 -7 -63.5 -16t-41.5 -28.5t-29 -41
t-28 -65.5q-21 -55 -100 -311l-94 -301q-97 -303 -240 -428q-77 -68 -181.5 -105t-205.5 -37q-280 0 -382.5 148t-14.5 430zM1294 1479h-391q-13 19 -13 50t13 50h391q15 -19 15 -50t-15 -50z" />
    <glyph glyph-name="umacron" unicode="&#x16b;" horiz-adv-x="1015" 
d="M535 774l-230 -598q-26 -70 14 -70q47 0 220 170q53 52 100.5 112.5t88.5 126.5t66.5 111t60.5 112.5t44 84.5q32 6 63 -6t37 -31q-5 -14 -48.5 -126t-98 -256t-92.5 -252q-19 -52 8 -52t92 53.5t109 106.5q15 3 25.5 -4t11.5 -25q-43 -79 -162 -169.5t-197 -90.5
q-25 0 -42.5 24t-8.5 48l139 375l-4 2q-80 -101 -173 -199.5t-190 -174t-149 -75.5q-60 0 -74 53.5t15 120.5l188 498q21 59 0 59q-27 0 -88.5 -47.5t-105.5 -93.5q-15 -3 -26 7t-9 24q44 68 165.5 156t188.5 88q24 0 47 -19t15 -43zM913 1026h-378q-15 19 -14 55.5t16 55.5
h378q13 -19 12.5 -55.5t-14.5 -55.5z" />
    <glyph glyph-name="Uring" unicode="&#x16e;" horiz-adv-x="1503" 
d="M326 545l159 512q17 56 25 84.5t13.5 59.5t2.5 44t-13.5 26t-28 18.5t-46.5 10.5l-51 9q-9 9 -7 26t15 23q129 -6 240 -6q102 0 252 6q11 -6 11 -24t-13 -25l-58 -9q-23 -3 -39 -6t-31 -11t-24 -13t-20.5 -22t-17 -28.5t-17 -42t-18 -52t-21.5 -68.5l-147 -473
q-167 -543 266 -543q83 0 154.5 29t123.5 76t96.5 115.5t74.5 136.5t57 151l94 289q63 194 82 317q7 45 8.5 74.5t-18 46.5t-68.5 24l-57 9q-9 10 -6.5 26.5t14.5 22.5q150 -6 219 -6q101 0 221 6q12 -8 12 -25t-12 -24l-47 -9q-40 -7 -63.5 -16t-41.5 -28.5t-29 -41
t-28 -65.5q-21 -55 -100 -311l-94 -301q-97 -303 -240 -428q-77 -68 -181.5 -105t-205.5 -37q-280 0 -382.5 148t-14.5 430zM1124 1778q74 0 124 -50t50 -116q0 -68 -49.5 -117t-124.5 -49t-124.5 49t-49.5 117q0 66 50 116t124 50zM1032 1612q0 -47 26.5 -78t65.5 -31
q40 0 66.5 31t26.5 78q0 46 -26.5 76t-66.5 30q-39 0 -65.5 -30.5t-26.5 -75.5z" />
    <glyph glyph-name="uring" unicode="&#x16f;" horiz-adv-x="1015" 
d="M535 774l-230 -598q-26 -70 14 -70q47 0 220 170q53 52 100.5 112.5t88.5 126.5t66.5 111t60.5 112.5t44 84.5q32 6 63 -6t37 -31q-5 -14 -48.5 -126t-98 -256t-92.5 -252q-19 -52 8 -52t92 53.5t109 106.5q15 3 25.5 -4t11.5 -25q-43 -79 -162 -169.5t-197 -90.5
q-25 0 -42.5 24t-8.5 48l139 375l-4 2q-80 -101 -173 -199.5t-190 -174t-149 -75.5q-60 0 -74 53.5t15 120.5l188 498q21 59 0 59q-27 0 -88.5 -47.5t-105.5 -93.5q-15 -3 -26 7t-9 24q44 68 165.5 156t188.5 88q24 0 47 -19t15 -43zM729 1280q75 0 124.5 -50t49.5 -116
q0 -68 -49.5 -117t-124.5 -49t-124.5 49t-49.5 117q0 66 49.5 116t124.5 50zM637 1114q0 -47 26.5 -77.5t65.5 -30.5q40 0 66 30.5t26 77.5q0 46 -26 76.5t-66 30.5q-39 0 -65.5 -31t-26.5 -76z" />
    <glyph glyph-name="Uhungarumlaut" unicode="&#x170;" horiz-adv-x="1503" 
d="M326 545l159 512q17 56 25 84.5t13.5 59.5t2.5 44t-13.5 26t-28 18.5t-46.5 10.5l-51 9q-9 9 -7 26t15 23q129 -6 240 -6q102 0 252 6q11 -6 11 -24t-13 -25l-58 -9q-23 -3 -39 -6t-31 -11t-24 -13t-20.5 -22t-17 -28.5t-17 -42t-18 -52t-21.5 -68.5l-147 -473
q-167 -543 266 -543q83 0 154.5 29t123.5 76t96.5 115.5t74.5 136.5t57 151l94 289q63 194 82 317q7 45 8.5 74.5t-18 46.5t-68.5 24l-57 9q-9 10 -6.5 26.5t14.5 22.5q150 -6 219 -6q101 0 221 6q12 -8 12 -25t-12 -24l-47 -9q-40 -7 -63.5 -16t-41.5 -28.5t-29 -41
t-28 -65.5q-21 -55 -100 -311l-94 -301q-97 -303 -240 -428q-77 -68 -181.5 -105t-205.5 -37q-280 0 -382.5 148t-14.5 430zM1327 1712q17 0 51 -24q22 -17 28.5 -34.5t-3.5 -27.5l-39 -39l-150 -141q-15 3 -25 12.5t-7 20.5l96 196q10 21 20.5 29t28.5 8zM1061 1712
q23 0 53 -26q35 -31 21 -56q-12 -18 -37 -43l-150 -141q-15 3 -25.5 12.5t-7.5 20.5l97 196q10 21 20.5 29t28.5 8z" />
    <glyph glyph-name="uhungarumlaut" unicode="&#x171;" horiz-adv-x="1015" 
d="M535 774l-230 -598q-26 -70 14 -70q47 0 220 170q53 52 100.5 112.5t88.5 126.5t66.5 111t60.5 112.5t44 84.5q32 6 63 -6t37 -31q-5 -14 -48.5 -126t-98 -256t-92.5 -252q-19 -52 8 -52t92 53.5t109 106.5q15 3 25.5 -4t11.5 -25q-43 -79 -162 -169.5t-197 -90.5
q-25 0 -42.5 24t-8.5 48l139 375l-4 2q-80 -101 -173 -199.5t-190 -174t-149 -75.5q-60 0 -74 53.5t15 120.5l188 498q21 59 0 59q-27 0 -88.5 -47.5t-105.5 -93.5q-15 -3 -26 7t-9 24q44 68 165.5 156t188.5 88q24 0 47 -19t15 -43zM774 1178l-186 -250q-26 0 -29 22
l107 289q12 35 22 49.5t27 14.5q26 0 51 -19q35 -24 35 -47q0 -20 -27 -59zM1040 1178l-186 -250q-26 0 -29 22l107 289q12 35 22 49.5t27 14.5q26 0 51 -19q35 -24 35 -47q0 -20 -27 -59z" />
    <glyph glyph-name="Uogonek" unicode="&#x172;" horiz-adv-x="1503" 
d="M1444 838l-94 -301q-70 -223 -166 -349t-246 -182q-72 -24 -136.5 -99t-64.5 -140q0 -44 25.5 -67.5t66.5 -23.5q71 0 115 29q19 -5 14 -43q-40 -46 -99 -69t-111 -23q-86 0 -125 42.5t-39 102.5q0 72 63.5 141t159.5 121q-31 -8 -117 -8q-262 7 -355.5 154.5t-8.5 421.5
l159 512q17 56 25 84.5t13.5 59.5t2.5 44t-13.5 26t-28 18.5t-46.5 10.5l-51 9q-9 9 -7 26t15 23q129 -6 240 -6q102 0 252 6q11 -6 11 -24t-13 -25l-58 -9q-23 -3 -39 -6t-31 -11t-24 -13t-20.5 -22t-17 -28.5t-17 -42t-18 -52t-21.5 -68.5l-147 -473q-29 -96 -41 -174
t-2.5 -148t43 -117t100 -74.5t164.5 -27.5q83 0 154.5 29t124 75.5t97.5 114.5t75 136.5t57 150.5l94 289q63 194 82 317q7 45 8.5 74.5t-18 46.5t-68.5 24l-57 9q-9 10 -6.5 26.5t14.5 22.5q150 -6 219 -6q101 0 221 6q12 -8 12 -25t-12 -24l-47 -9q-40 -7 -63.5 -16
t-41.5 -28.5t-29 -41t-28 -65.5q-21 -55 -100 -311z" />
    <glyph glyph-name="uogonek" unicode="&#x173;" horiz-adv-x="1015" 
d="M535 774l-230 -598q-26 -70 14 -70q47 0 220 170q53 52 100.5 112.5t88.5 126.5t66.5 111t60.5 112.5t44 84.5q32 6 63 -6t37 -31q-5 -14 -48.5 -126t-98 -256t-92.5 -252q-19 -52 8 -52t91 52.5t114 107.5q12 3 22 -4t11 -25q-3 -6 -7 -12.5t-11 -14.5t-11 -13
t-15 -15.5t-14.5 -14t-17.5 -16.5t-17 -16q-161 -157 -215 -222q-82 -100 -82 -159q0 -35 22 -54.5t62 -19.5q70 0 105 23q17 -5 14 -31q-40 -47 -94 -70.5t-104 -23.5q-64 0 -100 34.5t-36 84.5q0 38 17 75.5t62 85.5t71.5 72.5t97.5 84.5q15 13 23 20q-98 -58 -119 -58
q-24 0 -37 23.5t-4 48.5l139 375l-4 2q-80 -101 -173 -199.5t-190 -174t-149 -75.5q-60 0 -74 53.5t15 120.5l188 498q21 59 0 59q-27 0 -88.5 -47.5t-105.5 -93.5q-15 -3 -26 7t-9 24q44 68 165.5 156t188.5 88q24 0 47 -19t15 -43z" />
    <glyph glyph-name="Ydieresis" unicode="&#x178;" horiz-adv-x="1155" 
d="M612 1186l105 -481q8 -38 19 -39t42 36l252 304q197 240 197 258q0 24 -60 34l-51 9q-11 9 -9.5 26.5t13.5 24.5q120 -6 213 -6q83 0 185 6q10 -6 10 -24t-10 -27l-43 -9q-83 -17 -115 -47q-33 -30 -94.5 -94t-106.5 -117l-233 -274q-110 -128 -142 -179.5t-69 -168.5
l-39 -123q-18 -56 -27.5 -89t-14.5 -63t-2.5 -44.5t13 -26t26.5 -15.5t44 -6l73 -6q10 -8 7.5 -27t-13.5 -24q-172 6 -274 6q-106 0 -244 -6q-12 7 -12.5 25.5t10.5 25.5l74 6q26 2 42.5 6t33 15.5t27 25t24.5 44.5t25.5 63t31.5 90l41 121q28 81 31 123t-17 139l-102 444
q-23 101 -43.5 134t-73.5 42l-51 9q-9 11 -6 28t12 23q114 -6 217 -6q121 0 220 6q9 -8 9.5 -25t-9.5 -26l-60 -9q-58 -8 -73.5 -30t-2.5 -82zM778 1444q-35 0 -54 21t-19 55q0 46 29 77t67 31q34 0 55 -23.5t21 -54.5q0 -48 -30 -77t-69 -29zM1135 1444q-35 0 -54.5 21
t-19.5 55q0 46 29 77t67 31q34 0 55 -23.5t21 -54.5q0 -49 -29 -77.5t-69 -28.5z" />
    <glyph glyph-name="Zacute" unicode="&#x179;" horiz-adv-x="1230" 
d="M1145 1571l-295 -125q-10 3 -16.5 16.5t-2.5 24.5l250 201q27 24 47 24q10 0 24 -10t24 -29q24 -47 12 -71q-10 -17 -43 -31zM246 297l899 936q43 43 -13 52q-18 3 -45 3h-313q-118 0 -180.5 -15t-110.5 -56t-112 -134q-15 -8 -29.5 -0.5t-17.5 25.5q70 117 122 295
q4 5 12 5t13 -5q7 -36 39.5 -43.5t157.5 -7.5h546q166 0 220 6q20 -3 16 -25q-13 -8 -35.5 -28t-54.5 -51t-62.5 -61t-73 -74t-72 -74.5t-75 -77.5t-65.5 -68l-469 -487q-277 -298 -277 -314q0 -10 11.5 -17t54.5 -12.5t119 -5.5h180q148 0 237.5 9t143.5 37q40 22 86.5 72
t81.5 110q9 6 23.5 0t17.5 -17q-17 -63 -62.5 -152.5t-79.5 -127.5q-109 6 -403 6h-479q-147 0 -226 -6q-7 3 -10 14.5t2 18.5q73 55 283 270z" />
    <glyph glyph-name="zacute" unicode="&#x17a;" horiz-adv-x="831" 
d="M4 29q0 22 24.5 51.5t94.5 93.5q191 173 498 463q16 18 10.5 27t-35.5 18q-124 41 -234 41q-27 0 -45.5 -8.5t-27 -21.5t-12 -23.5t-3.5 -20.5q0 -45 33 -78q0 -20 -18.5 -38.5t-52.5 -18.5q-36 0 -56 23t-20 53q0 62 92 147q92 82 213 82q57 0 131 -20q8 -3 34.5 -11
t40.5 -12t35.5 -8t38.5 -4q13 0 25 2.5t21 5t18.5 8.5t15 10t13.5 12.5t10.5 11.5t9.5 12t8 10q23 3 39 -9.5t13 -31.5q-17 -16 -152 -136t-268.5 -244t-247.5 -241l2 -6q18 1 36 -0.5t32.5 -4t34 -8.5t31 -9.5t32.5 -12.5t29.5 -12.5t31.5 -14.5t29 -14q88 -39 129 -39
q35 0 64.5 27t29.5 67q0 32 -20 99q-10 26 0 39.5t20 17.5t21 4q40 0 64 -33t24 -71q0 -41 -29.5 -90.5t-77.5 -87.5q-92 -72 -164 -72q-13 0 -29.5 3t-28.5 6t-31.5 10t-27 10t-28.5 12t-23 10q-21 9 -55.5 25t-55 25t-45 16.5t-42.5 7.5q-50 0 -76.5 -25.5t-42.5 -81.5
q-32 -3 -51.5 7.5t-24 23t-4.5 27.5zM809 1155l-258 -227q-11 0 -22 8t-11 18l193 293q26 44 49 41q26 0 57 -31q30 -30 27 -53q0 -22 -35 -49z" />
    <glyph glyph-name="Zdotaccent" unicode="&#x17b;" horiz-adv-x="1230" 
d="M920 1446q-35 0 -55.5 21.5t-20.5 56.5q0 46 30 77t68 31q35 0 54.5 -23t19.5 -55q0 -50 -28.5 -79t-67.5 -29zM246 297l899 936q43 43 -13 52q-18 3 -45 3h-313q-118 0 -180.5 -15t-110.5 -56t-112 -134q-15 -8 -29.5 -0.5t-17.5 25.5q70 117 122 295q4 5 12 5t13 -5
q7 -36 39.5 -43.5t157.5 -7.5h546q166 0 220 6q20 -3 16 -25q-13 -8 -35.5 -28t-54.5 -51t-62.5 -61t-73 -74t-72 -74.5t-75 -77.5t-65.5 -68l-469 -487q-277 -298 -277 -314q0 -10 11.5 -17t54.5 -12.5t119 -5.5h180q148 0 237.5 9t143.5 37q40 22 86.5 72t81.5 110
q9 6 23.5 0t17.5 -17q-17 -63 -62.5 -152.5t-79.5 -127.5q-109 6 -403 6h-479q-147 0 -226 -6q-7 3 -10 14.5t2 18.5q73 55 283 270z" />
    <glyph glyph-name="zdotaccent" unicode="&#x17c;" horiz-adv-x="831" 
d="M4 29q0 22 24.5 51.5t94.5 93.5q191 173 498 463q16 18 10.5 27t-35.5 18q-124 41 -234 41q-27 0 -45.5 -8.5t-27 -21.5t-12 -23.5t-3.5 -20.5q0 -45 33 -78q0 -20 -18.5 -38.5t-52.5 -18.5q-36 0 -56 23t-20 53q0 62 92 147q92 82 213 82q57 0 131 -20q8 -3 34.5 -11
t40.5 -12t35.5 -8t38.5 -4q13 0 25 2.5t21 5t18.5 8.5t15 10t13.5 12.5t10.5 11.5t9.5 12t8 10q23 3 39 -9.5t13 -31.5q-17 -16 -152 -136t-268.5 -244t-247.5 -241l2 -6q18 1 36 -0.5t32.5 -4t34 -8.5t31 -9.5t32.5 -12.5t29.5 -12.5t31.5 -14.5t29 -14q88 -39 129 -39
q35 0 64.5 27t29.5 67q0 32 -20 99q-10 26 0 39.5t20 17.5t21 4q40 0 64 -33t24 -71q0 -41 -29.5 -90.5t-77.5 -87.5q-92 -72 -164 -72q-13 0 -29.5 3t-28.5 6t-31.5 10t-27 10t-28.5 12t-23 10q-21 9 -55.5 25t-55 25t-45 16.5t-42.5 7.5q-50 0 -76.5 -25.5t-42.5 -81.5
q-32 -3 -51.5 7.5t-24 23t-4.5 27.5zM625 1028q-37 0 -58.5 22.5t-21.5 59.5q0 49 31.5 82t72.5 33q36 0 57 -24.5t21 -57.5q0 -53 -30.5 -84t-71.5 -31z" />
    <glyph glyph-name="Zcaron" unicode="&#x17d;" horiz-adv-x="1230" 
d="M246 297l899 936q43 43 -13 52q-18 3 -45 3h-313q-118 0 -180.5 -15t-110.5 -56t-112 -134q-15 -8 -29.5 -0.5t-17.5 25.5q70 117 122 295q4 5 12 5t13 -5q7 -36 39.5 -43.5t157.5 -7.5h546q166 0 220 6q20 -3 16 -25q-13 -8 -35.5 -28t-54.5 -51t-62.5 -61t-73 -74
t-72 -74.5t-75 -77.5t-65.5 -68l-469 -487q-277 -298 -277 -314q0 -10 11.5 -17t54.5 -12.5t119 -5.5h180q148 0 237.5 9t143.5 37q40 22 86.5 72t81.5 110q9 6 23.5 0t17.5 -17q-17 -63 -62.5 -152.5t-79.5 -127.5q-109 6 -403 6h-479q-147 0 -226 -6q-7 3 -10 14.5t2 18.5
q73 55 283 270zM1210 1686l-282 -222q-29 -18 -47 -18q-20 0 -35 18l-180 222q-1 11 9.5 22t22.5 14l174 -129q19 -14 35 -14q13 0 33 10l252 133q10 0 15 -12t3 -24z" />
    <glyph glyph-name="zcaron" unicode="&#x17e;" horiz-adv-x="831" 
d="M4 29q0 22 24.5 51.5t94.5 93.5q191 173 498 463q16 18 10.5 27t-35.5 18q-124 41 -234 41q-27 0 -45.5 -8.5t-27 -21.5t-12 -23.5t-3.5 -20.5q0 -45 33 -78q0 -20 -18.5 -38.5t-52.5 -18.5q-36 0 -56 23t-20 53q0 62 92 147q92 82 213 82q57 0 131 -20q8 -3 34.5 -11
t40.5 -12t35.5 -8t38.5 -4q13 0 25 2.5t21 5t18.5 8.5t15 10t13.5 12.5t10.5 11.5t9.5 12t8 10q23 3 39 -9.5t13 -31.5q-17 -16 -152 -136t-268.5 -244t-247.5 -241l2 -6q18 1 36 -0.5t32.5 -4t34 -8.5t31 -9.5t32.5 -12.5t29.5 -12.5t31.5 -14.5t29 -14q88 -39 129 -39
q35 0 64.5 27t29.5 67q0 32 -20 99q-10 26 0 39.5t20 17.5t21 4q40 0 64 -33t24 -71q0 -41 -29.5 -90.5t-77.5 -87.5q-92 -72 -164 -72q-13 0 -29.5 3t-28.5 6t-31.5 10t-27 10t-28.5 12t-23 10q-21 9 -55.5 25t-55 25t-45 16.5t-42.5 7.5q-50 0 -76.5 -25.5t-42.5 -81.5
q-32 -3 -51.5 7.5t-24 23t-4.5 27.5zM543 969l-72 331q3 11 15.5 17.5t25.5 3.5l88 -178q15 -31 21 -31q10 0 32 25l187 188q11 3 22.5 -6.5t11.5 -22.5l-256 -335q-25 -31 -47 -31q-19 0 -28 39z" />
    <glyph glyph-name="florin" unicode="&#x192;" horiz-adv-x="1024" 
d="M424 874h188q61 185 117 283q61 106 163 188t212 82q63 0 98.5 -33t32.5 -71q-4 -34 -31.5 -60t-44.5 -26t-26 8t-21 29q-21 37 -40 52t-50 15q-36 0 -71.5 -37t-67.5 -105.5t-59 -146t-56 -178.5h236q13 -9 10.5 -33t-19.5 -34h-252q-39 -120 -96 -322
q-58 -205 -114 -343t-100 -203t-95 -107q-101 -82 -201 -82q-63 0 -93 37.5t-24 93.5q4 29 18 47.5t25 18.5t25.5 -10t22.5 -21q29 -29 64 -50.5t61 -21.5q22 0 42.5 19.5t51.5 87.5t65 186q12 40 48.5 165t74.5 256t72 249h-174q-9 8 -6 33t14 34z" />
    <glyph glyph-name="uni0218" unicode="&#x218;" horiz-adv-x="964" 
d="M432 -33q-115 0 -211 36.5t-147 107.5q-4 55 6.5 123t30.5 114q9 8 22.5 7t20.5 -11q11 -144 84 -228.5t219 -84.5q52 0 102.5 17t95.5 50t73 90.5t28 130.5q0 44 -11.5 84t-28.5 69.5t-46.5 62t-54.5 54t-64 52.5q-213 173 -213 356q0 169 123 278t325 109
q90 0 172.5 -26t124.5 -55q-10 -18 -21.5 -50.5t-19 -58.5t-19 -70.5t-15.5 -58.5q-11 -9 -29 -8t-27 10q24 114 -20 184t-172 70q-133 0 -205 -75t-72 -187q0 -48 19 -94t54.5 -85.5t61.5 -63t64 -52.5q106 -81 163.5 -168.5t57.5 -204.5q0 -185 -130 -304.5t-341 -119.5z
M358 -119q58 0 91.5 -41.5t33.5 -95.5q0 -51 -24.5 -96t-64 -75.5t-84.5 -51t-91 -29.5q-8 6 -11 19t1 24q158 78 158 170q0 25 -16 43.5t-42 22.5q-24 7 -24 45q0 29 21 47t52 18z" />
    <glyph glyph-name="uni0219" unicode="&#x219;" horiz-adv-x="536" 
d="M461 836q53 0 88 -37.5t35 -79.5q0 -45 -37 -64q-22 -6 -39 17q-24 24 -35 34t-35.5 20.5t-54.5 10.5q-40 0 -62 -27t-22 -55q0 -35 14 -75t56 -111q32 -53 45 -79.5t23.5 -65.5t8.5 -82q-4 -108 -106 -197q-83 -74 -207 -74q-55 0 -90 35t-35 74q0 33 31 67
q12 11 27.5 11t27.5 -11q25 -29 65.5 -55t76.5 -26q38 0 68 34t30 82q0 58 -76 180q-72 117 -72 191q0 60 28.5 109t94.5 106q40 34 83 51t69 17zM102 -119q58 0 91.5 -41.5t33.5 -95.5q0 -51 -24.5 -96t-64 -75.5t-84.5 -51t-91 -29.5q-8 6 -11 19t1 24q158 78 158 170
q0 25 -16 43.5t-42 22.5q-24 7 -24 45q0 29 21 47t52 18z" />
    <glyph glyph-name="uni021A" unicode="&#x21a;" horiz-adv-x="1298" 
d="M627 1352h757q80 0 112.5 8.5t62.5 38.5q7 3 19 0t15 -10q-29 -50 -67.5 -148.5t-48.5 -142.5q-6 -10 -22.5 -10t-24.5 10q2 35 2.5 55t-1 42.5t-6 34t-14.5 24t-24 17.5t-36.5 10t-49.5 6t-66 1h-125q-49 0 -61 -12t-33 -78l-283 -903q-20 -64 -29 -98.5t-13 -66
t4.5 -45.5t26 -23t48.5 -11l76 -6q13 -10 11 -27.5t-19 -23.5q-166 6 -271 6q-106 0 -250 -6q-12 7 -12.5 24.5t10.5 26.5l80 6q48 3 74.5 20.5t51.5 67t59 156.5l282 903q12 36 16 52.5t-2.5 26t-17 10.5t-39.5 1h-135q-76 0 -124.5 -8.5t-88 -34.5t-64 -54t-67.5 -87
q-15 -6 -29.5 0t-17.5 20q89 143 147 275q6 7 19.5 7t19.5 -7q-5 -28 25 -37.5t123 -9.5zM514 -119q58 0 91.5 -41.5t33.5 -95.5q0 -51 -24.5 -96t-64 -75.5t-84.5 -51t-91 -29.5q-8 6 -11 19t1 24q157 77 157 170q0 25 -15.5 43.5t-41.5 22.5q-25 7 -25 45q0 29 21.5 47
t52.5 18z" />
    <glyph glyph-name="uni021B" unicode="&#x21b;" horiz-adv-x="581" 
d="M141 -119q58 0 91.5 -41.5t33.5 -95.5q0 -51 -24.5 -96t-64 -75.5t-84.5 -51t-91 -29.5q-8 6 -11 19t1 24q158 78 158 170q0 25 -16 43.5t-42 22.5q-24 7 -24 45q0 29 21 47t52 18zM696 727h-223l-190 -557q-16 -51 14 -51q23 0 102.5 62.5t130.5 121.5q35 0 29 -37
q-82 -121 -203 -208t-190 -87q-21 0 -38 18t-17 38q0 31 28 116l199 584h-160q-3 16 3 33.5t20 23.5l164 29l114 203q15 9 40.5 6t37.5 -18l-59 -201h223q11 -15 3 -40.5t-28 -35.5z" />
    <glyph glyph-name="circumflex" unicode="&#x2c6;" 
d="M799 1292l78 -331q-5 -11 -17.5 -17.5t-25.5 -3.5l-86 188q-12 27 -19 27q-11 0 -33 -22l-190 -197q-12 -2 -23.5 7t-11.5 22l250 335q25 31 43 31q11 0 21 -10.5t14 -28.5z" />
    <glyph glyph-name="caron" unicode="&#x2c7;" 
d="M623 975l-72 332q3 11 15.5 17t25.5 3l88 -178q16 -30 20 -31q11 0 33 25l187 188q11 3 22.5 -6t11.5 -22l-256 -336q-25 -31 -47 -31q-19 0 -28 39z" />
    <glyph glyph-name="uni02C9" unicode="&#x2c9;" 
d="M838 1053h-379q-15 19 -15 47t15 47h379q14 -19 14 -47t-14 -47z" />
    <glyph glyph-name="breve" unicode="&#x2d8;" 
d="M655 1014q-103 0 -146.5 58.5t-19.5 174.5q8 6 22 6t19 -6q6 -133 144 -133q132 0 188 133q8 6 22 6t19 -6q-37 -233 -248 -233z" />
    <glyph glyph-name="dotaccent" unicode="&#x2d9;" 
d="M623 1038q-37 0 -58.5 22.5t-21.5 59.5q0 49 31.5 82t72.5 33q36 0 57 -24.5t21 -57.5q0 -53 -30.5 -84t-71.5 -31z" />
    <glyph glyph-name="ring" unicode="&#x2da;" 
d="M631 1307q75 0 124.5 -49.5t49.5 -116.5q0 -68 -49.5 -117t-124.5 -49t-124.5 49t-49.5 117q0 67 49.5 116.5t124.5 49.5zM539 1141q0 -47 26.5 -78t65.5 -31q40 0 66 31t26 78q0 46 -26 76t-66 30q-39 0 -65.5 -30.5t-26.5 -75.5z" />
    <glyph glyph-name="ogonek" unicode="&#x2db;" 
d="M426 41h68q-244 -168 -244 -297q0 -35 22 -54.5t62 -19.5q66 0 106 27q19 -6 15 -41q-73 -84 -199 -84q-66 0 -106.5 39t-40.5 96q0 154 317 334z" />
    <glyph glyph-name="tilde" unicode="&#x2dc;" 
d="M563 1194h103q59 0 84.5 12.5t58.5 59.5q7 5 18 2.5t15 -11.5q-9 -36 -30 -76t-42 -61q-32 -30 -92 -30h-100q-60 0 -93.5 -22.5t-62.5 -76.5q-7 -5 -17 -3t-14 11q6 30 27.5 81.5t42.5 70.5q38 43 102 43z" />
    <glyph glyph-name="hungarumlaut" unicode="&#x2dd;" 
d="M727 1190l-186 -250q-11 0 -19.5 6.5t-9.5 16.5l106 288q12 34 22.5 49t27.5 15q26 0 51 -19q35 -24 35 -47q0 -20 -27 -59zM993 1190l-186 -250q-11 0 -19.5 6.5t-9.5 16.5l107 288q12 35 22 49.5t27 14.5q26 0 51 -19q35 -24 35 -47q0 -20 -27 -59z" />
    <glyph glyph-name="pi" unicode="&#x3c0;" horiz-adv-x="1044" 
d="M793 694h-263q-29 -82 -56 -154.5t-45 -117.5t-39.5 -95.5t-30 -69t-26.5 -57t-20 -42.5q-46 -96 -88.5 -141.5t-91.5 -45.5q-55 0 -61 58q0 5 1 10t4.5 10.5t6.5 10t10 11t12 11t15.5 14t17.5 15.5q146 132 314 583q-121 0 -187 -29t-137 -116q-10 -12 -23.5 -5.5
t-3.5 25.5q50 98 75 130q37 47 89 73q65 35 189 35h434q175 0 219 20q7 3 10 2.5t3.5 -4t-1 -7.5t-4.5 -9l-69 -113q-43 -9 -183 -6q-68 -125 -101.5 -223t-53.5 -205q-17 -74 -0.5 -119t71.5 -45q83 0 187 107q5 5 12 -9q7 -13 0 -22q-64 -99 -145 -151t-158 -52
q-51 0 -80 25.5t-34.5 67.5t-1.5 80t15 77q44 168 218 473z" />
    <glyph glyph-name="uni2010" unicode="&#x2010;" horiz-adv-x="655" 
d="M137 471l498 45q15 -20 9.5 -59t-26.5 -58l-497 -45q-15 20 -9.5 59t25.5 58z" />
    <glyph glyph-name="figuredash" unicode="&#x2012;" horiz-adv-x="1024" 
d="M178 696h922l-29 -100h-921z" />
    <glyph glyph-name="endash" unicode="&#x2013;" horiz-adv-x="1024" 
d="M33 471h1057l-33 -100h-1057z" />
    <glyph glyph-name="emdash" unicode="&#x2014;" horiz-adv-x="2048" 
d="M33 471h2081l-33 -100h-2081z" />
    <glyph glyph-name="quoteleft" unicode="&#x2018;" horiz-adv-x="425" 
d="M473 981q-66 0 -103.5 48.5t-37.5 109.5q0 51 28 99t73.5 83.5t96.5 61t103 40.5q9 -5 12.5 -16.5t-0.5 -22.5q-182 -85 -182 -206q0 -56 65 -78q31 -12 31 -43q0 -32 -26 -54t-60 -22z" />
    <glyph glyph-name="quoteright" unicode="&#x2019;" horiz-adv-x="425" 
d="M518 1405q66 0 103.5 -48.5t37.5 -109.5q0 -51 -28 -99t-73.5 -83.5t-96.5 -61t-103 -40.5q-9 5 -12.5 16t0.5 22q182 85 182 207q0 56 -65 78q-31 12 -31 43q0 32 26 54t60 22z" />
    <glyph glyph-name="quotesinglbase" unicode="&#x201a;" horiz-adv-x="425" 
d="M141 233q66 0 104 -48t38 -109q0 -67 -49.5 -128.5t-115 -99t-136.5 -57.5q-9 5 -13 16.5t0 22.5q183 86 183 207q0 55 -66 78q-31 12 -31 43q0 32 25.5 53.5t60.5 21.5z" />
    <glyph glyph-name="quotedblleft" unicode="&#x201c;" horiz-adv-x="778" 
d="M485 981q-66 0 -103.5 48.5t-37.5 109.5q0 51 28 99t73.5 83.5t96.5 61t103 40.5q9 -5 12.5 -16.5t-0.5 -22.5q-182 -85 -182 -206q0 -55 66 -78q30 -11 30 -43t-26 -54t-60 -22zM817 981q-66 0 -103.5 48.5t-37.5 109.5q0 51 28 99t73.5 83.5t96.5 61t103 40.5
q9 -5 12.5 -16.5t-0.5 -22.5q-182 -85 -182 -206q0 -56 65 -78q31 -12 31 -43q0 -32 -26 -54t-60 -22z" />
    <glyph glyph-name="quotedblright" unicode="&#x201d;" horiz-adv-x="778" 
d="M526 1405q66 0 104 -48.5t38 -109.5q0 -51 -28 -99t-73.5 -83.5t-96.5 -61t-103 -40.5q-9 5 -13 16t0 22q183 86 183 207q0 55 -66 78q-31 12 -31 43q0 32 26 54t60 22zM858 1405q66 0 103.5 -48.5t37.5 -109.5q0 -51 -28 -99t-73.5 -83.5t-96.5 -61t-103 -40.5
q-9 5 -12.5 16t0.5 22q182 85 182 207q0 56 -65 78q-31 12 -31 43q0 32 26 54t60 22z" />
    <glyph glyph-name="quotedblbase" unicode="&#x201e;" horiz-adv-x="778" 
d="M147 233q66 0 104 -48t38 -109q0 -67 -49.5 -128.5t-115 -99t-136.5 -57.5q-9 5 -13 16.5t0 22.5q183 86 183 207q0 55 -66 78q-31 12 -31 43q0 32 25.5 53.5t60.5 21.5zM479 233q66 0 104 -48t38 -109q0 -51 -28.5 -99t-74 -83.5t-96.5 -61.5t-103 -41q-9 5 -12.5 16.5
t0.5 22.5q182 85 182 207q0 56 -65 78q-31 12 -31 43q0 32 25.5 53.5t60.5 21.5z" />
    <glyph glyph-name="dagger" unicode="&#x2020;" horiz-adv-x="956" 
d="M385 -260h-70l82 280q48 165 65 282.5t17 234.5q61 55 97 131t81 225q-54 0 -107.5 -14.5t-94 -29.5t-64.5 -15q-42 0 -66.5 26t-15.5 66q9 38 38.5 60t72.5 22q29 0 66 -15t84.5 -30t101.5 -15q23 78 32.5 140t6.5 91.5t-3.5 61.5t3.5 49q8 38 39.5 66t74.5 28
q48 0 65 -31.5t7 -70.5q-7 -24 -25 -53t-38 -57t-47 -87.5t-50 -136.5q69 0 157 30t116 30q40 0 61 -25.5t12 -64.5q-9 -38 -38.5 -61t-69.5 -23q-31 0 -107 29.5t-145 29.5q-31 -103 -43.5 -159.5t-12 -107.5t20.5 -89q-136 -226 -221 -517z" />
    <glyph glyph-name="daggerdbl" unicode="&#x2021;" horiz-adv-x="962" 
d="M356 -254q-51 0 -67.5 31t-5.5 71q6 22 24 53.5t38.5 63.5t48.5 95.5t50 140.5q-71 0 -157 -33q-85 -29 -117 -29q-37 0 -58 24t-14 64q6 36 36 60t73 24q29 0 66 -15.5t84.5 -30.5t101.5 -15q31 105 43 161.5t9.5 102.5t-26.5 74q58 44 91.5 112t74.5 207
q-71 0 -157 -33q-82 -28 -117 -28q-37 0 -58 24t-14 64q6 36 36 60t73 24q29 0 66 -15.5t84.5 -31t101.5 -15.5q22 77 31 138.5t6.5 90.5t-2 61.5t5.5 51.5q9 34 37.5 60t72.5 26q47 0 63.5 -31t6.5 -73q-5 -17 -30 -52t-61 -104.5t-65 -167.5q70 0 160 31t117 31
q40 0 60 -26.5t11 -67.5q-9 -37 -36.5 -57.5t-63.5 -20.5q-14 0 -31 3.5t-28 7t-30 11t-26 9.5q-77 30 -147 30q-27 -89 -38 -143.5t-8.5 -99.5t23.5 -76q-56 -41 -91 -114t-79 -224q70 0 160 30.5t117 30.5q40 0 60 -26.5t11 -67.5q-7 -37 -35 -57.5t-65 -20.5
q-14 0 -31 3.5t-28 7t-30 11t-26 9.5q-79 31 -147 31q-23 -78 -32.5 -143.5t-7.5 -99t1.5 -70t-4.5 -56.5q-7 -33 -37 -59.5t-74 -26.5z" />
    <glyph glyph-name="bullet" unicode="&#x2022;" horiz-adv-x="798" 
d="M510 973q119 0 202 -82.5t83 -202.5q0 -119 -83 -200.5t-202 -81.5t-202 81.5t-83 200.5q0 120 83 202.5t202 82.5z" />
    <glyph glyph-name="onedotenleader" unicode="&#x2024;" horiz-adv-x="1024" 
d="M467 195q42 0 66 -27.5t24 -65.5q0 -59 -35 -95t-82 -36q-42 0 -66 26t-24 71q0 54 35.5 90.5t81.5 36.5z" />
    <glyph glyph-name="twodotenleader" unicode="&#x2025;" horiz-adv-x="1024" 
d="M215 195q42 0 66 -27.5t24 -65.5q0 -59 -35 -95t-82 -36q-42 0 -66 26t-24 71q0 54 35.5 90.5t81.5 36.5zM725 195q42 0 66 -27.5t24 -65.5q0 -59 -35 -95t-82 -36q-42 0 -66 26t-24 71q0 54 35.5 90.5t81.5 36.5z" />
    <glyph glyph-name="ellipsis" unicode="&#x2026;" horiz-adv-x="2048" 
d="M969 195q42 0 66 -27.5t24 -65.5q0 -59 -35 -95t-82 -36q-42 0 -66 26t-24 71q0 54 35.5 90.5t81.5 36.5zM1651 195q42 0 66 -27.5t24 -65.5q0 -59 -35 -95t-82 -36q-42 0 -66 26t-24 71q0 54 35.5 90.5t81.5 36.5zM287 195q42 0 66 -27.5t24 -65.5q0 -59 -35 -95
t-82 -36q-42 0 -66 26t-24 71q0 54 35.5 90.5t81.5 36.5z" />
    <glyph glyph-name="perthousand" unicode="&#x2030;" horiz-adv-x="2408" 
d="M678 1311q105 0 162 -70.5t57 -191.5q0 -116 -52.5 -230t-143 -189t-189.5 -75q-115 0 -174 69.5t-59 188.5q0 121 51 235t144.5 188.5t203.5 74.5zM412 760q0 -144 94 -144q60 0 112 59t82.5 142.5t48 163.5t17.5 133q0 63 -23.5 99t-68.5 36q-58 0 -110 -57.5
t-83.5 -139t-50 -161t-18.5 -131.5zM1446 729q105 0 162 -70.5t57 -191.5q0 -116 -52.5 -230t-143 -189t-189.5 -75q-115 0 -174 69.5t-59 188.5q0 121 51 235t144.5 188.5t203.5 74.5zM1180 178q0 -143 94 -143q60 0 112 59t82.5 142t48 163t17.5 133q0 63 -23.5 99.5
t-68.5 36.5q-58 0 -110 -58t-83.5 -139.5t-50 -161t-18.5 -131.5zM2136 731q105 0 162 -70.5t57 -191.5q0 -116 -52.5 -230t-143 -189t-189.5 -75q-115 0 -174 69.5t-59 188.5q0 121 51 235t144.5 188.5t203.5 74.5zM1870 180q0 -143 94 -143q60 0 112 59t82.5 142.5
t48 163.5t17.5 133q0 63 -23.5 99t-68.5 36q-58 0 -110 -58t-83.5 -139.5t-50 -161t-18.5 -131.5zM356 -29q600 713 1141 1368q21 0 40 -14t19 -37q-502 -596 -1144 -1370q-27 0 -41.5 14.5t-14.5 38.5z" />
    <glyph glyph-name="guilsinglleft" unicode="&#x2039;" horiz-adv-x="532" 
d="M299 397l82 -297q-4 -11 -16.5 -17t-22.5 -3q-103 185 -180 309q-12 20 -10 32t22 32l311 307q10 1 18.5 -7t10.5 -20l-205 -287q-17 -23 -10 -49z" />
    <glyph glyph-name="guilsinglright" unicode="&#x203a;" horiz-adv-x="532" 
d="M104 106l205 287q17 23 10 49l-81 297q4 12 16.5 18t21.5 3q94 -168 181 -309q12 -20 9.5 -32t-22.5 -32l-311 -307q-10 -1 -18.5 6.5t-10.5 19.5z" />
    <glyph glyph-name="fraction" unicode="&#x2044;" horiz-adv-x="204" 
d="M-373 -29q600 713 1141 1368q21 0 40 -14t19 -37q-502 -596 -1144 -1370q-27 0 -41.5 14.5t-14.5 38.5z" />
    <glyph glyph-name="zero.superior" unicode="&#x2070;" 
d="M696 1450q80 0 133.5 -38.5t75 -94t21.5 -123.5q0 -117 -45 -235t-121 -201q-113 -127 -250 -127q-119 0 -175 73.5t-56 190.5q0 113 45.5 229t117.5 197q52 58 119 93.5t135 35.5zM719 930q32 77 52 171.5t20 174.5q0 49 -24 85t-71 36q-82 0 -155 -125
q-53 -92 -90 -225t-37 -222q0 -141 94 -141q30 0 58.5 16t48.5 38t41 58.5t33.5 64.5t29.5 69z" />
    <glyph glyph-name="four.superior" unicode="&#x2074;" 
d="M578 879h-322q-8 0 -11.5 7.5t-0.5 16.5q8 19 35 43l585 559q25 25 64 25q37 0 37 -17q0 -7 -15 -26l-565 -526q-22 -20 17 -23h18h176q27 0 35 5.5t16 27.5l76 227q10 20 20 25q44 22 93 22q18 0 20 -11t-6 -28l-80 -239q-7 -19 -4 -24t22 -5h86q9 -7 4 -29.5t-20 -29.5
h-78q-28 0 -35 -4.5t-12 -20.5l-24 -72q-20 -51 -15 -70.5t49 -25.5l50 -6q6 -9 2.5 -21.5t-11.5 -17.5q-78 4 -192 4q-50 0 -172 -4q-8 4 -7 17t11 22l49 6q48 6 70 23.5t41 72.5l22 68q8 17 3.5 23t-31.5 6z" />
    <glyph glyph-name="five.superior" unicode="&#x2075;" 
d="M829 1337l-280 -34q-49 -5 -60 -29l-24 -51q-12 -24 31 -31l30 -6q38 -8 73 -19.5t75 -32.5t68.5 -48.5t47.5 -69t19 -90.5q0 -78 -39 -143t-101 -106.5t-143.5 -71t-162.5 -42.5t-162 -14q-15 6 -16.5 26t10.5 29q227 4 355 84t128 209q0 51 -27 90t-71.5 61.5t-90 35
t-94.5 16.5q-45 4 -28 39l108 231q10 20 18 27t27 10l369 43l8 -8q-5 -25 -26.5 -59t-41.5 -46z" />
    <glyph glyph-name="six.superior" unicode="&#x2076;" 
d="M1006 1497q9 -6 10 -18t-6 -21q-71 -18 -105.5 -27.5t-104.5 -38t-128 -65.5q-123 -82 -188.5 -213.5t-65.5 -261.5q0 -74 34.5 -121t100.5 -47q53 0 95 40t61.5 93t19.5 103q0 73 -34.5 110t-90.5 37q-26 0 -57 -8q-10 4 -11 15t7 18q21 18 60 30.5t73 12.5
q82 0 138 -55.5t56 -147.5q0 -120 -96.5 -210.5t-230.5 -90.5q-127 0 -199 68t-72 194q0 124 77 248.5t208 210.5q187 123 449 145z" />
    <glyph glyph-name="seven.superior" unicode="&#x2077;" 
d="M596 1436h223q142 0 185 4q12 -4 8 -19q-84 -105 -148 -200l-442 -637q-17 -7 -33 1t-22 27l444 639q35 51 35 64q0 16 -31 16h-240q-70 0 -99.5 -12.5t-57.5 -54.5q-7 -8 -22.5 -4t-16.5 16q40 77 70 164q86 -4 147 -4z" />
    </font>
</defs>
</svg>
