<?xml version="1.0" standalone="no"?>
<!DOCTYPE svg PUBLIC "-//W3C//DTD SVG 1.1//EN" "http://www.w3.org/Graphics/SVG/1.1/DTD/svg11.dtd" >
<svg xmlns="http://www.w3.org/2000/svg" xmlns:xlink="http://www.w3.org/1999/xlink" version="1.1">
<metadata>
Created by FontForge 20170731 at Tue May 23 10:06:59 2023
 By Aleksey,,,
(c) 2005 Adobe Systems Incorporated. All Rights Reserved.
</metadata>
<defs>
<font id="GaramondPremrPro" horiz-adv-x="819" >
  <font-face 
    font-family="Garamond Premr Pro"
    font-weight="400"
    font-stretch="normal"
    units-per-em="2048"
    panose-1="2 2 4 2 6 5 6 2 4 3"
    ascent="1485"
    descent="-563"
    x-height="805"
    cap-height="1323"
    bbox="-436 -688 2877 1880"
    underline-thickness="102"
    underline-position="-307"
    unicode-range="U+0020-FB04"
  />
<missing-glyph horiz-adv-x="1024" 
d="M0 0v1434h1024v-1434h-1024zM512 809l348 522h-696zM573 717l349 -522v1044zM164 102h696l-348 523zM102 1239v-1044l349 522z" />
    <glyph glyph-name="T_h" unicode="Th" horiz-adv-x="2148" 
d="M690 1315q21 0 104.5 -0.5t144.5 -0.5t128.5 1t95.5 4q79 0 127 10q4 1 12.5 3.5t11 3t8 2t7.5 2.5l6 3t6.5 3.5t6 4t6.5 5.5q59 47 82 47q9 0 13.5 -8t4.5 -15q-1 -15 -14 -104t-15 -170q-6 -184 -6 -385q0 -7 4.5 -11.5t10.5 -0.5q130 118 258 118q148 0 217 -94
q57 -80 57 -221q1 -46 4.5 -177.5t3.5 -201.5q0 -36 19 -53t63 -27q58 -11 58 -33q0 -26 -56 -26q-36 0 -82 3t-80 3q-22 0 -69.5 -2t-79.5 -2q-39 0 -39 24q0 19 41 29q40 12 51 28t17 73q2 17 2 81t-1 137.5t-1 77.5q0 167 -35 205q-58 68 -164 68q-41 0 -80 -10.5
t-58.5 -20.5t-25.5 -16q-4 -4 -10 -13.5t-14.5 -34.5t-10.5 -53q-3 -60 -3.5 -217.5t1.5 -208.5q3 -47 21 -64.5t59 -27.5q20 -6 31.5 -15.5t11.5 -17.5q0 -24 -49 -24q-4 0 -72.5 2t-95.5 2q-25 0 -83 -3t-75 -3t-32 6.5t-15 19.5q0 18 60 35q43 14 60.5 38t21.5 79
q18 258 18 727v270q0 19 -8.5 34t-17 21.5t-13.5 6.5q-28 5 -226.5 6.5t-238.5 -4.5q-5 -1 -10.5 -12t-5.5 -15q0 -38 -1 -220t-1 -281q0 -413 10 -508q6 -73 30 -99t115 -47q21 -5 38.5 -16t17.5 -21q0 -24 -58 -24q-5 0 -45 2.5t-93.5 5t-92.5 2.5q-61 0 -146 -7t-90 -7
q-61 0 -61 20q0 12 12 23t27 14q36 9 60 17t41 22t26 26.5t15 39t7.5 50t3.5 68.5q15 454 15 697v243q0 11 -6 19t-11 8q-55 8 -245 8q-108 0 -152 -47q-27 -20 -68 -100q-20 -47 -38 -47q-9 0 -15 14.5t-6 30.5q0 9 19.5 104t19.5 166q0 10 11 21.5t20 11.5q3 0 5.5 -2
t4.5 -5t7 -8.5t11 -11.5q43 -43 74 -45q71 -8 471 -8z" />
    <glyph glyph-name="Tcaron_h" unicode="&#x164;h" horiz-adv-x="2148" 
d="M690 1315q21 0 104.5 -0.5t144.5 -0.5t128.5 1t95.5 4q79 0 127 10q4 1 12.5 3.5t11 3t8 2t7.5 2.5l6 3t6.5 3.5t6 4t6.5 5.5q59 47 82 47q9 0 13.5 -8t4.5 -15q-1 -15 -14 -104t-15 -170q-6 -184 -6 -385q0 -7 4.5 -11.5t10.5 -0.5q130 118 258 118q148 0 217 -94
q57 -80 57 -221q1 -46 4.5 -177.5t3.5 -201.5q0 -36 19 -53t63 -27q58 -11 58 -33q0 -26 -56 -26q-36 0 -82 3t-80 3q-22 0 -69.5 -2t-79.5 -2q-39 0 -39 24q0 19 41 29q40 12 51 28t17 73q2 17 2 81t-1 137.5t-1 77.5q0 167 -35 205q-58 68 -164 68q-41 0 -80 -10.5
t-58.5 -20.5t-25.5 -16q-4 -4 -10 -13.5t-14.5 -34.5t-10.5 -53q-3 -60 -3.5 -217.5t1.5 -208.5q3 -47 21 -64.5t59 -27.5q20 -6 31.5 -15.5t11.5 -17.5q0 -24 -49 -24q-4 0 -72.5 2t-95.5 2q-25 0 -83 -3t-75 -3t-32 6.5t-15 19.5q0 18 60 35q43 14 60.5 38t21.5 79
q18 258 18 727v270q0 19 -8.5 34t-17 21.5t-13.5 6.5q-28 5 -226.5 6.5t-238.5 -4.5q-5 -1 -10.5 -12t-5.5 -15q0 -38 -1 -220t-1 -281q0 -413 10 -508q6 -73 30 -99t115 -47q21 -5 38.5 -16t17.5 -21q0 -24 -58 -24q-5 0 -45 2.5t-93.5 5t-92.5 2.5q-61 0 -146 -7t-90 -7
q-61 0 -61 20q0 12 12 23t27 14q36 9 60 17t41 22t26 26.5t15 39t7.5 50t3.5 68.5q15 454 15 697v243q0 11 -6 19t-11 8q-55 8 -245 8q-108 0 -152 -47q-27 -20 -68 -100q-20 -47 -38 -47q-9 0 -15 14.5t-6 30.5q0 9 19.5 104t19.5 166q0 10 11 21.5t20 11.5q3 0 5.5 -2
t4.5 -5t7 -8.5t11 -11.5q43 -43 74 -45q71 -8 471 -8zM674 1409q-24 0 -78 45q-5 5 -67.5 56.5t-104.5 88.5q-14 9 -19.5 22t0 22.5t21.5 9.5q8 0 30 -9t25 -10q84 -37 185 -90q17 -6 32 2q24 12 84.5 41.5t89.5 44.5q2 0 25 9.5t33 9.5q18 0 24.5 -6t0.5 -19t-25 -31
q-142 -117 -180 -147q-49 -39 -76 -39z" />
    <glyph glyph-name="Tcommaaccent_h" unicode="&#x162;h" horiz-adv-x="2148" 
d="M690 1315q21 0 104.5 -0.5t144.5 -0.5t128.5 1t95.5 4q79 0 127 10q4 1 12.5 3.5t11 3t8 2t7.5 2.5l6 3t6.5 3.5t6 4t6.5 5.5q59 47 82 47q9 0 13.5 -8t4.5 -15q-1 -15 -14 -104t-15 -170q-6 -184 -6 -385q0 -7 4.5 -11.5t10.5 -0.5q130 118 258 118q148 0 217 -94
q57 -80 57 -221q1 -46 4.5 -177.5t3.5 -201.5q0 -36 19 -53t63 -27q58 -11 58 -33q0 -26 -56 -26q-36 0 -82 3t-80 3q-22 0 -69.5 -2t-79.5 -2q-39 0 -39 24q0 19 41 29q40 12 51 28t17 73q2 17 2 81t-1 137.5t-1 77.5q0 167 -35 205q-58 68 -164 68q-41 0 -80 -10.5
t-58.5 -20.5t-25.5 -16q-4 -4 -10 -13.5t-14.5 -34.5t-10.5 -53q-3 -60 -3.5 -217.5t1.5 -208.5q3 -47 21 -64.5t59 -27.5q20 -6 31.5 -15.5t11.5 -17.5q0 -24 -49 -24q-4 0 -72.5 2t-95.5 2q-25 0 -83 -3t-75 -3t-32 6.5t-15 19.5q0 18 60 35q43 14 60.5 38t21.5 79
q18 258 18 727v270q0 19 -8.5 34t-17 21.5t-13.5 6.5q-28 5 -226.5 6.5t-238.5 -4.5q-5 -1 -10.5 -12t-5.5 -15q0 -38 -1 -220t-1 -281q0 -413 10 -508q6 -73 30 -99t115 -47q21 -5 38.5 -16t17.5 -21q0 -24 -58 -24q-5 0 -45 2.5t-93.5 5t-92.5 2.5q-61 0 -146 -7t-90 -7
q-61 0 -61 20q0 12 12 23t27 14q36 9 60 17t41 22t26 26.5t15 39t7.5 50t3.5 68.5q15 454 15 697v243q0 11 -6 19t-11 8q-55 8 -245 8q-108 0 -152 -47q-27 -20 -68 -100q-20 -47 -38 -47q-9 0 -15 14.5t-6 30.5q0 9 19.5 104t19.5 166q0 10 11 21.5t20 11.5q3 0 5.5 -2
t4.5 -5t7 -8.5t11 -11.5q43 -43 74 -45q71 -8 471 -8zM641 -78q57 0 98 -43.5t41 -120.5q0 -46 -17.5 -85t-43 -62.5t-54.5 -40t-51.5 -23t-35.5 -6.5q-29 0 -29 17q0 16 24 28q40 16 74.5 51t34.5 74q0 27 -11.5 40.5t-37.5 21.5q-57 15 -72 41q-8 13 -8 30q0 40 28.5 59
t59.5 19z" />
    <glyph glyph-name="f_f_b" unicode="ffb" horiz-adv-x="2134" 
d="M719 707h-361q-18 0 -18 -48v-512q0 -44 22 -60.5t84 -33.5q27 -7 37.5 -15t10.5 -20q0 -26 -52 -26q-12 0 -91 4t-101 4q-40 0 -95 -4t-57 -4q-45 0 -45 22q0 8 12 17.5t29 13.5q28 8 44.5 17t26.5 16.5t15 26t6.5 32t3.5 49.5q-1 28 -1 119.5t0.5 213.5t0.5 157
q0 6 -7 13.5t-17 8.5l-66 13q-9 0 -15.5 10t-6.5 24q0 4 15.5 12.5t39.5 20t35 19.5q15 10 20 16.5t5 17.5q0 153 59 281q30 64 81.5 122t115.5 97q124 80 239 80q136 0 219 -76q10 -7 17 0q126 129 278 129q59 0 133 -34q8 -5 27 6q35 18 55 18q9 0 15 -11t6 -22
q0 -1 -1 -79t-2 -193.5t-1 -206.5q0 -151 4 -174q2 -7 3.5 -10t4.5 -2q51 33 115 52t118 19q150 0 254 -90q66 -57 100.5 -138t34.5 -171q0 -118 -50.5 -209t-127.5 -151q-59 -48 -135 -70.5t-141 -22.5q-50 0 -136.5 14t-123.5 27q-19 10 -41 -6q-8 -6 -23 -6q-14 0 -14 27
q12 192 12 680q0 389 -8 481q-9 92 -25 108q-57 62 -145 62q-50 0 -92 -23.5t-64 -62.5q-65 -110 -65 -461q0 -7 4.5 -11.5t9.5 -4.5q54 0 108.5 0.5t86.5 0.5l32 1q11 0 21 -27t10 -59q0 -5 -12 -13t-21 -8q-5 0 -112.5 3t-118.5 3q-5 0 -10.5 -6.5t-5.5 -13.5
q0 -26 1 -261.5t1 -246.5q0 -43 7 -61.5t34 -32t92 -27.5q24 -5 36.5 -17t12.5 -20q0 -10 -18 -16t-37 -6q-9 0 -93 4t-114 4q-40 0 -92.5 -4t-73.5 -4q-18 0 -33.5 8t-15.5 18t14 19t29 12q68 18 84 41.5t16 97.5v500q0 7 -3.5 13t-8.5 6zM360 799h359q5 0 8.5 6t3.5 10
q0 222 88 387q2 1 0.5 9t-4.5 12q-31 40 -90 69t-143 29q-92 0 -162 -98q-78 -99 -78 -400q0 -8 5.5 -16t12.5 -8zM1898 385q0 64 -25.5 137.5t-76.5 124.5q-84 88 -223 88q-75 0 -117 -28q-13 -9 -16 -31q-4 -36 -4 -119q0 -173 14 -328q6 -65 45 -104q37 -40 94 -62
t94 -22q18 0 52.5 19.5t66.5 50.5q43 40 69.5 120t26.5 154z" />
    <glyph glyph-name="f_f_h" unicode="ffh" horiz-adv-x="2148" 
d="M1694 827q142 0 208 -85t66 -230q0 -25 4 -190.5t4 -188.5q0 -17 7.5 -30.5t15.5 -21.5t26 -16t25 -10t27 -8q39 -10 39 -27q0 -26 -56 -26q-36 0 -82.5 3t-81.5 3q-21 0 -67.5 -2t-77.5 -2q-43 0 -43 24q0 18 43 29q40 12 51 27.5t17 73.5q2 16 2 77.5t-1 133.5t-1 79
q0 154 -41 216.5t-158 62.5q-41 0 -80 -10.5t-58.5 -20.5t-25.5 -16q-4 -3 -11 -13.5t-14.5 -34.5t-9.5 -53q-3 -67 -4 -217.5t2 -208.5q2 -31 17 -52t29.5 -28.5t37.5 -15.5q41 -14 41 -29q0 -24 -51 -24h-4q-6 0 -75.5 2t-94.5 2q-23 0 -78 -3t-72 -3t-32 6.5t-15 19.5
q0 5 3 8.5t10 7.5t12.5 6.5t17.5 7t19 7.5q71 28 78 115q20 287 20 848q0 255 -16 278q-70 70 -170 70q-76 0 -135 -92q-35 -55 -58 -201t-18 -260q0 -16 18 -16h223q21 -9 21 -70q0 -27 -35 -27q-6 0 -102 1.5t-109 1.5q-6 0 -12 -7.5t-6 -17.5v-510q0 -7 -0.5 -21t0 -18.5
t1 -15t2.5 -13.5t5.5 -10.5t9.5 -10.5t14 -8t19.5 -8.5t25.5 -7.5t33 -8q25 -5 37 -16t12 -19q0 -10 -17 -16t-38 -6q-8 0 -31 1t-56 2.5t-54 2.5q-10 0 -27 1t-22 1q-38 0 -92.5 -4t-75.5 -4q-18 0 -33.5 8t-15.5 18q0 19 43 29q67 19 83.5 42.5t16.5 96.5q0 81 4 251.5
t4 252.5q0 6 -6.5 11.5t-11.5 5.5h-353q-20 0 -20 -48v-2v-456q0 -85 16 -107.5t90 -42.5q28 -8 38 -14.5t10 -18.5q0 -26 -52 -26h-2q-10 0 -35 1t-60.5 2.5t-55.5 2.5q-10 0 -24.5 1t-18.5 1q-40 0 -93 -4t-55 -4q-19 0 -34 8t-15 18q0 15 45 27q28 8 44.5 17t26.5 16.5
t15 26t6.5 32t3.5 49.5q-1 30 -1 122t0.5 213t0.5 155q0 8 -4.5 13.5t-14 7.5t-18.5 3t-21.5 2.5t-20.5 2.5q-14 3 -19 12q-8 24 -8 28q0 8 31 25q3 1 14.5 6.5t15.5 8t14 7.5t14 8.5t10 9t8 10.5t2 11q7 321 221 480q148 100 278 100q64 0 124 -22.5t93 -57.5q3 -3 8.5 -3
t8.5 3q55 58 135 94.5t158 36.5q63 0 139 -41q8 -6 20 0q10 4 23.5 11t21 10.5t11.5 3.5q5 0 8.5 -9t3.5 -16q-13 -92 -19 -337t-6 -363q0 -7 4.5 -11.5t10.5 -0.5q127 118 258 118zM360 799h353q6 0 12 5.5t6 12.5q0 207 94 383q2 1 0.5 9t-4.5 12q-30 38 -95.5 71
t-133.5 33q-250 0 -250 -502q0 -8 6 -16t12 -8z" />
    <glyph glyph-name="f_f_j" unicode="ffj" horiz-adv-x="1591" 
d="M713 707h-353q-20 0 -20 -48q0 -55 2.5 -264t5.5 -231q6 -57 24 -75t77 -34q51 -15 51 -35q0 -12 -17 -20t-39 -8q-13 0 -92.5 4t-101.5 4q-40 0 -95.5 -6t-58.5 -6q-18 0 -31.5 7t-13.5 17q0 8 12.5 17.5t30.5 13.5q27 8 43 17t26 17t15 27t6.5 32.5t3.5 49.5
q-1 55 -0.5 128.5t1.5 195.5t1 166q0 6 -6.5 13.5t-15.5 8.5q-54 8 -68 13q-16 0 -16 34q0 4 14 12.5t36.5 20t33.5 19.5q15 10 20 16.5t5 17.5q0 151 59 279q30 65 82 124.5t115 98.5q117 76 239 76q141 0 221 -80q6 -9 15 0q57 58 136 95.5t159 37.5q48 0 85 -8t61 -23
t36.5 -26.5t25.5 -28.5q17 -26 17 -47q0 -33 -40.5 -66.5t-64.5 -33.5q-3 0 -7.5 2.5t-12.5 9t-15 12.5t-19.5 17.5t-22.5 19.5q-67 67 -158 70q-37 0 -63.5 -15t-55.5 -49q-98 -110 -98 -473q0 -14 7.5 -18t27.5 -4q23 0 79.5 -1t81.5 -1q199 -2 258 24q43 19 52 19
q16 0 16 -41v-731q-1 -102 -27.5 -208.5t-64.5 -172.5q-68 -117 -191 -209q-55 -39 -73 -39q-28 0 -43 12q-3 4 -1.5 12t5.5 11q44 25 74 48.5t36.5 30.5t20.5 25q52 64 83.5 175t31.5 317q0 514 -7 596q-6 37 -30 37h-318q-10 0 -15 -7.5t-5 -33.5q0 -442 6 -492
q1 -9 2 -26t2 -22.5t3.5 -16.5t7.5 -15t12.5 -11t20.5 -11t30 -9t41 -10t35.5 -16.5t11.5 -20.5q0 -10 -16.5 -16t-36.5 -6q-9 0 -90 4t-111 4q-40 0 -92.5 -4t-73.5 -4q-18 0 -33.5 8t-15.5 18t13.5 19t29.5 12q66 18 81 41.5t17 97.5q2 70 2 500q0 7 -6.5 13t-11.5 6z
M365 799h348q6 0 12 5t6 11q0 216 90 381q5 10 -4 23q-32 41 -91.5 70.5t-143.5 29.5q-92 0 -162 -94q-78 -99 -78 -402q0 -24 23 -24z" />
    <glyph glyph-name="f_f_k" unicode="ffk" horiz-adv-x="2093" 
d="M713 707h-353q-20 0 -20 -48q0 -65 3 -272.5t7 -234.5q4 -46 23 -65t73 -34q52 -14 52 -35q0 -12 -16 -19t-40 -7q-12 0 -91 4t-101 4q-40 0 -96.5 -5t-57.5 -5q-17 0 -30 8t-13 18q0 8 12 16.5t29 12.5q28 8 44.5 17t26.5 16.5t15 26t6.5 32t3.5 49.5q-1 28 -1 119.5
t0.5 213.5t0.5 157q0 6 -6.5 13.5t-15.5 8.5l-68 13q-18 0 -18 34q0 4 15 13t39 20.5t34 18.5q23 17 23 34q0 151 59 279q31 66 81.5 126.5t112.5 98.5q114 74 236 74q152 0 225 -76q3 -3 8.5 -3t8.5 3q126 129 274 129q53 0 133 -39q6 -4 27 7q40 22 61 22q14 0 19 -33
q-2 -14 -5 -286t-3 -420q0 -222 6 -240q1 -2 2 -5.5t1.5 -4.5l1.5 -3t2 -3t3 -1.5t4 -0.5q13 0 43 26q172 159 215 221q3 6 5 13.5t-10.5 16t-39.5 13.5q-51 8 -51 29q0 10 13 17.5t30 7.5h88q77 0 163 12t113 12q17 0 17 -14q0 -16 -16 -29t-27 -16q-77 -18 -119.5 -38
t-118.5 -71q-41 -31 -100 -87t-66 -68q-6 -12 -2 -21q51 -61 166 -186.5t166 -175.5q57 -57 139 -74q24 -5 36.5 -15.5t12.5 -17.5q0 -24 -51 -24q-17 0 -106.5 6t-151.5 6h-90q-51 0 -51 27q0 18 45 28q57 14 27 58q-7 9 -90.5 100t-141.5 160q-38 47 -53 47q-4 0 -5.5 -3
t-3 -8t-1.5 -6q-6 -19 -5.5 -129.5t7.5 -154.5q6 -31 21 -44.5t56 -23.5q43 -11 43 -31q0 -22 -47 -22q-25 0 -86 2t-86 2q-38 0 -94.5 -4t-75.5 -4q-47 0 -47 22q0 17 47 31q59 14 79 32t28 58q14 68 14 596q0 388 -6 457q-7 88 -25 108q-18 21 -31 32t-43 22.5t-69 11.5
q-50 0 -93 -24.5t-65 -63.5q-69 -117 -69 -459q0 -7 4.5 -11.5t9.5 -4.5q54 0 110 0.5t89 0.5l33 1q11 0 19.5 -27t8.5 -59q0 -5 -12 -13t-19 -8q-6 0 -110 3t-115 3q-9 0 -15.5 -6t-6.5 -14v-508q0 -33 3 -50t16.5 -33t40 -25.5t73.5 -18.5q17 -4 26 -10.5t10 -10.5t1 -10
q0 -22 -45 -22q-9 0 -92 4t-113 4q-40 0 -92.5 -4t-73.5 -4q-23 0 -38 7.5t-15 18.5q0 10 15 19t32 12q35 10 53 18t28 25.5t12 36t3 59.5q4 148 4 500q0 7 -6.5 13t-11.5 6zM365 799h348q6 0 12 5t6 11q0 214 90 383q2 1 0.5 9t-4.5 12q-78 100 -231 100q-44 0 -89 -24
t-79 -70q-76 -96 -76 -402q0 -24 23 -24z" />
    <glyph glyph-name="f_f_t" unicode="fft" horiz-adv-x="1658" 
d="M365 799h348q7 0 12.5 4.5t5.5 11.5q0 222 90 387q2 1 0.5 9t-4.5 12q-29 38 -93 69t-134 31q-20 0 -37 -2.5t-43.5 -13.5t-47.5 -30.5t-44.5 -57t-39 -88.5t-26 -130.5t-10.5 -177.5q0 -14 5 -19t18 -5zM713 707h-353q-20 0 -20 -48v-2q0 -39 -1 -147t-0.5 -183.5
t3.5 -136.5q0 -75 17.5 -96.5t86.5 -40.5q54 -15 54 -35q0 -12 -17 -19t-41 -7h-4q-15 -1 -91.5 3.5t-100.5 4.5q-40 0 -93 -4t-55 -4q-19 0 -33 8t-14 18q0 16 43 27q50 14 66.5 33.5t21.5 58.5q6 49 8 121t2 129.5t-1 151t-1 139.5q0 7 -4.5 12t-13.5 8t-17 4.5t-22 3.5
t-20 3q-18 3 -23.5 9t-5.5 27q0 5 11 12.5t35 19.5t34 18q29 18 29 36q0 151 58 277.5t169 208.5q139 94 272 94q64 0 123 -22.5t92 -57.5q3 -3 8.5 -3t8.5 3q46 50 114 84t140 43q28 4 45 4q68 -2 119 -32.5t51 -75.5q0 -33 -29 -62.5t-55 -31.5q-24 4 -52 30
q-39 35 -74.5 54t-84.5 22q-17 3 -37 -4q-51 -17 -98 -88q-34 -53 -56 -191.5t-22 -265.5q0 -18 18 -18h287q18 0 35 15t59 69q50 57 57 57q6 0 18.5 -10t12.5 -15q-1 -16 -2 -49t-2 -51q0 -5 5 -10.5t11 -5.5q20 0 81 2t115 4t56 2q-4 0 1 2q10 5 18 -17q8 -25 8 -77
q0 -12 -18.5 -17.5t-34.5 -5.5h-224q-12 0 -18 -86q-4 -68 -4 -370q0 -138 164 -138q51 0 98 29q22 12 31 12q10 -4 10 -22q0 -33 -40 -67t-97.5 -54.5t-108.5 -20.5q-60 0 -108.5 29t-73.5 68q-25 38 -25 135q0 39 4.5 232t4.5 229q0 12 -9 24q-3 4 -18.5 7t-37 5t-49.5 3
t-55.5 1h-55h-47.5h-35l-15 -1q-7 0 -13.5 -7.5t-6.5 -17.5q0 -393 6 -510q1 -21 1.5 -27t2.5 -21t5 -18.5t9.5 -13.5t15 -13t22.5 -9.5t31.5 -11t41.5 -9.5q39 -8 39 -35q0 -10 -13.5 -16t-31.5 -6q-11 0 -96.5 4t-116.5 4q-38 0 -92.5 -4t-75.5 -4q-18 0 -32.5 8t-14.5 18
q0 20 41 29q67 19 85.5 44t18.5 97q0 23 2 248.5t2 251.5q0 7 -6.5 13t-11.5 6z" />
    <glyph glyph-name="f_h" unicode="fh" horiz-adv-x="1613" 
d="M895 1421l-1 -133q-2 -134 -3.5 -304.5t-1.5 -262.5q0 -7 4 -11.5t10 -0.5q124 118 256 118q146 0 215 -94q60 -80 60 -221q1 -46 4.5 -177.5t3.5 -201.5q0 -36 19 -53t63 -27q57 -12 57 -33q0 -26 -53 -26q-38 0 -85 3t-81 3q-21 0 -67.5 -2t-77.5 -2q-43 0 -43 24
q0 18 43 29q41 12 52 28t17 73q2 17 2 81t-1 137.5t-1 77.5q0 164 -35 205q-61 68 -164 68q-42 0 -81.5 -10.5t-59.5 -20.5t-24 -16q-4 -4 -10 -13.5t-13.5 -34.5t-9.5 -53q-3 -67 -4 -217.5t2 -208.5q3 -47 20 -64.5t56 -27.5q22 -6 34.5 -15.5t12.5 -17.5q0 -24 -52 -24
q-4 0 -71 2t-96 2q-26 0 -82.5 -3t-73.5 -3q-49 0 -49 26q0 19 59 35q44 14 61 37.5t21 79.5q5 72 11.5 259t6.5 290q0 375 -8 467q-5 59 -8.5 78.5t-13.5 29.5q-19 19 -31.5 29.5t-46 23.5t-72.5 13q-103 0 -153 -82q-31 -53 -51.5 -175t-20.5 -290q0 -7 7 -11.5t11 -4.5
q55 0 110.5 0.5t88.5 0.5l33 1q10 0 19 -27t9 -59q0 -5 -11 -13t-19 -8q-6 0 -109.5 3t-116.5 3q-9 0 -14.5 -7t-5.5 -15q-1 -50 -0.5 -217.5t2.5 -249.5q1 -63 13 -94.5t31.5 -43t64.5 -22.5q47 -11 47 -26q0 -13 -13 -22t-26 -9q-31 0 -93 3t-81 3q-67 0 -122.5 -4
t-66.5 -4q-18 0 -31.5 6t-13.5 16q0 18 47 31q75 21 84 84q6 45 6 533q0 31 -20 34q-53 10 -70 13q-12 4 -12 12q0 15 12.5 27.5t38 27t29.5 17.5q22 16 22 34q3 146 27 236q54 193 193 307q115 90 235 90q67 0 139 -35q12 -6 25 0q53 29 70 29q16 0 16 -33z" />
    <glyph glyph-name="f_j" unicode="fj" horiz-adv-x="1009" 
d="M678 705h-318q-11 0 -15.5 -7.5t-4.5 -33.5q0 -455 4 -537q1 -29 21 -44t67 -30q28 -8 36.5 -16t8.5 -19q0 -24 -47 -24q-15 0 -71.5 3t-94.5 3q-41 0 -99 -3t-67 -3q-41 0 -41 29q0 19 41 30q47 13 63.5 29.5t22.5 56.5q6 41 6 535q1 12 -3 16.5t-19 7.5q-14 2 -34 4.5
t-34 4.5q-7 0 -14.5 8t-7.5 14q0 13 17.5 25t76.5 41q18 13 18 22q1 7 3 34t2.5 36t3 33.5t4 36.5t5 34t7 36.5t8 33t10.5 35t13 32.5q67 151 182 236q126 98 250 98q62 0 108 -15.5t64.5 -32t36.5 -40.5q16 -24 16 -47q0 -33 -40 -66.5t-64 -33.5q-9 0 -80 61
q-66 69 -158 72q-37 0 -62.5 -14.5t-54.5 -49.5q-102 -119 -102 -475q0 -14 6.5 -17t26.5 -3q115 -2 160 -2q145 -2 188.5 2t73.5 22q27 19 49 19q18 0 18 -41v-731q-1 -102 -28 -208.5t-66 -172.5q-71 -122 -190 -209q-51 -39 -72 -39q-29 0 -41 12q-4 5 -3.5 12.5
t5.5 10.5q43 25 72.5 48t37.5 31.5t21 24.5q51 63 82 174.5t31 317.5q0 528 -4 598q-7 35 -31 35z" />
    <glyph glyph-name="f_k" unicode="fk" horiz-adv-x="1550" 
d="M891 721q0 -236 4 -248q1 -2 2 -5.5t1.5 -4.5l1.5 -3t2 -3t3 -1.5t4 -0.5q11 0 41 26q172 159 215 221q3 6 5 13.5t-10 16t-38 13.5q-51 8 -51 29q0 10 13 17.5t30 7.5h88q76 0 163 12t114 12q9 0 11.5 -2.5t2.5 -11.5q0 -16 -15.5 -29t-25.5 -16q-78 -18 -119.5 -37.5
t-118.5 -71.5q-42 -31 -100 -86.5t-65 -68.5q-6 -12 -2 -21q47 -58 158.5 -179.5t170.5 -182.5q61 -58 142 -74q22 -5 34.5 -15.5t12.5 -17.5q0 -24 -49 -24q-17 0 -108 6t-151 6h-94q-49 0 -49 27q0 18 43 28q65 14 27 58q-10 12 -44.5 50.5t-89.5 99t-98 110.5
q-38 47 -49 47q-10 0 -10 -17q-8 -19 -7.5 -129t9.5 -155q6 -31 21 -44t55 -24q45 -11 45 -31q0 -22 -51 -22q-24 0 -83 2t-85 2q-39 0 -95.5 -4t-76.5 -4q-50 0 -50 22q0 16 50 31q60 14 79 31.5t27 58.5q5 31 9.5 208t4.5 370q0 360 -10 475q-5 61 -8.5 82.5t-13.5 32.5
q-18 18 -32 28.5t-45 20.5t-71 10q-49 0 -90 -23.5t-63 -62.5q-31 -53 -51.5 -173t-20.5 -288q0 -7 7 -11.5t11 -4.5q55 0 110.5 0.5t88.5 0.5l33 1q10 0 19 -27t9 -59q0 -5 -11 -13t-19 -8q-6 0 -110.5 3t-117.5 3q-7 0 -12.5 -7t-5.5 -15q-2 -43 -2 -217.5t2 -249.5
q1 -94 16.5 -119.5t77.5 -40.5q47 -11 47 -26q0 -13 -13 -22t-28 -9q-30 0 -83 3t-72 3q-67 0 -122.5 -4t-66.5 -4q-18 0 -31.5 6t-13.5 16q0 18 47 31q75 21 84 84q6 45 6 533q0 31 -20 34q-53 10 -70 13q-14 3 -14 12q0 15 13.5 27.5t38.5 27t30 17.5q22 16 22 34
q3 139 27 230q55 200 199 317q61 48 116 67t123 19q62 0 138 -37q12 -3 26 4q52 27 62 27q14 0 14 -33l-1 -133q-1 -134 -2 -304.5t-1 -262.5z" />
    <glyph glyph-name="f_t" unicode="ft" horiz-adv-x="1173" 
d="M848 799q20 0 81.5 1t116 2t56.5 1q15 0 20 -21q6 -18 6 -61q0 -12 -18.5 -17.5t-34.5 -5.5h-225q-13 0 -16 -24q-5 -87 -5 -438q0 -140 162 -140q22 0 75.5 21.5t55.5 21.5t4 -1.5t4.5 -7t2.5 -13.5q0 -33 -40 -67t-97.5 -54.5t-108.5 -20.5q-60 0 -109.5 29.5
t-70.5 67.5q-17 24 -22 54t-5 81q0 39 4 234t4 231q0 33 -18 33h-314q-3 0 -8.5 -6t-5.5 -9q-3 -30 0 -266.5t6 -263.5q6 -56 29.5 -76t107.5 -33q23 -4 35 -13.5t12 -17.5q0 -24 -53 -24q-9 -1 -57 1.5t-72 2.5h-45q-43 0 -121 -5t-80 -5q-51 0 -51 22q0 7 13 17t30 16
q27 8 43 16t26.5 16t15 25t5.5 32t2 48q5 210 5 441q0 79 -21 79q-63 0 -86 -4q-8 0 -15 12.5t-3 22.5l32 19q32 18 63.5 42t31.5 37q7 200 51 306q56 129 160 220t221 103q14 2 41 2q60 0 110.5 -29t50.5 -79q0 -38 -29 -65t-63 -27q-8 0 -37 25.5t-72.5 51.5t-84.5 27
q-13 0 -37 -4q-40 -10 -66 -43q-56 -68 -76 -171t-20 -331q0 -6 4 -12t8 -6q53 0 126 0.5t125.5 1t54.5 0.5q18 0 28 10q10 6 37 37.5t51 58.5t31 27t18 -9t11 -14l-2 -96q0 -16 12 -16z" />
    <glyph glyph-name="gamma_gamma" unicode="&#x3b3;&#x3b3;" horiz-adv-x="1562" 
d="M240 834q36 0 64 -8.5t61 -34.5t60 -83t46 -143q11 -54 22 -160.5t11 -171.5q0 -11 13 -4q8 5 11 11q134 392 252 514q24 31 75 56.5t79 25.5q35 0 65 -9.5t66 -35.5t65.5 -84t47.5 -144q12 -57 24 -162t12 -168q0 -11 12 -4q6 4 9 11q12 25 52.5 104.5t65.5 131.5
t46 102q57 136 80 266q0 2 7 4t15 2t12 -4q20 -12 41.5 -35.5t28.5 -46.5q9 -36 -14 -90q-15 -34 -66 -120.5t-101 -171t-98.5 -188t-64.5 -176.5q-10 -52 -10 -59q0 -47 -8.5 -209t-12.5 -178q-2 -9 -17 -21.5t-24 -11.5q-73 25 -108 96q-6 14 -9.5 36t-0.5 32
q39 170 96 336q10 31 10.5 109t-4.5 112q-7 47 -18 95t-32.5 111.5t-48 110.5t-67.5 80t-88 33q-44 0 -76 -24q-80 -57 -164.5 -244t-126.5 -377q-8 -41 -8 -70q-4 -85 -23.5 -259.5t-25.5 -198.5q-2 -9 -18 -22.5t-25 -10.5q-37 12 -61 30.5t-43 59.5q-6 14 -10 37t-1 33
q68 255 125 403q11 30 11.5 108t-5.5 111q-6 51 -17 101.5t-31.5 107t-47 99t-66.5 70.5t-87 28q-49 0 -93 -29t-59 -53q-11 -17 -20.5 -10t-12.5 28q-4 23 5 54t26 53q35 48 86.5 83.5t110.5 35.5z" />
    <glyph glyph-name="lambda_lambda" unicode="&#x3bb;&#x3bb;" horiz-adv-x="1554" 
d="M197 1384q84 0 138 -65t99 -234q14 -49 75.5 -319.5t82.5 -347.5q77 -289 166 -289q30 0 49 43q47 89 137 276.5t94 194.5q13 32 32.5 71.5t25.5 47.5q11 11 12 28t-4 44q-94 479 -313 479q-106 0 -175 -53q-4 -3 -12 3.5t-8 12.5q0 31 25 65q40 56 96 87.5t117 31.5
q91 0 149 -67.5t113 -241.5q11 -36 103.5 -431t119.5 -468q5 -12 13.5 -26.5t24.5 -35t41.5 -34t53.5 -13.5q48 0 96 11q3 1 4.5 -3t2 -12t1.5 -10q4 -9 -6 -41q-45 -125 -141 -125q-43 0 -77 39.5t-52 106.5q-17 65 -68.5 271.5t-54.5 223.5q-3 13 -12.5 9.5t-11.5 -11.5
q-5 -17 -117 -273.5t-123 -273.5q-40 -90 -109 -90q-30 0 -55.5 9t-44 21.5t-35.5 36t-27 41t-22 49t-17 48.5t-14 49q-18 66 -55.5 217t-40.5 168q-3 13 -12.5 9.5t-11.5 -11.5q-5 -16 -105.5 -266.5t-107.5 -263.5q-48 -111 -70 -111q-13 0 -49 11t-56 26q-8 5 -13 17.5
t-3 17.5q8 20 145.5 292.5t159.5 313.5q44 104 68 131q16 10 10 45q-44 226 -104 328t-170 102q-63 0 -127 -31q-5 -2 -14 5.5t-9 13.5q0 23 29 65q66 86 164 86z" />
    <glyph glyph-name="longs_b" unicode="&#x17f;b" horiz-adv-x="1552" 
d="M860 1436q0 -346 -6 -654q0 -7 2.5 -12t6 -6t5.5 0q119 63 238 63q69 0 135 -23.5t113 -66.5q67 -57 101 -138.5t34 -172.5q0 -69 -15 -126t-43 -100t-55.5 -72t-66.5 -60q-58 -47 -135.5 -69t-141.5 -24q-112 -4 -262 41q-14 7 -37 -6q-8 -6 -20 -6q-6 0 -10.5 8
t-4.5 19q11 429 11 680q2 410 -4 514q0 60 -27 84q-17 17 -28 25t-33.5 15t-53.5 7q-98 0 -153 -90q-28 -48 -46.5 -173t-19.5 -290v-592q2 -88 16.5 -112.5t77.5 -41.5q24 -6 40 -15.5t16 -16.5q0 -11 -19 -20t-35 -9q-29 0 -80 2t-71 2q-51 0 -96 -2t-69.5 -4t-25.5 -2
q-14 0 -28.5 6t-14.5 16q0 21 45 35q45 11 63 29t21 47q6 51 6 534q0 32 -18 35l-72 13q-12 4 -12 14q0 11 10 22.5t20 18.5t28.5 18.5t23.5 14.5q23 16 23 30q3 148 28 232q52 182 176 289q125 104 254 104q69 0 117 -27q14 -6 25 7q8 10 26.5 25t24.5 15q16 0 16 -34z
M1319 385q0 65 -22.5 133t-67.5 119q-87 98 -228 98q-85 0 -127 -28q-13 -9 -16 -31q-4 -36 -4 -115q0 -205 12 -336q3 -71 56 -121q61 -61 149 -61q79 0 141 57q52 46 79.5 123t27.5 162z" />
    <glyph glyph-name="longs_h" unicode="&#x17f;h" horiz-adv-x="1572" 
d="M190 659q0 32 -18 35q-1 0 -13 2.5t-29.5 5.5t-29.5 5q-12 4 -12 14q0 11 10 22.5t20 18.5t28.5 18.5t23.5 14.5q23 16 23 30q3 153 28 236q52 182 176 287q123 106 254 106q71 0 117 -27q16 -6 35 23q6 10 20.5 21.5t20.5 11.5q16 0 16 -35q0 -286 -8 -696
q0 -13 6 -19.5t12 -1.5q51 38 123.5 67t130.5 29q148 0 213 -94q60 -80 60 -221q2 -129 2 -379q0 -36 20.5 -52t65.5 -26q55 -11 55 -32q0 -29 -51 -29q-38 0 -86.5 3t-81.5 3q-21 0 -68 -3t-79 -3q-23 0 -34.5 9.5t-11.5 21.5q0 17 41 28q39 11 54.5 30t19.5 67q6 59 6 313
q0 65 -7 107.5t-15.5 58.5t-22.5 33q-28 32 -64.5 45.5t-95.5 13.5q-98 0 -170 -41q-22 -13 -22 -35q-4 -87 -4 -267t2 -233q1 -47 16 -62.5t56 -27.5t41 -32q0 -13 -11 -21t-30 -8q-3 0 -71 3t-97 3q-25 0 -80 -3t-72 -3q-45 0 -45 26q0 24 55 39q44 12 61.5 35t20.5 78
q15 215 15 559v475q0 80 -31 107q-17 17 -28 25t-33.5 15t-53.5 7q-50 0 -91 -27t-66 -69q-28 -47 -44 -170t-18 -291v-592q1 -44 3 -66t6 -40.5t15.5 -26t25.5 -12t42 -9.5q43 -7 43 -28q0 -12 -13.5 -22.5t-27.5 -10.5q-28 0 -78.5 2t-70.5 2q-51 0 -96 -2t-69.5 -4
t-25.5 -2q-14 0 -27.5 6t-13.5 16q0 22 43 35q44 13 62.5 31t21.5 45q6 51 6 534z" />
    <glyph glyph-name="longs_i" unicode="&#x17f;i" horiz-adv-x="1038" 
d="M340 788q0 -112 1 -324.5t1 -309.5q0 -52 18 -70.5t82 -30.5q41 -7 41 -33q0 -11 -12.5 -18.5t-30.5 -7.5q-9 0 -85.5 3t-106.5 3q-41 0 -91.5 -3t-54.5 -3q-17 0 -30 8t-13 18q0 7 8.5 16t24.5 13q45 13 61 22.5t25 34.5t10 80q5 210 5 494q0 7 -7.5 13.5t-17.5 6.5h-68
q-5 0 -9.5 8t-4.5 19q0 4 8.5 11t34 26.5t39.5 30.5q22 19 22 30q0 172 58 301q68 154 182 238q126 98 258 98q151 0 213 -92q19 -28 19 -47q0 -33 -41 -66.5t-64 -33.5q-14 0 -80 63q-68 71 -164 74q-72 0 -125 -64q-43 -48 -74.5 -180.5t-31.5 -327.5zM715 410
q0 199 -4 249q-4 19 -17.5 30t-44.5 24q-26 10 -26 28q0 9 8 16t15.5 10t21.5 7q30 6 63.5 15.5t74 23t44.5 14.5q7 0 12.5 -6.5t5.5 -15.5q0 -6 -1.5 -81.5t-3 -170t-1.5 -145.5q0 -129 4 -273q1 -24 6 -39.5t17.5 -24t21 -12t27.5 -8.5q45 -14 45 -35q0 -9 -11 -15.5
t-28 -6.5q-3 0 -71.5 3t-94.5 3q-38 0 -91.5 -3t-68.5 -3q-20 0 -32.5 6.5t-12.5 17.5q0 20 50 31q74 22 82 53q10 34 10 308z" />
    <glyph glyph-name="longs_k" unicode="&#x17f;k" horiz-adv-x="1515" 
d="M190 659q0 32 -18 35q-4 1 -34 6.5t-38 6.5q-12 4 -12 14q0 11 10 22.5t20 18.5t28.5 18.5t23.5 14.5q23 16 23 30q3 159 30 234q53 184 174 289q125 104 254 104q70 0 119 -27q5 -5 18 11q8 10 29 27.5t27 17.5q16 0 16 -35q0 -49 -6 -670q-1 -59 -0.5 -173t2.5 -128
q1 -7 2.5 -11t4 -5.5t7.5 -1.5q12 0 28.5 7.5t25.5 16.5q51 44 118 113.5t93 107.5q3 6 2 12t-16.5 13t-43.5 12q-51 8 -51 35q0 11 12 18t29 7h104q79 0 153 9t101 9q37 0 37 -22q0 -24 -43 -35q-92 -18 -124 -33t-101 -70q-63 -51 -170 -161q-10 -15 2 -27
q124 -153 332 -354q52 -47 141 -62q45 -8 45 -26q0 -33 -55 -33q-18 0 -102.5 3t-147.5 3q-27 0 -69 -1t-44 -1q-53 0 -53 29q0 22 41 30q32 8 43 22.5t-6 35.5q-30 38 -227 256q-30 41 -56 41q-16 0 -16 -17q0 -2 -0.5 -31.5t-0.5 -64.5v-73.5t0.5 -69t2.5 -39.5
q2 -15 6.5 -24t19 -17t21.5 -10.5t37 -12.5q21 -7 30 -13t9 -17q0 -13 -13.5 -21t-31.5 -8q-24 0 -86 3t-88 3q-38 0 -94.5 -3t-77.5 -3q-43 0 -43 24q0 20 43 33q63 18 83 32.5t27 51.5q9 43 13 604q0 14 0.5 103.5t0.5 186t-1 175.5q0 80 -31 107q-17 17 -28 25t-33.5 15
t-53.5 7q-48 0 -90 -27.5t-67 -68.5q-28 -47 -44 -169t-18 -290v-592q1 -68 9 -97t25.5 -40t63.5 -19q45 -8 45 -28q0 -11 -19 -21t-34 -10q-28 0 -76.5 2t-68.5 2q-51 0 -96 -2t-69.5 -4t-25.5 -2q-14 0 -27.5 6t-13.5 16q0 22 43 35q45 11 63 29t21 47q6 51 6 534z" />
    <glyph glyph-name="longs_l" unicode="&#x17f;l" horiz-adv-x="1032" 
d="M190 659q0 32 -18 35q-10 1 -38.5 6.5t-33.5 6.5q-12 4 -12 14q0 11 10 22.5t20 18.5t28.5 18.5t23.5 14.5q23 16 23 30q3 159 30 234q53 184 174 289q125 104 254 104q70 0 119 -27q14 -7 33 23q6 10 20.5 21.5t20.5 11.5q16 0 16 -35q0 -266 -4 -680q-1 -132 0 -273.5
t2.5 -241.5t1.5 -114q2 -32 21.5 -49t79.5 -35q45 -12 45 -30q0 -11 -14 -20t-34 -9q-25 0 -99 3t-91 3q-24 0 -82 -3t-80 -3q-21 0 -34 6t-16 11.5t-3 11.5q0 19 43 30q68 19 83 38.5t21 98.5q11 154 11 521q0 303 -2 493q0 80 -31 107q-17 17 -28 25t-33.5 15t-53.5 7
q-48 0 -90 -27.5t-67 -68.5q-28 -47 -44 -169t-18 -290v-592q1 -96 15.5 -119.5t76.5 -38.5q49 -11 49 -28q0 -11 -16 -20t-31 -9q-28 0 -78.5 2t-70.5 2q-51 0 -96 -2t-69.5 -4t-25.5 -2q-15 0 -31 6t-16 16q0 20 49 35q45 11 63 29t21 47q6 51 6 534z" />
    <glyph glyph-name="longs_longs" unicode="&#x17f;s" horiz-adv-x="1040" 
d="M193 674q0 6 -7.5 13.5t-17.5 8.5q-2 0 -66 9q-16 3 -16 26q2 6 72 55q35 23 35 43q0 93 21.5 181.5t53.5 140.5q62 108 156 172q45 34 110 61t130 27q12 0 18 -6q119 0 201 -74q2 1 16 3.5t21 4.5q122 122 262 119q64 0 110.5 -33.5t48.5 -76.5q0 -12 -9 -30.5
t-19 -27.5q-28 -20 -56 -20q-6 0 -11.5 3.5t-17 13t-20.5 16.5q-70 57 -135 57q-76 0 -131 -80q-78 -119 -78 -473v-633q2 -60 21.5 -85.5t75.5 -37.5q45 -10 45 -37q0 -10 -13.5 -16t-31.5 -6q-11 0 -88 4t-109 4q-41 0 -92.5 -4t-55.5 -4q-19 0 -33 7t-14 17q0 17 43 31
q64 20 81 44t22 97q-1 57 -0.5 130.5t1.5 195.5t1 168q0 7 -6.5 15.5t-16.5 9.5q-5 1 -24.5 3.5t-38.5 6.5q-17 3 -17 31q1 4 11 10.5t28.5 18t28.5 18.5q32 19 35 43q7 129 21.5 210.5t49.5 147.5q16 22 5 33q-44 44 -90.5 68t-122.5 24q-93 0 -152 -80q-38 -48 -62 -173
t-24 -302v-623q0 -41 22 -58t80 -32q48 -13 48 -30q0 -31 -48 -31q-12 0 -90 4t-102 4q-43 0 -94.5 -3t-53.5 -3q-19 0 -33 8t-14 18q0 7 14 15.5t33 13.5q55 17 68 39.5t17 90.5q1 7 1 11q-1 39 1 242t2 242z" />
    <glyph glyph-name="longs_longs_i" unicode="&#x17f;si" horiz-adv-x="1562" 
d="M666 1411q133 0 221 -84q7 -7 18 4q121 131 269 131q68 0 118.5 -33.5t50.5 -80.5q0 -12 -9 -30.5t-19 -27.5q-24 -20 -53 -20q-4 0 -8 1.5t-9 4.5t-8.5 6.5t-11 9.5t-13.5 11q-70 57 -135 57q-78 0 -133 -80q-80 -122 -80 -496v-610q2 -60 21 -85.5t73 -37.5
q26 -5 37 -16t11 -21t-14.5 -16t-33.5 -6q-11 0 -86.5 4t-107.5 4q-41 0 -93.5 -4t-56.5 -4q-19 0 -32 7t-13 17q0 17 41 31q64 20 82 44.5t23 96.5q-1 57 -0.5 130t1.5 195t1 169q0 7 -6.5 15.5t-16.5 9.5l-63 10q-17 3 -17 31q1 4 11 10.5t28.5 18t28.5 18.5q32 22 35 43
q8 132 25 213.5t53 152.5q10 21 2 25q-44 44 -90.5 68t-122.5 24q-91 0 -154 -82q-38 -48 -63 -162.5t-25 -288.5v-645q0 -41 22 -58t80 -32q48 -13 48 -30q0 -31 -48 -31q-12 0 -90 4t-102 4q-43 0 -95.5 -4t-54.5 -4q-18 0 -32.5 8.5t-16.5 19.5q0 7 14.5 15.5t32.5 13.5
q58 18 71.5 42.5t18.5 98.5q-1 39 1 242t2 242q0 6 -7.5 13.5t-17.5 8.5l-66 9q-16 3 -16 26q2 6 72 55q35 23 35 43q0 93 20.5 178t52.5 138q67 113 160 178q121 88 240 88zM1133 735q0 10 13.5 19t29.5 12q45 9 120.5 38.5t83.5 31.5q5 0 12 -10t7 -13q0 -7 -3.5 -84.5
t-6.5 -173.5t-3 -147q0 -93 5 -273q0 -16 5 -28.5t9 -19.5t17.5 -14t18 -9t25 -8t23.5 -7q45 -14 45 -35q0 -9 -14.5 -14.5t-34.5 -5.5q-3 0 -68 3t-90 3q-38 0 -99.5 -4t-76.5 -4q-51 0 -51 22q0 19 49 33q34 9 56.5 25t25.5 32q8 39 8 211l1 17q0 18 0.5 44t1 59t0.5 66
t-0.5 61t-1.5 48t-3 25q-12 25 -80 74q-24 13 -24 26z" />
    <glyph glyph-name="longs_longs_l" unicode="&#x17f;sl" horiz-adv-x="1546" 
d="M666 1411q131 0 217 -82q7 -7 18 4q122 129 273 129q78 0 124 -32q11 -3 19 10q9 11 26.5 25t22.5 14q16 0 16 -33q0 -6 -1 -126.5t-2.5 -298.5t-2.5 -286q-1 -134 0.5 -361t1.5 -235q0 -34 20 -54t83 -36q47 -13 47 -31q0 -11 -16 -17.5t-37 -6.5q-26 0 -91 3t-81 3
q-25 0 -92 -3t-87 -3q-59 0 -59 22q0 10 13.5 19t31.5 12q66 14 82.5 43t21.5 111q13 254 13 520v487q0 80 -33 113q-18 19 -50 31t-61 12q-84 0 -139 -80q-80 -122 -80 -496v-614q2 -60 21 -85.5t73 -37.5q26 -5 37 -16t11 -21t-14.5 -16t-33.5 -6q-11 0 -86.5 4t-107.5 4
q-41 0 -96.5 -4t-59.5 -4q-17 0 -28 7.5t-11 18.5q0 17 35 29q66 21 86.5 45.5t24.5 95.5q2 66 2 494q0 7 -6.5 15.5t-16.5 9.5l-63 10q-17 3 -17 31q1 4 11 10.5t28.5 18t28.5 18.5q32 22 35 43q3 128 22 208.5t58 157.5q9 18 2 25q-76 92 -215 92q-95 0 -158 -82
q-84 -105 -84 -446v-650q0 -40 22.5 -58t81.5 -34q46 -12 46 -33q0 -26 -48 -26q-11 0 -89 4t-103 4q-43 0 -97.5 -4t-56.5 -4q-18 0 -32.5 8.5t-14.5 19.5q0 7 14 15.5t33 13.5q58 18 71.5 42.5t18.5 98.5q-1 38 2 237.5t3 246.5q0 6 -7.5 13.5t-17.5 8.5l-66 9
q-16 3 -16 26q2 6 72 55q35 23 35 43q0 93 21.5 180.5t53.5 139.5q64 111 156 174q45 34 111 61t131 27z" />
    <glyph glyph-name="longs_t" unicode="&#x17f;t" horiz-adv-x="1191" 
d="M166 698q-36 4 -66 4q-16 0 -16 25q0 4 14 15t40 29.5t36 25.5q11 8 15 15.5t4 25.5q0 299 190 460q123 99 229 99q119 0 181.5 -67.5t62.5 -172.5v-328q0 -5 8.5 -13.5t14.5 -8.5q20 0 71 0.5t95.5 1t46.5 0.5q10 0 21.5 -6t12.5 -19l4 -64v-1q0 -23 -51 -23
q-4 0 -99.5 2t-100.5 2q-25 0 -25 -24v-420q0 -69 35 -113q45 -53 108 -53q30 0 64.5 13.5t42.5 23.5q16 14 29 14q6 0 11 -12t5 -23q0 -5 -19.5 -28.5t-31.5 -32.5q-74 -70 -180 -70q-58 0 -112 32t-75 69q-29 44 -29 133q0 39 3.5 240t3.5 237q0 6 -11.5 8.5t-43.5 4
t-50 3.5q-24 0 -24 25q0 10 10 18q12 7 34 18.5t38 20t20 11.5q14 11 19 20t6 29q8 74 8 286q0 52 -8 76.5t-29 46.5q-44 47 -139 47q-201 0 -201 -426q0 -70 1 -343t1 -381q0 -53 17 -71t81 -30q45 -7 45 -29q0 -10 -14.5 -18t-32.5 -8q-10 0 -84.5 3t-105.5 3
q-44 0 -92.5 -3t-51.5 -3q-18 0 -30.5 7.5t-12.5 18.5t35 25q34 9 52 17t27 26.5t10.5 34.5t2.5 57q4 168 4 500q0 6 -7 12t-17 6z" />
    <glyph glyph-name="f_f" unicode="ff" horiz-adv-x="1144" 
d="M719 707h-361q-18 0 -18 -52v-508q0 -44 22 -60.5t84 -33.5q52 -14 52 -37q0 -10 -16 -17t-40 -7q-12 0 -91 4t-101 4q-40 0 -95 -4t-57 -4q-19 0 -33 7t-14 17q0 16 43 27q64 19 77.5 42.5t18.5 100.5q-1 28 -1 119.5t0.5 213.5t0.5 157q0 6 -7 13.5t-17 8.5l-60 13
q-9 0 -15.5 10t-6.5 24q0 4 14 12.5t36.5 20t33.5 19.5q15 10 20 16.5t5 17.5q0 157 57 281q30 65 81.5 124.5t114.5 98.5q117 76 240 76q63 0 123 -24t96 -58q3 -3 9 -3t8 3q57 59 134.5 96t155.5 37q71 0 122.5 -31t51.5 -77q0 -13 -15 -42t-28 -36q-32 -16 -45 -16h-4
t-4.5 1t-4 1.5t-4.5 2.5t-4.5 3.5t-5.5 5t-6.5 5.5t-8 7t-9.5 8q-78 74 -157 74q-72 0 -134 -90q-34 -54 -55.5 -200t-15.5 -265q0 -5 4.5 -9.5t7.5 -4.5h229q21 -9 21 -70q0 -10 -9 -18.5t-26 -8.5q-6 0 -104 1.5t-111 1.5q-5 0 -10.5 -7.5t-5.5 -13.5q0 -26 1 -263.5
t1 -248.5q0 -58 22.5 -81t102.5 -40q24 -5 35.5 -16.5t11.5 -20.5q0 -10 -17 -16t-37 -6q-9 0 -88.5 4t-109.5 4q-40 0 -93.5 -4t-74.5 -4q-18 0 -32.5 8t-14.5 18t12.5 19t28.5 12q67 19 84.5 43t17.5 96v500q0 6 -4 12.5t-8 6.5zM358 799h361q12 0 12 16q0 220 88 385
q2 1 0.5 9t-4.5 12q-29 38 -97.5 71t-137.5 33q-89 0 -162 -98q-76 -100 -76 -404q0 -10 5.5 -17t10.5 -7z" />
    <glyph glyph-name="f_i" unicode="fi" horiz-adv-x="1052" 
d="M371 801q27 -2 184 -2q35 1 55.5 0t45.5 1t37 2t30 3t24 3.5t19 4t16 4t14 4t13 4.5q50 15 63 15q4 0 6 -7t2 -24t-0.5 -36t-1.5 -52.5t-1 -63.5q0 -468 6 -536q3 -28 22 -42t68 -28q27 -8 35 -15.5t8 -19.5q0 -22 -47 -22q-25 0 -78 3t-80 3q-38 0 -96 -4t-80 -4
q-39 0 -39 22q0 17 43 33q43 18 60 33.5t18 40.5q10 212 10 549q0 8 -9 18t-16 12q-45 6 -158 6.5t-184 -6.5q-4 0 -12 -8.5t-8 -17.5q0 -395 6 -518q3 -51 20 -68t87 -37q43 -16 43 -35q0 -22 -45 -22q-15 0 -81 3t-104 3q-41 0 -101 -5t-69 -5q-19 0 -30 7t-11 17
q0 19 43 31q49 15 63.5 31t22.5 63q6 41 6 535q0 5 -7.5 13t-14.5 9q-9 1 -33.5 5.5t-40.5 5.5q-7 0 -11.5 7.5t-2.5 14.5q6 24 92 68q18 13 18 26q0 177 56 305q69 156 178 236q126 98 260 98q155 0 217 -92q19 -24 19 -47q0 -33 -41 -66.5t-64 -33.5q-14 0 -80 63
q-68 71 -168 74q-74 0 -127 -64q-98 -114 -98 -475q0 -5 9 -12.5t20 -7.5z" />
    <glyph glyph-name="f_l" unicode="fl" horiz-adv-x="1058" 
d="M659 1460q41 0 113 -35q12 -6 35 7q37 22 61 22q15 0 15 -33l-1 -131q-2 -130 -3.5 -297.5t-1.5 -259.5q0 -551 2 -590q2 -38 20.5 -58.5t69.5 -33.5q18 -4 30.5 -12t12.5 -14q0 -29 -45 -29q-21 0 -84 2t-84 2q-45 1 -91 -2.5t-53 -3.5q-55 0 -55 24q0 18 43 31
q47 12 62 36.5t18 70.5q4 74 5 160t0.5 194.5t0.5 167.5q0 24 -16 24q-27 1 -174.5 3.5t-178.5 3.5q-7 0 -12.5 -8t-5.5 -21q-1 -50 -0.5 -218.5t2.5 -250.5q1 -65 9.5 -94.5t26.5 -41.5t62 -22q50 -14 50 -30q0 -11 -17.5 -20t-32.5 -9q-30 0 -83 3t-72 3q-67 0 -122.5 -4
t-66.5 -4q-18 0 -31.5 6t-13.5 16q0 18 47 31q75 21 84 84q6 45 6 533q0 31 -20 34l-76 11q-12 4 -12 12q0 15 14.5 28t40.5 27.5t31 18.5q22 16 22 34q2 104 27 211q49 217 195 336q109 86 247 86zM555 1362q-95 0 -147 -86q-66 -112 -66 -459q0 -7 8 -11.5t15 -4.5
q-1 0 14.5 -0.5t40.5 -0.5t57 -0.5t66.5 -1t66 -0.5t59 1t42.5 2q7 1 12.5 8.5t5.5 15.5q-1 21 -10 342q-3 113 -19 129q-23 23 -32 31.5t-41 21.5t-72 13z" />
    <glyph glyph-name="f_f_i" unicode="ffi" horiz-adv-x="1593" 
d="M713 707h-353q-20 0 -20 -48q0 -436 8 -487q5 -50 25.5 -76.5t72.5 -40.5q56 -15 56 -37q0 -12 -18 -19t-42 -7q-12 0 -91 4t-101 4q-40 0 -96.5 -5t-57.5 -5q-19 0 -33 7t-14 17q0 8 13 18.5t30 14.5q65 19 79 41.5t19 97.5q-1 24 0.5 230.5t-0.5 259.5q0 8 -6.5 14
t-15.5 8l-74 2q-22 0 -22 37q1 4 18.5 14.5t42.5 24.5t35 21q11 7 15.5 11t8 9.5t3.5 13.5q0 151 57 275q30 64 83.5 124t117.5 99q119 80 239 80q146 0 221 -78q7 -10 17 0q55 57 137 94t160 37q148 0 215 -92q16 -24 16 -47q0 -33 -40 -66.5t-64 -33.5q-8 0 -78 63
q-68 71 -162 74q-71 0 -127 -62q-102 -119 -102 -475q0 -20 16 -20q21 0 87.5 -1t109.5 -1q84 -1 140 4t68.5 8.5t43.5 13.5q6 2 18 6.5t20.5 6.5t16.5 2t10 -39.5t2 -143.5q0 -468 6 -536q3 -28 22 -42t68 -28q28 -10 35.5 -17t7.5 -18q0 -22 -47 -22q-25 0 -78 3t-81 3
q-37 0 -95 -4t-79 -4q-39 0 -39 24q0 17 43 33q42 15 59 30.5t18 41.5q11 175 11 549q0 8 -7 17t-14 11q-46 6 -163 7.5t-189 -5.5q-1 0 -4.5 -2t-6.5 -7t-3 -11q0 -456 4 -510v-10q0 -32 1.5 -45t13.5 -28.5t36 -23.5t70 -18q45 -10 45 -33q0 -10 -16 -16t-36 -6
q-9 0 -87.5 4t-108.5 4q-40 0 -96.5 -4t-77.5 -4q-18 0 -31.5 6t-13.5 16t13 19t28 12q67 18 84.5 44t17.5 99q0 29 2 231t2 269q0 6 -6.5 12.5t-11.5 6.5zM362 799h351q6 0 12 5t6 11q0 212 94 385q5 10 -4 23q-79 96 -235 96q-92 0 -162 -98q-36 -46 -59 -147.5
t-23 -250.5q0 -8 5.5 -16t14.5 -8z" />
    <glyph glyph-name="f_f_l" unicode="ffl" horiz-adv-x="1593" 
d="M721 707h-363q-18 0 -18 -48q0 -18 3 -253.5t3 -245.5q0 -46 22 -69t78 -38q54 -15 54 -35q0 -12 -17 -19t-41 -7q-12 0 -91 4t-101 4q-40 0 -95 -4t-57 -4q-45 0 -45 20q0 8 10.5 17.5t28.5 13.5q63 19 78 43.5t20 99.5q-1 28 -1 119.5t0.5 213.5t0.5 157q0 6 -7 13.5
t-17 8.5q-58 12 -66 13q-16 0 -16 34q0 4 14 12t36.5 18.5t33.5 17.5q25 17 25 34q0 148 63 285q28 64 81.5 125t117.5 100q110 74 237 74q58 0 117.5 -20.5t91.5 -53.5q9 -9 14 0q60 60 122 91.5t139 31.5q61 0 133 -35q11 -7 22 -2q44 31 72 31q14 0 14 -33l-1 -131
q-2 -130 -3.5 -297.5t-1.5 -259.5q0 -551 2 -590q2 -38 20.5 -58.5t69.5 -33.5q18 -4 30.5 -12t12.5 -14q0 -29 -45 -29q-21 0 -84 2t-84 2q-43 1 -89.5 -2.5t-53.5 -3.5q-55 0 -55 24q0 20 43 33q47 14 63 37t19 68q4 74 5 160.5t0.5 195.5t0.5 168q0 11 -3.5 18t-7.5 7
q-69 2 -176 2t-186 2q-12 0 -12 -27q0 -26 1 -262.5t1 -247.5q0 -35 2 -49.5t14.5 -31t37.5 -24.5t73 -18q43 -12 43 -35q0 -10 -14.5 -16t-34.5 -6q-9 0 -90 4t-111 4q-40 0 -94.5 -4t-75.5 -4q-18 0 -33.5 8t-15.5 18t13.5 19t29.5 12q68 19 86 43t18 96v502q0 17 -10 17z
M365 799h356q10 0 10 16q0 220 90 389q2 1 0.5 9t-4.5 12q-79 96 -235 96q-91 0 -160 -96q-36 -45 -58 -148.5t-22 -253.5q0 -24 23 -24zM1094 1362q-92 0 -142 -88q-31 -53 -51 -172t-20 -285q0 -7 7 -11.5t13 -4.5q-1 0 14.5 0t40 -0.5t56.5 -0.5h66h66t59 1t42 2
q9 1 15 8.5t6 15.5q-1 21 -3 165t-3 175q-3 107 -25 129q-15 16 -22 22.5t-25 19.5t-41 18.5t-53 5.5z" />
    <glyph glyph-name=".notdef" horiz-adv-x="1024" 
d="M0 0v1434h1024v-1434h-1024zM512 809l348 522h-696zM573 717l349 -522v1044zM164 102h696l-348 523zM102 1239v-1044l349 522z" />
    <glyph glyph-name=".null" horiz-adv-x="0" 
 />
    <glyph glyph-name="nonmarkingreturn" horiz-adv-x="682" 
 />
    <glyph glyph-name="space" unicode=" " horiz-adv-x="407" 
 />
    <glyph glyph-name="exclam" unicode="!" horiz-adv-x="595" 
d="M332 1253q55 0 83.5 -52.5t26.5 -117.5q-2 -25 -18 -168.5t-33 -288.5t-18 -157q-2 -24 -13.5 -49t-27.5 -25q-14 0 -27 24t-14 58q-1 13 -32 262.5t-38 347.5q-5 83 33.5 124.5t77.5 41.5zM330 236q62 0 93.5 -42.5t31.5 -87.5q0 -55 -36 -93t-91 -38q-48 0 -87.5 33
t-39.5 98q0 63 44 96.5t85 33.5z" />
    <glyph glyph-name="quotedbl" unicode="&#x22;" horiz-adv-x="618" 
d="M215 1411q16 0 24.5 -15.5t8.5 -27.5q0 -75 -55 -362q-21 -62 -46 -62q-10 0 -17 16.5t-9 34.5q-35 289 -35 308q0 6 4.5 19.5t9.5 16.5q1 1 15 12.5t25 19.5t26 18.5t27.5 16t21.5 5.5zM512 1425q10 0 18.5 -11t8.5 -32q0 -56 -17.5 -171.5t-36.5 -194.5
q-11 -68 -43 -68q-5 0 -9.5 5t-7.5 12.5t-5.5 14t-4 13.5t-1.5 8q-11 104 -20.5 180t-13.5 105.5t-5 42.5q0 10 10.5 24t20.5 19q2 1 20 12.5t30.5 19t29 14.5t26.5 7z" />
    <glyph glyph-name="numbersign" unicode="#" horiz-adv-x="995" 
d="M915 881q-17 -70 -32 -70l-156 -6q-7 0 -12 -21l-56 -219q-2 -5 0.5 -9t6.5 -3l165 6q7 0 11 -18t2 -29q-4 -24 -18 -51t-29 -27l-162 -6q-10 0 -12 -14l-93 -351q-3 -12 -20 -20t-35 -8q-10 0 -19 5.5t-5 16.5l88 351q1 7 -2 12.5t-7 5.5l-198 -8q-3 0 -12 -7t-9 -10
l-94 -354q-3 -10 -20.5 -16t-26.5 -6q-10 0 -21.5 10t-9.5 16l88 344q5 21 -12 21l-145 -4q-4 0 -9.5 14t-5.5 18q6 32 19.5 60t25.5 28l150 9q16 0 18 14l56 221q0 17 -9 17l-170 -5q1 0 -0.5 8t-3 22t1.5 34q4 14 15.5 36t19.5 23l166 9q3 0 7.5 4t4.5 6l82 317
q4 9 23.5 16t38.5 7q5 0 12.5 -7.5t7.5 -11.5l-80 -315q0 -12 6 -12l211 6q10 0 13 16l82 322q7 20 63 20q3 0 7 -2.5t7 -9.5t0 -16l-79 -310q-4 -18 4 -18l155 2q4 -9 6.5 -27.5t-0.5 -25.5zM631 780q1 4 1 9t-1.5 9t-5.5 3l-205 -6q-13 0 -17 -17l-55 -219
q-2 -4 2.5 -10.5t9.5 -5.5l201 8q14 0 17 16z" />
    <glyph glyph-name="dollar" unicode="$" horiz-adv-x="995" 
d="M526 528l-47 -458q0 -4 3 -7.5t5 -3.5q103 11 175.5 72.5t72.5 157.5q0 82 -44.5 136.5t-151.5 113.5q-13 0 -13 -11zM485 766l47 424q0 16 -10 16q-100 -3 -163.5 -63t-63.5 -162q0 -75 51 -131t127 -92q4 -2 8 1t4 7zM545 1280l16 137q0 6 10 6q16 0 34 -6.5t18 -13.5
l-13 -121q0 -12 8 -12q25 -3 54 -9t47.5 -11.5t44.5 -13.5t31 -9q4 -1 7.5 -3.5t6.5 -6.5t5 -7.5t4 -9.5l3.5 -10.5t4 -13t3.5 -13.5q15 -87 15 -116q0 -54 -19 -54t-34 37q-47 128 -181 172q-4 2 -9 -3t-5 -11l-45 -457q0 -10 8 -18q183 -87 256.5 -172t73.5 -205
q0 -148 -150 -260q-33 -27 -110.5 -49t-145.5 -29q-6 0 -10 -5t-4 -11l-20 -154q-3 -6 -16 -11t-21 -3q-15 0 -27 12l16 158q0 14 -8 14q-61 6 -114 20q-20 5 -113 33q-31 3 -39 49q-5 24 -18 105.5t-13 87.5q0 11 5 23t14 12q17 0 32.5 -20t42.5 -68q42 -76 91.5 -117.5
t115.5 -59.5q13 -3 13 9l51 485q0 14 -6 18q-63 31 -110 62t-93.5 76t-71.5 104t-26 129q0 120 96 213q46 50 122.5 80t162.5 31q7 0 10 10z" />
    <glyph glyph-name="percent" unicode="%" horiz-adv-x="1484" 
d="M379 1292q70 0 127 -35t90 -90t50.5 -115t17.5 -116q0 -70 -17.5 -135.5t-52 -121t-93 -89t-132.5 -33.5q-73 0 -129.5 32t-89.5 85t-49.5 114.5t-16.5 126.5q0 73 17.5 138.5t52.5 120t93 86.5t132 32zM391 610q32 0 56.5 23t38.5 56.5t22.5 78t11 80.5t2.5 72
q0 44 -7 92.5t-23 102.5t-50.5 89t-81.5 35q-40 0 -69 -31.5t-42 -82t-18.5 -95.5t-5.5 -90q0 -47 8.5 -99.5t26.5 -106.5t52 -89t79 -35zM1145 1317q12 0 24.5 -9t18.5 -18.5t4 -11.5q-496 -793 -844 -1337q-4 -4 -20 -2t-21 6q-27 24 -10 51q138 221 414 658t401 636
q7 12 17.5 19.5t15.5 7.5zM1112 709q57 0 105 -23.5t80.5 -61t55.5 -85t33.5 -95.5t10.5 -92q0 -71 -17 -136.5t-51.5 -121.5t-93 -89.5t-133.5 -33.5q-73 0 -129.5 32.5t-89.5 86t-49.5 115t-16.5 125.5q0 72 18 138t52.5 121t92.5 87.5t132 32.5zM1122 25q40 0 68.5 33.5
t41.5 87t18 99t5 89.5q0 43 -7.5 92t-23.5 103t-50 89t-80 35q-40 0 -69.5 -31.5t-43 -81.5t-19.5 -96t-6 -90q0 -46 9 -99t27.5 -106.5t52.5 -88.5t77 -35z" />
    <glyph glyph-name="ampersand" unicode="&#x26;" horiz-adv-x="1576" 
d="M551 1255q78 -1 141 -42t95 -98.5t32 -113.5q0 -25 -6 -47.5t-20.5 -42.5t-27 -34.5t-36.5 -31.5t-37 -25.5t-40.5 -24.5t-35.5 -21q-3 -2 -3 -5t1 -5t2 -2q62 -39 166.5 -139t171.5 -183q10 -11 15.5 -10.5t15.5 10.5q71 72 211 283q25 38 25 61q0 26 -88 43
q-14 2 -27.5 9t-13.5 18q0 10 14 17.5t37 7.5q151 0 207 6q135 18 145 18q20 0 32.5 -6.5t12.5 -13.5q0 -21 -45 -33q-72 -20 -122 -58.5t-122 -117.5q-30 -34 -123 -146.5t-122 -144.5q-10 -15 0 -25q10 -15 49 -70.5t61 -88.5q74 -107 225 -111q84 0 154 45q11 6 17 2.5
t6 -10.5q0 -29 -37 -66q-57 -53 -136 -74.5t-141 -19.5q-76 0 -131 21q-51 22 -84 82q-73 134 -96 168q-1 0 -3.5 1.5t-4 2t-4.5 -1.5q-54 -64 -122.5 -129t-115.5 -93q-96 -55 -194 -55q-150 0 -257.5 104.5t-107.5 260.5q0 46 14 89.5t32.5 74t47.5 62.5t48.5 48.5
t45.5 36.5q77 59 123 86q9 5 2 12q-61 48 -99 110.5t-38 125.5q0 125 96 209q41 34 94.5 54.5t100.5 20.5zM520 1196q-38 0 -81.5 -41t-43.5 -123q0 -65 48 -127t114 -102q15 -7 29 2q19 12 55 53q37 43 37 141q0 28 -8.5 59.5t-25.5 63t-49.5 52.5t-74.5 22zM541 98
q75 0 158.5 54.5t138.5 128.5q13 19 -9 47q-69 95 -193 214t-169 144q-20 14 -45 -4q-176 -135 -176 -305q0 -56 25 -109.5t67 -89.5q91 -80 203 -80z" />
    <glyph glyph-name="quotesingle" unicode="'" horiz-adv-x="356" 
d="M231 1419q29 0 29 -43q2 -98 -53 -364q-3 -10 -8.5 -22.5t-17 -27t-21.5 -14.5t-20.5 18.5t-12.5 37.5q-19 222 -39 309q0 4 4.5 16t9.5 17q19 19 62.5 46t66.5 27z" />
    <glyph glyph-name="parenleft" unicode="(" horiz-adv-x="698" 
d="M264 578q0 -146 15.5 -263.5t33 -193.5t68.5 -172t82 -143.5t113 -163.5l6 -9q19 -23 4 -41q-26 -22 -45 -22q-28 0 -62 37q-163 183 -244 418.5t-81 506.5q0 156 32.5 307.5t86 271.5t113 212.5t122.5 157.5q13 13 31.5 25t27.5 12q19 0 34 -9.5t15 -19.5q0 -17 -20 -37
q-149 -136 -240.5 -375.5t-91.5 -498.5z" />
    <glyph glyph-name="parenright" unicode=")" horiz-adv-x="698" 
d="M432 506q0 169 -21.5 303.5t-68 246t-100.5 196.5t-138 190q-13 23 5 41q22 22 45 22q35 0 69 -39q316 -384 316 -911q0 -155 -32.5 -305t-86.5 -268t-112.5 -209t-121.5 -156q-13 -13 -32 -26t-27 -13q-30 0 -39 23q-7 10 16 39q147 153 237.5 383.5t90.5 482.5z" />
    <glyph glyph-name="asterisk" unicode="*" horiz-adv-x="669" 
d="M301 1337q7 1 15.5 -7.5t13.5 -20.5q7 -19 13 -45.5t14.5 -73t13.5 -68.5q5 -9 14 -2q94 64 147 88q50 14 50 -10q0 -14 -23 -37q-37 -42 -133 -108q-9 -9 2 -17q115 -65 158 -100q28 -20 28 -31q0 -27 -51 -16q-74 17 -168 65q-1 1 -3.5 -0.5t-4.5 -4.5t-2 -7
q2 -59 2 -154q0 -54 -25 -59q-24 0 -38 41q-17 60 -29 168q-4 13 -12 10q-99 -60 -162 -82q-20 -7 -34.5 -3t-14.5 14t7 21.5t15 16.5q30 26 137 99q7 14 -2 18q-93 47 -143 84q-25 17 -25 35q0 29 48 14q16 -4 163 -61q1 -1 3.5 -0.5t5 3.5t2.5 7q-7 160 -2 191q3 29 20 32
z" />
    <glyph glyph-name="plus" unicode="+" horiz-adv-x="1277" 
d="M580 1022q0 11 35 20t61 9q13 0 22 -8.5t9 -14.5l-7 -444q0 -13 13 -13l424 4q5 0 10.5 -9.5t5.5 -18.5q0 -34 -9.5 -56t-19.5 -22l-411 -6q-13 0 -13 -19l-4 -442q0 -11 -26.5 -22t-63.5 -11q-8 0 -16 8t-8 15l-2 448q0 9 -4 16t-9 7l-401 2q-26 0 -34.5 13t-8.5 38
q0 21 9.5 39t21.5 18l413 -2q6 0 9.5 5t3.5 10v436z" />
    <glyph glyph-name="comma" unicode="," horiz-adv-x="419" 
d="M184 229q62 0 109 -52t47 -138q0 -52 -20.5 -97t-50.5 -73t-64 -48.5t-60.5 -29t-40.5 -8.5q-36 0 -36 18t36 33q121 74 121 150q0 45 -59 65q-78 27 -78 86q0 46 30.5 70t65.5 24z" />
    <glyph glyph-name="hyphen" unicode="-" horiz-adv-x="598" 
d="M106 473q125 18 398 45q3 0 9.5 -8t6.5 -14q0 -31 -10 -64.5t-27 -34.5q-121 -14 -379 -39q-13 -1 -22.5 8t-9.5 21q0 36 11.5 60t22.5 26z" />
    <glyph glyph-name="period" unicode="." horiz-adv-x="419" 
d="M209 211q59 0 87 -39t28 -80q0 -50 -32.5 -84.5t-82.5 -34.5q-44 0 -78.5 29.5t-34.5 89.5q0 57 38.5 88t74.5 31z" />
    <glyph glyph-name="slash" unicode="/" horiz-adv-x="825" 
d="M90 -98q74 191 265 672.5t292 744.5q15 31 31 31q22 0 49 -11q8 -3 12.5 -11t1.5 -17q-97 -252 -285.5 -722t-273.5 -689q-8 -20 -17.5 -28.5t-17.5 -6.5q-26 0 -43 10q-6 3 -11 12.5t-3 14.5z" />
    <glyph glyph-name="zero" unicode="0" horiz-adv-x="995" 
d="M514 1292q93 0 166.5 -46t117 -115.5t72.5 -158.5t39.5 -167.5t10.5 -151.5q0 -231 -69 -394.5t-165 -225.5q-92 -61 -188 -58q-88 2 -161 45t-120 110t-79 153.5t-46 171.5t-14 168q0 232 70.5 389t177.5 225q86 55 188 55zM479 1231q-36 0 -64.5 -17.5t-60.5 -60.5
q-104 -157 -104 -506q0 -94 14.5 -193.5t44.5 -198t86.5 -161.5t130.5 -63q24 0 48.5 13t42.5 33t27.5 32t14.5 20q80 153 80 512q0 225 -49.5 369t-103.5 182q-56 39 -107 39z" />
    <glyph glyph-name="one" unicode="1" horiz-adv-x="995" 
d="M219 10q0 24 68 41q77 18 104.5 43t34.5 88q14 119 14 594q0 277 -8 318q-7 34 -45 41q-12 2 -32.5 5t-35.5 5.5t-24 5.5q-23 6 -31 12t-8 17q0 8 13 17.5t28 12.5q11 2 45 8.5t49 10t40.5 10t44.5 14.5t36 17l78 39q10 1 16 -6t6 -15q0 -2 -3.5 -73.5t-2.5 -161.5
q0 -569 2 -811q0 -40 1 -61t5.5 -43t12 -32.5t23.5 -22t36.5 -18t54.5 -14.5q54 -11 54 -37q0 -22 -50 -22q-24 0 -94.5 4t-103.5 4q-69 0 -171 -5t-106 -5q-51 0 -51 20z" />
    <glyph glyph-name="two" unicode="2" horiz-adv-x="995" 
d="M113 -6q-10 -2 -26 5t-17 17q-6 19 26 47q94 86 326 377q211 270 211 457q0 126 -67 189t-169 63q-81 0 -145.5 -36.5t-106.5 -90.5q-34 -43 -43 -43q-5 0 -13.5 11.5t-8.5 17.5q0 29 26 67q142 217 369 217q137 0 232.5 -102.5t95.5 -243.5q0 -83 -47 -181t-115 -179
q-24 -28 -106 -123.5t-141.5 -164t-123.5 -138.5q-4 -3 -2.5 -9t6.5 -8q65 -6 242 -5.5t227 7.5q47 8 77 24t67 56q31 35 41 35q9 0 14 -8t3.5 -23t-11.5 -34q-54 -117 -64 -185q-4 -18 -30 -18q-2 0 -112.5 2t-238.5 4t-170 2q-132 0 -206 -6z" />
    <glyph glyph-name="three" unicode="3" horiz-adv-x="995" 
d="M489 1292q69 0 126 -26t90 -65.5t51 -82.5t18 -82q0 -97 -72 -174q-56 -59 -120 -102q-11 -15 4 -21q173 -37 248 -129q57 -70 57 -188q0 -125 -81 -244t-214 -196q-147 -86 -303 -86q-85 0 -146 29.5t-61 72.5q0 23 16 47q25 39 56 39q16 0 49 -29q84 -73 207 -73
q38 0 86 14.5t84 44.5q67 53 100 130.5t33 147.5q0 144 -74 224q-64 69 -184 69q-29 0 -77 -9t-83 -25q-7 -3 -12.5 2.5t-3.5 13.5q0 11 10 28t20 25q30 20 101 58q110 55 153 117t43 141q0 84 -58 143t-140 59q-132 0 -226 -114q-29 -37 -43 -37q-18 0 -18 28q0 19 32.5 66
t80.5 88q110 96 251 96z" />
    <glyph glyph-name="four" unicode="4" horiz-adv-x="995" 
d="M772 913v-403q0 -5 3.5 -10.5t6.5 -5.5l185 4q5 0 8.5 -6t3.5 -13q0 -18 -10.5 -46.5t-22.5 -33.5l-162 2q-3 0 -7.5 -5.5t-4.5 -8.5v-168q2 -46 5.5 -71t8.5 -44t19 -28.5t29.5 -15t46.5 -11.5q45 -10 45 -33q0 -24 -47 -24q-25 -1 -95 3.5t-98 4.5q-36 0 -107 -5
t-106 -5q-24 0 -38.5 7.5t-14.5 18.5q0 8 15 18.5t38 14.5q80 15 99.5 42t24.5 100v7t0.5 6t0.5 7q6 123 6 162q0 23 -10 26q-21 4 -252 3.5t-291 -7.5q-13 -1 -25 4t-12 13q0 6 2.5 13t9 17t11.5 16.5t16.5 21.5t16.5 22l657 899q21 29 39 29h22q29 0 29 -17q0 -9 -10 -22
l-649 -877q-7 -12 4 -16q61 -5 237 -5.5t197 1.5q10 10 10 14l2 391q0 4 7 16t12 15q17 12 59.5 24.5t67.5 12.5q18 0 18 -54z" />
    <glyph glyph-name="five" unicode="5" horiz-adv-x="995" 
d="M866 401q0 -206 -182 -358q-91 -76 -225.5 -118t-231.5 -42q-41 0 -47 2q-28 3 -28 17q0 7 14.5 22.5t26.5 18.5q98 9 186.5 38.5t161 78.5t115 123.5t42.5 164.5q0 97 -54.5 175.5t-151.5 121.5q-164 70 -330 100q-6 1 -16.5 20.5t-10.5 27.5q0 40 35.5 159.5
t67.5 194.5q9 21 23.5 45t21.5 25q41 17 218.5 45t272.5 28q3 0 10 -8t7 -10q0 -55 -41 -107.5t-64 -54.5q-337 -22 -389 -27q-6 0 -15 -6t-10 -12q-41 -120 -43 -129q-1 -10 3 -18.5t12 -10.5q97 -21 222 -68t185 -83q104 -62 159.5 -156t55.5 -199z" />
    <glyph glyph-name="six" unicode="6" horiz-adv-x="995" 
d="M639 748q138 0 213.5 -93t75.5 -229q0 -119 -50.5 -211.5t-134.5 -153.5q-115 -88 -251 -88q-189 0 -299.5 132.5t-110.5 349.5q0 125 42.5 249.5t114.5 228t158.5 188t182.5 145.5q101 64 191 100.5t142 36.5q14 0 27.5 -5.5t13.5 -17.5q0 -13 -34 -29q-4 -2 -7 -3
q-180 -72 -344 -220q-143 -129 -228 -304.5t-85 -356.5q0 -102 34.5 -195t105.5 -156t163 -63q66 0 111 33q46 34 75 97.5t29 152.5q0 135 -66.5 208.5t-168.5 73.5q-24 0 -72.5 -15.5t-77.5 -29.5q-4 -2 -11 3.5t-7 13.5q0 21 22 45q14 16 51 40.5t66 35.5q68 37 129 37z
" />
    <glyph glyph-name="seven" unicode="7" horiz-adv-x="995" 
d="M479 1266q141 -2 336 6q106 4 107 4q30 0 34 -12q0 -12 -16 -39q-24 -33 -176 -334.5t-258 -525.5q-192 -400 -205 -433q-12 -28 -29 -28q-20 0 -35.5 14t-15.5 27t19 47q30 61 246 487t302 613q2 2 -1.5 8t-6.5 6q-126 14 -432 14q-82 0 -123 -8q-39 -3 -63 -24.5
t-64 -81.5q-8 -15 -22 -30t-21 -15q-18 0 -18 26q0 19 22 80q11 26 19 54t11.5 45.5t7.5 39.5t5 27q3 29 21 47q10 8 29 0q36 -14 327 -14z" />
    <glyph glyph-name="eight" unicode="8" horiz-adv-x="995" 
d="M514 1329q149 0 248.5 -86t99.5 -219q0 -116 -112 -209q-17 -16 -40 -32.5t-56.5 -37.5t-43.5 -28q-6 -3 -6.5 -9.5t2.5 -9.5q52 -39 88.5 -70.5t84.5 -83t74 -109.5t26 -118q0 -80 -41.5 -150t-106.5 -116q-104 -78 -252 -78q-91 0 -164 28.5t-116 74t-65.5 98
t-22.5 105.5q0 46 13 86.5t38 73t44 51t48 42.5q108 88 131 103q1 2 0.5 6t-2.5 6q-104 73 -164 150q-76 92 -76 204q0 74 31 134t80 100q54 46 123.5 70t136.5 24zM508 31q97 0 151 63t54 160q0 54 -20.5 103t-62 93.5t-76.5 74t-91 69.5q-7 5 -17.5 9t-13.5 1
q-63 -43 -113.5 -133t-50.5 -170q0 -91 66 -186q34 -37 82.5 -60.5t91.5 -23.5zM494 1274q-79 0 -140 -57t-61 -156q0 -50 17.5 -94t55 -84t74 -69.5t95.5 -70.5q15 -10 24 -4q62 46 92 95q60 107 60 204q0 16 -6.5 42t-23 60.5t-40 63.5t-62.5 49.5t-85 20.5z" />
    <glyph glyph-name="nine" unicode="9" horiz-adv-x="995" 
d="M518 1292q97 0 174 -42.5t123.5 -112.5t71 -154t24.5 -174q0 -143 -66.5 -304.5t-182.5 -302.5t-254 -227q-82 -51 -137 -71.5t-109 -20.5q-12 0 -25.5 7.5t-13.5 15.5q0 10 29 20q202 100 352 281q100 116 163.5 277.5t63.5 314.5q0 106 -35.5 210.5t-105.5 161.5
q-57 46 -139 46q-93 0 -155.5 -80.5t-62.5 -178.5q0 -145 71 -223t190 -78q20 0 40.5 4.5t29.5 8t29 13t21 9.5q7 3 15 -0.5t8 -9.5q0 -15 -10 -35q-8 -20 -37 -43q-40 -35 -100.5 -56.5t-102.5 -21.5q-135 0 -219 95.5t-84 238.5q0 66 19 130.5t71 133t131 113.5
q44 26 105 40.5t108 14.5z" />
    <glyph glyph-name="colon" unicode=":" horiz-adv-x="505" 
d="M254 741q56 0 83.5 -37.5t27.5 -78.5q0 -47 -33 -81t-80 -34q-43 0 -78 29t-35 90q0 31 12.5 54.5t32 35t37.5 17t33 5.5zM254 209q56 0 83.5 -38t27.5 -79q0 -47 -33 -81t-80 -34q-42 0 -77.5 29t-35.5 88q0 58 39 86.5t76 28.5z" />
    <glyph glyph-name="semicolon" unicode=";" horiz-adv-x="505" 
d="M254 739q56 0 83.5 -37.5t27.5 -78.5q0 -47 -33 -81t-80 -34q-40 0 -76.5 28t-36.5 87q0 58 39 87t76 29zM225 221q62 0 108 -50.5t46 -135.5q0 -51 -19.5 -95.5t-48.5 -72t-62 -47.5t-58.5 -28.5t-40.5 -8.5q-35 0 -35 16q0 20 26 35q119 69 119 150q0 39 -45 55
q-29 7 -57.5 29t-28.5 59q0 45 31 69.5t65 24.5z" />
    <glyph glyph-name="less" unicode="&#x3c;" horiz-adv-x="1200" 
d="M1010 164q4 -6 4 -19.5t-10 -36t-27 -38.5q-8 -5 -17 -4.5t-14 2.5l-674 374q-86 48 -86 66q0 8 15 31q20 33 63 55l662 371q19 10 25.5 11t15.5 -7q14 -14 25.5 -30t18 -34.5t-9.5 -25.5l-632 -342q-2 -2 -3.5 -4.5t-4 -9t5.5 -9.5z" />
    <glyph glyph-name="equal" unicode="=" horiz-adv-x="1277" 
d="M1133 772q7 0 13.5 -7.5t6.5 -16.5q0 -38 -5.5 -64.5t-14.5 -26.5h-983q-13 0 -20 12t-7 21q0 22 10 48t21 26zM1130 385q7 0 15 -10t8 -23q0 -35 -9.5 -55.5t-19.5 -20.5l-972 3q-11 0 -20 15.5t-9 29.5q0 22 9.5 42.5t21.5 20.5z" />
    <glyph glyph-name="greater" unicode="&#x3e;" horiz-adv-x="1200" 
d="M1010 526q0 -11 -15 -30q-21 -34 -63 -56l-662 -372q-18 -10 -24.5 -10t-16.5 8q-14 13 -26 30t-16.5 34.5t10.5 25.5q40 21 281 152.5t358 193.5q4 3 1.5 8.5t-6.5 7.5q-561 306 -645 352q-4 6 -3 21t11.5 39t26.5 41q7 4 17 4t12 -2q333 -187 676 -383q54 -31 69 -42.5
t15 -21.5z" />
    <glyph glyph-name="question" unicode="?" horiz-adv-x="731" 
d="M283 1229q46 0 92.5 -26.5t103.5 -74.5q17 -14 50.5 -51.5t72.5 -108.5t39 -132q0 -82 -19.5 -126t-56.5 -83q-35 -24 -180 -105q-12 -5 -19.5 -11.5t-11 -16.5t-5 -16t-2 -21t-1.5 -21q-1 -25 -11 -39t-22 -14q-9 0 -19 18.5t-15 38.5q-27 116 -27 160q0 49 43 81.5
t149 78.5q101 44 101 114q0 37 -5 63.5t-20 53.5t-49 41.5t-86 14.5q-7 0 -41.5 -4.5t-54.5 -4.5q-28 0 -57 36.5t-29 80.5q0 24 23.5 49t56.5 25zM350 221q60 0 89.5 -40t29.5 -83q0 -52 -34.5 -88.5t-86.5 -36.5q-46 0 -83.5 31.5t-37.5 93.5q0 60 41.5 91.5t81.5 31.5z
" />
    <glyph glyph-name="at" unicode="@" horiz-adv-x="1789" 
d="M1016 686q-66 0 -166 -108q-72 -80 -130 -185.5t-58 -179.5q0 -45 30 -45q56 0 172 102q77 68 147 166t103 172q4 9 3.5 24.5t-5.5 18.5q-32 35 -96 35zM1073 784q20 0 44.5 -10t37.5 -24q13 -8 16 2q8 21 21 51.5t14 32.5q3 6 16 12.5t23 5.5q38 0 60 -16q6 -1 9 -11.5
t1 -15.5q-30 -73 -69 -172.5t-88 -239.5t-60 -204q-8 -44 8 -64t65 -20q71 0 145 33.5t135.5 92t100.5 149.5t39 196q0 164 -78 288.5t-211.5 189t-300.5 64.5q-140 0 -263 -45t-213 -124t-155 -184t-97.5 -226.5t-32.5 -249.5q0 -90 22 -176t72 -168t121.5 -143.5
t179.5 -98.5t239 -37q128 0 258 50t242 149q5 5 13 7.5t14 -1t6 -14.5q0 -32 -27 -64q-94 -107 -247.5 -162t-305.5 -55q-110 0 -212.5 25.5t-196 82t-162 139t-109.5 204.5t-41 270q0 188 76 356t201 284t288 183.5t335 67.5q166 0 297 -51t211.5 -137t122.5 -194t42 -228
q0 -105 -45 -205.5t-122.5 -177.5t-190.5 -124.5t-240 -47.5q-67 0 -103 20.5t-36 44.5q-3 16 16 70l56 162q4 6 -4 9q-6 3 -11 -3q-134 -136 -243.5 -219.5t-188.5 -83.5q-30 0 -50.5 25t-20.5 61q-2 57 46 152.5t148 217.5q93 113 206.5 206t176.5 93z" />
    <glyph glyph-name="A" unicode="A" horiz-adv-x="1384" 
d="M723 1354q14 0 33 -54q12 -40 90 -253q73 -207 169 -462t126 -327q26 -63 45 -99.5t42.5 -58.5t44 -30.5t60.5 -18.5q49 -15 49 -35q0 -26 -65 -26q-31 0 -120.5 5t-137.5 5q-35 0 -78.5 -2t-67.5 -2q-63 0 -63 24q0 9 12 19t37 14q46 9 66.5 26.5t19.5 36.5t-4 42
q-5 24 -13 53.5t-22 71t-23 67.5t-29.5 82t-27.5 76q-5 20 -69 20q-279 0 -336 -8q-12 0 -23 -16q-41 -102 -73.5 -212t-32.5 -147q0 -16 5 -28t28.5 -29.5t66.5 -30.5q55 -16 55 -37q0 -26 -57 -26q-12 0 -65.5 3t-96.5 3q-44 0 -123.5 -5t-89.5 -5q-47 0 -47 20
q0 10 11.5 22t33.5 19q36 12 46.5 16t34 15t31.5 19.5t23.5 26.5t27 40.5t26.5 56.5q25 56 177.5 451t192.5 493q13 26 13 43q0 11 4 17q1 1 61 100q22 25 33 25zM815 621q2 0 4.5 6t1.5 10q-135 402 -159 440q-9 18 -17 0q-141 -374 -160 -448q-2 -6 1.5 -10.5t9.5 -4.5
q27 1 99 1.5t131 1.5t89 4z" />
    <glyph glyph-name="B" unicode="B" horiz-adv-x="1206" 
d="M1024 1014q0 -181 -166 -271q-4 -2 -2.5 -8t6.5 -8q252 -113 252 -338q0 -195 -164 -305q-67 -48 -171 -71t-195 -23q-24 0 -160 4t-188 4q-25 0 -70.5 -1t-61.5 -1q-25 0 -42 7t-17 20q0 11 15.5 20t35.5 12q44 8 71.5 17t43 17t23.5 24.5t10.5 27.5t5.5 39
q16 115 16 672q0 262 -12 324q-6 27 -13 39t-34 23.5t-82 18.5q-21 3 -37 12.5t-16 20.5q0 12 16.5 19.5t38.5 7.5h137q31 0 156.5 7t169.5 7q197 0 289 -59q71 -44 108 -114t37 -144zM852 999q0 125 -78.5 197t-220.5 72q-10 0 -41 -5.5t-47 -11.5q-3 -2 -13.5 -14
t-11.5 -18q-12 -99 -12 -455q0 -27 23 -27q76 0 164 14t124 37q50 33 81.5 90.5t31.5 120.5zM922 369q0 89 -46.5 158.5t-123.5 107.5q-74 39 -217 39q-22 0 -43 -3t-33.5 -6.5t-14.5 -5.5q-10 -15 -14 -59q-5 -54 -2 -206.5t10 -205.5q6 -43 33 -67q29 -32 71.5 -51
t67.5 -19q133 0 222.5 87t89.5 231z" />
    <glyph glyph-name="C" unicode="C" horiz-adv-x="1468" 
d="M883 1354q98 0 241 -33q29 -4 85.5 -20.5t70.5 -18.5q6 0 12.5 -5t12.5 -19.5t6 -36.5q0 -21 14 -179q1 -30 -8.5 -48.5t-22.5 -18.5q-15 0 -32 53q-13 51 -37.5 94.5t-46.5 59.5q-80 59 -158.5 82.5t-169.5 23.5q-120 0 -223 -47.5t-172 -127t-107.5 -185t-38.5 -221.5
q0 -194 72 -338q41 -85 105 -150.5t135.5 -103t142 -56t135.5 -18.5q129 0 223 55q63 33 107 80.5t84 118.5q33 53 43 53q14 0 18 -23t0 -44q-4 -36 -31 -102.5t-51 -104.5q-6 -12 -26 -28.5t-37 -25.5q-38 -16 -148.5 -36.5t-224.5 -20.5q-103 0 -200 23.5t-170 61
t-125.5 77t-86.5 78.5q-172 198 -172 471q0 83 22.5 164t58.5 143.5t72.5 108t72.5 75.5q233 189 555 189z" />
    <glyph glyph-name="D" unicode="D" horiz-adv-x="1546" 
d="M692 1335q102 0 197 -19.5t165.5 -51.5t120.5 -63.5t85 -63.5q83 -79 134.5 -205t51.5 -248q0 -106 -30.5 -205.5t-80.5 -173t-105 -127.5t-112 -86q-199 -115 -487 -115q-173 0 -402 17q-39 2 -108 2q-66 0 -66 31q0 24 45 28q44 5 70.5 14t44 22t26 40.5t12 56.5
t5.5 84q6 144 6 281q0 246 -10 526q-1 40 -2 58t-6 41.5t-12 32.5t-22 20t-36 16t-53 10q-18 3 -32.5 13t-14.5 20q0 27 49 27h57q42 0 227.5 9t282.5 9zM602 1272q-110 0 -141 -17q-19 -14 -21 -26q-8 -50 -8 -389v-297q0 -235 8 -355q3 -28 13.5 -51.5t18 -32t13.5 -12.5
q28 -21 80.5 -37t87.5 -16q84 0 194 33.5t189 99.5q96 82 153.5 214t57.5 298q0 133 -60.5 263.5t-158.5 203.5q-75 56 -192.5 88.5t-233.5 32.5z" />
    <glyph glyph-name="E" unicode="E" horiz-adv-x="1153" 
d="M457 1317h301q142 0 188 6q4 1 10.5 -7t8.5 -16q0 -54 2 -117t2 -77q0 -22 -9 -37.5t-22 -15.5q-23 0 -33 49q-19 76 -50 103.5t-87 35.5q-40 6 -132 8.5t-159 -0.5q-3 0 -9 -4t-13 -18t-9 -35q-3 -40 -6 -242.5t0 -224.5q5 -20 15 -20h133q53 0 82.5 0.5t56.5 5.5
t38.5 9.5t24.5 19t18.5 27t16.5 40.5q17 43 37 43q10 0 14.5 -15.5t2.5 -29.5q-7 -100 -7 -148q0 -32 3.5 -75t3.5 -50q1 -27 -5.5 -43t-17.5 -16q-10 0 -20 13.5t-15 31.5q-12 39 -19.5 56t-26 30t-42 16t-74.5 5q-66 4 -202 4q-5 0 -12 -7.5t-7 -11.5q-6 -32 -6 -321
q0 -112 21 -170q12 -37 39 -45q88 -15 186 -15q138 0 194 15q53 13 94 47.5t76 103.5q30 58 48 58q10 0 14.5 -18.5t1.5 -37.5q-2 -15 -33.5 -111t-40.5 -108q-5 -7 -16.5 -15.5t-18.5 -8.5q-1 0 -100 4t-258 8t-307 4q-58 0 -127.5 -5t-104.5 -5q-33 0 -47 5t-14 21
q0 19 57 33q45 11 66.5 18.5t42.5 23.5t29.5 41.5t11.5 66.5q16 229 16 581q0 316 -2 346q-3 68 -25.5 94.5t-89.5 41.5q-33 8 -46 15t-13 19q0 13 17 21t40 8q43 0 141.5 -4t172.5 -4z" />
    <glyph glyph-name="F" unicode="F" horiz-adv-x="1079" 
d="M362 1317h267q54 0 132 1.5t134.5 3t60.5 1.5q8 2 16.5 -4.5t8.5 -15.5q-1 -41 -0.5 -63t3 -68t3.5 -70q2 -21 -7 -38t-22 -17q-27 0 -45 63q-24 74 -47 97.5t-75 31.5q-47 7 -169 7.5t-149 -3.5q-13 -1 -23 -10.5t-10 -15.5q-8 -98 -8 -453q0 -76 21 -76q271 0 295 2
q47 4 67.5 22.5t42.5 71.5q7 18 11.5 26.5t11.5 16t16 7.5q18 0 18 -46q0 -12 -5 -60.5t-5 -68.5q0 -56 2 -100.5t2 -60.5q0 -19 -8 -33t-22 -14q-19 0 -31 43q-14 54 -32 71.5t-52 26.5q-58 10 -137 10q-138 0 -181 -6q-4 0 -9 -9t-7 -16q-3 -59 8 -385q1 -23 2.5 -35.5
t9 -29t22 -26.5t41 -20.5t65.5 -17.5q49 -9 49 -39q0 -10 -15 -17t-43 -7q-23 0 -87.5 3t-106.5 3q-46 0 -136.5 -6t-107.5 -6q-57 0 -57 20q0 12 15 23.5t40 17.5q39 10 64.5 23t35.5 28.5t13 25t4 24.5q16 168 16 620q0 314 -4 367q-3 52 -32 81t-97 46q-51 12 -51 34
q0 25 57 25q48 0 123.5 -3t103.5 -3z" />
    <glyph glyph-name="G" unicode="G" horiz-adv-x="1482" 
d="M850 1354q31 0 60.5 -1.5t59.5 -4.5t50.5 -5.5t50.5 -8.5t42.5 -8t43.5 -9t37 -8q51 -10 78 -17q8 0 16 -13.5t8 -35.5q1 -18 15 -99.5t14 -125.5q0 -20 -8 -32.5t-19 -12.5q-18 0 -36 47q-30 83 -78 143q-40 49 -128 88t-200 39q-128 0 -234.5 -49.5t-176 -134
t-108 -194.5t-38.5 -232q0 -220 92 -373q80 -134 214.5 -208t281.5 -74q30 0 88.5 12.5t95.5 36.5q12 7 27.5 46t15.5 60q0 176 -6 213q-5 17 -9.5 27t-17 23.5t-30.5 21t-50 14.5t-77 10q-23 1 -38.5 12t-15.5 23q0 11 17 20t45 9q16 0 115 -4t131 -4q22 0 85.5 4t98.5 4
q25 0 40 -7.5t15 -19.5q0 -19 -47 -34q-22 -6 -36 -13.5t-21.5 -17.5t-9.5 -15t-7 -18q-10 -29 -10 -254q0 -42 29 -59q17 -9 25 -16.5t9 -10.5t1 -10t-7.5 -16t-23.5 -13q-2 -1 -70 -18t-116 -31q-61 -17 -143 -27t-140 -10q-167 0 -307.5 50t-237.5 137
q-54 52 -97.5 115.5t-78.5 168t-35 219.5q0 313 232 516q97 86 236 135.5t288 49.5z" />
    <glyph glyph-name="H" unicode="H" horiz-adv-x="1671" 
d="M434 752q1 -27 6 -34t17 -7q30 0 290.5 3t471.5 3q17 0 22 53q2 14 1 167.5t-5 207.5q-5 57 -24.5 77.5t-88.5 39.5q-51 14 -51 38q0 23 64 23q11 0 96 -2t113 -2q41 0 110.5 3t75.5 3q57 0 57 -25q0 -20 -59 -34q-60 -14 -82 -41t-25 -76q-16 -166 -16 -676
q0 -52 4 -173.5t4 -129.5q2 -31 6.5 -48t20 -29.5t33 -19t57.5 -18.5q47 -16 47 -39q0 -22 -57 -22q-13 0 -74 3t-96 3q-23 0 -121.5 -6t-118.5 -6q-51 0 -51 22q0 25 45 37q82 24 102 57t25 144q8 172 8 330q0 26 -5.5 34.5t-18.5 8.5q-124 0 -329.5 1.5t-287 2
t-145.5 -1.5q-5 0 -14 -12t-9 -23q-2 -24 -2 -101t1 -169.5t1 -104.5q2 -73 24.5 -106.5t86.5 -53.5q34 -9 47 -17.5t14 -23.5q1 -7 -8.5 -12t-22.5 -6.5t-28 -1.5q-4 0 -42.5 2t-88.5 4t-82 2q-21 0 -93 -4t-110 -4q-61 0 -61 20q0 27 47 39q77 20 100 43t29 84
q18 252 18 649q0 5 1 72.5t1 135.5t-2 108q-3 56 -22 80t-80 37q-58 11 -58 38q0 10 17.5 16.5t42.5 6.5q29 0 94.5 -2t91.5 -2q48 0 112 2t83 2q31 0 48 -6.5t17 -16.5q0 -15 -13.5 -23.5t-45.5 -14.5q-68 -13 -86 -39t-23 -97q-4 -47 -6 -194t0 -178z" />
    <glyph glyph-name="I" unicode="I" horiz-adv-x="694" 
d="M262 668q0 346 -6 448q-2 24 -2.5 32.5t-3 26.5t-5.5 24t-9 17.5t-14 16t-20.5 11t-28.5 10.5t-38 8q-57 10 -57 36q0 25 51 25q25 0 106 -3t117 -3q54 0 120 3t99 3q52 0 52 -25q0 -24 -54 -34q-18 -4 -32.5 -9t-25.5 -9t-20 -11.5t-15 -11t-11 -14t-7.5 -13.5
t-5.5 -15.5t-3.5 -15t-2.5 -16.5t-2 -16q-12 -82 -12 -603q0 -206 6 -305q3 -47 7.5 -71.5t20 -47t44 -35t78.5 -22.5q53 -9 53 -35q0 -11 -17.5 -18.5t-37.5 -7.5q-58 0 -171 6t-134 6q-29 0 -72.5 -2t-83.5 -2q-53 0 -53 29q0 22 61 34q73 16 93 44.5t26 105.5
q10 120 10 459z" />
    <glyph glyph-name="J" unicode="J" horiz-adv-x="675" 
d="M-150 -342q0 13 16 39.5t32 42.5q6 6 24 16.5t25 10.5t30 -9t33 -16q67 -43 107 -43q27 0 44 7.5t38 31.5q49 52 57 170q12 191 12 639q0 455 -12 602q-2 19 -6.5 33t-16 30.5t-36.5 29t-62 18.5q-63 11 -63 38q0 25 55 25q28 0 103.5 -3t123.5 -3q37 0 111 3t104 3
q56 0 56 -20q0 -29 -62 -41q-64 -13 -90.5 -44t-26.5 -106q0 -83 -4 -461t-4 -467q-1 -172 -66.5 -306t-154.5 -202q-128 -98 -233 -98q-51 0 -92.5 25t-41.5 55z" />
    <glyph glyph-name="K" unicode="K" horiz-adv-x="1398" 
d="M88 1296q0 27 55 27q22 0 94 -3t107 -3q32 0 100 2t91 2q55 0 55 -25q0 -19 -60 -34q-54 -11 -74.5 -33t-23.5 -80q-4 -56 -4.5 -238.5t2.5 -201.5q4 -15 14 -15q5 0 18 8l13 7q47 35 227 209t230 231q40 44 34 70.5t-57 40.5q-41 13 -46 23q-1 4 -1 7q0 27 53 27
q20 0 40 -1t38 -1q24 0 148.5 5t154.5 5q54 0 54 -25q0 -9 -16.5 -19.5t-39.5 -16.5q-83 -18 -137.5 -48t-159.5 -110q-76 -60 -222.5 -195t-164.5 -163q-5 -16 0 -21q32 -41 547 -569q44 -44 83.5 -68t61 -29.5t70.5 -13.5q16 -4 28.5 -13.5t12.5 -15.5q0 -14 -16 -22
t-35 -8q-28 0 -150 8t-149 8q-40 0 -81.5 -1t-61.5 -1t-31.5 12t-11.5 25q0 6 5 10t25 10.5t58 14.5q6 2 9.5 9t0.5 11q-78 99 -443 475q-9 10 -21 23t-18.5 20t-14.5 15.5t-12.5 12.5t-9.5 8t-9 5.5t-7 1.5q-5 0 -6.5 -6t-2.5 -20t-1 -17q-6 -60 4 -446q2 -41 29 -66
t94 -43q47 -10 47 -37q0 -26 -53 -26q-20 0 -119 3t-133 3q-33 0 -99.5 -3t-99.5 -3q-18 0 -33.5 8t-15.5 18q0 13 13 20t47 15q79 16 110 49.5t35 120.5q6 210 6 484q0 290 -8 438q-3 53 -26.5 76.5t-86.5 38.5q-53 14 -53 34z" />
    <glyph glyph-name="L" unicode="L" horiz-adv-x="1150" 
d="M94 1296q0 25 62 25q27 0 74 -2t77 -2q44 0 145.5 3t122.5 3q52 0 52 -23q0 -22 -47 -34q-82 -19 -108.5 -36t-29.5 -44q-12 -92 -12 -602q0 -305 14 -424q3 -20 30 -48t40 -30q66 -10 197 -10q99 0 145 6q1 0 5 0.5t6 1t6 1t7 1.5l7.5 2.5t8.5 3.5t9 5l10 6t11 8l12 10
q69 69 117 137q28 45 51 45q5 0 8.5 -7t3.5 -19t-4 -29q-47 -141 -63 -221q-1 -15 -20.5 -25t-29.5 -10q-5 0 -33.5 1t-79 3t-119 4t-173.5 3t-221 1q-83 0 -173 -5t-91 -5q-60 0 -60 22q0 11 13 22t36 15q82 17 113 47.5t39 93.5q10 128 10 674q0 223 -2 291q-1 20 -4.5 33
t-14 27.5t-32.5 25t-57 16.5q-29 6 -43.5 16.5t-14.5 22.5z" />
    <glyph glyph-name="M" unicode="M" horiz-adv-x="1820" 
d="M96 1300q0 14 11.5 17.5t48.5 3.5q68 0 142 -2t132 -2q3 0 12.5 -10t10.5 -17q23 -71 77 -186q342 -719 381 -772q3 -5 10.5 -7.5t10.5 1.5q1 2 70 133t142 271t142 274.5t80 164.5q1 3 10 24t20.5 49t16.5 46q1 7 10.5 18t12.5 11q44 0 150 3t108 3q53 0 53 -23t-53 -32
q-42 -8 -92 -27q-64 -25 -64 -158q0 -611 29 -886q9 -68 33.5 -94t99.5 -48q26 -6 40.5 -17t14.5 -22q0 -12 -17.5 -19t-41.5 -7q-5 0 -108 5t-148 5q-18 0 -74 -3t-82 -3q-20 0 -37.5 7.5t-17.5 21.5q0 21 53 36q25 7 41.5 18.5t26 22t15 30.5t7.5 34t4 43q6 76 4.5 390.5
t-6.5 399.5q-3 10 -6 14.5t-10 -1.5q-21 -35 -149.5 -288.5t-186.5 -375.5q-83 -180 -127 -293q-11 -28 -20 -41t-13.5 -14.5t-13.5 -1.5t-18 11t-13 28q-23 84 -76 217q-64 155 -197.5 434.5t-156.5 333.5q-11 26 -14 -6q-12 -66 -24.5 -359.5t-8.5 -431.5
q3 -79 25.5 -110.5t99.5 -55.5q33 -9 44 -17t11 -22q0 -24 -55 -24q-35 0 -107.5 3t-97.5 3q-24 0 -81 -3t-83 -3q-53 0 -53 29q0 7 11 15.5t30 12.5q48 14 75.5 27.5t44 37.5t23 49.5t13.5 74.5q15 103 40.5 434.5t28.5 449.5q0 10 -2.5 22.5t-10 33t-28 37.5t-51.5 26
q-86 25 -88 25q-12 3 -22.5 12.5t-10.5 19.5z" />
    <glyph glyph-name="N" unicode="N" horiz-adv-x="1579" 
d="M31 1298q0 25 67 25q15 0 103 -3t147 -3q16 0 43 -27q71 -85 162 -203q71 -90 680 -757q8 -8 14 -0.5t6 14.5q3 19 4.5 55.5t1.5 95t-0.5 116.5t-1 149.5t-0.5 165.5q0 99 -10 204q-1 26 -8.5 45t-37.5 42t-83 38q-55 16 -55 45q0 19 53 19q25 0 83 -1t93 -1
q40 0 104.5 4t88.5 4q47 0 47 -22q0 -11 -12 -22.5t-37 -18.5q-72 -16 -99.5 -44t-31.5 -106q-23 -425 -23 -829q0 -50 7 -156.5t7 -116.5q0 -16 -7.5 -29.5t-20.5 -13.5q-20 0 -48 22t-44 44q-16 19 -56.5 73t-70.5 91q-88 104 -360.5 418t-370.5 432q-6 7 -14.5 5
t-8.5 -10q-1 -15 -3 -54.5t-4 -93t-3 -124.5q0 -69 -1.5 -214t-2 -216t1.5 -133q6 -71 31 -101.5t98 -52.5q51 -12 51 -37q0 -26 -66 -26q-28 0 -104 5t-115 5q-24 0 -70.5 -2t-62.5 -2q-53 0 -53 22q0 23 41 35q73 25 93 41q39 31 48 123q1 13 2 29q39 647 39 827
q0 77 -14 98q-37 44 -63.5 58.5t-89.5 31.5q-12 3 -19 5q-45 12 -45 32z" />
    <glyph glyph-name="O" unicode="O" horiz-adv-x="1599" 
d="M788 1354q195 0 357.5 -87.5t258 -243.5t95.5 -347q0 -201 -83 -353t-208 -241q-88 -62 -199.5 -90.5t-203.5 -28.5q-155 0 -296.5 63t-236.5 171q-82 91 -126 210.5t-44 251.5q0 337 267 551q76 62 194.5 103t224.5 41zM743 1286q-67 0 -148.5 -32.5t-133.5 -84.5
q-160 -156 -160 -481q0 -91 25.5 -185t75 -177.5t115.5 -149.5t154 -104.5t183 -38.5q180 0 270 98q71 64 122.5 189.5t51.5 293.5q0 167 -66.5 318.5t-180.5 243.5q-61 50 -148 80t-160 30z" />
    <glyph glyph-name="P" unicode="P" horiz-adv-x="1116" 
d="M854 926q0 142 -96 245t-238 103q-29 0 -59 -19q-18 -14 -21 -79q-1 -19 -1.5 -96.5t-1 -211.5t-1.5 -225q0 -110 2 -255.5t2 -154.5q1 -69 11 -100.5t33 -47t79 -32.5q55 -14 55 -39q0 -24 -67 -24q-21 0 -93 4t-122 4q-29 0 -102 -4t-105 -4q-57 0 -57 28q0 10 12.5 19
t28.5 14q83 19 110.5 51.5t32.5 100.5q10 163 10 370q0 370 -6 568q-1 25 -1.5 34t-3.5 25.5t-10 22.5t-19.5 15t-32 13.5t-48.5 8.5q-63 9 -63 30q0 12 13 19.5t34 9.5q6 1 18.5 1t28.5 -0.5t21 -0.5q38 0 163.5 8t178.5 8q255 0 383 -121q66 -63 92 -137.5t26 -140.5
q0 -64 -13 -117.5t-37.5 -92t-44.5 -61.5t-48 -47q-43 -37 -108 -63.5t-127 -26.5q-68 0 -109 15q-35 14 -35 32q0 7 7 13t18 6h51q43 0 87 19.5t83.5 57.5t64.5 104.5t25 150.5z" />
    <glyph glyph-name="Q" unicode="Q" horiz-adv-x="1597" 
d="M811 1354q137 0 263 -52.5t219 -142t148.5 -216t55.5 -267.5q0 -311 -215 -512q-53 -49 -138 -100t-155 -74q-5 -2 -6.5 -8.5t2.5 -12.5q25 -32 104 -93t150 -105q209 -131 358 -131q28 0 53 3t56 10t33 7q9 2 17.5 -2.5t8.5 -11.5q0 -8 -9 -22t-21 -23
q-37 -30 -98.5 -50t-116.5 -20q-215 0 -451 154q-91 54 -295 211q-108 84 -231 122q-197 64 -319 241t-122 392q0 186 76.5 332t202.5 236q188 135 430 135zM739 1282q-129 0 -231 -80q-105 -84 -156 -210.5t-51 -321.5q0 -111 42 -226.5t116 -207.5q62 -81 178 -140
t188 -59q152 0 256 69q99 69 159 214t60 284q0 160 -57 301.5t-158 235.5q-64 63 -161 102t-185 39z" />
    <glyph glyph-name="R" unicode="R" horiz-adv-x="1292" 
d="M1036 985q0 -83 -45.5 -162t-120.5 -125q-2 -1 -28.5 -14.5t-34.5 -19.5q-5 -3 -8 -14t0 -17q19 -47 126 -209.5t191 -255.5q42 -51 88.5 -79.5t112.5 -41.5q11 -3 22 -13t11 -16q0 -12 -29 -26q-38 -15 -113 -15q-72 0 -150 38.5t-122 95.5q-98 134 -258 385
q-58 86 -82 102q-7 7 -55 17t-90 10q-9 0 -17 -9.5t-8 -15.5q-2 -28 1 -179t7 -235q3 -65 27.5 -92.5t95.5 -44.5q49 -14 49 -35q0 -13 -18 -19.5t-31 -6.5q-36 0 -112 6t-152 6q-20 0 -88 -4t-78 -4q-53 0 -53 28q0 15 38 28q5 2 7 3q34 11 49 16.5t34.5 15.5t27 20.5
t14 27t8.5 39.5q12 189 12 403q0 462 -12 582q-6 54 -25 68.5t-94 33.5q-49 13 -49 35q0 25 55 25h115q34 0 153 5t179 5q114 0 195 -19t139 -67q51 -42 83.5 -112.5t32.5 -143.5zM854 981q0 41 -25.5 102.5t-66.5 102.5q-36 34 -94 56t-109 22q-14 0 -48.5 -4.5
t-49.5 -10.5q-7 -3 -16 -19.5t-9 -23.5q-5 -57 -7.5 -264.5t1.5 -236.5q3 -12 13.5 -21.5t19.5 -9.5q80 0 154 18t102 35q51 33 93 100t42 154z" />
    <glyph glyph-name="S" unicode="S" horiz-adv-x="968" 
d="M561 1354q45 0 95 -7.5t96.5 -18t52.5 -11.5q8 -3 16 -18.5t8 -20.5q2 -16 7 -56.5t9.5 -73.5t4.5 -36q0 -31 -2 -43t-12 -12q-14 0 -29 11.5t-21 31.5q-17 50 -49 92.5t-51 54.5q-60 47 -145 47q-102 0 -169 -68t-67 -171q0 -51 14.5 -90t58 -80.5t75.5 -65.5t115 -79
q14 -10 22 -15q67 -45 112 -82t87 -86t62.5 -105.5t20.5 -123.5q0 -80 -43.5 -158.5t-123.5 -130.5q-49 -32 -129 -53t-150 -21q-54 0 -139 15.5t-129 37.5q-14 8 -30.5 33.5t-16.5 32.5q-4 27 -12 70.5t-13.5 75.5t-5.5 46q0 6 11.5 22.5t17.5 16.5q22 0 75 -116
q25 -53 75.5 -92t100 -55.5t91.5 -16.5q107 0 177 69.5t70 178.5q0 73 -53.5 146.5t-202.5 168.5q-145 94 -221 189t-76 217q0 72 30 137.5t83 111.5q112 101 303 101z" />
    <glyph glyph-name="T" unicode="T" horiz-adv-x="1366" 
d="M698 1315q301 0 469 4q94 5 140 37q21 12 28 12q5 0 8.5 -5.5t4 -16t-4.5 -25.5q-29 -91 -45 -234q-2 -14 -12 -26t-22 -12q-21 0 -29 65q-5 41 -12.5 63t-28 35.5t-47 18t-78.5 6.5q-24 2 -147 1t-140 -5q-7 -1 -12.5 -11.5t-5.5 -15.5v-501q0 -432 8 -508
q4 -39 9.5 -58.5t21 -37.5t42 -28.5t75.5 -21.5q21 -5 38 -16t17 -21q0 -24 -57 -24q-5 0 -45 2.5t-94.5 5t-94.5 2.5q-60 0 -144.5 -7t-88.5 -7q-29 0 -45.5 7t-16.5 17t12.5 21t26.5 14q37 9 61 16.5t41.5 21.5t26 26t14.5 39t7.5 49.5t3.5 68.5q14 424 14 697v243
q0 11 -5.5 19t-10.5 8q-68 10 -254 10q-59 0 -94 -10.5t-58 -36.5q-22 -16 -68 -106q-8 -20 -16.5 -29.5t-12 -10.5t-9.5 -1q-9 0 -15 15.5t-6 31.5q0 9 19.5 104t19.5 166q0 10 11 21.5t20 11.5q4 0 7 -4t9.5 -13t16.5 -16q37 -37 69 -39q106 -12 479 -12z" />
    <glyph glyph-name="U" unicode="U" horiz-adv-x="1560" 
d="M76 1298q0 25 59 25q44 0 109 -3t102 -3q42 0 111 2t88 2q63 0 63 -23q0 -25 -61 -38q-60 -11 -88 -35t-37 -82q-8 -54 -8 -572q0 -158 29 -242.5t85 -148.5q42 -47 129.5 -79.5t167.5 -32.5q43 0 86 8t91 28.5t87.5 51.5t71.5 82t47 116q45 196 45 514q0 165 -8 265
q-5 62 -29 88t-106 45q-15 3 -29 15t-14 22q0 20 47 20q24 0 81.5 -3t92.5 -3q45 0 102.5 2t82.5 2q51 0 51 -23q0 -20 -45 -36q-70 -20 -100 -58.5t-33 -130.5q-1 -49 -9 -215t-10 -207q-14 -483 -256 -618q-117 -66 -295 -66q-123 0 -223 38.5t-147 82.5
q-89 84 -126.5 217t-37.5 385q0 364 -9 486q-7 67 -110 88q-47 11 -47 34z" />
    <glyph glyph-name="V" unicode="V" horiz-adv-x="1343" 
d="M-2 1300q0 12 18.5 19.5t42.5 7.5q13 0 85.5 -5t129.5 -5q39 0 111 2t92 2t34.5 -7.5t14.5 -17.5q0 -28 -49 -36q-39 -7 -62.5 -19t-29.5 -25.5t-7.5 -28t3.5 -26.5q27 -80 151 -402.5t179 -453.5q15 -15 20 -2q7 19 68.5 165t144.5 342.5t119 283.5q18 42 19.5 70
t-16 46.5t-38 28t-59.5 21.5q-21 6 -33 16t-12 20t17 17.5t42 7.5q21 0 73.5 -2t90.5 -2q31 0 98 4t86 4q24 0 42 -7t18 -20q0 -23 -54 -34q-65 -17 -104.5 -54.5t-73.5 -107.5q-26 -56 -78 -164.5t-94 -203.5t-98 -234q-27 -66 -60 -145.5t-46.5 -112t-31.5 -77.5
t-29.5 -80t-25.5 -81q-16 -47 -43 -47q-10 0 -19.5 11t-12.5 28q-26 128 -107 334q-50 134 -160 415t-135 340q-32 79 -70 120t-104 61q-47 15 -47 34z" />
    <glyph glyph-name="W" unicode="W" horiz-adv-x="2021" 
d="M-4 1300q0 8 15 15.5t38 7.5q46 0 112 -3t107 -3q27 0 97 3t75 3q52 0 52 -25q0 -22 -56 -38q-49 -13 -61 -32.5t-2 -49.5q51 -125 181 -426.5t220 -495.5q2 -5 8 -5.5t9 3.5q15 25 72.5 142t103.5 220q7 14 -2 29q-126 301 -197 451q-45 95 -69 121t-83 43
q-51 14 -51 36q0 23 60 23q9 0 69.5 -1t98.5 -1q56 0 124.5 3t69.5 3q21 0 36 -6.5t15 -16.5q0 -29 -49 -38q-64 -12 -75 -31t12 -68q28 -72 147 -336q2 -4 8 -3.5t9 3.5q59 120 129 281q19 42 24 69.5t-5.5 44.5t-29.5 26.5t-53 17.5q-18 4 -30.5 13.5t-12.5 16.5
q0 25 59 25q15 0 60.5 -2t83.5 -2q34 0 94 2t74 2q45 0 45 -21q0 -14 -13 -22t-45 -16q-55 -13 -85.5 -42t-73.5 -106q-86 -150 -195 -364q-2 -5 0.5 -18.5t5.5 -16.5q136 -319 205 -447q2 -6 5.5 -9.5t8 -1.5t9.5 11q85 182 374 836q31 70 17.5 105t-82.5 55q-47 14 -47 32
q0 25 53 25q25 0 73 -2t66 -2q30 0 96.5 3t98.5 3q53 0 53 -23q0 -25 -51 -36q-62 -12 -98 -43.5t-78 -112.5q-1 -2 -26 -50.5t-51 -99t-62 -123.5t-77 -160t-79 -173q-150 -343 -207 -484q-6 -16 -23 -31.5t-30 -15.5q-20 0 -31 39q-14 51 -49 135t-93 213t-77 174
q-10 14 -16 5q-8 -18 -54 -112.5t-71.5 -149t-60 -135t-52.5 -134.5q-6 -17 -22 -32t-25 -15q-12 0 -20 8t-17 31q-55 157 -127 326q-72 174 -182 426t-160 348q-8 14 -23 43.5t-20.5 39t-19 27.5t-25 25.5t-31 16t-45.5 14.5q-21 3 -37 13t-16 23z" />
    <glyph glyph-name="X" unicode="X" horiz-adv-x="1421" 
d="M47 1303q0 24 59 24q15 0 111.5 -5t136.5 -5q43 0 96 2t80 2q50 0 50 -23q0 -22 -48 -34q-72 -20 -38 -78q47 -86 140.5 -232t117.5 -170q4 -4 11.5 -5.5t8.5 1.5q53 59 153 194.5t126 184.5q10 24 11.5 40t-11.5 28t-31.5 19.5t-48.5 13.5q-26 5 -38.5 15t-12.5 19
q0 27 59 27q31 0 93 -2t89 -2q25 0 108.5 3t106.5 3q19 0 33.5 -7t13.5 -16q0 -24 -45 -36q-81 -15 -137 -49t-115 -103q-231 -270 -317 -389q-1 -3 -1 -11.5t1 -13.5q8 -22 134 -210.5t173 -254.5q32 -42 45 -58.5t36.5 -41.5t43.5 -35.5t50 -23t71 -23.5q23 -6 36 -17.5
t13 -21.5q0 -24 -61 -24q-30 0 -123.5 6t-163.5 6q-33 0 -97 -4t-73 -4q-26 0 -38.5 8t-12.5 18q0 12 9.5 20t35.5 15q61 16 78 27q7 6 10.5 15.5t-2.5 21.5q-41 72 -151 243t-128 187q-13 13 -20 6q-128 -154 -225 -299q-35 -54 -50 -88t-7.5 -55t23 -31t50.5 -23
q49 -17 49 -37q0 -26 -51 -26q-24 0 -100 3t-111 3q-47 0 -120.5 -5t-92.5 -5q-53 0 -53 22q0 33 77 47q68 13 134 53t106 85q165 180 326 403q13 18 6 29q-12 32 -133 219.5t-197 292.5q-70 96 -203 125q-55 11 -55 37z" />
    <glyph glyph-name="Y" unicode="Y" horiz-adv-x="1273" 
d="M6 1305q0 22 55 22q7 0 92.5 -5t141.5 -5q25 0 68.5 2t87.5 2q45 0 45 -23q0 -26 -45 -38q-51 -11 -54 -33.5t23 -61.5q44 -83 268 -448q3 -5 10.5 -3.5t10.5 7.5q62 88 264 422q30 56 16 79.5t-76 37.5q-22 6 -32.5 17t-10.5 23q0 19 48 19q27 0 68.5 -1t64.5 -1
q43 0 129.5 4t97.5 4q18 0 30.5 -5.5t12.5 -14.5q0 -22 -53 -37q-69 -18 -119.5 -55.5t-104.5 -104.5q-57 -71 -158 -226.5t-114 -174.5q-18 -26 -34.5 -65.5t-16.5 -59.5q0 -336 12 -435q6 -34 35 -54.5t111 -41.5q55 -13 55 -37q0 -22 -62 -22q-14 0 -83 4t-95 4
q-73 0 -177.5 -6t-108.5 -6q-52 0 -52 22q0 26 58 37q128 29 133 98q6 84 6 424q0 26 -18 74q-52 111 -261 430q-75 112 -110.5 145t-100.5 48q-28 6 -42.5 17t-14.5 22z" />
    <glyph glyph-name="Z" unicode="Z" horiz-adv-x="1269" 
d="M641 1313q376 0 451 10q34 5 34 -10q0 -21 -24 -51q-8 -8 -20 -23.5t-30.5 -41t-35.5 -50t-45 -65t-49 -70.5q-72 -107 -171.5 -259.5t-174.5 -269.5t-148 -231.5t-82 -128.5q-11 -15 8 -27q14 -9 112 -15.5t193 -6.5q224 0 261 6q55 7 84 18.5t68 51t102 126.5
q5 7 13 18t11.5 15.5t9 10.5t10 8t9.5 2q18 0 18 -45q0 -34 -102 -260q-19 -35 -119 -35q-90 0 -390.5 4t-338.5 4h-195q-11 0 -22.5 9t-11.5 20q0 7 10.5 23t37 51.5t40.5 54.5q56 72 354.5 524.5t335.5 521.5q6 11 2.5 19t-10.5 10q-100 10 -371 10q-102 0 -150 -10
q-114 -26 -184 -156q-11 -23 -23.5 -34t-21.5 -11q-7 0 -12 7t-6.5 22.5t6.5 40.5q1 4 18 48t36 99t28 94q1 12 9 19.5t17 7.5q5 0 16.5 -5.5t16.5 -12.5q16 -16 36.5 -22t65.5 -9q165 -6 324 -6z" />
    <glyph glyph-name="bracketleft" unicode="[" horiz-adv-x="700" 
d="M287 1473h264q20 0 34.5 -8.5t14.5 -20.5t-16.5 -23.5t-34.5 -13.5q-15 0 -95.5 -6.5t-91.5 -7.5q-12 0 -21 -16t-11 -36q-8 -153 -8 -690q0 -68 14 -852q2 -97 37 -102q141 -16 194 -16q13 0 33.5 -10t20.5 -25q0 -14 -18.5 -21.5t-41.5 -7.5q-9 0 -76 -2t-100 -2
q-35 0 -80.5 -1t-46.5 -1q-20 0 -26.5 15t-6.5 57v1245q0 147 -0.5 259.5t-1 165.5t-0.5 56q0 46 15 57q7 7 49 7z" />
    <glyph glyph-name="backslash" unicode="\" horiz-adv-x="743" 
d="M670 -102q2 -6 -4 -17t-15 -12q-24 -6 -37 -6q-13 -3 -21.5 6t-10.5 18q-339 939 -504 1424q-2 7 1 16t11 12q39 11 55 11q15 0 27 -25q228 -662 498 -1427z" />
    <glyph glyph-name="bracketright" unicode="]" horiz-adv-x="700" 
d="M416 -387q-72 0 -155 -1t-89 -1q-28 0 -49 10t-21 21q0 12 18.5 24t49.5 15q13 1 80.5 6.5t87.5 7.5q28 4 31 43q8 156 8 698q0 100 -2.5 228.5t-6.5 314t-6 305.5q0 102 -34 105q-42 3 -104 11t-79 9q-24 3 -41.5 13t-17.5 20q0 13 20 23t46 10q3 0 65.5 -1t97.5 -1
t84 1t50 1q28 0 28 -72v-1247q0 -146 0.5 -262.5t1 -174.5t0.5 -61q0 -29 -10 -39q-6 -6 -53 -6z" />
    <glyph glyph-name="asciicircum" unicode="^" horiz-adv-x="960" 
d="M483 1315q11 0 33 -26t35 -52l305 -596q15 -32 2 -45q-20 -22 -49 -33t-41 6l-274 564q-14 21 -23 2l-283 -572q-5 -4 -17 -4.5t-32.5 9t-36.5 26.5q-8 12 -8 17.5t8 23.5l308 596q42 84 73 84z" />
    <glyph glyph-name="underscore" unicode="_" horiz-adv-x="1013" 
d="M0 -254h1014v-100h-1014v100z" />
    <glyph glyph-name="grave" unicode="`" 
d="M279 1335q22 0 53 -71q24 -49 64.5 -144.5t60.5 -154.5q6 -13 4.5 -32.5t-12.5 -19.5q-24 0 -48 33q-46 59 -108.5 156t-81.5 131q-18 30 -18 55q0 8 9 18.5t23 16.5q24 12 54 12z" />
    <glyph glyph-name="a" unicode="a" horiz-adv-x="813" 
d="M426 827q118 0 184 -96q23 -32 32 -69t9 -101q0 -47 -4 -201.5t-4 -158.5q0 -33 10 -55.5t25.5 -31.5t26.5 -12.5t20 -3.5q8 0 35.5 10t42.5 21q6 4 12 -6q6 -6 6 -21q0 -33 -60 -80t-124 -47q-40 0 -77 25t-54 78q0 2 -4.5 5.5t-7.5 2.5q-49 -34 -104.5 -60t-80.5 -34
q-35 -12 -82 -12q-55 0 -98 57t-43 133q0 55 39 104q5 7 11.5 12.5t11.5 9.5t14.5 9t13.5 7t16 7.5t15 6.5q18 7 123 37.5t116 33.5q60 18 60 37q4 36 4 168q0 45 -45.5 91t-114.5 46q-53 0 -84 -22q-21 -11 -14 -84q0 -11 -12 -23q-15 -12 -70.5 -39.5t-63.5 -27.5
q-9 0 -16.5 9t-7.5 17q0 80 154 181q43 31 101 54t89 23zM365 86q42 0 110 35q8 5 16.5 25.5t8.5 25.5q4 49 4 160q0 5 -5.5 10.5t-11.5 5.5q-40 0 -102.5 -19t-108.5 -42q-13 -9 -20 -16t-13.5 -23t-6.5 -39q0 -60 43.5 -91.5t85.5 -31.5z" />
    <glyph glyph-name="b" unicode="b" horiz-adv-x="995" 
d="M930 428q0 -118 -50.5 -209t-127.5 -151q-57 -48 -135.5 -70.5t-143.5 -22.5q-51 0 -136.5 14t-123.5 27q-15 8 -43 -6q-12 -6 -25 -6q-12 0 -12 27q12 192 12 680q0 144 -3.5 324t-6.5 202q-6 32 -51 70q-38 28 -40 34q-1 2 -1 5q0 2 10.5 14.5t14.5 13.5
q14 5 43.5 14.5t47.5 16t40.5 15.5t36.5 18q40 24 51 24q6 0 14 -10t8 -16q-18 -405 -18 -494q0 -153 4 -176q0 -3 5 -6.5t7 -1.5q49 32 114.5 50.5t119.5 18.5q150 0 254 -90q67 -57 101 -137.5t34 -171.5zM760 385q0 62 -26 136.5t-75 127.5q-38 38 -96.5 63t-126.5 25
q-83 0 -123 -30q-13 -9 -16 -31q-4 -36 -4 -119q0 -150 16 -328q3 -64 41 -102q38 -40 97 -63t94 -23q18 0 55 19.5t70 50.5q41 40 67.5 121t26.5 153z" />
    <glyph glyph-name="c" unicode="c" horiz-adv-x="802" 
d="M532 821q51 0 107.5 -12.5t83.5 -34.5q13 -9 22 -29.5t9 -31.5q0 -22 -29.5 -52t-38.5 -30q-24 0 -80 39q-7 5 -23.5 17.5t-22.5 16t-19.5 13t-20 12.5t-18.5 8.5t-21.5 7.5t-21.5 3.5t-25 1.5q-26 0 -64.5 -20.5t-62.5 -49.5q-86 -95 -86 -236q0 -124 53 -204
q38 -64 108 -101t150 -37q94 0 183 62q11 7 20 9t14 -1t5 -8q0 -33 -27 -60q-53 -59 -133.5 -93t-161.5 -34q-94 0 -173 44.5t-130 119.5q-27 44 -45 110.5t-18 129.5q0 109 53 200.5t145 153.5q55 39 137 62.5t131 23.5z" />
    <glyph glyph-name="d" unicode="d" horiz-adv-x="1021" 
d="M553 827q81 0 131 -8q5 -1 9.5 6.5t6.5 16.5q7 47 5 211t-7 207q-2 10 -4.5 16t-25.5 25.5t-66 41.5q-20 11 -20 19q0 6 12.5 20t21.5 15q34 4 100.5 22.5t108.5 34.5q18 6 27 6q5 0 11 -10.5t5 -22.5q-7 -72 -9.5 -121t-5.5 -221t-3 -467q0 -349 6 -466q2 -84 31 -84
q13 0 59 7.5t51 8.5q5 0 9 -5t4 -7q0 -10 -13.5 -30t-21.5 -22q-127 -20 -184 -40q-62 -21 -74 -21q-6 0 -14.5 10t-8.5 17q0 8 2 38t2 46q0 5 -4 8.5t-8 3.5q-114 -102 -266 -102q-72 0 -140 30t-116 82q-98 110 -98 281q0 72 19 134.5t52.5 108t69 78t76.5 56.5
q64 39 141.5 58t128.5 19zM477 760q-88 0 -160 -72q-33 -33 -59.5 -105.5t-26.5 -152.5q0 -84 35 -163.5t103.5 -134t152.5 -54.5q83 0 150 49q3 3 10 21.5t14.5 51t8.5 62.5q3 183 -7 340q-2 13 -15 37t-30 41q-39 39 -89.5 59.5t-86.5 20.5z" />
    <glyph glyph-name="e" unicode="e" horiz-adv-x="802" 
d="M469 825q56 0 111 -20t92 -57q71 -68 71 -173q0 -11 -11 -22.5t-27 -11.5q-373 0 -467 2q-4 0 -9.5 -6t-7.5 -11q-10 -27 -10 -71q0 -59 22 -124t56 -110q36 -48 97.5 -80t131.5 -32q137 0 187 73q17 25 26 25q17 0 17 -25q0 -24 -15 -49q-106 -153 -297 -153
q-165 0 -266.5 113t-101.5 294q0 127 64.5 237t180.5 164q78 37 156 37zM449 772q-69 0 -124 -40t-83 -111q-3 -7 0.5 -15t7.5 -8q90 -3 264 0q38 0 54 10.5t16 40.5q0 45 -40.5 84t-94.5 39z" />
    <glyph glyph-name="f" unicode="f" horiz-adv-x="602" 
d="M356 799q55 0 113 0.5t93 0.5l36 1q11 0 20 -27t9 -59q0 -5 -12 -13t-19 -8q-6 0 -116.5 3t-123.5 3q-3 0 -8.5 -6.5t-5.5 -9.5q-3 -30 0 -263.5t6 -260.5q6 -56 29.5 -76t107.5 -33q23 -4 35 -13.5t12 -17.5q0 -24 -53 -24q-9 0 -75 2t-95 2q-44 0 -123 -5t-82 -5
q-51 0 -51 22q0 7 13 17t30 16q27 8 43 16t26.5 16t15 25t5.5 32t2 48q5 210 5 441q0 75 -21 75q-63 0 -86 -4q-8 0 -15 12.5t-3 22.5q1 3 15 12t39.5 24.5t45.5 31.5q27 23 27 34q7 200 51 306q33 79 76 136t108 105q113 84 234 84q83 0 131 -39q34 -27 34 -69
q0 -23 -17 -51t-38 -35q-15 -6 -37 -6q-10 0 -20 8t-35 33q-70 63 -143 63q-74 0 -127 -84q-38 -66 -53 -167t-15 -298q0 -6 4 -12t8 -6z" />
    <glyph glyph-name="g" unicode="g" horiz-adv-x="851" 
d="M420 836q15 0 29 -0.5t24.5 -1t24 -2.5t20 -3t20.5 -4t18.5 -4t21 -5t20.5 -5q12 -2 31 -6.5t26 -5.5q2 0 107 -5.5t131 -11.5q18 -3 18 -22q0 -20 -15 -43t-22 -23q-86 0 -137 4q-6 0 -10 -5.5t-2 -10.5q16 -50 16 -102q0 -171 -114 -258q-100 -78 -224 -78q-6 0 -35 1
t-36 1q-20 3 -31 -2q-16 -8 -40.5 -33.5t-24.5 -36.5q0 -35 30 -62.5t53 -29.5q28 -1 116.5 -3.5t160 -5.5t100.5 -7q14 -2 44 -16t55 -34q40 -35 63 -86t23 -94q0 -105 -56.5 -184t-136.5 -131q-134 -88 -295 -88q-154 0 -256 75q-42 33 -68 84t-26 95q0 39 11 67.5
t20.5 38t23.5 20.5q3 2 4 3q28 24 79.5 62.5t62.5 47.5q7 7 -6 15q-1 0 -32.5 14.5t-47.5 26.5q-32 22 -51 62.5t-19 88.5q0 9 10 19q10 8 71.5 47.5t80.5 58.5q5 5 -8 18q-26 15 -49 34.5t-49.5 51t-42 77t-15.5 98.5q0 141 125 233q87 66 209 66zM403 786q-27 0 -57.5 -16
t-44.5 -35q-53 -56 -53 -182q0 -54 22 -111.5t70.5 -101t110.5 -43.5q20 0 67 29q36 23 57 86t21 131q0 86 -45 153q-62 90 -148 90zM469 -481q91 0 162 37q57 37 84.5 88.5t27.5 101.5q0 70 -28 107q-36 48 -109 63q-55 10 -207 10q-80 0 -110 -20q-45 -31 -68.5 -79
t-23.5 -89q0 -95 71 -156q81 -63 201 -63z" />
    <glyph glyph-name="h" unicode="h" horiz-adv-x="1050" 
d="M594 827q148 0 217 -94q59 -79 59 -221q1 -66 4.5 -192.5t4.5 -186.5q0 -36 18.5 -53t60.5 -27q58 -11 58 -33q0 -26 -55 -26q-35 0 -81 3t-81 3q-22 0 -69.5 -2t-78.5 -2q-41 0 -41 24q0 19 43 29q39 12 49.5 27.5t16.5 73.5q2 17 2 81t-1 137.5t-1 77.5q0 166 -33 205
q-58 68 -166 68q-40 0 -79 -10.5t-59 -20.5t-26 -16q-4 -4 -10 -13.5t-13.5 -34.5t-8.5 -53q-4 -59 -5.5 -217.5t0.5 -208.5q3 -47 21 -64.5t59 -27.5q21 -6 33 -15.5t12 -17.5q0 -24 -51 -24q-4 0 -71.5 2t-96.5 2q-25 0 -82 -3t-73 -3q-17 0 -32 6.5t-15 19.5q0 19 59 35
q41 14 58.5 38t21.5 79q20 287 20 848q0 165 -6 209q-4 39 -14 52.5t-53 41.5q-7 3 -14 16.5t-7 24.5q0 4 1.5 6.5t2.5 3.5h2q5 1 49 13t62 18t47.5 17.5t46.5 23.5q28 14 39 14q5 0 8.5 -8t3.5 -14q-13 -94 -20.5 -353.5t-7.5 -363.5q0 -5 3 -8.5t6.5 -4t4.5 0.5
q130 118 258 118z" />
    <glyph glyph-name="i" unicode="i" horiz-adv-x="518" 
d="M92 731q0 11 12 21.5t29 13.5q45 9 121 38.5t82 31.5q5 0 11.5 -10t6.5 -13q0 -7 -3 -84.5t-6 -173.5t-3 -147q0 -129 4 -273q0 -16 5 -28.5t9 -19.5t17.5 -14t18 -9t25 -8t23.5 -7q45 -14 45 -35q0 -9 -14.5 -14.5t-32.5 -5.5q-3 0 -68.5 3t-90.5 3q-38 0 -99.5 -4
t-74.5 -4q-54 0 -54 22q0 19 49 33q34 9 56.5 25t25.5 32q9 44 9 211q0 307 -2 320q-1 10 -17.5 24t-66.5 50q-17 11 -17 22zM279 1243q38 0 64 -34t26 -66q0 -39 -33 -70t-66 -31q-12 0 -32.5 7t-32.5 18q-31 35 -31 76q0 38 25 74q29 26 80 26z" />
    <glyph glyph-name="j" unicode="j" horiz-adv-x="481" 
d="M68 725q0 6 10.5 16.5t23.5 14.5q141 40 193 67q19 11 35 11q2 0 8 -9.5t6 -13.5q-2 -65 -5.5 -393t-4.5 -348q-6 -237 -90 -379q-74 -127 -193 -211q-49 -37 -69 -37q-33 0 -45 10q-3 5 -2 12.5t4 10.5q101 63 131 102q110 140 110 512q0 484 -8 543q-4 29 -84 72
q-20 10 -20 20zM244 1260q55 0 81.5 -36t26.5 -67q0 -50 -32.5 -76t-67.5 -26q-30 0 -63.5 30t-34.5 70q0 50 39 84q21 21 51 21z" />
    <glyph glyph-name="k" unicode="k" horiz-adv-x="980" 
d="M537 799h96q76 0 162.5 12t113.5 12q6 0 10.5 -4.5t4.5 -9.5q0 -16 -15.5 -29t-25.5 -16q-79 -18 -121.5 -38t-116.5 -71q-42 -31 -100.5 -87t-65.5 -68q-6 -12 -2 -21q49 -60 163 -184.5t167 -177.5q31 -29 62 -46.5t77 -27.5q24 -5 36.5 -15.5t12.5 -17.5
q0 -24 -51 -24q-16 0 -106 6t-150 6h-92q-51 0 -51 27q0 18 45 28q61 14 26 58q-9 11 -44.5 50.5t-89 99t-97.5 110.5q-38 47 -51 47q-10 0 -10 -17q-8 -19 -7.5 -129t9.5 -155q5 -31 19.5 -44.5t55.5 -23.5q45 -11 45 -31q0 -22 -49 -22q-25 0 -85 2t-85 2q-39 0 -96 -4
t-76 -4q-47 0 -47 22q0 17 47 31q59 14 79 32t28 58q6 28 10 255.5t4 447.5q0 326 -12 432q0 15 -62 53q-26 19 -26 29q0 16 26 26q1 0 28 7.5t49.5 14t52.5 18.5t49 24q30 18 41 18q3 0 9 -10t5 -16q-7 -33 -13 -313t-6 -441q0 -186 7 -207q6 -18 16 -18q11 0 41 26
q178 165 217 221q18 23 -37 38l-41 8q-18 3 -18 14q0 7 12.5 22t22.5 15z" />
    <glyph glyph-name="l" unicode="l" horiz-adv-x="499" 
d="M84 1352q0 20 29 28q28 10 79 26t79 27t53 27q4 3 11 -5.5t7 -14.5q-6 -48 -12 -210t-6 -347q0 -65 -0.5 -183.5t-0.5 -195.5t0.5 -163t2 -137t4.5 -67q7 -36 25 -54.5t79 -35.5q47 -12 47 -31q0 -10 -16.5 -16t-36.5 -6q-26 0 -91.5 3t-82.5 3q-24 0 -91.5 -3t-88.5 -3
q-58 0 -58 22q0 21 45 29q66 14 83 44.5t22 115.5q14 273 14 622q0 87 -3 248t-3 180q0 10 -2 16t-13.5 17t-33.5 25q-26 19 -33.5 26t-7.5 13z" />
    <glyph glyph-name="m" unicode="m" horiz-adv-x="1560" 
d="M106 719q0 16 41 37q28 11 82 40.5t74 43.5q11 8 16 8q7 -1 16 -9.5t9 -11.5q0 -16 -4 -57.5t-4 -50.5q0 -5 3.5 -10.5t8.5 -1.5q48 41 129 80.5t146 39.5q103 0 159 -41q39 -31 70 -77q4 -9 16 -9q2 1 70.5 41t79.5 45q63 31 123 31q107 0 176 -69q60 -68 67 -197
q5 -66 5 -410q2 -34 20 -58t68 -38q39 -12 39 -29q0 -22 -58 -22q-19 0 -69.5 3t-77.5 3q-32 0 -75 -2t-65 -2q-51 0 -51 27q0 14 45 26q48 14 61 37t13 80q0 22 -2 162t-2 176q0 52 -7.5 79.5t-25.5 55.5q-45 74 -155 74q-42 0 -76 -10.5t-47.5 -20t-34.5 -27.5
q-5 -5 -13 -27t-8 -32q0 -1 -0.5 -46.5t-1 -104t-0.5 -121t0.5 -111t1.5 -61.5q5 -52 20 -71.5t66 -31.5q17 -5 30 -13.5t13 -15.5q0 -24 -49 -24q-22 0 -75.5 2t-77.5 2q-21 0 -73 -2t-73 -2q-53 0 -53 24q0 4 3 8.5t13 10.5t25 10q51 12 64.5 32.5t13.5 78.5v403
q0 70 -27 105q-47 61 -153 61q-89 0 -164 -57q-20 -17 -23 -54q-4 -51 -4 -473q0 -34 14.5 -56t59.5 -36q30 -9 42.5 -17t12.5 -20q0 -20 -55 -20q-1 0 -26 1t-63.5 2t-72.5 1q-37 0 -85.5 -3t-68.5 -3q-51 0 -51 22q0 20 49 31q48 12 64 39t22 96q7 103 7 408q0 40 -15 55
q-8 8 -17 16t-15 13.5l-12 11t-9.5 9l-7 7l-5.5 5.5t-3.5 4.5t-2 4t-0.5 3.5z" />
    <glyph glyph-name="n" unicode="n" horiz-adv-x="1067" 
d="M109 729q0 10 12.5 23t23.5 18q104 36 138 59q38 23 49 23q7 0 13.5 -12t6.5 -19q0 -20 -4 -57.5t-4 -44.5q0 -3 1.5 -5t3.5 -2h5l2 1q167 112 275 112q118 0 186 -77q34 -40 53 -106.5t19 -143.5q0 -286 6 -373q7 -53 76 -72q51 -13 51 -35t-61 -22q-22 0 -72 2t-80 2
q-29 0 -80 -2t-61 -2q-16 0 -31.5 6.5t-15.5 17.5q0 20 47 35q37 13 48.5 32.5t14.5 70.5q6 102 6 374q0 51 -19.5 93.5t-41.5 58.5q-19 14 -58.5 26.5t-72.5 12.5q-109 0 -183 -66q-6 -6 -13 -21.5t-7 -27.5q0 -466 2 -491q2 -24 16 -37.5t60 -26.5q37 -11 37 -30
q0 -11 -14.5 -18t-36.5 -7q-10 0 -55.5 1t-69.5 1q-43 0 -100.5 -3t-69.5 -3q-54 0 -54 26q0 20 43 31q50 15 65.5 36.5t20.5 78.5q11 112 11 448q0 20 -9.5 37.5t-40.5 42.5q-38 25 -38 35z" />
    <glyph glyph-name="o" unicode="o" horiz-adv-x="987" 
d="M512 827q77 0 150 -29.5t131 -82t93.5 -132.5t35.5 -173q0 -117 -56 -213.5t-123 -139.5q-114 -82 -254 -82q-69 0 -141 29t-131 78q-65 53 -108 144t-43 169q0 199 143 320q128 112 303 112zM473 766q-64 0 -133 -59q-41 -38 -70.5 -112t-29.5 -151q0 -106 24 -182
q36 -109 111.5 -168t154.5 -59q58 0 125 67q38 41 65.5 122.5t27.5 148.5q0 194 -103 313q-33 36 -82 58t-90 22z" />
    <glyph glyph-name="p" unicode="p" horiz-adv-x="1015" 
d="M627 823q56 0 118.5 -31.5t108.5 -82.5q40 -45 68 -117t28 -152q0 -90 -42 -187.5t-132 -164.5q-134 -104 -325 -104q-61 0 -115 8q-4 0 -9 -9.5t-5 -17.5q0 -264 8 -340q5 -42 23.5 -63t74.5 -39q57 -17 57 -37q0 -12 -16 -19.5t-37 -7.5q-18 0 -109 5.5t-135 5.5
q-23 0 -61 -3.5t-70 -3.5q-25 0 -43 7t-18 20q0 7 12.5 17t34.5 14q81 17 101 47t26 141q6 102 6 445v413q0 94 -16 105q-76 55 -76 65q0 7 11.5 21t17.5 16q53 14 155 72q36 18 41 18t14 -9t9 -15q-2 -20 -4 -61t-2 -44q0 -7 5 -10.5t11 0.5q73 49 133 74q57 24 152 24z
M520 719q-119 0 -166 -37q-19 -15 -26 -61q-7 -45 -8.5 -175.5t4.5 -193.5q7 -66 26 -90q38 -53 99 -83t106 -30q53 0 94 35q68 57 103.5 149.5t35.5 151.5q0 159 -83 250q-37 38 -91.5 61t-93.5 23z" />
    <glyph glyph-name="q" unicode="q" horiz-adv-x="1001" 
d="M516 827q109 0 176 -20q71 -23 78 -23q13 0 49 33q31 27 49 27q4 0 8 -4.5t5.5 -13.5t-2.5 -23q-23 -80 -23 -723q0 -307 6 -440q2 -58 19.5 -77.5t87.5 -31.5q14 -2 29.5 -11.5t15.5 -19.5q0 -11 -14 -18.5t-37 -7.5q-92 0 -227 -12.5t-167 -12.5q-51 0 -51 25
q0 10 15 19.5t36 12.5q45 9 72.5 21t39.5 30t15.5 29.5t5.5 34.5q3 34 7 175t4 235q0 9 -3.5 15t-7.5 5q-152 -76 -235 -76q-180 0 -299 123q-47 50 -74.5 128.5t-27.5 154.5q0 77 22 144t58 112t68.5 73.5t66.5 47.5q46 28 116 48.5t119 20.5zM467 764q-71 0 -119 -43
q-112 -99 -112 -293q0 -162 102 -272q43 -43 105.5 -65.5t125.5 -22.5q23 0 63.5 10t59.5 24q6 3 13.5 28t7.5 36q0 254 -11 369q-2 18 -14 62t-20 56q-31 47 -88.5 79t-112.5 32z" />
    <glyph glyph-name="r" unicode="r" horiz-adv-x="696" 
d="M104 721q0 26 27 35q100 34 152 65q39 25 41 25q5 0 11.5 -10t6.5 -15q0 -18 -2 -55t-2 -57q0 -5 5 -8t9 -1q61 58 124 92.5t110 34.5q55 0 78.5 -23.5t23.5 -45.5q0 -9 -12 -29q-17 -25 -46 -57.5t-38 -36.5q-3 -1 -13.5 1t-15.5 5q-20 17 -52 31t-60 14q-66 0 -91 -29
q-20 -23 -20 -45q0 -31 5.5 -225t6.5 -217q7 -96 54 -104q16 -3 50 -13t44 -12q37 -11 37 -33q0 -18 -50 -18q-17 0 -95 5t-146 5q-32 0 -72 -4t-63 -4q-43 0 -43 24q0 12 41 27q59 20 72.5 48t15.5 122v391q0 48 -23 62q-19 15 -38.5 28.5t-25.5 18t-6 8.5z" />
    <glyph glyph-name="s" unicode="s" horiz-adv-x="657" 
d="M379 827q58 0 104 -12q34 -6 66 -22q4 -2 10 -11.5t6 -17.5q0 -21 3 -69t3 -52q0 -15 -6.5 -26t-17.5 -11q-16 0 -31 35q-64 137 -164 137q-57 0 -90 -43t-33 -84q0 -50 47 -94t156 -104q85 -50 122.5 -105t37.5 -125q0 -114 -119 -200q-29 -20 -78 -34t-94 -14
q-52 0 -113.5 12.5t-85.5 32.5q-6 11 -18 64t-12 92q0 43 16 43q18 0 43 -47q42 -77 86 -111t100 -34q39 0 82 30q22 18 34.5 50t12.5 63q0 80 -92 137q-73 52 -125 86q-53 34 -90 87.5t-37 119.5q0 116 113 184q67 43 164 43z" />
    <glyph glyph-name="t" unicode="t" horiz-adv-x="659" 
d="M336 799q20 0 81 2t115 4t56 2t12 -6t10 -10l6 -77v-1q0 -12 -18.5 -17.5t-34.5 -5.5h-223q-7 0 -12.5 -5t-5.5 -9q-5 -102 -5 -440q0 -66 35 -101q43 -39 125 -39q48 0 101 31q22 12 30 12q2 0 4.5 -1.5t5.5 -7t3 -13.5q0 -22 -29 -51q-94 -91 -219 -91q-59 0 -109 30
t-71 67q-27 41 -27 135q0 39 4 229t4 226q0 17 -78 40q-12 4 -20 11t-8 12q0 11 12 23q137 109 164 141q39 45 47 45q7 0 17.5 -9.5t10.5 -13.5v-96q0 -5 5.5 -10.5t11.5 -5.5z" />
    <glyph glyph-name="u" unicode="u" horiz-adv-x="1019" 
d="M504 78q73 0 155 72q9 7 20 25t11 24l4 471q0 9 -13 25.5t-22 19.5q-87 22 -94 24q-14 4 -27.5 13t-13.5 20q0 6 16 12.5t31 6.5q134 0 220 22q27 8 49 8q7 0 10.5 -10.5t3.5 -19.5q-4 -53 -12 -309.5t-8 -370.5q0 -6 7 -17.5t17 -11.5q6 0 47.5 5t55.5 5q5 0 13 -15
t11 -24q0 -5 -8 -12.5t-14 -7.5q-49 -4 -187 -39q-66 -19 -71 -19q-6 0 -13.5 9.5t-7.5 19.5q0 5 3.5 36t4.5 50q0 7 -3.5 11.5t-6.5 2.5q-129 -89 -168 -104q-62 -25 -137 -25q-117 0 -180 97q-29 48 -29 96q0 378 -4 487q0 10 -2.5 19t-5 15.5t-8.5 12.5t-9.5 9t-12 7.5
t-11.5 6t-14 5.5t-13 5q-37 16 -37 37q0 6 9 12.5t26 6.5q25 0 77.5 5.5t95 11t44.5 5.5q6 0 11 -10.5t5 -20.5q1 -40 -2.5 -278.5t-3.5 -270.5q0 -35 15 -67t37 -47q25 -19 50 -28.5t41.5 -11t47.5 -1.5z" />
    <glyph glyph-name="v" unicode="v" horiz-adv-x="866" 
d="M-16 786q0 10 16.5 16.5t32.5 6.5q20 0 90 -5t80 -5q30 0 74.5 2t52.5 2q47 0 47 -23q0 -17 -45 -30q-27 -7 -39.5 -19.5t-10.5 -25t5 -25.5q41 -122 105.5 -272t76.5 -160q7 -10 16 8q24 56 84 212.5t72 199.5q11 38 -1.5 54t-61.5 34q-33 12 -33 26q0 10 11 16.5
t30 6.5t51 -3t59 -3q18 0 69 5t71 5q15 0 28 -7t13 -16t-9 -14.5t-34 -15.5q-34 -12 -55 -29.5t-48 -50.5q-13 -20 -39 -79t-69 -163t-60 -145q-26 -66 -39.5 -105.5t-27.5 -88t-25 -81.5q-7 -24 -21.5 -38.5t-27.5 -14.5q-7 0 -15 10.5t-12 26.5q-6 19 -17 53.5t-23 68
t-33 87.5q-39 105 -106.5 258t-106.5 223q-27 52 -86 68q-39 13 -39 30z" />
    <glyph glyph-name="w" unicode="w" horiz-adv-x="1339" 
d="M186 799q28 0 78 3t66 3q26 0 39.5 -7t13.5 -16q0 -20 -51 -32q-63 -11 -37 -80q18 -57 91.5 -246t84.5 -209q3 -6 6.5 -7.5t6.5 0.5t5 7q42 83 144 311q10 23 10 41q-7 48 -33 99q-16 29 -23 40t-24 25.5t-39 20.5q-45 13 -45 32q0 21 49 21q12 0 62 -3t76 -3q18 0 69 3
t74 3q22 0 35.5 -7t13.5 -16q0 -24 -49 -32q-24 -5 -38.5 -15t-17.5 -17t-3 -13q0 -7 24 -74q0 -1 34 -91t69.5 -182.5t54.5 -136.5q2 -7 5 -8.5t6.5 1.5t6.5 9q16 33 38.5 89.5t56 143t42.5 109.5q35 90 35 123q0 13 -3.5 22t-22.5 21.5t-54 20.5q-1 0 -4 1q-43 14 -43 31
q0 9 15.5 15t31.5 6q10 0 60 -3t67 -3q38 0 89 5t63 5q19 0 31 -6t12 -15q0 -19 -47 -30q-13 -4 -23.5 -8.5l-17.5 -7.5t-15 -10t-11.5 -10t-10.5 -13.5l-9 -13.5t-10.5 -17.5t-11.5 -18.5q-68 -121 -196 -440q-76 -186 -86 -221q-8 -25 -27 -25q-16 0 -39 31
q-52 150 -53 152q-7 17 -57 140.5t-70 172.5q-1 3 -7 2.5t-7 -4.5q-131 -273 -187 -414q-9 -27 -24 -55.5t-27 -28.5q-27 0 -37 31q-3 7 -61 176q-11 32 -78 198.5t-98 239.5q-29 66 -52.5 97t-62.5 41q-51 11 -51 30q0 25 59 25q16 0 65.5 -4t73.5 -4z" />
    <glyph glyph-name="x" unicode="x" horiz-adv-x="872" 
d="M31 793q0 18 53 18q9 0 79.5 -6t98.5 -6q22 0 63 2t58 2q45 0 45 -19q0 -11 -11 -20.5t-28 -13.5q-7 -2 -12.5 -4.5t-9.5 -4.5t-7 -4.5t-5 -4.5t-3.5 -5t-2 -4.5t-1 -4.5t-0.5 -4v-4v-3q0 -9 43 -82.5t66 -106.5q4 -8 14 2q69 90 109 168q13 25 9.5 35t-24.5 18
q-34 14 -44.5 21.5t-10.5 17.5t11.5 16.5t29.5 6.5q8 0 37.5 -2t50.5 -2q27 0 95 5t83 5q43 0 43 -23q0 -5 -2.5 -8.5t-8.5 -7t-9.5 -5.5t-11.5 -5l-7 -2q-67 -19 -106.5 -39.5t-71.5 -59.5q-81 -100 -143 -188q-6 -11 -2 -22q17 -39 72 -134t98 -157q28 -41 58.5 -66
t49.5 -33t47 -14q47 -11 47 -31q0 -24 -49 -24q-34 0 -107.5 5t-113.5 5q-20 0 -52 -2t-52 -2q-21 0 -32 8t-11 19q0 15 39 26l19.5 7.5t13.5 9t7 14t-4.5 20.5t-15.5 31q-83 161 -100 176q-8 7 -15 0q-27 -27 -77.5 -104.5t-51.5 -98.5q0 -19 12 -32t42 -25q10 -3 19 -12.5
t9 -18.5q0 -20 -43 -20q-23 0 -48 2t-40 2q-38 0 -94 -4t-72 -4q-59 0 -59 22q0 21 51 33q95 26 154 94q23 27 86 113.5t84 114.5q6 9 0 20q-8 19 -55.5 101.5t-86.5 142.5q-66 99 -143 123q-53 14 -53 37z" />
    <glyph glyph-name="y" unicode="y" horiz-adv-x="847" 
d="M-10 780q0 25 49 25q25 0 77 -4t83 -4q33 0 84 2t59 2q15 0 30 -6t15 -17q0 -24 -47 -35q-43 -12 -50.5 -25.5t7.5 -53.5q22 -70 93.5 -246.5t84.5 -196.5q1 -2 4 -2.5t6.5 2t6.5 8.5q18 39 85.5 215t75.5 203q14 44 -2.5 66t-75.5 35q-18 4 -30.5 13t-12.5 15
q0 25 52 25q21 0 65 -2t56 -2q11 0 55 4t74 4q40 0 40 -19q0 -20 -45 -34q-33 -11 -55 -34t-45 -73q-92 -209 -225 -545q-40 -104 -113.5 -303t-99.5 -268q-7 -22 -36 -39.5t-71 -17.5q-48 0 -70 30.5t-22 69.5q0 30 25.5 60t64.5 30q4 0 33.5 -1t40.5 -1q8 0 14.5 5.5
t8.5 10.5t8 19q13 24 50 124t48 140q1 3 4 16.5t3.5 17.5t1.5 13.5t0 15.5t-3 11q-9 22 -31 84q-33 92 -110 275t-123 278q-11 23 -18 33.5t-26 23t-52 23.5q-41 14 -41 30z" />
    <glyph glyph-name="z" unicode="z" horiz-adv-x="802" 
d="M418 799q83 0 174.5 4.5t109.5 3.5q9 0 17 -6q6 -5 8 -15t-2 -16l-46 -59q-46 -59 -77 -105t-313 -502q-5 -6 -2 -12t8 -8q12 -4 106 -10t156 -6q25 0 49 24q51 51 101 121q30 45 43 45q11 0 14.5 -13.5t1.5 -25.5q-2 -10 -24.5 -86t-30.5 -119q0 -6 -10.5 -15t-16.5 -9
q-4 0 -86 2.5t-180.5 5t-141.5 2.5q-40 0 -75.5 -1.5t-68 -3.5t-46.5 -3q-6 0 -16.5 10.5t-10.5 17.5q0 8 144 220q63 88 299 471q8 12 -6 16q-11 3 -103.5 7.5t-161.5 4.5q-14 0 -54 -43t-66 -86q-16 -32 -31 -32q-6 0 -13.5 11t-7.5 23q0 17 17 70q20 68 20 127q0 10 6 16
q17 15 23 9q49 -35 106 -35h187z" />
    <glyph glyph-name="braceleft" unicode="{" horiz-adv-x="700" 
d="M76 608q105 23 151.5 77.5t46.5 121.5q0 38 -26.5 182t-26.5 172q0 49 32 121t95 123q124 94 246 94q37 0 37 -18q0 -5 -9.5 -21.5t-15.5 -19.5q-5 -2 -74 -17q-178 -45 -178 -252q0 -42 28 -158.5t28 -170.5q0 -70 -58 -134t-145 -110q-16 -11 -2 -18
q112 -58 159.5 -126.5t47.5 -160.5q0 -80 -45 -277q-23 -98 -23 -114q0 -102 68 -157t186 -81q9 -2 18 -7t9 -9q0 -17 -17 -27t-33 -10q-86 0 -157.5 31.5t-115.5 83t-67.5 113.5t-23.5 126q0 19 25.5 157t25.5 185q0 101 -30.5 148t-116.5 73q-29 10 -46.5 27.5t-17.5 30.5
q0 5 6.5 12t18.5 10z" />
    <glyph glyph-name="bar" unicode="|" horiz-adv-x="530" 
d="M203 1522h125v-2030h-125v2030z" />
    <glyph glyph-name="braceright" unicode="}" horiz-adv-x="700" 
d="M596 547q-106 -23 -153.5 -78t-47.5 -121q0 -40 25.5 -209t25.5 -190q0 -54 -29.5 -123.5t-92.5 -120.5q-66 -53 -132 -73.5t-102 -20.5q-14 0 -25.5 9t-11.5 18q0 14 23 26q28 16 82 31q89 23 122 87t33 157q0 42 -25.5 179.5t-25.5 192.5q0 73 59.5 140t147.5 110
q11 8 0 14q-117 58 -163 125t-46 164q0 81 43 232q21 94 21 112q0 42 -13.5 76t-33.5 56.5t-56 43t-68 32.5t-81 28q-25 10 -25 18q0 10 17.5 23.5t29.5 13.5q86 0 157 -31t115.5 -82t68.5 -113.5t24 -127.5q0 -17 -24.5 -134.5t-24.5 -162.5q0 -101 30 -148.5t115 -74.5
q32 -11 47.5 -25.5t15.5 -26.5q0 -15 -22 -26z" />
    <glyph glyph-name="asciitilde" unicode="~" horiz-adv-x="1277" 
d="M432 692q53 0 117 -36t113 -79.5t104 -79.5t92 -36q74 0 113.5 48t87.5 167q8 18 22 18q26 0 51.5 -18.5t18.5 -38.5q-45 -133 -123.5 -215t-179.5 -82q-47 0 -97 24t-92.5 58.5t-83 68.5t-81 58t-74.5 24q-57 0 -101 -47t-92 -155q-13 -31 -26 -31q-18 0 -47.5 17.5
t-24.5 35.5q19 58 46 109t64 95t87 69.5t106 25.5z" />
    <glyph glyph-name="uni00A0" unicode="&#xa0;" horiz-adv-x="407" 
 />
    <glyph glyph-name="exclamdown" unicode="&#xa1;" horiz-adv-x="552" 
d="M252 -360q-33 0 -56.5 18t-34.5 47t-15.5 54.5t-4.5 50.5q1 37 33 308.5t39 317.5q2 22 14.5 42t28.5 20q15 0 25.5 -18.5t11.5 -51.5q1 -18 31.5 -272.5t37.5 -348.5q4 -45 -7 -79.5t-30 -52.5t-38 -26.5t-35 -8.5zM256 670q-59 0 -90 40.5t-31 84.5q0 52 35 88.5
t88 36.5q47 0 84 -32t37 -95q0 -60 -40.5 -91.5t-82.5 -31.5z" />
    <glyph glyph-name="cent" unicode="&#xa2;" horiz-adv-x="995" 
d="M276 678q0 -128 54 -211.5t145 -126.5q5 -2 9.5 2t4.5 10l62 643q-4 11 -8 11q-105 0 -186 -102t-81 -226zM123 600q0 123 55.5 222.5t157.5 166.5q36 23 98.5 47t114.5 33q12 3 12 12l19 148q0 3 3.5 7.5t8.5 4.5q14 0 31.5 -5t17.5 -9l-10 -137q0 -15 8 -15
q119 -3 195 -55q34 -25 34 -62q0 -21 -23.5 -43t-37.5 -22q-15 0 -82 57q-46 39 -98 49q-2 1 -4 -0.5t-3 -3.5l-2 -2l-63 -655q0 -19 12 -21q16 -4 33 -4q47 0 102.5 21.5t86 41t53.5 38.5q6 5 13 0.5t7 -11.5q0 -38 -31 -69q-53 -57 -128.5 -90t-149.5 -41q-3 0 -7.5 -5.5
t-4.5 -11.5l-17 -159q-3 -3 -20.5 -9t-24.5 -6q-8 0 -14 4.5t-6 8.5l18 163q0 4 -5.5 10.5t-10.5 6.5q-83 12 -156.5 57.5t-116.5 110.5q-28 44 -46.5 106t-18.5 121z" />
    <glyph glyph-name="sterling" unicode="&#xa3;" horiz-adv-x="995" 
d="M702 1292q90 0 142.5 -46t52.5 -109q0 -57 -29.5 -90t-60.5 -33q-7 0 -13 4.5t-6 9.5q0 4 1.5 17t1.5 20q0 69 -35 121.5t-90 52.5q-36 0 -66 -23t-61 -80t-56 -167.5t-43 -270.5q0 -16 13 -16l254 10q7 0 12.5 -9.5t3.5 -18.5q0 -11 -7.5 -25t-13.5 -14l-253 -17
q-5 0 -13.5 -6.5t-9.5 -13.5q-24 -124 -57 -201.5t-97 -146.5q-4 -3 -2.5 -10t9.5 -7q40 0 94 -12.5t96 -34.5q35 -16 90 -50.5t96.5 -55.5t71.5 -21q80 0 108.5 34.5t30.5 109.5q0 32 -10 110q0 8 7.5 17.5t15.5 9.5q31 0 54.5 -29t22.5 -78q-1 -50 -30.5 -104t-76.5 -98
t-112 -72.5t-131 -28.5q-21 0 -44 7t-40.5 15.5t-45.5 28.5t-44.5 33t-52.5 43t-55 45q-14 11 -26.5 19.5t-23 13.5t-17.5 8.5t-16 4.5t-12.5 1.5t-11.5 0t-10 -0.5q-5 0 -17.5 -15.5t-31 -42.5t-31.5 -42q-58 -64 -92 -64q-23 0 -40 14t-15 31q0 37 47.5 95t117.5 88
q12 5 33 26q68 68 88 346q0 3 -3 11t-7 8l-133 -2q-4 -1 -7 4.5t-5 13t-2 13.5q0 13 5 23.5t11 12.5l137 11q5 2 9.5 8t4.5 10q25 223 79.5 346.5t142.5 190.5t204 67z" />
    <glyph glyph-name="currency" unicode="&#xa4;" horiz-adv-x="995" 
d="M895 961l-102 -111q-4 -12 0 -23q63 -95 63 -209q0 -107 -70 -208q-2 -2 -3.5 -5t-1.5 -5.5t1 -2.5l109 -118q7 -6 3 -25t-20 -33q-7 -7 -23 -13t-20 -1l-124 112q-6 6 -21 -2q-98 -61 -184 -61q-104 0 -189 53q-9 4 -24 -2l-105 -102q-15 -19 -51 10q-36 36 -16 66
l94 104q6 13 0 21q-68 103 -68 210q0 87 70 201q2 2 3 11.5t-3 13.5l-104 121q-8 9 0 28t18 29q33 30 51 14l105 -106q3 -3 14 -5t14 1q88 53 191 53q99 0 194 -57q13 -6 21 2l102 106q6 6 10 8.5t17 -2t31 -20.5q18 -14 22 -30.5t-4 -22.5zM502 872q-107 0 -177.5 -73
t-70.5 -183q0 -111 72.5 -180t175.5 -69q100 0 174 70t74 179q0 104 -77 180t-171 76z" />
    <glyph glyph-name="yen" unicode="&#xa5;" horiz-adv-x="995" 
d="M18 1253q0 21 48 21q14 0 62 -3t77 -3q33 0 98.5 3t83.5 3q21 0 32 -7t11 -14q0 -20 -41 -32q-40 -12 -46 -32t13 -59q4 -7 75.5 -159t107.5 -219q7 -13 16 2q78 140 141 276q52 115 52 131q0 36 -76 60q-41 12 -41 32q0 9 14.5 15t34.5 6q21 0 62.5 -3t60.5 -3
q28 -1 78.5 2.5t68.5 3.5q17 0 30 -5.5t13 -15.5q0 -21 -37 -30q-19 -6 -34 -12.5t-28.5 -16.5t-21.5 -16t-20.5 -22t-17.5 -22.5t-20 -29l-21 -31.5q-34 -53 -107.5 -188.5t-93.5 -179.5q-3 -5 -2.5 -11t6.5 -6l217 -2q8 0 8 -16q0 -14 -8.5 -29.5t-15.5 -15.5h-215
q-4 0 -6.5 -7t-2.5 -10v-131q0 -3 4.5 -9.5t6.5 -6.5h211q4 0 8 -6t4 -17q0 -15 -7.5 -27t-15.5 -12l-196 -4q-7 0 -11 -7t-4 -13v-80q0 -99 4.5 -142.5t15 -59.5t36.5 -25q40 -15 69 -21q37 -7 37 -29q0 -8 -14.5 -15t-32.5 -7q-25 0 -89.5 2t-86.5 2q-29 0 -102.5 -4
t-104.5 -4q-39 0 -39 20q0 21 45 33q68 17 84 45.5t21 126.5q2 45 2 154q0 24 -12 24h-211q-17 0 -17 23q0 11 6.5 27t12.5 16h204q7 0 12 4.5t5 9.5v129q0 21 -10 21h-193q-14 0 -14 18q0 12 6.5 29.5t11.5 17.5l178 -2q8 0 0 19q-11 31 -88 181t-123 224q-38 58 -53 72
q-24 22 -74 37q-18 6 -29.5 15t-11.5 17z" />
    <glyph glyph-name="brokenbar" unicode="&#xa6;" horiz-adv-x="530" 
d="M203 -354v708h125v-708h-125zM203 1368h125v-709h-125v709z" />
    <glyph glyph-name="section" unicode="&#xa7;" horiz-adv-x="866" 
d="M535 1305q68 0 116 -35q23 -23 23 -37q0 -17 -22 -43.5t-38 -40.5q-10 -8 -49 2q-82 57 -123 57q-116 0 -116 -131q0 -29 28 -74t59 -79.5t78 -83.5t60 -64q51 -53 94.5 -111.5t82 -143t38.5 -156.5q0 -40 -4 -77.5t-13 -72.5t-16.5 -60t-22 -56.5t-21 -44.5t-21.5 -41
t-17 -31q-49 -88 -133 -159t-145 -87q-51 -15 -76 -15q-44 0 -76 13.5t-44.5 28t-12.5 26.5q0 13 26.5 48.5t59.5 53.5q14 7 45 -14q53 -43 117 -43q116 0 116 133q0 40 -69.5 133t-132.5 156q-67 70 -125 149t-84 130q-33 78 -33 163q0 90 42 185t95 161q8 40 37.5 87.5
t71.5 85.5q105 88 205 88zM682 233q0 55 -14 106t-45.5 102.5t-56.5 85.5t-71 91q-15 18 -22 27q-22 26 -84.5 94t-103 117.5t-58.5 87.5q-3 3 -5.5 4t-3.5 0t-3 -4l-2 -2q-37 -61 -37 -141q0 -106 63.5 -209t172.5 -217q76 -76 137 -156.5t84 -134.5q0 -1 2 -2.5t5 -1.5
t5 4q37 65 37 149z" />
    <glyph glyph-name="dieresis" unicode="&#xa8;" 
d="M238 1229q36 0 60 -28.5t24 -65.5q0 -43 -27 -67t-62 -24q-31 0 -58.5 24.5t-27.5 64.5q0 38 25.5 67t65.5 29zM584 1227q35 0 61.5 -29t26.5 -63q0 -37 -27.5 -64t-64.5 -27q-35 0 -61.5 26t-26.5 63q0 42 28.5 68t63.5 26z" />
    <glyph glyph-name="copyright" unicode="&#xa9;" horiz-adv-x="1417" 
d="M711 1286q176 0 320 -85.5t224 -230t80 -317.5q0 -128 -49 -245.5t-132 -203t-199 -136t-244 -50.5q-179 0 -324 86t-225 231t-80 318q0 128 49.5 245t133.5 202t200.5 135.5t245.5 50.5zM711 1225q-154 0 -281 -75.5t-199.5 -206.5t-72.5 -288q0 -116 46 -223t122 -184
t177 -122.5t208 -45.5q151 0 277 75t199 207.5t73 292.5q0 117 -44.5 223t-118.5 182t-175 120.5t-211 44.5zM745 1010q71 0 125 -13q14 -2 53.5 -12t47.5 -12q15 -5 18 -47q2 -29 2 -90q0 -37 -22 -37q-7 0 -15.5 11t-11.5 21q-15 54 -68 90.5t-116 36.5
q-111 0 -182.5 -76.5t-71.5 -197.5q0 -70 17.5 -126.5t44.5 -91t63 -58t70 -32.5t67 -9q41 0 73 9.5t54.5 30.5t33.5 34.5t27 39.5q27 41 45 41q11 0 11 -26q-1 -20 -11 -58t-18 -53q-4 -11 -21 -26t-26 -19q-88 -35 -184 -35q-99 0 -178.5 37.5t-120.5 83.5
q-93 102 -93 233q0 90 37.5 154t85.5 102q59 51 132 73t132 22z" />
    <glyph glyph-name="ordfeminine" unicode="&#xaa;" horiz-adv-x="557" 
d="M287 1096q76 0 119 -54t43 -129q0 -14 -1.5 -47.5t-3 -78t-2.5 -64.5q-2 -35 11 -57.5t39 -22.5q20 0 51 21q3 2 5.5 0.5t4.5 -6.5t2 -13q0 -17 -16 -37q-48 -51 -113 -51q-34 0 -57 18.5t-33 47.5q-3 12 -12 6q-107 -72 -158 -72q-40 0 -76.5 38t-36.5 91q0 72 70 96
q4 2 85.5 26t113.5 36q13 13 14 18q2 20 2 74q0 41 -30.5 68.5t-67.5 27.5q-46 0 -64 -10q-14 -8 -14 -59q0 -12 -12 -21q-2 0 -35 -14.5t-45 -16.5q-21 -4 -21 11q0 20 19 49t41 49q36 28 89 52t89 24zM164 705q0 -25 25 -47.5t51 -22.5q14 0 36 10.5t35 24.5q19 16 19 28
q2 14 2 86q-1 8 -6 11.5t-9 1.5q-86 -21 -119.5 -40.5t-33.5 -51.5z" />
    <glyph glyph-name="guillemotleft" unicode="&#xab;" horiz-adv-x="1411" 
d="M225 379q-17 8 -20 25.5t6 21.5q132 74 266.5 162.5t194.5 140.5q48 41 73 41q8 0 10 -8t-2.5 -22t-15.5 -29q-54 -78 -301 -277q-12 -10 -12.5 -20.5t6.5 -14.5q8 -7 50 -44t59.5 -53t54 -50.5t57 -56t44 -49t36.5 -48.5q6 -9 10.5 -17t8 -18.5t-0.5 -17t-16 -6.5
q-22 0 -47 22q-224 189 -461 318zM680 379q-16 10 -18.5 26.5t6.5 20.5q133 72 262 159t194 144q48 41 68 41q8 0 11.5 -8t-0.5 -22t-15 -29q-34 -49 -123 -129.5t-174 -147.5q-23 -18 -6 -35q237 -195 303 -305q7 -10 11 -22.5t1.5 -22.5t-14.5 -10q-15 0 -43 22
q-218 185 -463 318z" />
    <glyph glyph-name="logicalnot" unicode="&#xac;" horiz-adv-x="1277" 
d="M154 715h940q12 0 17.5 -8t6 -14.5t0.5 -20.5v-561q0 -21 -31.5 -31t-64.5 -10q-25 0 -25 30v465q0 24 -7.5 32.5t-26.5 8.5h-797q-29 0 -36 5t-7 26q0 24 10 51t21 27z" />
    <glyph glyph-name="uni00AD" unicode="&#xad;" horiz-adv-x="598" 
d="M106 473q125 18 398 45q3 0 9.5 -8t6.5 -14q0 -31 -10 -64.5t-27 -34.5q-121 -14 -379 -39q-13 -1 -22.5 8t-9.5 21q0 36 11.5 60t22.5 26z" />
    <glyph glyph-name="registered" unicode="&#xae;" horiz-adv-x="477" 
d="M188 1040v105q0 21 -4 26.5t-18 10.5q-11 5 -12.5 9.5t2 7t8.5 3.5q64 6 100 6q40 0 64 -16.5t24 -44.5q0 -7 -2.5 -13.5t-5.5 -10.5t-8 -7.5t-8 -5.5t-7.5 -4t-5.5 -2q-4 -4 -2 -8q39 -74 66 -92q12 -6 12 -13q0 -10 -29 -10q-36 0 -55 31q-30 49 -35 59q-3 8 -18 8
q-10 0 -12 -1.5t-2 -6.5v-22q0 -23 4 -28.5t28 -14.5q6 -3 7.5 -7.5t-0.5 -8t-7 -3.5h-55h-53q-6 0 -8.5 7t4.5 10q28 11 28 36zM240 1176v-62q0 -6 2 -7t16 -1q22 0 30.5 8.5t8.5 28.5q0 16 -10.5 28.5t-26.5 12.5q-20 0 -20 -8zM260 1319q96 0 160.5 -64.5t64.5 -160.5
q0 -87 -63 -159.5t-166 -72.5q-95 0 -159 67t-64 165q0 91 65.5 158t161.5 67zM260 1282q-78 1 -130 -52.5t-52 -135.5t52 -136.5t130 -54.5q79 0 129.5 54.5t50.5 136.5q0 80 -53.5 134t-126.5 54z" />
    <glyph glyph-name="macron" unicode="&#xaf;" 
d="M203 1174l428 8q5 0 11.5 -13t6.5 -20q0 -34 -12 -60t-31 -26h-418q-5 0 -10.5 6t-5.5 18q0 30 10 58.5t21 28.5z" />
    <glyph glyph-name="degree" unicode="&#xb0;" horiz-adv-x="577" 
d="M297 1303q94 0 160.5 -64t66.5 -172q0 -109 -69.5 -173.5t-165.5 -64.5q-101 0 -169.5 63.5t-68.5 174.5q0 103 73.5 169.5t172.5 66.5zM283 1231q-59 0 -97.5 -47t-38.5 -117q0 -74 44.5 -119t111.5 -45q53 0 90 45.5t37 118.5q0 70 -41 117t-106 47z" />
    <glyph glyph-name="plusminus" unicode="&#xb1;" horiz-adv-x="1277" 
d="M580 1116q0 11 32.5 21t57.5 10q21 0 25.5 -6.5t4.5 -34.5v-387q0 -15 5 -20t18 -5h399q20 0 25.5 -5t5.5 -19q0 -36 -9.5 -60t-19.5 -24h-403q-9 0 -15 -8.5t-6 -18.5v-389q0 -22 -31.5 -32.5t-64.5 -10.5q-12 0 -18 6t-6 25v393q0 22 -6.5 28.5t-26.5 6.5h-383
q-27 0 -34 4.5t-7 25.5q0 24 10 51t21 27h399q9 0 18 8t9 17v397zM1122 8q20 0 25.5 -5t5.5 -19q0 -36 -9.5 -61t-19.5 -25h-958q-29 0 -36 4.5t-7 25.5q0 24 10 52t21 28h968z" />
    <glyph glyph-name="two.superior" unicode="&#xb2;" horiz-adv-x="612" 
d="M285 1583q87 0 145.5 -60.5t58.5 -144.5q0 -89 -88 -184q-63 -70 -190 -190q-6 -8 -2.5 -12.5t8.5 -4.5q16 0 78.5 -0.5t107 -0.5t48.5 1q26 0 73 60q18 22 33 22q10 0 12 -16.5t-4 -30.5q-32 -63 -47 -137q-5 -13 -16 -13q-1 0 -40 1t-86 2t-96 2t-69 0l-125 -3
q-13 0 -25 6.5t-12 12.5q0 15 17 29q102 91 200 206q90 109 90 228q0 55 -33.5 86t-84.5 31q-40 0 -78 -18.5t-62 -45.5q-23 -20 -37 -20q-6 0 -10 5.5t-4 10.5q0 23 19 47q40 56 97 93.5t122 37.5z" />
    <glyph glyph-name="three.superior" unicode="&#xb3;" horiz-adv-x="612" 
d="M303 1587q74 0 119 -43.5t45 -93.5q0 -46 -26 -78t-79 -67q-3 -1 -2 -6.5t5 -6.5q79 -9 122 -49.5t43 -107.5q0 -76 -50.5 -143t-137.5 -109q-66 -35 -149 -35q-38 0 -79.5 23t-41.5 49q0 20 15 38t30 23q13 5 22 -4q66 -57 148 -57q50 0 89.5 49.5t39.5 99.5
q0 63 -35 106.5t-100 43.5q-14 0 -24.5 -1.5t-27 -6t-28.5 -7.5q-6 -2 -13.5 -0.5t-7.5 4.5q0 13 4 21q11 19 21 27.5t33 17.5q68 29 90 53t22 76q0 35 -28.5 65.5t-65.5 30.5q-54 0 -121 -55q-34 -31 -40 -12q-1 2 -1 6q0 14 6 26q31 50 83.5 86.5t119.5 36.5z" />
    <glyph glyph-name="acute" unicode="&#xb4;" 
d="M516 1280q10 20 24.5 31.5t24.5 11.5q64 0 78 -16q4 -7 1 -23.5t-11 -32.5q-30 -57 -87.5 -152.5t-94.5 -150.5q-10 -15 -25.5 -27t-28.5 -12q-12 0 -13 20.5t5 35.5q46 137 127 315z" />
    <glyph glyph-name="mu" unicode="&#xb5;" horiz-adv-x="927" 
d="M188 834q19 0 38 -7t26.5 -11.5t28.5 -18.5q2 0 11 -20.5t9 -26.5q0 -28 -31 -197q-10 -56 -24.5 -158.5t-16.5 -111.5q-4 -33 7 -88q14 -74 98 -74q67 0 141.5 77.5t112.5 176.5q12 39 16 80q6 136 29 323q3 19 14 38.5t19 19.5q68 0 120 -52q8 -8 8.5 -24.5t-3.5 -46.5
q-6 -67 -46 -199.5t-71 -198.5q-8 -20 -8 -51q-3 -71 33 -109t77 -38q84 0 137 65q5 6 11.5 2.5t9.5 -12.5q4 -15 -2 -48t-17 -54q-55 -107 -153 -107q-58 0 -99 56.5t-42 181.5q0 1 -2.5 2t-5.5 1t-5 -3q-73 -122 -129 -173t-110 -51q-29 0 -56 16.5t-47 42t-32 46.5
t-21 41q-2 8 -9 -4l-3 -6q-4 -34 -8.5 -174t0.5 -195q25 -145 139 -215q7 -5 2 -31q-8 -19 -60 -45q-28 -14 -59 -14q-29 0 -63 51q-25 46 -25 219q0 92 14 463q3 59 -2 111q-6 47 -11 222t-3 288q0 20 18 32q18 9 45 9z" />
    <glyph glyph-name="paragraph" unicode="&#xb6;" horiz-adv-x="1118" 
d="M940 1282h72q35 0 35 -43q0 -8 -8 -18.5t-13 -10.5q-6 0 -97.5 -2t-111.5 -2q-5 0 -9.5 -11t-4.5 -21q0 -273 2 -563t4 -469t2 -185q0 -62 -3 -110t-12 -109t-28 -105t-48.5 -83.5t-77.5 -60.5t-110 -21q-96 0 -155.5 63.5t-59.5 138.5q0 73 49.5 133t122.5 60
q43 0 75 -30.5t32 -65.5q0 -52 -31.5 -77.5t-56.5 -25.5q-36 0 -55 12q-19 13 -29 13q-23 0 -23 -27q0 -58 38.5 -92.5t105.5 -34.5q95 0 137.5 91.5t44.5 267.5q1 103 2.5 197t1.5 126q0 9 -5 18.5t-11 10.5q-124 2 -232.5 34.5t-195 93t-136 158.5t-49.5 222
q0 113 38 196.5t118 163.5q61 63 157 102t177 50q48 6 171.5 11t176.5 5z" />
    <glyph glyph-name="periodcentered" unicode="&#xb7;" horiz-adv-x="419" 
d="M211 526q63 0 94 -42t31 -89q0 -54 -36 -90.5t-91 -36.5q-47 0 -86 32.5t-39 98.5q0 65 42.5 96t84.5 31z" />
    <glyph glyph-name="cedilla" unicode="&#xb8;" 
d="M539 -279q0 -87 -101 -167q-85 -64 -139 -64q-34 0 -49 29q-6 10 -6.5 33.5t4.5 29.5q11 15 22 15q67 -13 86 -13q35 0 54.5 23t19.5 55q0 41 -35 68.5t-80 27.5q-18 0 -32 -2q-8 0 -20.5 12t-12.5 19q0 11 14 27q98 123 154 196h65q-79 -101 -88 -110q-5 -13 13 -25
q34 -17 51.5 -27.5t39 -29t31 -42t9.5 -55.5z" />
    <glyph glyph-name="one.superior" unicode="&#xb9;" horiz-adv-x="612" 
d="M385 1569q0 -4 -0.5 -22.5t-1.5 -58t-2 -83.5q0 -163 4 -389q1 -48 14 -61.5t64 -29.5q11 -3 16 -5q31 -12 31 -23q0 -25 -37 -25q-6 0 -72 2.5t-92 2.5q-48 0 -99 -3l-50 -2q-12 0 -25.5 6.5t-13.5 14.5q0 13 11 20.5t44 14.5q41 9 56 22.5t18 42.5q10 72 10 289
q0 95 -4 145q0 8 -7 18t-16 13q-4 1 -27.5 10t-37.5 13q-37 11 -37 24q0 17 35 21q57 4 117.5 24.5t81.5 32.5q6 5 13 2t7 -16z" />
    <glyph glyph-name="ordmasculine" unicode="&#xba;" horiz-adv-x="657" 
d="M330 1096q110 0 193 -75.5t83 -199.5q0 -108 -82 -186t-200 -78q-109 0 -191 79.5t-82 190.5t82 190t197 79zM317 1051q-49 0 -81.5 -35.5t-44 -80.5t-11.5 -95q0 -91 47 -160.5t121 -69.5q68 0 99.5 62t31.5 145q0 86 -50.5 160t-111.5 74z" />
    <glyph glyph-name="guillemotright" unicode="&#xbb;" horiz-adv-x="1411" 
d="M1184 428q17 -8 20 -25.5t-6 -21.5q-129 -71 -264 -159.5t-197 -141.5q-48 -41 -73 -41q-18 0 -5 31l15 28q34 49 125.5 130t175.5 145q12 10 12.5 20.5t-6.5 14.5q-11 10 -76.5 69t-96.5 88t-74 74.5t-62 75.5q-8 11 -12.5 22.5t-1 22t19.5 10.5q22 0 47 -22
q91 -79 215 -165.5t244 -154.5zM729 428q17 -10 20 -26.5t-6 -20.5q-132 -70 -261 -156.5t-195 -144.5q-48 -41 -70 -41q-8 0 -11.5 7t-0.5 20t14 28q52 78 301 281q22 17 6 33q-93 77 -182.5 163t-126.5 144q-10 13 -10 34t16 21q17 0 45 -22q202 -176 461 -320z" />
    <glyph glyph-name="onequarter" unicode="&#xbc;" horiz-adv-x="1345" 
d="M385 1266q0 -4 -0.5 -22.5t-1.5 -58t-2 -83.5q0 -163 4 -389q1 -51 15.5 -64t78.5 -33q31 -12 31 -22q0 -25 -37 -25q-6 0 -72 2t-92 2q-48 0 -99 -2l-50 -2q-12 0 -25.5 6.5t-13.5 14.5q0 13 11 20.5t44 14.5q41 9 56 22.5t18 42.5q10 72 10 289q0 95 -4 145q0 8 -7 18
t-16 13q-4 1 -27.5 10t-37.5 13q-37 11 -37 24q0 17 35 21q57 4 117.5 24.5t81.5 32.5q6 6 13 2t7 -16zM1139 1317q21 0 34 -13t3 -30q-102 -161 -320 -509t-351 -558t-171 -264q-2 -4 -9.5 -4.5t-15.5 4.5q-13 10 -18.5 24.5t2.5 30.5q107 170 308.5 491.5t339.5 542
t165 260.5q15 25 33 25zM1190 717q5 0 10.5 -6.5t5.5 -16.5q0 -1 0.5 -82t1 -175.5t0.5 -129.5q0 -14 11 -14l114 4q10 0 10 -18q0 -13 -6.5 -35t-13.5 -23l-104 2q-1 0 -3 -2t-4 -5.5t-2 -8.5q0 -15 1.5 -94t0.5 -99q0 -20 -18 -26q-7 -3 -45.5 -7t-46.5 -4q-5 0 -12 6.5
t-7 14.5q0 175 2 213q0 5 -3.5 8.5t-8.5 3.5q-181 0 -299 -8q-6 0 -10 8.5t-4 16.5q0 4 6.5 11.5t16 17l12.5 12.5q5 6 46 53t75 87t76.5 90.5t73 89.5t42.5 58q13 19 39 38.5t43 19.5zM1087 301q0 17 4.5 106.5t4.5 141.5q0 4 -6 5t-7 -1q-14 -16 -58.5 -68t-79 -94.5
t-64.5 -81.5q-4 -6 -1.5 -11t7.5 -5l184 -2q16 0 16 10z" />
    <glyph glyph-name="onehalf" unicode="&#xbd;" horiz-adv-x="1390" 
d="M385 1266q0 -4 -0.5 -22.5t-1.5 -58t-2 -83.5q0 -163 4 -389q1 -51 15.5 -64t78.5 -33q31 -12 31 -22q0 -25 -37 -25q-6 0 -72 2t-92 2q-48 0 -99 -2l-50 -2q-12 0 -25.5 6.5t-13.5 14.5q0 13 11 20.5t44 14.5q41 9 56 22.5t18 42.5q10 72 10 289q0 95 -4 145q0 8 -7 18
t-16 13q-4 1 -27.5 10t-37.5 13q-37 11 -37 24q0 17 35 21q57 4 117.5 24.5t81.5 32.5q6 6 13 2t7 -16zM1100 1317q21 0 34 -13t3 -30q-102 -161 -320 -509t-351 -558t-171 -264q-2 -4 -9.5 -4.5t-15.5 4.5q-13 10 -18.5 24.5t2.5 30.5q107 170 308.5 491.5t339.5 542
t165 260.5q15 25 33 25zM1063 707q87 0 146 -60.5t59 -144.5q0 -90 -88 -185q-58 -64 -191 -190q-6 -7 -2.5 -11.5t8.5 -4.5h234q28 0 74 59q18 23 32 23q10 0 12 -17.5t-4 -30.5q-32 -63 -47 -137q-5 -12 -16 -12q-1 0 -40 1t-86 2t-96 1.5t-69 -0.5l-125 -2q-13 0 -25 6
t-12 12q0 15 17 29q99 88 200 207q91 110 91 227q0 55 -33.5 86t-85.5 31q-40 0 -77.5 -18.5t-61.5 -45.5q-23 -20 -37 -20q-6 0 -10.5 5.5t-4.5 10.5q0 23 19 47q40 56 97 94t122 38z" />
    <glyph glyph-name="threequarters" unicode="&#xbe;" horiz-adv-x="1298" 
d="M303 1284q74 0 119 -43.5t45 -93.5q0 -46 -26 -79t-79 -67q-3 -1 -2 -6t5 -6q79 -9 122 -50t43 -108q0 -76 -50.5 -142.5t-137.5 -108.5q-66 -35 -149 -35q-38 0 -79.5 22.5t-41.5 48.5q0 20 15.5 38.5t29.5 23.5q13 5 22 -4q67 -58 148 -58q50 0 89.5 50t39.5 100
q0 63 -35 106t-100 43q-15 0 -80 -14q-6 -2 -13.5 -0.5t-7.5 4.5q0 13 4 21q11 19 21 27.5t33 17.5q68 29 90 53t22 76q0 35 -28.5 65.5t-65.5 30.5q-54 0 -121 -55q-34 -31 -40 -12q-1 2 -1 6q0 14 6 26q31 50 83.5 86.5t119.5 36.5zM1096 1317q21 0 34 -13t3 -30
q-102 -161 -320 -509t-351 -558t-171 -264q-2 -4 -9.5 -4.5t-15.5 4.5q-13 10 -18.5 24.5t2.5 30.5q107 170 308.5 491.5t339.5 542t165 260.5q15 25 33 25zM1141 717q5 0 10.5 -6.5t5.5 -16.5q0 -1 0.5 -82t1 -175.5t0.5 -129.5q0 -14 10 -14l115 4q10 0 10 -18
q0 -13 -6.5 -35t-13.5 -23l-105 2q-1 0 -3 -2t-3.5 -5.5t-1.5 -8.5q0 -15 1.5 -94t0.5 -99q0 -20 -18 -26q-7 -3 -45.5 -7t-46.5 -4q-5 0 -12 6.5t-7 14.5q0 175 2 213q0 5 -4 8.5t-8 3.5q-181 0 -299 -8q-6 0 -10 8.5t-4 16.5q0 4 6.5 11.5t15.5 17t12 12.5q1 1 61.5 70.5
t101.5 117.5t89 107t62 83q13 19 39 38.5t43 19.5zM1038 301q0 17 4.5 106.5t4.5 141.5q0 4 -5.5 5t-7.5 -1q-16 -19 -59 -69t-79 -93t-65 -82q-4 -6 -1 -11t8 -5l184 -2q16 0 16 10z" />
    <glyph glyph-name="questiondown" unicode="&#xbf;" horiz-adv-x="688" 
d="M444 -336q-82 0 -198 98q-12 11 -33.5 35t-52.5 66t-52.5 95t-21.5 101q0 80 19.5 125t56.5 82q25 18 180 105q8 4 14 8.5t10.5 11t7 10.5t4 13t2 12.5t2 15.5t1.5 15q1 25 10.5 39t20.5 14q10 0 21 -18t14 -37q24 -129 24 -162q0 -48 -41.5 -79.5t-148.5 -80.5
q-52 -24 -76.5 -51t-24.5 -64q0 -38 5 -64t20 -53t48.5 -41t84.5 -14q8 0 43.5 4.5t54.5 4.5q22 0 53 -33t31 -86q0 -23 -22.5 -47.5t-55.5 -24.5zM375 676q-50 0 -81.5 39t-31.5 80q0 50 33 84t84 34q45 0 80 -30t35 -90q0 -58 -39.5 -87.5t-79.5 -29.5z" />
    <glyph glyph-name="Agrave" unicode="&#xc0;" horiz-adv-x="1384" 
d="M723 1354q14 0 33 -54q12 -40 90 -253q73 -207 169 -462t126 -327q26 -63 45 -99.5t42.5 -58.5t44 -30.5t60.5 -18.5q49 -15 49 -35q0 -26 -65 -26q-31 0 -120.5 5t-137.5 5q-35 0 -78.5 -2t-67.5 -2q-63 0 -63 24q0 9 12 19t37 14q46 9 66.5 26.5t19.5 36.5t-4 42
q-5 24 -13 53.5t-22 71t-23 67.5t-29.5 82t-27.5 76q-5 20 -69 20q-279 0 -336 -8q-12 0 -23 -16q-41 -102 -73.5 -212t-32.5 -147q0 -16 5 -28t28.5 -29.5t66.5 -30.5q55 -16 55 -37q0 -26 -57 -26q-12 0 -65.5 3t-96.5 3q-44 0 -123.5 -5t-89.5 -5q-47 0 -47 20
q0 10 11.5 22t33.5 19q36 12 46.5 16t34 15t31.5 19.5t23.5 26.5t27 40.5t26.5 56.5q25 56 177.5 451t192.5 493q13 26 13 43q0 11 4 17q1 1 61 100q22 25 33 25zM815 621q2 0 4.5 6t1.5 10q-135 402 -159 440q-9 18 -17 0q-141 -374 -160 -448q-2 -6 1.5 -10.5t9.5 -4.5
q27 1 99 1.5t131 1.5t89 4zM469 1679q10 0 23 -8.5t57 -40.5q52 -37 215 -168q28 -28 20 -43q-10 -10 -28.5 -9.5t-38.5 9.5q-52 23 -157.5 77t-129.5 69q-39 22 -39 43t37 47q24 24 41 24z" />
    <glyph glyph-name="Aacute" unicode="&#xc1;" horiz-adv-x="1384" 
d="M723 1354q14 0 33 -54q12 -40 90 -253q73 -207 169 -462t126 -327q26 -63 45 -99.5t42.5 -58.5t44 -30.5t60.5 -18.5q49 -15 49 -35q0 -26 -65 -26q-31 0 -120.5 5t-137.5 5q-35 0 -78.5 -2t-67.5 -2q-63 0 -63 24q0 9 12 19t37 14q46 9 66.5 26.5t19.5 36.5t-4 42
q-5 24 -13 53.5t-22 71t-23 67.5t-29.5 82t-27.5 76q-5 20 -69 20q-279 0 -336 -8q-12 0 -23 -16q-41 -102 -73.5 -212t-32.5 -147q0 -16 5 -28t28.5 -29.5t66.5 -30.5q55 -16 55 -37q0 -26 -57 -26q-12 0 -65.5 3t-96.5 3q-44 0 -123.5 -5t-89.5 -5q-47 0 -47 20
q0 10 11.5 22t33.5 19q36 12 46.5 16t34 15t31.5 19.5t23.5 26.5t27 40.5t26.5 56.5q25 56 177.5 451t192.5 493q13 26 13 43q0 11 4 17q1 1 61 100q22 25 33 25zM815 621q2 0 4.5 6t1.5 10q-135 402 -159 440q-9 18 -17 0q-141 -374 -160 -448q-2 -6 1.5 -10.5t9.5 -4.5
q27 1 99 1.5t131 1.5t89 4zM926 1673q31 21 57 10q18 -8 38.5 -27.5t20.5 -37.5q0 -10 -13 -27t-28 -26q-185 -101 -307 -148q-48 -21 -69 0q-2 0 -2.5 6.5t5.5 18.5t21 24q131 110 277 207z" />
    <glyph glyph-name="Acircumflex" unicode="&#xc2;" horiz-adv-x="1384" 
d="M723 1354q14 0 33 -54q12 -40 90 -253q73 -207 169 -462t126 -327q26 -63 45 -99.5t42.5 -58.5t44 -30.5t60.5 -18.5q49 -15 49 -35q0 -26 -65 -26q-31 0 -120.5 5t-137.5 5q-35 0 -78.5 -2t-67.5 -2q-63 0 -63 24q0 9 12 19t37 14q46 9 66.5 26.5t19.5 36.5t-4 42
q-5 24 -13 53.5t-22 71t-23 67.5t-29.5 82t-27.5 76q-5 20 -69 20q-279 0 -336 -8q-12 0 -23 -16q-41 -102 -73.5 -212t-32.5 -147q0 -16 5 -28t28.5 -29.5t66.5 -30.5q55 -16 55 -37q0 -26 -57 -26q-12 0 -65.5 3t-96.5 3q-44 0 -123.5 -5t-89.5 -5q-47 0 -47 20
q0 10 11.5 22t33.5 19q36 12 46.5 16t34 15t31.5 19.5t23.5 26.5t27 40.5t26.5 56.5q25 56 177.5 451t192.5 493q13 26 13 43q0 11 4 17q1 1 61 100q22 25 33 25zM815 621q2 0 4.5 6t1.5 10q-135 402 -159 440q-9 18 -17 0q-141 -374 -160 -448q-2 -6 1.5 -10.5t9.5 -4.5
q27 1 99 1.5t131 1.5t89 4zM719 1630q21 0 76 -45q120 -103 168 -143q27 -19 24 -39q-1 -14 -20 -14q-21 0 -58 16q-47 22 -182 88q-15 7 -33 -2q-96 -43 -176 -84q-2 -1 -24 -9.5t-31 -8.5q-45 0 -15 35q8 8 19 18q19 15 83.5 70.5t92.5 78.5q49 39 76 39z" />
    <glyph glyph-name="Atilde" unicode="&#xc3;" horiz-adv-x="1384" 
d="M723 1354q14 0 33 -54q12 -40 90 -253q73 -207 169 -462t126 -327q26 -63 45 -99.5t42.5 -58.5t44 -30.5t60.5 -18.5q49 -15 49 -35q0 -26 -65 -26q-31 0 -120.5 5t-137.5 5q-35 0 -78.5 -2t-67.5 -2q-63 0 -63 24q0 9 12 19t37 14q46 9 66.5 26.5t19.5 36.5t-4 42
q-5 24 -13 53.5t-22 71t-23 67.5t-29.5 82t-27.5 76q-5 20 -69 20q-279 0 -336 -8q-12 0 -23 -16q-41 -102 -73.5 -212t-32.5 -147q0 -16 5 -28t28.5 -29.5t66.5 -30.5q55 -16 55 -37q0 -26 -57 -26q-12 0 -65.5 3t-96.5 3q-44 0 -123.5 -5t-89.5 -5q-47 0 -47 20
q0 10 11.5 22t33.5 19q36 12 46.5 16t34 15t31.5 19.5t23.5 26.5t27 40.5t26.5 56.5q25 56 177.5 451t192.5 493q13 26 13 43q0 11 4 17q1 1 61 100q22 25 33 25zM815 621q2 0 4.5 6t1.5 10q-135 402 -159 440q-9 18 -17 0q-141 -374 -160 -448q-2 -6 1.5 -10.5t9.5 -4.5
q27 1 99 1.5t131 1.5t89 4zM471 1460q26 42 68 96q16 19 51 19q255 0 289 8q11 3 20.5 9t17 14t12 14.5t9.5 15t6 9.5q14 14 19 14q7 0 16.5 -10.5t13.5 -18.5q8 -17 -6 -31q-13 -14 -54 -67t-50 -62q-12 -12 -29 -12q-9 0 -63.5 0.5t-96.5 0.5t-85 -1t-54 -4
q-21 -6 -57 -55q-9 -15 -19 -15q-13 0 -21.5 10t-8.5 17q0 11 22 49z" />
    <glyph glyph-name="Adieresis" unicode="&#xc4;" horiz-adv-x="1384" 
d="M723 1354q14 0 33 -54q12 -40 90 -253q73 -207 169 -462t126 -327q26 -63 45 -99.5t42.5 -58.5t44 -30.5t60.5 -18.5q49 -15 49 -35q0 -26 -65 -26q-31 0 -120.5 5t-137.5 5q-35 0 -78.5 -2t-67.5 -2q-63 0 -63 24q0 9 12 19t37 14q46 9 66.5 26.5t19.5 36.5t-4 42
q-5 24 -13 53.5t-22 71t-23 67.5t-29.5 82t-27.5 76q-5 20 -69 20q-279 0 -336 -8q-12 0 -23 -16q-41 -102 -73.5 -212t-32.5 -147q0 -16 5 -28t28.5 -29.5t66.5 -30.5q55 -16 55 -37q0 -26 -57 -26q-12 0 -65.5 3t-96.5 3q-44 0 -123.5 -5t-89.5 -5q-47 0 -47 20
q0 10 11.5 22t33.5 19q36 12 46.5 16t34 15t31.5 19.5t23.5 26.5t27 40.5t26.5 56.5q25 56 177.5 451t192.5 493q13 26 13 43q0 11 4 17q1 1 61 100q22 25 33 25zM815 621q2 0 4.5 6t1.5 10q-135 402 -159 440q-9 18 -17 0q-141 -374 -160 -448q-2 -6 1.5 -10.5t9.5 -4.5
q27 1 99 1.5t131 1.5t89 4zM510 1593q36 0 63 -29.5t27 -68.5q0 -43 -28.5 -66.5t-69.5 -23.5q-31 0 -57.5 25t-26.5 69q0 38 26.5 66t65.5 28zM922 1591q35 0 60.5 -29.5t25.5 -66.5q0 -36 -28 -63t-65 -27q-34 0 -61 25.5t-27 64.5q0 42 28 69t67 27z" />
    <glyph glyph-name="Aring" unicode="&#xc5;" horiz-adv-x="1384" 
d="M723 1354q14 0 33 -54q12 -40 90 -253q73 -207 169 -462t126 -327q26 -63 45 -99.5t42.5 -58.5t44 -30.5t60.5 -18.5q49 -15 49 -35q0 -26 -65 -26q-31 0 -120.5 5t-137.5 5q-35 0 -78.5 -2t-67.5 -2q-63 0 -63 24q0 9 12 19t37 14q46 9 66.5 26.5t19.5 36.5t-4 42
q-5 24 -13 53.5t-22 71t-23 67.5t-29.5 82t-27.5 76q-5 20 -69 20q-279 0 -336 -8q-12 0 -23 -16q-41 -102 -73.5 -212t-32.5 -147q0 -16 5 -28t28.5 -29.5t66.5 -30.5q55 -16 55 -37q0 -26 -57 -26q-12 0 -65.5 3t-96.5 3q-44 0 -123.5 -5t-89.5 -5q-47 0 -47 20
q0 10 11.5 22t33.5 19q36 12 46.5 16t34 15t31.5 19.5t23.5 26.5t27 40.5t26.5 56.5q25 56 177.5 451t192.5 493q13 26 13 43q0 11 4 17q1 1 61 100q22 25 33 25zM815 621q2 0 4.5 6t1.5 10q-135 402 -159 440q-9 18 -17 0q-141 -374 -160 -448q-2 -6 1.5 -10.5t9.5 -4.5
q27 1 99 1.5t131 1.5t89 4zM713 1708q70 0 113.5 -46t43.5 -110q0 -65 -43.5 -112t-113.5 -47t-114 47t-44 112q0 64 44 110t114 46zM713 1653q-37 0 -61.5 -29t-24.5 -72q0 -48 24.5 -75t61.5 -27q39 0 62.5 27t23.5 79q0 40 -25 68.5t-61 28.5z" />
    <glyph glyph-name="AE" unicode="&#xc6;" horiz-adv-x="1849" 
d="M1032 1317h412q28 0 57 1.5t51 4t39.5 5t28.5 4t12 1.5q7 0 16 -11t9 -22q0 -31 31 -213q2 -13 -5.5 -25.5t-17.5 -12.5q-25 0 -45 45q-63 132 -137 143q-23 4 -87 4.5t-143.5 -1t-81.5 -1.5q-8 0 -14 -8t-6 -14q-3 -17 -3 -91.5t1.5 -203.5t1.5 -201q0 -14 5 -29.5
t15 -15.5q238 0 277 8q19 4 40.5 30t35.5 60q7 13 23 24t24 11t13 -13.5t1 -35.5q-6 -28 -8 -75.5t-2 -85t1 -79.5l1 -41q0 -17 -7 -28t-16 -11q-25 0 -43 49q-16 62 -37.5 80.5t-87.5 18.5q-14 0 -84 1t-124 1q-9 0 -16 -8t-9 -19q-5 -59 -3 -180t5 -186q3 -59 28.5 -85.5
t67.5 -33.5q30 -3 113.5 -6t144.5 -2q59 1 101.5 32t122.5 125q39 45 49 45t19 -16.5t5 -30.5q-8 -25 -43 -108.5t-43 -98.5q-7 -13 -29.5 -20.5t-43.5 -7.5q-12 0 -85.5 2.5t-197 5t-258.5 2.5q-26 0 -135 -5t-137 -5q-21 0 -34.5 7.5t-13.5 14.5q0 27 52 39q77 16 100 42
t31 89q8 71 8 373q0 23 -14 23q-59 3 -177 4t-153 -2q-6 0 -20 -11.5t-19 -19.5q-16 -30 -59 -111t-61 -115.5t-44 -86.5t-36.5 -78.5t-10.5 -38.5q0 -36 90 -60q41 -10 41 -24t-13.5 -27.5t-37.5 -13.5q-20 0 -79 3t-105 3q-32 0 -131 -6t-111 -6q-19 0 -36 8t-17 18
q0 11 18.5 23t50.5 18q85 13 138.5 49t125.5 138q103 141 564 964q14 23 -15 31q-16 4 -80 13.5t-81 13.5q-39 12 -39 32q0 25 59 25q37 0 150.5 -2t156.5 -2zM981 1178q0 35 -5 35q-6 1 -28 -33l-8 -13q-46 -71 -125 -215.5t-135 -255.5q-3 -9 1 -15.5t13 -8.5
q31 -2 264 -2q9 0 14 11t5 21q0 3 2 225.5t2 250.5z" />
    <glyph glyph-name="Ccedilla" unicode="&#xc7;" horiz-adv-x="1468" 
d="M883 1354q98 0 241 -33q29 -4 85.5 -20.5t70.5 -18.5q6 0 12.5 -5t12.5 -19.5t6 -36.5q0 -21 14 -179q1 -30 -8.5 -48.5t-22.5 -18.5q-15 0 -32 53q-13 51 -37.5 94.5t-46.5 59.5q-80 59 -158.5 82.5t-169.5 23.5q-120 0 -223 -47.5t-172 -127t-107.5 -185t-38.5 -221.5
q0 -194 72 -338q42 -84 106 -149t135 -103t141.5 -57t135.5 -19q124 0 225 55q62 33 105.5 81t83.5 118q22 36 28.5 43.5t16.5 7.5q13 0 17 -24t-1 -41q-4 -35 -30 -99.5t-50 -107.5q-7 -14 -27 -30t-38 -24q-31 -14 -128 -32.5t-202 -22.5q-12 -16 -25 -33.5t-19.5 -26
t-8.5 -11.5q-6 -15 14 -27q36 -18 53.5 -29t40.5 -30.5t33 -44.5t10 -58q0 -90 -106 -178q-90 -68 -150 -68q-32 0 -51 31q-8 16 -7.5 34t7.5 30q13 21 29 18q77 -14 86 -14q37 0 58.5 25.5t21.5 58.5q0 43 -38.5 72.5t-86.5 29.5q-21 0 -37 -2q-6 0 -18.5 12t-12.5 19
q0 11 15 28q17 24 127 162q-98 3 -191.5 27t-163.5 61t-121 75.5t-84 76.5q-172 198 -172 471q0 83 22.5 164t58.5 143.5t72.5 108t72.5 75.5q233 189 555 189z" />
    <glyph glyph-name="Egrave" unicode="&#xc8;" horiz-adv-x="1153" 
d="M457 1317h301q142 0 188 6q4 1 10.5 -7t8.5 -16q0 -54 2 -117t2 -77q0 -22 -9 -37.5t-22 -15.5q-23 0 -33 49q-19 76 -50 103.5t-87 35.5q-40 6 -132 8.5t-159 -0.5q-3 0 -9 -4t-13 -18t-9 -35q-3 -40 -6 -242.5t0 -224.5q5 -20 15 -20h133q53 0 82.5 0.5t56.5 5.5
t38.5 9.5t24.5 19t18.5 27t16.5 40.5q17 43 37 43q10 0 14.5 -15.5t2.5 -29.5q-7 -100 -7 -148q0 -32 3.5 -75t3.5 -50q1 -27 -5.5 -43t-17.5 -16q-10 0 -20 13.5t-15 31.5q-12 39 -19.5 56t-26 30t-42 16t-74.5 5q-66 4 -202 4q-5 0 -12 -7.5t-7 -11.5q-6 -32 -6 -321
q0 -112 21 -170q12 -37 39 -45q88 -15 186 -15q138 0 194 15q53 13 94 47.5t76 103.5q30 58 48 58q10 0 14.5 -18.5t1.5 -37.5q-2 -15 -33.5 -111t-40.5 -108q-5 -7 -16.5 -15.5t-18.5 -8.5q-1 0 -100 4t-258 8t-307 4q-58 0 -127.5 -5t-104.5 -5q-33 0 -47 5t-14 21
q0 19 57 33q45 11 66.5 18.5t42.5 23.5t29.5 41.5t11.5 66.5q16 229 16 581q0 316 -2 346q-3 68 -25.5 94.5t-89.5 41.5q-33 8 -46 15t-13 19q0 13 17 21t40 8q43 0 141.5 -4t172.5 -4zM371 1694q10 0 23 -8.5t57 -40.5q52 -37 215 -168q28 -28 20 -43q-10 -10 -29.5 -9.5
t-38.5 9.5q-53 23 -158 76.5t-128 68.5q-39 22 -39 43t37 47q25 25 41 25z" />
    <glyph glyph-name="Eacute" unicode="&#xc9;" horiz-adv-x="1153" 
d="M457 1317h301q142 0 188 6q4 1 10.5 -7t8.5 -16q0 -54 2 -117t2 -77q0 -22 -9 -37.5t-22 -15.5q-23 0 -33 49q-19 76 -50 103.5t-87 35.5q-40 6 -132 8.5t-159 -0.5q-3 0 -9 -4t-13 -18t-9 -35q-3 -40 -6 -242.5t0 -224.5q5 -20 15 -20h133q53 0 82.5 0.5t56.5 5.5
t38.5 9.5t24.5 19t18.5 27t16.5 40.5q17 43 37 43q10 0 14.5 -15.5t2.5 -29.5q-7 -100 -7 -148q0 -32 3.5 -75t3.5 -50q1 -27 -5.5 -43t-17.5 -16q-10 0 -20 13.5t-15 31.5q-12 39 -19.5 56t-26 30t-42 16t-74.5 5q-66 4 -202 4q-5 0 -12 -7.5t-7 -11.5q-6 -32 -6 -321
q0 -112 21 -170q12 -37 39 -45q88 -15 186 -15q138 0 194 15q53 13 94 47.5t76 103.5q30 58 48 58q10 0 14.5 -18.5t1.5 -37.5q-2 -15 -33.5 -111t-40.5 -108q-5 -7 -16.5 -15.5t-18.5 -8.5q-1 0 -100 4t-258 8t-307 4q-58 0 -127.5 -5t-104.5 -5q-33 0 -47 5t-14 21
q0 19 57 33q45 11 66.5 18.5t42.5 23.5t29.5 41.5t11.5 66.5q16 229 16 581q0 316 -2 346q-3 68 -25.5 94.5t-89.5 41.5q-33 8 -46 15t-13 19q0 13 17 21t40 8q43 0 141.5 -4t172.5 -4zM784 1669q31 21 58 10q18 -8 38.5 -27.5t20.5 -37.5q0 -10 -13 -27t-28 -26
q-185 -101 -307 -148q-49 -21 -70 0q0 2 -1.5 7t5 17.5t21.5 24.5q134 113 276 207z" />
    <glyph glyph-name="Ecircumflex" unicode="&#xca;" horiz-adv-x="1153" 
d="M457 1317h301q142 0 188 6q4 1 10.5 -7t8.5 -16q0 -54 2 -117t2 -77q0 -22 -9 -37.5t-22 -15.5q-23 0 -33 49q-19 76 -50 103.5t-87 35.5q-40 6 -132 8.5t-159 -0.5q-3 0 -9 -4t-13 -18t-9 -35q-3 -40 -6 -242.5t0 -224.5q5 -20 15 -20h133q53 0 82.5 0.5t56.5 5.5
t38.5 9.5t24.5 19t18.5 27t16.5 40.5q17 43 37 43q10 0 14.5 -15.5t2.5 -29.5q-7 -100 -7 -148q0 -32 3.5 -75t3.5 -50q1 -27 -5.5 -43t-17.5 -16q-10 0 -20 13.5t-15 31.5q-12 39 -19.5 56t-26 30t-42 16t-74.5 5q-66 4 -202 4q-5 0 -12 -7.5t-7 -11.5q-6 -32 -6 -321
q0 -112 21 -170q12 -37 39 -45q88 -15 186 -15q138 0 194 15q53 13 94 47.5t76 103.5q30 58 48 58q10 0 14.5 -18.5t1.5 -37.5q-2 -15 -33.5 -111t-40.5 -108q-5 -7 -16.5 -15.5t-18.5 -8.5q-1 0 -100 4t-258 8t-307 4q-58 0 -127.5 -5t-104.5 -5q-33 0 -47 5t-14 21
q0 19 57 33q45 11 66.5 18.5t42.5 23.5t29.5 41.5t11.5 66.5q16 229 16 581q0 316 -2 346q-3 68 -25.5 94.5t-89.5 41.5q-33 8 -46 15t-13 19q0 13 17 21t40 8q43 0 141.5 -4t172.5 -4zM590 1657q21 0 76 -45q146 -126 168 -144q27 -19 24 -39q-1 -14 -20 -14q-18 0 -58 17
q-47 22 -182 88q-14 7 -33 -2q-96 -43 -176 -84q-3 -1 -24.5 -10t-30.5 -9q-45 0 -15 35q8 8 19 18q19 16 83.5 72t92.5 78q49 39 76 39z" />
    <glyph glyph-name="Edieresis" unicode="&#xcb;" horiz-adv-x="1153" 
d="M457 1317h301q142 0 188 6q4 1 10.5 -7t8.5 -16q0 -54 2 -117t2 -77q0 -22 -9 -37.5t-22 -15.5q-23 0 -33 49q-19 76 -50 103.5t-87 35.5q-40 6 -132 8.5t-159 -0.5q-3 0 -9 -4t-13 -18t-9 -35q-3 -40 -6 -242.5t0 -224.5q5 -20 15 -20h133q53 0 82.5 0.5t56.5 5.5
t38.5 9.5t24.5 19t18.5 27t16.5 40.5q17 43 37 43q10 0 14.5 -15.5t2.5 -29.5q-7 -100 -7 -148q0 -32 3.5 -75t3.5 -50q1 -27 -5.5 -43t-17.5 -16q-10 0 -20 13.5t-15 31.5q-12 39 -19.5 56t-26 30t-42 16t-74.5 5q-66 4 -202 4q-5 0 -12 -7.5t-7 -11.5q-6 -32 -6 -321
q0 -112 21 -170q12 -37 39 -45q88 -15 186 -15q138 0 194 15q53 13 94 47.5t76 103.5q30 58 48 58q10 0 14.5 -18.5t1.5 -37.5q-2 -15 -33.5 -111t-40.5 -108q-5 -7 -16.5 -15.5t-18.5 -8.5q-1 0 -100 4t-258 8t-307 4q-58 0 -127.5 -5t-104.5 -5q-33 0 -47 5t-14 21
q0 19 57 33q45 11 66.5 18.5t42.5 23.5t29.5 41.5t11.5 66.5q16 229 16 581q0 316 -2 346q-3 68 -25.5 94.5t-89.5 41.5q-33 8 -46 15t-13 19q0 13 17 21t40 8q43 0 141.5 -4t172.5 -4zM379 1618q36 0 63 -29.5t27 -68.5q0 -43 -28.5 -66.5t-69.5 -23.5q-31 0 -57.5 25
t-26.5 69q0 38 26.5 66t65.5 28zM791 1616q35 0 60.5 -29.5t25.5 -66.5q0 -36 -28 -63t-65 -27q-34 0 -61 25.5t-27 64.5q0 42 28 69t67 27z" />
    <glyph glyph-name="Igrave" unicode="&#xcc;" horiz-adv-x="694" 
d="M262 668q0 346 -6 448q-2 24 -2.5 32.5t-3 26.5t-5.5 24t-9 17.5t-14 16t-20.5 11t-28.5 10.5t-38 8q-57 10 -57 36q0 25 51 25q25 0 106 -3t117 -3q54 0 120 3t99 3q52 0 52 -25q0 -24 -54 -34q-18 -4 -32.5 -9t-25.5 -9t-20 -11.5t-15 -11t-11 -14t-7.5 -13.5
t-5.5 -15.5t-3.5 -15t-2.5 -16.5t-2 -16q-12 -82 -12 -603q0 -206 6 -305q3 -47 7.5 -71.5t20 -47t44 -35t78.5 -22.5q53 -9 53 -35q0 -11 -17.5 -18.5t-37.5 -7.5q-58 0 -171 6t-134 6q-29 0 -72.5 -2t-83.5 -2q-53 0 -53 29q0 22 61 34q73 16 93 44.5t26 105.5
q10 120 10 459zM139 1700q10 0 23 -8.5t57 -40.5q52 -37 215 -168q28 -28 21 -43q-10 -10 -29.5 -9.5t-38.5 9.5q-53 24 -158.5 77.5t-128.5 67.5q-39 22 -39 43t37 47q25 25 41 25z" />
    <glyph glyph-name="Iacute" unicode="&#xcd;" horiz-adv-x="694" 
d="M262 668q0 346 -6 448q-2 24 -2.5 32.5t-3 26.5t-5.5 24t-9 17.5t-14 16t-20.5 11t-28.5 10.5t-38 8q-57 10 -57 36q0 25 51 25q25 0 106 -3t117 -3q54 0 120 3t99 3q52 0 52 -25q0 -24 -54 -34q-18 -4 -32.5 -9t-25.5 -9t-20 -11.5t-15 -11t-11 -14t-7.5 -13.5
t-5.5 -15.5t-3.5 -15t-2.5 -16.5t-2 -16q-12 -82 -12 -603q0 -206 6 -305q3 -47 7.5 -71.5t20 -47t44 -35t78.5 -22.5q53 -9 53 -35q0 -11 -17.5 -18.5t-37.5 -7.5q-58 0 -171 6t-134 6q-29 0 -72.5 -2t-83.5 -2q-53 0 -53 29q0 22 61 34q73 16 93 44.5t26 105.5
q10 120 10 459zM559 1690q31 20 57 10q18 -8 39 -28t21 -38q0 -10 -13 -27t-28 -26q-179 -98 -307 -147q-49 -21 -70 0q0 2 -1.5 7t5 17.5t21.5 24.5q134 113 276 207z" />
    <glyph glyph-name="Icircumflex" unicode="&#xce;" horiz-adv-x="694" 
d="M262 668q0 346 -6 448q-2 24 -2.5 32.5t-3 26.5t-5.5 24t-9 17.5t-14 16t-20.5 11t-28.5 10.5t-38 8q-57 10 -57 36q0 25 51 25q25 0 106 -3t117 -3q54 0 120 3t99 3q52 0 52 -25q0 -24 -54 -34q-18 -4 -32.5 -9t-25.5 -9t-20 -11.5t-15 -11t-11 -14t-7.5 -13.5
t-5.5 -15.5t-3.5 -15t-2.5 -16.5t-2 -16q-12 -82 -12 -603q0 -206 6 -305q3 -47 7.5 -71.5t20 -47t44 -35t78.5 -22.5q53 -9 53 -35q0 -11 -17.5 -18.5t-37.5 -7.5q-58 0 -171 6t-134 6q-29 0 -72.5 -2t-83.5 -2q-53 0 -53 29q0 22 61 34q73 16 93 44.5t26 105.5
q10 120 10 459zM365 1671q20 0 75 -45q120 -103 168 -143q27 -19 24 -39q-1 -14 -20 -14q-20 0 -57 16q-47 22 -182 88q-15 7 -33 -2q-96 -43 -176 -84q-2 0 -23.5 -9t-31.5 -9q-45 0 -15 35q8 8 19 18q19 15 83.5 70.5t92.5 78.5q49 39 76 39z" />
    <glyph glyph-name="Idieresis" unicode="&#xcf;" horiz-adv-x="694" 
d="M262 668q0 346 -6 448q-2 24 -2.5 32.5t-3 26.5t-5.5 24t-9 17.5t-14 16t-20.5 11t-28.5 10.5t-38 8q-57 10 -57 36q0 25 51 25q25 0 106 -3t117 -3q54 0 120 3t99 3q52 0 52 -25q0 -24 -54 -34q-18 -4 -32.5 -9t-25.5 -9t-20 -11.5t-15 -11t-11 -14t-7.5 -13.5
t-5.5 -15.5t-3.5 -15t-2.5 -16.5t-2 -16q-12 -82 -12 -603q0 -206 6 -305q3 -47 7.5 -71.5t20 -47t44 -35t78.5 -22.5q53 -9 53 -35q0 -11 -17.5 -18.5t-37.5 -7.5q-58 0 -171 6t-134 6q-29 0 -72.5 -2t-83.5 -2q-53 0 -53 29q0 22 61 34q73 16 93 44.5t26 105.5
q10 120 10 459zM150 1618q36 0 63 -29.5t27 -68.5q0 -43 -29 -66.5t-70 -23.5q-31 0 -57.5 25t-26.5 69q0 38 27 66t66 28zM561 1616q35 0 60.5 -29.5t25.5 -66.5t-27.5 -63.5t-64.5 -26.5q-34 0 -61 25.5t-27 64.5q0 42 27.5 69t66.5 27z" />
    <glyph glyph-name="Eth" unicode="&#xd0;" horiz-adv-x="1546" 
d="M90 715l156 2q6 0 11 7.5t5 14.5q-1 55 -4 179t-4 161q-1 40 -2 58t-6 41.5t-12 32.5t-22 20t-36 16t-53 10q-19 3 -33 12t-14 19q0 29 49 29h59q40 0 225 9t283 9q102 0 197 -19.5t165.5 -51.5t120.5 -63.5t85 -63.5q83 -79 134.5 -205.5t51.5 -247.5
q0 -107 -30.5 -206.5t-80.5 -173t-105 -127t-112 -85.5q-199 -115 -487 -115q-173 0 -402 17q-39 2 -108 2q-66 0 -66 31q0 23 43 30q44 5 71 13.5t45.5 22t27 39.5t12 56.5t4.5 83.5q0 62 2 171t2 171q0 7 -4 15t-8 8l-150 2q-4 0 -9.5 2t-11 9.5t-5.5 19.5q0 10 4 27.5
t12 17.5zM805 641l-361 -4q-4 0 -8 -7.5t-4 -13.5q5 -377 8 -419q4 -48 14.5 -71t30.5 -34q28 -21 81 -37t89 -16q83 0 192 33.5t189 99.5q97 82 154 213.5t57 298.5q0 134 -60.5 264t-158.5 205q-75 56 -192 87.5t-234 31.5q-112 0 -139 -17q-19 -13 -23 -28
q-2 -10 -3 -92.5t-2 -206t-3 -191.5q0 -7 4 -13.5t10 -6.5h353q15 0 23.5 -5.5t8.5 -11.5q0 -20 -8 -39.5t-18 -19.5z" />
    <glyph glyph-name="Ntilde" unicode="&#xd1;" horiz-adv-x="1579" 
d="M31 1298q0 25 67 25q15 0 103 -3t147 -3q16 0 43 -27q71 -85 162 -203q71 -90 680 -757q8 -8 14 -0.5t6 14.5q3 19 4.5 55.5t1.5 95t-0.5 116.5t-1 149.5t-0.5 165.5q0 99 -10 204q-1 26 -8.5 45t-37.5 42t-83 38q-55 16 -55 45q0 19 53 19q25 0 83 -1t93 -1
q40 0 104.5 4t88.5 4q47 0 47 -22q0 -11 -12 -22.5t-37 -18.5q-72 -16 -99.5 -44t-31.5 -106q-23 -425 -23 -829q0 -50 7 -156.5t7 -116.5q0 -16 -7.5 -29.5t-20.5 -13.5q-20 0 -48 22t-44 44q-16 19 -56.5 73t-70.5 91q-88 104 -360.5 418t-370.5 432q-6 7 -14.5 5
t-8.5 -10q-1 -15 -3 -54.5t-4 -93t-3 -124.5q0 -69 -1.5 -214t-2 -216t1.5 -133q6 -71 31 -101.5t98 -52.5q51 -12 51 -37q0 -26 -66 -26q-28 0 -104 5t-115 5q-24 0 -70.5 -2t-62.5 -2q-53 0 -53 22q0 23 41 35q73 25 93 41q39 31 48 123q1 13 2 29q39 647 39 827
q0 77 -14 98q-37 44 -63.5 58.5t-89.5 31.5q-12 3 -19 5q-45 12 -45 32zM573 1481q26 42 68 96q15 18 51 18q250 0 289 9q9 2 18 7t15 10.5t12 12.5t9 12t7 11.5t5 7.5t5 5.5t6.5 6.5t6.5 2q7 0 17 -10.5t14 -17.5q8 -17 -6 -31q-12 -13 -54 -66.5t-51 -62.5
q-12 -12 -29 -12q-9 0 -63.5 0.5t-96.5 0.5t-85 -1t-54 -4q-20 -6 -57 -56q-8 -14 -18 -14q-13 0 -22 10t-9 17q0 11 22 49z" />
    <glyph glyph-name="Ograve" unicode="&#xd2;" horiz-adv-x="1599" 
d="M788 1354q195 0 357.5 -87.5t258 -243.5t95.5 -347q0 -201 -83 -353t-208 -241q-88 -62 -199.5 -90.5t-203.5 -28.5q-155 0 -296.5 63t-236.5 171q-82 91 -126 210.5t-44 251.5q0 337 267 551q76 62 194.5 103t224.5 41zM743 1286q-67 0 -148.5 -32.5t-133.5 -84.5
q-160 -156 -160 -481q0 -91 25.5 -185t75 -177.5t115.5 -149.5t154 -104.5t183 -38.5q180 0 270 98q71 64 122.5 189.5t51.5 293.5q0 167 -66.5 318.5t-180.5 243.5q-61 50 -148 80t-160 30zM616 1720q10 0 23 -8.5t57 -40.5q52 -37 215 -168q28 -28 21 -43
q-10 -10 -29.5 -9.5t-38.5 9.5q-52 23 -157 77t-129 69q-39 22 -39 43q0 22 36 47q24 24 41 24z" />
    <glyph glyph-name="Oacute" unicode="&#xd3;" horiz-adv-x="1599" 
d="M788 1354q195 0 357.5 -87.5t258 -243.5t95.5 -347q0 -201 -83 -353t-208 -241q-88 -62 -199.5 -90.5t-203.5 -28.5q-155 0 -296.5 63t-236.5 171q-82 91 -126 210.5t-44 251.5q0 337 267 551q76 62 194.5 103t224.5 41zM743 1286q-67 0 -148.5 -32.5t-133.5 -84.5
q-160 -156 -160 -481q0 -91 25.5 -185t75 -177.5t115.5 -149.5t154 -104.5t183 -38.5q180 0 270 98q71 64 122.5 189.5t51.5 293.5q0 167 -66.5 318.5t-180.5 243.5q-61 50 -148 80t-160 30zM975 1708q31 20 57 10q18 -8 39 -27.5t21 -37.5q0 -11 -13 -28t-28 -26
q-177 -97 -308 -147q-48 -21 -69 0q-2 0 -2.5 6.5t5.5 18.5t21 24q131 110 277 207z" />
    <glyph glyph-name="Ocircumflex" unicode="&#xd4;" horiz-adv-x="1599" 
d="M788 1354q195 0 357.5 -87.5t258 -243.5t95.5 -347q0 -201 -83 -353t-208 -241q-88 -62 -199.5 -90.5t-203.5 -28.5q-155 0 -296.5 63t-236.5 171q-82 91 -126 210.5t-44 251.5q0 337 267 551q76 62 194.5 103t224.5 41zM743 1286q-67 0 -148.5 -32.5t-133.5 -84.5
q-160 -156 -160 -481q0 -91 25.5 -185t75 -177.5t115.5 -149.5t154 -104.5t183 -38.5q180 0 270 98q71 64 122.5 189.5t51.5 293.5q0 167 -66.5 318.5t-180.5 243.5q-61 50 -148 80t-160 30zM815 1686q20 0 76 -46q120 -103 168 -143q27 -19 24 -39q-1 -14 -20 -14
q-20 0 -57 16q-62 29 -183 88q-14 7 -32 -2q-105 -47 -177 -84q-2 0 -24 -9t-31 -9q-45 0 -15 35q8 8 19 18q19 16 83.5 72t92.5 78q49 39 76 39z" />
    <glyph glyph-name="Otilde" unicode="&#xd5;" horiz-adv-x="1599" 
d="M788 1354q195 0 357.5 -87.5t258 -243.5t95.5 -347q0 -201 -83 -353t-208 -241q-88 -62 -199.5 -90.5t-203.5 -28.5q-155 0 -296.5 63t-236.5 171q-82 91 -126 210.5t-44 251.5q0 337 267 551q76 62 194.5 103t224.5 41zM743 1286q-67 0 -148.5 -32.5t-133.5 -84.5
q-160 -156 -160 -481q0 -91 25.5 -185t75 -177.5t115.5 -149.5t154 -104.5t183 -38.5q180 0 270 98q71 64 122.5 189.5t51.5 293.5q0 167 -66.5 318.5t-180.5 243.5q-61 50 -148 80t-160 30zM547 1520q30 49 67 96q15 18 52 18q254 0 288 8q11 3 20.5 9t17.5 14.5t12.5 14
t9.5 14.5l6 10q1 1 5 5.5t6.5 6.5t6.5 2q7 0 17 -10t14 -18q8 -17 -6 -31q-12 -13 -54 -66.5t-51 -62.5q-12 -12 -28 -12q-280 0 -299 -5q-22 -6 -58 -55q-8 -14 -18 -14q-13 0 -22 10t-9 16q0 10 23 50z" />
    <glyph glyph-name="Odieresis" unicode="&#xd6;" horiz-adv-x="1599" 
d="M788 1354q195 0 357.5 -87.5t258 -243.5t95.5 -347q0 -201 -83 -353t-208 -241q-88 -62 -199.5 -90.5t-203.5 -28.5q-155 0 -296.5 63t-236.5 171q-82 91 -126 210.5t-44 251.5q0 337 267 551q76 62 194.5 103t224.5 41zM743 1286q-67 0 -148.5 -32.5t-133.5 -84.5
q-160 -156 -160 -481q0 -91 25.5 -185t75 -177.5t115.5 -149.5t154 -104.5t183 -38.5q180 0 270 98q71 64 122.5 189.5t51.5 293.5q0 167 -66.5 318.5t-180.5 243.5q-61 50 -148 80t-160 30zM602 1638q36 0 63 -29.5t27 -68.5q0 -43 -28.5 -66.5t-69.5 -23.5q-31 0 -57.5 25
t-26.5 69q0 38 26.5 66t65.5 28zM1014 1636q35 0 60.5 -29.5t25.5 -66.5t-27.5 -63.5t-64.5 -26.5q-34 0 -61 25.5t-27 64.5q0 42 27.5 69t66.5 27z" />
    <glyph glyph-name="multiply" unicode="&#xd7;" horiz-adv-x="1277" 
d="M190 874q-14 12 46 72q13 15 24 16t33 -18l330 -332q13 -12 19 -12t17 10l336 346q21 24 37 5q18 -17 28.5 -34t11 -26.5t-2.5 -15.5l-340 -348q-7 -8 -5 -21t9 -20l342 -340q30 -32 -33 -95q-18 -18 -41 5l-350 352q-17 15 -25 15t-22 -15l-321 -326
q-20 -19 -30.5 -20.5t-23.5 10.5q-15 14 -26 40.5t-4 35.5l336 338q7 7 7.5 16.5t-7.5 17.5z" />
    <glyph glyph-name="Oslash" unicode="&#xd8;" horiz-adv-x="1599" 
d="M788 1354q104 0 213.5 -32.5t190.5 -84.5q8 -4 20 8q11 13 31.5 40t28.5 36q22 29 33 29q8 0 18 -7.5t16 -17.5q4 -3 4.5 -11t-2.5 -11q-30 -43 -77 -105q-6 -6 0 -12q112 -95 173.5 -231t61.5 -281q0 -199 -84 -351t-211 -241q-171 -119 -403 -119q-207 0 -377 109
q-19 6 -25 -2q-90 -110 -100 -123q-4 -8 -23 -6.5t-28 10.5q-9 7 -11 21t3 18q16 22 46 61t50 66q6 10 -4 20q-108 98 -169 231.5t-61 288.5q0 339 263 547q76 63 197.5 106.5t225.5 43.5zM737 1282q-67 0 -143.5 -30.5t-128.5 -82.5q-160 -150 -160 -479q0 -233 137 -424
q6 -10 15 2q140 182 657 848q6 11 0 17q-160 149 -377 149zM846 31q63 0 139.5 22.5t132.5 71.5q72 67 126 195.5t54 295.5q0 108 -36 227.5t-93 209.5q-2 3 -7.5 4.5t-8.5 -2.5q-270 -366 -651 -848q-3 -3 -3 -9.5t3 -9.5q65 -66 162.5 -111.5t181.5 -45.5z" />
    <glyph glyph-name="Ugrave" unicode="&#xd9;" horiz-adv-x="1560" 
d="M76 1298q0 25 59 25q44 0 109 -3t102 -3q42 0 111 2t88 2q63 0 63 -23q0 -25 -61 -38q-60 -11 -88 -35t-37 -82q-8 -54 -8 -572q0 -158 29 -242.5t85 -148.5q42 -47 129.5 -79.5t167.5 -32.5q43 0 86 8t91 28.5t87.5 51.5t71.5 82t47 116q45 196 45 514q0 165 -8 265
q-5 62 -29 88t-106 45q-15 3 -29 15t-14 22q0 20 47 20q24 0 81.5 -3t92.5 -3q45 0 102.5 2t82.5 2q51 0 51 -23q0 -20 -45 -36q-70 -20 -100 -58.5t-33 -130.5q-1 -49 -9 -215t-10 -207q-14 -483 -256 -618q-117 -66 -295 -66q-123 0 -223 38.5t-147 82.5
q-89 84 -126.5 217t-37.5 385q0 364 -9 486q-7 67 -110 88q-47 11 -47 34zM608 1692q12 0 63 -37q3 -3 5 -4.5t5.5 -4t6.5 -4.5q63 -45 215 -167q28 -28 21 -43q-10 -10 -29.5 -9.5t-38.5 9.5q-53 24 -158.5 77.5t-128.5 67.5q-39 22 -39 43t37 47q25 25 41 25z" />
    <glyph glyph-name="Uacute" unicode="&#xda;" horiz-adv-x="1560" 
d="M76 1298q0 25 59 25q44 0 109 -3t102 -3q42 0 111 2t88 2q63 0 63 -23q0 -25 -61 -38q-60 -11 -88 -35t-37 -82q-8 -54 -8 -572q0 -158 29 -242.5t85 -148.5q42 -47 129.5 -79.5t167.5 -32.5q43 0 86 8t91 28.5t87.5 51.5t71.5 82t47 116q45 196 45 514q0 165 -8 265
q-5 62 -29 88t-106 45q-15 3 -29 15t-14 22q0 20 47 20q24 0 81.5 -3t92.5 -3q45 0 102.5 2t82.5 2q51 0 51 -23q0 -20 -45 -36q-70 -20 -100 -58.5t-33 -130.5q-1 -49 -9 -215t-10 -207q-14 -483 -256 -618q-117 -66 -295 -66q-123 0 -223 38.5t-147 82.5
q-89 84 -126.5 217t-37.5 385q0 364 -9 486q-7 67 -110 88q-47 11 -47 34zM1020 1673q31 21 57 10q18 -8 39 -27.5t21 -37.5q0 -10 -13 -27t-28 -26q-183 -100 -308 -148q-48 -21 -69 0q-2 0 -2.5 6.5t5.5 18.5t21 24q131 110 277 207z" />
    <glyph glyph-name="Ucircumflex" unicode="&#xdb;" horiz-adv-x="1560" 
d="M76 1298q0 25 59 25q44 0 109 -3t102 -3q42 0 111 2t88 2q63 0 63 -23q0 -25 -61 -38q-60 -11 -88 -35t-37 -82q-8 -54 -8 -572q0 -158 29 -242.5t85 -148.5q42 -47 129.5 -79.5t167.5 -32.5q43 0 86 8t91 28.5t87.5 51.5t71.5 82t47 116q45 196 45 514q0 165 -8 265
q-5 62 -29 88t-106 45q-15 3 -29 15t-14 22q0 20 47 20q24 0 81.5 -3t92.5 -3q45 0 102.5 2t82.5 2q51 0 51 -23q0 -20 -45 -36q-70 -20 -100 -58.5t-33 -130.5q-1 -49 -9 -215t-10 -207q-14 -483 -256 -618q-117 -66 -295 -66q-123 0 -223 38.5t-147 82.5
q-89 84 -126.5 217t-37.5 385q0 364 -9 486q-7 67 -110 88q-47 11 -47 34zM829 1671q21 0 76 -45q120 -103 168 -143q27 -19 24 -39q-1 -14 -20 -14q-20 0 -57 16q-47 22 -182 88q-14 7 -33 -2q-96 -43 -176 -84q-1 0 -23.5 -9t-32.5 -9q-49 0 -9 40l14 13q19 15 83.5 70.5
t92.5 78.5q49 39 75 39z" />
    <glyph glyph-name="Udieresis" unicode="&#xdc;" horiz-adv-x="1560" 
d="M76 1298q0 25 59 25q44 0 109 -3t102 -3q42 0 111 2t88 2q63 0 63 -23q0 -25 -61 -38q-60 -11 -88 -35t-37 -82q-8 -54 -8 -572q0 -158 29 -242.5t85 -148.5q42 -47 129.5 -79.5t167.5 -32.5q43 0 86 8t91 28.5t87.5 51.5t71.5 82t47 116q45 196 45 514q0 165 -8 265
q-5 62 -29 88t-106 45q-15 3 -29 15t-14 22q0 20 47 20q24 0 81.5 -3t92.5 -3q45 0 102.5 2t82.5 2q51 0 51 -23q0 -20 -45 -36q-70 -20 -100 -58.5t-33 -130.5q-1 -49 -9 -215t-10 -207q-14 -483 -256 -618q-117 -66 -295 -66q-123 0 -223 38.5t-147 82.5
q-89 84 -126.5 217t-37.5 385q0 364 -9 486q-7 67 -110 88q-47 11 -47 34zM629 1616q36 0 63 -29.5t27 -68.5q0 -43 -28.5 -67t-69.5 -24q-31 0 -57.5 25.5t-26.5 69.5q0 38 26.5 66t65.5 28zM1040 1614q35 0 60.5 -29.5t25.5 -66.5t-27.5 -64t-64.5 -27q-34 0 -61 25.5
t-27 65.5q0 42 27.5 69t66.5 27z" />
    <glyph glyph-name="Yacute" unicode="&#xdd;" horiz-adv-x="1273" 
d="M6 1305q0 22 55 22q7 0 92.5 -5t141.5 -5q25 0 68.5 2t87.5 2q45 0 45 -23q0 -26 -45 -38q-51 -11 -54 -33.5t23 -61.5q44 -83 268 -448q3 -5 10.5 -3.5t10.5 7.5q62 88 264 422q30 56 16 79.5t-76 37.5q-22 6 -32.5 17t-10.5 23q0 19 48 19q27 0 68.5 -1t64.5 -1
q43 0 129.5 4t97.5 4q18 0 30.5 -5.5t12.5 -14.5q0 -22 -53 -37q-69 -18 -119.5 -55.5t-104.5 -104.5q-57 -71 -158 -226.5t-114 -174.5q-18 -26 -34.5 -65.5t-16.5 -59.5q0 -336 12 -435q6 -34 35 -54.5t111 -41.5q55 -13 55 -37q0 -22 -62 -22q-14 0 -83 4t-95 4
q-73 0 -177.5 -6t-108.5 -6q-52 0 -52 22q0 26 58 37q128 29 133 98q6 84 6 424q0 26 -18 74q-52 111 -261 430q-75 112 -110.5 145t-100.5 48q-28 6 -42.5 17t-14.5 22zM887 1669q31 21 57 10q18 -8 39 -27.5t21 -37.5q0 -10 -13 -27t-28 -26q-183 -100 -308 -148
q-48 -21 -69 0q-2 0 -2.5 6.5t5.5 18.5t21 24q131 110 277 207z" />
    <glyph glyph-name="Thorn" unicode="&#xde;" horiz-adv-x="1124" 
d="M252 285q8 112 8 809q0 26 -0.5 45t-4 34.5t-5 25.5t-9 19t-11.5 13.5t-16.5 9.5t-18.5 7t-24 7.5t-28 8.5q-41 12 -41 32q0 11 15 18t35 7q28 0 98.5 -2t95.5 -2q21 0 94.5 2t110.5 2q51 0 51 -27q0 -21 -53 -34q-29 -7 -38 -9t-27 -9t-22 -10.5t-13.5 -16t-10 -21.5
t-3.5 -31.5t-3 -42.5v-57q0 -7 5 -13t9 -6t66 3.5t104 3.5q63 0 122 -11.5t115 -39.5t97.5 -69t66.5 -104t25 -141q0 -178 -125 -283.5t-307 -105.5q-99 0 -161 22q-17 3 -17 -10q0 -93 6.5 -139.5t16.5 -60.5t32 -23q55 -20 105 -29q15 -2 31 -11.5t16 -20.5q0 -31 -66 -31
q-17 0 -101 3t-136 3q-38 0 -111.5 -3t-101.5 -3q-47 0 -47 26q0 25 45 37q35 10 51 14.5t33.5 17.5t22.5 22t11.5 38.5t8 54.5t4.5 81zM860 670q0 86 -28 150t-75.5 98.5t-101.5 50.5t-116 16q-40 0 -66 -9.5t-31 -21.5l-3 -9l-3.5 -10.5t-2.5 -16.5t-1 -31v-465
q0 -10 7.5 -21.5t13.5 -13.5q58 -16 108 -16q72 0 139 33t113.5 103t46.5 163z" />
    <glyph glyph-name="germandbls" unicode="&#xdf;" horiz-adv-x="1028" 
d="M645 1462q61 0 111.5 -19.5t83 -50.5t55 -70t32 -77t9.5 -74q0 -21 -1.5 -39.5t-5.5 -34.5t-6.5 -28t-10 -25.5t-11 -20.5t-13.5 -19.5t-13 -16t-15 -16.5t-14 -15q-11 -13 -31 -31.5t-53 -48t-47 -42.5q-2 -2 -14.5 -14t-16 -15t-13.5 -13.5t-13 -15t-9.5 -14.5t-9 -17
t-4.5 -16.5t-2 -19.5q0 -23 15.5 -44.5t35.5 -33.5q20 -14 86 -63.5t90 -69.5q28 -24 41.5 -37.5t31 -39t25 -56.5t7.5 -72q0 -93 -63 -169.5t-157 -117.5q-71 -31 -127 -31q-21 0 -43.5 5t-46.5 26t-24 55q0 16 11.5 42t21.5 36q8 5 19 8.5t22 -0.5q31 -25 76.5 -43
t70.5 -18q66 0 98.5 33t32.5 82q0 37 -12.5 67t-44.5 59.5t-61 50t-86 57.5q-17 11 -25 16q-127 79 -127 200q0 48 39 92q74 74 127 123q85 78 117 147t32 152q0 78 -58 147.5t-163 69.5t-152.5 -59.5t-76.5 -189.5q-25 -115 -25 -594q0 -305 10 -418q3 -29 17.5 -44
t46.5 -24q49 -17 49 -33q0 -24 -57 -24q-9 0 -56 2t-88 2q-24 0 -84 -4t-74 -4q-51 0 -51 20q0 21 53 35q30 9 47 22.5t22 24t9 27.5q9 46 9 350q0 60 -1.5 125.5t-1.5 69.5q0 14 -9 23t-19 11q-1 0 -68 11q-8 2 -8.5 19.5t6.5 25.5q3 3 76 53q25 21 25 41q0 123 36 252.5
t121 222.5q128 137 295 137z" />
    <glyph glyph-name="agrave" unicode="&#xe0;" horiz-adv-x="813" 
d="M274 1335q23 0 54 -71q24 -49 64.5 -144.5t60.5 -154.5q6 -13 4 -32.5t-13 -19.5q-23 0 -47 33q-46 59 -108.5 156t-81.5 131q-19 32 -19 55q0 8 9.5 18.5t23.5 16.5q24 12 53 12zM426 827q118 0 184 -96q23 -32 32 -69t9 -101q0 -47 -4 -201.5t-4 -158.5q0 -33 10 -55.5
t25.5 -31.5t26.5 -12.5t20 -3.5q8 0 35.5 10t42.5 21q6 4 12 -6q6 -6 6 -21q0 -33 -60 -80t-124 -47q-40 0 -77 25t-54 78q0 2 -4.5 5.5t-7.5 2.5q-49 -34 -104.5 -60t-80.5 -34q-35 -12 -82 -12q-55 0 -98 57t-43 133q0 55 39 104q5 7 11.5 12.5t11.5 9.5t14.5 9t13.5 7
t16 7.5t15 6.5q18 7 123 37.5t116 33.5q60 18 60 37q4 36 4 168q0 45 -45.5 91t-114.5 46q-53 0 -84 -22q-21 -11 -14 -84q0 -11 -12 -23q-15 -12 -70.5 -39.5t-63.5 -27.5q-9 0 -16.5 9t-7.5 17q0 80 154 181q43 31 101 54t89 23zM365 86q42 0 110 35q8 5 16.5 25.5
t8.5 25.5q4 49 4 160q0 5 -5.5 10.5t-11.5 5.5q-40 0 -102.5 -19t-108.5 -42q-13 -9 -20 -16t-13.5 -23t-6.5 -39q0 -60 43.5 -91.5t85.5 -31.5z" />
    <glyph glyph-name="aacute" unicode="&#xe1;" horiz-adv-x="813" 
d="M481 1280q10 20 24.5 31.5t24.5 11.5q64 0 78 -16q4 -7 1 -23.5t-11 -32.5q-30 -57 -87.5 -152.5t-94.5 -150.5q-10 -15 -25.5 -27t-28.5 -12q-12 0 -13 20.5t5 35.5q46 137 127 315zM426 827q118 0 184 -96q23 -32 32 -69t9 -101q0 -47 -4 -201.5t-4 -158.5
q0 -33 10 -55.5t25.5 -31.5t26.5 -12.5t20 -3.5q8 0 35.5 10t42.5 21q6 4 12 -6q6 -6 6 -21q0 -33 -60 -80t-124 -47q-40 0 -77 25t-54 78q0 2 -4.5 5.5t-7.5 2.5q-49 -34 -104.5 -60t-80.5 -34q-35 -12 -82 -12q-55 0 -98 57t-43 133q0 55 39 104q5 7 11.5 12.5t11.5 9.5
t14.5 9t13.5 7t16 7.5t15 6.5q18 7 123 37.5t116 33.5q60 18 60 37q4 36 4 168q0 45 -45.5 91t-114.5 46q-53 0 -84 -22q-21 -11 -14 -84q0 -11 -12 -23q-15 -12 -70.5 -39.5t-63.5 -27.5q-9 0 -16.5 9t-7.5 17q0 80 154 181q43 31 101 54t89 23zM365 86q42 0 110 35
q8 5 16.5 25.5t8.5 25.5q4 49 4 160q0 5 -5.5 10.5t-11.5 5.5q-40 0 -102.5 -19t-108.5 -42q-13 -9 -20 -16t-13.5 -23t-6.5 -39q0 -60 43.5 -91.5t85.5 -31.5z" />
    <glyph glyph-name="acircumflex" unicode="&#xe2;" horiz-adv-x="813" 
d="M389 1305q17 0 57 -78q68 -121 136 -256q30 -70 -4 -70q-22 0 -50 39q-14 19 -64.5 89t-70.5 99q-2 4 -7.5 5.5t-10.5 -3.5q-82 -124 -137 -194q-21 -31 -43 -31q-9 0 -13 15t2 32q28 67 148 285q38 68 57 68zM426 827q118 0 184 -96q23 -32 32 -69t9 -101
q0 -47 -4 -201.5t-4 -158.5q0 -33 10 -55.5t25.5 -31.5t26.5 -12.5t20 -3.5q8 0 35.5 10t42.5 21q6 4 12 -6q6 -6 6 -21q0 -33 -60 -80t-124 -47q-40 0 -77 25t-54 78q0 2 -4.5 5.5t-7.5 2.5q-49 -34 -104.5 -60t-80.5 -34q-35 -12 -82 -12q-55 0 -98 57t-43 133
q0 55 39 104q5 7 11.5 12.5t11.5 9.5t14.5 9t13.5 7t16 7.5t15 6.5q18 7 123 37.5t116 33.5q60 18 60 37q4 36 4 168q0 45 -45.5 91t-114.5 46q-53 0 -84 -22q-21 -11 -14 -84q0 -11 -12 -23q-15 -12 -70.5 -39.5t-63.5 -27.5q-9 0 -16.5 9t-7.5 17q0 80 154 181
q43 31 101 54t89 23zM365 86q42 0 110 35q8 5 16.5 25.5t8.5 25.5q4 49 4 160q0 5 -5.5 10.5t-11.5 5.5q-40 0 -102.5 -19t-108.5 -42q-13 -9 -20 -16t-13.5 -23t-6.5 -39q0 -60 43.5 -91.5t85.5 -31.5z" />
    <glyph glyph-name="atilde" unicode="&#xe3;" horiz-adv-x="813" 
d="M254 1049q-18 0 -61 -48q-10 -12 -21 -12q-4 0 -15.5 15t-11.5 18q0 2 16.5 25t49 56.5t65.5 53.5q15 12 31 8q18 -5 87.5 -11.5t107.5 -6.5q42 0 59 12q24 19 51 51q7 7 25 -7t18 -21q0 -9 -6 -13l-127 -127q-11 -14 -22 -14q-9 0 -104.5 10.5t-141.5 10.5zM426 827
q118 0 184 -96q23 -32 32 -69t9 -101q0 -47 -4 -201.5t-4 -158.5q0 -33 10 -55.5t25.5 -31.5t26.5 -12.5t20 -3.5q8 0 35.5 10t42.5 21q6 4 12 -6q6 -6 6 -21q0 -33 -60 -80t-124 -47q-40 0 -77 25t-54 78q0 2 -4.5 5.5t-7.5 2.5q-49 -34 -104.5 -60t-80.5 -34
q-35 -12 -82 -12q-55 0 -98 57t-43 133q0 55 39 104q5 7 11.5 12.5t11.5 9.5t14.5 9t13.5 7t16 7.5t15 6.5q18 7 123 37.5t116 33.5q60 18 60 37q4 36 4 168q0 45 -45.5 91t-114.5 46q-53 0 -84 -22q-21 -11 -14 -84q0 -11 -12 -23q-15 -12 -70.5 -39.5t-63.5 -27.5
q-9 0 -16.5 9t-7.5 17q0 80 154 181q43 31 101 54t89 23zM365 86q42 0 110 35q8 5 16.5 25.5t8.5 25.5q4 49 4 160q0 5 -5.5 10.5t-11.5 5.5q-40 0 -102.5 -19t-108.5 -42q-13 -9 -20 -16t-13.5 -23t-6.5 -39q0 -60 43.5 -91.5t85.5 -31.5z" />
    <glyph glyph-name="adieresis" unicode="&#xe4;" horiz-adv-x="813" 
d="M219 1229q36 0 60 -28.5t24 -65.5q0 -43 -26.5 -67t-61.5 -24q-31 0 -58.5 24.5t-27.5 64.5q0 38 25 67t65 29zM565 1227q35 0 61.5 -29t26.5 -63q0 -37 -27.5 -64t-64.5 -27q-35 0 -61.5 26t-26.5 63q0 42 28.5 68t63.5 26zM426 827q118 0 184 -96q23 -32 32 -69t9 -101
q0 -47 -4 -201.5t-4 -158.5q0 -33 10 -55.5t25.5 -31.5t26.5 -12.5t20 -3.5q8 0 35.5 10t42.5 21q6 4 12 -6q6 -6 6 -21q0 -33 -60 -80t-124 -47q-40 0 -77 25t-54 78q0 2 -4.5 5.5t-7.5 2.5q-49 -34 -104.5 -60t-80.5 -34q-35 -12 -82 -12q-55 0 -98 57t-43 133
q0 55 39 104q5 7 11.5 12.5t11.5 9.5t14.5 9t13.5 7t16 7.5t15 6.5q18 7 123 37.5t116 33.5q60 18 60 37q4 36 4 168q0 45 -45.5 91t-114.5 46q-53 0 -84 -22q-21 -11 -14 -84q0 -11 -12 -23q-15 -12 -70.5 -39.5t-63.5 -27.5q-9 0 -16.5 9t-7.5 17q0 80 154 181
q43 31 101 54t89 23zM365 86q42 0 110 35q8 5 16.5 25.5t8.5 25.5q4 49 4 160q0 5 -5.5 10.5t-11.5 5.5q-40 0 -102.5 -19t-108.5 -42q-13 -9 -20 -16t-13.5 -23t-6.5 -39q0 -60 43.5 -91.5t85.5 -31.5z" />
    <glyph glyph-name="aring" unicode="&#xe5;" horiz-adv-x="813" 
d="M385 1288q73 0 119.5 -49.5t46.5 -116.5q0 -68 -46.5 -118t-119.5 -50t-119.5 50t-46.5 118q0 67 46.5 116.5t119.5 49.5zM383 1227q-39 0 -64.5 -30.5t-25.5 -74.5q0 -49 26 -77.5t66 -28.5q41 0 66.5 28t25.5 82q0 40 -27.5 70.5t-66.5 30.5zM426 827q118 0 184 -96
q23 -32 32 -69t9 -101q0 -47 -4 -201.5t-4 -158.5q0 -33 10 -55.5t25.5 -31.5t26.5 -12.5t20 -3.5q8 0 35.5 10t42.5 21q6 4 12 -6q6 -6 6 -21q0 -33 -60 -80t-124 -47q-40 0 -77 25t-54 78q0 2 -4.5 5.5t-7.5 2.5q-49 -34 -104.5 -60t-80.5 -34q-35 -12 -82 -12
q-55 0 -98 57t-43 133q0 55 39 104q5 7 11.5 12.5t11.5 9.5t14.5 9t13.5 7t16 7.5t15 6.5q18 7 123 37.5t116 33.5q60 18 60 37q4 36 4 168q0 45 -45.5 91t-114.5 46q-53 0 -84 -22q-21 -11 -14 -84q0 -11 -12 -23q-15 -12 -70.5 -39.5t-63.5 -27.5q-9 0 -16.5 9t-7.5 17
q0 80 154 181q43 31 101 54t89 23zM365 86q42 0 110 35q8 5 16.5 25.5t8.5 25.5q4 49 4 160q0 5 -5.5 10.5t-11.5 5.5q-40 0 -102.5 -19t-108.5 -42q-13 -9 -20 -16t-13.5 -23t-6.5 -39q0 -60 43.5 -91.5t85.5 -31.5z" />
    <glyph glyph-name="ae" unicode="&#xe6;" horiz-adv-x="1150" 
d="M82 571q0 16 15 44t48 57q97 81 203 137q43 22 92 22q45 0 83.5 -18.5t57.5 -37.5t40 -48q8 -8 16 0q72 53 128 78.5t116 25.5q71 0 123.5 -37t75 -87t22.5 -103q0 -11 -11.5 -27t-25.5 -20q-275 -78 -393 -115q-19 -8 -19 -24q0 -140 6 -182.5t31 -73.5q48 -62 172 -62
q41 0 78.5 11.5t59 24t45.5 30t30 20.5q11 6 21 5t10 -7q0 -28 -14 -49q-44 -66 -130 -113t-182 -47q-160 0 -237 119q-13 12 -19 6q-72 -53 -142 -89t-108 -36q-65 0 -124.5 59t-59.5 148q0 61 32.5 97t98.5 59q30 10 116 41.5t124 42.5q33 10 41 18t8 25q0 33 0.5 69
t1 53.5t0 36.5t-2.5 28.5t-5.5 18t-9.5 15.5q-54 51 -136 51q-46 0 -75 -24q-19 -15 -17 -39q2 -43 -6 -51q-115 -78 -154 -78q-9 0 -16.5 8.5t-7.5 17.5zM807 748q-67 0 -129 -56q-25 -21 -25 -65v-123q0 -3 7 -6.5t10 -1.5q44 11 124 36t103 35q49 20 49 68
q0 11 -4.5 26.5t-17.5 37t-43.5 35.5t-73.5 14zM367 86q33 0 76 22t59 52q8 21 8 57v143q0 2 -3.5 5.5t-10 6t-15.5 -0.5q-135 -44 -186 -74.5t-51 -85.5t36 -90t87 -35z" />
    <glyph glyph-name="ccedilla" unicode="&#xe7;" horiz-adv-x="802" 
d="M522 827q148 0 215 -51q29 -21 29 -63q0 -19 -24.5 -46.5t-47.5 -27.5q-8 0 -17 4t-16 9t-24 18.5t-31 23.5q-52 36 -83 47t-79 11q-32 0 -71.5 -21t-61.5 -49q-86 -103 -86 -242q0 -156 89.5 -247t224.5 -91q57 0 110 21t84 49q9 8 17 4.5t8 -16.5q0 -38 -27 -62
q-82 -85 -199 -110q-15 -20 -31 -41t-25 -33t-11 -14q-5 -13 12 -25q34 -17 51.5 -27.5t39 -29t31 -42t9.5 -55.5q0 -85 -100 -167q-83 -64 -141 -64q-35 0 -50 29q-15 30 -2 61q14 20 29 17q67 -13 82 -13q35 0 54.5 23t19.5 55q0 41 -35 68.5t-80 27.5q-21 0 -35 -2
q-8 0 -19.5 12t-11.5 19q0 10 13 27q46 62 129 161h-19q-99 0 -180.5 44.5t-134.5 121.5q-61 103 -61 236q0 227 202 364q56 40 129 63t125 23z" />
    <glyph glyph-name="egrave" unicode="&#xe8;" horiz-adv-x="802" 
d="M322 1335q22 0 53 -71q24 -49 64.5 -144.5t60.5 -154.5q6 -13 4.5 -32.5t-12.5 -19.5q-24 0 -48 33q-46 59 -108.5 156t-81.5 131q-18 30 -18 55q0 8 9 18.5t23 16.5q24 12 54 12zM469 825q56 0 111 -20t92 -57q71 -68 71 -173q0 -11 -11 -22.5t-27 -11.5q-373 0 -467 2
q-4 0 -9.5 -6t-7.5 -11q-10 -27 -10 -71q0 -59 22 -124t56 -110q36 -48 97.5 -80t131.5 -32q137 0 187 73q17 25 26 25q17 0 17 -25q0 -24 -15 -49q-106 -153 -297 -153q-165 0 -266.5 113t-101.5 294q0 127 64.5 237t180.5 164q78 37 156 37zM449 772q-69 0 -124 -40
t-83 -111q-3 -7 0.5 -15t7.5 -8q90 -3 264 0q38 0 54 10.5t16 40.5q0 45 -40.5 84t-94.5 39z" />
    <glyph glyph-name="eacute" unicode="&#xe9;" horiz-adv-x="802" 
d="M516 1280q10 20 24.5 31.5t24.5 11.5q64 0 78 -16q4 -7 1 -23.5t-11 -32.5q-30 -57 -87.5 -152.5t-94.5 -150.5q-10 -15 -25.5 -27t-28.5 -12q-12 0 -13 20.5t5 35.5q46 137 127 315zM469 825q56 0 111 -20t92 -57q71 -68 71 -173q0 -11 -11 -22.5t-27 -11.5
q-373 0 -467 2q-4 0 -9.5 -6t-7.5 -11q-10 -27 -10 -71q0 -59 22 -124t56 -110q36 -48 97.5 -80t131.5 -32q137 0 187 73q17 25 26 25q17 0 17 -25q0 -24 -15 -49q-106 -153 -297 -153q-165 0 -266.5 113t-101.5 294q0 127 64.5 237t180.5 164q78 37 156 37zM449 772
q-69 0 -124 -40t-83 -111q-3 -7 0.5 -15t7.5 -8q90 -3 264 0q38 0 54 10.5t16 40.5q0 45 -40.5 84t-94.5 39z" />
    <glyph glyph-name="ecircumflex" unicode="&#xea;" horiz-adv-x="802" 
d="M432 1313q17 0 57 -78q68 -121 136 -256q30 -70 -4 -70q-22 0 -50 39q-11 15 -63 87t-72 102q-2 4 -7.5 5.5t-10.5 -3.5q-86 -130 -137 -195q-21 -31 -43 -31q-9 0 -13 15.5t2 32.5q27 63 148 284q38 68 57 68zM469 825q56 0 111 -20t92 -57q71 -68 71 -173
q0 -11 -11 -22.5t-27 -11.5q-373 0 -467 2q-4 0 -9.5 -6t-7.5 -11q-10 -27 -10 -71q0 -59 22 -124t56 -110q36 -48 97.5 -80t131.5 -32q137 0 187 73q17 25 26 25q17 0 17 -25q0 -24 -15 -49q-106 -153 -297 -153q-165 0 -266.5 113t-101.5 294q0 127 64.5 237t180.5 164
q78 37 156 37zM449 772q-69 0 -124 -40t-83 -111q-3 -7 0.5 -15t7.5 -8q90 -3 264 0q38 0 54 10.5t16 40.5q0 45 -40.5 84t-94.5 39z" />
    <glyph glyph-name="edieresis" unicode="&#xeb;" horiz-adv-x="802" 
d="M266 1229q36 0 60 -28.5t24 -65.5q0 -43 -26.5 -67t-61.5 -24q-31 0 -58.5 24.5t-27.5 64.5q0 38 25 67t65 29zM612 1227q35 0 61.5 -29t26.5 -63q0 -37 -27.5 -64t-64.5 -27q-35 0 -61.5 26t-26.5 63q0 42 28.5 68t63.5 26zM469 825q56 0 111 -20t92 -57q71 -68 71 -173
q0 -11 -11 -22.5t-27 -11.5q-373 0 -467 2q-4 0 -9.5 -6t-7.5 -11q-10 -27 -10 -71q0 -59 22 -124t56 -110q36 -48 97.5 -80t131.5 -32q137 0 187 73q17 25 26 25q17 0 17 -25q0 -24 -15 -49q-106 -153 -297 -153q-165 0 -266.5 113t-101.5 294q0 127 64.5 237t180.5 164
q78 37 156 37zM449 772q-69 0 -124 -40t-83 -111q-3 -7 0.5 -15t7.5 -8q90 -3 264 0q38 0 54 10.5t16 40.5q0 45 -40.5 84t-94.5 39z" />
    <glyph glyph-name="igrave" unicode="&#xec;" horiz-adv-x="518" 
d="M123 1335q22 0 53 -71q24 -49 64.5 -144.5t60.5 -154.5q6 -13 4.5 -32.5t-12.5 -19.5q-23 0 -47 33q-46 59 -109.5 156.5t-81.5 130.5q-18 30 -18 55q0 8 9.5 18.5t23.5 16.5q24 12 53 12zM92 735q0 10 12 19t29 12q45 9 121 38.5t82 31.5q5 0 11.5 -10t6.5 -13
q0 -7 -3 -84.5t-6 -173.5t-3 -147q0 -129 4 -273q0 -16 5 -28.5t9 -19.5t17.5 -14t18 -9t25 -8t23.5 -7q45 -14 45 -35q0 -9 -14.5 -14.5t-32.5 -5.5q-3 0 -68.5 3t-90.5 3q-38 0 -99.5 -4t-74.5 -4q-54 0 -54 22q0 19 49 33q34 9 56.5 25t25.5 32q9 44 9 211q0 307 -2 320
q-1 10 -18 25.5t-62 48.5q-21 13 -21 26z" />
    <glyph glyph-name="iacute" unicode="&#xed;" horiz-adv-x="518" 
d="M332 1280q10 20 24.5 31.5t24.5 11.5q64 0 78 -16q4 -7 1 -23.5t-11 -32.5q-74 -140 -183 -303q-26 -39 -53 -39q-12 0 -13 20.5t5 35.5q46 137 127 315zM92 735q0 10 12 19t29 12q45 9 121 38.5t82 31.5q5 0 11.5 -10t6.5 -13q0 -7 -3 -84.5t-6 -173.5t-3 -147
q0 -129 4 -273q0 -16 5 -28.5t9 -19.5t17.5 -14t18 -9t25 -8t23.5 -7q45 -14 45 -35q0 -9 -14.5 -14.5t-32.5 -5.5q-3 0 -68.5 3t-90.5 3q-38 0 -99.5 -4t-74.5 -4q-54 0 -54 22q0 19 49 33q34 9 56.5 25t25.5 32q9 44 9 211q0 307 -2 320q-1 10 -18 25.5t-62 48.5
q-21 13 -21 26z" />
    <glyph glyph-name="icircumflex" unicode="&#xee;" horiz-adv-x="518" 
d="M264 1313q18 0 58 -78q58 -104 135 -256q30 -70 -4 -70q-22 0 -50 39q-11 15 -63 87t-72 102q-2 4 -7.5 5.5t-10.5 -3.5q-86 -130 -137 -195q-21 -31 -43 -31q-9 0 -13 15.5t2 32.5q27 63 148 284q38 68 57 68zM92 735q0 10 12 19t29 12q45 9 121 38.5t82 31.5
q5 0 11.5 -10t6.5 -13q0 -7 -3 -84.5t-6 -173.5t-3 -147q0 -129 4 -273q0 -16 5 -28.5t9 -19.5t17.5 -14t18 -9t25 -8t23.5 -7q45 -14 45 -35q0 -9 -14.5 -14.5t-32.5 -5.5q-3 0 -68.5 3t-90.5 3q-38 0 -99.5 -4t-74.5 -4q-54 0 -54 22q0 19 49 33q34 9 56.5 25t25.5 32
q9 44 9 211q0 307 -2 320q-1 10 -18 25.5t-62 48.5q-21 13 -21 26z" />
    <glyph glyph-name="idieresis" unicode="&#xef;" horiz-adv-x="518" 
d="M94 1229q36 0 60 -28.5t24 -65.5q0 -43 -26.5 -67t-61.5 -24q-31 0 -58.5 24.5t-27.5 64.5q0 38 25 67t65 29zM440 1227q35 0 61.5 -29t26.5 -63q0 -37 -27.5 -64t-64.5 -27q-35 0 -61.5 26t-26.5 63q0 42 28.5 68t63.5 26zM92 735q0 10 12 19t29 12q45 9 121 38.5
t82 31.5q5 0 11.5 -10t6.5 -13q0 -7 -3 -84.5t-6 -173.5t-3 -147q0 -129 4 -273q0 -16 5 -28.5t9 -19.5t17.5 -14t18 -9t25 -8t23.5 -7q45 -14 45 -35q0 -9 -14.5 -14.5t-32.5 -5.5q-3 0 -68.5 3t-90.5 3q-38 0 -99.5 -4t-74.5 -4q-54 0 -54 22q0 19 49 33q34 9 56.5 25
t25.5 32q9 44 9 211q0 307 -2 320q-1 10 -18 25.5t-62 48.5q-21 13 -21 26z" />
    <glyph glyph-name="eth" unicode="&#xf0;" horiz-adv-x="983" 
d="M131 1434q0 11 11 19.5t28 8.5q88 0 215.5 -61.5t224.5 -143.5q4 -4 13.5 -4.5t13.5 2.5q34 17 101.5 53.5t105.5 55.5q5 3 12.5 -1.5t7.5 -12.5q3 -27 -2 -43q-6 -17 -26 -29q-140 -74 -146 -78q-13 -9 -2 -20q211 -259 211 -652q0 -332 -194 -477q-104 -76 -220 -76
q-177 0 -298 119.5t-121 306.5q0 128 71 236q57 83 163 137.5t232 54.5q28 0 76.5 -9.5t79.5 -22.5q8 -3 15 1t6 11q-32 174 -131 305q-5 6 -13 8.5t-14 -0.5q-16 -7 -72.5 -33.5t-107.5 -51t-84 -40.5q-7 -4 -16 0.5t-9 12.5q-3 20 0 34q4 10 17 19q28 16 221 115
q10 7 6 16q-74 76 -168 133t-172 78q-11 2 -23 10t-12 19zM494 760q-117 0 -181 -96q-34 -49 -52.5 -105t-18.5 -153q0 -81 32 -163.5t97.5 -142t146.5 -59.5q48 0 85 28t75 93q29 54 45 136.5t16 156.5q0 146 -57 211q-41 43 -92.5 68.5t-95.5 25.5z" />
    <glyph glyph-name="ntilde" unicode="&#xf1;" horiz-adv-x="1067" 
d="M387 1051q-19 0 -61 -47q-11 -13 -21 -13q-4 0 -15 14.5t-11 18.5q0 2 16.5 25t49 56.5t65.5 53.5q14 12 30 8q18 -5 87.5 -11.5t107.5 -6.5q42 0 59 12q24 19 51 51q7 7 25 -7t18 -21q0 -9 -6 -13q-4 -4 -32 -31.5t-61 -61t-34 -34.5q-11 -14 -22 -14q-9 0 -104.5 10.5
t-141.5 10.5zM109 729q0 10 12.5 23t23.5 18q104 36 138 59q38 23 49 23q7 0 13.5 -12t6.5 -19q0 -20 -4 -57.5t-4 -44.5q0 -3 1.5 -5t3.5 -2h5l2 1q167 112 275 112q118 0 186 -77q34 -40 53 -106.5t19 -143.5q0 -286 6 -373q7 -53 76 -72q51 -13 51 -35t-61 -22
q-22 0 -72 2t-80 2q-29 0 -80 -2t-61 -2q-16 0 -31.5 6.5t-15.5 17.5q0 20 47 35q37 13 48.5 32.5t14.5 70.5q6 102 6 374q0 51 -19.5 93.5t-41.5 58.5q-19 14 -58.5 26.5t-72.5 12.5q-109 0 -183 -66q-6 -6 -13 -21.5t-7 -27.5q0 -466 2 -491q2 -24 16 -37.5t60 -26.5
q37 -11 37 -30q0 -11 -14.5 -18t-36.5 -7q-10 0 -55.5 1t-69.5 1q-43 0 -100.5 -3t-69.5 -3q-54 0 -54 26q0 20 43 31q50 15 65.5 36.5t20.5 78.5q11 112 11 448q0 20 -9.5 37.5t-40.5 42.5q-38 25 -38 35z" />
    <glyph glyph-name="ograve" unicode="&#xf2;" horiz-adv-x="987" 
d="M377 1339q22 0 53 -71q24 -49 64.5 -144.5t60.5 -154.5q6 -13 4.5 -32t-12.5 -19q-24 0 -47 32q-46 59 -109.5 156.5t-81.5 130.5q-18 30 -18 55q0 8 9.5 18.5t23.5 16.5q24 12 53 12zM512 827q77 0 150 -29.5t131 -82t93.5 -132.5t35.5 -173q0 -117 -56 -213.5
t-123 -139.5q-114 -82 -254 -82q-69 0 -141 29t-131 78q-65 53 -108 144t-43 169q0 199 143 320q128 112 303 112zM473 766q-64 0 -133 -59q-41 -38 -70.5 -112t-29.5 -151q0 -106 24 -182q36 -109 111.5 -168t154.5 -59q58 0 125 67q38 41 65.5 122.5t27.5 148.5
q0 194 -103 313q-33 36 -82 58t-90 22z" />
    <glyph glyph-name="oacute" unicode="&#xf3;" horiz-adv-x="987" 
d="M563 1280q10 20 24.5 31.5t24.5 11.5q64 0 78 -16q4 -7 1 -23.5t-11 -32.5q-30 -57 -87.5 -152.5t-94.5 -150.5q-10 -15 -25.5 -27t-28.5 -12q-12 0 -13 20.5t5 35.5q46 137 127 315zM512 827q77 0 150 -29.5t131 -82t93.5 -132.5t35.5 -173q0 -117 -56 -213.5
t-123 -139.5q-114 -82 -254 -82q-69 0 -141 29t-131 78q-65 53 -108 144t-43 169q0 199 143 320q128 112 303 112zM473 766q-64 0 -133 -59q-41 -38 -70.5 -112t-29.5 -151q0 -106 24 -182q36 -109 111.5 -168t154.5 -59q58 0 125 67q38 41 65.5 122.5t27.5 148.5
q0 194 -103 313q-33 36 -82 58t-90 22z" />
    <glyph glyph-name="ocircumflex" unicode="&#xf4;" horiz-adv-x="987" 
d="M492 1313q17 0 57 -78q58 -104 135 -256q30 -70 -4 -70q-21 0 -49 39q-11 15 -63 87t-72 102q-2 4 -8 5.5t-11 -3.5q-86 -130 -137 -195q-21 -31 -43 -31q-9 0 -12.5 15.5t2.5 32.5q30 71 147 284q38 68 58 68zM512 827q77 0 150 -29.5t131 -82t93.5 -132.5t35.5 -173
q0 -117 -56 -213.5t-123 -139.5q-114 -82 -254 -82q-69 0 -141 29t-131 78q-65 53 -108 144t-43 169q0 199 143 320q128 112 303 112zM473 766q-64 0 -133 -59q-41 -38 -70.5 -112t-29.5 -151q0 -106 24 -182q36 -109 111.5 -168t154.5 -59q58 0 125 67q38 41 65.5 122.5
t27.5 148.5q0 194 -103 313q-33 36 -82 58t-90 22z" />
    <glyph glyph-name="otilde" unicode="&#xf5;" horiz-adv-x="987" 
d="M346 1036q-19 0 -61 -47q-10 -12 -21 -12q-4 0 -15 14.5t-11 18.5q0 2 16.5 25t49 56.5t65.5 53.5q14 12 30 8q18 -5 87.5 -11.5t107.5 -6.5q42 0 59 12q27 21 52 51q7 7 25 -7.5t18 -21.5t-7 -12l-127 -127q-11 -14 -22 -14q-9 0 -104.5 10t-141.5 10zM512 827
q77 0 150 -29.5t131 -82t93.5 -132.5t35.5 -173q0 -117 -56 -213.5t-123 -139.5q-114 -82 -254 -82q-69 0 -141 29t-131 78q-65 53 -108 144t-43 169q0 199 143 320q128 112 303 112zM473 766q-64 0 -133 -59q-41 -38 -70.5 -112t-29.5 -151q0 -106 24 -182
q36 -109 111.5 -168t154.5 -59q58 0 125 67q38 41 65.5 122.5t27.5 148.5q0 194 -103 313q-33 36 -82 58t-90 22z" />
    <glyph glyph-name="odieresis" unicode="&#xf6;" horiz-adv-x="987" 
d="M326 1229q36 0 60 -28.5t24 -65.5q0 -43 -26.5 -67t-61.5 -24q-31 0 -58.5 24.5t-27.5 64.5q0 38 25 67t65 29zM672 1227q35 0 61.5 -29t26.5 -63q0 -37 -27.5 -64t-64.5 -27q-35 0 -61.5 26t-26.5 63q0 42 28.5 68t63.5 26zM512 827q77 0 150 -29.5t131 -82t93.5 -132.5
t35.5 -173q0 -117 -56 -213.5t-123 -139.5q-114 -82 -254 -82q-69 0 -141 29t-131 78q-65 53 -108 144t-43 169q0 199 143 320q128 112 303 112zM473 766q-64 0 -133 -59q-41 -38 -70.5 -112t-29.5 -151q0 -106 24 -182q36 -109 111.5 -168t154.5 -59q58 0 125 67
q38 41 65.5 122.5t27.5 148.5q0 194 -103 313q-33 36 -82 58t-90 22z" />
    <glyph glyph-name="divide" unicode="&#xf7;" horiz-adv-x="1277" 
d="M637 285q43 0 73.5 -32t30.5 -73q0 -47 -30 -79.5t-74 -32.5q-46 0 -77.5 32.5t-31.5 79.5q0 41 32 73t77 32zM637 745q-40 0 -72.5 32.5t-32.5 74.5q0 44 32.5 77.5t72.5 33.5q46 0 77 -33t31 -78q0 -44 -31 -75.5t-77 -31.5zM1122 573q20 0 25.5 -4.5t5.5 -19.5
q0 -34 -9.5 -58t-19.5 -24h-958q-29 0 -36 5t-7 26q0 22 10 48.5t21 26.5h968z" />
    <glyph glyph-name="oslash" unicode="&#xf8;" horiz-adv-x="987" 
d="M516 827q99 0 193 -51q2 -2 8 -3t10 3l53 64q18 18 29 18q12 0 24.5 -15.5t6.5 -23.5q-12 -17 -28 -38t-30 -42q-5 -9 4 -18q136 -129 136 -326q0 -102 -57.5 -201t-121.5 -141q-108 -78 -254 -78q-98 0 -210 64q-17 8 -23 0l-70 -84q-7 -7 -18 -2q-13 9 -19.5 18.5
t-5.5 14.5t2 8q38 50 64 80q6 6 -8 20q-60 57 -97.5 134.5t-37.5 160.5q0 103 39 187t102 137q55 48 135 81t174 33zM344 127q92 -92 178 -92q41 0 72 15t65 50q38 42 65.5 126.5t27.5 154.5q0 127 -47 221q-2 5 -6.5 8t-7.5 3.5t-5 -1.5q-56 -72 -170.5 -226t-173.5 -230
q-9 -12 2 -29zM471 766q-73 0 -131 -53q-41 -38 -72.5 -114.5t-31.5 -154.5q0 -149 51 -231q2 -4 8.5 -6.5t11.5 2.5q111 143 342 459q3 2 2 6t-2 6.5t-3.5 5.5t-2.5 4q-80 76 -172 76z" />
    <glyph glyph-name="ugrave" unicode="&#xf9;" horiz-adv-x="1019" 
d="M369 1335q22 0 53 -71q24 -49 64.5 -144.5t60.5 -154.5q6 -13 4.5 -32.5t-12.5 -19.5q-23 0 -47 33q-46 59 -109.5 156.5t-81.5 130.5q-18 30 -18 55q0 8 9 18.5t23 16.5q24 12 54 12zM504 78q73 0 155 72q9 7 20 25t11 24l4 471q0 9 -13 25.5t-22 19.5q-87 22 -94 24
q-14 4 -27.5 13t-13.5 20q0 6 16 12.5t31 6.5q134 0 220 22q27 8 49 8q7 0 10.5 -10.5t3.5 -19.5q-4 -53 -12 -309.5t-8 -370.5q0 -6 7 -17.5t17 -11.5q6 0 47.5 5t55.5 5q5 0 13 -15t11 -24q0 -5 -8 -12.5t-14 -7.5q-49 -4 -187 -39q-66 -19 -71 -19q-6 0 -13.5 9.5
t-7.5 19.5q0 5 3.5 36t4.5 50q0 7 -3.5 11.5t-6.5 2.5q-129 -89 -168 -104q-62 -25 -137 -25q-117 0 -180 97q-29 48 -29 96q0 378 -4 487q0 10 -2.5 19t-5 15.5t-8.5 12.5t-9.5 9t-12 7.5t-11.5 6t-14 5.5t-13 5q-37 16 -37 37q0 6 9 12.5t26 6.5q25 0 77.5 5.5t95 11
t44.5 5.5q6 0 11 -10.5t5 -20.5q1 -40 -2.5 -278.5t-3.5 -270.5q0 -35 15 -67t37 -47q25 -19 50 -28.5t41.5 -11t47.5 -1.5z" />
    <glyph glyph-name="uacute" unicode="&#xfa;" horiz-adv-x="1019" 
d="M555 1282q10 20 24.5 31.5t24.5 11.5q64 0 78 -16q4 -7 1 -23.5t-11 -32.5q-74 -140 -183 -303q-26 -39 -53 -39q-12 0 -13 20.5t5 35.5q46 137 127 315zM504 78q73 0 155 72q9 7 20 25t11 24l4 471q0 9 -13 25.5t-22 19.5q-87 22 -94 24q-14 4 -27.5 13t-13.5 20
q0 6 16 12.5t31 6.5q134 0 220 22q27 8 49 8q7 0 10.5 -10.5t3.5 -19.5q-4 -53 -12 -309.5t-8 -370.5q0 -6 7 -17.5t17 -11.5q6 0 47.5 5t55.5 5q5 0 13 -15t11 -24q0 -5 -8 -12.5t-14 -7.5q-49 -4 -187 -39q-66 -19 -71 -19q-6 0 -13.5 9.5t-7.5 19.5q0 5 3.5 36t4.5 50
q0 7 -3.5 11.5t-6.5 2.5q-129 -89 -168 -104q-62 -25 -137 -25q-117 0 -180 97q-29 48 -29 96q0 378 -4 487q0 10 -2.5 19t-5 15.5t-8.5 12.5t-9.5 9t-12 7.5t-11.5 6t-14 5.5t-13 5q-37 16 -37 37q0 6 9 12.5t26 6.5q25 0 77.5 5.5t95 11t44.5 5.5q6 0 11 -10.5t5 -20.5
q1 -40 -2.5 -278.5t-3.5 -270.5q0 -35 15 -67t37 -47q25 -19 50 -28.5t41.5 -11t47.5 -1.5z" />
    <glyph glyph-name="ucircumflex" unicode="&#xfb;" horiz-adv-x="1019" 
d="M492 1313q17 0 57 -78q58 -104 135 -256q30 -70 -4 -70q-21 0 -49 39q-11 15 -63 87t-72 102q-2 4 -8 5.5t-11 -3.5q-86 -130 -137 -195q-21 -31 -43 -31q-9 0 -12.5 15.5t2.5 32.5q30 71 147 284q38 68 58 68zM504 78q73 0 155 72q9 7 20 25t11 24l4 471q0 9 -13 25.5
t-22 19.5q-87 22 -94 24q-14 4 -27.5 13t-13.5 20q0 6 16 12.5t31 6.5q134 0 220 22q27 8 49 8q7 0 10.5 -10.5t3.5 -19.5q-4 -53 -12 -309.5t-8 -370.5q0 -6 7 -17.5t17 -11.5q6 0 47.5 5t55.5 5q5 0 13 -15t11 -24q0 -5 -8 -12.5t-14 -7.5q-49 -4 -187 -39
q-66 -19 -71 -19q-6 0 -13.5 9.5t-7.5 19.5q0 5 3.5 36t4.5 50q0 7 -3.5 11.5t-6.5 2.5q-129 -89 -168 -104q-62 -25 -137 -25q-117 0 -180 97q-29 48 -29 96q0 378 -4 487q0 10 -2.5 19t-5 15.5t-8.5 12.5t-9.5 9t-12 7.5t-11.5 6t-14 5.5t-13 5q-37 16 -37 37q0 6 9 12.5
t26 6.5q25 0 77.5 5.5t95 11t44.5 5.5q6 0 11 -10.5t5 -20.5q1 -40 -2.5 -278.5t-3.5 -270.5q0 -35 15 -67t37 -47q25 -19 50 -28.5t41.5 -11t47.5 -1.5z" />
    <glyph glyph-name="udieresis" unicode="&#xfc;" horiz-adv-x="1019" 
d="M311 1229q36 0 60 -28.5t24 -65.5q0 -43 -26.5 -67t-61.5 -24q-31 0 -58.5 24.5t-27.5 64.5q0 38 25 67t65 29zM657 1227q35 0 61.5 -29t26.5 -63q0 -37 -27.5 -64t-64.5 -27q-35 0 -61.5 26t-26.5 63q0 42 28.5 68t63.5 26zM504 78q73 0 155 72q9 7 20 25t11 24l4 471
q0 9 -13 25.5t-22 19.5q-87 22 -94 24q-14 4 -27.5 13t-13.5 20q0 6 16 12.5t31 6.5q134 0 220 22q27 8 49 8q7 0 10.5 -10.5t3.5 -19.5q-4 -53 -12 -309.5t-8 -370.5q0 -6 7 -17.5t17 -11.5q6 0 47.5 5t55.5 5q5 0 13 -15t11 -24q0 -5 -8 -12.5t-14 -7.5q-49 -4 -187 -39
q-66 -19 -71 -19q-6 0 -13.5 9.5t-7.5 19.5q0 5 3.5 36t4.5 50q0 7 -3.5 11.5t-6.5 2.5q-129 -89 -168 -104q-62 -25 -137 -25q-117 0 -180 97q-29 48 -29 96q0 378 -4 487q0 10 -2.5 19t-5 15.5t-8.5 12.5t-9.5 9t-12 7.5t-11.5 6t-14 5.5t-13 5q-37 16 -37 37q0 6 9 12.5
t26 6.5q25 0 77.5 5.5t95 11t44.5 5.5q6 0 11 -10.5t5 -20.5q1 -40 -2.5 -278.5t-3.5 -270.5q0 -35 15 -67t37 -47q25 -19 50 -28.5t41.5 -11t47.5 -1.5z" />
    <glyph glyph-name="yacute" unicode="&#xfd;" horiz-adv-x="847" 
d="M541 1280q10 20 24.5 31.5t24.5 11.5q64 0 78 -16q10 -14 -11 -56q-30 -57 -87.5 -152.5t-94.5 -150.5q-26 -39 -53 -39q-12 0 -13 20.5t5 35.5q46 137 127 315zM-10 780q0 25 49 25q25 0 77 -4t83 -4q33 0 84 2t59 2q15 0 30 -6t15 -17q0 -24 -47 -35
q-43 -12 -50.5 -25.5t7.5 -53.5q22 -70 93.5 -246.5t84.5 -196.5q1 -2 4 -2.5t6.5 2t6.5 8.5q18 39 85.5 215t75.5 203q14 44 -2.5 66t-75.5 35q-18 4 -30.5 13t-12.5 15q0 25 52 25q21 0 65 -2t56 -2q11 0 55 4t74 4q40 0 40 -19q0 -20 -45 -34q-33 -11 -55 -34t-45 -73
q-92 -209 -225 -545q-40 -104 -113.5 -303t-99.5 -268q-7 -22 -36 -39.5t-71 -17.5q-48 0 -70 30.5t-22 69.5q0 30 25.5 60t64.5 30q4 0 33.5 -1t40.5 -1q8 0 14.5 5.5t8.5 10.5t8 19q13 24 50 124t48 140q1 3 4 16.5t3.5 17.5t1.5 13.5t0 15.5t-3 11q-9 22 -31 84
q-33 92 -110 275t-123 278q-11 23 -18 33.5t-26 23t-52 23.5q-41 14 -41 30z" />
    <glyph glyph-name="thorn" unicode="&#xfe;" horiz-adv-x="978" 
d="M145 154v421q0 482 -8 682q0 31 -10 41q-13 10 -28 20.5t-24 16.5t-17 11.5t-11.5 10t-3.5 7.5q0 6 16 18.5t23 14.5q10 3 43.5 11.5t65 17.5t47.5 18q36 18 43 18q6 0 15 -8.5t9 -15.5q-3 -20 -4.5 -145t-2 -307t-1.5 -234q0 -6 6 -10t10 -1q55 32 133 60q58 20 142 20
q57 0 120.5 -30.5t108.5 -81.5q41 -46 69.5 -118t28.5 -151q0 -89 -43 -187t-133 -165q-131 -102 -315 -102q-72 0 -109 6q-5 0 -12.5 -10t-7.5 -17q0 -283 6 -340q5 -42 23.5 -64t72.5 -40q60 -15 60 -35q0 -11 -17 -19t-37 -8q-18 0 -109 5.5t-134 5.5q-23 0 -61.5 -2.5
t-71.5 -2.5q-60 0 -60 29q0 7 13.5 17t35.5 14q31 8 47.5 12.5t32 15t21 19t11.5 31t7.5 43t3.5 63.5q6 102 6 445zM483 723q-118 0 -157 -27q-20 -16 -25 -61q-7 -44 -9 -177t3 -196q7 -64 24 -90q38 -54 99 -87.5t104 -33.5q54 0 92 35q69 57 103.5 148t34.5 151
q0 156 -84 248q-38 39 -93.5 64.5t-91.5 25.5z" />
    <glyph glyph-name="ydieresis" unicode="&#xff;" horiz-adv-x="847" 
d="M281 1229q36 0 60 -28.5t24 -65.5q0 -43 -27 -67t-62 -24q-31 0 -58.5 24.5t-27.5 64.5q0 38 25.5 67t65.5 29zM627 1227q35 0 61.5 -29t26.5 -63q0 -37 -27.5 -64t-64.5 -27q-35 0 -61.5 26t-26.5 63q0 42 28.5 68t63.5 26zM-10 780q0 25 49 25q25 0 77 -4t83 -4
q33 0 84 2t59 2q15 0 30 -6t15 -17q0 -24 -47 -35q-43 -12 -50.5 -25.5t7.5 -53.5q22 -70 93.5 -246.5t84.5 -196.5q1 -2 4 -2.5t6.5 2t6.5 8.5q18 39 85.5 215t75.5 203q14 44 -2.5 66t-75.5 35q-18 4 -30.5 13t-12.5 15q0 25 52 25q21 0 65 -2t56 -2q11 0 55 4t74 4
q40 0 40 -19q0 -20 -45 -34q-33 -11 -55 -34t-45 -73q-92 -209 -225 -545q-40 -104 -113.5 -303t-99.5 -268q-7 -22 -36 -39.5t-71 -17.5q-48 0 -70 30.5t-22 69.5q0 30 25.5 60t64.5 30q4 0 33.5 -1t40.5 -1q8 0 14.5 5.5t8.5 10.5t8 19q13 24 50 124t48 140q1 3 4 16.5
t3.5 17.5t1.5 13.5t0 15.5t-3 11q-9 22 -31 84q-33 92 -110 275t-123 278q-11 23 -18 33.5t-26 23t-52 23.5q-41 14 -41 30z" />
    <glyph glyph-name="Amacron" unicode="&#x100;" horiz-adv-x="1384" 
d="M723 1354q14 0 33 -54q12 -40 90 -253q73 -207 169 -462t126 -327q26 -63 45 -99.5t42.5 -58.5t44 -30.5t60.5 -18.5q49 -15 49 -35q0 -26 -65 -26q-31 0 -120.5 5t-137.5 5q-35 0 -78.5 -2t-67.5 -2q-63 0 -63 24q0 9 12 19t37 14q46 9 66.5 26.5t19.5 36.5t-4 42
q-5 24 -13 53.5t-22 71t-23 67.5t-29.5 82t-27.5 76q-5 20 -69 20q-279 0 -336 -8q-12 0 -23 -16q-41 -102 -73.5 -212t-32.5 -147q0 -16 5 -28t28.5 -29.5t66.5 -30.5q55 -16 55 -37q0 -26 -57 -26q-12 0 -65.5 3t-96.5 3q-44 0 -123.5 -5t-89.5 -5q-47 0 -47 20
q0 10 11.5 22t33.5 19q36 12 46.5 16t34 15t31.5 19.5t23.5 26.5t27 40.5t26.5 56.5q25 56 177.5 451t192.5 493q13 26 13 43q0 11 4 17q1 1 61 100q22 25 33 25zM815 621q2 0 4.5 6t1.5 10q-135 402 -159 440q-9 18 -17 0q-141 -374 -160 -448q-2 -6 1.5 -10.5t9.5 -4.5
q27 1 99 1.5t131 1.5t89 4zM500 1569l440 12q6 0 13.5 -15t7.5 -30q0 -29 -13.5 -52.5t-25.5 -23.5l-435 -4q-18 0 -18 33q0 18 12 49t19 31z" />
    <glyph glyph-name="amacron" unicode="&#x101;" horiz-adv-x="813" 
d="M186 1174l428 8q6 0 12.5 -13t6.5 -20q0 -34 -12 -60t-31 -26h-418q-5 0 -10.5 6t-5.5 18q0 31 9.5 59t20.5 28zM426 827q118 0 184 -96q23 -32 32 -69t9 -101q0 -47 -4 -201.5t-4 -158.5q0 -33 10 -55.5t25.5 -31.5t26.5 -12.5t20 -3.5q8 0 35.5 10t42.5 21q6 4 12 -6
q6 -6 6 -21q0 -33 -60 -80t-124 -47q-40 0 -77 25t-54 78q0 2 -4.5 5.5t-7.5 2.5q-49 -34 -104.5 -60t-80.5 -34q-35 -12 -82 -12q-55 0 -98 57t-43 133q0 55 39 104q5 7 11.5 12.5t11.5 9.5t14.5 9t13.5 7t16 7.5t15 6.5q18 7 123 37.5t116 33.5q60 18 60 37q4 36 4 168
q0 45 -45.5 91t-114.5 46q-53 0 -84 -22q-21 -11 -14 -84q0 -11 -12 -23q-15 -12 -70.5 -39.5t-63.5 -27.5q-9 0 -16.5 9t-7.5 17q0 80 154 181q43 31 101 54t89 23zM365 86q42 0 110 35q8 5 16.5 25.5t8.5 25.5q4 49 4 160q0 5 -5.5 10.5t-11.5 5.5q-40 0 -102.5 -19
t-108.5 -42q-13 -9 -20 -16t-13.5 -23t-6.5 -39q0 -60 43.5 -91.5t85.5 -31.5z" />
    <glyph glyph-name="Abreve" unicode="&#x102;" horiz-adv-x="1384" 
d="M723 1354q14 0 33 -54q12 -40 90 -253q73 -207 169 -462t126 -327q26 -63 45 -99.5t42.5 -58.5t44 -30.5t60.5 -18.5q49 -15 49 -35q0 -26 -65 -26q-31 0 -120.5 5t-137.5 5q-35 0 -78.5 -2t-67.5 -2q-63 0 -63 24q0 9 12 19t37 14q46 9 66.5 26.5t19.5 36.5t-4 42
q-5 24 -13 53.5t-22 71t-23 67.5t-29.5 82t-27.5 76q-5 20 -69 20q-279 0 -336 -8q-12 0 -23 -16q-41 -102 -73.5 -212t-32.5 -147q0 -16 5 -28t28.5 -29.5t66.5 -30.5q55 -16 55 -37q0 -26 -57 -26q-12 0 -65.5 3t-96.5 3q-44 0 -123.5 -5t-89.5 -5q-47 0 -47 20
q0 10 11.5 22t33.5 19q36 12 46.5 16t34 15t31.5 19.5t23.5 26.5t27 40.5t26.5 56.5q25 56 177.5 451t192.5 493q13 26 13 43q0 11 4 17q1 1 61 100q22 25 33 25zM815 621q2 0 4.5 6t1.5 10q-135 402 -159 440q-9 18 -17 0q-141 -374 -160 -448q-2 -6 1.5 -10.5t9.5 -4.5
q27 1 99 1.5t131 1.5t89 4zM700 1419q-92 0 -158.5 54t-78.5 139q-2 13 4 27t18 14q10 0 31 -25q77 -92 197 -92q61 0 109 17t91 69q23 27 39 27q20 0 13 -31q-6 -31 -23 -63t-46.5 -64t-80.5 -52t-115 -20z" />
    <glyph glyph-name="abreve" unicode="&#x103;" horiz-adv-x="813" 
d="M379 973q-75 0 -133 51t-68 164q-3 30 8.5 43.5t22.5 13.5q9 0 17.5 -12.5t13.5 -28.5q35 -121 153 -121q122 0 166 125q4 14 18.5 24.5t26.5 10.5q10 0 10 -49q-4 -37 -19 -73t-41.5 -70.5t-72 -56t-102.5 -21.5zM426 827q118 0 184 -96q23 -32 32 -69t9 -101
q0 -47 -4 -201.5t-4 -158.5q0 -33 10 -55.5t25.5 -31.5t26.5 -12.5t20 -3.5q8 0 35.5 10t42.5 21q6 4 12 -6q6 -6 6 -21q0 -33 -60 -80t-124 -47q-40 0 -77 25t-54 78q0 2 -4.5 5.5t-7.5 2.5q-49 -34 -104.5 -60t-80.5 -34q-35 -12 -82 -12q-55 0 -98 57t-43 133
q0 55 39 104q5 7 11.5 12.5t11.5 9.5t14.5 9t13.5 7t16 7.5t15 6.5q18 7 123 37.5t116 33.5q60 18 60 37q4 36 4 168q0 45 -45.5 91t-114.5 46q-53 0 -84 -22q-21 -11 -14 -84q0 -11 -12 -23q-15 -12 -70.5 -39.5t-63.5 -27.5q-9 0 -16.5 9t-7.5 17q0 80 154 181
q43 31 101 54t89 23zM365 86q42 0 110 35q8 5 16.5 25.5t8.5 25.5q4 49 4 160q0 5 -5.5 10.5t-11.5 5.5q-40 0 -102.5 -19t-108.5 -42q-13 -9 -20 -16t-13.5 -23t-6.5 -39q0 -60 43.5 -91.5t85.5 -31.5z" />
    <glyph glyph-name="Aogonek" unicode="&#x104;" horiz-adv-x="1384" 
d="M723 1354q14 0 33 -54q12 -40 90 -253q73 -207 169 -462t126 -327q34 -84 61 -125.5t53.5 -57t77.5 -28.5q49 -12 49 -35q0 -26 -65 -26q-31 0 -125 8q-86 -79 -132 -161.5t-46 -141.5q0 -45 32 -74t74 -29q63 0 123 31q8 5 14.5 -0.5t6.5 -15.5t-5.5 -24.5t-9.5 -18.5
q-25 -41 -77.5 -71t-124.5 -30q-88 0 -137.5 53t-49.5 132q0 81 76.5 179.5t193.5 174.5q-25 2 -71 2q-35 0 -78.5 -2t-67.5 -2q-63 0 -63 24q0 9 12 19t37 14q46 9 66.5 26.5t19.5 36.5t-4 42q-5 24 -13 53.5t-22 71t-23 67.5t-29.5 82t-27.5 76q-5 20 -82 20
q-264 0 -321 -8q-12 0 -27 -22q-41 -102 -72.5 -208.5t-31.5 -144.5q0 -16 5 -28.5t28.5 -30.5t66.5 -31q55 -16 55 -37q0 -26 -57 -26q-12 0 -65.5 4t-96.5 4q-44 0 -123.5 -6t-89.5 -6q-47 0 -47 20q0 26 45 41q47 16 65.5 24t43.5 27t41.5 47t38.5 78q25 56 177.5 451
t192.5 493q13 26 13 43q0 11 4 17q1 1 61 100q22 25 33 25zM809 621q2 0 7.5 6t4.5 10q-135 402 -159 440q-9 18 -17 0q-138 -366 -158 -444q0 -19 17 -19q26 1 94.5 1.5t124 1.5t86.5 4z" />
    <glyph glyph-name="aogonek" unicode="&#x105;" horiz-adv-x="813" 
d="M438 827q124 0 187 -92q45 -62 45 -172q0 -47 -4 -201.5t-4 -158.5q0 -58 24.5 -81.5t54.5 -23.5q33 0 72 27q4 3 12 2.5t11 -4.5q4 -6 4 -21q0 -34 -78 -94q-86 -65 -132 -143t-46 -139q0 -43 27.5 -71t66.5 -28q71 0 119 41q6 6 13 4.5t7 -10.5q0 -21 -12 -45
q-26 -43 -77 -78t-120 -35q-80 0 -125 51t-45 126q0 134 211 294q-38 2 -71.5 25t-51.5 68q-6 14 -10.5 16.5t-13.5 -4.5q-68 -39 -172 -84q-48 -21 -84 -21q-55 0 -104.5 63t-49.5 138q0 66 27 105q22 26 86 49q17 8 128 34.5t126 30.5q36 11 48.5 19.5t14.5 19.5
q2 18 2 174q0 44 -41.5 84.5t-111.5 40.5q-63 0 -101 -22q-8 -5 -8 -74q0 -6 -8 -14q-4 -6 -69.5 -37t-71.5 -31q-9 0 -20 11.5t-11 19.5q0 39 44 81t126 95q44 30 96.5 47.5t89.5 17.5zM358 88q66 0 129 39q24 17 27 51q4 51 4 154q0 5 -6 9t-14 3q-31 -2 -181 -39
q-41 -12 -57 -35t-16 -63q0 -49 38.5 -84t75.5 -35z" />
    <glyph glyph-name="Cacute" unicode="&#x106;" horiz-adv-x="1468" 
d="M883 1354q98 0 241 -33q29 -4 85.5 -20.5t70.5 -18.5q6 0 12.5 -5t12.5 -19.5t6 -36.5q0 -21 14 -179q1 -30 -8.5 -48.5t-22.5 -18.5q-15 0 -32 53q-13 51 -37.5 94.5t-46.5 59.5q-80 59 -158.5 82.5t-169.5 23.5q-120 0 -223 -47.5t-172 -127t-107.5 -185t-38.5 -221.5
q0 -194 72 -338q41 -85 105 -150.5t135.5 -103t142 -56t135.5 -18.5q129 0 223 55q63 33 107 80.5t84 118.5q33 53 43 53q14 0 18 -23t0 -44q-4 -36 -31 -102.5t-51 -104.5q-6 -12 -26 -28.5t-37 -25.5q-38 -16 -148.5 -36.5t-224.5 -20.5q-103 0 -200 23.5t-170 61
t-125.5 77t-86.5 78.5q-172 198 -172 471q0 83 22.5 164t58.5 143.5t72.5 108t72.5 75.5q233 189 555 189zM985 1710q31 20 57 10q18 -8 39 -27.5t21 -37.5q0 -10 -13 -27t-28 -26q-186 -101 -307 -148q-49 -21 -70 0q0 2 -1.5 7t5 17.5t21.5 24.5q134 113 276 207z" />
    <glyph glyph-name="cacute" unicode="&#x107;" horiz-adv-x="802" 
d="M522 1280q10 20 24.5 31.5t24.5 11.5q64 0 78 -16q4 -7 1 -23.5t-11 -32.5q-30 -57 -87.5 -152.5t-94.5 -150.5q-10 -15 -25.5 -27t-28.5 -12q-12 0 -13 20.5t5 35.5q46 137 127 315zM532 821q51 0 107.5 -12.5t83.5 -34.5q13 -9 22 -29.5t9 -31.5q0 -22 -29.5 -52
t-38.5 -30q-24 0 -80 39q-7 5 -23.5 17.5t-22.5 16t-19.5 13t-20 12.5t-18.5 8.5t-21.5 7.5t-21.5 3.5t-25 1.5q-26 0 -64.5 -20.5t-62.5 -49.5q-86 -95 -86 -236q0 -124 53 -204q38 -64 108 -101t150 -37q94 0 183 62q11 7 20 9t14 -1t5 -8q0 -33 -27 -60
q-53 -59 -133.5 -93t-161.5 -34q-94 0 -173 44.5t-130 119.5q-27 44 -45 110.5t-18 129.5q0 109 53 200.5t145 153.5q55 39 137 62.5t131 23.5z" />
    <glyph glyph-name="Ccircumflex" unicode="&#x108;" horiz-adv-x="1468" 
d="M883 1354q98 0 241 -33q29 -4 85.5 -20.5t70.5 -18.5q6 0 12.5 -5t12.5 -19.5t6 -36.5q0 -21 14 -179q1 -30 -8.5 -48.5t-22.5 -18.5q-15 0 -32 53q-13 51 -37.5 94.5t-46.5 59.5q-80 59 -158.5 82.5t-169.5 23.5q-120 0 -223 -47.5t-172 -127t-107.5 -185t-38.5 -221.5
q0 -194 72 -338q41 -85 105 -150.5t135.5 -103t142 -56t135.5 -18.5q129 0 223 55q63 33 107 80.5t84 118.5q33 53 43 53q14 0 18 -23t0 -44q-4 -36 -31 -102.5t-51 -104.5q-6 -12 -26 -28.5t-37 -25.5q-38 -16 -148.5 -36.5t-224.5 -20.5q-103 0 -200 23.5t-170 61
t-125.5 77t-86.5 78.5q-172 198 -172 471q0 83 22.5 164t58.5 143.5t72.5 108t72.5 75.5q233 189 555 189zM834 1686q19 0 75 -46q120 -103 168 -143q27 -19 24 -39q-1 -14 -20 -14q-20 0 -57 16q-47 21 -182 88q-14 7 -33 -2q-96 -43 -176 -84q-2 0 -23.5 -9t-31.5 -9
q-45 0 -15 35q8 8 19 18q19 16 83.5 72t92.5 78q49 39 76 39z" />
    <glyph glyph-name="ccircumflex" unicode="&#x109;" horiz-adv-x="802" 
d="M449 1313q17 0 57 -78q58 -104 135 -256q30 -70 -4 -70q-21 0 -49 39q-11 15 -63 87t-72 102q-2 4 -8 5.5t-11 -3.5q-86 -130 -137 -195q-21 -31 -43 -31q-9 0 -12.5 15.5t2.5 32.5q30 71 147 284q38 68 58 68zM532 821q51 0 107.5 -12.5t83.5 -34.5q13 -9 22 -29.5
t9 -31.5q0 -22 -29.5 -52t-38.5 -30q-24 0 -80 39q-7 5 -23.5 17.5t-22.5 16t-19.5 13t-20 12.5t-18.5 8.5t-21.5 7.5t-21.5 3.5t-25 1.5q-26 0 -64.5 -20.5t-62.5 -49.5q-86 -95 -86 -236q0 -124 53 -204q38 -64 108 -101t150 -37q94 0 183 62q11 7 20 9t14 -1t5 -8
q0 -33 -27 -60q-53 -59 -133.5 -93t-161.5 -34q-94 0 -173 44.5t-130 119.5q-27 44 -45 110.5t-18 129.5q0 109 53 200.5t145 153.5q55 39 137 62.5t131 23.5z" />
    <glyph glyph-name="Cdotaccent" unicode="&#x10a;" horiz-adv-x="1468" 
d="M883 1354q98 0 241 -33q29 -4 85.5 -20.5t70.5 -18.5q6 0 12.5 -5t12.5 -19.5t6 -36.5q0 -21 14 -179q1 -30 -8.5 -48.5t-22.5 -18.5q-15 0 -32 53q-13 51 -37.5 94.5t-46.5 59.5q-80 59 -158.5 82.5t-169.5 23.5q-120 0 -223 -47.5t-172 -127t-107.5 -185t-38.5 -221.5
q0 -194 72 -338q41 -85 105 -150.5t135.5 -103t142 -56t135.5 -18.5q129 0 223 55q63 33 107 80.5t84 118.5q33 53 43 53q14 0 18 -23t0 -44q-4 -36 -31 -102.5t-51 -104.5q-6 -12 -26 -28.5t-37 -25.5q-38 -16 -148.5 -36.5t-224.5 -20.5q-103 0 -200 23.5t-170 61
t-125.5 77t-86.5 78.5q-172 198 -172 471q0 83 22.5 164t58.5 143.5t72.5 108t72.5 75.5q233 189 555 189zM854 1669q44 0 71 -34.5t27 -75.5q0 -46 -33 -75.5t-69 -29.5q-38 0 -70 28.5t-32 80.5q0 41 31 73.5t75 32.5z" />
    <glyph glyph-name="cdotaccent" unicode="&#x10b;" horiz-adv-x="802" 
d="M473 1239q43 0 67.5 -32.5t24.5 -71.5q0 -41 -31 -70t-63 -29q-37 0 -68.5 26t-31.5 77q0 39 30 69.5t72 30.5zM532 821q51 0 107.5 -12.5t83.5 -34.5q13 -9 22 -29.5t9 -31.5q0 -22 -29.5 -52t-38.5 -30q-24 0 -80 39q-7 5 -23.5 17.5t-22.5 16t-19.5 13t-20 12.5
t-18.5 8.5t-21.5 7.5t-21.5 3.5t-25 1.5q-26 0 -64.5 -20.5t-62.5 -49.5q-86 -95 -86 -236q0 -124 53 -204q38 -64 108 -101t150 -37q94 0 183 62q11 7 20 9t14 -1t5 -8q0 -33 -27 -60q-53 -59 -133.5 -93t-161.5 -34q-94 0 -173 44.5t-130 119.5q-27 44 -45 110.5
t-18 129.5q0 109 53 200.5t145 153.5q55 39 137 62.5t131 23.5z" />
    <glyph glyph-name="Ccaron" unicode="&#x10c;" horiz-adv-x="1468" 
d="M883 1354q98 0 241 -33q29 -4 85.5 -20.5t70.5 -18.5q6 0 12.5 -5t12.5 -19.5t6 -36.5q0 -21 14 -179q1 -30 -8.5 -48.5t-22.5 -18.5q-15 0 -32 53q-13 51 -37.5 94.5t-46.5 59.5q-80 59 -158.5 82.5t-169.5 23.5q-120 0 -223 -47.5t-172 -127t-107.5 -185t-38.5 -221.5
q0 -194 72 -338q41 -85 105 -150.5t135.5 -103t142 -56t135.5 -18.5q129 0 223 55q63 33 107 80.5t84 118.5q33 53 43 53q14 0 18 -23t0 -44q-4 -36 -31 -102.5t-51 -104.5q-6 -12 -26 -28.5t-37 -25.5q-38 -16 -148.5 -36.5t-224.5 -20.5q-103 0 -200 23.5t-170 61
t-125.5 77t-86.5 78.5q-172 198 -172 471q0 83 22.5 164t58.5 143.5t72.5 108t72.5 75.5q233 189 555 189zM827 1450q-23 0 -77 45q-5 5 -67.5 56.5t-104.5 88.5q-14 9 -19.5 22t0 22.5t21.5 9.5q8 0 30 -9t25 -10q78 -34 184 -90q17 -6 33 2q24 12 84.5 41.5t89.5 44.5
q2 1 25 10t32 9q18 0 24.5 -6t0.5 -19t-25 -31q-142 -117 -180 -147q-49 -39 -76 -39z" />
    <glyph glyph-name="ccaron" unicode="&#x10d;" horiz-adv-x="802" 
d="M451 907q-19 0 -60 80q-63 113 -133 256q-4 7 -7 16t-6 22t1 21.5t16 8.5q10 0 25 -13t24 -26q101 -143 131 -187q15 -15 23 -4q19 29 135 197q19 29 43 29q9 0 12.5 -14t-2.5 -31q-14 -39 -36.5 -84t-63 -118.5t-45.5 -82.5q-34 -70 -57 -70zM532 821q51 0 107.5 -12.5
t83.5 -34.5q13 -9 22 -29.5t9 -31.5q0 -22 -29.5 -52t-38.5 -30q-24 0 -80 39q-7 5 -23.5 17.5t-22.5 16t-19.5 13t-20 12.5t-18.5 8.5t-21.5 7.5t-21.5 3.5t-25 1.5q-26 0 -64.5 -20.5t-62.5 -49.5q-86 -95 -86 -236q0 -124 53 -204q38 -64 108 -101t150 -37q94 0 183 62
q11 7 20 9t14 -1t5 -8q0 -33 -27 -60q-53 -59 -133.5 -93t-161.5 -34q-94 0 -173 44.5t-130 119.5q-27 44 -45 110.5t-18 129.5q0 109 53 200.5t145 153.5q55 39 137 62.5t131 23.5z" />
    <glyph glyph-name="Dcaron" unicode="&#x10e;" horiz-adv-x="1546" 
d="M692 1335q102 0 197 -19.5t165.5 -51.5t120.5 -63.5t85 -63.5q83 -79 134.5 -205t51.5 -248q0 -106 -30.5 -205.5t-80.5 -173t-105 -127.5t-112 -86q-199 -115 -487 -115q-173 0 -402 17q-39 2 -108 2q-66 0 -66 31q0 24 45 28q44 5 70.5 14t44 22t26 40.5t12 56.5
t5.5 84q6 144 6 281q0 246 -10 526q-1 40 -2 58t-6 41.5t-12 32.5t-22 20t-36 16t-53 10q-18 3 -32.5 13t-14.5 20q0 27 49 27h57q42 0 227.5 9t282.5 9zM602 1272q-110 0 -141 -17q-19 -14 -21 -26q-8 -50 -8 -389v-297q0 -235 8 -355q3 -28 13.5 -51.5t18 -32t13.5 -12.5
q28 -21 80.5 -37t87.5 -16q84 0 194 33.5t189 99.5q96 82 153.5 214t57.5 298q0 133 -60.5 263.5t-158.5 203.5q-75 56 -192.5 88.5t-233.5 32.5zM686 1436q-24 0 -78 45q-5 5 -67.5 56.5t-104.5 88.5q-14 9 -19.5 21.5t0 22t21.5 9.5q8 0 31 -8.5t25 -9.5q78 -34 184 -90
q17 -6 33 2q24 12 84.5 41.5t89.5 44.5q1 0 24 9t33 9q58 0 0 -55q-142 -117 -180 -147q-49 -39 -76 -39z" />
    <glyph glyph-name="dcaron" unicode="&#x10f;" horiz-adv-x="1021" 
d="M553 827q81 0 131 -8q5 -1 9.5 6.5t6.5 16.5q7 47 5 211t-7 207q-2 10 -4.5 16t-25.5 25.5t-66 41.5q-20 11 -20 19q0 6 12.5 20t21.5 15q34 4 100.5 22.5t108.5 34.5q18 6 27 6q5 0 11 -10.5t5 -22.5q-7 -72 -9.5 -121t-5.5 -221t-3 -467q0 -349 6 -466q2 -84 31 -84
q13 0 59 7.5t51 8.5q5 0 9 -5t4 -7q0 -10 -13.5 -30t-21.5 -22q-127 -20 -184 -40q-62 -21 -74 -21q-6 0 -14.5 10t-8.5 17q0 8 2 38t2 46q0 5 -4 8.5t-8 3.5q-114 -102 -266 -102q-72 0 -140 30t-116 82q-98 110 -98 281q0 72 19 134.5t52.5 108t69 78t76.5 56.5
q64 39 141.5 58t128.5 19zM477 760q-88 0 -160 -72q-33 -33 -59.5 -105.5t-26.5 -152.5q0 -84 35 -163.5t103.5 -134t152.5 -54.5q83 0 150 49q3 3 10 21.5t14.5 51t8.5 62.5q3 183 -7 340q-2 13 -15 37t-30 41q-39 39 -89.5 59.5t-86.5 20.5zM1065 1446q25 0 25 -37
q1 -48 -20.5 -143.5t-45.5 -163.5q-2 -10 -18.5 -32.5t-28.5 -22.5q-9 0 -15 16.5t-4 32.5q3 57 -1.5 140.5t-10.5 121.5q0 14 10 24q15 17 52 40.5t57 23.5z" />
    <glyph glyph-name="Dcroat" unicode="&#x110;" horiz-adv-x="1546" 
d="M90 715l156 2q6 0 11 7.5t5 14.5q-1 55 -4 179t-4 161q-1 40 -2 58t-6 41.5t-12 32.5t-22 20t-36 16t-53 10q-19 3 -33 12t-14 19q0 29 49 29h59q40 0 225 9t283 9q102 0 197 -19.5t165.5 -51.5t120.5 -63.5t85 -63.5q83 -79 134.5 -205.5t51.5 -247.5
q0 -107 -30.5 -206.5t-80.5 -173t-105 -127t-112 -85.5q-199 -115 -487 -115q-173 0 -402 17q-39 2 -108 2q-66 0 -66 31q0 23 43 30q44 5 71 13.5t45.5 22t27 39.5t12 56.5t4.5 83.5q0 62 2 171t2 171q0 7 -4 15t-8 8l-150 2q-4 0 -9.5 2t-11 9.5t-5.5 19.5q0 10 4 27.5
t12 17.5zM805 641l-361 -4q-4 0 -8 -7.5t-4 -13.5q5 -377 8 -419q4 -48 14.5 -71t30.5 -34q28 -21 81 -37t89 -16q83 0 192 33.5t189 99.5q97 82 154 213.5t57 298.5q0 134 -60.5 264t-158.5 205q-75 56 -192 87.5t-234 31.5q-112 0 -139 -17q-19 -13 -23 -28
q-2 -10 -3 -92.5t-2 -206t-3 -191.5q0 -7 4 -13.5t10 -6.5h353q15 0 23.5 -5.5t8.5 -11.5q0 -20 -8 -39.5t-18 -19.5z" />
    <glyph glyph-name="dcroat" unicode="&#x111;" horiz-adv-x="1021" 
d="M850 618q0 -366 6 -489q3 -33 11 -44t26 -11q14 0 39.5 6t38.5 8q22 5 27.5 2.5t5.5 -16.5q0 -15 -12 -34t-25 -20q-32 -3 -89.5 -14.5t-84.5 -21.5q-68 -23 -74 -23q-25 0 -25 27q0 8 3 29.5t3 37.5q0 5 -6 10t-10 5q-170 -95 -262 -95q-153 0 -248 113
q-52 55 -80 128.5t-28 152.5q0 72 19.5 135.5t53 109t69.5 78t77 56.5q55 34 129.5 56.5t138.5 22.5q71 0 133 -16q7 -3 11.5 6.5t4.5 18.5q9 199 3 245q0 21 -11 21q-16 0 -106 1t-111 1q-6 0 -10 9t-4 15q0 12 8 29t14 17h213q9 0 9 22v70q0 35 -15.5 49.5t-60.5 27.5
q-20 5 -28.5 20.5t-8.5 25.5q0 7 11 14t28 8q113 18 141 29q55 22 74 22q6 0 11 -11t5 -28q0 -3 -1.5 -35.5t-3 -86t-1.5 -107.5q0 -16 10 -16h138q3 0 6 -4.5t4.5 -12.5t-0.5 -20q-3 -24 -9 -30.5t-20 -6.5q-19 0 -57 -1t-62 -1q-4 0 -8 -8.5t-4 -16.5q-6 -345 -6 -459z
M469 752q-47 0 -92 -22.5t-68 -53.5q-73 -92 -73 -246q0 -87 33.5 -165t100 -129.5t150.5 -51.5q40 0 86 12t74 33q14 12 19 30.5t6 63.5v365q0 41 -39 90q-27 32 -81.5 53t-115.5 21z" />
    <glyph glyph-name="Emacron" unicode="&#x112;" horiz-adv-x="1153" 
d="M457 1317h301q142 0 188 6q4 1 10.5 -7t8.5 -16q0 -54 2 -117t2 -77q0 -22 -9 -37.5t-22 -15.5q-23 0 -33 49q-19 76 -50 103.5t-87 35.5q-40 6 -132 8.5t-159 -0.5q-3 0 -9 -4t-13 -18t-9 -35q-3 -40 -6 -242.5t0 -224.5q5 -20 15 -20h133q53 0 82.5 0.5t56.5 5.5
t38.5 9.5t24.5 19t18.5 27t16.5 40.5q17 43 37 43q10 0 14.5 -15.5t2.5 -29.5q-7 -100 -7 -148q0 -32 3.5 -75t3.5 -50q1 -27 -5.5 -43t-17.5 -16q-10 0 -20 13.5t-15 31.5q-12 39 -19.5 56t-26 30t-42 16t-74.5 5q-66 4 -202 4q-5 0 -12 -7.5t-7 -11.5q-6 -32 -6 -321
q0 -112 21 -170q12 -37 39 -45q88 -15 186 -15q138 0 194 15q53 13 94 47.5t76 103.5q30 58 48 58q10 0 14.5 -18.5t1.5 -37.5q-2 -15 -33.5 -111t-40.5 -108q-5 -7 -16.5 -15.5t-18.5 -8.5q-1 0 -100 4t-258 8t-307 4q-58 0 -127.5 -5t-104.5 -5q-33 0 -47 5t-14 21
q0 19 57 33q45 11 66.5 18.5t42.5 23.5t29.5 41.5t11.5 66.5q16 229 16 581q0 316 -2 346q-3 68 -25.5 94.5t-89.5 41.5q-33 8 -46 15t-13 19q0 13 17 21t40 8q43 0 141.5 -4t172.5 -4zM373 1593l440 13q6 0 13.5 -15t7.5 -30q0 -29 -13.5 -52.5t-25.5 -23.5l-435 -4
q-18 0 -18 32q0 18 12 49t19 31z" />
    <glyph glyph-name="emacron" unicode="&#x113;" horiz-adv-x="802" 
d="M233 1174l429 8q5 0 11.5 -13t6.5 -20q0 -34 -12 -60t-31 -26h-418q-5 0 -10.5 6t-5.5 18q0 31 9.5 59t20.5 28zM469 825q56 0 111 -20t92 -57q71 -68 71 -173q0 -11 -11 -22.5t-27 -11.5q-373 0 -467 2q-4 0 -9.5 -6t-7.5 -11q-10 -27 -10 -71q0 -59 22 -124t56 -110
q36 -48 97.5 -80t131.5 -32q137 0 187 73q17 25 26 25q17 0 17 -25q0 -24 -15 -49q-106 -153 -297 -153q-165 0 -266.5 113t-101.5 294q0 127 64.5 237t180.5 164q78 37 156 37zM449 772q-69 0 -124 -40t-83 -111q-3 -7 0.5 -15t7.5 -8q90 -3 264 0q38 0 54 10.5t16 40.5
q0 45 -40.5 84t-94.5 39z" />
    <glyph glyph-name="Ebreve" unicode="&#x114;" horiz-adv-x="1153" 
d="M457 1317h301q142 0 188 6q4 1 10.5 -7t8.5 -16q0 -54 2 -117t2 -77q0 -22 -9 -37.5t-22 -15.5q-23 0 -33 49q-19 76 -50 103.5t-87 35.5q-40 6 -132 8.5t-159 -0.5q-3 0 -9 -4t-13 -18t-9 -35q-3 -40 -6 -242.5t0 -224.5q5 -20 15 -20h133q53 0 82.5 0.5t56.5 5.5
t38.5 9.5t24.5 19t18.5 27t16.5 40.5q17 43 37 43q10 0 14.5 -15.5t2.5 -29.5q-7 -100 -7 -148q0 -32 3.5 -75t3.5 -50q1 -27 -5.5 -43t-17.5 -16q-10 0 -20 13.5t-15 31.5q-12 39 -19.5 56t-26 30t-42 16t-74.5 5q-66 4 -202 4q-5 0 -12 -7.5t-7 -11.5q-6 -32 -6 -321
q0 -112 21 -170q12 -37 39 -45q88 -15 186 -15q138 0 194 15q53 13 94 47.5t76 103.5q30 58 48 58q10 0 14.5 -18.5t1.5 -37.5q-2 -15 -33.5 -111t-40.5 -108q-5 -7 -16.5 -15.5t-18.5 -8.5q-1 0 -100 4t-258 8t-307 4q-58 0 -127.5 -5t-104.5 -5q-33 0 -47 5t-14 21
q0 19 57 33q45 11 66.5 18.5t42.5 23.5t29.5 41.5t11.5 66.5q16 229 16 581q0 316 -2 346q-3 68 -25.5 94.5t-89.5 41.5q-33 8 -46 15t-13 19q0 13 17 21t40 8q43 0 141.5 -4t172.5 -4zM569 1419q-92 0 -158.5 54t-78.5 139q-2 13 4 27t18 14q10 0 31 -25q77 -92 197 -92
q61 0 109 17t91 69q23 27 39 27q20 0 13 -31q-6 -31 -23 -63t-46.5 -64t-80.5 -52t-115 -20z" />
    <glyph glyph-name="ebreve" unicode="&#x115;" horiz-adv-x="802" 
d="M426 973q-75 0 -133 51t-68 164q-3 30 8.5 43.5t22.5 13.5q9 0 17.5 -12.5t13.5 -28.5q35 -121 153 -121q122 0 166 125q4 14 19 24.5t26 10.5t11 -49q-4 -37 -19 -73t-42 -70.5t-72.5 -56t-102.5 -21.5zM469 825q56 0 111 -20t92 -57q71 -68 71 -173q0 -11 -11 -22.5
t-27 -11.5q-373 0 -467 2q-4 0 -9.5 -6t-7.5 -11q-10 -27 -10 -71q0 -59 22 -124t56 -110q36 -48 97.5 -80t131.5 -32q137 0 187 73q17 25 26 25q17 0 17 -25q0 -24 -15 -49q-106 -153 -297 -153q-165 0 -266.5 113t-101.5 294q0 127 64.5 237t180.5 164q78 37 156 37z
M449 772q-69 0 -124 -40t-83 -111q-3 -7 0.5 -15t7.5 -8q90 -3 264 0q38 0 54 10.5t16 40.5q0 45 -40.5 84t-94.5 39z" />
    <glyph glyph-name="Edotaccent" unicode="&#x116;" horiz-adv-x="1153" 
d="M457 1317h301q142 0 188 6q4 1 10.5 -7t8.5 -16q0 -54 2 -117t2 -77q0 -22 -9 -37.5t-22 -15.5q-23 0 -33 49q-19 76 -50 103.5t-87 35.5q-40 6 -132 8.5t-159 -0.5q-3 0 -9 -4t-13 -18t-9 -35q-3 -40 -6 -242.5t0 -224.5q5 -20 15 -20h133q53 0 82.5 0.5t56.5 5.5
t38.5 9.5t24.5 19t18.5 27t16.5 40.5q17 43 37 43q10 0 14.5 -15.5t2.5 -29.5q-7 -100 -7 -148q0 -32 3.5 -75t3.5 -50q1 -27 -5.5 -43t-17.5 -16q-10 0 -20 13.5t-15 31.5q-12 39 -19.5 56t-26 30t-42 16t-74.5 5q-66 4 -202 4q-5 0 -12 -7.5t-7 -11.5q-6 -32 -6 -321
q0 -112 21 -170q12 -37 39 -45q88 -15 186 -15q138 0 194 15q53 13 94 47.5t76 103.5q30 58 48 58q10 0 14.5 -18.5t1.5 -37.5q-2 -15 -33.5 -111t-40.5 -108q-5 -7 -16.5 -15.5t-18.5 -8.5q-1 0 -100 4t-258 8t-307 4q-58 0 -127.5 -5t-104.5 -5q-33 0 -47 5t-14 21
q0 19 57 33q45 11 66.5 18.5t42.5 23.5t29.5 41.5t11.5 66.5q16 229 16 581q0 316 -2 346q-3 68 -25.5 94.5t-89.5 41.5q-33 8 -46 15t-13 19q0 13 17 21t40 8q43 0 141.5 -4t172.5 -4zM592 1632q44 0 71 -34.5t27 -75.5q0 -46 -33 -75.5t-69 -29.5q-38 0 -70.5 28.5
t-32.5 80.5q0 41 31.5 73.5t75.5 32.5z" />
    <glyph glyph-name="edotaccent" unicode="&#x117;" horiz-adv-x="802" 
d="M459 1239q43 0 67.5 -32.5t24.5 -71.5q0 -41 -31 -70t-63 -29q-37 0 -69 26.5t-32 76.5q0 39 30.5 69.5t72.5 30.5zM469 825q56 0 111 -20t92 -57q71 -68 71 -173q0 -11 -11 -22.5t-27 -11.5q-373 0 -467 2q-4 0 -9.5 -6t-7.5 -11q-10 -27 -10 -71q0 -59 22 -124t56 -110
q36 -48 97.5 -80t131.5 -32q137 0 187 73q17 25 26 25q17 0 17 -25q0 -24 -15 -49q-106 -153 -297 -153q-165 0 -266.5 113t-101.5 294q0 127 64.5 237t180.5 164q78 37 156 37zM449 772q-69 0 -124 -40t-83 -111q-3 -7 0.5 -15t7.5 -8q90 -3 264 0q38 0 54 10.5t16 40.5
q0 45 -40.5 84t-94.5 39z" />
    <glyph glyph-name="Eogonek" unicode="&#x118;" horiz-adv-x="1153" 
d="M457 1317h301q134 0 184 6q4 1 13 -7t10 -16q0 -54 2 -117t2 -77q0 -22 -9 -37.5t-22 -15.5q-23 0 -33 49q-19 76 -50 103.5t-87 35.5q-40 6 -132 8.5t-159 -0.5q-3 0 -9 -4t-13 -18t-9 -35q-3 -41 -6 -242t0 -223q7 -22 19 -22h129h12q68 0 94 1.5t53 2.5t36 13t14.5 20
t16.5 37q7 18 11 28q17 43 37 43q10 0 14.5 -15.5t2.5 -29.5q-7 -100 -7 -148q0 -32 3.5 -75t3.5 -50q1 -27 -5.5 -43t-17.5 -16q-19 0 -35 45q-5 14 -11.5 33.5t-8.5 26t-9.5 17.5t-14.5 13.5t-24.5 7t-38 6t-55.5 3.5q-66 4 -200 4q-5 0 -13 -7.5t-8 -11.5q-6 -32 -6 -321
q0 -112 21 -170q15 -37 39 -45q88 -15 186 -15q138 0 194 15q106 26 172 155q16 31 26.5 40.5t21.5 9.5q16 0 16 -48q0 -13 -33 -111.5t-43 -111.5q-5 -7 -16.5 -15.5t-18.5 -8.5q-3 0 -12.5 0.5t-26.5 1.5t-32 2q-84 -80 -128 -159t-44 -138q0 -45 32 -74t74 -29
q61 0 121 31q8 5 14 0t6 -16q0 -19 -12 -43q-28 -42 -79.5 -71.5t-125.5 -29.5q-87 0 -135.5 53t-48.5 132t72.5 174.5t187.5 171.5q-212 10 -528 10q-58 0 -127.5 -5t-104.5 -5q-33 0 -47 5t-14 21q0 19 57 33q45 11 66.5 18.5t42.5 23.5t29.5 41.5t11.5 66.5
q16 229 16 581q0 316 -2 346q-3 68 -25.5 94.5t-89.5 41.5q-33 8 -46 15t-13 19q0 13 17 21t40 8q43 0 141.5 -4t172.5 -4z" />
    <glyph glyph-name="eogonek" unicode="&#x119;" horiz-adv-x="802" 
d="M469 827q125 0 206 -72.5t81 -187.5q0 -12 -21.5 -26.5t-38.5 -14.5q-344 0 -442 2q-15 0 -25 -20q-6 -18 -6 -74q0 -146 79.5 -238t217.5 -92q125 0 195 70q15 12 22 12q13 0 13 -20q0 -16 -15 -41q-32 -36 -110 -98q-98 -78 -146.5 -157.5t-48.5 -143.5
q0 -44 26.5 -71.5t65.5 -27.5q73 0 121 41q6 6 13.5 4.5t7.5 -10.5q0 -19 -13 -45q-28 -44 -78.5 -78.5t-117.5 -34.5q-81 0 -126.5 51t-45.5 126q0 137 219 301q-35 -7 -64 -7q-162 0 -266 120.5t-104 291.5q0 129 65 240.5t182 165.5q72 34 154 34zM461 774
q-71 0 -126.5 -47t-84.5 -123q-6 -15 8 -20q86 -3 252 0q82 4 82 75q0 22 -10.5 46.5t-42 46.5t-78.5 22z" />
    <glyph glyph-name="Ecaron" unicode="&#x11a;" horiz-adv-x="1153" 
d="M457 1317h301q142 0 188 6q4 1 10.5 -7t8.5 -16q0 -54 2 -117t2 -77q0 -22 -9 -37.5t-22 -15.5q-23 0 -33 49q-19 76 -50 103.5t-87 35.5q-40 6 -132 8.5t-159 -0.5q-3 0 -9 -4t-13 -18t-9 -35q-3 -40 -6 -242.5t0 -224.5q5 -20 15 -20h133q53 0 82.5 0.5t56.5 5.5
t38.5 9.5t24.5 19t18.5 27t16.5 40.5q17 43 37 43q10 0 14.5 -15.5t2.5 -29.5q-7 -100 -7 -148q0 -32 3.5 -75t3.5 -50q1 -27 -5.5 -43t-17.5 -16q-10 0 -20 13.5t-15 31.5q-12 39 -19.5 56t-26 30t-42 16t-74.5 5q-66 4 -202 4q-5 0 -12 -7.5t-7 -11.5q-6 -32 -6 -321
q0 -112 21 -170q12 -37 39 -45q88 -15 186 -15q138 0 194 15q53 13 94 47.5t76 103.5q30 58 48 58q10 0 14.5 -18.5t1.5 -37.5q-2 -15 -33.5 -111t-40.5 -108q-5 -7 -16.5 -15.5t-18.5 -8.5q-1 0 -100 4t-258 8t-307 4q-58 0 -127.5 -5t-104.5 -5q-33 0 -47 5t-14 21
q0 19 57 33q45 11 66.5 18.5t42.5 23.5t29.5 41.5t11.5 66.5q16 229 16 581q0 316 -2 346q-3 68 -25.5 94.5t-89.5 41.5q-33 8 -46 15t-13 19q0 13 17 21t40 8q43 0 141.5 -4t172.5 -4zM586 1409q-24 0 -78 45q-5 5 -67.5 56.5t-104.5 88.5q-14 9 -19.5 22t0 22.5t21.5 9.5
q8 0 30 -9t25 -10q84 -37 185 -90q17 -6 32 2q24 12 84.5 41.5t89.5 44.5q2 0 25 9.5t33 9.5q18 0 24.5 -6t0.5 -19t-25 -31q-142 -117 -180 -147q-49 -39 -76 -39z" />
    <glyph glyph-name="ecaron" unicode="&#x11b;" horiz-adv-x="802" 
d="M430 907q-18 0 -59 80q-63 113 -133 256q-4 7 -7 16t-6 22t1 21.5t16 8.5q10 0 25 -13t24 -26q101 -143 131 -187q14 -14 22 -4q3 4 136 197q19 29 43 29q9 0 12.5 -14t-2.5 -31q-14 -39 -37.5 -85.5t-62 -115.5t-46.5 -84q-34 -70 -57 -70zM469 825q56 0 111 -20t92 -57
q71 -68 71 -173q0 -11 -11 -22.5t-27 -11.5q-373 0 -467 2q-4 0 -9.5 -6t-7.5 -11q-10 -27 -10 -71q0 -59 22 -124t56 -110q36 -48 97.5 -80t131.5 -32q137 0 187 73q17 25 26 25q17 0 17 -25q0 -24 -15 -49q-106 -153 -297 -153q-165 0 -266.5 113t-101.5 294
q0 127 64.5 237t180.5 164q78 37 156 37zM449 772q-69 0 -124 -40t-83 -111q-3 -7 0.5 -15t7.5 -8q90 -3 264 0q38 0 54 10.5t16 40.5q0 45 -40.5 84t-94.5 39z" />
    <glyph glyph-name="Gcircumflex" unicode="&#x11c;" horiz-adv-x="1482" 
d="M850 1354q31 0 60.5 -1.5t59.5 -4.5t50.5 -5.5t50.5 -8.5t42.5 -8t43.5 -9t37 -8q51 -10 78 -17q8 0 16 -13.5t8 -35.5q1 -18 15 -99.5t14 -125.5q0 -20 -8 -32.5t-19 -12.5q-18 0 -36 47q-30 83 -78 143q-40 49 -128 88t-200 39q-128 0 -234.5 -49.5t-176 -134
t-108 -194.5t-38.5 -232q0 -220 92 -373q80 -134 214.5 -208t281.5 -74q30 0 88.5 12.5t95.5 36.5q12 7 27.5 46t15.5 60q0 176 -6 213q-5 17 -9.5 27t-17 23.5t-30.5 21t-50 14.5t-77 10q-23 1 -38.5 12t-15.5 23q0 11 17 20t45 9q16 0 115 -4t131 -4q22 0 85.5 4t98.5 4
q25 0 40 -7.5t15 -19.5q0 -19 -47 -34q-22 -6 -36 -13.5t-21.5 -17.5t-9.5 -15t-7 -18q-10 -29 -10 -254q0 -42 29 -59q17 -9 25 -16.5t9 -10.5t1 -10t-7.5 -16t-23.5 -13q-2 -1 -70 -18t-116 -31q-61 -17 -143 -27t-140 -10q-167 0 -307.5 50t-237.5 137
q-54 52 -97.5 115.5t-78.5 168t-35 219.5q0 313 232 516q97 86 236 135.5t288 49.5zM836 1675q20 0 75 -45q120 -103 168 -143q27 -19 24 -39q-1 -14 -20 -14q-20 0 -57 16q-47 21 -182 88q-14 7 -33 -2q-96 -43 -176 -84q-2 0 -23.5 -9t-31.5 -9q-45 0 -15 35q8 8 19 18
q19 15 83.5 70.5t92.5 78.5q49 39 76 39z" />
    <glyph glyph-name="gcircumflex" unicode="&#x11d;" horiz-adv-x="851" 
d="M449 1313q17 0 57 -78q58 -104 135 -256q30 -70 -4 -70q-21 0 -49 39q-11 15 -63 87t-72 102q-2 4 -8 5.5t-11 -3.5q-86 -130 -137 -195q-21 -31 -43 -31q-9 0 -12.5 15.5t2.5 32.5q30 71 147 284q38 68 58 68zM420 836q15 0 29 -0.5t24.5 -1t24 -2.5t20 -3t20.5 -4
t18.5 -4t21 -5t20.5 -5q12 -2 31 -6.5t26 -5.5q2 0 107 -5.5t131 -11.5q18 -3 18 -22q0 -20 -15 -43t-22 -23q-86 0 -137 4q-6 0 -10 -5.5t-2 -10.5q16 -50 16 -102q0 -171 -114 -258q-100 -78 -224 -78q-6 0 -35 1t-36 1q-20 3 -31 -2q-16 -8 -40.5 -33.5t-24.5 -36.5
q0 -35 30 -62.5t53 -29.5q28 -1 116.5 -3.5t160 -5.5t100.5 -7q14 -2 44 -16t55 -34q40 -35 63 -86t23 -94q0 -105 -56.5 -184t-136.5 -131q-134 -88 -295 -88q-154 0 -256 75q-42 33 -68 84t-26 95q0 39 11 67.5t20.5 38t23.5 20.5q3 2 4 3q28 24 79.5 62.5t62.5 47.5
q7 7 -6 15q-1 0 -32.5 14.5t-47.5 26.5q-32 22 -51 62.5t-19 88.5q0 9 10 19q10 8 71.5 47.5t80.5 58.5q5 5 -8 18q-26 15 -49 34.5t-49.5 51t-42 77t-15.5 98.5q0 141 125 233q87 66 209 66zM403 786q-27 0 -57.5 -16t-44.5 -35q-53 -56 -53 -182q0 -54 22 -111.5
t70.5 -101t110.5 -43.5q20 0 67 29q36 23 57 86t21 131q0 86 -45 153q-62 90 -148 90zM469 -481q91 0 162 37q57 37 84.5 88.5t27.5 101.5q0 70 -28 107q-36 48 -109 63q-55 10 -207 10q-80 0 -110 -20q-45 -31 -68.5 -79t-23.5 -89q0 -95 71 -156q81 -63 201 -63z" />
    <glyph glyph-name="Gbreve" unicode="&#x11e;" horiz-adv-x="1482" 
d="M850 1354q31 0 60.5 -1.5t59.5 -4.5t50.5 -5.5t50.5 -8.5t42.5 -8t43.5 -9t37 -8q51 -10 78 -17q8 0 16 -13.5t8 -35.5q1 -18 15 -99.5t14 -125.5q0 -20 -8 -32.5t-19 -12.5q-18 0 -36 47q-30 83 -78 143q-40 49 -128 88t-200 39q-128 0 -234.5 -49.5t-176 -134
t-108 -194.5t-38.5 -232q0 -220 92 -373q80 -134 214.5 -208t281.5 -74q30 0 88.5 12.5t95.5 36.5q12 7 27.5 46t15.5 60q0 176 -6 213q-5 17 -9.5 27t-17 23.5t-30.5 21t-50 14.5t-77 10q-23 1 -38.5 12t-15.5 23q0 11 17 20t45 9q16 0 115 -4t131 -4q22 0 85.5 4t98.5 4
q25 0 40 -7.5t15 -19.5q0 -19 -47 -34q-22 -6 -36 -13.5t-21.5 -17.5t-9.5 -15t-7 -18q-10 -29 -10 -254q0 -42 29 -59q17 -9 25 -16.5t9 -10.5t1 -10t-7.5 -16t-23.5 -13q-2 -1 -70 -18t-116 -31q-61 -17 -143 -27t-140 -10q-167 0 -307.5 50t-237.5 137
q-54 52 -97.5 115.5t-78.5 168t-35 219.5q0 313 232 516q97 86 236 135.5t288 49.5zM819 1460q-92 0 -158.5 54t-78.5 139q-2 13 4 27t18 14q10 0 31 -25q41 -49 87.5 -70.5t108.5 -21.5q61 0 109.5 17t91.5 69q23 27 39 27q19 0 12 -31q-6 -31 -22.5 -63t-46.5 -64
t-80.5 -52t-114.5 -20z" />
    <glyph glyph-name="gbreve" unicode="&#x11f;" horiz-adv-x="851" 
d="M430 973q-75 0 -133 51t-68 164q-3 30 8.5 43.5t22.5 13.5q9 0 17.5 -12.5t13.5 -28.5q35 -121 153 -121q122 0 166 125q4 14 19 24.5t26 10.5t11 -49q-4 -37 -19 -73t-42 -70.5t-72.5 -56t-102.5 -21.5zM420 836q15 0 29 -0.5t24.5 -1t24 -2.5t20 -3t20.5 -4t18.5 -4
t21 -5t20.5 -5q12 -2 31 -6.5t26 -5.5q2 0 107 -5.5t131 -11.5q18 -3 18 -22q0 -20 -15 -43t-22 -23q-86 0 -137 4q-6 0 -10 -5.5t-2 -10.5q16 -50 16 -102q0 -171 -114 -258q-100 -78 -224 -78q-6 0 -35 1t-36 1q-20 3 -31 -2q-16 -8 -40.5 -33.5t-24.5 -36.5
q0 -35 30 -62.5t53 -29.5q28 -1 116.5 -3.5t160 -5.5t100.5 -7q14 -2 44 -16t55 -34q40 -35 63 -86t23 -94q0 -105 -56.5 -184t-136.5 -131q-134 -88 -295 -88q-154 0 -256 75q-42 33 -68 84t-26 95q0 39 11 67.5t20.5 38t23.5 20.5q3 2 4 3q28 24 79.5 62.5t62.5 47.5
q7 7 -6 15q-1 0 -32.5 14.5t-47.5 26.5q-32 22 -51 62.5t-19 88.5q0 9 10 19q10 8 71.5 47.5t80.5 58.5q5 5 -8 18q-26 15 -49 34.5t-49.5 51t-42 77t-15.5 98.5q0 141 125 233q87 66 209 66zM403 786q-27 0 -57.5 -16t-44.5 -35q-53 -56 -53 -182q0 -54 22 -111.5
t70.5 -101t110.5 -43.5q20 0 67 29q36 23 57 86t21 131q0 86 -45 153q-62 90 -148 90zM469 -481q91 0 162 37q57 37 84.5 88.5t27.5 101.5q0 70 -28 107q-36 48 -109 63q-55 10 -207 10q-80 0 -110 -20q-45 -31 -68.5 -79t-23.5 -89q0 -95 71 -156q81 -63 201 -63z" />
    <glyph glyph-name="Gdotaccent" unicode="&#x120;" horiz-adv-x="1482" 
d="M850 1354q31 0 60.5 -1.5t59.5 -4.5t50.5 -5.5t50.5 -8.5t42.5 -8t43.5 -9t37 -8q51 -10 78 -17q8 0 16 -13.5t8 -35.5q1 -18 15 -99.5t14 -125.5q0 -20 -8 -32.5t-19 -12.5q-18 0 -36 47q-30 83 -78 143q-40 49 -128 88t-200 39q-128 0 -234.5 -49.5t-176 -134
t-108 -194.5t-38.5 -232q0 -220 92 -373q80 -134 214.5 -208t281.5 -74q30 0 88.5 12.5t95.5 36.5q12 7 27.5 46t15.5 60q0 176 -6 213q-5 17 -9.5 27t-17 23.5t-30.5 21t-50 14.5t-77 10q-23 1 -38.5 12t-15.5 23q0 11 17 20t45 9q16 0 115 -4t131 -4q22 0 85.5 4t98.5 4
q25 0 40 -7.5t15 -19.5q0 -19 -47 -34q-22 -6 -36 -13.5t-21.5 -17.5t-9.5 -15t-7 -18q-10 -29 -10 -254q0 -42 29 -59q17 -9 25 -16.5t9 -10.5t1 -10t-7.5 -16t-23.5 -13q-2 -1 -70 -18t-116 -31q-61 -17 -143 -27t-140 -10q-167 0 -307.5 50t-237.5 137
q-54 52 -97.5 115.5t-78.5 168t-35 219.5q0 313 232 516q97 86 236 135.5t288 49.5zM838 1683q44 0 71 -34.5t27 -75.5q0 -46 -33 -75.5t-69 -29.5q-38 0 -70.5 28.5t-32.5 80.5q0 41 31.5 73.5t75.5 32.5z" />
    <glyph glyph-name="gdotaccent" unicode="&#x121;" horiz-adv-x="851" 
d="M432 1239q43 0 67.5 -32.5t24.5 -71.5q0 -41 -31 -70t-63 -29q-37 0 -68.5 26t-31.5 77q0 39 30 69.5t72 30.5zM420 836q15 0 29 -0.5t24.5 -1t24 -2.5t20 -3t20.5 -4t18.5 -4t21 -5t20.5 -5q12 -2 31 -6.5t26 -5.5q2 0 107 -5.5t131 -11.5q18 -3 18 -22q0 -20 -15 -43
t-22 -23q-86 0 -137 4q-6 0 -10 -5.5t-2 -10.5q16 -50 16 -102q0 -171 -114 -258q-100 -78 -224 -78q-6 0 -35 1t-36 1q-20 3 -31 -2q-16 -8 -40.5 -33.5t-24.5 -36.5q0 -35 30 -62.5t53 -29.5q28 -1 116.5 -3.5t160 -5.5t100.5 -7q14 -2 44 -16t55 -34q40 -35 63 -86
t23 -94q0 -105 -56.5 -184t-136.5 -131q-134 -88 -295 -88q-154 0 -256 75q-42 33 -68 84t-26 95q0 39 11 67.5t20.5 38t23.5 20.5q3 2 4 3q28 24 79.5 62.5t62.5 47.5q7 7 -6 15q-1 0 -32.5 14.5t-47.5 26.5q-32 22 -51 62.5t-19 88.5q0 9 10 19q10 8 71.5 47.5t80.5 58.5
q5 5 -8 18q-26 15 -49 34.5t-49.5 51t-42 77t-15.5 98.5q0 141 125 233q87 66 209 66zM403 786q-27 0 -57.5 -16t-44.5 -35q-53 -56 -53 -182q0 -54 22 -111.5t70.5 -101t110.5 -43.5q20 0 67 29q36 23 57 86t21 131q0 86 -45 153q-62 90 -148 90zM469 -481q91 0 162 37
q57 37 84.5 88.5t27.5 101.5q0 70 -28 107q-36 48 -109 63q-55 10 -207 10q-80 0 -110 -20q-45 -31 -68.5 -79t-23.5 -89q0 -95 71 -156q81 -63 201 -63z" />
    </font>
</defs>
</svg>
