<?xml version="1.0" standalone="no"?>
<!DOCTYPE svg PUBLIC "-//W3C//DTD SVG 1.1//EN" "http://www.w3.org/Graphics/SVG/1.1/DTD/svg11.dtd" >
<svg xmlns="http://www.w3.org/2000/svg" xmlns:xlink="http://www.w3.org/1999/xlink" version="1.1">
<metadata>
Created by FontForge 20170731 at Tue May 23 10:01:16 2023
 By Aleksey,,,
Copyright 2010 by (URW)++ Design &#38; Development GmbH
</metadata>
<defs>
<font id="SaaSeriesFD" horiz-adv-x="1624" >
  <font-face 
    font-family="SaaSeriesFD"
    font-weight="400"
    font-stretch="normal"
    units-per-em="2048"
    panose-1="0 0 5 0 0 0 0 0 0 0"
    ascent="1366"
    descent="-682"
    x-height="1366"
    cap-height="1366"
    bbox="-39 -518 2646 1849"
    underline-thickness="149"
    underline-position="-314"
    unicode-range="U+0020-FB02"
  />
<missing-glyph horiz-adv-x="1079" 
 />
    <glyph glyph-name="fi" unicode="fi" horiz-adv-x="1816" 
d="M178 1366h1092v-260h-832v-252h469v-260h-469v-594h-260v1366zM1378 1366h260v-1366h-260v1366z" />
    <glyph glyph-name="fl" unicode="fl" horiz-adv-x="2455" 
d="M178 1366h1092v-260h-832v-252h469v-260h-469v-594h-260v1366zM1376 1366h260v-1106h834v-260h-1094v1366z" />
    <glyph glyph-name=".notdef" horiz-adv-x="1079" 
 />
    <glyph glyph-name=".null" horiz-adv-x="0" 
 />
    <glyph glyph-name="nonmarkingreturn" horiz-adv-x="682" 
 />
    <glyph glyph-name="space" unicode=" " horiz-adv-x="1079" 
 />
    <glyph glyph-name="exclam" unicode="!" horiz-adv-x="436" 
d="M340 1366l-21 -1006h-202l-21 1006h244zM221 272q54 0 93.5 -40t39.5 -95q0 -57 -39.5 -97t-95.5 -40q-57 0 -97 40t-40 97t40 96t99 39z" />
    <glyph glyph-name="quotedbl" unicode="&#x22;" horiz-adv-x="739" 
d="M299 819h-205l-12 547h229zM645 819h-205l-12 547h229z" />
    <glyph glyph-name="numbersign" unicode="#" horiz-adv-x="903" 
d="M367 565l-72 -317h-127l74 317h-174l28 125h174l31 139h-172l29 129h174l61 271h127l-61 -271h121l61 271h127l-61 -271h129l-31 -129h-127l-33 -139h127l-29 -125h-127l-73 -317h-127l73 317h-122zM395 690h123l33 139h-123z" />
    <glyph glyph-name="dollar" unicode="$" horiz-adv-x="1474" 
d="M866 1122v-297l131 -24q90 -19 140 -40t96 -59q61 -53 96 -130t35 -160q0 -177 -134 -293t-364 -139v-132h-260v134q-313 38 -497 192l145 213q161 -111 352 -145v374l-96 19q-154 31 -243 127.5t-89 232.5q0 108 56.5 196t156.5 138q79 37 215 55v134h260v-134
q204 -24 406 -153l-137 -211q-95 48 -154 70.5t-115 31.5zM606 877v249q-89 -15 -128.5 -46t-39.5 -85q0 -40 20 -63t66 -37q15 -4 82 -18zM866 565v-321q242 34 242 174q0 66 -68 104q-27 14 -151 39z" />
    <glyph glyph-name="percent" unicode="%" horiz-adv-x="1966" 
d="M1282 1374l-401 -1374h-181l404 1374h178zM1518 729q141 0 240.5 -110t99.5 -267q0 -160 -100.5 -269.5t-246.5 -109.5t-246 110t-100 271q0 158 102 266.5t251 108.5zM1516 590q-91 0 -152 -68.5t-61 -169.5q0 -100 60 -169.5t148 -69.5t148.5 69t60.5 170
q0 98 -59.5 168t-144.5 70zM461 1378q141 0 240.5 -110.5t99.5 -268.5q0 -160 -100 -269t-246 -109q-148 0 -247 109.5t-99 270.5q0 160 101.5 268.5t250.5 108.5zM459 1239q-90 0 -151.5 -69t-61.5 -169q0 -101 60.5 -171t148.5 -70t148.5 69.5t60.5 169.5q0 98 -60 169
t-145 71z" />
    <glyph glyph-name="ampersand" unicode="&#x26;" horiz-adv-x="1574" 
d="M1364 995v-145h141v-260h-141v-590h-834q-139 0 -223 43q-88 44 -144.5 141.5t-56.5 204.5t51.5 190t149.5 136q-71 62 -103 128t-32 152q0 101 52.5 191.5t137.5 134.5q96 45 228 45h524v-260h-524q-53 0 -76.5 -5t-44.5 -22q-41 -30 -41 -84q0 -73 64 -121
q26 -17 48.5 -20.5t96.5 -3.5h467v145h260zM1104 260v330h-488q-58 0 -89.5 -8.5t-67.5 -34.5q-44 -31 -69 -74t-25 -90q0 -58 45 -90.5t127 -32.5h567z" />
    <glyph glyph-name="quotesingle" unicode="'" horiz-adv-x="395" 
d="M301 819h-207l-12 547h231z" />
    <glyph glyph-name="parenleft" unicode="(" horiz-adv-x="649" 
d="M541 -158h-240q-164 457 -164 789q0 331 164 788h240q-85 -254 -119.5 -430.5t-34.5 -357.5t34.5 -358t119.5 -431z" />
    <glyph glyph-name="parenright" unicode=")" horiz-adv-x="649" 
d="M350 -158h-241q85 255 119 431t34 358q0 181 -34 357t-119 431h241q162 -460 162 -788q0 -335 -162 -789z" />
    <glyph glyph-name="asterisk" unicode="*" horiz-adv-x="753" 
d="M444 1366v-233l224 63l45 -127l-209 -74l127 -182l-127 -84l-121 195l-123 -195l-125 84l125 182l-219 74l43 127l223 -63v233h137z" />
    <glyph glyph-name="plus" unicode="+" horiz-adv-x="1122" 
d="M643 1163v-381h397v-166h-397v-413h-166v413h-395v166h395v381h166z" />
    <glyph glyph-name="comma" unicode="," horiz-adv-x="464" 
d="M383 162l-119 -314h-182l65 314h236z" />
    <glyph glyph-name="hyphen" unicode="-" horiz-adv-x="454" 
d="M455 713v-242h-455v242h455z" />
    <glyph glyph-name="period" unicode="." horiz-adv-x="436" 
d="M221 272q54 0 93.5 -40t39.5 -95q0 -57 -39.5 -97t-95.5 -40q-57 0 -97 40t-40 97t40 96t99 39z" />
    <glyph glyph-name="slash" unicode="/" horiz-adv-x="518" 
d="M518 1366l-319 -1642h-199l322 1642h196z" />
    <glyph glyph-name="zero" unicode="0" horiz-adv-x="1542" 
d="M782 1393q130 0 248 -56t203 -150.5t135.5 -226t50.5 -276.5q0 -196 -85.5 -359.5t-234.5 -257.5t-327 -94q-135 0 -255.5 55.5t-207 150.5t-136.5 227.5t-50 281.5q0 196 86.5 357.5t237.5 254.5t335 93zM780 1133q-196 0 -309 -162q-90 -129 -90 -285
q0 -190 113.5 -321.5t277.5 -131.5q163 0 276 131t113 320q0 121 -51.5 224.5t-139 164t-190.5 60.5z" />
    <glyph glyph-name="one" unicode="1" horiz-adv-x="737" 
d="M365 1366h194v-1366h-260v1014h-190v190q80 2 151 47t105 115z" />
    <glyph glyph-name="two" unicode="2" horiz-adv-x="1460" 
d="M1366 260v-260h-1255q-1 131 42 256.5t121.5 226.5t181 177t228 116.5t256.5 36.5q52 0 80 9t51 34q35 38 35 86q0 75 -70 123q-53 34 -130.5 54t-155.5 20q-113 0 -207.5 -35.5t-227.5 -128.5l-170 188q280 230 607 230q170 0 311 -58t222 -160t81 -225
q0 -110 -64 -210.5t-165 -147.5q-41 -19 -70 -22.5t-158 -8.5q-161 -3 -299 -91.5t-170 -209.5h926z" />
    <glyph glyph-name="three" unicode="3" horiz-adv-x="1378" 
d="M289 1001l-152 203q148 103 271 146t268 43q135 0 255.5 -37.5t194.5 -102.5q45 -40 73 -108t28 -141q0 -82 -26.5 -140.5t-86.5 -111.5q199 -128 199 -338q0 -207 -203 -332q-85 -51 -197.5 -80t-228.5 -29q-368 0 -629 267l178 182q120 -101 224.5 -143.5t234.5 -42.5
q179 0 295 75q64 42 64 113q0 80 -62 139q-56 53 -180 53h-92v256h96q52 0 76 8t49 33q35 35 35 80q0 65 -76.5 104.5t-200.5 39.5q-206 0 -407 -136z" />
    <glyph glyph-name="four" unicode="4" horiz-adv-x="1529" 
d="M1270 1366v-854h164v-246h-164v-266h-260v266h-942v246l942 854h260zM1010 512v522l-574 -522h574z" />
    <glyph glyph-name="five" unicode="5" horiz-adv-x="1474" 
d="M1270 1366l2 -260h-807l-14 -195q160 47 301 47q138 0 265 -37t210 -102q74 -57 120 -154.5t46 -197.5q0 -134 -77.5 -250t-201.5 -168q-185 -78 -457 -78q-146 0 -268 24.5t-252 78.5l88 235q216 -84 443 -84q119 0 222 26t167 71q78 58 78 147q0 43 -18.5 82.5
t-49.5 62.5q-54 38 -142.5 61t-183.5 23q-152 0 -317 -65l-248 45l49 688h1045z" />
    <glyph glyph-name="six" unicode="6" horiz-adv-x="1474" 
d="M1130 1354l-61 -252q-97 20 -160 20q-103 0 -202.5 -41t-174.5 -114q-34 -34 -57.5 -71t-56.5 -108q87 32 151 44t156 12q284 0 461.5 -121t177.5 -313q0 -115 -50.5 -198t-156.5 -142q-177 -97 -418 -97q-296 0 -469 144q-161 139 -161 415q0 205 91 393t246 302
q101 75 229.5 115t264.5 40q102 0 190 -28zM729 582q-160 0 -250 -46t-90 -128q0 -80 89.5 -126t244.5 -46q183 0 315 69q72 38 72 105q0 64 -72 102q-137 70 -309 70z" />
    <glyph glyph-name="seven" unicode="7" horiz-adv-x="1406" 
d="M82 1366h1255v-258q-138 -133 -216.5 -238.5t-141.5 -240.5q-139 -303 -139 -598v-31h-254q-6 616 403 1108h-907v258z" />
    <glyph glyph-name="eight" unicode="8" horiz-adv-x="1474" 
d="M1180 750q88 -52 136 -143t48 -204q0 -204 -165.5 -317t-463.5 -113q-296 0 -461 113t-165 317q0 113 48 204t136 143q-111 108 -111 254q0 182 148 285.5t407 103.5q258 0 405.5 -104t147.5 -285q0 -147 -110 -254zM727 1135q-142 0 -227.5 -37t-85.5 -99
q0 -125 311 -125q309 0 309 125q0 60 -85 98t-222 38zM737 618q-172 0 -275.5 -56t-103.5 -148q0 -44 24.5 -81t66.5 -57q39 -20 120 -32.5t164 -12.5q85 0 169.5 14.5t123.5 35.5q37 22 58.5 57t21.5 76q0 86 -86 139q-111 65 -283 65z" />
    <glyph glyph-name="nine" unicode="9" horiz-adv-x="1474" 
d="M342 12l61 252q97 -20 160 -20q103 0 203.5 41t173.5 114q35 35 58.5 72t56.5 107q-87 -33 -150.5 -44.5t-156.5 -11.5q-284 0 -461.5 121t-177.5 313q0 115 50.5 198t155.5 142q177 97 418 97q299 0 469 -144q164 -139 164 -415q0 -204 -91.5 -392.5t-246.5 -302.5
q-102 -75 -231 -115t-265 -40q-100 0 -190 28zM752 1130q-184 0 -316 -69q-74 -38 -74 -103q0 -66 74 -104q131 -70 309 -70q160 0 250 46t90 128q0 79 -89.5 125.5t-243.5 46.5z" />
    <glyph glyph-name="colon" unicode=":" horiz-adv-x="436" 
d="M221 272q54 0 93.5 -40t39.5 -95q0 -57 -39.5 -97t-95.5 -40q-57 0 -97 40t-40 97t40 96t99 39zM221 850q54 0 93.5 -40t39.5 -95q0 -57 -39.5 -97t-95.5 -40q-57 0 -97 40t-40 97t40 96t99 39z" />
    <glyph glyph-name="semicolon" unicode=";" horiz-adv-x="489" 
d="M383 162l-119 -314h-182l65 314h236zM274 850q54 0 94 -40t40 -95q0 -57 -40 -97t-96 -40q-57 0 -97 40t-40 97t40 96t99 39z" />
    <glyph glyph-name="less" unicode="&#x3c;" horiz-adv-x="978" 
d="M82 786l815 375v-194l-604 -273l604 -270v-195l-815 375v182z" />
    <glyph glyph-name="equal" unicode="=" horiz-adv-x="1122" 
d="M1040 629v-166h-958v166h958zM1040 954v-166h-958v166h958z" />
    <glyph glyph-name="greater" unicode="&#x3e;" horiz-adv-x="978" 
d="M897 786v-182l-815 -375v195l604 270l-604 273v194z" />
    <glyph glyph-name="question" unicode="?" horiz-adv-x="1048" 
d="M516 360h-246v58q-2 62 5 99.5t38.5 82.5t79.5 87t146 118q86 66 120.5 114t34.5 99q0 70 -84.5 107.5t-244.5 37.5q-91 0 -153 -9.5t-130 -33.5v244q132 22 276 22q283 0 446 -97.5t163 -266.5q0 -90 -52 -162t-215 -209q-111 -93 -145.5 -138.5t-38.5 -106.5v-46z
M395 272q54 0 93.5 -40t39.5 -95q0 -57 -39.5 -97t-95.5 -40q-57 0 -97 40t-40 97t40 96t99 39z" />
    <glyph glyph-name="at" unicode="@" horiz-adv-x="1546" 
d="M1231 311l106 -67q-76 -88 -129 -130t-129 -75q-128 -55 -272 -55q-141 0 -267.5 52t-216.5 141.5t-143 214.5t-53 265q0 190 90.5 348t248 249.5t345.5 91.5q126 0 238.5 -43.5t193 -118t127.5 -177.5t47 -219q0 -237 -174 -380q-126 -107 -248 -107q-60 0 -96.5 30.5
t-42.5 86.5q-55 -61 -107.5 -88t-115.5 -27q-91 0 -148 67t-57 173q0 121 54.5 234.5t144 183t184.5 69.5q121 0 170 -117l39 84l127 2l-166 -483q-18 -56 -18 -76q0 -45 51 -45q88 0 172 90q112 121 112 295q0 190 -138.5 318.5t-344.5 128.5q-152 0 -277.5 -74.5
t-197.5 -205t-72 -290.5q0 -233 152.5 -392t376.5 -159q262 0 434 205zM862 598l39 111q21 64 21 96q0 52 -32 89.5t-75 37.5q-61 0 -120 -56t-95.5 -146t-36.5 -183q0 -68 29 -107t78 -39q66 0 121 58q39 41 71 139z" />
    <glyph glyph-name="A" unicode="A" 
d="M676 1366h272l635 -1366h-283l-141 299h-692l-141 -299h-285zM586 553h452l-225 483z" />
    <glyph glyph-name="B" unicode="B" horiz-adv-x="1550" 
d="M178 1366h774q132 0 228 -45q85 -44 137.5 -134.5t52.5 -191.5q0 -86 -32 -152t-103 -128q98 -53 149.5 -136t51.5 -190t-56.5 -204.5t-144.5 -141.5q-84 -43 -223 -43h-834v1366zM438 850h467q74 0 101 5.5t53 25.5q55 46 55 114q0 54 -41 84q-21 17 -44.5 22t-76.5 5
h-514v-256zM438 260h568q82 0 127 32.5t45 90.5q0 98 -95 164q-36 26 -67.5 34.5t-89.5 8.5h-488v-330z" />
    <glyph glyph-name="C" unicode="C" horiz-adv-x="1433" 
d="M1364 1090l-219 -140q-60 94 -145 138.5t-203 44.5q-195 0 -315 -124t-120 -325q0 -202 120 -326.5t315 -124.5q118 0 203 44.5t145 138.5l219 -140q-185 -303 -567 -303q-198 0 -355 91t-245 253.5t-88 366.5q0 203 88.5 365.5t245.5 253t354 90.5q382 0 567 -303z" />
    <glyph glyph-name="D" unicode="D" horiz-adv-x="1542" 
d="M178 1366h535q145 0 242 -28t192 -97q139 -103 214 -248.5t75 -314.5q0 -174 -82.5 -325t-231.5 -247q-92 -61 -179.5 -83.5t-229.5 -22.5h-535v1366zM438 260h285q189 0 321 123.5t132 300.5q0 175 -132 298.5t-321 123.5h-285v-846z" />
    <glyph glyph-name="E" unicode="E" horiz-adv-x="1337" 
d="M178 1366h1069v-260h-809v-252h469v-260h-469v-334h832v-260h-1092v1366z" />
    <glyph glyph-name="F" unicode="F" horiz-adv-x="1310" 
d="M178 1366h1092v-260h-832v-252h469v-260h-469v-594h-260v1366z" />
    <glyph glyph-name="G" unicode="G" horiz-adv-x="1460" 
d="M788 725h576v-98q0 -112 -18 -186t-64 -156q-85 -149 -224 -230.5t-310 -81.5q-293 0 -476 226q-78 100 -120.5 226t-42.5 261q0 198 87 360.5t239.5 255.5t338.5 93q175 0 317.5 -79.5t231.5 -225.5l-219 -138q-117 183 -330 183q-178 0 -293.5 -128t-115.5 -323
t110 -323t277 -128q78 0 151.5 33t126.5 92q24 27 38 54.5t32 81.5h-312v231z" />
    <glyph glyph-name="H" unicode="H" horiz-adv-x="1611" 
d="M178 1366h260v-526h736v526h260v-1366h-260v580h-736v-580h-260v1366z" />
    <glyph glyph-name="I" unicode="I" horiz-adv-x="614" 
d="M178 1366h260v-1366h-260v1366z" />
    <glyph glyph-name="J" unicode="J" horiz-adv-x="1255" 
d="M831 1366h261v-811q0 -104 -22.5 -178t-78.5 -154q-83 -118 -204.5 -184t-256.5 -66q-201 0 -355 126.5t-189 320.5l245 53q28 -83 60 -125q40 -53 105 -85t134 -32q90 0 166.5 51t110.5 134q24 57 24 147v803z" />
    <glyph glyph-name="K" unicode="K" horiz-adv-x="1460" 
d="M178 1366h260v-604l535 604h346l-422 -477l539 -889h-299l-420 694l-279 -311v-383h-260v1366z" />
    <glyph glyph-name="L" unicode="L" horiz-adv-x="1255" 
d="M178 1366h260v-1106h832v-260h-1092v1366z" />
    <glyph glyph-name="M" unicode="M" horiz-adv-x="1802" 
d="M1626 1366v-1366h-260v809l-463 -809l-465 809v-809h-260v1366h242l483 -850l481 850h242z" />
    <glyph glyph-name="N" unicode="N" horiz-adv-x="1611" 
d="M1434 1366v-1366h-250l-746 926v-926h-260v1366h232l764 -938v938h260z" />
    <glyph glyph-name="O" unicode="O" 
d="M811 1393q194 0 356.5 -94t255.5 -257t93 -358q0 -197 -93.5 -360.5t-256 -257t-359.5 -93.5q-146 0 -284 62t-236 172q-178 196 -178 487q0 189 94 350t256 255t352 94zM811 1133q-180 0 -311 -131t-131 -312q0 -191 128 -324t312 -133q186 0 316 131.5t130 319.5
q0 185 -130 317t-314 132z" />
    <glyph glyph-name="P" unicode="P" horiz-adv-x="1488" 
d="M178 1366h778q98 0 136.5 -6.5t93.5 -32.5q114 -53 182 -158.5t68 -232.5q0 -119 -61.5 -220t-170.5 -161q-57 -31 -111 -39t-208 -8h-447v-508h-260v1366zM438 768h568q69 0 120.5 49t51.5 115q0 45 -23.5 86.5t-62.5 64.5q-47 23 -115 23h-539v-338z" />
    <glyph glyph-name="Q" unicode="Q" 
d="M1382 39l-194 -131l-86 129q-76 -35 -140.5 -49.5t-142.5 -14.5q-118 0 -227 35.5t-196 101t-152 153t-100 197.5t-35 228q0 193 93.5 355.5t255 256t353.5 93.5q190 0 352.5 -95.5t257.5 -259t95 -354.5q0 -150 -57 -284t-163 -234zM1042 559l111 -172q57 82 77.5 141
t20.5 144q0 194 -128 327.5t-314 133.5q-181 0 -310.5 -132.5t-129.5 -318.5q0 -183 131.5 -316t312.5 -133q61 0 141 23l-108 170z" />
    <glyph glyph-name="R" unicode="R" horiz-adv-x="1542" 
d="M178 1366h766q97 0 136 -6.5t96 -32.5q114 -53 181.5 -158t67.5 -231q0 -92 -38 -177.5t-107 -146.5q-28 -25 -56 -39t-85 -34l297 -541h-297l-279 508h-422v-508h-260v1366zM438 768h557q70 0 121 48t51 114q0 47 -23 87.5t-63 65.5q-28 14 -48.5 18.5t-65.5 4.5h-529
v-338z" />
    <glyph glyph-name="S" unicode="S" horiz-adv-x="1474" 
d="M1272 1231l-137 -211q-134 69 -215.5 92t-194.5 23q-139 0 -212 -35t-73 -103q0 -54 35 -79q24 -15 50 -22.5t147 -31.5l325 -63q90 -19 140 -40t96 -59q61 -53 96 -130t35 -160q0 -200 -167 -319.5t-445 -119.5q-385 0 -643 201l147 213q124 -82 233.5 -118t239.5 -36
q96 0 182.5 18.5t137.5 49.5q26 17 42.5 49t16.5 66q0 68 -68 106q-20 10 -43.5 16t-146.5 31l-340 66q-153 31 -241.5 127.5t-88.5 232.5q0 185 146 291.5t401 106.5q154 0 279 -37t266 -125z" />
    <glyph glyph-name="T" unicode="T" horiz-adv-x="1202" 
d="M27 1366h1147v-246h-443v-1120h-260v1120h-444v246z" />
    <glyph glyph-name="U" unicode="U" horiz-adv-x="1583" 
d="M164 1366h260v-692q0 -99 5.5 -134.5t29.5 -88.5q44 -99 135.5 -159.5t198.5 -60.5q105 0 196 60.5t135 159.5q25 54 30 87t5 136v692h260v-684q0 -132 -13.5 -205t-51.5 -153q-75 -155 -232 -253t-329 -98q-174 0 -331.5 98t-232.5 253q-39 79 -52 150.5t-13 207.5v684z
" />
    <glyph glyph-name="V" unicode="V" horiz-adv-x="1488" 
d="M41 1366h283l419 -1044l422 1044h283l-561 -1366h-285z" />
    <glyph glyph-name="W" unicode="W" horiz-adv-x="1746" 
d="M82 1366h268l164 -836l231 836h259l229 -836l164 836h268l-281 -1366h-276l-234 864l-235 -864h-277z" />
    <glyph glyph-name="X" unicode="X" horiz-adv-x="1474" 
d="M102 1366h324l311 -422l314 422h323l-481 -641l528 -725h-319l-365 508l-362 -508h-320l527 725z" />
    <glyph glyph-name="Y" unicode="Y" horiz-adv-x="1542" 
d="M0 1366h332l440 -545l438 545h332l-641 -799v-567h-260v567z" />
    <glyph glyph-name="Z" unicode="Z" horiz-adv-x="1529" 
d="M180 1366h1213v-242l-891 -864h891v-260h-1256v272l885 848h-842v246z" />
    <glyph glyph-name="bracketleft" unicode="[" horiz-adv-x="671" 
d="M190 -307v1714h414v-225h-170v-1264h170v-225h-414z" />
    <glyph glyph-name="backslash" unicode="\" horiz-adv-x="516" 
d="M-39 1366h207l397 -1642h-211z" />
    <glyph glyph-name="bracketright" unicode="]" horiz-adv-x="671" 
d="M481 -307h-413v225h170v1264h-170v225h413v-1714z" />
    <glyph glyph-name="asciicircum" unicode="^" horiz-adv-x="1001" 
d="M502 1145l-215 -426h-205l350 649h137l351 -649h-203z" />
    <glyph glyph-name="underscore" unicode="_" horiz-adv-x="1050" 
d="M14 -90h1024v-150h-1024v150z" />
    <glyph glyph-name="grave" unicode="`" horiz-adv-x="581" 
d="M76 1753h260l151 -272h-217z" />
    <glyph glyph-name="a" unicode="a" 
d="M676 1366h272l635 -1366h-283l-141 299h-692l-141 -299h-285zM586 553h452l-225 483z" />
    <glyph glyph-name="b" unicode="b" horiz-adv-x="1550" 
d="M178 1366h774q132 0 228 -45q85 -44 137.5 -134.5t52.5 -191.5q0 -86 -32 -152t-103 -128q98 -53 149.5 -136t51.5 -190t-56.5 -204.5t-144.5 -141.5q-84 -43 -223 -43h-834v1366zM438 850h467q74 0 101 5.5t53 25.5q55 46 55 114q0 54 -41 84q-21 17 -44.5 22t-76.5 5
h-514v-256zM438 260h568q82 0 127 32.5t45 90.5q0 98 -95 164q-36 26 -67.5 34.5t-89.5 8.5h-488v-330z" />
    <glyph glyph-name="c" unicode="c" horiz-adv-x="1433" 
d="M1364 1090l-219 -140q-60 94 -145 138.5t-203 44.5q-195 0 -315 -124t-120 -325q0 -202 120 -326.5t315 -124.5q118 0 203 44.5t145 138.5l219 -140q-185 -303 -567 -303q-198 0 -355 91t-245 253.5t-88 366.5q0 203 88.5 365.5t245.5 253t354 90.5q382 0 567 -303z" />
    <glyph glyph-name="d" unicode="d" horiz-adv-x="1542" 
d="M178 1366h535q145 0 242 -28t192 -97q139 -103 214 -248.5t75 -314.5q0 -174 -82.5 -325t-231.5 -247q-92 -61 -179.5 -83.5t-229.5 -22.5h-535v1366zM438 260h285q189 0 321 123.5t132 300.5q0 175 -132 298.5t-321 123.5h-285v-846z" />
    <glyph glyph-name="e" unicode="e" horiz-adv-x="1337" 
d="M178 1366h1069v-260h-809v-252h469v-260h-469v-334h832v-260h-1092v1366z" />
    <glyph glyph-name="f" unicode="f" horiz-adv-x="1310" 
d="M178 1366h1092v-260h-832v-252h469v-260h-469v-594h-260v1366z" />
    <glyph glyph-name="g" unicode="g" horiz-adv-x="1460" 
d="M788 725h576v-98q0 -112 -18 -186t-64 -156q-85 -149 -224 -230.5t-310 -81.5q-293 0 -476 226q-78 100 -120.5 226t-42.5 261q0 198 87 360.5t239.5 255.5t338.5 93q175 0 317.5 -79.5t231.5 -225.5l-219 -138q-117 183 -330 183q-178 0 -293.5 -128t-115.5 -323
t110 -323t277 -128q78 0 151.5 33t126.5 92q24 27 38 54.5t32 81.5h-312v231z" />
    <glyph glyph-name="h" unicode="h" horiz-adv-x="1611" 
d="M178 1366h260v-526h736v526h260v-1366h-260v580h-736v-580h-260v1366z" />
    <glyph glyph-name="i" unicode="i" horiz-adv-x="614" 
d="M178 1366h260v-1366h-260v1366z" />
    <glyph glyph-name="j" unicode="j" horiz-adv-x="1255" 
d="M831 1366h261v-811q0 -104 -22.5 -178t-78.5 -154q-83 -118 -204.5 -184t-256.5 -66q-201 0 -355 126.5t-189 320.5l245 53q28 -83 60 -125q40 -53 105 -85t134 -32q90 0 166.5 51t110.5 134q24 57 24 147v803z" />
    <glyph glyph-name="k" unicode="k" horiz-adv-x="1460" 
d="M178 1366h260v-604l535 604h346l-422 -477l539 -889h-299l-420 694l-279 -311v-383h-260v1366z" />
    <glyph glyph-name="l" unicode="l" horiz-adv-x="1255" 
d="M178 1366h260v-1106h832v-260h-1092v1366z" />
    <glyph glyph-name="m" unicode="m" horiz-adv-x="1802" 
d="M1626 1366v-1366h-260v809l-463 -809l-465 809v-809h-260v1366h242l483 -850l481 850h242z" />
    <glyph glyph-name="n" unicode="n" horiz-adv-x="1611" 
d="M1434 1366v-1366h-250l-746 926v-926h-260v1366h232l764 -938v938h260z" />
    <glyph glyph-name="o" unicode="o" 
d="M811 1393q194 0 356.5 -94t255.5 -257t93 -358q0 -197 -93.5 -360.5t-256 -257t-359.5 -93.5q-146 0 -284 62t-236 172q-178 196 -178 487q0 189 94 350t256 255t352 94zM811 1133q-180 0 -311 -131t-131 -312q0 -191 128 -324t312 -133q186 0 316 131.5t130 319.5
q0 185 -130 317t-314 132z" />
    <glyph glyph-name="p" unicode="p" horiz-adv-x="1488" 
d="M178 1366h778q98 0 136.5 -6.5t93.5 -32.5q114 -53 182 -158.5t68 -232.5q0 -119 -61.5 -220t-170.5 -161q-57 -31 -111 -39t-208 -8h-447v-508h-260v1366zM438 768h568q69 0 120.5 49t51.5 115q0 45 -23.5 86.5t-62.5 64.5q-47 23 -115 23h-539v-338z" />
    <glyph glyph-name="q" unicode="q" 
d="M1382 39l-194 -131l-86 129q-76 -35 -140.5 -49.5t-142.5 -14.5q-118 0 -227 35.5t-196 101t-152 153t-100 197.5t-35 228q0 193 93.5 355.5t255 256t353.5 93.5q190 0 352.5 -95.5t257.5 -259t95 -354.5q0 -150 -57 -284t-163 -234zM1042 559l111 -172q57 82 77.5 141
t20.5 144q0 194 -128 327.5t-314 133.5q-181 0 -310.5 -132.5t-129.5 -318.5q0 -183 131.5 -316t312.5 -133q61 0 141 23l-108 170z" />
    <glyph glyph-name="r" unicode="r" horiz-adv-x="1542" 
d="M178 1366h766q97 0 136 -6.5t96 -32.5q114 -53 181.5 -158t67.5 -231q0 -92 -38 -177.5t-107 -146.5q-28 -25 -56 -39t-85 -34l297 -541h-297l-279 508h-422v-508h-260v1366zM438 768h557q70 0 121 48t51 114q0 47 -23 87.5t-63 65.5q-28 14 -48.5 18.5t-65.5 4.5h-529
v-338z" />
    <glyph glyph-name="s" unicode="s" horiz-adv-x="1474" 
d="M1272 1231l-137 -211q-134 69 -215.5 92t-194.5 23q-139 0 -212 -35t-73 -103q0 -54 35 -79q24 -15 50 -22.5t147 -31.5l325 -63q90 -19 140 -40t96 -59q61 -53 96 -130t35 -160q0 -200 -167 -319.5t-445 -119.5q-385 0 -643 201l147 213q124 -82 233.5 -118t239.5 -36
q96 0 182.5 18.5t137.5 49.5q26 17 42.5 49t16.5 66q0 68 -68 106q-20 10 -43.5 16t-146.5 31l-340 66q-153 31 -241.5 127.5t-88.5 232.5q0 185 146 291.5t401 106.5q154 0 279 -37t266 -125z" />
    <glyph glyph-name="t" unicode="t" horiz-adv-x="1202" 
d="M27 1366h1147v-246h-443v-1120h-260v1120h-444v246z" />
    <glyph glyph-name="u" unicode="u" horiz-adv-x="1583" 
d="M164 1366h260v-692q0 -99 5.5 -134.5t29.5 -88.5q44 -99 135.5 -159.5t198.5 -60.5q105 0 196 60.5t135 159.5q25 54 30 87t5 136v692h260v-684q0 -132 -13.5 -205t-51.5 -153q-75 -155 -232 -253t-329 -98q-174 0 -331.5 98t-232.5 253q-39 79 -52 150.5t-13 207.5v684z
" />
    <glyph glyph-name="v" unicode="v" horiz-adv-x="1488" 
d="M41 1366h283l419 -1044l422 1044h283l-561 -1366h-285z" />
    <glyph glyph-name="w" unicode="w" horiz-adv-x="1746" 
d="M82 1366h268l164 -836l231 836h259l229 -836l164 836h268l-281 -1366h-276l-234 864l-235 -864h-277z" />
    <glyph glyph-name="x" unicode="x" horiz-adv-x="1474" 
d="M102 1366h324l311 -422l314 422h323l-481 -641l528 -725h-319l-365 508l-362 -508h-320l527 725z" />
    <glyph glyph-name="y" unicode="y" horiz-adv-x="1542" 
d="M0 1366h332l440 -545l438 545h332l-641 -799v-567h-260v567z" />
    <glyph glyph-name="z" unicode="z" horiz-adv-x="1529" 
d="M180 1366h1213v-242l-891 -864h891v-260h-1256v272l885 848h-842v246z" />
    <glyph glyph-name="braceleft" unicode="{" horiz-adv-x="612" 
d="M422 1022v-246q-2 -98 -20 -147.5t-64 -77.5q46 -29 64 -79t20 -148v-246q0 -115 34.5 -156t129.5 -39v-188q-43 -2 -101 -2q-134 0 -184.5 13.5t-79.5 57.5q-45 64 -45 205v314q0 87 -20.5 129.5t-73.5 64.5v146q52 22 73 65t21 129v313q0 141 45 205q29 44 80 58
t184 14h101v-190q-95 2 -129.5 -39t-34.5 -156z" />
    <glyph glyph-name="bar" unicode="|" horiz-adv-x="1050" 
d="M422 1366h207v-1708h-207v1708z" />
    <glyph glyph-name="braceright" unicode="}" horiz-adv-x="612" 
d="M190 78v246q2 98 20 148t64 79q-46 28 -64 77.5t-20 147.5v246q0 115 -34 156t-129 39v190h100q133 0 184 -14t80 -58q45 -64 45 -205v-313q0 -86 21 -129t73 -65v-146q-53 -22 -73.5 -64.5t-20.5 -129.5v-314q0 -141 -45 -205q-29 -44 -79.5 -57.5t-184.5 -13.5
q-57 0 -100 2v188q95 -2 129 39t34 156z" />
    <glyph glyph-name="asciitilde" unicode="~" horiz-adv-x="1077" 
d="M147 1208l-65 127q104 142 252 142q71 0 223 -56q83 -30 117 -38.5t69 -8.5q55 0 98 24.5t89 80.5l65 -127q-97 -142 -262 -142q-42 0 -77.5 9.5t-163.5 54.5q-101 37 -166 37q-95 0 -179 -103z" />
    <glyph glyph-name="uni00A0" unicode="&#xa0;" horiz-adv-x="1079" 
 />
    <glyph glyph-name="exclamdown" unicode="&#xa1;" horiz-adv-x="409" 
d="M326 -344h-244l20 1006h203zM207 1022q54 0 93.5 -40t39.5 -95q0 -57 -39.5 -97t-95.5 -40q-57 0 -97 40t-40 97t40 96t99 39z" />
    <glyph glyph-name="cent" unicode="&#xa2;" horiz-adv-x="1105" 
d="M707 991v-645q112 26 170 125l161 -102q-106 -182 -331 -217v-125h-211v131q-175 38 -281 178.5t-106 333.5q0 192 107 332.5t280 177.5v153h211v-147q224 -34 331 -217l-161 -103q-60 97 -170 125zM496 356v625q-94 -34 -146.5 -115.5t-52.5 -195.5q0 -115 52.5 -197.5
t146.5 -116.5z" />
    <glyph glyph-name="sterling" unicode="&#xa3;" horiz-adv-x="1255" 
d="M436 838h305v-260h-305v-318h836v-260h-1202v260h108v318h-108v260h108v59q0 107 21.5 180.5t68.5 132.5q66 83 178.5 129.5t247.5 46.5q217 0 359.5 -118t142.5 -299v-82h-235v51q0 89 -50 145q-35 37 -95 59.5t-124 22.5q-149 0 -213 -86q-25 -34 -34 -79t-9 -134v-28z
" />
    <glyph glyph-name="currency" unicode="&#xa4;" horiz-adv-x="1320" 
d="M281 963l-172 172l116 114l170 -170q119 84 264 84q149 0 265 -84l172 170l116 -114l-174 -170q82 -121 82 -263q0 -141 -82 -262l174 -174l-116 -114l-174 172q-116 -82 -263 -82q-145 0 -262 84l-174 -174l-114 114l174 174q-82 121 -82 262q0 142 80 261zM664 999
q-125 0 -212 -85.5t-87 -208.5q0 -126 85.5 -214t208.5 -88q122 0 208.5 87.5t86.5 211.5q0 121 -85.5 209t-204.5 88z" />
    <glyph glyph-name="yen" unicode="&#xa5;" horiz-adv-x="1542" 
d="M1128 850h183v-203h-346l-64 -80v-28h410v-203h-410v-336h-260v336h-408v203h408v28l-66 80h-342v203h181l-414 516h332l438 -547l440 547h334z" />
    <glyph glyph-name="brokenbar" unicode="&#xa6;" horiz-adv-x="1050" 
d="M422 1366h207v-676h-207v676zM422 313h207v-655h-207v655z" />
    <glyph glyph-name="section" unicode="&#xa7;" horiz-adv-x="1478" 
d="M565 936l432 -100q190 -44 281.5 -136t91.5 -237q0 -168 -106 -260q30 -65 30 -125q0 -63 -31 -129t-83 -111q-72 -62 -181.5 -95.5t-240.5 -33.5q-295 0 -555 162l137 211q117 -61 217 -88t211 -27q119 0 192.5 31t73.5 82q0 57 -119 84l-432 102q-191 44 -282.5 136
t-91.5 237q0 168 106 260q-31 64 -31 125q0 63 31.5 128.5t83.5 111.5q147 129 422 129q295 0 555 -162l-137 -211q-224 115 -428 115q-119 0 -193 -31t-74 -82q0 -56 121 -86zM498 526l467 -118q59 -14 118 -39q29 36 29 80q0 49 -30.5 78t-98.5 48l-469 119
q-64 16 -119 39q-28 -35 -28 -80q0 -49 30.5 -78.5t100.5 -48.5z" />
    <glyph glyph-name="dieresis" unicode="&#xa8;" horiz-adv-x="1124" 
d="M285 1763q57 0 99 -42.5t42 -100.5q0 -60 -42 -102.5t-101 -42.5q-61 0 -103.5 42.5t-42.5 102.5t43 101.5t105 41.5zM846 1763q57 0 99 -42.5t42 -100.5q0 -60 -42 -102.5t-101 -42.5q-61 0 -103.5 42.5t-42.5 102.5t43 101.5t105 41.5z" />
    <glyph glyph-name="copyright" unicode="&#xa9;" horiz-adv-x="1660" 
d="M842 1386q139 0 267 -56.5t221 -150.5t148.5 -224t55.5 -271q0 -143 -56 -273.5t-150 -225t-224 -150t-273 -55.5q-192 0 -354 94.5t-256 257.5t-94 356q0 191 95.5 352t260 253.5t359.5 92.5zM840 1243q-258 0 -426 -186q-69 -75 -106.5 -171.5t-37.5 -197.5
q0 -155 74.5 -285t203.5 -205t283 -75q152 0 281 75t204 204t75 282q0 149 -75 278t-202 205t-274 76zM1180 926l-131 -82q-72 108 -209 108q-117 0 -188.5 -74t-71.5 -196t71.5 -196t188.5 -74q138 0 209 110l131 -84q-111 -182 -340 -182q-181 0 -297.5 120t-116.5 306
t116.5 306t297.5 120q229 0 340 -182z" />
    <glyph glyph-name="ordfeminine" unicode="&#xaa;" horiz-adv-x="688" 
d="M606 705v-148h-524v148h524zM606 793h-155v28q-66 -41 -154 -41q-92 0 -153.5 60t-61.5 151q0 95 65.5 154t171.5 59q56 0 132 -22v16q0 31 -5 41q-6 20 -34.5 33.5t-63.5 13.5q-60 0 -155 -41l-60 109q110 65 227 65q131 0 199 -88q28 -35 37.5 -68.5t9.5 -95.5v-374z
M451 956v99q-68 30 -115 30q-48 0 -76.5 -21.5t-28.5 -57.5q0 -37 32 -61.5t79 -24.5q56 0 109 36z" />
    <glyph glyph-name="guillemotleft" unicode="&#xab;" horiz-adv-x="886" 
d="M610 866h195l-117 -372l117 -373h-195l-133 373zM215 866h197l-117 -372l117 -373h-197l-133 373z" />
    <glyph glyph-name="logicalnot" unicode="&#xac;" horiz-adv-x="1050" 
d="M788 0v385h-706v176h887v-561h-181z" />
    <glyph glyph-name="uni00AD" unicode="&#xad;" horiz-adv-x="454" 
d="M455 713v-242h-455v242h455z" />
    <glyph glyph-name="registered" unicode="&#xae;" horiz-adv-x="1660" 
d="M1057 598l170 -311q164 167 164 395q0 114 -44.5 217.5t-119.5 178.5t-178.5 119t-217.5 44q-153 0 -282 -75t-204 -203.5t-75 -280.5q0 -114 44 -217.5t119 -178.5t178.5 -119t217.5 -44q106 0 207 39.5t176 109.5h-155l-166 306h-254v-306h-156v820h459q58 0 81.5 -4
t57.5 -19q68 -33 109 -96t41 -137q0 -86 -45 -149t-127 -89zM842 1386q140 0 268 -56.5t220.5 -151t148 -224.5t55.5 -272q0 -190 -94.5 -352t-256.5 -256t-352 -94q-192 0 -354 94.5t-256 257.5t-94 356q0 191 95.5 352t260 253.5t359.5 92.5zM637 733h334q43 0 73.5 29
t30.5 69q0 51 -32 79t-89 28h-317v-205z" />
    <glyph glyph-name="macron" unicode="&#xaf;" horiz-adv-x="1007" 
d="M872 1714v-194h-735v194h735z" />
    <glyph glyph-name="degree" unicode="&#xb0;" horiz-adv-x="729" 
d="M369 1296q-78 0 -133.5 -54t-55.5 -130q0 -77 54.5 -131.5t132.5 -54.5q75 0 129.5 55t54.5 131q0 75 -54 129.5t-128 54.5zM371 1382q107 0 185.5 -80t78.5 -190q0 -112 -78.5 -191t-189.5 -79q-114 0 -192.5 79t-78.5 193q0 113 80 190.5t195 77.5z" />
    <glyph glyph-name="plusminus" unicode="&#xb1;" horiz-adv-x="1122" 
d="M643 1251v-381h397v-165h-397v-414h-166v414h-395v165h395v381h166zM1040 166v-166h-958v166h958z" />
    <glyph glyph-name="twosuperior" unicode="&#xb2;" horiz-adv-x="917" 
d="M836 702v-155h-754q2 201 150.5 346t349.5 141q46 0 72 20t26 58q0 50 -61 83.5t-152 33.5q-69 0 -123.5 -21t-138.5 -78l-101 115q168 137 363 137q157 0 263 -76t106 -190q0 -66 -38.5 -125.5t-99.5 -87.5q-26 -12 -43 -14.5t-94 -5.5q-97 -1 -178.5 -54t-101.5 -127
h555z" />
    <glyph glyph-name="threesuperior" unicode="&#xb3;" horiz-adv-x="917" 
d="M221 1147l-90 123q88 60 162.5 86t161.5 26q79 0 152 -23t116 -61q28 -23 44.5 -64t16.5 -85q0 -94 -67 -152q119 -78 119 -202q0 -115 -107 -190t-270 -75q-220 0 -377 160l106 109q75 -61 136.5 -86t138.5 -25q94 0 154.5 32t60.5 81q0 55 -37.5 84.5t-105.5 29.5h-56
v156h58q46 0 71 19t25 53q0 38 -46 62t-120 24q-124 0 -246 -82z" />
    <glyph glyph-name="acute" unicode="&#xb4;" horiz-adv-x="581" 
d="M629 1753l-195 -272h-217l152 272h260z" />
    <glyph glyph-name="mu" unicode="&#xb5;" horiz-adv-x="1306" 
d="M422 -8v-238l-258 -96v1366h258v-553q0 -112 61 -175t170 -63q106 0 169 64t63 174v553h258v-1024h-258v49q-99 -40 -171.5 -56t-158.5 -16q-69 0 -133 15z" />
    <glyph glyph-name="paragraph" unicode="&#xb6;" horiz-adv-x="1241" 
d="M428 -287v930q-14 -2 -33 -2q-157 0 -255.5 98.5t-98.5 253.5q0 102 44 187t120 131q91 55 258 55h696v-252h-92v-1401h-246v1401h-147v-1401h-246z" />
    <glyph glyph-name="periodcentered" unicode="&#xb7;" horiz-adv-x="436" 
d="M221 674q54 0 93.5 -40t39.5 -95q0 -57 -39.5 -97.5t-95.5 -40.5q-57 0 -97 40.5t-40 97.5t40 96t99 39z" />
    <glyph glyph-name="cedilla" unicode="&#xb8;" horiz-adv-x="559" 
d="M248 16h162v-86q75 -6 114 -41.5t39 -97.5q0 -54 -34 -96.5t-97 -65.5q-41 -17 -86 -21.5t-145 -4.5v125q12 -2 28 -2q53 0 82 17t29 48q0 26 -22.5 46t-53.5 20q-10 0 -16 -2v161z" />
    <glyph glyph-name="onesuperior" unicode="&#xb9;" horiz-adv-x="432" 
d="M195 1366h116v-819h-155v608h-115v115q49 0 91.5 26.5t62.5 69.5z" />
    <glyph glyph-name="ordmasculine" unicode="&#xba;" horiz-adv-x="704" 
d="M623 705v-148h-539v148h539zM354 1419q113 0 191 -93t78 -226q0 -135 -78.5 -227.5t-192.5 -92.5t-192 92t-78 226q0 138 77.5 229.5t194.5 91.5zM356 1270q-52 0 -84 -46.5t-32 -121.5q0 -77 31.5 -124.5t82.5 -47.5q50 0 81.5 47.5t31.5 122.5q0 73 -32 121.5t-79 48.5
z" />
    <glyph glyph-name="guillemotright" unicode="&#xbb;" horiz-adv-x="886" 
d="M276 866l134 -372l-134 -373h-194l117 373l-117 372h194zM672 866l133 -372l-133 -373h-195l117 373l-117 372h195z" />
    <glyph glyph-name="onequarter" unicode="&#xbc;" horiz-adv-x="1533" 
d="M827 1374l-360 -1374h-168l360 1374h168zM209 1366h117v-819h-156v608h-115v115q49 0 91.5 26.5t62.5 69.5zM1384 819v-512h99v-147h-99v-160h-155v160h-565v147l565 512h155zM1229 307v314l-344 -314h344z" />
    <glyph glyph-name="onehalf" unicode="&#xbd;" horiz-adv-x="1533" 
d="M827 1374l-360 -1374h-168l360 1374h168zM209 1366h117v-819h-156v608h-115v115q49 0 91.5 26.5t62.5 69.5zM1481 156v-156h-754q2 201 150.5 346t349.5 141q46 0 72 20t26 58q0 50 -61 83.5t-152 33.5q-69 0 -124 -20.5t-138 -77.5l-100 114q170 138 362 138
q157 0 263 -76.5t106 -190.5q0 -66 -38.5 -125.5t-99.5 -87.5q-26 -12 -43.5 -14.5t-93.5 -5.5q-97 -1 -178.5 -53.5t-101.5 -126.5h555z" />
    <glyph glyph-name="threequarters" unicode="&#xbe;" horiz-adv-x="1933" 
d="M1227 1374l-361 -1374h-168l361 1374h168zM1784 819v-512h98v-147h-98v-160h-156v160h-565v147l565 512h156zM1628 307v314l-346 -314h346zM180 1147l-90 123q88 60 162.5 86t161.5 26q79 0 152 -23t116 -61q28 -23 44.5 -64t16.5 -85q0 -94 -67 -152q119 -78 119 -202
q0 -115 -107 -190t-270 -75q-220 0 -377 160l106 109q75 -61 136.5 -86t138.5 -25q94 0 154.5 32t60.5 81q0 55 -37.5 84.5t-105.5 29.5h-56v156h58q46 0 71 19t25 53q0 38 -46 62t-120 24q-124 0 -246 -82z" />
    <glyph glyph-name="questiondown" unicode="&#xbf;" horiz-adv-x="1048" 
d="M532 659h246v-57q2 -82 -16.5 -131.5t-71 -103t-180.5 -152.5q-86 -66 -121 -114t-35 -99q0 -70 85 -107.5t245 -37.5q91 0 153 9.5t130 33.5v-242q-133 -25 -277 -25q-282 0 -445 98t-163 267q0 91 51.5 162.5t214.5 208.5q112 93 145.5 138t38.5 107v45zM655 1018
q56 0 96 -40t40 -97t-40.5 -96.5t-99.5 -39.5q-54 0 -93.5 40.5t-39.5 95.5q0 57 40 97t97 40z" />
    <glyph glyph-name="Agrave" unicode="&#xc0;" 
d="M676 1366h272l635 -1366h-283l-141 299h-692l-141 -299h-285zM586 553h452l-225 483zM512 1753h260l152 -272h-217z" />
    <glyph glyph-name="Aacute" unicode="&#xc1;" 
d="M676 1366h272l635 -1366h-283l-141 299h-692l-141 -299h-285zM586 553h452l-225 483zM1130 1753l-194 -272h-217l149 272h262z" />
    <glyph glyph-name="Acircumflex" unicode="&#xc2;" 
d="M676 1366h272l635 -1366h-283l-141 299h-692l-141 -299h-285zM586 553h452l-225 483zM946 1751l211 -270h-248l-96 147l-98 -147h-246l211 270h266z" />
    <glyph glyph-name="Atilde" unicode="&#xc3;" 
d="M676 1366h272l635 -1366h-283l-141 299h-692l-141 -299h-285zM586 553h452l-225 483zM997 1724h168q-8 -123 -55.5 -180t-144.5 -57q-73 0 -164 55q-74 45 -111 45q-58 0 -61 -74h-168q5 65 14 100t31 64q26 35 68.5 55.5t89.5 20.5q81 0 180 -59q62 -39 94 -39
q25 0 38.5 15.5t20.5 53.5z" />
    <glyph glyph-name="Adieresis" unicode="&#xc4;" 
d="M676 1366h272l635 -1366h-283l-141 299h-692l-141 -299h-285zM586 553h452l-225 483zM535 1763q57 0 99 -42.5t42 -100.5q0 -60 -42.5 -102.5t-101.5 -42.5q-61 0 -103 42.5t-42 102.5t43 101.5t105 41.5zM1096 1763q57 0 99 -42.5t42 -100.5q0 -60 -42 -102.5
t-101 -42.5q-61 0 -103.5 42.5t-42.5 102.5t43 101.5t105 41.5z" />
    <glyph glyph-name="Aring" unicode="&#xc5;" 
d="M676 1366h272l635 -1366h-283l-141 299h-692l-141 -299h-285zM586 553h452l-225 483zM813 1718q-34 0 -57 -23t-23 -55q0 -34 22.5 -56.5t55.5 -22.5q34 0 57 22.5t23 54.5q0 34 -23 57t-55 23zM817 1849q85 0 146 -62.5t61 -148.5q0 -88 -61.5 -149.5t-149.5 -61.5
t-149.5 62t-61.5 151q0 86 63 147.5t152 61.5z" />
    <glyph glyph-name="AE" unicode="&#xc6;" horiz-adv-x="2011" 
d="M543 485l-260 -485h-283l739 1366h1182v-260h-811v-361h469v-260h-469v-225h834v-260h-1094v485h-307zM680 745h170v316z" />
    <glyph glyph-name="Ccedilla" unicode="&#xc7;" horiz-adv-x="1433" 
d="M866 -25v-45q152 -12 152 -139q0 -54 -34 -96.5t-97 -65.5q-42 -15 -89.5 -20.5t-140.5 -5.5v127q12 -2 27 -2q53 0 82 17t29 48q0 26 -22.5 46t-51.5 20q-8 0 -16 -2v120q-175 21 -310.5 117t-210.5 249.5t-75 340.5q0 152 51.5 284t142 225.5t218 146.5t274.5 53
q384 0 569 -303l-219 -138q-60 92 -145 136.5t-203 44.5q-195 0 -315 -124t-120 -325q0 -202 120 -326.5t315 -124.5q118 0 203 44.5t145 138.5l219 -140q-151 -263 -498 -301z" />
    <glyph glyph-name="Egrave" unicode="&#xc8;" horiz-adv-x="1337" 
d="M178 1366h1069v-260h-809v-252h469v-260h-469v-334h832v-260h-1092v1366zM467 1753h260l152 -272h-217z" />
    <glyph glyph-name="Eacute" unicode="&#xc9;" horiz-adv-x="1337" 
d="M178 1366h1069v-260h-809v-252h469v-260h-469v-334h832v-260h-1092v1366zM1026 1753l-195 -272h-217l152 272h260z" />
    <glyph glyph-name="Ecircumflex" unicode="&#xca;" horiz-adv-x="1337" 
d="M178 1366h1069v-260h-809v-252h469v-260h-469v-334h832v-260h-1092v1366zM858 1751l211 -270h-248l-96 147l-98 -147h-246l211 270h266z" />
    <glyph glyph-name="Edieresis" unicode="&#xcb;" horiz-adv-x="1337" 
d="M178 1366h1069v-260h-809v-252h469v-260h-469v-334h832v-260h-1092v1366zM463 1763q57 0 99 -42.5t42 -100.5q0 -60 -42 -102.5t-101 -42.5q-61 0 -103.5 42.5t-42.5 102.5t43 101.5t105 41.5zM1024 1763q57 0 99 -42.5t42 -100.5q0 -60 -42 -102.5t-101 -42.5
q-61 0 -103 42.5t-42 102.5t42.5 101.5t104.5 41.5z" />
    <glyph glyph-name="Igrave" unicode="&#xcc;" horiz-adv-x="614" 
d="M178 1366h260v-1366h-260v1366zM23 1753h260l151 -272h-217z" />
    <glyph glyph-name="Iacute" unicode="&#xcd;" horiz-adv-x="614" 
d="M178 1366h260v-1366h-260v1366zM623 1753l-197 -272h-215l149 272h263z" />
    <glyph glyph-name="Icircumflex" unicode="&#xce;" horiz-adv-x="614" 
d="M178 1366h260v-1366h-260v1366zM440 1751l211 -270h-245l-99 147l-98 -147h-246l211 270h266z" />
    <glyph glyph-name="Idieresis" unicode="&#xcf;" horiz-adv-x="614" 
d="M176 1366h260v-1366h-260v1366zM115 1763q57 0 99 -42.5t42 -100.5q0 -60 -42 -102.5t-101 -42.5q-61 0 -103.5 42.5t-42.5 102.5t43 101.5t105 41.5zM504 1763q57 0 99 -42.5t42 -100.5q0 -60 -42 -102.5t-101 -42.5q-61 0 -103.5 42.5t-42.5 102.5t43 101.5t105 41.5z
" />
    <glyph glyph-name="Eth" unicode="&#xd0;" horiz-adv-x="1542" 
d="M178 588h-123v194h123v584h533q146 0 242 -28t192 -97q139 -103 214 -248.5t75 -314.5q0 -174 -82.5 -325t-231.5 -247q-92 -61 -178.5 -83.5t-228.5 -22.5h-535v588zM438 588v-328h285q189 0 320 122.5t131 299.5t-131.5 300.5t-319.5 123.5h-285v-324h291v-194h-291z
" />
    <glyph glyph-name="Ntilde" unicode="&#xd1;" horiz-adv-x="1611" 
d="M1434 1366v-1366h-250l-746 926v-926h-260v1366h232l764 -938v938h260zM991 1724h168q-7 -123 -55.5 -180t-145.5 -57q-72 0 -163 55q-74 45 -111 45q-58 0 -61 -74h-168q5 65 14 100t31 64q26 35 68 55.5t89 20.5q82 0 181 -59q62 -39 94 -39q25 0 38.5 15.5t20.5 53.5z
" />
    <glyph glyph-name="Ograve" unicode="&#xd2;" 
d="M811 1393q194 0 356.5 -94t255.5 -257t93 -358q0 -197 -93.5 -360.5t-256 -257t-359.5 -93.5q-146 0 -284 62t-236 172q-178 196 -178 487q0 189 94 350t256 255t352 94zM811 1133q-180 0 -311 -131t-131 -312q0 -191 128 -324t312 -133q186 0 316 131.5t130 319.5
q0 185 -130 317t-314 132zM557 1753h262l150 -272h-215z" />
    <glyph glyph-name="Oacute" unicode="&#xd3;" 
d="M811 1393q194 0 356.5 -94t255.5 -257t93 -358q0 -197 -93.5 -360.5t-256 -257t-359.5 -93.5q-146 0 -284 62t-236 172q-178 196 -178 487q0 189 94 350t256 255t352 94zM811 1133q-180 0 -311 -131t-131 -312q0 -191 128 -324t312 -133q186 0 316 131.5t130 319.5
q0 185 -130 317t-314 132zM1102 1753l-195 -272h-217l152 272h260z" />
    <glyph glyph-name="Ocircumflex" unicode="&#xd4;" 
d="M811 1393q194 0 356.5 -94t255.5 -257t93 -358q0 -197 -93.5 -360.5t-256 -257t-359.5 -93.5q-146 0 -284 62t-236 172q-178 196 -178 487q0 189 94 350t256 255t352 94zM811 1133q-180 0 -311 -131t-131 -312q0 -191 128 -324t312 -133q186 0 316 131.5t130 319.5
q0 185 -130 317t-314 132zM944 1751l211 -270h-246l-98 147l-96 -147h-248l211 270h266z" />
    <glyph glyph-name="Otilde" unicode="&#xd5;" 
d="M811 1393q194 0 356.5 -94t255.5 -257t93 -358q0 -197 -93.5 -360.5t-256 -257t-359.5 -93.5q-146 0 -284 62t-236 172q-178 196 -178 487q0 189 94 350t256 255t352 94zM811 1133q-180 0 -311 -131t-131 -312q0 -191 128 -324t312 -133q186 0 316 131.5t130 319.5
q0 185 -130 317t-314 132zM997 1724h166q-6 -123 -54 -180t-144 -57q-73 0 -164 55q-74 45 -111 45q-57 0 -63 -74h-168q5 66 14.5 100.5t32.5 63.5q25 35 67.5 55.5t90.5 20.5q81 0 180 -59q62 -39 94 -39q25 0 38.5 15.5t20.5 53.5z" />
    <glyph glyph-name="Odieresis" unicode="&#xd6;" 
d="M811 1393q194 0 356.5 -94t255.5 -257t93 -358q0 -197 -93.5 -360.5t-256 -257t-359.5 -93.5q-146 0 -284 62t-236 172q-178 196 -178 487q0 189 94 350t256 255t352 94zM811 1133q-180 0 -311 -131t-131 -312q0 -191 128 -324t312 -133q186 0 316 131.5t130 319.5
q0 185 -130 317t-314 132zM535 1763q57 0 99 -42.5t42 -100.5q0 -60 -42.5 -102.5t-101.5 -42.5q-61 0 -103 42.5t-42 102.5t43 101.5t105 41.5zM1096 1763q57 0 99 -42.5t42 -100.5q0 -60 -42 -102.5t-101 -42.5q-61 0 -103.5 42.5t-42.5 102.5t43 101.5t105 41.5z" />
    <glyph glyph-name="multiply" unicode="&#xd7;" horiz-adv-x="970" 
d="M602 688l287 -287l-117 -116l-287 286l-286 -286l-117 116l287 287l-287 287l117 117l286 -287l287 287l117 -117z" />
    <glyph glyph-name="Oslash" unicode="&#xd8;" 
d="M1417 1298l-92 -124q93 -98 142 -224t49 -268q0 -195 -93 -358t-255.5 -257t-356.5 -94q-161 0 -311 72l-94 -127l-181 127l92 129q-101 98 -154.5 229.5t-53.5 280.5q0 196 93 358.5t255.5 256.5t357.5 94q181 0 330 -82l86 121zM1165 954l-508 -692q71 -29 152 -29
q186 0 316 131.5t130 317.5q0 148 -90 272zM475 391l512 705q-81 37 -174 37q-184 0 -314 -131.5t-130 -317.5q0 -169 106 -293z" />
    <glyph glyph-name="Ugrave" unicode="&#xd9;" horiz-adv-x="1583" 
d="M164 1366h260v-692q0 -99 5.5 -134.5t29.5 -88.5q44 -99 135.5 -159.5t198.5 -60.5q105 0 196 60.5t135 159.5q25 54 30 87t5 136v692h260v-684q0 -132 -13.5 -205t-51.5 -153q-75 -155 -232 -253t-329 -98q-174 0 -331.5 98t-232.5 253q-39 79 -52 150.5t-13 207.5v684z
M553 1753h262l150 -272h-215z" />
    <glyph glyph-name="Uacute" unicode="&#xda;" horiz-adv-x="1583" 
d="M164 1366h260v-692q0 -99 5.5 -134.5t29.5 -88.5q44 -99 135.5 -159.5t198.5 -60.5q105 0 196 60.5t135 159.5q25 54 30 87t5 136v692h260v-684q0 -132 -13.5 -205t-51.5 -153q-75 -155 -232 -253t-329 -98q-174 0 -331.5 98t-232.5 253q-39 79 -52 150.5t-13 207.5v684z
M1114 1753l-194 -272h-218l150 272h262z" />
    <glyph glyph-name="Ucircumflex" unicode="&#xdb;" horiz-adv-x="1583" 
d="M164 1366h260v-692q0 -99 5.5 -134.5t29.5 -88.5q44 -99 135.5 -159.5t198.5 -60.5q105 0 196 60.5t135 159.5q25 54 30 87t5 136v692h260v-684q0 -132 -13.5 -205t-51.5 -153q-75 -155 -232 -253t-329 -98q-174 0 -331.5 98t-232.5 253q-39 79 -52 150.5t-13 207.5v684z
M926 1751l211 -270h-248l-96 147l-99 -147h-245l210 270h267z" />
    <glyph glyph-name="Udieresis" unicode="&#xdc;" horiz-adv-x="1583" 
d="M164 1366h260v-692q0 -99 5.5 -134.5t29.5 -88.5q44 -99 135.5 -159.5t198.5 -60.5q105 0 196 60.5t135 159.5q25 54 30 87t5 136v692h260v-684q0 -132 -13.5 -205t-51.5 -153q-75 -155 -232 -253t-329 -98q-174 0 -331.5 98t-232.5 253q-39 79 -52 150.5t-13 207.5v684z
M514 1763q57 0 99 -42.5t42 -100.5q0 -60 -42 -102.5t-101 -42.5q-61 0 -103 42.5t-42 102.5t42.5 101.5t104.5 41.5zM1075 1763q57 0 99.5 -42.5t42.5 -100.5q0 -60 -42.5 -102.5t-101.5 -42.5q-61 0 -103 42.5t-42 102.5t42.5 101.5t104.5 41.5z" />
    <glyph glyph-name="Yacute" unicode="&#xdd;" horiz-adv-x="1542" 
d="M0 1366h332l440 -545l438 545h332l-641 -799v-567h-260v567zM1081 1753l-194 -272h-217l151 272h260z" />
    <glyph glyph-name="Thorn" unicode="&#xde;" horiz-adv-x="1488" 
d="M178 1366h260v-227h518q98 0 136.5 -6.5t93.5 -32.5q114 -53 182 -158t68 -231q0 -118 -62 -219.5t-170 -161.5q-57 -31 -111 -39t-208 -8h-447v-283h-260v1366zM438 543h568q69 0 120.5 48.5t51.5 113.5q0 45 -23.5 86.5t-62.5 64.5q-47 23 -115 23h-539v-336z" />
    <glyph glyph-name="germandbls" unicode="&#xdf;" horiz-adv-x="1458" 
d="M700 -2v221h166q121 0 164 21q96 46 96 135q0 44 -41 91t-180 163q-28 23 -44.5 55.5t-16.5 63.5q0 29 14.5 54t75.5 101q65 79 65 123q0 68 -68 108t-183 40q-194 0 -267 -89q-25 -31 -35 -68.5t-10 -98.5v-918h-258v899q0 153 28 232.5t103 142.5q143 119 424 119
q239 0 377.5 -93t138.5 -253q0 -55 -19 -98.5t-69 -102.5q-53 -58 -53 -82q0 -33 61 -80q113 -91 160 -166.5t47 -165.5q0 -152 -113 -254t-282 -102h-70z" />
    <glyph glyph-name="agrave" unicode="&#xe0;" 
d="M676 1366h272l635 -1366h-283l-141 299h-692l-141 -299h-285zM586 553h452l-225 483zM512 1753h260l152 -272h-217z" />
    <glyph glyph-name="aacute" unicode="&#xe1;" 
d="M676 1366h272l635 -1366h-283l-141 299h-692l-141 -299h-285zM586 553h452l-225 483zM1130 1753l-194 -272h-217l149 272h262z" />
    <glyph glyph-name="acircumflex" unicode="&#xe2;" 
d="M676 1366h272l635 -1366h-283l-141 299h-692l-141 -299h-285zM586 553h452l-225 483zM946 1751l211 -270h-248l-96 147l-98 -147h-246l211 270h266z" />
    <glyph glyph-name="atilde" unicode="&#xe3;" 
d="M676 1366h272l635 -1366h-283l-141 299h-692l-141 -299h-285zM586 553h452l-225 483zM997 1724h168q-8 -123 -55.5 -180t-144.5 -57q-73 0 -164 55q-74 45 -111 45q-58 0 -61 -74h-168q5 65 14 100t31 64q26 35 68.5 55.5t89.5 20.5q81 0 180 -59q62 -39 94 -39
q25 0 38.5 15.5t20.5 53.5z" />
    <glyph glyph-name="adieresis" unicode="&#xe4;" 
d="M676 1366h272l635 -1366h-283l-141 299h-692l-141 -299h-285zM586 553h452l-225 483zM535 1763q57 0 99 -42.5t42 -100.5q0 -60 -42.5 -102.5t-101.5 -42.5q-61 0 -103 42.5t-42 102.5t43 101.5t105 41.5zM1096 1763q57 0 99 -42.5t42 -100.5q0 -60 -42 -102.5
t-101 -42.5q-61 0 -103.5 42.5t-42.5 102.5t43 101.5t105 41.5z" />
    <glyph glyph-name="aring" unicode="&#xe5;" 
d="M676 1366h272l635 -1366h-283l-141 299h-692l-141 -299h-285zM586 553h452l-225 483zM813 1718q-34 0 -57 -23t-23 -55q0 -34 22.5 -56.5t55.5 -22.5q34 0 57 22.5t23 54.5q0 34 -23 57t-55 23zM817 1849q85 0 146 -62.5t61 -148.5q0 -88 -61.5 -149.5t-149.5 -61.5
t-149.5 62t-61.5 151q0 86 63 147.5t152 61.5z" />
    <glyph glyph-name="ae" unicode="&#xe6;" horiz-adv-x="2011" 
d="M543 485l-260 -485h-283l739 1366h1182v-260h-811v-361h469v-260h-469v-225h834v-260h-1094v485h-307zM680 745h170v316z" />
    <glyph glyph-name="ccedilla" unicode="&#xe7;" horiz-adv-x="1433" 
d="M866 -25v-45q152 -12 152 -139q0 -54 -34 -96.5t-97 -65.5q-42 -15 -89.5 -20.5t-140.5 -5.5v127q12 -2 27 -2q53 0 82 17t29 48q0 26 -22.5 46t-51.5 20q-8 0 -16 -2v120q-175 21 -310.5 117t-210.5 249.5t-75 340.5q0 152 51.5 284t142 225.5t218 146.5t274.5 53
q384 0 569 -303l-219 -138q-60 92 -145 136.5t-203 44.5q-195 0 -315 -124t-120 -325q0 -202 120 -326.5t315 -124.5q118 0 203 44.5t145 138.5l219 -140q-151 -263 -498 -301z" />
    <glyph glyph-name="egrave" unicode="&#xe8;" horiz-adv-x="1337" 
d="M178 1366h1069v-260h-809v-252h469v-260h-469v-334h832v-260h-1092v1366zM467 1753h260l152 -272h-217z" />
    <glyph glyph-name="eacute" unicode="&#xe9;" horiz-adv-x="1337" 
d="M178 1366h1069v-260h-809v-252h469v-260h-469v-334h832v-260h-1092v1366zM1026 1753l-195 -272h-217l152 272h260z" />
    <glyph glyph-name="ecircumflex" unicode="&#xea;" horiz-adv-x="1337" 
d="M178 1366h1069v-260h-809v-252h469v-260h-469v-334h832v-260h-1092v1366zM858 1751l211 -270h-248l-96 147l-98 -147h-246l211 270h266z" />
    <glyph glyph-name="edieresis" unicode="&#xeb;" horiz-adv-x="1337" 
d="M178 1366h1069v-260h-809v-252h469v-260h-469v-334h832v-260h-1092v1366zM463 1763q57 0 99 -42.5t42 -100.5q0 -60 -42 -102.5t-101 -42.5q-61 0 -103.5 42.5t-42.5 102.5t43 101.5t105 41.5zM1024 1763q57 0 99 -42.5t42 -100.5q0 -60 -42 -102.5t-101 -42.5
q-61 0 -103 42.5t-42 102.5t42.5 101.5t104.5 41.5z" />
    <glyph glyph-name="igrave" unicode="&#xec;" horiz-adv-x="614" 
d="M178 1366h260v-1366h-260v1366zM23 1753h260l151 -272h-217z" />
    <glyph glyph-name="iacute" unicode="&#xed;" horiz-adv-x="614" 
d="M178 1366h260v-1366h-260v1366zM623 1753l-197 -272h-215l149 272h263z" />
    <glyph glyph-name="icircumflex" unicode="&#xee;" horiz-adv-x="614" 
d="M178 1366h260v-1366h-260v1366zM440 1751l211 -270h-245l-99 147l-98 -147h-246l211 270h266z" />
    <glyph glyph-name="idieresis" unicode="&#xef;" horiz-adv-x="614" 
d="M176 1366h260v-1366h-260v1366zM115 1763q57 0 99 -42.5t42 -100.5q0 -60 -42 -102.5t-101 -42.5q-61 0 -103.5 42.5t-42.5 102.5t43 101.5t105 41.5zM504 1763q57 0 99 -42.5t42 -100.5q0 -60 -42 -102.5t-101 -42.5q-61 0 -103.5 42.5t-42.5 102.5t43 101.5t105 41.5z
" />
    <glyph glyph-name="eth" unicode="&#xf0;" horiz-adv-x="1474" 
d="M1059 1282l194 109l136 -148l-158 -86q120 -117 189 -284.5t69 -342.5q0 -275 -164 -413q-170 -144 -469 -144q-134 0 -257.5 33.5t-209.5 93.5q-158 110 -158 310q0 192 177.5 313t461.5 121q93 0 157 -11.5t151 -44.5q-41 92 -79.5 140.5t-107.5 95.5l-225 -125
l-141 145l131 72q-25 4 -68 4q-64 0 -162 -18l-61 252q96 26 190 26q221 0 404 -98zM868 582q-175 0 -309 -70q-74 -38 -74 -102q0 -67 74 -105q129 -69 315 -69q155 0 244.5 46t89.5 126q0 82 -90 128t-250 46z" />
    <glyph glyph-name="ntilde" unicode="&#xf1;" horiz-adv-x="1611" 
d="M1434 1366v-1366h-250l-746 926v-926h-260v1366h232l764 -938v938h260zM991 1724h168q-7 -123 -55.5 -180t-145.5 -57q-72 0 -163 55q-74 45 -111 45q-58 0 -61 -74h-168q5 65 14 100t31 64q26 35 68 55.5t89 20.5q82 0 181 -59q62 -39 94 -39q25 0 38.5 15.5t20.5 53.5z
" />
    <glyph glyph-name="ograve" unicode="&#xf2;" 
d="M811 1393q194 0 356.5 -94t255.5 -257t93 -358q0 -197 -93.5 -360.5t-256 -257t-359.5 -93.5q-146 0 -284 62t-236 172q-178 196 -178 487q0 189 94 350t256 255t352 94zM811 1133q-180 0 -311 -131t-131 -312q0 -191 128 -324t312 -133q186 0 316 131.5t130 319.5
q0 185 -130 317t-314 132zM557 1753h262l150 -272h-215z" />
    <glyph glyph-name="oacute" unicode="&#xf3;" 
d="M811 1393q194 0 356.5 -94t255.5 -257t93 -358q0 -197 -93.5 -360.5t-256 -257t-359.5 -93.5q-146 0 -284 62t-236 172q-178 196 -178 487q0 189 94 350t256 255t352 94zM811 1133q-180 0 -311 -131t-131 -312q0 -191 128 -324t312 -133q186 0 316 131.5t130 319.5
q0 185 -130 317t-314 132zM1102 1753l-195 -272h-217l152 272h260z" />
    <glyph glyph-name="ocircumflex" unicode="&#xf4;" 
d="M811 1393q194 0 356.5 -94t255.5 -257t93 -358q0 -197 -93.5 -360.5t-256 -257t-359.5 -93.5q-146 0 -284 62t-236 172q-178 196 -178 487q0 189 94 350t256 255t352 94zM811 1133q-180 0 -311 -131t-131 -312q0 -191 128 -324t312 -133q186 0 316 131.5t130 319.5
q0 185 -130 317t-314 132zM944 1751l211 -270h-246l-98 147l-96 -147h-248l211 270h266z" />
    <glyph glyph-name="otilde" unicode="&#xf5;" 
d="M811 1393q194 0 356.5 -94t255.5 -257t93 -358q0 -197 -93.5 -360.5t-256 -257t-359.5 -93.5q-146 0 -284 62t-236 172q-178 196 -178 487q0 189 94 350t256 255t352 94zM811 1133q-180 0 -311 -131t-131 -312q0 -191 128 -324t312 -133q186 0 316 131.5t130 319.5
q0 185 -130 317t-314 132zM997 1724h166q-6 -123 -54 -180t-144 -57q-73 0 -164 55q-74 45 -111 45q-57 0 -63 -74h-168q5 66 14.5 100.5t32.5 63.5q25 35 67.5 55.5t90.5 20.5q81 0 180 -59q62 -39 94 -39q25 0 38.5 15.5t20.5 53.5z" />
    <glyph glyph-name="odieresis" unicode="&#xf6;" 
d="M811 1393q194 0 356.5 -94t255.5 -257t93 -358q0 -197 -93.5 -360.5t-256 -257t-359.5 -93.5q-146 0 -284 62t-236 172q-178 196 -178 487q0 189 94 350t256 255t352 94zM811 1133q-180 0 -311 -131t-131 -312q0 -191 128 -324t312 -133q186 0 316 131.5t130 319.5
q0 185 -130 317t-314 132zM535 1763q57 0 99 -42.5t42 -100.5q0 -60 -42.5 -102.5t-101.5 -42.5q-61 0 -103 42.5t-42 102.5t43 101.5t105 41.5zM1096 1763q57 0 99 -42.5t42 -100.5q0 -60 -42 -102.5t-101 -42.5q-61 0 -103.5 42.5t-42.5 102.5t43 101.5t105 41.5z" />
    <glyph glyph-name="divide" unicode="&#xf7;" horiz-adv-x="1122" 
d="M1040 782v-166h-958v166h958zM563 449q54 0 93.5 -40.5t39.5 -95.5q0 -57 -39.5 -97t-95.5 -40q-57 0 -97 40t-40 97t40.5 96.5t98.5 39.5zM563 1194q54 0 93.5 -40t39.5 -95q0 -57 -39.5 -97t-95.5 -40q-57 0 -97 40t-40 97t40 96t99 39z" />
    <glyph glyph-name="oslash" unicode="&#xf8;" 
d="M1417 1298l-92 -124q93 -98 142 -224t49 -268q0 -195 -93 -358t-255.5 -257t-356.5 -94q-161 0 -311 72l-94 -127l-181 127l92 129q-101 98 -154.5 229.5t-53.5 280.5q0 196 93 358.5t255.5 256.5t357.5 94q181 0 330 -82l86 121zM1165 954l-508 -692q71 -29 152 -29
q186 0 316 131.5t130 317.5q0 148 -90 272zM475 391l512 705q-81 37 -174 37q-184 0 -314 -131.5t-130 -317.5q0 -169 106 -293z" />
    <glyph glyph-name="ugrave" unicode="&#xf9;" horiz-adv-x="1583" 
d="M164 1366h260v-692q0 -99 5.5 -134.5t29.5 -88.5q44 -99 135.5 -159.5t198.5 -60.5q105 0 196 60.5t135 159.5q25 54 30 87t5 136v692h260v-684q0 -132 -13.5 -205t-51.5 -153q-75 -155 -232 -253t-329 -98q-174 0 -331.5 98t-232.5 253q-39 79 -52 150.5t-13 207.5v684z
M553 1753h262l150 -272h-215z" />
    <glyph glyph-name="uacute" unicode="&#xfa;" horiz-adv-x="1583" 
d="M164 1366h260v-692q0 -99 5.5 -134.5t29.5 -88.5q44 -99 135.5 -159.5t198.5 -60.5q105 0 196 60.5t135 159.5q25 54 30 87t5 136v692h260v-684q0 -132 -13.5 -205t-51.5 -153q-75 -155 -232 -253t-329 -98q-174 0 -331.5 98t-232.5 253q-39 79 -52 150.5t-13 207.5v684z
M1114 1753l-194 -272h-218l150 272h262z" />
    <glyph glyph-name="ucircumflex" unicode="&#xfb;" horiz-adv-x="1583" 
d="M164 1366h260v-692q0 -99 5.5 -134.5t29.5 -88.5q44 -99 135.5 -159.5t198.5 -60.5q105 0 196 60.5t135 159.5q25 54 30 87t5 136v692h260v-684q0 -132 -13.5 -205t-51.5 -153q-75 -155 -232 -253t-329 -98q-174 0 -331.5 98t-232.5 253q-39 79 -52 150.5t-13 207.5v684z
M926 1751l211 -270h-248l-96 147l-99 -147h-245l210 270h267z" />
    <glyph glyph-name="udieresis" unicode="&#xfc;" horiz-adv-x="1583" 
d="M164 1366h260v-692q0 -99 5.5 -134.5t29.5 -88.5q44 -99 135.5 -159.5t198.5 -60.5q105 0 196 60.5t135 159.5q25 54 30 87t5 136v692h260v-684q0 -132 -13.5 -205t-51.5 -153q-75 -155 -232 -253t-329 -98q-174 0 -331.5 98t-232.5 253q-39 79 -52 150.5t-13 207.5v684z
M514 1763q57 0 99 -42.5t42 -100.5q0 -60 -42 -102.5t-101 -42.5q-61 0 -103 42.5t-42 102.5t42.5 101.5t104.5 41.5zM1075 1763q57 0 99.5 -42.5t42.5 -100.5q0 -60 -42.5 -102.5t-101.5 -42.5q-61 0 -103 42.5t-42 102.5t42.5 101.5t104.5 41.5z" />
    <glyph glyph-name="yacute" unicode="&#xfd;" horiz-adv-x="1542" 
d="M0 1366h332l440 -545l438 545h332l-641 -799v-567h-260v567zM1081 1753l-194 -272h-217l151 272h260z" />
    <glyph glyph-name="thorn" unicode="&#xfe;" horiz-adv-x="1488" 
d="M178 1366h260v-227h518q98 0 136.5 -6.5t93.5 -32.5q114 -53 182 -158t68 -231q0 -118 -62 -219.5t-170 -161.5q-57 -31 -111 -39t-208 -8h-447v-283h-260v1366zM438 543h568q69 0 120.5 48.5t51.5 113.5q0 45 -23.5 86.5t-62.5 64.5q-47 23 -115 23h-539v-336z" />
    <glyph glyph-name="ydieresis" unicode="&#xff;" horiz-adv-x="1542" 
d="M0 1366h332l440 -545l438 545h332l-641 -799v-567h-260v567zM494 1763q57 0 99 -42.5t42 -100.5q0 -60 -42 -102.5t-101 -42.5q-61 0 -103.5 42.5t-42.5 102.5t43 101.5t105 41.5zM1055 1763q57 0 99 -42.5t42 -100.5q0 -60 -42 -102.5t-101 -42.5q-61 0 -103.5 42.5
t-42.5 102.5t43 101.5t105 41.5z" />
    <glyph glyph-name="Amacron" unicode="&#x100;" 
d="M676 1366h272l635 -1366h-283l-141 299h-692l-141 -299h-285zM586 553h452l-225 483zM1180 1714v-194h-736v194h736z" />
    <glyph glyph-name="amacron" unicode="&#x101;" 
d="M676 1366h272l635 -1366h-283l-141 299h-692l-141 -299h-285zM586 553h452l-225 483zM1180 1714v-194h-736v194h736z" />
    <glyph glyph-name="Abreve" unicode="&#x102;" 
d="M676 1366h272l635 -1366h-283l-141 299h-692l-141 -299h-285zM586 553h452l-225 483zM936 1726h203q-38 -251 -326 -251q-287 0 -328 251h203q24 -92 125 -92q99 0 123 92z" />
    <glyph glyph-name="abreve" unicode="&#x103;" 
d="M676 1366h272l635 -1366h-283l-141 299h-692l-141 -299h-285zM586 553h452l-225 483zM936 1726h203q-38 -251 -326 -251q-287 0 -328 251h203q24 -92 125 -92q99 0 123 92z" />
    <glyph glyph-name="Aogonek" unicode="&#x104;" 
d="M1583 0h-41q-86 -25 -86 -96q0 -35 28 -55.5t75 -20.5q29 0 45 2v-162l-48 -2q-29 -2 -59 -2q-128 0 -205.5 52.5t-77.5 140.5q0 43 21.5 84.5t58.5 70.5l-135 287h-694l-141 -299h-283l635 1366h272zM586 553h452l-225 483z" />
    <glyph glyph-name="aogonek" unicode="&#x105;" 
d="M1583 0h-41q-86 -25 -86 -96q0 -35 28 -55.5t75 -20.5q29 0 45 2v-162l-48 -2q-29 -2 -59 -2q-128 0 -205.5 52.5t-77.5 140.5q0 43 21.5 84.5t58.5 70.5l-135 287h-694l-141 -299h-283l635 1366h272zM586 553h452l-225 483z" />
    <glyph glyph-name="Cacute" unicode="&#x106;" horiz-adv-x="1433" 
d="M1364 1090l-219 -140q-60 94 -145 138.5t-203 44.5q-195 0 -315 -124t-120 -325q0 -202 120 -326.5t315 -124.5q118 0 203 44.5t145 138.5l219 -140q-185 -303 -567 -303q-198 0 -355 91t-245 253.5t-88 366.5q0 203 88.5 365.5t245.5 253t354 90.5q382 0 567 -303z
M1077 1753l-194 -272h-217l151 272h260z" />
    <glyph glyph-name="cacute" unicode="&#x107;" horiz-adv-x="1433" 
d="M1364 1090l-219 -140q-60 94 -145 138.5t-203 44.5q-195 0 -315 -124t-120 -325q0 -202 120 -326.5t315 -124.5q118 0 203 44.5t145 138.5l219 -140q-185 -303 -567 -303q-198 0 -355 91t-245 253.5t-88 366.5q0 203 88.5 365.5t245.5 253t354 90.5q382 0 567 -303z
M1077 1753l-194 -272h-217l151 272h260z" />
    <glyph glyph-name="Ccircumflex" unicode="&#x108;" horiz-adv-x="1433" 
d="M1364 1090l-219 -140q-60 94 -145 138.5t-203 44.5q-195 0 -315 -124t-120 -325q0 -202 120 -326.5t315 -124.5q118 0 203 44.5t145 138.5l219 -140q-185 -303 -567 -303q-198 0 -355 91t-245 253.5t-88 366.5q0 203 88.5 365.5t245.5 253t354 90.5q382 0 567 -303z
M918 1751l210 -270h-247l-97 147l-98 -147h-248l211 270h269z" />
    <glyph glyph-name="Cdotaccent" unicode="&#x10a;" horiz-adv-x="1433" 
d="M1364 1090l-219 -140q-60 94 -145 138.5t-203 44.5q-195 0 -315 -124t-120 -325q0 -202 120 -326.5t315 -124.5q118 0 203 44.5t145 138.5l219 -140q-185 -303 -567 -303q-198 0 -355 91t-245 253.5t-88 366.5q0 203 88.5 365.5t245.5 253t354 90.5q382 0 567 -303z
M803 1763q57 0 99 -42.5t42 -100.5q0 -60 -42 -102.5t-101 -42.5q-61 0 -103.5 42.5t-42.5 102.5t43 101.5t105 41.5z" />
    <glyph glyph-name="Ccaron" unicode="&#x10c;" horiz-adv-x="1433" 
d="M1364 1090l-219 -140q-60 94 -145 138.5t-203 44.5q-195 0 -315 -124t-120 -325q0 -202 120 -326.5t315 -124.5q118 0 203 44.5t145 138.5l219 -140q-185 -303 -567 -303q-198 0 -355 91t-245 253.5t-88 366.5q0 203 88.5 365.5t245.5 253t354 90.5q382 0 567 -303z
M936 1481h-266l-211 270h246l98 -147l98 147h246z" />
    <glyph glyph-name="ccaron" unicode="&#x10d;" horiz-adv-x="1433" 
d="M1364 1090l-219 -140q-60 94 -145 138.5t-203 44.5q-195 0 -315 -124t-120 -325q0 -202 120 -326.5t315 -124.5q118 0 203 44.5t145 138.5l219 -140q-185 -303 -567 -303q-198 0 -355 91t-245 253.5t-88 366.5q0 203 88.5 365.5t245.5 253t354 90.5q382 0 567 -303z
M936 1481h-266l-211 270h246l98 -147l98 147h246z" />
    <glyph glyph-name="Dcaron" unicode="&#x10e;" horiz-adv-x="1542" 
d="M178 1366h535q145 0 242 -28t192 -97q139 -103 214 -248.5t75 -314.5q0 -174 -82.5 -325t-231.5 -247q-92 -61 -179.5 -83.5t-229.5 -22.5h-535v1366zM438 260h285q189 0 321 123.5t132 300.5q0 175 -132 298.5t-321 123.5h-285v-846zM823 1481h-268l-211 270h248
l98 -147l96 147h248z" />
    <glyph glyph-name="dcaron" unicode="&#x10f;" horiz-adv-x="1542" 
d="M178 1366h535q145 0 242 -28t192 -97q139 -103 214 -248.5t75 -314.5q0 -174 -82.5 -325t-231.5 -247q-92 -61 -179.5 -83.5t-229.5 -22.5h-535v1366zM438 260h285q189 0 321 123.5t132 300.5q0 175 -132 298.5t-321 123.5h-285v-846zM823 1481h-268l-211 270h248
l98 -147l96 147h248z" />
    <glyph glyph-name="Dcroat" unicode="&#x110;" horiz-adv-x="1542" 
d="M178 588h-123v194h123v584h533q146 0 242 -28t192 -97q139 -103 214 -248.5t75 -314.5q0 -174 -82.5 -325t-231.5 -247q-92 -61 -178.5 -83.5t-228.5 -22.5h-535v588zM438 588v-328h285q189 0 320 122.5t131 299.5t-131.5 300.5t-319.5 123.5h-285v-324h291v-194h-291z
" />
    <glyph glyph-name="dcroat" unicode="&#x111;" horiz-adv-x="1542" 
d="M178 588h-123v194h123v584h533q146 0 242 -28t192 -97q139 -103 214 -248.5t75 -314.5q0 -174 -82.5 -325t-231.5 -247q-92 -61 -178.5 -83.5t-228.5 -22.5h-535v588zM438 588v-328h285q189 0 320 122.5t131 299.5t-131.5 300.5t-319.5 123.5h-285v-324h291v-194h-291z
" />
    <glyph glyph-name="Emacron" unicode="&#x112;" horiz-adv-x="1337" 
d="M178 1366h1069v-260h-809v-252h469v-260h-469v-334h832v-260h-1092v1366zM1096 1714v-194h-736v194h736z" />
    <glyph glyph-name="emacron" unicode="&#x113;" horiz-adv-x="1337" 
d="M178 1366h1069v-260h-809v-252h469v-260h-469v-334h832v-260h-1092v1366zM1096 1714v-194h-736v194h736z" />
    <glyph glyph-name="Ebreve" unicode="&#x114;" horiz-adv-x="1337" 
d="M178 1366h1069v-260h-809v-252h469v-260h-469v-334h832v-260h-1092v1366zM868 1726h203q-41 -251 -328 -251t-325 251h203q24 -92 122 -92t125 92z" />
    <glyph glyph-name="Edotaccent" unicode="&#x116;" horiz-adv-x="1337" 
d="M178 1366h1069v-260h-809v-252h469v-260h-469v-334h832v-260h-1092v1366zM739 1763q57 0 99.5 -42.5t42.5 -100.5q0 -60 -42.5 -102.5t-101.5 -42.5q-61 0 -103 42.5t-42 102.5t42.5 101.5t104.5 41.5z" />
    <glyph glyph-name="edotaccent" unicode="&#x117;" horiz-adv-x="1337" 
d="M178 1366h1069v-260h-809v-252h469v-260h-469v-334h832v-260h-1092v1366zM739 1763q57 0 99.5 -42.5t42.5 -100.5q0 -60 -42.5 -102.5t-101.5 -42.5q-61 0 -103 42.5t-42 102.5t42.5 101.5t104.5 41.5z" />
    <glyph glyph-name="Eogonek" unicode="&#x118;" horiz-adv-x="1337" 
d="M1270 0h-58q-86 -25 -86 -96q0 -35 28 -55.5t75 -20.5q29 0 45 2v-162l-47 -2q-31 -2 -60 -2q-128 0 -205 52.5t-77 140.5q0 78 65 143h-772v1366h1069v-260h-809v-252h469v-260h-469v-334h832v-260z" />
    <glyph glyph-name="eogonek" unicode="&#x119;" horiz-adv-x="1337" 
d="M1270 0h-58q-86 -25 -86 -96q0 -35 28 -55.5t75 -20.5q29 0 45 2v-162l-47 -2q-31 -2 -60 -2q-128 0 -205 52.5t-77 140.5q0 78 65 143h-772v1366h1069v-260h-809v-252h469v-260h-469v-334h832v-260z" />
    <glyph glyph-name="Ecaron" unicode="&#x11a;" horiz-adv-x="1337" 
d="M178 1366h1069v-260h-809v-252h469v-260h-469v-334h832v-260h-1092v1366zM870 1481h-268l-211 270h248l96 -147l99 147h247z" />
    <glyph glyph-name="ecaron" unicode="&#x11b;" horiz-adv-x="1337" 
d="M178 1366h1069v-260h-809v-252h469v-260h-469v-334h832v-260h-1092v1366zM870 1481h-268l-211 270h248l96 -147l99 147h247z" />
    <glyph glyph-name="Gcircumflex" unicode="&#x11c;" horiz-adv-x="1460" 
d="M788 725h576v-98q0 -112 -18 -186t-64 -156q-85 -149 -224 -230.5t-310 -81.5q-293 0 -476 226q-78 100 -120.5 226t-42.5 261q0 198 87 360.5t239.5 255.5t338.5 93q175 0 317.5 -79.5t231.5 -225.5l-219 -138q-117 183 -330 183q-178 0 -293.5 -128t-115.5 -323
t110 -323t277 -128q78 0 151.5 33t126.5 92q24 27 38 54.5t32 81.5h-312v231zM909 1751l211 -270h-246l-98 147l-98 -147h-246l211 270h266z" />
    <glyph glyph-name="gcircumflex" unicode="&#x11d;" horiz-adv-x="1460" 
d="M788 725h576v-98q0 -112 -18 -186t-64 -156q-85 -149 -224 -230.5t-310 -81.5q-293 0 -476 226q-78 100 -120.5 226t-42.5 261q0 198 87 360.5t239.5 255.5t338.5 93q175 0 317.5 -79.5t231.5 -225.5l-219 -138q-117 183 -330 183q-178 0 -293.5 -128t-115.5 -323
t110 -323t277 -128q78 0 151.5 33t126.5 92q24 27 38 54.5t32 81.5h-312v231zM909 1751l211 -270h-246l-98 147l-98 -147h-246l211 270h266z" />
    <glyph glyph-name="Gbreve" unicode="&#x11e;" horiz-adv-x="1460" 
d="M788 725h576v-98q0 -112 -18 -186t-64 -156q-85 -149 -224 -230.5t-310 -81.5q-293 0 -476 226q-78 100 -120.5 226t-42.5 261q0 198 87 360.5t239.5 255.5t338.5 93q175 0 317.5 -79.5t231.5 -225.5l-219 -138q-117 183 -330 183q-178 0 -293.5 -128t-115.5 -323
t110 -323t277 -128q78 0 151.5 33t126.5 92q24 27 38 54.5t32 81.5h-312v231zM907 1726h203q-19 -124 -102 -187.5t-224 -63.5q-286 0 -327 251h202q24 -92 125 -92q99 0 123 92z" />
    <glyph glyph-name="gbreve" unicode="&#x11f;" horiz-adv-x="1460" 
d="M788 725h576v-98q0 -112 -18 -186t-64 -156q-85 -149 -224 -230.5t-310 -81.5q-293 0 -476 226q-78 100 -120.5 226t-42.5 261q0 198 87 360.5t239.5 255.5t338.5 93q175 0 317.5 -79.5t231.5 -225.5l-219 -138q-117 183 -330 183q-178 0 -293.5 -128t-115.5 -323
t110 -323t277 -128q78 0 151.5 33t126.5 92q24 27 38 54.5t32 81.5h-312v231zM907 1726h203q-19 -124 -102 -187.5t-224 -63.5q-286 0 -327 251h202q24 -92 125 -92q99 0 123 92z" />
    <glyph glyph-name="Gdotaccent" unicode="&#x120;" horiz-adv-x="1460" 
d="M788 725h576v-98q0 -112 -18 -186t-64 -156q-85 -149 -224 -230.5t-310 -81.5q-293 0 -476 226q-78 100 -120.5 226t-42.5 261q0 198 87 360.5t239.5 255.5t338.5 93q175 0 317.5 -79.5t231.5 -225.5l-219 -138q-117 183 -330 183q-178 0 -293.5 -128t-115.5 -323
t110 -323t277 -128q78 0 151.5 33t126.5 92q24 27 38 54.5t32 81.5h-312v231zM778 1763q57 0 99.5 -42.5t42.5 -100.5q0 -60 -42.5 -102.5t-101.5 -42.5q-61 0 -103 42.5t-42 102.5t42.5 101.5t104.5 41.5z" />
    <glyph glyph-name="gdotaccent" unicode="&#x121;" horiz-adv-x="1460" 
d="M788 725h576v-98q0 -112 -18 -186t-64 -156q-85 -149 -224 -230.5t-310 -81.5q-293 0 -476 226q-78 100 -120.5 226t-42.5 261q0 198 87 360.5t239.5 255.5t338.5 93q175 0 317.5 -79.5t231.5 -225.5l-219 -138q-117 183 -330 183q-178 0 -293.5 -128t-115.5 -323
t110 -323t277 -128q78 0 151.5 33t126.5 92q24 27 38 54.5t32 81.5h-312v231zM778 1763q57 0 99.5 -42.5t42.5 -100.5q0 -60 -42.5 -102.5t-101.5 -42.5q-61 0 -103 42.5t-42 102.5t42.5 101.5t104.5 41.5z" />
    <glyph glyph-name="Gcommaaccent" unicode="&#x122;" horiz-adv-x="1460" 
d="M788 725h576v-98q0 -112 -18 -186t-64 -156q-85 -149 -224 -230.5t-310 -81.5q-293 0 -476 226q-78 100 -120.5 226t-42.5 261q0 198 87 360.5t239.5 255.5t338.5 93q175 0 317.5 -79.5t231.5 -225.5l-219 -138q-117 183 -330 183q-178 0 -293.5 -128t-115.5 -323
t110 -323t277 -128q78 0 151.5 33t126.5 92q24 27 38 54.5t32 81.5h-312v231zM887 -92l-117 -314h-184l65 314h236z" />
    <glyph glyph-name="gcommaaccent" unicode="&#x123;" horiz-adv-x="1460" 
d="M788 725h576v-98q0 -112 -18 -186t-64 -156q-85 -149 -224 -230.5t-310 -81.5q-293 0 -476 226q-78 100 -120.5 226t-42.5 261q0 198 87 360.5t239.5 255.5t338.5 93q175 0 317.5 -79.5t231.5 -225.5l-219 -138q-117 183 -330 183q-178 0 -293.5 -128t-115.5 -323
t110 -323t277 -128q78 0 151.5 33t126.5 92q24 27 38 54.5t32 81.5h-312v231zM887 -92l-117 -314h-184l65 314h236z" />
    <glyph glyph-name="Hcircumflex" unicode="&#x124;" horiz-adv-x="1611" 
d="M178 1366h260v-526h736v526h260v-1366h-260v580h-736v-580h-260v1366zM940 1751l211 -270h-248l-96 147l-98 -147h-246l211 270h266z" />
    <glyph glyph-name="Hbar" unicode="&#x126;" horiz-adv-x="1611" 
d="M438 1153h736v213h260v-213h122v-195h-122v-958h-260v580h-736v-580h-260v958h-123v195h123v213h260v-213zM438 958v-118h736v118h-736z" />
    <glyph glyph-name="Imacron" unicode="&#x12a;" horiz-adv-x="614" 
d="M178 1366h260v-1366h-260v1366zM621 1714v-194h-627v194h627z" />
    <glyph glyph-name="imacron" unicode="&#x12b;" horiz-adv-x="614" 
d="M178 1366h260v-1366h-260v1366zM621 1714v-194h-627v194h627z" />
    <glyph glyph-name="ibreve" unicode="&#x12d;" horiz-adv-x="1611" 
d="M178 1366h260v-526h736v526h260v-1366h-260v580h-736v-580h-260v1366zM940 1751l211 -270h-248l-96 147l-98 -147h-246l211 270h266z" />
    <glyph glyph-name="Iogonek" unicode="&#x12e;" horiz-adv-x="614" 
d="M436 0h-26q-88 -25 -88 -94q0 -43 32.5 -60t114.5 -16v-162h-45q-29 -2 -59 -2q-129 0 -207 52.5t-78 140.5q0 48 25.5 91.5t70.5 74.5v1341h260v-1366z" />
    <glyph glyph-name="iogonek" unicode="&#x12f;" horiz-adv-x="614" 
d="M436 0h-26q-88 -25 -88 -94q0 -43 32.5 -60t114.5 -16v-162h-45q-29 -2 -59 -2q-129 0 -207 52.5t-78 140.5q0 48 25.5 91.5t70.5 74.5v1341h260v-1366z" />
    <glyph glyph-name="Idotaccent" unicode="&#x130;" horiz-adv-x="614" 
d="M176 1366h260v-1366h-260v1366zM309 1763q57 0 99.5 -42.5t42.5 -100.5q0 -60 -42.5 -102.5t-101.5 -42.5q-61 0 -103 42.5t-42 102.5t42.5 101.5t104.5 41.5z" />
    <glyph glyph-name="dotlessi" unicode="&#x131;" horiz-adv-x="614" 
d="M178 1366h260v-1366h-260v1366z" />
    <glyph glyph-name="Kcommaaccent" unicode="&#x136;" horiz-adv-x="1460" 
d="M178 1366h260v-604l535 604h346l-422 -477l539 -889h-299l-420 694l-279 -311v-383h-260v1366zM926 -92l-117 -314h-184l65 314h236z" />
    <glyph glyph-name="kcommaaccent" unicode="&#x137;" horiz-adv-x="1460" 
d="M178 1366h260v-604l535 604h346l-422 -477l539 -889h-299l-420 694l-279 -311v-383h-260v1366zM926 -92l-117 -314h-184l65 314h236z" />
    <glyph glyph-name="Lacute" unicode="&#x139;" horiz-adv-x="1255" 
d="M178 1366h260v-1106h832v-260h-1092v1366zM621 1753l-195 -272h-217l151 272h261z" />
    <glyph glyph-name="lacute" unicode="&#x13a;" horiz-adv-x="1255" 
d="M178 1366h260v-1106h832v-260h-1092v1366zM621 1753l-195 -272h-217l151 272h261z" />
    <glyph glyph-name="Lcommaaccent" unicode="&#x13b;" horiz-adv-x="1255" 
d="M178 1366h260v-1106h832v-260h-1092v1366zM879 -92l-117 -314h-184l65 314h236z" />
    <glyph glyph-name="lcommaaccent" unicode="&#x13c;" horiz-adv-x="1255" 
d="M178 1366h260v-1106h832v-260h-1092v1366zM879 -92l-117 -314h-184l65 314h236z" />
    <glyph glyph-name="Lcaron" unicode="&#x13d;" horiz-adv-x="1255" 
d="M178 1366h260v-1106h832v-260h-1092v1366zM877 1366l-117 -313h-185l66 313h236z" />
    <glyph glyph-name="lcaron" unicode="&#x13e;" horiz-adv-x="1255" 
d="M178 1366h260v-1106h832v-260h-1092v1366zM877 1366l-117 -313h-185l66 313h236z" />
    <glyph glyph-name="Lslash" unicode="&#x141;" horiz-adv-x="1255" 
d="M438 643v-383h832v-260h-1092v434l-137 -108v252l137 110v678h260v-467l201 162v-254z" />
    <glyph glyph-name="lslash" unicode="&#x142;" horiz-adv-x="1255" 
d="M438 643v-383h832v-260h-1092v434l-137 -108v252l137 110v678h260v-467l201 162v-254z" />
    <glyph glyph-name="Nacute" unicode="&#x143;" horiz-adv-x="1611" 
d="M1434 1366v-1366h-250l-746 926v-926h-260v1366h232l764 -938v938h260zM1096 1753l-195 -272h-215l150 272h260z" />
    <glyph glyph-name="nacute" unicode="&#x144;" horiz-adv-x="1611" 
d="M1434 1366v-1366h-250l-746 926v-926h-260v1366h232l764 -938v938h260zM1096 1753l-195 -272h-215l150 272h260z" />
    <glyph glyph-name="Ncommaaccent" unicode="&#x145;" horiz-adv-x="1611" 
d="M1434 1366v-1366h-250l-746 926v-926h-260v1366h232l764 -938v938h260zM987 -92l-117 -314h-182l64 314h235z" />
    <glyph glyph-name="ncommaaccent" unicode="&#x146;" horiz-adv-x="1611" 
d="M1434 1366v-1366h-250l-746 926v-926h-260v1366h232l764 -938v938h260zM987 -92l-117 -314h-182l64 314h235z" />
    <glyph glyph-name="Ncaron" unicode="&#x147;" horiz-adv-x="1611" 
d="M1434 1366v-1366h-250l-746 926v-926h-260v1366h232l764 -938v938h260zM940 1481h-266l-211 270h246l98 -147l96 147h248z" />
    <glyph glyph-name="ncaron" unicode="&#x148;" horiz-adv-x="1611" 
d="M1434 1366v-1366h-250l-746 926v-926h-260v1366h232l764 -938v938h260zM940 1481h-266l-211 270h246l98 -147l96 147h248z" />
    <glyph glyph-name="Omacron" unicode="&#x14c;" 
d="M811 1393q194 0 356.5 -94t255.5 -257t93 -358q0 -197 -93.5 -360.5t-256 -257t-359.5 -93.5q-146 0 -284 62t-236 172q-178 196 -178 487q0 189 94 350t256 255t352 94zM811 1133q-180 0 -311 -131t-131 -312q0 -191 128 -324t312 -133q186 0 316 131.5t130 319.5
q0 185 -130 317t-314 132zM1180 1714v-194h-736v194h736z" />
    <glyph glyph-name="omacron" unicode="&#x14d;" 
d="M811 1393q194 0 356.5 -94t255.5 -257t93 -358q0 -197 -93.5 -360.5t-256 -257t-359.5 -93.5q-146 0 -284 62t-236 172q-178 196 -178 487q0 189 94 350t256 255t352 94zM811 1133q-180 0 -311 -131t-131 -312q0 -191 128 -324t312 -133q186 0 316 131.5t130 319.5
q0 185 -130 317t-314 132zM1180 1714v-194h-736v194h736z" />
    <glyph glyph-name="Ohungarumlaut" unicode="&#x150;" 
d="M811 1393q194 0 356.5 -94t255.5 -257t93 -358q0 -197 -93.5 -360.5t-256 -257t-359.5 -93.5q-146 0 -284 62t-236 172q-178 196 -178 487q0 189 94 350t256 255t352 94zM811 1133q-180 0 -311 -131t-131 -312q0 -191 128 -324t312 -133q186 0 316 131.5t130 319.5
q0 185 -130 317t-314 132zM926 1753l-195 -272h-217l152 272h260zM1317 1753l-195 -272h-217l152 272h260z" />
    <glyph glyph-name="ohungarumlaut" unicode="&#x151;" 
d="M811 1393q194 0 356.5 -94t255.5 -257t93 -358q0 -197 -93.5 -360.5t-256 -257t-359.5 -93.5q-146 0 -284 62t-236 172q-178 196 -178 487q0 189 94 350t256 255t352 94zM811 1133q-180 0 -311 -131t-131 -312q0 -191 128 -324t312 -133q186 0 316 131.5t130 319.5
q0 185 -130 317t-314 132zM926 1753l-195 -272h-217l152 272h260zM1317 1753l-195 -272h-217l152 272h260z" />
    <glyph glyph-name="OE" unicode="&#x152;" horiz-adv-x="2418" 
d="M1257 0v131q-202 -158 -446 -158q-145 0 -275 55.5t-223.5 150.5t-148.5 226t-55 277q0 196 93 359t254.5 257.5t354.5 94.5q244 0 446 -158v131h1072v-260h-811v-252h471v-260h-471v-334h833v-260h-1094zM811 1133q-181 0 -311.5 -130.5t-130.5 -312.5
q0 -191 127.5 -324t310.5 -133q186 0 316 131.5t130 317.5t-129.5 318.5t-312.5 132.5z" />
    <glyph glyph-name="oe" unicode="&#x153;" horiz-adv-x="2418" 
d="M1257 0v131q-202 -158 -446 -158q-145 0 -275 55.5t-223.5 150.5t-148.5 226t-55 277q0 196 93 359t254.5 257.5t354.5 94.5q244 0 446 -158v131h1072v-260h-811v-252h471v-260h-471v-334h833v-260h-1094zM811 1133q-181 0 -311.5 -130.5t-130.5 -312.5
q0 -191 127.5 -324t310.5 -133q186 0 316 131.5t130 317.5t-129.5 318.5t-312.5 132.5z" />
    <glyph glyph-name="Racute" unicode="&#x154;" horiz-adv-x="1542" 
d="M178 1366h766q97 0 136 -6.5t96 -32.5q114 -53 181.5 -158t67.5 -231q0 -92 -38 -177.5t-107 -146.5q-28 -25 -56 -39t-85 -34l297 -541h-297l-279 508h-422v-508h-260v1366zM438 768h557q70 0 121 48t51 114q0 47 -23 87.5t-63 65.5q-28 14 -48.5 18.5t-65.5 4.5h-529
v-338zM1014 1753l-195 -272h-215l150 272h260z" />
    <glyph glyph-name="racute" unicode="&#x155;" horiz-adv-x="1542" 
d="M178 1366h766q97 0 136 -6.5t96 -32.5q114 -53 181.5 -158t67.5 -231q0 -92 -38 -177.5t-107 -146.5q-28 -25 -56 -39t-85 -34l297 -541h-297l-279 508h-422v-508h-260v1366zM438 768h557q70 0 121 48t51 114q0 47 -23 87.5t-63 65.5q-28 14 -48.5 18.5t-65.5 4.5h-529
v-338zM1014 1753l-195 -272h-215l150 272h260z" />
    <glyph glyph-name="Rcommaaccent" unicode="&#x156;" horiz-adv-x="1542" 
d="M178 1366h766q97 0 136 -6.5t96 -32.5q114 -53 181.5 -158t67.5 -231q0 -92 -38 -177.5t-107 -146.5q-28 -25 -56 -39t-85 -34l297 -541h-297l-279 508h-422v-508h-260v1366zM438 768h557q70 0 121 48t51 114q0 47 -23 87.5t-63 65.5q-28 14 -48.5 18.5t-65.5 4.5h-529
v-338zM934 -92l-119 -314h-182l65 314h236z" />
    <glyph glyph-name="rcommaaccent" unicode="&#x157;" horiz-adv-x="1542" 
d="M178 1366h766q97 0 136 -6.5t96 -32.5q114 -53 181.5 -158t67.5 -231q0 -92 -38 -177.5t-107 -146.5q-28 -25 -56 -39t-85 -34l297 -541h-297l-279 508h-422v-508h-260v1366zM438 768h557q70 0 121 48t51 114q0 47 -23 87.5t-63 65.5q-28 14 -48.5 18.5t-65.5 4.5h-529
v-338zM934 -92l-119 -314h-182l65 314h236z" />
    <glyph glyph-name="Rcaron" unicode="&#x158;" horiz-adv-x="1542" 
d="M178 1366h766q97 0 136 -6.5t96 -32.5q114 -53 181.5 -158t67.5 -231q0 -92 -38 -177.5t-107 -146.5q-28 -25 -56 -39t-85 -34l297 -541h-297l-279 508h-422v-508h-260v1366zM438 768h557q70 0 121 48t51 114q0 47 -23 87.5t-63 65.5q-28 14 -48.5 18.5t-65.5 4.5h-529
v-338zM872 1481h-266l-211 270h246l98 -147l99 147h245z" />
    <glyph glyph-name="rcaron" unicode="&#x159;" horiz-adv-x="1542" 
d="M178 1366h766q97 0 136 -6.5t96 -32.5q114 -53 181.5 -158t67.5 -231q0 -92 -38 -177.5t-107 -146.5q-28 -25 -56 -39t-85 -34l297 -541h-297l-279 508h-422v-508h-260v1366zM438 768h557q70 0 121 48t51 114q0 47 -23 87.5t-63 65.5q-28 14 -48.5 18.5t-65.5 4.5h-529
v-338zM872 1481h-266l-211 270h246l98 -147l99 147h245z" />
    <glyph glyph-name="Sacute" unicode="&#x15a;" horiz-adv-x="1474" 
d="M1272 1231l-137 -211q-134 69 -215.5 92t-194.5 23q-139 0 -212 -35t-73 -103q0 -54 35 -79q24 -15 50 -22.5t147 -31.5l325 -63q90 -19 140 -40t96 -59q61 -53 96 -130t35 -160q0 -200 -167 -319.5t-445 -119.5q-385 0 -643 201l147 213q124 -82 233.5 -118t239.5 -36
q96 0 182.5 18.5t137.5 49.5q26 17 42.5 49t16.5 66q0 68 -68 106q-20 10 -43.5 16t-146.5 31l-340 66q-153 31 -241.5 127.5t-88.5 232.5q0 185 146 291.5t401 106.5q154 0 279 -37t266 -125zM1034 1753l-194 -272h-217l151 272h260z" />
    <glyph glyph-name="sacute" unicode="&#x15b;" horiz-adv-x="1474" 
d="M1272 1231l-137 -211q-134 69 -215.5 92t-194.5 23q-139 0 -212 -35t-73 -103q0 -54 35 -79q24 -15 50 -22.5t147 -31.5l325 -63q90 -19 140 -40t96 -59q61 -53 96 -130t35 -160q0 -200 -167 -319.5t-445 -119.5q-385 0 -643 201l147 213q124 -82 233.5 -118t239.5 -36
q96 0 182.5 18.5t137.5 49.5q26 17 42.5 49t16.5 66q0 68 -68 106q-20 10 -43.5 16t-146.5 31l-340 66q-153 31 -241.5 127.5t-88.5 232.5q0 185 146 291.5t401 106.5q154 0 279 -37t266 -125zM1034 1753l-194 -272h-217l151 272h260z" />
    <glyph glyph-name="Scircumflex" unicode="&#x15c;" horiz-adv-x="1474" 
d="M1272 1231l-137 -211q-134 69 -215.5 92t-194.5 23q-139 0 -212 -35t-73 -103q0 -54 35 -79q24 -15 50 -22.5t147 -31.5l325 -63q90 -19 140 -40t96 -59q61 -53 96 -130t35 -160q0 -200 -167 -319.5t-445 -119.5q-385 0 -643 201l147 213q124 -82 233.5 -118t239.5 -36
q96 0 182.5 18.5t137.5 49.5q26 17 42.5 49t16.5 66q0 68 -68 106q-20 10 -43.5 16t-146.5 31l-340 66q-153 31 -241.5 127.5t-88.5 232.5q0 185 146 291.5t401 106.5q154 0 279 -37t266 -125zM889 1751l211 -270h-246l-98 147l-99 -147h-245l211 270h266z" />
    <glyph glyph-name="Scedilla" unicode="&#x15e;" horiz-adv-x="1474" 
d="M840 -23v-47q151 -12 151 -139q0 -54 -34 -96.5t-97 -65.5q-43 -15 -89.5 -20.5t-139.5 -5.5v127q12 -2 26 -2q53 0 82 17t29 48q0 25 -22.5 44.5t-51.5 19.5h-16v118q-169 11 -318.5 63t-250.5 136l147 213q122 -82 232 -118t239 -36q98 0 184 18.5t136 49.5
q28 17 44.5 49t16.5 66q0 68 -68 106q-20 10 -43.5 16t-146.5 31l-340 68q-152 29 -241 126t-89 232q0 185 146 291.5t401 106.5q154 0 279 -37t266 -125l-137 -211q-131 68 -214.5 91.5t-195.5 23.5q-139 0 -212 -35t-73 -103q0 -54 35 -79q22 -15 48 -22.5t149 -31.5
l325 -63q92 -19 141.5 -39.5t94.5 -59.5q61 -53 96 -130t35 -160q0 -183 -140.5 -299.5t-383.5 -135.5z" />
    <glyph glyph-name="scedilla" unicode="&#x15f;" horiz-adv-x="1474" 
d="M840 -23v-47q151 -12 151 -139q0 -54 -34 -96.5t-97 -65.5q-43 -15 -89.5 -20.5t-139.5 -5.5v127q12 -2 26 -2q53 0 82 17t29 48q0 25 -22.5 44.5t-51.5 19.5h-16v118q-169 11 -318.5 63t-250.5 136l147 213q122 -82 232 -118t239 -36q98 0 184 18.5t136 49.5
q28 17 44.5 49t16.5 66q0 68 -68 106q-20 10 -43.5 16t-146.5 31l-340 68q-152 29 -241 126t-89 232q0 185 146 291.5t401 106.5q154 0 279 -37t266 -125l-137 -211q-131 68 -214.5 91.5t-195.5 23.5q-139 0 -212 -35t-73 -103q0 -54 35 -79q22 -15 48 -22.5t149 -31.5
l325 -63q92 -19 141.5 -39.5t94.5 -59.5q61 -53 96 -130t35 -160q0 -183 -140.5 -299.5t-383.5 -135.5z" />
    <glyph glyph-name="Scaron" unicode="&#x160;" horiz-adv-x="1474" 
d="M1272 1231l-137 -211q-134 69 -215.5 92t-194.5 23q-139 0 -212 -35t-73 -103q0 -54 35 -79q24 -15 50 -22.5t147 -31.5l325 -63q90 -19 140 -40t96 -59q61 -53 96 -130t35 -160q0 -200 -167 -319.5t-445 -119.5q-385 0 -643 201l147 213q124 -82 233.5 -118t239.5 -36
q96 0 182.5 18.5t137.5 49.5q26 17 42.5 49t16.5 66q0 68 -68 106q-20 10 -43.5 16t-146.5 31l-340 66q-153 31 -241.5 127.5t-88.5 232.5q0 185 146 291.5t401 106.5q154 0 279 -37t266 -125zM870 1481h-266l-211 270h246l98 -147l97 147h247z" />
    <glyph glyph-name="scaron" unicode="&#x161;" horiz-adv-x="1474" 
d="M1272 1231l-137 -211q-134 69 -215.5 92t-194.5 23q-139 0 -212 -35t-73 -103q0 -54 35 -79q24 -15 50 -22.5t147 -31.5l325 -63q90 -19 140 -40t96 -59q61 -53 96 -130t35 -160q0 -200 -167 -319.5t-445 -119.5q-385 0 -643 201l147 213q124 -82 233.5 -118t239.5 -36
q96 0 182.5 18.5t137.5 49.5q26 17 42.5 49t16.5 66q0 68 -68 106q-20 10 -43.5 16t-146.5 31l-340 66q-153 31 -241.5 127.5t-88.5 232.5q0 185 146 291.5t401 106.5q154 0 279 -37t266 -125zM870 1481h-266l-211 270h246l98 -147l97 147h247z" />
    <glyph glyph-name="Tcommaaccent" unicode="&#x162;" horiz-adv-x="1202" 
d="M27 1366h1147v-246h-443v-1120h-260v1120h-444v246zM719 -92l-117 -314h-182l63 314h236z" />
    <glyph glyph-name="tcommaaccent" unicode="&#x163;" horiz-adv-x="1202" 
d="M27 1366h1147v-246h-443v-1120h-260v1120h-444v246zM719 -92l-117 -314h-182l63 314h236z" />
    <glyph glyph-name="Tcaron" unicode="&#x164;" horiz-adv-x="1202" 
d="M27 1366h1147v-246h-443v-1120h-260v1120h-444v246zM733 1481h-266l-211 270h246l98 -147l98 147h246z" />
    <glyph glyph-name="tcaron" unicode="&#x165;" horiz-adv-x="1202" 
d="M27 1366h1147v-246h-443v-1120h-260v1120h-444v246zM733 1481h-266l-211 270h246l98 -147l98 147h246z" />
    <glyph glyph-name="Umacron" unicode="&#x16a;" horiz-adv-x="1583" 
d="M164 1366h260v-692q0 -99 5.5 -134.5t29.5 -88.5q44 -99 135.5 -159.5t198.5 -60.5q105 0 196 60.5t135 159.5q25 54 30 87t5 136v692h260v-684q0 -132 -13.5 -205t-51.5 -153q-75 -155 -232 -253t-329 -98q-174 0 -331.5 98t-232.5 253q-39 79 -52 150.5t-13 207.5v684z
M1159 1714v-194h-735v194h735z" />
    <glyph glyph-name="umacron" unicode="&#x16b;" horiz-adv-x="1583" 
d="M164 1366h260v-692q0 -99 5.5 -134.5t29.5 -88.5q44 -99 135.5 -159.5t198.5 -60.5q105 0 196 60.5t135 159.5q25 54 30 87t5 136v692h260v-684q0 -132 -13.5 -205t-51.5 -153q-75 -155 -232 -253t-329 -98q-174 0 -331.5 98t-232.5 253q-39 79 -52 150.5t-13 207.5v684z
M1159 1714v-194h-735v194h735z" />
    <glyph glyph-name="Uring" unicode="&#x16e;" horiz-adv-x="1583" 
d="M164 1366h260v-692q0 -99 5.5 -134.5t29.5 -88.5q44 -99 135.5 -159.5t198.5 -60.5q105 0 196 60.5t135 159.5q25 54 30 87t5 136v692h260v-684q0 -132 -13.5 -205t-51.5 -153q-75 -155 -232 -253t-329 -98q-174 0 -331.5 98t-232.5 253q-39 79 -52 150.5t-13 207.5v684z
M793 1718q-34 0 -57 -23t-23 -55q0 -34 22.5 -56.5t55.5 -22.5q34 0 56.5 22.5t22.5 54.5q0 34 -22.5 57t-54.5 23zM797 1849q85 0 146 -62.5t61 -148.5q0 -88 -61.5 -149.5t-149.5 -61.5t-149.5 62t-61.5 151q0 86 63 147.5t152 61.5z" />
    <glyph glyph-name="uring" unicode="&#x16f;" horiz-adv-x="1583" 
d="M164 1366h260v-692q0 -99 5.5 -134.5t29.5 -88.5q44 -99 135.5 -159.5t198.5 -60.5q105 0 196 60.5t135 159.5q25 54 30 87t5 136v692h260v-684q0 -132 -13.5 -205t-51.5 -153q-75 -155 -232 -253t-329 -98q-174 0 -331.5 98t-232.5 253q-39 79 -52 150.5t-13 207.5v684z
M793 1718q-34 0 -57 -23t-23 -55q0 -34 22.5 -56.5t55.5 -22.5q34 0 56.5 22.5t22.5 54.5q0 34 -22.5 57t-54.5 23zM797 1849q85 0 146 -62.5t61 -148.5q0 -88 -61.5 -149.5t-149.5 -61.5t-149.5 62t-61.5 151q0 86 63 147.5t152 61.5z" />
    <glyph glyph-name="Uhungarumlaut" unicode="&#x170;" horiz-adv-x="1583" 
d="M164 1366h260v-692q0 -99 5.5 -134.5t29.5 -88.5q44 -99 135.5 -159.5t198.5 -60.5q105 0 196 60.5t135 159.5q25 54 30 87t5 136v692h260v-684q0 -132 -13.5 -205t-51.5 -153q-75 -155 -232 -253t-329 -98q-174 0 -331.5 98t-232.5 253q-39 79 -52 150.5t-13 207.5v684z
M899 1753l-194 -272h-218l150 272h262zM1290 1753l-196 -272h-215l149 272h262z" />
    <glyph glyph-name="uhungarumlaut" unicode="&#x171;" horiz-adv-x="1583" 
d="M164 1366h260v-692q0 -99 5.5 -134.5t29.5 -88.5q44 -99 135.5 -159.5t198.5 -60.5q105 0 196 60.5t135 159.5q25 54 30 87t5 136v692h260v-684q0 -132 -13.5 -205t-51.5 -153q-75 -155 -232 -253t-329 -98q-174 0 -331.5 98t-232.5 253q-39 79 -52 150.5t-13 207.5v684z
M899 1753l-194 -272h-218l150 272h262zM1290 1753l-196 -272h-215l149 272h262z" />
    <glyph glyph-name="Uogonek" unicode="&#x172;" horiz-adv-x="1583" 
d="M1147 -170v-162h-47q-29 -2 -60 -2q-127 0 -204.5 52.5t-77.5 138.5q0 60 41 116q-134 -3 -267 61.5t-225 176.5q-78 98 -110 207t-29 264v684h260v-692q0 -99 5.5 -134.5t29.5 -88.5q44 -98 136 -159t198 -61t198 61t135 159q23 52 28 85.5t5 137.5v692h260v-684
q1 -161 -28.5 -265t-101.5 -192.5t-216 -199.5q-43 -35 -60.5 -61.5t-17.5 -55.5q0 -45 32.5 -62t115.5 -16z" />
    <glyph glyph-name="uogonek" unicode="&#x173;" horiz-adv-x="1583" 
d="M1147 -170v-162h-47q-29 -2 -60 -2q-127 0 -204.5 52.5t-77.5 138.5q0 60 41 116q-134 -3 -267 61.5t-225 176.5q-78 98 -110 207t-29 264v684h260v-692q0 -99 5.5 -134.5t29.5 -88.5q44 -98 136 -159t198 -61t198 61t135 159q23 52 28 85.5t5 137.5v692h260v-684
q1 -161 -28.5 -265t-101.5 -192.5t-216 -199.5q-43 -35 -60.5 -61.5t-17.5 -55.5q0 -45 32.5 -62t115.5 -16z" />
    <glyph glyph-name="Wcircumflex" unicode="&#x174;" horiz-adv-x="1746" 
d="M82 1366h268l164 -836l231 836h259l229 -836l164 836h268l-281 -1366h-276l-234 864l-235 -864h-277zM1008 1751l211 -270h-248l-97 147l-98 -147h-246l211 270h267z" />
    <glyph glyph-name="Ycircumflex" unicode="&#x176;" horiz-adv-x="1542" 
d="M0 1366h332l440 -545l438 545h332l-641 -799v-567h-260v567zM905 1751l211 -270h-248l-96 147l-98 -147h-246l211 270h266z" />
    <glyph glyph-name="Ydieresis" unicode="&#x178;" horiz-adv-x="1542" 
d="M0 1366h332l440 -545l438 545h332l-641 -799v-567h-260v567zM494 1763q57 0 99 -42.5t42 -100.5q0 -60 -42 -102.5t-101 -42.5q-61 0 -103.5 42.5t-42.5 102.5t43 101.5t105 41.5zM1055 1763q57 0 99 -42.5t42 -100.5q0 -60 -42 -102.5t-101 -42.5q-61 0 -103.5 42.5
t-42.5 102.5t43 101.5t105 41.5z" />
    <glyph glyph-name="Zacute" unicode="&#x179;" horiz-adv-x="1529" 
d="M180 1366h1213v-242l-891 -864h891v-260h-1256v272l885 848h-842v246zM1092 1753l-197 -272h-215l149 272h263z" />
    <glyph glyph-name="zacute" unicode="&#x17a;" horiz-adv-x="1529" 
d="M180 1366h1213v-242l-891 -864h891v-260h-1256v272l885 848h-842v246zM1092 1753l-197 -272h-215l149 272h263z" />
    <glyph glyph-name="Zdotaccent" unicode="&#x17b;" horiz-adv-x="1529" 
d="M180 1366h1213v-242l-891 -864h891v-260h-1256v272l885 848h-842v246zM803 1763q57 0 99 -42.5t42 -100.5q0 -60 -42 -102.5t-101 -42.5q-61 0 -103.5 42.5t-42.5 102.5t43 101.5t105 41.5z" />
    <glyph glyph-name="zdotaccent" unicode="&#x17c;" horiz-adv-x="1529" 
d="M180 1366h1213v-242l-891 -864h891v-260h-1256v272l885 848h-842v246zM803 1763q57 0 99 -42.5t42 -100.5q0 -60 -42 -102.5t-101 -42.5q-61 0 -103.5 42.5t-42.5 102.5t43 101.5t105 41.5z" />
    <glyph glyph-name="Zcaron" unicode="&#x17d;" horiz-adv-x="1529" 
d="M180 1366h1213v-242l-891 -864h891v-260h-1256v272l885 848h-842v246zM922 1481h-267l-211 270h246l98 -147l99 147h246z" />
    <glyph glyph-name="zcaron" unicode="&#x17e;" horiz-adv-x="1529" 
d="M180 1366h1213v-242l-891 -864h891v-260h-1256v272l885 848h-842v246zM922 1481h-267l-211 270h246l98 -147l99 147h246z" />
    <glyph glyph-name="florin" unicode="&#x192;" horiz-adv-x="825" 
d="M0 -260l25 194q36 -10 67 -10q105 0 117 101l110 901h-135l33 260h135l10 86q11 80 36 126t77 83q74 55 232 55q59 0 118 -20l-24 -197q-36 10 -68 10q-105 0 -117 -100l-6 -43h174l-32 -260h-172l-115 -922q-19 -152 -96 -219.5t-234 -67.5q-72 0 -135 23z" />
    <glyph glyph-name="uni01CD" unicode="&#x1cd;" 
d="M676 1366h272l635 -1366h-283l-141 299h-692l-141 -299h-285zM586 553h452l-225 483zM946 1481h-266l-211 270h246l98 -147l96 147h248z" />
    <glyph glyph-name="uni01CE" unicode="&#x1ce;" 
d="M676 1366h272l635 -1366h-283l-141 299h-692l-141 -299h-285zM586 553h452l-225 483zM946 1481h-266l-211 270h246l98 -147l96 147h248z" />
    <glyph glyph-name="uni01D3" unicode="&#x1d3;" horiz-adv-x="1583" 
d="M164 1366h260v-692q0 -99 5.5 -134.5t29.5 -88.5q44 -99 135.5 -159.5t198.5 -60.5q105 0 196 60.5t135 159.5q25 54 30 87t5 136v692h260v-684q0 -132 -13.5 -205t-51.5 -153q-75 -155 -232 -253t-329 -98q-174 0 -331.5 98t-232.5 253q-39 79 -52 150.5t-13 207.5v684z
M926 1481h-267l-210 270h245l99 -147l96 147h248z" />
    <glyph glyph-name="Gcaron" unicode="&#x1e6;" horiz-adv-x="1460" 
d="M788 725h576v-98q0 -112 -18 -186t-64 -156q-85 -149 -224 -230.5t-310 -81.5q-293 0 -476 226q-78 100 -120.5 226t-42.5 261q0 198 87 360.5t239.5 255.5t338.5 93q175 0 317.5 -79.5t231.5 -225.5l-219 -138q-117 183 -330 183q-178 0 -293.5 -128t-115.5 -323
t110 -323t277 -128q78 0 151.5 33t126.5 92q24 27 38 54.5t32 81.5h-312v231zM905 1481h-266l-211 270h246l98 -147l98 147h246z" />
    <glyph glyph-name="gcaron" unicode="&#x1e7;" horiz-adv-x="1460" 
d="M788 725h576v-98q0 -112 -18 -186t-64 -156q-85 -149 -224 -230.5t-310 -81.5q-293 0 -476 226q-78 100 -120.5 226t-42.5 261q0 198 87 360.5t239.5 255.5t338.5 93q175 0 317.5 -79.5t231.5 -225.5l-219 -138q-117 183 -330 183q-178 0 -293.5 -128t-115.5 -323
t110 -323t277 -128q78 0 151.5 33t126.5 92q24 27 38 54.5t32 81.5h-312v231zM905 1481h-266l-211 270h246l98 -147l98 147h246z" />
    <glyph glyph-name="Scommaaccent" unicode="&#x218;" horiz-adv-x="1474" 
d="M1272 1231l-137 -211q-134 69 -215.5 92t-194.5 23q-139 0 -212 -35t-73 -103q0 -54 35 -79q24 -15 50 -22.5t147 -31.5l325 -63q90 -19 140 -40t96 -59q61 -53 96 -130t35 -160q0 -200 -167 -319.5t-445 -119.5q-385 0 -643 201l147 213q124 -82 233.5 -118t239.5 -36
q96 0 182.5 18.5t137.5 49.5q26 17 42.5 49t16.5 66q0 68 -68 106q-20 10 -43.5 16t-146.5 31l-340 66q-153 31 -241.5 127.5t-88.5 232.5q0 185 146 291.5t401 106.5q154 0 279 -37t266 -125zM895 -92l-117 -314h-184l65 314h236z" />
    <glyph glyph-name="scommaaccent" unicode="&#x219;" horiz-adv-x="1474" 
d="M1272 1231l-137 -211q-134 69 -215.5 92t-194.5 23q-139 0 -212 -35t-73 -103q0 -54 35 -79q24 -15 50 -22.5t147 -31.5l325 -63q90 -19 140 -40t96 -59q61 -53 96 -130t35 -160q0 -200 -167 -319.5t-445 -119.5q-385 0 -643 201l147 213q124 -82 233.5 -118t239.5 -36
q96 0 182.5 18.5t137.5 49.5q26 17 42.5 49t16.5 66q0 68 -68 106q-20 10 -43.5 16t-146.5 31l-340 66q-153 31 -241.5 127.5t-88.5 232.5q0 185 146 291.5t401 106.5q154 0 279 -37t266 -125zM885 -92l-117 -314h-184l65 314h236z" />
    <glyph glyph-name="uni021A" unicode="&#x21a;" horiz-adv-x="1202" 
d="M27 1366h1147v-246h-443v-1120h-260v1120h-444v246zM719 -92l-117 -314h-182l63 314h236z" />
    <glyph glyph-name="uni021B" unicode="&#x21b;" horiz-adv-x="1202" 
d="M27 1366h1147v-246h-443v-1120h-260v1120h-444v246zM719 -92l-117 -314h-182l63 314h236z" />
    <glyph glyph-name="circumflex" unicode="&#x2c6;" horiz-adv-x="962" 
d="M614 1751l211 -270h-245l-99 147l-98 -147h-246l211 270h266z" />
    <glyph glyph-name="caron" unicode="&#x2c7;" horiz-adv-x="962" 
d="M614 1481h-266l-211 270h246l98 -147l99 147h245z" />
    <glyph glyph-name="uni02C9" unicode="&#x2c9;" horiz-adv-x="1007" 
d="M872 1714v-194h-735v194h735z" />
    <glyph glyph-name="breve" unicode="&#x2d8;" horiz-adv-x="925" 
d="M588 1726h203q-41 -251 -328 -251q-288 0 -326 251h203q24 -92 123 -92q101 0 125 92z" />
    <glyph glyph-name="dotaccent" unicode="&#x2d9;" horiz-adv-x="563" 
d="M285 1763q57 0 99 -42.5t42 -100.5q0 -60 -42 -102.5t-101 -42.5q-61 0 -103.5 42.5t-42.5 102.5t43 101.5t105 41.5z" />
    <glyph glyph-name="ring" unicode="&#x2da;" horiz-adv-x="696" 
d="M350 1716q-34 0 -57 -23t-23 -55q0 -34 23 -56.5t55 -22.5q34 0 57 22.5t23 54.5q0 34 -23 57t-55 23zM352 1849q85 0 146 -62.5t61 -148.5q0 -88 -61.5 -149.5t-149.5 -61.5t-149.5 62t-61.5 151q0 86 63 147.5t152 61.5z" />
    <glyph glyph-name="ogonek" unicode="&#x2db;" horiz-adv-x="778" 
d="M600 53l178 -53q-86 -25 -86 -96q0 -35 28 -55.5t75 -20.5q29 0 45 2v-162l-47 -2q-29 -2 -60 -2q-128 0 -205 52.5t-77 140.5q0 119 149 196z" />
    <glyph glyph-name="tilde" unicode="&#x2dc;" horiz-adv-x="976" 
d="M674 1724h168q-7 -123 -55.5 -180t-145.5 -57q-73 0 -164 55q-46 28 -67 36.5t-43 8.5q-59 0 -62 -74h-168q5 65 14 100t31 64q26 35 69 55.5t89 20.5q45 0 85.5 -13t96.5 -46q62 -39 92 -39q27 0 40.5 15.5t19.5 53.5z" />
    <glyph glyph-name="hungarumlaut" unicode="&#x2dd;" horiz-adv-x="808" 
d="M526 1753l-194 -272h-217l151 272h260zM918 1753l-195 -272h-217l151 272h261z" />
    <glyph glyph-name="Wdieresis" unicode="&#x1e84;" horiz-adv-x="1746" 
d="M82 1366h268l164 -836l231 836h259l229 -836l164 836h268l-281 -1366h-276l-234 864l-235 -864h-277zM596 1763q57 0 99 -42.5t42 -100.5q0 -60 -42 -102.5t-101 -42.5q-61 0 -103 42.5t-42 102.5t42.5 101.5t104.5 41.5zM1157 1763q57 0 99 -42.5t42 -100.5
q0 -60 -42 -102.5t-101 -42.5q-61 0 -103 42.5t-42 102.5t42.5 101.5t104.5 41.5z" />
    <glyph glyph-name="uni2011" unicode="&#x2011;" horiz-adv-x="454" 
d="M455 713v-242h-455v242h455z" />
    <glyph glyph-name="figuredash" unicode="&#x2012;" horiz-adv-x="1257" 
d="M1257 713v-242h-1257v242h1257z" />
    <glyph glyph-name="endash" unicode="&#x2013;" horiz-adv-x="1257" 
d="M1257 713v-242h-1257v242h1257z" />
    <glyph glyph-name="emdash" unicode="&#x2014;" horiz-adv-x="1773" 
d="M1610 713v-242h-1446v242h1446z" />
    <glyph glyph-name="afii00208" unicode="&#x2015;" horiz-adv-x="1773" 
d="M1610 713v-242h-1446v242h1446z" />
    <glyph glyph-name="quoteleft" unicode="&#x2018;" horiz-adv-x="464" 
d="M82 1053l117 313h184l-66 -313h-235z" />
    <glyph glyph-name="quoteright" unicode="&#x2019;" horiz-adv-x="436" 
d="M354 1366l-116 -313h-156l65 313h207z" />
    <glyph glyph-name="quotesinglbase" unicode="&#x201a;" horiz-adv-x="436" 
d="M354 162l-116 -314h-156l65 314h207z" />
    <glyph glyph-name="quotedblleft" unicode="&#x201c;" horiz-adv-x="765" 
d="M385 1053l117 313h182l-63 -313h-236zM82 1053l117 313h184l-66 -313h-235z" />
    <glyph glyph-name="quotedblright" unicode="&#x201d;" horiz-adv-x="765" 
d="M383 1366l-119 -313h-182l65 313h236zM684 1366l-117 -313h-182l64 313h235z" />
    <glyph glyph-name="quotedblbase" unicode="&#x201e;" horiz-adv-x="765" 
d="M383 162l-119 -314h-182l65 314h236zM684 162l-117 -314h-182l64 314h235z" />
    <glyph glyph-name="dagger" unicode="&#x2020;" horiz-adv-x="1202" 
d="M471 1073v293h260v-293h443v-246h-443v-1060h-260v1060h-444v246h444z" />
    <glyph glyph-name="daggerdbl" unicode="&#x2021;" horiz-adv-x="1202" 
d="M471 305v522h-444v246h444v293h260v-293h443v-246h-443v-522h443v-246h-443v-292h-260v292h-444v246h444z" />
    <glyph glyph-name="bullet" unicode="&#x2022;" horiz-adv-x="1392" 
d="M702 981q113 0 195 -84t82 -201q0 -119 -82.5 -202.5t-198.5 -83.5q-119 0 -200.5 83.5t-81.5 204.5q0 119 83 201t203 82z" />
    <glyph glyph-name="ellipsis" unicode="&#x2026;" horiz-adv-x="1480" 
d="M221 272q54 0 93.5 -40t39.5 -95q0 -57 -39.5 -97t-95.5 -40q-57 0 -97 40t-40 97t40 96t99 39zM1264 272q54 0 93.5 -40t39.5 -95q0 -57 -39.5 -97t-95.5 -40q-57 0 -97.5 40t-40.5 97t40.5 96t99.5 39zM743 272q54 0 94 -40t40 -95q0 -57 -40 -97t-96 -40q-57 0 -97 40
t-40 97t40 96t99 39z" />
    <glyph glyph-name="perthousand" unicode="&#x2030;" horiz-adv-x="2754" 
d="M1282 1374l-401 -1374h-181l404 1374h178zM1518 729q141 0 240.5 -110t99.5 -267q0 -160 -100.5 -269.5t-246.5 -109.5t-246 110t-100 271q0 158 102 266.5t251 108.5zM1516 590q-91 0 -152 -68.5t-61 -169.5q0 -100 60 -169.5t148 -69.5t148.5 69t60.5 170
q0 98 -59.5 168t-144.5 70zM461 1378q141 0 240.5 -110.5t99.5 -268.5q0 -160 -100 -269t-246 -109q-148 0 -247 109.5t-99 270.5q0 160 101.5 268.5t250.5 108.5zM459 1239q-90 0 -151.5 -69t-61.5 -169q0 -101 60.5 -171t148.5 -70t148.5 69.5t60.5 169.5q0 98 -60 169
t-145 71zM2306 729q141 0 240.5 -110t99.5 -267q0 -160 -100 -269.5t-246 -109.5t-246 110t-100 271q0 158 101.5 266.5t250.5 108.5zM2304 590q-91 0 -152 -68.5t-61 -169.5q0 -100 60.5 -169.5t148.5 -69.5t148.5 69t60.5 170q0 98 -60 168t-145 70z" />
    <glyph glyph-name="guilsinglleft" unicode="&#x2039;" horiz-adv-x="491" 
d="M215 866h195l-117 -372l117 -373h-195l-133 373z" />
    <glyph glyph-name="guilsinglright" unicode="&#x203a;" horiz-adv-x="491" 
d="M276 866l134 -372l-134 -373h-194l117 373l-117 372h194z" />
    <glyph glyph-name="uni203E" unicode="&#x203e;" horiz-adv-x="1050" 
d="M14 1735h1024v-82h-1024v82z" />
    <glyph glyph-name="fraction" unicode="&#x2044;" horiz-adv-x="546" 
d="M547 1374l-332 -1374h-215l334 1374h213z" />
    <glyph glyph-name="franc" unicode="&#x20a3;" horiz-adv-x="1601" 
d="M1051 821h209v-59q46 41 84.5 58.5t85.5 17.5q83 0 157 -45l-63 -226q-54 49 -111 49q-49 0 -89.5 -30.5t-55.5 -77.5q-8 -31 -8 -98v-410h-209v821zM178 1366h1092v-260h-832v-252h469v-260h-469v-594h-260v1366z" />
    <glyph glyph-name="Euro" unicode="&#x20ac;" horiz-adv-x="1183" 
d="M410 707v-25q0 -46 8 -90h459l-74 -195h-309q58 -79 149 -121.5t201 -42.5q109 0 219 52v-281q-121 -31 -221 -31q-223 0 -387.5 110t-247.5 314h-207l74 195h86q-4 29 -4 84v31h-156l74 194h110q67 230 242.5 361t413.5 131q169 0 317 -68l-94 -246q-108 54 -219 54
q-133 0 -235.5 -61.5t-153.5 -170.5h538l-73 -194h-510z" />
    <glyph glyph-name="trademark" unicode="&#x2122;" horiz-adv-x="1769" 
d="M23 1366h688v-147h-267v-672h-155v672h-266v147zM1659 1366v-819h-156v485l-278 -485l-279 485v-485h-155v819h145l289 -510l288 510h146z" />
    <glyph glyph-name="uni2126" unicode="&#x2126;" horiz-adv-x="1503" 
d="M887 0v379q112 41 181 141.5t69 222.5q0 162 -113 277t-272 115t-272 -115t-113 -277q0 -122 67.5 -221.5t179.5 -142.5v-379h-505v260h210q-210 192 -210 483q0 135 50 255.5t136 207t205 137t252 50.5t252 -50.5t205 -137t136 -207t50 -255.5q0 -290 -211 -483h211
v-260h-508z" />
    <glyph glyph-name="partialdiff" unicode="&#x2202;" horiz-adv-x="1474" 
d="M403 1102l-61 252q90 28 190 28q136 0 265 -40t231 -115q155 -114 246.5 -302.5t91.5 -392.5q0 -276 -164 -415q-170 -144 -469 -144q-134 0 -257.5 33.5t-209.5 93.5q-157 110 -157 310q0 192 177.5 313t461.5 121q93 0 156.5 -11.5t150.5 -44.5q-38 83 -69.5 126.5
t-84.5 84.5q-148 123 -338 123q-63 0 -160 -20zM745 582q-175 0 -309 -70q-74 -38 -74 -102q0 -67 74 -105q129 -69 316 -69q155 0 244 46t89 126q0 82 -90 128t-250 46z" />
    <glyph glyph-name="Delta" unicode="&#x2206;" 
d="M41 0l635 1366h272l635 -1366h-1542zM1182 254l-369 782l-369 -782h738z" />
    <glyph glyph-name="product" unicode="&#x220f;" horiz-adv-x="1611" 
d="M178 1538h1256v-2056h-260v1796h-736v-1796h-260v2056z" />
    <glyph glyph-name="summation" unicode="&#x2211;" horiz-adv-x="1474" 
d="M702 498l-522 796v242h1213v-246h-842l516 -792l-565 -748h891v-260h-1256v272z" />
    <glyph glyph-name="minus" unicode="&#x2212;" horiz-adv-x="1122" 
d="M1040 782v-166h-958v166h958z" />
    <glyph glyph-name="uni2215" unicode="&#x2215;" horiz-adv-x="546" 
d="M547 1374l-332 -1374h-215l334 1374h213z" />
    <glyph glyph-name="uni2219" unicode="&#x2219;" horiz-adv-x="436" 
d="M221 674q54 0 93.5 -40t39.5 -95q0 -57 -39.5 -97.5t-95.5 -40.5q-57 0 -97 40.5t-40 97.5t40 96t99 39z" />
    <glyph glyph-name="radical" unicode="&#x221a;" horiz-adv-x="1273" 
d="M1274 1694v-148h-277l-331 -1546h-281l-172 575h-199v148h365l143 -530l301 1501h451z" />
    <glyph glyph-name="infinity" unicode="&#x221e;" horiz-adv-x="1394" 
d="M698 633q-85 -126 -166.5 -183t-179.5 -57q-133 0 -216 85t-83 222q0 132 84.5 216.5t216.5 84.5q95 0 178 -58t162 -181q87 128 167.5 183.5t182.5 55.5q130 0 212.5 -86t82.5 -221q0 -134 -82.5 -218.5t-212.5 -84.5q-101 0 -181.5 57t-164.5 185zM743 698
q77 -122 144 -173.5t149 -51.5q92 0 150.5 62.5t58.5 160.5q0 97 -59.5 160.5t-151.5 63.5q-81 0 -145 -49t-146 -173zM649 696q-77 121 -144.5 172.5t-148.5 51.5q-91 0 -150 -62.5t-59 -159.5t59.5 -160t151.5 -63q82 0 147 49t144 172z" />
    <glyph glyph-name="integral" unicode="&#x222b;" horiz-adv-x="839" 
d="M799 1501l-41 -184q-43 14 -72 14q-114 0 -145 -98q-13 -43 -13 -203l-2 -1012q0 -202 -8 -271t-39 -120q-40 -62 -125.5 -99.5t-187.5 -37.5q-63 0 -125 29l43 190q34 -10 63 -10q56 0 95.5 26t52.5 72q9 27 10.5 60.5t3.5 185.5v963q3 200 6.5 243.5t18.5 91.5
q26 88 107.5 139.5t191.5 51.5q74 0 166 -31z" />
    <glyph glyph-name="approxequal" unicode="&#x2248;" horiz-adv-x="1048" 
d="M123 723l-68 117q105 202 260 202q76 0 230 -75q85 -42 121 -55t69 -13q59 0 100 30t93 111l67 -114q-101 -203 -270 -203q-43 0 -86 15.5t-162 74.5q-109 53 -168 53q-52 0 -93.5 -31.5t-92.5 -111.5zM123 385l-68 115q105 205 260 205q75 0 230 -78q86 -43 121 -55.5
t71 -12.5q56 0 97.5 31t93.5 112l67 -116q-101 -203 -270 -203q-41 0 -86 16.5t-162 75.5q-109 53 -168 53q-52 0 -93.5 -31.5t-92.5 -111.5z" />
    <glyph glyph-name="notequal" unicode="&#x2260;" horiz-adv-x="1122" 
d="M373 463h-291v166h369l73 159h-442v166h520l125 265l150 -64l-95 -201h258v-166h-335l-74 -159h409v-166h-487l-121 -258l-151 63z" />
    <glyph glyph-name="lessequal" unicode="&#x2264;" horiz-adv-x="978" 
d="M897 227v-194h-815v194h815zM82 903l815 375v-195l-604 -272l604 -272v-193l-815 375v182z" />
    <glyph glyph-name="greaterequal" unicode="&#x2265;" horiz-adv-x="978" 
d="M897 227v-194h-815v194h815zM897 903v-182l-815 -375v193l604 272l-604 272v195z" />
    <glyph glyph-name="lozenge" unicode="&#x25ca;" horiz-adv-x="1392" 
d="M698 1419l531 -735l-531 -737l-532 737zM698 1098l-303 -414l303 -416l301 416z" />
    </font>
</defs>
</svg>
